%
M48
M72
T01C0.01000
T02C0.01500
T03C0.01575
T04C0.02000
T05C0.03150
T06C0.03200
T07C0.03543
T08C0.03937
T09C0.11811
%
T01
X46500Y109500
X49500Y109500
X52500Y109500
X52500Y115500
X49500Y115500
X46500Y115500
X38500Y119500
X35500Y119500
X32500Y119500
X32500Y125500
X35500Y125500
X38500Y125500
X46500Y129500
X49500Y129500
X52500Y129500
X52500Y135500
X49500Y135500
X46500Y135500
X38500Y139500
X35500Y139500
X32500Y139500
X32500Y145500
X35500Y145500
X38500Y145500
X46500Y149500
X49500Y149500
X52500Y149500
X52500Y155500
X49500Y155500
X46500Y155500
X38500Y159500
X35500Y159500
X32500Y159500
X32500Y165500
X35500Y165500
X38500Y165500
X46500Y179500
X49500Y179500
X52500Y179500
X52500Y185500
X49500Y185500
X46500Y185500
X38500Y209500
X35500Y209500
X32500Y209500
X32500Y215500
X35500Y215500
X38500Y215500
X46500Y219500
X49500Y219500
X52500Y219500
X52500Y225500
X49500Y225500
X46500Y225500
X38500Y229500
X35500Y229500
X32500Y229500
X32500Y235500
X35500Y235500
X38500Y235500
X46500Y239500
X49500Y239500
X52500Y239500
X52500Y245500
X49500Y245500
X46500Y245500
X38500Y249500
X35500Y249500
X32500Y249500
X32500Y255500
X35500Y255500
X38500Y255500
X222500Y284500
X225500Y284500
X228500Y284500
X228500Y290500
X225500Y290500
X222500Y290500
X236500Y280500
X239500Y280500
X242500Y280500
X242500Y274500
X239500Y274500
X236500Y274500
X228500Y210500
X225500Y210500
X222500Y210500
X222500Y204500
X225500Y204500
X228500Y204500
X228500Y185500
X225500Y185500
X222500Y185500
X222500Y179500
X225500Y179500
X228500Y179500
X236000Y115500
X239000Y115500
X242000Y115500
X242000Y109500
X239000Y109500
X236000Y109500
X155500Y101000
X155500Y98000
X155500Y95000
X149500Y95000
X149500Y98000
X149500Y101000
X135500Y114000
X135500Y117000
X135500Y120000
X129500Y120000
X129500Y117000
X129500Y114000
T02
X161000Y115500
X164000Y119500
X167000Y123500
X185500Y143000
X201000Y142500
X201000Y147500
X201000Y152500
X201000Y162500
X201000Y167500
X201000Y172500
X201000Y182500
X201000Y187500
X201000Y197500
X201000Y207500
X201000Y212500
X201000Y217500
X201000Y227500
X201000Y232500
X201000Y237500
X201000Y247500
X201000Y252500
X185500Y243000
X185500Y223000
X185500Y203000
X185500Y183000
X185500Y163000
X148500Y167500
X148500Y172500
X143500Y172500
X143500Y182500
X143500Y187500
X148500Y187500
X148500Y192500
X148276Y197776
X144500Y204500
X148500Y207500
X148500Y212500
X148500Y227500
X148500Y232500
X143500Y227500
X148500Y247500
X148500Y252500
X178000Y288000
X182500Y291000
X163500Y312500
X178000Y315000
X178000Y320000
X203000Y325500
X234500Y247500
X230500Y237500
X234500Y227500
X148500Y152500
X148500Y147500
X201000Y132500
X201000Y127500
X201000Y117500
X80500Y190000
X80500Y195000
X80500Y200000
X80500Y205000
X80500Y210000
T03
X102500Y198500
X106500Y202500
X110500Y199000
X80500Y185000
X88000Y173000
X53500Y212500
X58000Y242500
X28000Y261500
X51000Y291000
X55000Y291000
X82500Y320500
X80500Y340000
X122500Y298500
X168500Y275500
X168500Y270500
X134500Y245500
X134500Y240500
X134500Y235500
X93000Y256500
X93000Y261000
X149000Y343000
X203000Y319500
X212500Y355000
X170000Y127500
T04
X82500Y97500
X97500Y97500
X111500Y97500
X111500Y112500
X97500Y112500
X82500Y112500
X82500Y127500
X97500Y127500
X111500Y127500
X131500Y132000
X112500Y152500
X86500Y166500
X110000Y192000
X107500Y237500
X92500Y237500
X107500Y252500
X127500Y272500
X113000Y283500
X97500Y303500
X92500Y303500
X92500Y311000
X97500Y311000
X122500Y307500
X141500Y290500
X163000Y302500
X150500Y307500
X167500Y332500
X189000Y329500
X212500Y302500
X212500Y287500
X247500Y287500
X247500Y267500
X237500Y321000
X237500Y337000
X129500Y339500
X129500Y333500
X120500Y333500
X120500Y339500
X110500Y336500
X101500Y336500
X120500Y351500
X129500Y351500
X129500Y357500
X120500Y357500
X110500Y354500
X101500Y354500
X52500Y342500
X27500Y342500
X55000Y315000
X22500Y292500
X22500Y272500
X22500Y252500
X22500Y232500
X55500Y255500
X53500Y275500
X37500Y182500
X22500Y182500
X22500Y162500
X22500Y142500
X22500Y122500
X235500Y122500
T05
X237500Y103500
X231500Y103500
X225500Y103500
X219500Y103500
X213500Y103500
X207500Y103500
X201500Y103500
X195500Y103500
X243500Y103500
X249500Y103500
X260500Y120500
X260500Y126500
X260500Y132500
X260500Y138500
X260500Y144500
X260500Y150500
X260500Y156500
X260500Y218500
X260500Y224500
X260500Y230500
X260500Y236500
X260500Y242500
X260500Y248500
X260500Y254500
X260500Y316500
X260500Y322500
X260500Y328500
X260500Y334500
X260500Y340500
X260500Y346500
X260500Y352500
X42500Y103500
X35500Y103500
X28500Y103500
X21500Y103500
X260500Y58500
X260500Y52500
X260500Y46500
X260500Y40500
X260500Y34500
X260500Y28500
X260500Y22500
T06
X192343Y341870
X172657Y341870
T07
X84406Y349000
X72594Y349000
T08
X297500Y327500
X307500Y327500
X307500Y317500
X307500Y307500
X297500Y307500
X297500Y317500
X297500Y297500
X307500Y297500
X307500Y287500
X297500Y287500
X297500Y267500
X297500Y257500
X307500Y257500
X307500Y267500
X332500Y262500
X342500Y262500
X352500Y262500
X362500Y262500
X372500Y262500
X372500Y252500
X372500Y242500
X362500Y242500
X362500Y252500
X352500Y252500
X352500Y242500
X342500Y242500
X342500Y252500
X332500Y252500
X332500Y242500
X332500Y232500
X342500Y232500
X352500Y232500
X362500Y232500
X372500Y232500
X372500Y222500
X372500Y212500
X362500Y212500
X362500Y222500
X352500Y222500
X352500Y212500
X342500Y212500
X342500Y222500
X332500Y222500
X332500Y212500
X332500Y202500
X342500Y202500
X352500Y202500
X362500Y202500
X372500Y202500
X372500Y192500
X372500Y182500
X362500Y182500
X362500Y192500
X352500Y192500
X352500Y182500
X342500Y182500
X342500Y192500
X332500Y192500
X332500Y182500
X332500Y172500
X342500Y172500
X352500Y172500
X362500Y172500
X372500Y172500
X372500Y162500
X372500Y152500
X362500Y152500
X362500Y162500
X352500Y162500
X352500Y152500
X342500Y152500
X342500Y162500
X332500Y162500
X332500Y152500
X332500Y142500
X332500Y132500
X342500Y132500
X342500Y142500
X352500Y142500
X352500Y132500
X362500Y132500
X362500Y142500
X372500Y142500
X372500Y132500
X372500Y122500
X362500Y122500
X352500Y122500
X342500Y122500
X332500Y122500
X332500Y112500
X332500Y102500
X342500Y102500
X342500Y112500
X352500Y112500
X352500Y102500
X362500Y102500
X362500Y112500
X372500Y112500
X372500Y102500
X372500Y92500
X362500Y92500
X352500Y92500
X342500Y92500
X332500Y92500
X332500Y82500
X332500Y72500
X342500Y72500
X342500Y82500
X352500Y82500
X352500Y72500
X362500Y72500
X362500Y82500
X372500Y82500
X372500Y72500
X372500Y62500
X362500Y62500
X352500Y62500
X342500Y62500
X332500Y62500
X332500Y52500
X332500Y42500
X342500Y42500
X342500Y52500
X352500Y52500
X352500Y42500
X362500Y42500
X362500Y52500
X372500Y52500
X372500Y42500
X402500Y42500
X402500Y52500
X412500Y52500
X412500Y42500
X422500Y42500
X422500Y52500
X432500Y52500
X432500Y42500
X442500Y42500
X442500Y52500
X442500Y62500
X432500Y62500
X422500Y62500
X412500Y62500
X402500Y62500
X402500Y72500
X402500Y82500
X412500Y82500
X412500Y72500
X422500Y72500
X422500Y82500
X432500Y82500
X432500Y72500
X442500Y72500
X442500Y82500
X442500Y92500
X432500Y92500
X422500Y92500
X412500Y92500
X402500Y92500
X402500Y102500
X402500Y112500
X412500Y112500
X412500Y102500
X422500Y102500
X422500Y112500
X432500Y112500
X432500Y102500
X442500Y102500
X442500Y112500
X442500Y122500
X432500Y122500
X422500Y122500
X412500Y122500
X402500Y122500
X402500Y132500
X402500Y142500
X412500Y142500
X412500Y132500
X422500Y132500
X422500Y142500
X432500Y142500
X432500Y132500
X442500Y132500
X442500Y142500
X442500Y152500
X442500Y162500
X432500Y162500
X432500Y152500
X422500Y152500
X422500Y162500
X412500Y162500
X412500Y152500
X402500Y152500
X402500Y162500
X402500Y172500
X412500Y172500
X422500Y172500
X432500Y172500
X442500Y172500
X442500Y182500
X442500Y192500
X432500Y192500
X432500Y182500
X422500Y182500
X422500Y192500
X412500Y192500
X412500Y182500
X402500Y182500
X402500Y192500
X402500Y202500
X412500Y202500
X422500Y202500
X432500Y202500
X442500Y202500
X442500Y212500
X442500Y222500
X432500Y222500
X432500Y212500
X422500Y212500
X422500Y222500
X412500Y222500
X412500Y212500
X402500Y212500
X402500Y222500
X402500Y232500
X412500Y232500
X422500Y232500
X432500Y232500
X442500Y232500
X442500Y242500
X442500Y252500
X432500Y252500
X432500Y242500
X422500Y242500
X422500Y252500
X412500Y252500
X412500Y242500
X402500Y242500
X402500Y252500
X402500Y262500
X412500Y262500
X422500Y262500
X432500Y262500
X442500Y262500
X442500Y272500
X442500Y282500
X432500Y282500
X432500Y272500
X422500Y272500
X422500Y282500
X412500Y282500
X412500Y272500
X402500Y272500
X402500Y282500
X402500Y292500
X402500Y302500
X412500Y302500
X412500Y292500
X422500Y292500
X422500Y302500
X432500Y302500
X432500Y292500
X442500Y292500
X442500Y302500
X442500Y312500
X432500Y312500
X422500Y312500
X412500Y312500
X402500Y312500
X402500Y322500
X402500Y332500
X412500Y332500
X412500Y322500
X422500Y322500
X422500Y332500
X432500Y332500
X432500Y322500
X442500Y322500
X442500Y332500
X467500Y327500
X477500Y327500
X477500Y317500
X477500Y307500
X467500Y307500
X467500Y317500
X467500Y297500
X477500Y297500
X477500Y287500
X467500Y287500
X467500Y267500
X467500Y257500
X477500Y257500
X477500Y267500
X477500Y247500
X467500Y247500
X467500Y237500
X467500Y227500
X477500Y227500
X477500Y237500
X477500Y207500
X477500Y197500
X467500Y197500
X467500Y207500
X467500Y187500
X477500Y187500
X477500Y177500
X477500Y167500
X467500Y167500
X467500Y177500
X467500Y147500
X467500Y137500
X477500Y137500
X477500Y147500
X477500Y127500
X477500Y117500
X467500Y117500
X467500Y127500
X467500Y107500
X477500Y107500
X477500Y87500
X467500Y87500
X467500Y77500
X477500Y77500
X477500Y67500
X477500Y57500
X467500Y57500
X467500Y67500
X467500Y47500
X477500Y47500
X307500Y47500
X297500Y47500
X297500Y57500
X297500Y67500
X307500Y67500
X307500Y57500
X307500Y77500
X297500Y77500
X297500Y87500
X307500Y87500
X307500Y107500
X297500Y107500
X297500Y117500
X297500Y127500
X307500Y127500
X307500Y117500
X307500Y137500
X307500Y147500
X297500Y147500
X297500Y137500
X297500Y167500
X297500Y177500
X307500Y177500
X307500Y167500
X307500Y187500
X297500Y187500
X297500Y197500
X297500Y207500
X307500Y207500
X307500Y197500
X307500Y227500
X307500Y237500
X297500Y237500
X297500Y227500
X297500Y247500
X307500Y247500
X332500Y272500
X332500Y282500
X342500Y282500
X342500Y272500
X352500Y272500
X352500Y282500
X362500Y282500
X362500Y272500
X372500Y272500
X372500Y282500
X372500Y292500
X372500Y302500
X362500Y302500
X362500Y292500
X352500Y292500
X352500Y302500
X342500Y302500
X342500Y292500
X332500Y292500
X332500Y302500
X332500Y312500
X342500Y312500
X352500Y312500
X362500Y312500
X372500Y312500
X372500Y322500
X372500Y332500
X362500Y332500
X362500Y322500
X352500Y322500
X352500Y332500
X342500Y332500
X342500Y322500
X332500Y322500
X332500Y332500
T09
X232500Y302500
X42500Y307500
X62500Y102500
X172500Y102500
X507500Y22500
X507500Y352500
M30
