G75*
%MOIN*%
%OFA0B0*%
%FSLAX25Y25*%
%IPPOS*%
%LPD*%
%AMOC8*
5,1,8,0,0,1.08239X$1,22.5*
%
%ADD10C,0.01100*%
%ADD11C,0.02953*%
%ADD12C,0.03937*%
%ADD13C,0.01969*%
%ADD14C,0.01181*%
%ADD15C,0.01575*%
%ADD16C,0.00787*%
%ADD17R,0.05906X0.07480*%
%ADD18R,0.07087X0.07480*%
%ADD19C,0.05700*%
%ADD20C,0.03150*%
%ADD21C,0.01673*%
%ADD22C,0.02559*%
%ADD23C,0.03543*%
%ADD24C,0.01378*%
%ADD25C,0.02520*%
D10*
X0107356Y0175988D02*
X0110112Y0178744D01*
X0107356Y0175988D02*
X0106578Y0176766D01*
X0109334Y0179522D01*
X0110112Y0178744D01*
X0108455Y0177087D02*
X0106899Y0177087D01*
X0107998Y0178186D02*
X0109554Y0178186D01*
X0109571Y0179285D02*
X0109097Y0179285D01*
X0107885Y0180971D02*
X0105129Y0178215D01*
X0104351Y0178993D01*
X0107107Y0181749D01*
X0107885Y0180971D01*
X0106228Y0179314D02*
X0104672Y0179314D01*
X0105771Y0180413D02*
X0107327Y0180413D01*
X0107344Y0181512D02*
X0106870Y0181512D01*
X0105658Y0183198D02*
X0102902Y0180442D01*
X0102124Y0181220D01*
X0104880Y0183976D01*
X0105658Y0183198D01*
X0104001Y0181541D02*
X0102445Y0181541D01*
X0103544Y0182640D02*
X0105100Y0182640D01*
X0105117Y0183739D02*
X0104643Y0183739D01*
X0103430Y0185425D02*
X0100674Y0182669D01*
X0099896Y0183447D01*
X0102652Y0186203D01*
X0103430Y0185425D01*
X0101773Y0183768D02*
X0100217Y0183768D01*
X0101316Y0184867D02*
X0102872Y0184867D01*
X0102889Y0185966D02*
X0102415Y0185966D01*
X0101203Y0187652D02*
X0098447Y0184896D01*
X0097669Y0185674D01*
X0100425Y0188430D01*
X0101203Y0187652D01*
X0099546Y0185995D02*
X0097990Y0185995D01*
X0099089Y0187094D02*
X0100645Y0187094D01*
X0100662Y0188193D02*
X0100188Y0188193D01*
X0098976Y0189880D02*
X0096220Y0187124D01*
X0095442Y0187902D01*
X0098198Y0190658D01*
X0098976Y0189880D01*
X0097319Y0188223D02*
X0095763Y0188223D01*
X0096862Y0189322D02*
X0098418Y0189322D01*
X0098435Y0190421D02*
X0097961Y0190421D01*
X0096749Y0192107D02*
X0093993Y0189351D01*
X0093215Y0190129D01*
X0095971Y0192885D01*
X0096749Y0192107D01*
X0095092Y0190450D02*
X0093536Y0190450D01*
X0094635Y0191549D02*
X0096191Y0191549D01*
X0096208Y0192648D02*
X0095734Y0192648D01*
X0094522Y0194334D02*
X0091766Y0191578D01*
X0090988Y0192356D01*
X0093744Y0195112D01*
X0094522Y0194334D01*
X0092865Y0192677D02*
X0091309Y0192677D01*
X0092408Y0193776D02*
X0093964Y0193776D01*
X0093981Y0194875D02*
X0093507Y0194875D01*
X0093744Y0199888D02*
X0094522Y0200666D01*
X0093744Y0199888D02*
X0090988Y0202644D01*
X0091766Y0203422D01*
X0094522Y0200666D01*
X0094201Y0200987D02*
X0092645Y0200987D01*
X0093102Y0202086D02*
X0091546Y0202086D01*
X0091529Y0203185D02*
X0092003Y0203185D01*
X0095971Y0202115D02*
X0096749Y0202893D01*
X0095971Y0202115D02*
X0093215Y0204871D01*
X0093993Y0205649D01*
X0096749Y0202893D01*
X0096428Y0203214D02*
X0094872Y0203214D01*
X0095329Y0204313D02*
X0093773Y0204313D01*
X0093756Y0205412D02*
X0094230Y0205412D01*
X0098198Y0204342D02*
X0098976Y0205120D01*
X0098198Y0204342D02*
X0095442Y0207098D01*
X0096220Y0207876D01*
X0098976Y0205120D01*
X0098655Y0205441D02*
X0097099Y0205441D01*
X0097556Y0206540D02*
X0096000Y0206540D01*
X0095983Y0207639D02*
X0096457Y0207639D01*
X0100425Y0206570D02*
X0101203Y0207348D01*
X0100425Y0206570D02*
X0097669Y0209326D01*
X0098447Y0210104D01*
X0101203Y0207348D01*
X0100882Y0207669D02*
X0099326Y0207669D01*
X0099783Y0208768D02*
X0098227Y0208768D01*
X0098210Y0209867D02*
X0098684Y0209867D01*
X0102652Y0208797D02*
X0103430Y0209575D01*
X0102652Y0208797D02*
X0099896Y0211553D01*
X0100674Y0212331D01*
X0103430Y0209575D01*
X0103109Y0209896D02*
X0101553Y0209896D01*
X0102010Y0210995D02*
X0100454Y0210995D01*
X0100437Y0212094D02*
X0100911Y0212094D01*
X0104880Y0211024D02*
X0105658Y0211802D01*
X0104880Y0211024D02*
X0102124Y0213780D01*
X0102902Y0214558D01*
X0105658Y0211802D01*
X0105337Y0212123D02*
X0103781Y0212123D01*
X0104238Y0213222D02*
X0102682Y0213222D01*
X0102665Y0214321D02*
X0103139Y0214321D01*
X0107107Y0213251D02*
X0107885Y0214029D01*
X0107107Y0213251D02*
X0104351Y0216007D01*
X0105129Y0216785D01*
X0107885Y0214029D01*
X0107564Y0214350D02*
X0106008Y0214350D01*
X0106465Y0215449D02*
X0104909Y0215449D01*
X0104892Y0216548D02*
X0105366Y0216548D01*
X0109334Y0215478D02*
X0110112Y0216256D01*
X0109334Y0215478D02*
X0106578Y0218234D01*
X0107356Y0219012D01*
X0110112Y0216256D01*
X0109791Y0216577D02*
X0108235Y0216577D01*
X0108692Y0217676D02*
X0107136Y0217676D01*
X0107119Y0218775D02*
X0107593Y0218775D01*
X0115666Y0215478D02*
X0118422Y0218234D01*
X0115666Y0215478D02*
X0114888Y0216256D01*
X0117644Y0219012D01*
X0118422Y0218234D01*
X0116765Y0216577D02*
X0115209Y0216577D01*
X0116308Y0217676D02*
X0117864Y0217676D01*
X0117881Y0218775D02*
X0117407Y0218775D01*
X0120649Y0216007D02*
X0117893Y0213251D01*
X0117115Y0214029D01*
X0119871Y0216785D01*
X0120649Y0216007D01*
X0118992Y0214350D02*
X0117436Y0214350D01*
X0118535Y0215449D02*
X0120091Y0215449D01*
X0120108Y0216548D02*
X0119634Y0216548D01*
X0122876Y0213780D02*
X0120120Y0211024D01*
X0119342Y0211802D01*
X0122098Y0214558D01*
X0122876Y0213780D01*
X0121219Y0212123D02*
X0119663Y0212123D01*
X0120762Y0213222D02*
X0122318Y0213222D01*
X0122335Y0214321D02*
X0121861Y0214321D01*
X0125104Y0211553D02*
X0122348Y0208797D01*
X0121570Y0209575D01*
X0124326Y0212331D01*
X0125104Y0211553D01*
X0123447Y0209896D02*
X0121891Y0209896D01*
X0122990Y0210995D02*
X0124546Y0210995D01*
X0124563Y0212094D02*
X0124089Y0212094D01*
X0127331Y0209326D02*
X0124575Y0206570D01*
X0123797Y0207348D01*
X0126553Y0210104D01*
X0127331Y0209326D01*
X0125674Y0207669D02*
X0124118Y0207669D01*
X0125217Y0208768D02*
X0126773Y0208768D01*
X0126790Y0209867D02*
X0126316Y0209867D01*
X0129558Y0207098D02*
X0126802Y0204342D01*
X0126024Y0205120D01*
X0128780Y0207876D01*
X0129558Y0207098D01*
X0127901Y0205441D02*
X0126345Y0205441D01*
X0127444Y0206540D02*
X0129000Y0206540D01*
X0129017Y0207639D02*
X0128543Y0207639D01*
X0131785Y0204871D02*
X0129029Y0202115D01*
X0128251Y0202893D01*
X0131007Y0205649D01*
X0131785Y0204871D01*
X0130128Y0203214D02*
X0128572Y0203214D01*
X0129671Y0204313D02*
X0131227Y0204313D01*
X0131244Y0205412D02*
X0130770Y0205412D01*
X0134012Y0202644D02*
X0131256Y0199888D01*
X0130478Y0200666D01*
X0133234Y0203422D01*
X0134012Y0202644D01*
X0132355Y0200987D02*
X0130799Y0200987D01*
X0131898Y0202086D02*
X0133454Y0202086D01*
X0133471Y0203185D02*
X0132997Y0203185D01*
X0134012Y0192356D02*
X0133234Y0191578D01*
X0130478Y0194334D01*
X0131256Y0195112D01*
X0134012Y0192356D01*
X0133691Y0192677D02*
X0132135Y0192677D01*
X0132592Y0193776D02*
X0131036Y0193776D01*
X0131019Y0194875D02*
X0131493Y0194875D01*
X0131785Y0190129D02*
X0131007Y0189351D01*
X0128251Y0192107D01*
X0129029Y0192885D01*
X0131785Y0190129D01*
X0131464Y0190450D02*
X0129908Y0190450D01*
X0130365Y0191549D02*
X0128809Y0191549D01*
X0128792Y0192648D02*
X0129266Y0192648D01*
X0129558Y0187902D02*
X0128780Y0187124D01*
X0126024Y0189880D01*
X0126802Y0190658D01*
X0129558Y0187902D01*
X0129237Y0188223D02*
X0127681Y0188223D01*
X0128138Y0189322D02*
X0126582Y0189322D01*
X0126565Y0190421D02*
X0127039Y0190421D01*
X0127331Y0185674D02*
X0126553Y0184896D01*
X0123797Y0187652D01*
X0124575Y0188430D01*
X0127331Y0185674D01*
X0127010Y0185995D02*
X0125454Y0185995D01*
X0125911Y0187094D02*
X0124355Y0187094D01*
X0124338Y0188193D02*
X0124812Y0188193D01*
X0125104Y0183447D02*
X0124326Y0182669D01*
X0121570Y0185425D01*
X0122348Y0186203D01*
X0125104Y0183447D01*
X0124783Y0183768D02*
X0123227Y0183768D01*
X0123684Y0184867D02*
X0122128Y0184867D01*
X0122111Y0185966D02*
X0122585Y0185966D01*
X0122876Y0181220D02*
X0122098Y0180442D01*
X0119342Y0183198D01*
X0120120Y0183976D01*
X0122876Y0181220D01*
X0122555Y0181541D02*
X0120999Y0181541D01*
X0121456Y0182640D02*
X0119900Y0182640D01*
X0119883Y0183739D02*
X0120357Y0183739D01*
X0120649Y0178993D02*
X0119871Y0178215D01*
X0117115Y0180971D01*
X0117893Y0181749D01*
X0120649Y0178993D01*
X0120328Y0179314D02*
X0118772Y0179314D01*
X0119229Y0180413D02*
X0117673Y0180413D01*
X0117656Y0181512D02*
X0118130Y0181512D01*
X0118422Y0176766D02*
X0117644Y0175988D01*
X0114888Y0178744D01*
X0115666Y0179522D01*
X0118422Y0176766D01*
X0118101Y0177087D02*
X0116545Y0177087D01*
X0117002Y0178186D02*
X0115446Y0178186D01*
X0115429Y0179285D02*
X0115903Y0179285D01*
D11*
X0094727Y0174299D02*
X0094031Y0174995D01*
X0095005Y0175969D01*
X0095701Y0175273D01*
X0094727Y0174299D01*
X0089995Y0179031D02*
X0089299Y0179727D01*
X0090273Y0180701D01*
X0090969Y0180005D01*
X0089995Y0179031D01*
X0130201Y0219273D02*
X0129505Y0219969D01*
X0130201Y0219273D02*
X0129227Y0218299D01*
X0128531Y0218995D01*
X0129505Y0219969D01*
X0125469Y0224005D02*
X0124773Y0224701D01*
X0125469Y0224005D02*
X0124495Y0223031D01*
X0123799Y0223727D01*
X0124773Y0224701D01*
X0152662Y0231811D02*
X0153646Y0231811D01*
X0152662Y0231811D02*
X0152662Y0233189D01*
X0153646Y0233189D01*
X0153646Y0231811D01*
X0159354Y0231811D02*
X0160338Y0231811D01*
X0159354Y0231811D02*
X0159354Y0233189D01*
X0160338Y0233189D01*
X0160338Y0231811D01*
X0167162Y0226811D02*
X0168146Y0226811D01*
X0167162Y0226811D02*
X0167162Y0228189D01*
X0168146Y0228189D01*
X0168146Y0226811D01*
X0173854Y0226811D02*
X0174838Y0226811D01*
X0173854Y0226811D02*
X0173854Y0228189D01*
X0174838Y0228189D01*
X0174838Y0226811D01*
X0181662Y0233189D02*
X0182646Y0233189D01*
X0182646Y0231811D01*
X0181662Y0231811D01*
X0181662Y0233189D01*
X0174838Y0238189D02*
X0173854Y0238189D01*
X0174838Y0238189D02*
X0174838Y0236811D01*
X0173854Y0236811D01*
X0173854Y0238189D01*
X0168146Y0238189D02*
X0167162Y0238189D01*
X0168146Y0238189D02*
X0168146Y0236811D01*
X0167162Y0236811D01*
X0167162Y0238189D01*
X0167162Y0246811D02*
X0168146Y0246811D01*
X0167162Y0246811D02*
X0167162Y0248189D01*
X0168146Y0248189D01*
X0168146Y0246811D01*
X0173854Y0246811D02*
X0174838Y0246811D01*
X0173854Y0246811D02*
X0173854Y0248189D01*
X0174838Y0248189D01*
X0174838Y0246811D01*
X0160338Y0251811D02*
X0159354Y0251811D01*
X0159354Y0253189D01*
X0160338Y0253189D01*
X0160338Y0251811D01*
X0153646Y0251811D02*
X0152662Y0251811D01*
X0152662Y0253189D01*
X0153646Y0253189D01*
X0153646Y0251811D01*
X0177189Y0274662D02*
X0177189Y0275646D01*
X0177189Y0274662D02*
X0175811Y0274662D01*
X0175811Y0275646D01*
X0177189Y0275646D01*
X0183189Y0275646D02*
X0183189Y0274662D01*
X0181811Y0274662D01*
X0181811Y0275646D01*
X0183189Y0275646D01*
X0189189Y0275646D02*
X0189189Y0274662D01*
X0187811Y0274662D01*
X0187811Y0275646D01*
X0189189Y0275646D01*
X0189189Y0281354D02*
X0189189Y0282338D01*
X0189189Y0281354D02*
X0187811Y0281354D01*
X0187811Y0282338D01*
X0189189Y0282338D01*
X0183189Y0282338D02*
X0183189Y0281354D01*
X0181811Y0281354D01*
X0181811Y0282338D01*
X0183189Y0282338D01*
X0177189Y0282338D02*
X0177189Y0281354D01*
X0175811Y0281354D01*
X0175811Y0282338D01*
X0177189Y0282338D01*
X0208662Y0318811D02*
X0209646Y0318811D01*
X0208662Y0318811D02*
X0208662Y0320189D01*
X0209646Y0320189D01*
X0209646Y0318811D01*
X0215354Y0318811D02*
X0216338Y0318811D01*
X0215354Y0318811D02*
X0215354Y0320189D01*
X0216338Y0320189D01*
X0216338Y0318811D01*
X0216338Y0326189D02*
X0215354Y0326189D01*
X0216338Y0326189D02*
X0216338Y0324811D01*
X0215354Y0324811D01*
X0215354Y0326189D01*
X0215354Y0330811D02*
X0216338Y0330811D01*
X0215354Y0330811D02*
X0215354Y0332189D01*
X0216338Y0332189D01*
X0216338Y0330811D01*
X0209646Y0330811D02*
X0208662Y0330811D01*
X0208662Y0332189D01*
X0209646Y0332189D01*
X0209646Y0330811D01*
X0209646Y0326189D02*
X0208662Y0326189D01*
X0209646Y0326189D02*
X0209646Y0324811D01*
X0208662Y0324811D01*
X0208662Y0326189D01*
X0208662Y0336811D02*
X0209646Y0336811D01*
X0208662Y0336811D02*
X0208662Y0338189D01*
X0209646Y0338189D01*
X0209646Y0336811D01*
X0215354Y0336811D02*
X0216338Y0336811D01*
X0215354Y0336811D02*
X0215354Y0338189D01*
X0216338Y0338189D01*
X0216338Y0336811D01*
X0216338Y0342811D02*
X0215354Y0342811D01*
X0215354Y0344189D01*
X0216338Y0344189D01*
X0216338Y0342811D01*
X0209646Y0342811D02*
X0208662Y0342811D01*
X0208662Y0344189D01*
X0209646Y0344189D01*
X0209646Y0342811D01*
X0209646Y0350189D02*
X0208662Y0350189D01*
X0209646Y0350189D02*
X0209646Y0348811D01*
X0208662Y0348811D01*
X0208662Y0350189D01*
X0215354Y0350189D02*
X0216338Y0350189D01*
X0216338Y0348811D01*
X0215354Y0348811D01*
X0215354Y0350189D01*
X0135811Y0349146D02*
X0135811Y0348162D01*
X0135811Y0349146D02*
X0137189Y0349146D01*
X0137189Y0348162D01*
X0135811Y0348162D01*
X0135811Y0354854D02*
X0135811Y0355838D01*
X0137189Y0355838D01*
X0137189Y0354854D01*
X0135811Y0354854D01*
X0137189Y0342838D02*
X0137189Y0341854D01*
X0135811Y0341854D01*
X0135811Y0342838D01*
X0137189Y0342838D01*
X0137189Y0336146D02*
X0137189Y0335162D01*
X0135811Y0335162D01*
X0135811Y0336146D01*
X0137189Y0336146D01*
X0089189Y0327838D02*
X0089189Y0326854D01*
X0087811Y0326854D01*
X0087811Y0327838D01*
X0089189Y0327838D01*
X0089189Y0321146D02*
X0089189Y0320162D01*
X0087811Y0320162D01*
X0087811Y0321146D01*
X0089189Y0321146D01*
X0081689Y0311338D02*
X0081689Y0310354D01*
X0080311Y0310354D01*
X0080311Y0311338D01*
X0081689Y0311338D01*
X0074689Y0311338D02*
X0074689Y0310354D01*
X0073311Y0310354D01*
X0073311Y0311338D01*
X0074689Y0311338D01*
X0074689Y0304646D02*
X0074689Y0303662D01*
X0073311Y0303662D01*
X0073311Y0304646D01*
X0074689Y0304646D01*
X0081689Y0304646D02*
X0081689Y0303662D01*
X0080311Y0303662D01*
X0080311Y0304646D01*
X0081689Y0304646D01*
X0091811Y0296338D02*
X0091811Y0295354D01*
X0091811Y0296338D02*
X0093189Y0296338D01*
X0093189Y0295354D01*
X0091811Y0295354D01*
X0091811Y0289646D02*
X0091811Y0288662D01*
X0091811Y0289646D02*
X0093189Y0289646D01*
X0093189Y0288662D01*
X0091811Y0288662D01*
X0067689Y0303662D02*
X0067689Y0304646D01*
X0067689Y0303662D02*
X0066311Y0303662D01*
X0066311Y0304646D01*
X0067689Y0304646D01*
X0067689Y0310354D02*
X0067689Y0311338D01*
X0067689Y0310354D02*
X0066311Y0310354D01*
X0066311Y0311338D01*
X0067689Y0311338D01*
X0059311Y0311338D02*
X0059311Y0310354D01*
X0059311Y0311338D02*
X0060689Y0311338D01*
X0060689Y0310354D01*
X0059311Y0310354D01*
X0059311Y0304646D02*
X0059311Y0303662D01*
X0059311Y0304646D02*
X0060689Y0304646D01*
X0060689Y0303662D01*
X0059311Y0303662D01*
X0023811Y0307662D02*
X0023811Y0308646D01*
X0025189Y0308646D01*
X0025189Y0307662D01*
X0023811Y0307662D01*
X0023811Y0314354D02*
X0023811Y0315338D01*
X0025189Y0315338D01*
X0025189Y0314354D01*
X0023811Y0314354D01*
X0022773Y0352634D02*
X0027366Y0357227D01*
X0029455Y0355138D01*
X0024862Y0350545D01*
X0022773Y0352634D01*
X0023636Y0353497D02*
X0027814Y0353497D01*
X0028144Y0356449D02*
X0026588Y0356449D01*
X0069811Y0263338D02*
X0069811Y0262354D01*
X0069811Y0263338D02*
X0071189Y0263338D01*
X0071189Y0262354D01*
X0069811Y0262354D01*
X0069811Y0256646D02*
X0069811Y0255662D01*
X0069811Y0256646D02*
X0071189Y0256646D01*
X0071189Y0255662D01*
X0069811Y0255662D01*
X0028338Y0204811D02*
X0027354Y0204811D01*
X0027354Y0206189D01*
X0028338Y0206189D01*
X0028338Y0204811D01*
X0021646Y0204811D02*
X0020662Y0204811D01*
X0020662Y0206189D01*
X0021646Y0206189D01*
X0021646Y0204811D01*
X0021646Y0198811D02*
X0020662Y0198811D01*
X0020662Y0200189D01*
X0021646Y0200189D01*
X0021646Y0198811D01*
X0027354Y0198811D02*
X0028338Y0198811D01*
X0027354Y0198811D02*
X0027354Y0200189D01*
X0028338Y0200189D01*
X0028338Y0198811D01*
X0101662Y0137811D02*
X0102646Y0137811D01*
X0101662Y0137811D02*
X0101662Y0139189D01*
X0102646Y0139189D01*
X0102646Y0137811D01*
X0108354Y0137811D02*
X0109338Y0137811D01*
X0108354Y0137811D02*
X0108354Y0139189D01*
X0109338Y0139189D01*
X0109338Y0137811D01*
X0115662Y0139189D02*
X0116646Y0139189D01*
X0116646Y0137811D01*
X0115662Y0137811D01*
X0115662Y0139189D01*
X0122354Y0139189D02*
X0123338Y0139189D01*
X0123338Y0137811D01*
X0122354Y0137811D01*
X0122354Y0139189D01*
X0152662Y0151811D02*
X0153646Y0151811D01*
X0152662Y0151811D02*
X0152662Y0153189D01*
X0153646Y0153189D01*
X0153646Y0151811D01*
X0159354Y0151811D02*
X0160338Y0151811D01*
X0159354Y0151811D02*
X0159354Y0153189D01*
X0160338Y0153189D01*
X0160338Y0151811D01*
X0167162Y0146811D02*
X0168146Y0146811D01*
X0167162Y0146811D02*
X0167162Y0148189D01*
X0168146Y0148189D01*
X0168146Y0146811D01*
X0173854Y0146811D02*
X0174838Y0146811D01*
X0173854Y0146811D02*
X0173854Y0148189D01*
X0174838Y0148189D01*
X0174838Y0146811D01*
X0181662Y0153189D02*
X0182646Y0153189D01*
X0182646Y0151811D01*
X0181662Y0151811D01*
X0181662Y0153189D01*
X0174838Y0158189D02*
X0173854Y0158189D01*
X0174838Y0158189D02*
X0174838Y0156811D01*
X0173854Y0156811D01*
X0173854Y0158189D01*
X0168146Y0158189D02*
X0167162Y0158189D01*
X0168146Y0158189D02*
X0168146Y0156811D01*
X0167162Y0156811D01*
X0167162Y0158189D01*
X0167162Y0166811D02*
X0168146Y0166811D01*
X0167162Y0166811D02*
X0167162Y0168189D01*
X0168146Y0168189D01*
X0168146Y0166811D01*
X0173854Y0166811D02*
X0174838Y0166811D01*
X0173854Y0166811D02*
X0173854Y0168189D01*
X0174838Y0168189D01*
X0174838Y0166811D01*
X0181662Y0173189D02*
X0182646Y0173189D01*
X0182646Y0171811D01*
X0181662Y0171811D01*
X0181662Y0173189D01*
X0174838Y0178189D02*
X0173854Y0178189D01*
X0174838Y0178189D02*
X0174838Y0176811D01*
X0173854Y0176811D01*
X0173854Y0178189D01*
X0168146Y0178189D02*
X0167162Y0178189D01*
X0168146Y0178189D02*
X0168146Y0176811D01*
X0167162Y0176811D01*
X0167162Y0178189D01*
X0160338Y0171811D02*
X0159354Y0171811D01*
X0159354Y0173189D01*
X0160338Y0173189D01*
X0160338Y0171811D01*
X0153646Y0171811D02*
X0152662Y0171811D01*
X0152662Y0173189D01*
X0153646Y0173189D01*
X0153646Y0171811D01*
X0167162Y0186811D02*
X0168146Y0186811D01*
X0167162Y0186811D02*
X0167162Y0188189D01*
X0168146Y0188189D01*
X0168146Y0186811D01*
X0173854Y0186811D02*
X0174838Y0186811D01*
X0173854Y0186811D02*
X0173854Y0188189D01*
X0174838Y0188189D01*
X0174838Y0186811D01*
X0181662Y0193189D02*
X0182646Y0193189D01*
X0182646Y0191811D01*
X0181662Y0191811D01*
X0181662Y0193189D01*
X0174838Y0198189D02*
X0173854Y0198189D01*
X0174838Y0198189D02*
X0174838Y0196811D01*
X0173854Y0196811D01*
X0173854Y0198189D01*
X0168146Y0198189D02*
X0167162Y0198189D01*
X0168146Y0198189D02*
X0168146Y0196811D01*
X0167162Y0196811D01*
X0167162Y0198189D01*
X0160338Y0191811D02*
X0159354Y0191811D01*
X0159354Y0193189D01*
X0160338Y0193189D01*
X0160338Y0191811D01*
X0153646Y0191811D02*
X0152662Y0191811D01*
X0152662Y0193189D01*
X0153646Y0193189D01*
X0153646Y0191811D01*
X0167162Y0206811D02*
X0168146Y0206811D01*
X0167162Y0206811D02*
X0167162Y0208189D01*
X0168146Y0208189D01*
X0168146Y0206811D01*
X0173854Y0206811D02*
X0174838Y0206811D01*
X0173854Y0206811D02*
X0173854Y0208189D01*
X0174838Y0208189D01*
X0174838Y0206811D01*
X0181662Y0213189D02*
X0182646Y0213189D01*
X0182646Y0211811D01*
X0181662Y0211811D01*
X0181662Y0213189D01*
X0174838Y0218189D02*
X0173854Y0218189D01*
X0174838Y0218189D02*
X0174838Y0216811D01*
X0173854Y0216811D01*
X0173854Y0218189D01*
X0168146Y0218189D02*
X0167162Y0218189D01*
X0168146Y0218189D02*
X0168146Y0216811D01*
X0167162Y0216811D01*
X0167162Y0218189D01*
X0160338Y0211811D02*
X0159354Y0211811D01*
X0159354Y0213189D01*
X0160338Y0213189D01*
X0160338Y0211811D01*
X0153646Y0211811D02*
X0152662Y0211811D01*
X0152662Y0213189D01*
X0153646Y0213189D01*
X0153646Y0211811D01*
X0188354Y0213189D02*
X0189338Y0213189D01*
X0189338Y0211811D01*
X0188354Y0211811D01*
X0188354Y0213189D01*
X0188354Y0233189D02*
X0189338Y0233189D01*
X0189338Y0231811D01*
X0188354Y0231811D01*
X0188354Y0233189D01*
X0188354Y0193189D02*
X0189338Y0193189D01*
X0189338Y0191811D01*
X0188354Y0191811D01*
X0188354Y0193189D01*
X0188354Y0173189D02*
X0189338Y0173189D01*
X0189338Y0171811D01*
X0188354Y0171811D01*
X0188354Y0173189D01*
X0188354Y0153189D02*
X0189338Y0153189D01*
X0189338Y0151811D01*
X0188354Y0151811D01*
X0188354Y0153189D01*
X0174838Y0138189D02*
X0173854Y0138189D01*
X0174838Y0138189D02*
X0174838Y0136811D01*
X0173854Y0136811D01*
X0173854Y0138189D01*
X0168146Y0138189D02*
X0167162Y0138189D01*
X0168146Y0138189D02*
X0168146Y0136811D01*
X0167162Y0136811D01*
X0167162Y0138189D01*
X0181662Y0133189D02*
X0182646Y0133189D01*
X0182646Y0131811D01*
X0181662Y0131811D01*
X0181662Y0133189D01*
X0188354Y0133189D02*
X0189338Y0133189D01*
X0189338Y0131811D01*
X0188354Y0131811D01*
X0188354Y0133189D01*
D12*
X0055642Y0324358D02*
X0055642Y0328296D01*
X0055642Y0324358D02*
X0051704Y0324358D01*
X0051704Y0328296D01*
X0055642Y0328296D01*
X0055642Y0328294D02*
X0051704Y0328294D01*
X0027296Y0328296D02*
X0027296Y0324358D01*
X0023358Y0324358D01*
X0023358Y0328296D01*
X0027296Y0328296D01*
X0027296Y0328294D02*
X0023358Y0328294D01*
X0055642Y0352704D02*
X0055642Y0356642D01*
X0055642Y0352704D02*
X0051704Y0352704D01*
X0051704Y0356642D01*
X0055642Y0356642D01*
X0055642Y0356640D02*
X0051704Y0356640D01*
D13*
X0131516Y0101909D02*
X0131516Y0092067D01*
X0131516Y0101909D02*
X0133484Y0101909D01*
X0133484Y0092067D01*
X0131516Y0092067D01*
X0131516Y0094035D02*
X0133484Y0094035D01*
X0133484Y0096003D02*
X0131516Y0096003D01*
X0131516Y0097971D02*
X0133484Y0097971D01*
X0133484Y0099939D02*
X0131516Y0099939D01*
X0131516Y0101907D02*
X0133484Y0101907D01*
X0141516Y0101909D02*
X0141516Y0092067D01*
X0141516Y0101909D02*
X0143484Y0101909D01*
X0143484Y0092067D01*
X0141516Y0092067D01*
X0141516Y0094035D02*
X0143484Y0094035D01*
X0143484Y0096003D02*
X0141516Y0096003D01*
X0141516Y0097971D02*
X0143484Y0097971D01*
X0143484Y0099939D02*
X0141516Y0099939D01*
X0141516Y0101907D02*
X0143484Y0101907D01*
X0151516Y0101909D02*
X0151516Y0092067D01*
X0151516Y0101909D02*
X0153484Y0101909D01*
X0153484Y0092067D01*
X0151516Y0092067D01*
X0151516Y0094035D02*
X0153484Y0094035D01*
X0153484Y0096003D02*
X0151516Y0096003D01*
X0151516Y0097971D02*
X0153484Y0097971D01*
X0153484Y0099939D02*
X0151516Y0099939D01*
X0151516Y0101907D02*
X0153484Y0101907D01*
X0151516Y0113091D02*
X0151516Y0122933D01*
X0153484Y0122933D01*
X0153484Y0113091D01*
X0151516Y0113091D01*
X0151516Y0115059D02*
X0153484Y0115059D01*
X0153484Y0117027D02*
X0151516Y0117027D01*
X0151516Y0118995D02*
X0153484Y0118995D01*
X0153484Y0120963D02*
X0151516Y0120963D01*
X0151516Y0122931D02*
X0153484Y0122931D01*
X0141516Y0122933D02*
X0141516Y0113091D01*
X0141516Y0122933D02*
X0143484Y0122933D01*
X0143484Y0113091D01*
X0141516Y0113091D01*
X0141516Y0115059D02*
X0143484Y0115059D01*
X0143484Y0117027D02*
X0141516Y0117027D01*
X0141516Y0118995D02*
X0143484Y0118995D01*
X0143484Y0120963D02*
X0141516Y0120963D01*
X0141516Y0122931D02*
X0143484Y0122931D01*
X0131516Y0122933D02*
X0131516Y0113091D01*
X0131516Y0122933D02*
X0133484Y0122933D01*
X0133484Y0113091D01*
X0131516Y0113091D01*
X0131516Y0115059D02*
X0133484Y0115059D01*
X0133484Y0117027D02*
X0131516Y0117027D01*
X0131516Y0118995D02*
X0133484Y0118995D01*
X0133484Y0120963D02*
X0131516Y0120963D01*
X0131516Y0122931D02*
X0133484Y0122931D01*
X0052146Y0131516D02*
X0046240Y0131516D01*
X0046240Y0133484D01*
X0052146Y0133484D01*
X0052146Y0131516D01*
X0052146Y0133484D02*
X0046240Y0133484D01*
X0038760Y0141516D02*
X0032854Y0141516D01*
X0032854Y0143484D01*
X0038760Y0143484D01*
X0038760Y0141516D01*
X0038760Y0143484D02*
X0032854Y0143484D01*
X0046240Y0151516D02*
X0052146Y0151516D01*
X0046240Y0151516D02*
X0046240Y0153484D01*
X0052146Y0153484D01*
X0052146Y0151516D01*
X0052146Y0153484D02*
X0046240Y0153484D01*
X0038760Y0161516D02*
X0032854Y0161516D01*
X0032854Y0163484D01*
X0038760Y0163484D01*
X0038760Y0161516D01*
X0038760Y0163484D02*
X0032854Y0163484D01*
X0046240Y0181516D02*
X0052146Y0181516D01*
X0046240Y0181516D02*
X0046240Y0183484D01*
X0052146Y0183484D01*
X0052146Y0181516D01*
X0052146Y0183484D02*
X0046240Y0183484D01*
X0038760Y0191516D02*
X0032854Y0191516D01*
X0032854Y0193484D01*
X0038760Y0193484D01*
X0038760Y0191516D01*
X0038760Y0193484D02*
X0032854Y0193484D01*
X0046240Y0201516D02*
X0052146Y0201516D01*
X0046240Y0201516D02*
X0046240Y0203484D01*
X0052146Y0203484D01*
X0052146Y0201516D01*
X0052146Y0203484D02*
X0046240Y0203484D01*
X0038760Y0211516D02*
X0032854Y0211516D01*
X0032854Y0213484D01*
X0038760Y0213484D01*
X0038760Y0211516D01*
X0038760Y0213484D02*
X0032854Y0213484D01*
X0046240Y0221516D02*
X0052146Y0221516D01*
X0046240Y0221516D02*
X0046240Y0223484D01*
X0052146Y0223484D01*
X0052146Y0221516D01*
X0052146Y0223484D02*
X0046240Y0223484D01*
X0038760Y0231516D02*
X0032854Y0231516D01*
X0032854Y0233484D01*
X0038760Y0233484D01*
X0038760Y0231516D01*
X0038760Y0233484D02*
X0032854Y0233484D01*
X0046240Y0241516D02*
X0052146Y0241516D01*
X0046240Y0241516D02*
X0046240Y0243484D01*
X0052146Y0243484D01*
X0052146Y0241516D01*
X0052146Y0243484D02*
X0046240Y0243484D01*
X0038760Y0251516D02*
X0032854Y0251516D01*
X0032854Y0253484D01*
X0038760Y0253484D01*
X0038760Y0251516D01*
X0038760Y0253484D02*
X0032854Y0253484D01*
X0032854Y0121516D02*
X0038760Y0121516D01*
X0032854Y0121516D02*
X0032854Y0123484D01*
X0038760Y0123484D01*
X0038760Y0121516D01*
X0038760Y0123484D02*
X0032854Y0123484D01*
X0046240Y0111516D02*
X0052146Y0111516D01*
X0046240Y0111516D02*
X0046240Y0113484D01*
X0052146Y0113484D01*
X0052146Y0111516D01*
X0052146Y0113484D02*
X0046240Y0113484D01*
X0222854Y0121516D02*
X0228760Y0121516D01*
X0222854Y0121516D02*
X0222854Y0123484D01*
X0228760Y0123484D01*
X0228760Y0121516D01*
X0228760Y0123484D02*
X0222854Y0123484D01*
X0236240Y0131516D02*
X0242146Y0131516D01*
X0236240Y0131516D02*
X0236240Y0133484D01*
X0242146Y0133484D01*
X0242146Y0131516D01*
X0242146Y0133484D02*
X0236240Y0133484D01*
X0228760Y0141516D02*
X0222854Y0141516D01*
X0222854Y0143484D01*
X0228760Y0143484D01*
X0228760Y0141516D01*
X0228760Y0143484D02*
X0222854Y0143484D01*
X0236240Y0151516D02*
X0242146Y0151516D01*
X0236240Y0151516D02*
X0236240Y0153484D01*
X0242146Y0153484D01*
X0242146Y0151516D01*
X0242146Y0153484D02*
X0236240Y0153484D01*
X0228760Y0161516D02*
X0222854Y0161516D01*
X0222854Y0163484D01*
X0228760Y0163484D01*
X0228760Y0161516D01*
X0228760Y0163484D02*
X0222854Y0163484D01*
X0236240Y0171516D02*
X0242146Y0171516D01*
X0236240Y0171516D02*
X0236240Y0173484D01*
X0242146Y0173484D01*
X0242146Y0171516D01*
X0242146Y0173484D02*
X0236240Y0173484D01*
X0228760Y0181516D02*
X0222854Y0181516D01*
X0222854Y0183484D01*
X0228760Y0183484D01*
X0228760Y0181516D01*
X0228760Y0183484D02*
X0222854Y0183484D01*
X0236240Y0196516D02*
X0242146Y0196516D01*
X0236240Y0196516D02*
X0236240Y0198484D01*
X0242146Y0198484D01*
X0242146Y0196516D01*
X0242146Y0198484D02*
X0236240Y0198484D01*
X0228760Y0206516D02*
X0222854Y0206516D01*
X0222854Y0208484D01*
X0228760Y0208484D01*
X0228760Y0206516D01*
X0228760Y0208484D02*
X0222854Y0208484D01*
X0236240Y0216516D02*
X0242146Y0216516D01*
X0236240Y0216516D02*
X0236240Y0218484D01*
X0242146Y0218484D01*
X0242146Y0216516D01*
X0242146Y0218484D02*
X0236240Y0218484D01*
X0228760Y0226516D02*
X0222854Y0226516D01*
X0222854Y0228484D01*
X0228760Y0228484D01*
X0228760Y0226516D01*
X0228760Y0228484D02*
X0222854Y0228484D01*
X0236240Y0236516D02*
X0242146Y0236516D01*
X0236240Y0236516D02*
X0236240Y0238484D01*
X0242146Y0238484D01*
X0242146Y0236516D01*
X0242146Y0238484D02*
X0236240Y0238484D01*
X0228760Y0246516D02*
X0222854Y0246516D01*
X0222854Y0248484D01*
X0228760Y0248484D01*
X0228760Y0246516D01*
X0228760Y0248484D02*
X0222854Y0248484D01*
X0236240Y0256516D02*
X0242146Y0256516D01*
X0236240Y0256516D02*
X0236240Y0258484D01*
X0242146Y0258484D01*
X0242146Y0256516D01*
X0242146Y0258484D02*
X0236240Y0258484D01*
X0228760Y0266516D02*
X0222854Y0266516D01*
X0222854Y0268484D01*
X0228760Y0268484D01*
X0228760Y0266516D01*
X0228760Y0268484D02*
X0222854Y0268484D01*
X0236240Y0276516D02*
X0242146Y0276516D01*
X0236240Y0276516D02*
X0236240Y0278484D01*
X0242146Y0278484D01*
X0242146Y0276516D01*
X0242146Y0278484D02*
X0236240Y0278484D01*
X0228760Y0286516D02*
X0222854Y0286516D01*
X0222854Y0288484D01*
X0228760Y0288484D01*
X0228760Y0286516D01*
X0228760Y0288484D02*
X0222854Y0288484D01*
X0236240Y0111516D02*
X0242146Y0111516D01*
X0236240Y0111516D02*
X0236240Y0113484D01*
X0242146Y0113484D01*
X0242146Y0111516D01*
X0242146Y0113484D02*
X0236240Y0113484D01*
D14*
X0075591Y0270720D02*
X0074409Y0270720D01*
X0074409Y0275446D01*
X0075591Y0275446D01*
X0075591Y0270720D01*
X0075591Y0271900D02*
X0074409Y0271900D01*
X0074409Y0273080D02*
X0075591Y0273080D01*
X0075591Y0274260D02*
X0074409Y0274260D01*
X0074409Y0275440D02*
X0075591Y0275440D01*
X0070591Y0270720D02*
X0069409Y0270720D01*
X0069409Y0275446D01*
X0070591Y0275446D01*
X0070591Y0270720D01*
X0070591Y0271900D02*
X0069409Y0271900D01*
X0069409Y0273080D02*
X0070591Y0273080D01*
X0070591Y0274260D02*
X0069409Y0274260D01*
X0069409Y0275440D02*
X0070591Y0275440D01*
X0065591Y0270720D02*
X0064409Y0270720D01*
X0064409Y0275446D01*
X0065591Y0275446D01*
X0065591Y0270720D01*
X0065591Y0271900D02*
X0064409Y0271900D01*
X0064409Y0273080D02*
X0065591Y0273080D01*
X0065591Y0274260D02*
X0064409Y0274260D01*
X0064409Y0275440D02*
X0065591Y0275440D01*
X0060591Y0270720D02*
X0059409Y0270720D01*
X0059409Y0275446D01*
X0060591Y0275446D01*
X0060591Y0270720D01*
X0060591Y0271900D02*
X0059409Y0271900D01*
X0059409Y0273080D02*
X0060591Y0273080D01*
X0060591Y0274260D02*
X0059409Y0274260D01*
X0059409Y0275440D02*
X0060591Y0275440D01*
X0060591Y0293554D02*
X0059409Y0293554D01*
X0059409Y0298280D01*
X0060591Y0298280D01*
X0060591Y0293554D01*
X0060591Y0294734D02*
X0059409Y0294734D01*
X0059409Y0295914D02*
X0060591Y0295914D01*
X0060591Y0297094D02*
X0059409Y0297094D01*
X0059409Y0298274D02*
X0060591Y0298274D01*
X0064409Y0293554D02*
X0065591Y0293554D01*
X0064409Y0293554D02*
X0064409Y0298280D01*
X0065591Y0298280D01*
X0065591Y0293554D01*
X0065591Y0294734D02*
X0064409Y0294734D01*
X0064409Y0295914D02*
X0065591Y0295914D01*
X0065591Y0297094D02*
X0064409Y0297094D01*
X0064409Y0298274D02*
X0065591Y0298274D01*
X0069409Y0293554D02*
X0070591Y0293554D01*
X0069409Y0293554D02*
X0069409Y0298280D01*
X0070591Y0298280D01*
X0070591Y0293554D01*
X0070591Y0294734D02*
X0069409Y0294734D01*
X0069409Y0295914D02*
X0070591Y0295914D01*
X0070591Y0297094D02*
X0069409Y0297094D01*
X0069409Y0298274D02*
X0070591Y0298274D01*
X0074409Y0293554D02*
X0075591Y0293554D01*
X0074409Y0293554D02*
X0074409Y0298280D01*
X0075591Y0298280D01*
X0075591Y0293554D01*
X0075591Y0294734D02*
X0074409Y0294734D01*
X0074409Y0295914D02*
X0075591Y0295914D01*
X0075591Y0297094D02*
X0074409Y0297094D01*
X0074409Y0298274D02*
X0075591Y0298274D01*
X0116563Y0319169D02*
X0116563Y0320351D01*
X0116563Y0319169D02*
X0113807Y0319169D01*
X0113807Y0320351D01*
X0116563Y0320351D01*
X0116563Y0320349D02*
X0113807Y0320349D01*
X0116563Y0326649D02*
X0116563Y0327831D01*
X0116563Y0326649D02*
X0113807Y0326649D01*
X0113807Y0327831D01*
X0116563Y0327831D01*
X0116563Y0327829D02*
X0113807Y0327829D01*
X0127193Y0327831D02*
X0127193Y0326649D01*
X0124437Y0326649D01*
X0124437Y0327831D01*
X0127193Y0327831D01*
X0127193Y0327829D02*
X0124437Y0327829D01*
X0127193Y0324091D02*
X0127193Y0322909D01*
X0124437Y0322909D01*
X0124437Y0324091D01*
X0127193Y0324091D01*
X0127193Y0324089D02*
X0124437Y0324089D01*
X0127193Y0320351D02*
X0127193Y0319169D01*
X0124437Y0319169D01*
X0124437Y0320351D01*
X0127193Y0320351D01*
X0127193Y0320349D02*
X0124437Y0320349D01*
X0167933Y0320591D02*
X0167933Y0319409D01*
X0167933Y0320591D02*
X0173445Y0320591D01*
X0173445Y0319409D01*
X0167933Y0319409D01*
X0167933Y0320589D02*
X0173445Y0320589D01*
X0167933Y0324409D02*
X0167933Y0325591D01*
X0173445Y0325591D01*
X0173445Y0324409D01*
X0167933Y0324409D01*
X0167933Y0325589D02*
X0173445Y0325589D01*
X0167933Y0315591D02*
X0167933Y0314409D01*
X0167933Y0315591D02*
X0173445Y0315591D01*
X0173445Y0314409D01*
X0167933Y0314409D01*
X0167933Y0315589D02*
X0173445Y0315589D01*
X0167933Y0310591D02*
X0167933Y0309409D01*
X0167933Y0310591D02*
X0173445Y0310591D01*
X0173445Y0309409D01*
X0167933Y0309409D01*
X0167933Y0310589D02*
X0173445Y0310589D01*
X0167933Y0305591D02*
X0167933Y0304409D01*
X0167933Y0305591D02*
X0173445Y0305591D01*
X0173445Y0304409D01*
X0167933Y0304409D01*
X0167933Y0305589D02*
X0173445Y0305589D01*
X0167933Y0300591D02*
X0167933Y0299409D01*
X0167933Y0300591D02*
X0173445Y0300591D01*
X0173445Y0299409D01*
X0167933Y0299409D01*
X0167933Y0300589D02*
X0173445Y0300589D01*
X0167933Y0295591D02*
X0167933Y0294409D01*
X0167933Y0295591D02*
X0173445Y0295591D01*
X0173445Y0294409D01*
X0167933Y0294409D01*
X0167933Y0295589D02*
X0173445Y0295589D01*
X0167933Y0290591D02*
X0167933Y0289409D01*
X0167933Y0290591D02*
X0173445Y0290591D01*
X0173445Y0289409D01*
X0167933Y0289409D01*
X0167933Y0290589D02*
X0173445Y0290589D01*
X0191555Y0290591D02*
X0191555Y0289409D01*
X0191555Y0290591D02*
X0197067Y0290591D01*
X0197067Y0289409D01*
X0191555Y0289409D01*
X0191555Y0290589D02*
X0197067Y0290589D01*
X0191555Y0294409D02*
X0191555Y0295591D01*
X0197067Y0295591D01*
X0197067Y0294409D01*
X0191555Y0294409D01*
X0191555Y0295589D02*
X0197067Y0295589D01*
X0191555Y0299409D02*
X0191555Y0300591D01*
X0197067Y0300591D01*
X0197067Y0299409D01*
X0191555Y0299409D01*
X0191555Y0300589D02*
X0197067Y0300589D01*
X0191555Y0304409D02*
X0191555Y0305591D01*
X0197067Y0305591D01*
X0197067Y0304409D01*
X0191555Y0304409D01*
X0191555Y0305589D02*
X0197067Y0305589D01*
X0191555Y0309409D02*
X0191555Y0310591D01*
X0197067Y0310591D01*
X0197067Y0309409D01*
X0191555Y0309409D01*
X0191555Y0310589D02*
X0197067Y0310589D01*
X0191555Y0314409D02*
X0191555Y0315591D01*
X0197067Y0315591D01*
X0197067Y0314409D01*
X0191555Y0314409D01*
X0191555Y0315589D02*
X0197067Y0315589D01*
X0191555Y0319409D02*
X0191555Y0320591D01*
X0197067Y0320591D01*
X0197067Y0319409D01*
X0191555Y0319409D01*
X0191555Y0320589D02*
X0197067Y0320589D01*
X0191555Y0324409D02*
X0191555Y0325591D01*
X0197067Y0325591D01*
X0197067Y0324409D01*
X0191555Y0324409D01*
X0191555Y0325589D02*
X0197067Y0325589D01*
D15*
X0153819Y0347669D02*
X0153819Y0349245D01*
X0156181Y0349245D01*
X0156181Y0347669D01*
X0153819Y0347669D01*
X0153819Y0349243D02*
X0156181Y0349243D01*
X0153819Y0354755D02*
X0153819Y0356331D01*
X0156181Y0356331D01*
X0156181Y0354755D01*
X0153819Y0354755D01*
X0153819Y0356329D02*
X0156181Y0356329D01*
X0147819Y0356331D02*
X0147819Y0354755D01*
X0147819Y0356331D02*
X0150181Y0356331D01*
X0150181Y0354755D01*
X0147819Y0354755D01*
X0147819Y0356329D02*
X0150181Y0356329D01*
X0147819Y0349245D02*
X0147819Y0347669D01*
X0147819Y0349245D02*
X0150181Y0349245D01*
X0150181Y0347669D01*
X0147819Y0347669D01*
X0147819Y0349243D02*
X0150181Y0349243D01*
X0094839Y0354119D02*
X0091689Y0354119D01*
X0094839Y0354119D02*
X0094839Y0352543D01*
X0091689Y0352543D01*
X0091689Y0354119D01*
X0091689Y0354117D02*
X0094839Y0354117D01*
X0094839Y0345457D02*
X0091689Y0345457D01*
X0094839Y0345457D02*
X0094839Y0343881D01*
X0091689Y0343881D01*
X0091689Y0345457D01*
X0091689Y0345455D02*
X0094839Y0345455D01*
X0086570Y0342308D02*
X0086570Y0337976D01*
X0086570Y0342308D02*
X0088146Y0342308D01*
X0088146Y0337976D01*
X0086570Y0337976D01*
X0086570Y0339550D02*
X0088146Y0339550D01*
X0088146Y0341124D02*
X0086570Y0341124D01*
X0074759Y0342308D02*
X0074759Y0337976D01*
X0074759Y0342308D02*
X0076335Y0342308D01*
X0076335Y0337976D01*
X0074759Y0337976D01*
X0074759Y0339550D02*
X0076335Y0339550D01*
X0076335Y0341124D02*
X0074759Y0341124D01*
X0068854Y0342308D02*
X0068854Y0337976D01*
X0068854Y0342308D02*
X0070430Y0342308D01*
X0070430Y0337976D01*
X0068854Y0337976D01*
X0068854Y0339550D02*
X0070430Y0339550D01*
X0070430Y0341124D02*
X0068854Y0341124D01*
X0065311Y0345457D02*
X0062161Y0345457D01*
X0065311Y0345457D02*
X0065311Y0343881D01*
X0062161Y0343881D01*
X0062161Y0345457D01*
X0062161Y0345455D02*
X0065311Y0345455D01*
X0065311Y0354119D02*
X0062161Y0354119D01*
X0065311Y0354119D02*
X0065311Y0352543D01*
X0062161Y0352543D01*
X0062161Y0354119D01*
X0062161Y0354117D02*
X0065311Y0354117D01*
X0093681Y0280831D02*
X0093681Y0279255D01*
X0091319Y0279255D01*
X0091319Y0280831D01*
X0093681Y0280831D01*
X0093681Y0280829D02*
X0091319Y0280829D01*
X0093681Y0273745D02*
X0093681Y0272169D01*
X0091319Y0272169D01*
X0091319Y0273745D01*
X0093681Y0273745D01*
X0093681Y0273743D02*
X0091319Y0273743D01*
X0028831Y0223681D02*
X0027255Y0223681D01*
X0028831Y0223681D02*
X0028831Y0221319D01*
X0027255Y0221319D01*
X0027255Y0223681D01*
X0027255Y0222893D02*
X0028831Y0222893D01*
X0021745Y0223681D02*
X0020169Y0223681D01*
X0021745Y0223681D02*
X0021745Y0221319D01*
X0020169Y0221319D01*
X0020169Y0223681D01*
X0020169Y0222893D02*
X0021745Y0222893D01*
X0021745Y0213681D02*
X0020169Y0213681D01*
X0021745Y0213681D02*
X0021745Y0211319D01*
X0020169Y0211319D01*
X0020169Y0213681D01*
X0020169Y0212893D02*
X0021745Y0212893D01*
X0027255Y0213681D02*
X0028831Y0213681D01*
X0028831Y0211319D01*
X0027255Y0211319D01*
X0027255Y0213681D01*
X0027255Y0212893D02*
X0028831Y0212893D01*
X0246169Y0218681D02*
X0247745Y0218681D01*
X0247745Y0216319D01*
X0246169Y0216319D01*
X0246169Y0218681D01*
X0246169Y0217893D02*
X0247745Y0217893D01*
X0253255Y0218681D02*
X0254831Y0218681D01*
X0254831Y0216319D01*
X0253255Y0216319D01*
X0253255Y0218681D01*
X0253255Y0217893D02*
X0254831Y0217893D01*
X0254831Y0228681D02*
X0253255Y0228681D01*
X0254831Y0228681D02*
X0254831Y0226319D01*
X0253255Y0226319D01*
X0253255Y0228681D01*
X0253255Y0227893D02*
X0254831Y0227893D01*
X0247745Y0228681D02*
X0246169Y0228681D01*
X0247745Y0228681D02*
X0247745Y0226319D01*
X0246169Y0226319D01*
X0246169Y0228681D01*
X0246169Y0227893D02*
X0247745Y0227893D01*
X0247745Y0238681D02*
X0246169Y0238681D01*
X0247745Y0238681D02*
X0247745Y0236319D01*
X0246169Y0236319D01*
X0246169Y0238681D01*
X0246169Y0237893D02*
X0247745Y0237893D01*
X0253255Y0238681D02*
X0254831Y0238681D01*
X0254831Y0236319D01*
X0253255Y0236319D01*
X0253255Y0238681D01*
X0253255Y0237893D02*
X0254831Y0237893D01*
X0254831Y0248681D02*
X0253255Y0248681D01*
X0254831Y0248681D02*
X0254831Y0246319D01*
X0253255Y0246319D01*
X0253255Y0248681D01*
X0253255Y0247893D02*
X0254831Y0247893D01*
X0247745Y0248681D02*
X0246169Y0248681D01*
X0247745Y0248681D02*
X0247745Y0246319D01*
X0246169Y0246319D01*
X0246169Y0248681D01*
X0246169Y0247893D02*
X0247745Y0247893D01*
X0247745Y0208681D02*
X0246169Y0208681D01*
X0247745Y0208681D02*
X0247745Y0206319D01*
X0246169Y0206319D01*
X0246169Y0208681D01*
X0246169Y0207893D02*
X0247745Y0207893D01*
X0253255Y0208681D02*
X0254831Y0208681D01*
X0254831Y0206319D01*
X0253255Y0206319D01*
X0253255Y0208681D01*
X0253255Y0207893D02*
X0254831Y0207893D01*
X0254831Y0198681D02*
X0253255Y0198681D01*
X0254831Y0198681D02*
X0254831Y0196319D01*
X0253255Y0196319D01*
X0253255Y0198681D01*
X0253255Y0197893D02*
X0254831Y0197893D01*
X0247745Y0198681D02*
X0246169Y0198681D01*
X0247745Y0198681D02*
X0247745Y0196319D01*
X0246169Y0196319D01*
X0246169Y0198681D01*
X0246169Y0197893D02*
X0247745Y0197893D01*
X0247745Y0183681D02*
X0246169Y0183681D01*
X0247745Y0183681D02*
X0247745Y0181319D01*
X0246169Y0181319D01*
X0246169Y0183681D01*
X0246169Y0182893D02*
X0247745Y0182893D01*
X0253255Y0183681D02*
X0254831Y0183681D01*
X0254831Y0181319D01*
X0253255Y0181319D01*
X0253255Y0183681D01*
X0253255Y0182893D02*
X0254831Y0182893D01*
X0254831Y0173681D02*
X0253255Y0173681D01*
X0254831Y0173681D02*
X0254831Y0171319D01*
X0253255Y0171319D01*
X0253255Y0173681D01*
X0253255Y0172893D02*
X0254831Y0172893D01*
X0247745Y0173681D02*
X0246169Y0173681D01*
X0247745Y0173681D02*
X0247745Y0171319D01*
X0246169Y0171319D01*
X0246169Y0173681D01*
X0246169Y0172893D02*
X0247745Y0172893D01*
X0247745Y0163681D02*
X0246169Y0163681D01*
X0247745Y0163681D02*
X0247745Y0161319D01*
X0246169Y0161319D01*
X0246169Y0163681D01*
X0246169Y0162893D02*
X0247745Y0162893D01*
X0253255Y0163681D02*
X0254831Y0163681D01*
X0254831Y0161319D01*
X0253255Y0161319D01*
X0253255Y0163681D01*
X0253255Y0162893D02*
X0254831Y0162893D01*
X0254831Y0153681D02*
X0253255Y0153681D01*
X0254831Y0153681D02*
X0254831Y0151319D01*
X0253255Y0151319D01*
X0253255Y0153681D01*
X0253255Y0152893D02*
X0254831Y0152893D01*
X0247745Y0153681D02*
X0246169Y0153681D01*
X0247745Y0153681D02*
X0247745Y0151319D01*
X0246169Y0151319D01*
X0246169Y0153681D01*
X0246169Y0152893D02*
X0247745Y0152893D01*
X0247745Y0143681D02*
X0246169Y0143681D01*
X0247745Y0143681D02*
X0247745Y0141319D01*
X0246169Y0141319D01*
X0246169Y0143681D01*
X0246169Y0142893D02*
X0247745Y0142893D01*
X0253255Y0143681D02*
X0254831Y0143681D01*
X0254831Y0141319D01*
X0253255Y0141319D01*
X0253255Y0143681D01*
X0253255Y0142893D02*
X0254831Y0142893D01*
X0254831Y0133681D02*
X0253255Y0133681D01*
X0254831Y0133681D02*
X0254831Y0131319D01*
X0253255Y0131319D01*
X0253255Y0133681D01*
X0253255Y0132893D02*
X0254831Y0132893D01*
X0247745Y0133681D02*
X0246169Y0133681D01*
X0247745Y0133681D02*
X0247745Y0131319D01*
X0246169Y0131319D01*
X0246169Y0133681D01*
X0246169Y0132893D02*
X0247745Y0132893D01*
D16*
X0188012Y0337933D02*
X0187224Y0337933D01*
X0187224Y0344233D01*
X0188012Y0344233D01*
X0188012Y0337933D01*
X0188012Y0338719D02*
X0187224Y0338719D01*
X0187224Y0339505D02*
X0188012Y0339505D01*
X0188012Y0340291D02*
X0187224Y0340291D01*
X0187224Y0341077D02*
X0188012Y0341077D01*
X0188012Y0341863D02*
X0187224Y0341863D01*
X0187224Y0342649D02*
X0188012Y0342649D01*
X0188012Y0343435D02*
X0187224Y0343435D01*
X0187224Y0344221D02*
X0188012Y0344221D01*
X0185453Y0337933D02*
X0184665Y0337933D01*
X0184665Y0344233D01*
X0185453Y0344233D01*
X0185453Y0337933D01*
X0185453Y0338719D02*
X0184665Y0338719D01*
X0184665Y0339505D02*
X0185453Y0339505D01*
X0185453Y0340291D02*
X0184665Y0340291D01*
X0184665Y0341077D02*
X0185453Y0341077D01*
X0185453Y0341863D02*
X0184665Y0341863D01*
X0184665Y0342649D02*
X0185453Y0342649D01*
X0185453Y0343435D02*
X0184665Y0343435D01*
X0184665Y0344221D02*
X0185453Y0344221D01*
X0182894Y0337933D02*
X0182106Y0337933D01*
X0182106Y0344233D01*
X0182894Y0344233D01*
X0182894Y0337933D01*
X0182894Y0338719D02*
X0182106Y0338719D01*
X0182106Y0339505D02*
X0182894Y0339505D01*
X0182894Y0340291D02*
X0182106Y0340291D01*
X0182106Y0341077D02*
X0182894Y0341077D01*
X0182894Y0341863D02*
X0182106Y0341863D01*
X0182106Y0342649D02*
X0182894Y0342649D01*
X0182894Y0343435D02*
X0182106Y0343435D01*
X0182106Y0344221D02*
X0182894Y0344221D01*
X0180335Y0337933D02*
X0179547Y0337933D01*
X0179547Y0344233D01*
X0180335Y0344233D01*
X0180335Y0337933D01*
X0180335Y0338719D02*
X0179547Y0338719D01*
X0179547Y0339505D02*
X0180335Y0339505D01*
X0180335Y0340291D02*
X0179547Y0340291D01*
X0179547Y0341077D02*
X0180335Y0341077D01*
X0180335Y0341863D02*
X0179547Y0341863D01*
X0179547Y0342649D02*
X0180335Y0342649D01*
X0180335Y0343435D02*
X0179547Y0343435D01*
X0179547Y0344221D02*
X0180335Y0344221D01*
X0177776Y0337933D02*
X0176988Y0337933D01*
X0176988Y0344233D01*
X0177776Y0344233D01*
X0177776Y0337933D01*
X0177776Y0338719D02*
X0176988Y0338719D01*
X0176988Y0339505D02*
X0177776Y0339505D01*
X0177776Y0340291D02*
X0176988Y0340291D01*
X0176988Y0341077D02*
X0177776Y0341077D01*
X0177776Y0341863D02*
X0176988Y0341863D01*
X0176988Y0342649D02*
X0177776Y0342649D01*
X0177776Y0343435D02*
X0176988Y0343435D01*
X0176988Y0344221D02*
X0177776Y0344221D01*
D17*
X0178563Y0352500D03*
X0186437Y0352500D03*
D18*
X0195098Y0352461D03*
X0169902Y0352539D03*
D19*
X0172657Y0341870D03*
X0192343Y0341870D03*
D20*
X0140453Y0150138D02*
X0121949Y0150138D01*
X0121949Y0154862D01*
X0140453Y0154862D01*
X0140453Y0150138D01*
X0140453Y0153287D02*
X0121949Y0153287D01*
X0103051Y0150138D02*
X0084547Y0150138D01*
X0084547Y0154862D01*
X0103051Y0154862D01*
X0103051Y0150138D01*
X0103051Y0153287D02*
X0084547Y0153287D01*
D21*
X0227313Y0320105D02*
X0230365Y0320105D01*
X0230365Y0318431D01*
X0227313Y0318431D01*
X0227313Y0320105D01*
X0227313Y0320103D02*
X0230365Y0320103D01*
X0230365Y0328569D02*
X0227313Y0328569D01*
X0230365Y0328569D02*
X0230365Y0326895D01*
X0227313Y0326895D01*
X0227313Y0328569D01*
X0227313Y0328567D02*
X0230365Y0328567D01*
X0244635Y0328569D02*
X0247687Y0328569D01*
X0247687Y0326895D01*
X0244635Y0326895D01*
X0244635Y0328569D01*
X0244635Y0328567D02*
X0247687Y0328567D01*
X0247687Y0320105D02*
X0244635Y0320105D01*
X0247687Y0320105D02*
X0247687Y0318431D01*
X0244635Y0318431D01*
X0244635Y0320105D01*
X0244635Y0320103D02*
X0247687Y0320103D01*
X0247687Y0342105D02*
X0244635Y0342105D01*
X0247687Y0342105D02*
X0247687Y0340431D01*
X0244635Y0340431D01*
X0244635Y0342105D01*
X0244635Y0342103D02*
X0247687Y0342103D01*
X0247687Y0350569D02*
X0244635Y0350569D01*
X0247687Y0350569D02*
X0247687Y0348895D01*
X0244635Y0348895D01*
X0244635Y0350569D01*
X0244635Y0350567D02*
X0247687Y0350567D01*
X0230365Y0350569D02*
X0227313Y0350569D01*
X0230365Y0350569D02*
X0230365Y0348895D01*
X0227313Y0348895D01*
X0227313Y0350569D01*
X0227313Y0350567D02*
X0230365Y0350567D01*
X0230365Y0342105D02*
X0227313Y0342105D01*
X0230365Y0342105D02*
X0230365Y0340431D01*
X0227313Y0340431D01*
X0227313Y0342105D01*
X0227313Y0342103D02*
X0230365Y0342103D01*
D22*
X0129969Y0344220D02*
X0119929Y0344220D01*
X0119929Y0346780D01*
X0129969Y0346780D01*
X0129969Y0344220D01*
X0129969Y0346778D02*
X0119929Y0346778D01*
X0111071Y0344220D02*
X0101031Y0344220D01*
X0101031Y0346780D01*
X0111071Y0346780D01*
X0111071Y0344220D01*
X0111071Y0346778D02*
X0101031Y0346778D01*
D23*
X0108878Y0328028D02*
X0108878Y0326846D01*
X0106122Y0326846D01*
X0106122Y0328028D01*
X0108878Y0328028D01*
X0108878Y0320154D02*
X0108878Y0318972D01*
X0106122Y0318972D01*
X0106122Y0320154D01*
X0108878Y0320154D01*
X0082622Y0297028D02*
X0082622Y0295846D01*
X0082622Y0297028D02*
X0085378Y0297028D01*
X0085378Y0295846D01*
X0082622Y0295846D01*
X0082622Y0289154D02*
X0082622Y0287972D01*
X0082622Y0289154D02*
X0085378Y0289154D01*
X0085378Y0287972D01*
X0082622Y0287972D01*
X0082622Y0281028D02*
X0082622Y0279846D01*
X0082622Y0281028D02*
X0085378Y0281028D01*
X0085378Y0279846D01*
X0082622Y0279846D01*
X0082622Y0273154D02*
X0082622Y0271972D01*
X0082622Y0273154D02*
X0085378Y0273154D01*
X0085378Y0271972D01*
X0082622Y0271972D01*
X0061122Y0264028D02*
X0061122Y0262846D01*
X0061122Y0264028D02*
X0063878Y0264028D01*
X0063878Y0262846D01*
X0061122Y0262846D01*
X0061122Y0256154D02*
X0061122Y0254972D01*
X0061122Y0256154D02*
X0063878Y0256154D01*
X0063878Y0254972D01*
X0061122Y0254972D01*
D24*
X0079571Y0255390D02*
X0080949Y0255390D01*
X0079571Y0255390D02*
X0079571Y0257162D01*
X0080949Y0257162D01*
X0080949Y0255390D01*
X0080949Y0256767D02*
X0079571Y0256767D01*
X0087051Y0255390D02*
X0088429Y0255390D01*
X0087051Y0255390D02*
X0087051Y0257162D01*
X0088429Y0257162D01*
X0088429Y0255390D01*
X0088429Y0256767D02*
X0087051Y0256767D01*
X0084689Y0264838D02*
X0083311Y0264838D01*
X0083311Y0266610D01*
X0084689Y0266610D01*
X0084689Y0264838D01*
X0084689Y0266215D02*
X0083311Y0266215D01*
X0152071Y0236890D02*
X0153449Y0236890D01*
X0152071Y0236890D02*
X0152071Y0238662D01*
X0153449Y0238662D01*
X0153449Y0236890D01*
X0153449Y0238267D02*
X0152071Y0238267D01*
X0159551Y0236890D02*
X0160929Y0236890D01*
X0159551Y0236890D02*
X0159551Y0238662D01*
X0160929Y0238662D01*
X0160929Y0236890D01*
X0160929Y0238267D02*
X0159551Y0238267D01*
X0157189Y0226338D02*
X0155811Y0226338D01*
X0155811Y0228110D01*
X0157189Y0228110D01*
X0157189Y0226338D01*
X0157189Y0227715D02*
X0155811Y0227715D01*
X0153449Y0216890D02*
X0152071Y0216890D01*
X0152071Y0218662D01*
X0153449Y0218662D01*
X0153449Y0216890D01*
X0153449Y0218267D02*
X0152071Y0218267D01*
X0159551Y0216890D02*
X0160929Y0216890D01*
X0159551Y0216890D02*
X0159551Y0218662D01*
X0160929Y0218662D01*
X0160929Y0216890D01*
X0160929Y0218267D02*
X0159551Y0218267D01*
X0157189Y0206338D02*
X0155811Y0206338D01*
X0155811Y0208110D01*
X0157189Y0208110D01*
X0157189Y0206338D01*
X0157189Y0207715D02*
X0155811Y0207715D01*
X0153449Y0196890D02*
X0152071Y0196890D01*
X0152071Y0198662D01*
X0153449Y0198662D01*
X0153449Y0196890D01*
X0153449Y0198267D02*
X0152071Y0198267D01*
X0159551Y0196890D02*
X0160929Y0196890D01*
X0159551Y0196890D02*
X0159551Y0198662D01*
X0160929Y0198662D01*
X0160929Y0196890D01*
X0160929Y0198267D02*
X0159551Y0198267D01*
X0157189Y0186338D02*
X0155811Y0186338D01*
X0155811Y0188110D01*
X0157189Y0188110D01*
X0157189Y0186338D01*
X0157189Y0187715D02*
X0155811Y0187715D01*
X0153449Y0176890D02*
X0152071Y0176890D01*
X0152071Y0178662D01*
X0153449Y0178662D01*
X0153449Y0176890D01*
X0153449Y0178267D02*
X0152071Y0178267D01*
X0159551Y0176890D02*
X0160929Y0176890D01*
X0159551Y0176890D02*
X0159551Y0178662D01*
X0160929Y0178662D01*
X0160929Y0176890D01*
X0160929Y0178267D02*
X0159551Y0178267D01*
X0157189Y0166338D02*
X0155811Y0166338D01*
X0155811Y0168110D01*
X0157189Y0168110D01*
X0157189Y0166338D01*
X0157189Y0167715D02*
X0155811Y0167715D01*
X0153449Y0156890D02*
X0152071Y0156890D01*
X0152071Y0158662D01*
X0153449Y0158662D01*
X0153449Y0156890D01*
X0153449Y0158267D02*
X0152071Y0158267D01*
X0159551Y0156890D02*
X0160929Y0156890D01*
X0159551Y0156890D02*
X0159551Y0158662D01*
X0160929Y0158662D01*
X0160929Y0156890D01*
X0160929Y0158267D02*
X0159551Y0158267D01*
X0157189Y0146338D02*
X0155811Y0146338D01*
X0155811Y0148110D01*
X0157189Y0148110D01*
X0157189Y0146338D01*
X0157189Y0147715D02*
X0155811Y0147715D01*
X0153449Y0136890D02*
X0152071Y0136890D01*
X0152071Y0138662D01*
X0153449Y0138662D01*
X0153449Y0136890D01*
X0153449Y0138267D02*
X0152071Y0138267D01*
X0159551Y0136890D02*
X0160929Y0136890D01*
X0159551Y0136890D02*
X0159551Y0138662D01*
X0160929Y0138662D01*
X0160929Y0136890D01*
X0160929Y0138267D02*
X0159551Y0138267D01*
X0181071Y0148110D02*
X0182449Y0148110D01*
X0182449Y0146338D01*
X0181071Y0146338D01*
X0181071Y0148110D01*
X0181071Y0147715D02*
X0182449Y0147715D01*
X0188551Y0148110D02*
X0189929Y0148110D01*
X0189929Y0146338D01*
X0188551Y0146338D01*
X0188551Y0148110D01*
X0188551Y0147715D02*
X0189929Y0147715D01*
X0186189Y0158662D02*
X0184811Y0158662D01*
X0186189Y0158662D02*
X0186189Y0156890D01*
X0184811Y0156890D01*
X0184811Y0158662D01*
X0184811Y0158267D02*
X0186189Y0158267D01*
X0188551Y0168110D02*
X0189929Y0168110D01*
X0189929Y0166338D01*
X0188551Y0166338D01*
X0188551Y0168110D01*
X0188551Y0167715D02*
X0189929Y0167715D01*
X0182449Y0168110D02*
X0181071Y0168110D01*
X0182449Y0168110D02*
X0182449Y0166338D01*
X0181071Y0166338D01*
X0181071Y0168110D01*
X0181071Y0167715D02*
X0182449Y0167715D01*
X0184811Y0178662D02*
X0186189Y0178662D01*
X0186189Y0176890D01*
X0184811Y0176890D01*
X0184811Y0178662D01*
X0184811Y0178267D02*
X0186189Y0178267D01*
X0188551Y0188110D02*
X0189929Y0188110D01*
X0189929Y0186338D01*
X0188551Y0186338D01*
X0188551Y0188110D01*
X0188551Y0187715D02*
X0189929Y0187715D01*
X0182449Y0188110D02*
X0181071Y0188110D01*
X0182449Y0188110D02*
X0182449Y0186338D01*
X0181071Y0186338D01*
X0181071Y0188110D01*
X0181071Y0187715D02*
X0182449Y0187715D01*
X0184811Y0198662D02*
X0186189Y0198662D01*
X0186189Y0196890D01*
X0184811Y0196890D01*
X0184811Y0198662D01*
X0184811Y0198267D02*
X0186189Y0198267D01*
X0188551Y0208110D02*
X0189929Y0208110D01*
X0189929Y0206338D01*
X0188551Y0206338D01*
X0188551Y0208110D01*
X0188551Y0207715D02*
X0189929Y0207715D01*
X0182449Y0208110D02*
X0181071Y0208110D01*
X0182449Y0208110D02*
X0182449Y0206338D01*
X0181071Y0206338D01*
X0181071Y0208110D01*
X0181071Y0207715D02*
X0182449Y0207715D01*
X0184811Y0218662D02*
X0186189Y0218662D01*
X0186189Y0216890D01*
X0184811Y0216890D01*
X0184811Y0218662D01*
X0184811Y0218267D02*
X0186189Y0218267D01*
X0188551Y0228110D02*
X0189929Y0228110D01*
X0189929Y0226338D01*
X0188551Y0226338D01*
X0188551Y0228110D01*
X0188551Y0227715D02*
X0189929Y0227715D01*
X0182449Y0228110D02*
X0181071Y0228110D01*
X0182449Y0228110D02*
X0182449Y0226338D01*
X0181071Y0226338D01*
X0181071Y0228110D01*
X0181071Y0227715D02*
X0182449Y0227715D01*
X0184811Y0238662D02*
X0186189Y0238662D01*
X0186189Y0236890D01*
X0184811Y0236890D01*
X0184811Y0238662D01*
X0184811Y0238267D02*
X0186189Y0238267D01*
X0188551Y0248110D02*
X0189929Y0248110D01*
X0189929Y0246338D01*
X0188551Y0246338D01*
X0188551Y0248110D01*
X0188551Y0247715D02*
X0189929Y0247715D01*
X0182449Y0248110D02*
X0181071Y0248110D01*
X0182449Y0248110D02*
X0182449Y0246338D01*
X0181071Y0246338D01*
X0181071Y0248110D01*
X0181071Y0247715D02*
X0182449Y0247715D01*
X0157189Y0246338D02*
X0155811Y0246338D01*
X0155811Y0248110D01*
X0157189Y0248110D01*
X0157189Y0246338D01*
X0157189Y0247715D02*
X0155811Y0247715D01*
X0078110Y0319571D02*
X0078110Y0320949D01*
X0078110Y0319571D02*
X0076338Y0319571D01*
X0076338Y0320949D01*
X0078110Y0320949D01*
X0078110Y0320948D02*
X0076338Y0320948D01*
X0068662Y0323311D02*
X0068662Y0324689D01*
X0068662Y0323311D02*
X0066890Y0323311D01*
X0066890Y0324689D01*
X0068662Y0324689D01*
X0068662Y0324688D02*
X0066890Y0324688D01*
X0078110Y0327051D02*
X0078110Y0328429D01*
X0078110Y0327051D02*
X0076338Y0327051D01*
X0076338Y0328429D01*
X0078110Y0328429D01*
X0078110Y0328428D02*
X0076338Y0328428D01*
X0184811Y0138662D02*
X0186189Y0138662D01*
X0186189Y0136890D01*
X0184811Y0136890D01*
X0184811Y0138662D01*
X0184811Y0138267D02*
X0186189Y0138267D01*
D25*
X0052854Y0265611D02*
X0047894Y0265611D01*
X0047894Y0269389D01*
X0052854Y0269389D01*
X0052854Y0265611D01*
X0052854Y0268130D02*
X0047894Y0268130D01*
X0037106Y0269389D02*
X0032146Y0269389D01*
X0037106Y0269389D02*
X0037106Y0265611D01*
X0032146Y0265611D01*
X0032146Y0269389D01*
X0032146Y0268130D02*
X0037106Y0268130D01*
M02*
