%
M48
M72
T01C0.01000
T02C0.01500
T03C0.01575
T04C0.02000
T05C0.03150
T06C0.03200
T07C0.03543
T08C0.03937
T09C0.11811
%
T01
X42000Y99811
X45000Y99811
X48000Y99811
X48000Y105811
X45000Y105811
X42000Y105811
X34000Y109811
X31000Y109811
X28000Y109811
X28000Y115811
X31000Y115811
X34000Y115811
X42000Y119811
X45000Y119811
X48000Y119811
X48000Y125811
X45000Y125811
X42000Y125811
X34000Y129811
X31000Y129811
X28000Y129811
X28000Y135811
X31000Y135811
X34000Y135811
X42000Y139811
X45000Y139811
X48000Y139811
X48000Y145811
X45000Y145811
X42000Y145811
X34000Y149811
X31000Y149811
X28000Y149811
X28000Y155811
X31000Y155811
X34000Y155811
X42000Y169811
X45000Y169811
X48000Y169811
X48000Y175811
X45000Y175811
X42000Y175811
X34000Y199811
X31000Y199811
X28000Y199811
X28000Y205811
X31000Y205811
X34000Y205811
X42000Y209811
X45000Y209811
X48000Y209811
X48000Y215811
X45000Y215811
X42000Y215811
X34000Y219811
X31000Y219811
X28000Y219811
X28000Y225811
X31000Y225811
X34000Y225811
X42000Y229811
X45000Y229811
X48000Y229811
X48000Y235811
X45000Y235811
X42000Y235811
X34000Y239811
X31000Y239811
X28000Y239811
X28000Y245811
X31000Y245811
X34000Y245811
X218000Y274811
X221000Y274811
X224000Y274811
X232000Y270811
X235000Y270811
X238000Y270811
X238000Y264811
X235000Y264811
X232000Y264811
X224000Y280811
X221000Y280811
X218000Y280811
X218000Y200811
X221000Y200811
X224000Y200811
X224000Y194811
X221000Y194811
X218000Y194811
X218000Y175811
X221000Y175811
X224000Y175811
X224000Y169811
X221000Y169811
X218000Y169811
X131000Y110311
X131000Y107311
X131000Y104311
X125000Y104311
X125000Y107311
X125000Y110311
X145000Y91311
X145000Y88311
X145000Y85311
X151000Y85311
X151000Y88311
X151000Y91311
X231500Y99811
X234500Y99811
X237500Y99811
X237500Y105811
X234500Y105811
X231500Y105811
T02
X196500Y107811
X196500Y117811
X196500Y122811
X196500Y132811
X196500Y137811
X196500Y142811
X196500Y152811
X196500Y157811
X196500Y162811
X196500Y172811
X196500Y177811
X196500Y187811
X196500Y197811
X196500Y202811
X196500Y207811
X196500Y217811
X196500Y222811
X196500Y227811
X196500Y237811
X196500Y242811
X181000Y233311
X181000Y213311
X181000Y193311
X181000Y173311
X181000Y153311
X181000Y133311
X162500Y113811
X159500Y109811
X156500Y105811
X144000Y137811
X144000Y142811
X144000Y157811
X144000Y162811
X139000Y162811
X139000Y172811
X139000Y177811
X144000Y177811
X144000Y182811
X143776Y188087
X140000Y194811
X144000Y197811
X144000Y202811
X144000Y217811
X139000Y217811
X144000Y222811
X144000Y237811
X144000Y242811
X173500Y278311
X178000Y281311
X159000Y302811
X173500Y305311
X173500Y310311
X198500Y315811
X230000Y237811
X226000Y227811
X230000Y217811
X76000Y200311
X76000Y195311
X76000Y190311
X76000Y185311
X76000Y180311
T03
X76000Y175311
X83500Y163311
X98000Y188811
X102000Y192811
X106000Y189311
X130000Y225811
X130000Y230811
X130000Y235811
X170000Y243811
X164000Y260811
X164000Y265811
X118000Y288811
X78000Y310811
X89000Y317811
X50500Y281311
X46500Y281311
X23500Y251811
X53500Y232811
X88500Y246811
X88500Y251311
X49000Y202811
X165500Y117811
X198500Y309811
X144500Y333311
T04
X78000Y87811
X93000Y87811
X107000Y87811
X107000Y102811
X93000Y102811
X78000Y102811
X78000Y117811
X93000Y117811
X107000Y117811
X127000Y122311
X108000Y142811
X82000Y156811
X105500Y182311
X103000Y227811
X88000Y227811
X103000Y242811
X123000Y262811
X108500Y273811
X137000Y280811
X158500Y292811
X146000Y297811
X118000Y297811
X93000Y301311
X88000Y301311
X88000Y293811
X93000Y293811
X116000Y323811
X116000Y329811
X125000Y329811
X125000Y323811
X125000Y341811
X125000Y347811
X116000Y347811
X116000Y341811
X163000Y322811
X184500Y319811
X208000Y292811
X208000Y277811
X243000Y277811
X243000Y257811
X233000Y311311
X233000Y327311
X50500Y305311
X18000Y282811
X18000Y262811
X18000Y242811
X18000Y222811
X51000Y245811
X49000Y265811
X48000Y332811
X23000Y332811
X18000Y172811
X33000Y172811
X18000Y152811
X18000Y132811
X18000Y112811
X231000Y112811
T05
X231000Y93811
X226000Y93811
X221000Y93811
X216000Y93811
X211000Y93811
X254000Y52811
X254000Y47811
X254000Y42811
X254000Y37811
X254000Y32811
X254000Y167811
X254000Y172811
X254000Y177811
X254000Y182811
X254000Y187811
X254000Y302811
X254000Y307811
X254000Y312811
X254000Y317811
X254000Y322811
X32000Y93811
X27000Y93811
X22000Y93811
T06
X168157Y332181
X187843Y332181
T07
X79906Y339311
X68094Y339311
T08
X293000Y317811
X293000Y307811
X303000Y307811
X303000Y317811
X303000Y297811
X293000Y297811
X293000Y287811
X303000Y287811
X303000Y277811
X293000Y277811
X293000Y257811
X303000Y257811
X303000Y247811
X293000Y247811
X293000Y237811
X303000Y237811
X303000Y227811
X293000Y227811
X293000Y217811
X303000Y217811
X303000Y197811
X293000Y197811
X293000Y187811
X303000Y187811
X303000Y177811
X293000Y177811
X293000Y167811
X293000Y157811
X303000Y157811
X303000Y167811
X328000Y162811
X338000Y162811
X348000Y162811
X358000Y162811
X368000Y162811
X368000Y152811
X358000Y152811
X348000Y152811
X338000Y152811
X328000Y152811
X328000Y142811
X328000Y132811
X338000Y132811
X348000Y132811
X358000Y132811
X368000Y132811
X368000Y142811
X358000Y142811
X348000Y142811
X338000Y142811
X338000Y122811
X328000Y122811
X328000Y112811
X338000Y112811
X348000Y112811
X358000Y112811
X368000Y112811
X368000Y102811
X358000Y102811
X348000Y102811
X338000Y102811
X328000Y102811
X328000Y92811
X328000Y82811
X338000Y82811
X348000Y82811
X358000Y82811
X368000Y82811
X368000Y92811
X358000Y92811
X348000Y92811
X338000Y92811
X338000Y72811
X328000Y72811
X328000Y62811
X338000Y62811
X348000Y62811
X358000Y62811
X368000Y62811
X368000Y52811
X358000Y52811
X348000Y52811
X338000Y52811
X328000Y52811
X328000Y42811
X328000Y32811
X338000Y32811
X348000Y32811
X358000Y32811
X368000Y32811
X368000Y42811
X358000Y42811
X348000Y42811
X338000Y42811
X303000Y37811
X293000Y37811
X293000Y47811
X303000Y47811
X303000Y57811
X293000Y57811
X293000Y67811
X303000Y67811
X303000Y77811
X293000Y77811
X293000Y97811
X303000Y97811
X303000Y107811
X293000Y107811
X293000Y117811
X303000Y117811
X303000Y127811
X293000Y127811
X293000Y137811
X303000Y137811
X348000Y122811
X358000Y122811
X368000Y122811
X398000Y122811
X408000Y122811
X418000Y122811
X428000Y122811
X438000Y122811
X438000Y112811
X428000Y112811
X418000Y112811
X408000Y112811
X398000Y112811
X398000Y102811
X408000Y102811
X418000Y102811
X428000Y102811
X438000Y102811
X438000Y92811
X438000Y82811
X428000Y82811
X418000Y82811
X408000Y82811
X398000Y82811
X398000Y92811
X408000Y92811
X418000Y92811
X428000Y92811
X428000Y72811
X418000Y72811
X408000Y72811
X398000Y72811
X398000Y62811
X408000Y62811
X418000Y62811
X428000Y62811
X438000Y62811
X438000Y52811
X428000Y52811
X418000Y52811
X408000Y52811
X398000Y52811
X398000Y42811
X398000Y32811
X408000Y32811
X418000Y32811
X428000Y32811
X438000Y32811
X438000Y42811
X428000Y42811
X418000Y42811
X408000Y42811
X438000Y72811
X463000Y67811
X463000Y57811
X473000Y57811
X473000Y67811
X473000Y77811
X463000Y77811
X463000Y97811
X473000Y97811
X473000Y107811
X463000Y107811
X463000Y117811
X473000Y117811
X473000Y127811
X463000Y127811
X463000Y137811
X473000Y137811
X473000Y157811
X463000Y157811
X463000Y167811
X473000Y167811
X473000Y177811
X463000Y177811
X463000Y187811
X473000Y187811
X473000Y197811
X463000Y197811
X463000Y217811
X473000Y217811
X473000Y227811
X463000Y227811
X463000Y237811
X473000Y237811
X473000Y247811
X463000Y247811
X463000Y257811
X473000Y257811
X473000Y277811
X463000Y277811
X463000Y287811
X473000Y287811
X473000Y297811
X463000Y297811
X463000Y307811
X473000Y307811
X473000Y317811
X463000Y317811
X438000Y312811
X428000Y312811
X418000Y312811
X408000Y312811
X398000Y312811
X398000Y302811
X408000Y302811
X418000Y302811
X428000Y302811
X438000Y302811
X438000Y292811
X438000Y282811
X428000Y282811
X418000Y282811
X408000Y282811
X398000Y282811
X398000Y292811
X408000Y292811
X418000Y292811
X428000Y292811
X428000Y272811
X418000Y272811
X408000Y272811
X398000Y272811
X398000Y262811
X408000Y262811
X418000Y262811
X428000Y262811
X438000Y262811
X438000Y252811
X428000Y252811
X418000Y252811
X408000Y252811
X398000Y252811
X398000Y242811
X398000Y232811
X408000Y232811
X418000Y232811
X428000Y232811
X438000Y232811
X438000Y242811
X428000Y242811
X418000Y242811
X408000Y242811
X408000Y222811
X398000Y222811
X398000Y212811
X408000Y212811
X418000Y212811
X428000Y212811
X438000Y212811
X438000Y202811
X428000Y202811
X418000Y202811
X408000Y202811
X398000Y202811
X398000Y192811
X398000Y182811
X408000Y182811
X418000Y182811
X428000Y182811
X438000Y182811
X438000Y192811
X428000Y192811
X418000Y192811
X408000Y192811
X408000Y172811
X398000Y172811
X398000Y162811
X408000Y162811
X418000Y162811
X428000Y162811
X438000Y162811
X438000Y152811
X428000Y152811
X418000Y152811
X408000Y152811
X398000Y152811
X398000Y142811
X398000Y132811
X408000Y132811
X418000Y132811
X428000Y132811
X438000Y132811
X438000Y142811
X428000Y142811
X418000Y142811
X408000Y142811
X418000Y172811
X428000Y172811
X438000Y172811
X368000Y172811
X358000Y172811
X348000Y172811
X338000Y172811
X328000Y172811
X328000Y182811
X338000Y182811
X348000Y182811
X358000Y182811
X368000Y182811
X368000Y192811
X358000Y192811
X348000Y192811
X338000Y192811
X328000Y192811
X328000Y202811
X338000Y202811
X348000Y202811
X358000Y202811
X368000Y202811
X368000Y212811
X358000Y212811
X348000Y212811
X338000Y212811
X328000Y212811
X328000Y222811
X338000Y222811
X348000Y222811
X358000Y222811
X368000Y222811
X368000Y232811
X358000Y232811
X348000Y232811
X338000Y232811
X328000Y232811
X328000Y242811
X338000Y242811
X348000Y242811
X358000Y242811
X368000Y242811
X368000Y252811
X358000Y252811
X348000Y252811
X338000Y252811
X328000Y252811
X328000Y262811
X338000Y262811
X348000Y262811
X358000Y262811
X368000Y262811
X368000Y272811
X358000Y272811
X348000Y272811
X338000Y272811
X328000Y272811
X328000Y282811
X338000Y282811
X348000Y282811
X358000Y282811
X368000Y282811
X368000Y292811
X358000Y292811
X348000Y292811
X338000Y292811
X328000Y292811
X328000Y302811
X338000Y302811
X348000Y302811
X358000Y302811
X368000Y302811
X368000Y312811
X358000Y312811
X348000Y312811
X338000Y312811
X328000Y312811
X328000Y322811
X338000Y322811
X348000Y322811
X358000Y322811
X368000Y322811
X398000Y322811
X408000Y322811
X418000Y322811
X428000Y322811
X438000Y322811
X438000Y272811
X438000Y222811
X428000Y222811
X418000Y222811
X368000Y72811
X358000Y72811
X348000Y72811
X463000Y47811
X473000Y47811
X473000Y37811
X463000Y37811
T09
X503000Y12811
X168000Y92811
X58000Y92811
X228000Y292811
X38000Y297811
X503000Y342811
M30
