G75*
%MOIN*%
%OFA0B0*%
%FSLAX25Y25*%
%IPPOS*%
%LPD*%
%AMOC8*
5,1,8,0,0,1.08239X$1,22.5*
%
%ADD10C,0.00600*%
%ADD11C,0.03307*%
%ADD12C,0.05700*%
%ADD13C,0.04000*%
%ADD14C,0.01000*%
%ADD15C,0.03500*%
%ADD16C,0.01500*%
%ADD17C,0.03000*%
%ADD18C,0.02000*%
%ADD19C,0.03575*%
%ADD20C,0.07500*%
D10*
X0222717Y0336111D02*
X0222149Y0336678D01*
X0222149Y0338947D01*
X0222717Y0339514D01*
X0223851Y0339514D01*
X0224418Y0338947D01*
X0224418Y0338380D01*
X0223851Y0337812D01*
X0222149Y0337812D01*
X0222717Y0336111D02*
X0223851Y0336111D01*
X0224418Y0336678D01*
X0225833Y0336111D02*
X0228101Y0336111D01*
X0226967Y0336111D02*
X0226967Y0339514D01*
X0228101Y0338380D01*
X0229516Y0338947D02*
X0231784Y0336678D01*
X0231217Y0336111D01*
X0230083Y0336111D01*
X0229516Y0336678D01*
X0229516Y0338947D01*
X0230083Y0339514D01*
X0231217Y0339514D01*
X0231784Y0338947D01*
X0231784Y0336678D01*
X0233199Y0336111D02*
X0235467Y0336111D01*
X0233199Y0338380D01*
X0233199Y0338947D01*
X0233766Y0339514D01*
X0234900Y0339514D01*
X0235467Y0338947D01*
X0235467Y0342111D02*
X0234900Y0342111D01*
X0234900Y0342678D01*
X0235467Y0342678D01*
X0235467Y0342111D01*
X0236882Y0342111D02*
X0239151Y0342111D01*
X0238016Y0342111D02*
X0238016Y0345514D01*
X0239151Y0344380D01*
X0240565Y0345514D02*
X0240565Y0343245D01*
X0241699Y0342111D01*
X0242834Y0343245D01*
X0242834Y0345514D01*
X0244248Y0345514D02*
X0246517Y0345514D01*
X0246517Y0342111D01*
X0244248Y0342111D01*
X0245383Y0343812D02*
X0246517Y0343812D01*
X0247931Y0343812D02*
X0248499Y0343245D01*
X0250200Y0343245D01*
X0250200Y0342111D02*
X0250200Y0345514D01*
X0248499Y0345514D01*
X0247931Y0344947D01*
X0247931Y0343812D01*
X0249066Y0343245D02*
X0247931Y0342111D01*
X0248499Y0339514D02*
X0247931Y0338947D01*
X0247931Y0336678D01*
X0248499Y0336111D01*
X0249633Y0336111D01*
X0250200Y0336678D01*
X0250200Y0338947D01*
X0249633Y0339514D01*
X0248499Y0339514D01*
X0246517Y0338947D02*
X0246517Y0336678D01*
X0245950Y0336111D01*
X0244815Y0336111D01*
X0244248Y0336678D01*
X0244248Y0338947D02*
X0244815Y0339514D01*
X0245950Y0339514D01*
X0246517Y0338947D01*
X0242834Y0339514D02*
X0240565Y0339514D01*
X0241699Y0339514D02*
X0241699Y0336111D01*
X0233626Y0342678D02*
X0231357Y0344947D01*
X0231357Y0342678D01*
X0231924Y0342111D01*
X0233059Y0342111D01*
X0233626Y0342678D01*
X0233626Y0344947D01*
X0233059Y0345514D01*
X0231924Y0345514D01*
X0231357Y0344947D01*
X0229943Y0342678D02*
X0229376Y0342678D01*
X0229376Y0342111D01*
X0229943Y0342111D01*
X0229943Y0342678D01*
X0228101Y0342678D02*
X0225833Y0344947D01*
X0225833Y0342678D01*
X0226400Y0342111D01*
X0227534Y0342111D01*
X0228101Y0342678D01*
X0228101Y0344947D01*
X0227534Y0345514D01*
X0226400Y0345514D01*
X0225833Y0344947D01*
D11*
X0196989Y0344859D02*
X0196989Y0340685D01*
X0195571Y0340685D01*
X0195571Y0344859D01*
X0196989Y0344859D01*
X0196989Y0343991D02*
X0195571Y0343991D01*
X0168011Y0344937D02*
X0168011Y0340763D01*
X0168011Y0344937D02*
X0169429Y0344937D01*
X0169429Y0340763D01*
X0168011Y0340763D01*
X0168011Y0344069D02*
X0169429Y0344069D01*
D12*
X0172657Y0332181D03*
X0192343Y0332181D03*
D13*
X0189000Y0319811D03*
X0167500Y0322811D03*
X0150500Y0297811D03*
X0163000Y0292811D03*
X0141500Y0280811D03*
X0127500Y0262811D03*
X0113000Y0273811D03*
X0097500Y0293811D03*
X0092500Y0293811D03*
X0092500Y0301311D03*
X0097500Y0301311D03*
X0122500Y0297811D03*
X0120500Y0323811D03*
X0120500Y0329811D03*
X0129500Y0329811D03*
X0129500Y0323811D03*
X0110500Y0326811D03*
X0101500Y0326811D03*
X0101500Y0344811D03*
X0110500Y0344811D03*
X0120500Y0341811D03*
X0120500Y0347811D03*
X0129500Y0347811D03*
X0129500Y0341811D03*
X0052500Y0332811D03*
X0027500Y0332811D03*
X0055000Y0305311D03*
X0022500Y0282811D03*
X0022500Y0262811D03*
X0022500Y0242811D03*
X0022500Y0222811D03*
X0055500Y0245811D03*
X0053500Y0265811D03*
X0107500Y0242811D03*
X0107500Y0227811D03*
X0092500Y0227811D03*
X0110000Y0182311D03*
X0086500Y0156811D03*
X0112500Y0142811D03*
X0131500Y0122311D03*
X0111500Y0117811D03*
X0097500Y0117811D03*
X0082500Y0117811D03*
X0082500Y0102811D03*
X0097500Y0102811D03*
X0111500Y0102811D03*
X0111500Y0087811D03*
X0097500Y0087811D03*
X0082500Y0087811D03*
X0022500Y0112811D03*
X0022500Y0132811D03*
X0022500Y0152811D03*
X0022500Y0172811D03*
X0037500Y0172811D03*
X0212500Y0277811D03*
X0212500Y0292811D03*
X0237500Y0311311D03*
X0237500Y0327311D03*
X0247500Y0277811D03*
X0247500Y0257811D03*
X0235500Y0112811D03*
D14*
X0019200Y0006811D02*
X0019244Y0006362D01*
X0019588Y0005533D01*
X0020222Y0004899D01*
X0021051Y0004555D01*
X0021500Y0004511D01*
X0255500Y0004511D01*
X0255949Y0004555D01*
X0256778Y0004899D01*
X0257412Y0005533D01*
X0257756Y0006362D01*
X0257800Y0006811D01*
X0257800Y0025556D01*
X0256645Y0026035D01*
X0255724Y0026956D01*
X0255225Y0028160D01*
X0255225Y0029462D01*
X0255724Y0030666D01*
X0256645Y0031587D01*
X0257000Y0031734D01*
X0257000Y0032888D01*
X0256645Y0033035D01*
X0255724Y0033956D01*
X0255225Y0035160D01*
X0255225Y0036462D01*
X0255724Y0037666D01*
X0256645Y0038587D01*
X0257000Y0038734D01*
X0257000Y0039888D01*
X0256645Y0040035D01*
X0255724Y0040956D01*
X0255225Y0042160D01*
X0255225Y0043462D01*
X0255724Y0044666D01*
X0256645Y0045587D01*
X0257000Y0045734D01*
X0257000Y0046888D01*
X0256645Y0047035D01*
X0255724Y0047956D01*
X0255225Y0049160D01*
X0255225Y0050462D01*
X0255724Y0051666D01*
X0256645Y0052587D01*
X0257000Y0052734D01*
X0257000Y0053888D01*
X0256645Y0054035D01*
X0255724Y0054956D01*
X0255225Y0056160D01*
X0255225Y0057462D01*
X0255724Y0058666D01*
X0256645Y0059587D01*
X0257800Y0060066D01*
X0257800Y0078811D01*
X0257756Y0079260D01*
X0257412Y0080089D01*
X0256778Y0080723D01*
X0256566Y0080811D01*
X0195904Y0080811D01*
X0184204Y0069111D01*
X0047796Y0069111D01*
X0039800Y0077107D01*
X0039800Y0080811D01*
X0020434Y0080811D01*
X0020222Y0080723D01*
X0019588Y0080089D01*
X0019244Y0079260D01*
X0019200Y0078811D01*
X0019200Y0006811D01*
X0019200Y0006924D02*
X0257800Y0006924D01*
X0257800Y0007923D02*
X0019200Y0007923D01*
X0019200Y0008921D02*
X0257800Y0008921D01*
X0257800Y0009920D02*
X0019200Y0009920D01*
X0019200Y0010918D02*
X0257800Y0010918D01*
X0257800Y0011917D02*
X0019200Y0011917D01*
X0019200Y0012915D02*
X0257800Y0012915D01*
X0257800Y0013914D02*
X0019200Y0013914D01*
X0019200Y0014912D02*
X0257800Y0014912D01*
X0257800Y0015911D02*
X0019200Y0015911D01*
X0019200Y0016909D02*
X0257800Y0016909D01*
X0257800Y0017908D02*
X0019200Y0017908D01*
X0019200Y0018906D02*
X0257800Y0018906D01*
X0257800Y0019905D02*
X0019200Y0019905D01*
X0019200Y0020903D02*
X0257800Y0020903D01*
X0257800Y0021902D02*
X0019200Y0021902D01*
X0019200Y0022900D02*
X0257800Y0022900D01*
X0257800Y0023899D02*
X0019200Y0023899D01*
X0019200Y0024897D02*
X0257800Y0024897D01*
X0256980Y0025896D02*
X0019200Y0025896D01*
X0019200Y0026894D02*
X0255785Y0026894D01*
X0255336Y0027893D02*
X0019200Y0027893D01*
X0019200Y0028891D02*
X0255225Y0028891D01*
X0255402Y0029890D02*
X0019200Y0029890D01*
X0019200Y0030888D02*
X0255946Y0030888D01*
X0257000Y0031887D02*
X0019200Y0031887D01*
X0019200Y0032885D02*
X0257000Y0032885D01*
X0255796Y0033884D02*
X0019200Y0033884D01*
X0019200Y0034882D02*
X0255340Y0034882D01*
X0255225Y0035881D02*
X0019200Y0035881D01*
X0019200Y0036880D02*
X0255398Y0036880D01*
X0255936Y0037878D02*
X0019200Y0037878D01*
X0019200Y0038877D02*
X0257000Y0038877D01*
X0257000Y0039875D02*
X0019200Y0039875D01*
X0019200Y0040874D02*
X0255806Y0040874D01*
X0255344Y0041872D02*
X0019200Y0041872D01*
X0019200Y0042871D02*
X0255225Y0042871D01*
X0255394Y0043869D02*
X0019200Y0043869D01*
X0019200Y0044868D02*
X0255925Y0044868D01*
X0257000Y0045866D02*
X0019200Y0045866D01*
X0019200Y0046865D02*
X0257000Y0046865D01*
X0255817Y0047863D02*
X0019200Y0047863D01*
X0019200Y0048862D02*
X0255349Y0048862D01*
X0255225Y0049860D02*
X0019200Y0049860D01*
X0019200Y0050859D02*
X0255389Y0050859D01*
X0255915Y0051857D02*
X0019200Y0051857D01*
X0019200Y0052856D02*
X0257000Y0052856D01*
X0257000Y0053854D02*
X0019200Y0053854D01*
X0019200Y0054853D02*
X0255827Y0054853D01*
X0255353Y0055851D02*
X0019200Y0055851D01*
X0019200Y0056850D02*
X0255225Y0056850D01*
X0255385Y0057848D02*
X0019200Y0057848D01*
X0019200Y0058847D02*
X0255904Y0058847D01*
X0257268Y0059845D02*
X0019200Y0059845D01*
X0019200Y0060844D02*
X0257800Y0060844D01*
X0257800Y0061842D02*
X0019200Y0061842D01*
X0019200Y0062841D02*
X0257800Y0062841D01*
X0257800Y0063839D02*
X0019200Y0063839D01*
X0019200Y0064838D02*
X0257800Y0064838D01*
X0257800Y0065836D02*
X0019200Y0065836D01*
X0019200Y0066835D02*
X0257800Y0066835D01*
X0257800Y0067833D02*
X0019200Y0067833D01*
X0019200Y0068832D02*
X0257800Y0068832D01*
X0257800Y0069830D02*
X0184923Y0069830D01*
X0185922Y0070829D02*
X0257800Y0070829D01*
X0257800Y0071827D02*
X0186921Y0071827D01*
X0187919Y0072826D02*
X0257800Y0072826D01*
X0257800Y0073824D02*
X0188918Y0073824D01*
X0189916Y0074823D02*
X0257800Y0074823D01*
X0257800Y0075821D02*
X0190915Y0075821D01*
X0191913Y0076820D02*
X0257800Y0076820D01*
X0257800Y0077818D02*
X0192912Y0077818D01*
X0193910Y0078817D02*
X0257799Y0078817D01*
X0257526Y0079815D02*
X0194909Y0079815D01*
X0182696Y0086835D02*
X0183776Y0088707D01*
X0184500Y0092811D01*
X0183776Y0096915D01*
X0181693Y0100524D01*
X0178670Y0103061D01*
X0180361Y0103061D01*
X0187942Y0095480D01*
X0188953Y0095061D01*
X0206047Y0095061D01*
X0207058Y0095480D01*
X0222331Y0110753D01*
X0222750Y0111764D01*
X0222750Y0153672D01*
X0235331Y0166253D01*
X0235750Y0167264D01*
X0235750Y0214270D01*
X0236624Y0214632D01*
X0237679Y0215687D01*
X0238250Y0217065D01*
X0238250Y0218557D01*
X0237679Y0219935D01*
X0236624Y0220990D01*
X0235246Y0221561D01*
X0233754Y0221561D01*
X0232376Y0220990D01*
X0231321Y0219935D01*
X0230750Y0218557D01*
X0230750Y0217950D01*
X0230669Y0217869D01*
X0230250Y0216858D01*
X0230250Y0204311D01*
X0220503Y0204311D01*
X0219750Y0203999D01*
X0219750Y0213172D01*
X0230639Y0224061D01*
X0231246Y0224061D01*
X0232624Y0224632D01*
X0233679Y0225687D01*
X0234250Y0227065D01*
X0234250Y0228557D01*
X0233679Y0229935D01*
X0232624Y0230990D01*
X0231877Y0231299D01*
X0234639Y0234061D01*
X0235246Y0234061D01*
X0236624Y0234632D01*
X0237679Y0235687D01*
X0238250Y0237065D01*
X0238250Y0238557D01*
X0237679Y0239935D01*
X0236624Y0240990D01*
X0235246Y0241561D01*
X0233754Y0241561D01*
X0232376Y0240990D01*
X0231321Y0239935D01*
X0230750Y0238557D01*
X0230750Y0237950D01*
X0213750Y0220950D01*
X0213750Y0246710D01*
X0213331Y0247720D01*
X0212558Y0248494D01*
X0212558Y0248494D01*
X0205683Y0255369D01*
X0204909Y0256142D01*
X0203898Y0256561D01*
X0176639Y0256561D01*
X0172287Y0260913D01*
X0172287Y0261564D01*
X0171711Y0262956D01*
X0171356Y0263311D01*
X0171711Y0263666D01*
X0172287Y0265058D01*
X0172287Y0266564D01*
X0172082Y0267061D01*
X0184547Y0267061D01*
X0185558Y0267480D01*
X0194558Y0276480D01*
X0195331Y0277253D01*
X0195750Y0278264D01*
X0195750Y0298672D01*
X0203102Y0306024D01*
X0203753Y0306024D01*
X0205145Y0306600D01*
X0206211Y0307666D01*
X0206787Y0309058D01*
X0206787Y0310564D01*
X0206211Y0311956D01*
X0205330Y0312837D01*
X0206179Y0313687D01*
X0206750Y0315065D01*
X0206750Y0316557D01*
X0206179Y0317935D01*
X0205124Y0318990D01*
X0203746Y0319561D01*
X0203139Y0319561D01*
X0196558Y0326142D01*
X0195547Y0326561D01*
X0179953Y0326561D01*
X0178942Y0326142D01*
X0178169Y0325369D01*
X0166669Y0313869D01*
X0166250Y0312858D01*
X0166250Y0306950D01*
X0165388Y0306088D01*
X0164246Y0306561D01*
X0162754Y0306561D01*
X0161376Y0305990D01*
X0160321Y0304935D01*
X0159750Y0303557D01*
X0159750Y0302065D01*
X0160321Y0300687D01*
X0161376Y0299632D01*
X0162754Y0299061D01*
X0164246Y0299061D01*
X0165624Y0299632D01*
X0166053Y0300061D01*
X0166547Y0300061D01*
X0167558Y0300480D01*
X0170558Y0303480D01*
X0171331Y0304253D01*
X0171750Y0305264D01*
X0171750Y0311172D01*
X0181639Y0321061D01*
X0185188Y0321061D01*
X0185000Y0320607D01*
X0185000Y0319015D01*
X0185609Y0317545D01*
X0186000Y0317154D01*
X0186000Y0282660D01*
X0185679Y0283435D01*
X0185250Y0283864D01*
X0185250Y0307358D01*
X0184831Y0308369D01*
X0184058Y0309142D01*
X0181472Y0311728D01*
X0181179Y0312435D01*
X0180124Y0313490D01*
X0178746Y0314061D01*
X0177254Y0314061D01*
X0175876Y0313490D01*
X0174821Y0312435D01*
X0174250Y0311057D01*
X0174250Y0309565D01*
X0174821Y0308187D01*
X0175197Y0307811D01*
X0174821Y0307435D01*
X0174250Y0306057D01*
X0174250Y0304565D01*
X0174821Y0303187D01*
X0175250Y0302758D01*
X0175250Y0280864D01*
X0174821Y0280435D01*
X0174250Y0279057D01*
X0174250Y0277565D01*
X0174562Y0276811D01*
X0115657Y0276811D01*
X0115266Y0277202D01*
X0113796Y0277811D01*
X0112204Y0277811D01*
X0110734Y0277202D01*
X0109609Y0276077D01*
X0109000Y0274607D01*
X0109000Y0273015D01*
X0109609Y0271545D01*
X0110734Y0270420D01*
X0112204Y0269811D01*
X0113796Y0269811D01*
X0115266Y0270420D01*
X0115657Y0270811D01*
X0164111Y0270811D01*
X0159169Y0265869D01*
X0158750Y0264858D01*
X0158750Y0256882D01*
X0159169Y0255871D01*
X0159942Y0255097D01*
X0169560Y0245480D01*
X0170571Y0245061D01*
X0177861Y0245061D01*
X0177169Y0244369D01*
X0175361Y0242561D01*
X0167639Y0242561D01*
X0165058Y0245142D01*
X0164047Y0245561D01*
X0151053Y0245561D01*
X0150624Y0245990D01*
X0149246Y0246561D01*
X0147754Y0246561D01*
X0146376Y0245990D01*
X0145321Y0244935D01*
X0144750Y0243557D01*
X0144750Y0242065D01*
X0145321Y0240687D01*
X0145697Y0240311D01*
X0145321Y0239935D01*
X0144750Y0238557D01*
X0144750Y0237065D01*
X0145321Y0235687D01*
X0146376Y0234632D01*
X0147754Y0234061D01*
X0149246Y0234061D01*
X0150624Y0234632D01*
X0151053Y0235061D01*
X0151361Y0235061D01*
X0151169Y0234869D01*
X0142250Y0225950D01*
X0142250Y0236858D01*
X0141831Y0237869D01*
X0131831Y0247869D01*
X0131058Y0248642D01*
X0130047Y0249061D01*
X0118139Y0249061D01*
X0086750Y0280450D01*
X0086750Y0309858D01*
X0086331Y0310869D01*
X0086287Y0310913D01*
X0086287Y0311564D01*
X0085711Y0312956D01*
X0084645Y0314022D01*
X0083253Y0314598D01*
X0081747Y0314598D01*
X0080355Y0314022D01*
X0079289Y0312956D01*
X0078713Y0311564D01*
X0078713Y0310058D01*
X0079289Y0308666D01*
X0080355Y0307600D01*
X0081250Y0307229D01*
X0081250Y0278764D01*
X0081669Y0277753D01*
X0115442Y0243980D01*
X0116453Y0243561D01*
X0128361Y0243561D01*
X0132740Y0239182D01*
X0132355Y0239022D01*
X0131289Y0237956D01*
X0130959Y0237159D01*
X0125169Y0231369D01*
X0124750Y0230358D01*
X0124750Y0216450D01*
X0116425Y0208125D01*
X0100575Y0208125D01*
X0090058Y0218642D01*
X0089047Y0219061D01*
X0071953Y0219061D01*
X0070942Y0218642D01*
X0070169Y0217869D01*
X0067250Y0214950D01*
X0067250Y0226858D01*
X0066831Y0227869D01*
X0061787Y0232913D01*
X0061787Y0233564D01*
X0061211Y0234956D01*
X0060145Y0236022D01*
X0058753Y0236598D01*
X0057247Y0236598D01*
X0056500Y0236289D01*
X0056500Y0237308D01*
X0056119Y0238227D01*
X0055416Y0238930D01*
X0054497Y0239311D01*
X0044503Y0239311D01*
X0043584Y0238930D01*
X0042881Y0238227D01*
X0042500Y0237308D01*
X0042500Y0228314D01*
X0042881Y0227395D01*
X0043584Y0226692D01*
X0044503Y0226311D01*
X0052611Y0226311D01*
X0054750Y0224172D01*
X0054750Y0219206D01*
X0054497Y0219311D01*
X0044503Y0219311D01*
X0043584Y0218930D01*
X0042881Y0218227D01*
X0042500Y0217308D01*
X0042500Y0208314D01*
X0042881Y0207395D01*
X0043584Y0206692D01*
X0044503Y0206311D01*
X0052053Y0206311D01*
X0051355Y0206022D01*
X0050289Y0204956D01*
X0049713Y0203564D01*
X0049713Y0202058D01*
X0050289Y0200666D01*
X0051355Y0199600D01*
X0052747Y0199024D01*
X0053398Y0199024D01*
X0058750Y0193672D01*
X0058750Y0187264D01*
X0059169Y0186253D01*
X0059942Y0185480D01*
X0076442Y0168980D01*
X0077453Y0168561D01*
X0078861Y0168561D01*
X0084213Y0163209D01*
X0084213Y0162558D01*
X0084789Y0161166D01*
X0085855Y0160100D01*
X0087247Y0159524D01*
X0087898Y0159524D01*
X0092169Y0155253D01*
X0092942Y0154480D01*
X0093953Y0154061D01*
X0120361Y0154061D01*
X0129750Y0144672D01*
X0129750Y0134264D01*
X0130169Y0133253D01*
X0142169Y0121253D01*
X0142942Y0120480D01*
X0143953Y0120061D01*
X0163861Y0120061D01*
X0166213Y0117709D01*
X0166213Y0117544D01*
X0164876Y0116990D01*
X0163821Y0115935D01*
X0163250Y0114557D01*
X0163250Y0113559D01*
X0161876Y0112990D01*
X0160821Y0111935D01*
X0160250Y0110557D01*
X0160250Y0109559D01*
X0158876Y0108990D01*
X0157821Y0107935D01*
X0157250Y0106557D01*
X0157250Y0105065D01*
X0157821Y0103687D01*
X0158876Y0102632D01*
X0160254Y0102061D01*
X0161746Y0102061D01*
X0163124Y0102632D01*
X0163553Y0103061D01*
X0166330Y0103061D01*
X0163307Y0100524D01*
X0161224Y0096915D01*
X0160500Y0092811D01*
X0161224Y0088707D01*
X0163307Y0085098D01*
X0166032Y0082811D01*
X0158999Y0082811D01*
X0159000Y0082814D01*
X0159000Y0093808D01*
X0158619Y0094727D01*
X0157916Y0095430D01*
X0156997Y0095811D01*
X0148003Y0095811D01*
X0147084Y0095430D01*
X0146381Y0094727D01*
X0146000Y0093808D01*
X0146000Y0082814D01*
X0146001Y0082811D01*
X0068968Y0082811D01*
X0071693Y0085098D01*
X0073776Y0088707D01*
X0074500Y0092811D01*
X0073776Y0096915D01*
X0071693Y0100524D01*
X0068500Y0103203D01*
X0064584Y0104629D01*
X0060416Y0104629D01*
X0056500Y0103203D01*
X0056500Y0107308D01*
X0056119Y0108227D01*
X0055416Y0108930D01*
X0054497Y0109311D01*
X0044503Y0109311D01*
X0043584Y0108930D01*
X0042881Y0108227D01*
X0042500Y0107308D01*
X0042500Y0098314D01*
X0042881Y0097395D01*
X0042890Y0097386D01*
X0041789Y0097386D01*
X0040475Y0096842D01*
X0040444Y0096811D01*
X0037556Y0096811D01*
X0037525Y0096842D01*
X0036211Y0097386D01*
X0034789Y0097386D01*
X0033475Y0096842D01*
X0033444Y0096811D01*
X0030556Y0096811D01*
X0030525Y0096842D01*
X0029211Y0097386D01*
X0027789Y0097386D01*
X0026475Y0096842D01*
X0026444Y0096811D01*
X0023556Y0096811D01*
X0023525Y0096842D01*
X0022211Y0097386D01*
X0020789Y0097386D01*
X0019500Y0096852D01*
X0019500Y0348811D01*
X0019538Y0349201D01*
X0019837Y0349922D01*
X0020389Y0350474D01*
X0021110Y0350773D01*
X0021500Y0350811D01*
X0115000Y0350811D01*
X0115000Y0321061D01*
X0093639Y0321061D01*
X0084287Y0330413D01*
X0084287Y0331064D01*
X0083711Y0332456D01*
X0082645Y0333522D01*
X0081253Y0334098D01*
X0079747Y0334098D01*
X0078355Y0333522D01*
X0077289Y0332456D01*
X0076713Y0331064D01*
X0076713Y0329558D01*
X0077289Y0328166D01*
X0078355Y0327100D01*
X0079747Y0326524D01*
X0080398Y0326524D01*
X0090942Y0315980D01*
X0091953Y0315561D01*
X0133547Y0315561D01*
X0134558Y0315980D01*
X0135331Y0316753D01*
X0137831Y0319253D01*
X0138250Y0320264D01*
X0138250Y0344672D01*
X0141139Y0347561D01*
X0165469Y0347561D01*
X0164914Y0347007D01*
X0164358Y0345664D01*
X0164358Y0340037D01*
X0164914Y0338694D01*
X0165942Y0337666D01*
X0167285Y0337110D01*
X0170156Y0337110D01*
X0171499Y0337666D01*
X0172526Y0338694D01*
X0173083Y0340037D01*
X0173083Y0344061D01*
X0191917Y0344061D01*
X0191917Y0339958D01*
X0192474Y0338615D01*
X0193501Y0337588D01*
X0194844Y0337031D01*
X0197715Y0337031D01*
X0199058Y0337588D01*
X0200086Y0338615D01*
X0200642Y0339958D01*
X0200642Y0345585D01*
X0200086Y0346928D01*
X0199452Y0347561D01*
X0206361Y0347561D01*
X0208713Y0345209D01*
X0208713Y0344558D01*
X0209289Y0343166D01*
X0210355Y0342100D01*
X0211747Y0341524D01*
X0213253Y0341524D01*
X0214645Y0342100D01*
X0215711Y0343166D01*
X0216287Y0344558D01*
X0216287Y0346064D01*
X0215711Y0347456D01*
X0214645Y0348522D01*
X0213253Y0349098D01*
X0212602Y0349098D01*
X0210889Y0350811D01*
X0255500Y0350811D01*
X0255890Y0350773D01*
X0256611Y0350474D01*
X0257163Y0349922D01*
X0257462Y0349201D01*
X0257500Y0348811D01*
X0257500Y0330266D01*
X0256475Y0329842D01*
X0255469Y0328836D01*
X0254925Y0327522D01*
X0254925Y0326100D01*
X0255469Y0324786D01*
X0255500Y0324755D01*
X0255500Y0321867D01*
X0255469Y0321836D01*
X0254925Y0320522D01*
X0254925Y0319100D01*
X0255469Y0317786D01*
X0255500Y0317755D01*
X0255500Y0314867D01*
X0255469Y0314836D01*
X0254925Y0313522D01*
X0254925Y0312100D01*
X0255469Y0310786D01*
X0255500Y0310755D01*
X0255500Y0307867D01*
X0255469Y0307836D01*
X0254925Y0306522D01*
X0254925Y0305100D01*
X0255469Y0303786D01*
X0255500Y0303755D01*
X0255500Y0300867D01*
X0255469Y0300836D01*
X0254925Y0299522D01*
X0254925Y0298100D01*
X0255469Y0296786D01*
X0256475Y0295780D01*
X0257500Y0295356D01*
X0257500Y0195266D01*
X0256475Y0194842D01*
X0255469Y0193836D01*
X0254925Y0192522D01*
X0254925Y0191100D01*
X0255469Y0189786D01*
X0255500Y0189755D01*
X0255500Y0186867D01*
X0255469Y0186836D01*
X0254925Y0185522D01*
X0254925Y0184100D01*
X0255469Y0182786D01*
X0255500Y0182755D01*
X0255500Y0179867D01*
X0255469Y0179836D01*
X0254925Y0178522D01*
X0254925Y0177100D01*
X0255469Y0175786D01*
X0255500Y0175755D01*
X0255500Y0172867D01*
X0255469Y0172836D01*
X0254925Y0171522D01*
X0254925Y0170100D01*
X0255469Y0168786D01*
X0255500Y0168755D01*
X0255500Y0165867D01*
X0255469Y0165836D01*
X0254925Y0164522D01*
X0254925Y0163100D01*
X0255469Y0161786D01*
X0256475Y0160780D01*
X0257500Y0160356D01*
X0257500Y0096811D01*
X0257462Y0096421D01*
X0257163Y0095700D01*
X0256611Y0095148D01*
X0255890Y0094849D01*
X0255500Y0094811D01*
X0242955Y0094811D01*
X0242531Y0095836D01*
X0242055Y0096311D01*
X0243997Y0096311D01*
X0244916Y0096692D01*
X0245619Y0097395D01*
X0246000Y0098314D01*
X0246000Y0107308D01*
X0245619Y0108227D01*
X0244916Y0108930D01*
X0243997Y0109311D01*
X0234003Y0109311D01*
X0233084Y0108930D01*
X0232381Y0108227D01*
X0232000Y0107308D01*
X0232000Y0098314D01*
X0232381Y0097395D01*
X0232390Y0097386D01*
X0231789Y0097386D01*
X0230475Y0096842D01*
X0230444Y0096811D01*
X0227556Y0096811D01*
X0227525Y0096842D01*
X0226211Y0097386D01*
X0224789Y0097386D01*
X0223475Y0096842D01*
X0223444Y0096811D01*
X0220556Y0096811D01*
X0220525Y0096842D01*
X0219211Y0097386D01*
X0217789Y0097386D01*
X0216475Y0096842D01*
X0216444Y0096811D01*
X0213556Y0096811D01*
X0213525Y0096842D01*
X0212211Y0097386D01*
X0210789Y0097386D01*
X0209475Y0096842D01*
X0208469Y0095836D01*
X0208045Y0094811D01*
X0190672Y0094811D01*
X0182696Y0086835D01*
X0183255Y0087804D02*
X0183664Y0087804D01*
X0183793Y0088802D02*
X0184663Y0088802D01*
X0183969Y0089801D02*
X0185661Y0089801D01*
X0186660Y0090799D02*
X0184145Y0090799D01*
X0184321Y0091798D02*
X0187658Y0091798D01*
X0188657Y0092796D02*
X0184497Y0092796D01*
X0184327Y0093795D02*
X0189655Y0093795D01*
X0190654Y0094793D02*
X0184150Y0094793D01*
X0183974Y0095792D02*
X0187630Y0095792D01*
X0186632Y0096790D02*
X0183798Y0096790D01*
X0183272Y0097789D02*
X0185633Y0097789D01*
X0184635Y0098787D02*
X0182696Y0098787D01*
X0182119Y0099786D02*
X0183636Y0099786D01*
X0182638Y0100784D02*
X0181383Y0100784D01*
X0181639Y0101783D02*
X0180193Y0101783D01*
X0180641Y0102781D02*
X0179003Y0102781D01*
X0165997Y0102781D02*
X0163274Y0102781D01*
X0164807Y0101783D02*
X0138987Y0101783D01*
X0139000Y0101814D02*
X0139000Y0112808D01*
X0138619Y0113727D01*
X0137916Y0114430D01*
X0136997Y0114811D01*
X0128003Y0114811D01*
X0127084Y0114430D01*
X0126381Y0113727D01*
X0126000Y0112808D01*
X0126000Y0111814D01*
X0126000Y0102808D01*
X0126000Y0101814D01*
X0126381Y0100895D01*
X0127084Y0100192D01*
X0128003Y0099811D01*
X0136997Y0099811D01*
X0137916Y0100192D01*
X0138619Y0100895D01*
X0139000Y0101814D01*
X0139000Y0102781D02*
X0158726Y0102781D01*
X0157782Y0103780D02*
X0139000Y0103780D01*
X0139000Y0104778D02*
X0157369Y0104778D01*
X0157250Y0105777D02*
X0139000Y0105777D01*
X0139000Y0106775D02*
X0157340Y0106775D01*
X0157754Y0107774D02*
X0139000Y0107774D01*
X0139000Y0108772D02*
X0158658Y0108772D01*
X0160250Y0109771D02*
X0139000Y0109771D01*
X0139000Y0110769D02*
X0160338Y0110769D01*
X0160752Y0111768D02*
X0139000Y0111768D01*
X0139000Y0112766D02*
X0161652Y0112766D01*
X0163250Y0113765D02*
X0138582Y0113765D01*
X0137112Y0114763D02*
X0163336Y0114763D01*
X0163749Y0115762D02*
X0042500Y0115762D01*
X0042500Y0116760D02*
X0043515Y0116760D01*
X0043584Y0116692D02*
X0044503Y0116311D01*
X0045497Y0116311D01*
X0053503Y0116311D01*
X0054497Y0116311D01*
X0055416Y0116692D01*
X0056119Y0117395D01*
X0056500Y0118314D01*
X0056500Y0127308D01*
X0056119Y0128227D01*
X0055416Y0128930D01*
X0054497Y0129311D01*
X0044503Y0129311D01*
X0043584Y0128930D01*
X0042881Y0128227D01*
X0042500Y0127308D01*
X0042500Y0118314D01*
X0042881Y0117395D01*
X0043584Y0116692D01*
X0042500Y0117308D02*
X0042119Y0118227D01*
X0041416Y0118930D01*
X0040497Y0119311D01*
X0031804Y0119311D01*
X0030503Y0119311D01*
X0029584Y0118930D01*
X0028881Y0118227D01*
X0028500Y0117308D01*
X0028500Y0108314D01*
X0028881Y0107395D01*
X0029584Y0106692D01*
X0030503Y0106311D01*
X0040497Y0106311D01*
X0041416Y0106692D01*
X0042119Y0107395D01*
X0042500Y0108314D01*
X0042500Y0117308D01*
X0042313Y0117759D02*
X0042730Y0117759D01*
X0042500Y0118757D02*
X0041589Y0118757D01*
X0042500Y0119756D02*
X0019500Y0119756D01*
X0019500Y0120754D02*
X0042500Y0120754D01*
X0042500Y0121753D02*
X0019500Y0121753D01*
X0019500Y0122751D02*
X0042500Y0122751D01*
X0042500Y0123750D02*
X0019500Y0123750D01*
X0019500Y0124748D02*
X0042500Y0124748D01*
X0042500Y0125747D02*
X0019500Y0125747D01*
X0019500Y0126746D02*
X0029530Y0126746D01*
X0029584Y0126692D02*
X0030503Y0126311D01*
X0040497Y0126311D01*
X0041416Y0126692D01*
X0042119Y0127395D01*
X0042500Y0128314D01*
X0042500Y0137308D01*
X0042119Y0138227D01*
X0041416Y0138930D01*
X0040497Y0139311D01*
X0030503Y0139311D01*
X0029584Y0138930D01*
X0028881Y0138227D01*
X0028500Y0137308D01*
X0028500Y0129308D01*
X0028500Y0128314D01*
X0028881Y0127395D01*
X0029584Y0126692D01*
X0028736Y0127744D02*
X0019500Y0127744D01*
X0019500Y0128743D02*
X0028500Y0128743D01*
X0028500Y0129741D02*
X0019500Y0129741D01*
X0019500Y0130740D02*
X0028500Y0130740D01*
X0028500Y0131738D02*
X0019500Y0131738D01*
X0019500Y0132737D02*
X0028500Y0132737D01*
X0028500Y0133735D02*
X0019500Y0133735D01*
X0019500Y0134734D02*
X0028500Y0134734D01*
X0028500Y0135732D02*
X0019500Y0135732D01*
X0019500Y0136731D02*
X0028500Y0136731D01*
X0028674Y0137729D02*
X0019500Y0137729D01*
X0019500Y0138728D02*
X0029381Y0138728D01*
X0031000Y0136811D02*
X0040000Y0136811D01*
X0040000Y0128811D01*
X0031000Y0128811D01*
X0031000Y0136811D01*
X0031000Y0136731D02*
X0040000Y0136731D01*
X0040000Y0135732D02*
X0031000Y0135732D01*
X0031000Y0134734D02*
X0040000Y0134734D01*
X0040000Y0133735D02*
X0031000Y0133735D01*
X0031000Y0132737D02*
X0040000Y0132737D01*
X0040000Y0131738D02*
X0031000Y0131738D01*
X0031000Y0130740D02*
X0040000Y0130740D01*
X0040000Y0129741D02*
X0031000Y0129741D01*
X0041470Y0126746D02*
X0042500Y0126746D01*
X0042680Y0127744D02*
X0042264Y0127744D01*
X0042500Y0128743D02*
X0043396Y0128743D01*
X0042500Y0129741D02*
X0133681Y0129741D01*
X0134679Y0128743D02*
X0055604Y0128743D01*
X0056320Y0127744D02*
X0135678Y0127744D01*
X0136676Y0126746D02*
X0056500Y0126746D01*
X0056500Y0125747D02*
X0137675Y0125747D01*
X0138673Y0124748D02*
X0056500Y0124748D01*
X0056500Y0123750D02*
X0139672Y0123750D01*
X0140670Y0122751D02*
X0056500Y0122751D01*
X0056500Y0121753D02*
X0141669Y0121753D01*
X0142667Y0120754D02*
X0056500Y0120754D01*
X0056500Y0119756D02*
X0164166Y0119756D01*
X0165165Y0118757D02*
X0056500Y0118757D01*
X0056270Y0117759D02*
X0166163Y0117759D01*
X0164646Y0116760D02*
X0055485Y0116760D01*
X0054000Y0118811D02*
X0054000Y0126811D01*
X0045000Y0126811D01*
X0045000Y0118811D01*
X0054000Y0118811D01*
X0054000Y0119756D02*
X0045000Y0119756D01*
X0045000Y0120754D02*
X0054000Y0120754D01*
X0054000Y0121753D02*
X0045000Y0121753D01*
X0045000Y0122751D02*
X0054000Y0122751D01*
X0054000Y0123750D02*
X0045000Y0123750D01*
X0045000Y0124748D02*
X0054000Y0124748D01*
X0054000Y0125747D02*
X0045000Y0125747D01*
X0045000Y0126746D02*
X0054000Y0126746D01*
X0042500Y0130740D02*
X0132682Y0130740D01*
X0131684Y0131738D02*
X0042500Y0131738D01*
X0042500Y0132737D02*
X0130685Y0132737D01*
X0129969Y0133735D02*
X0042500Y0133735D01*
X0042500Y0134734D02*
X0129750Y0134734D01*
X0129750Y0135732D02*
X0042500Y0135732D01*
X0042500Y0136731D02*
X0043545Y0136731D01*
X0043584Y0136692D02*
X0044503Y0136311D01*
X0045497Y0136311D01*
X0053503Y0136311D01*
X0054497Y0136311D01*
X0055416Y0136692D01*
X0056119Y0137395D01*
X0056500Y0138314D01*
X0056500Y0147308D01*
X0056119Y0148227D01*
X0055416Y0148930D01*
X0054497Y0149311D01*
X0044503Y0149311D01*
X0043584Y0148930D01*
X0042881Y0148227D01*
X0042500Y0147308D01*
X0042500Y0138314D01*
X0042881Y0137395D01*
X0043584Y0136692D01*
X0042742Y0137729D02*
X0042326Y0137729D01*
X0042500Y0138728D02*
X0041619Y0138728D01*
X0042500Y0139726D02*
X0019500Y0139726D01*
X0019500Y0140725D02*
X0042500Y0140725D01*
X0042500Y0141723D02*
X0019500Y0141723D01*
X0019500Y0142722D02*
X0042500Y0142722D01*
X0042500Y0143720D02*
X0019500Y0143720D01*
X0019500Y0144719D02*
X0042500Y0144719D01*
X0042500Y0145717D02*
X0019500Y0145717D01*
X0019500Y0146716D02*
X0029560Y0146716D01*
X0029584Y0146692D02*
X0030503Y0146311D01*
X0031497Y0146311D01*
X0040497Y0146311D01*
X0041416Y0146692D01*
X0042119Y0147395D01*
X0042500Y0148314D01*
X0042500Y0157308D01*
X0042119Y0158227D01*
X0041416Y0158930D01*
X0040497Y0159311D01*
X0030503Y0159311D01*
X0029584Y0158930D01*
X0028881Y0158227D01*
X0028500Y0157308D01*
X0028500Y0148314D01*
X0028881Y0147395D01*
X0029584Y0146692D01*
X0028748Y0147714D02*
X0019500Y0147714D01*
X0019500Y0148713D02*
X0028500Y0148713D01*
X0028500Y0149711D02*
X0019500Y0149711D01*
X0019500Y0150710D02*
X0028500Y0150710D01*
X0028500Y0151708D02*
X0019500Y0151708D01*
X0019500Y0152707D02*
X0028500Y0152707D01*
X0028500Y0153705D02*
X0019500Y0153705D01*
X0019500Y0154704D02*
X0028500Y0154704D01*
X0028500Y0155702D02*
X0019500Y0155702D01*
X0019500Y0156701D02*
X0028500Y0156701D01*
X0028662Y0157699D02*
X0019500Y0157699D01*
X0019500Y0158698D02*
X0029351Y0158698D01*
X0031000Y0156811D02*
X0040000Y0156811D01*
X0040000Y0148811D01*
X0031000Y0148811D01*
X0031000Y0156811D01*
X0031000Y0156701D02*
X0040000Y0156701D01*
X0040000Y0155702D02*
X0031000Y0155702D01*
X0031000Y0154704D02*
X0040000Y0154704D01*
X0040000Y0153705D02*
X0031000Y0153705D01*
X0031000Y0152707D02*
X0040000Y0152707D01*
X0040000Y0151708D02*
X0031000Y0151708D01*
X0031000Y0150710D02*
X0040000Y0150710D01*
X0040000Y0149711D02*
X0031000Y0149711D01*
X0041440Y0146716D02*
X0042500Y0146716D01*
X0042668Y0147714D02*
X0042252Y0147714D01*
X0042500Y0148713D02*
X0043366Y0148713D01*
X0042500Y0149711D02*
X0124711Y0149711D01*
X0125709Y0148713D02*
X0055634Y0148713D01*
X0056332Y0147714D02*
X0126708Y0147714D01*
X0127706Y0146716D02*
X0056500Y0146716D01*
X0056500Y0145717D02*
X0128705Y0145717D01*
X0129703Y0144719D02*
X0056500Y0144719D01*
X0056500Y0143720D02*
X0129750Y0143720D01*
X0129750Y0142722D02*
X0056500Y0142722D01*
X0056500Y0141723D02*
X0129750Y0141723D01*
X0129750Y0140725D02*
X0056500Y0140725D01*
X0056500Y0139726D02*
X0129750Y0139726D01*
X0129750Y0138728D02*
X0056500Y0138728D01*
X0056258Y0137729D02*
X0129750Y0137729D01*
X0129750Y0136731D02*
X0055455Y0136731D01*
X0054000Y0138811D02*
X0054000Y0146811D01*
X0045000Y0146811D01*
X0045000Y0138811D01*
X0054000Y0138811D01*
X0054000Y0139726D02*
X0045000Y0139726D01*
X0045000Y0140725D02*
X0054000Y0140725D01*
X0054000Y0141723D02*
X0045000Y0141723D01*
X0045000Y0142722D02*
X0054000Y0142722D01*
X0054000Y0143720D02*
X0045000Y0143720D01*
X0045000Y0144719D02*
X0054000Y0144719D01*
X0054000Y0145717D02*
X0045000Y0145717D01*
X0045000Y0146716D02*
X0054000Y0146716D01*
X0042500Y0150710D02*
X0123712Y0150710D01*
X0122714Y0151708D02*
X0042500Y0151708D01*
X0042500Y0152707D02*
X0121715Y0152707D01*
X0120717Y0153705D02*
X0042500Y0153705D01*
X0042500Y0154704D02*
X0092718Y0154704D01*
X0091720Y0155702D02*
X0042500Y0155702D01*
X0042500Y0156701D02*
X0090721Y0156701D01*
X0089723Y0157699D02*
X0042338Y0157699D01*
X0041649Y0158698D02*
X0088724Y0158698D01*
X0086830Y0159696D02*
X0019500Y0159696D01*
X0019500Y0160695D02*
X0085260Y0160695D01*
X0084571Y0161693D02*
X0019500Y0161693D01*
X0019500Y0162692D02*
X0084213Y0162692D01*
X0083731Y0163690D02*
X0019500Y0163690D01*
X0019500Y0164689D02*
X0082733Y0164689D01*
X0081734Y0165687D02*
X0019500Y0165687D01*
X0019500Y0166686D02*
X0043597Y0166686D01*
X0043584Y0166692D02*
X0044503Y0166311D01*
X0054497Y0166311D01*
X0055416Y0166692D01*
X0056119Y0167395D01*
X0056500Y0168314D01*
X0056500Y0177308D01*
X0056119Y0178227D01*
X0055416Y0178930D01*
X0054497Y0179311D01*
X0046389Y0179311D01*
X0030750Y0194950D01*
X0030750Y0196311D01*
X0040497Y0196311D01*
X0041416Y0196692D01*
X0042119Y0197395D01*
X0042500Y0198314D01*
X0042500Y0207308D01*
X0042119Y0208227D01*
X0041416Y0208930D01*
X0040497Y0209311D01*
X0030750Y0209311D01*
X0030750Y0216311D01*
X0031497Y0216311D01*
X0031804Y0216311D01*
X0040497Y0216311D01*
X0041416Y0216692D01*
X0042119Y0217395D01*
X0042500Y0218314D01*
X0042500Y0227308D01*
X0042119Y0228227D01*
X0041416Y0228930D01*
X0040497Y0229311D01*
X0030750Y0229311D01*
X0030750Y0236311D01*
X0040497Y0236311D01*
X0041416Y0236692D01*
X0042119Y0237395D01*
X0042500Y0238314D01*
X0042500Y0247308D01*
X0042119Y0248227D01*
X0041416Y0248930D01*
X0040497Y0249311D01*
X0030856Y0249311D01*
X0031211Y0249666D01*
X0031787Y0251058D01*
X0031787Y0252564D01*
X0031211Y0253956D01*
X0030145Y0255022D01*
X0028753Y0255598D01*
X0027247Y0255598D01*
X0025855Y0255022D01*
X0024789Y0253956D01*
X0024213Y0252564D01*
X0024213Y0251058D01*
X0024789Y0249666D01*
X0025250Y0249205D01*
X0025250Y0193264D01*
X0025669Y0192253D01*
X0026442Y0191480D01*
X0042500Y0175422D01*
X0042500Y0168314D01*
X0042881Y0167395D01*
X0043584Y0166692D01*
X0042761Y0167684D02*
X0019500Y0167684D01*
X0019500Y0168683D02*
X0042500Y0168683D01*
X0042500Y0169682D02*
X0019500Y0169682D01*
X0019500Y0170680D02*
X0042500Y0170680D01*
X0042500Y0171679D02*
X0019500Y0171679D01*
X0019500Y0172677D02*
X0042500Y0172677D01*
X0042500Y0173676D02*
X0019500Y0173676D01*
X0019500Y0174674D02*
X0042500Y0174674D01*
X0042249Y0175673D02*
X0019500Y0175673D01*
X0019500Y0176671D02*
X0041251Y0176671D01*
X0040252Y0177670D02*
X0019500Y0177670D01*
X0019500Y0178668D02*
X0039254Y0178668D01*
X0038255Y0179667D02*
X0019500Y0179667D01*
X0019500Y0180665D02*
X0037257Y0180665D01*
X0036258Y0181664D02*
X0019500Y0181664D01*
X0019500Y0182662D02*
X0035260Y0182662D01*
X0034261Y0183661D02*
X0019500Y0183661D01*
X0019500Y0184659D02*
X0033263Y0184659D01*
X0032264Y0185658D02*
X0019500Y0185658D01*
X0019500Y0186656D02*
X0031266Y0186656D01*
X0030267Y0187655D02*
X0019500Y0187655D01*
X0019500Y0188653D02*
X0029269Y0188653D01*
X0028270Y0189652D02*
X0019500Y0189652D01*
X0019500Y0190650D02*
X0027272Y0190650D01*
X0026273Y0191649D02*
X0019500Y0191649D01*
X0019500Y0192647D02*
X0025505Y0192647D01*
X0025250Y0193646D02*
X0019500Y0193646D01*
X0019500Y0194644D02*
X0025250Y0194644D01*
X0025250Y0195643D02*
X0019500Y0195643D01*
X0019500Y0196641D02*
X0025250Y0196641D01*
X0025250Y0197640D02*
X0019500Y0197640D01*
X0019500Y0198638D02*
X0025250Y0198638D01*
X0025250Y0199637D02*
X0019500Y0199637D01*
X0019500Y0200635D02*
X0025250Y0200635D01*
X0025250Y0201634D02*
X0019500Y0201634D01*
X0019500Y0202632D02*
X0025250Y0202632D01*
X0025250Y0203631D02*
X0019500Y0203631D01*
X0019500Y0204629D02*
X0025250Y0204629D01*
X0025250Y0205628D02*
X0019500Y0205628D01*
X0019500Y0206626D02*
X0025250Y0206626D01*
X0025250Y0207625D02*
X0019500Y0207625D01*
X0019500Y0208623D02*
X0025250Y0208623D01*
X0025250Y0209622D02*
X0019500Y0209622D01*
X0019500Y0210620D02*
X0025250Y0210620D01*
X0025250Y0211619D02*
X0019500Y0211619D01*
X0019500Y0212617D02*
X0025250Y0212617D01*
X0025250Y0213616D02*
X0019500Y0213616D01*
X0019500Y0214615D02*
X0025250Y0214615D01*
X0025250Y0215613D02*
X0019500Y0215613D01*
X0019500Y0216612D02*
X0025250Y0216612D01*
X0025250Y0217610D02*
X0019500Y0217610D01*
X0019500Y0218609D02*
X0025250Y0218609D01*
X0025250Y0219607D02*
X0019500Y0219607D01*
X0019500Y0220606D02*
X0025250Y0220606D01*
X0025250Y0221604D02*
X0019500Y0221604D01*
X0019500Y0222603D02*
X0025250Y0222603D01*
X0025250Y0223601D02*
X0019500Y0223601D01*
X0019500Y0224600D02*
X0025250Y0224600D01*
X0025250Y0225598D02*
X0019500Y0225598D01*
X0019500Y0226597D02*
X0025250Y0226597D01*
X0025250Y0227595D02*
X0019500Y0227595D01*
X0019500Y0228594D02*
X0025250Y0228594D01*
X0025250Y0229592D02*
X0019500Y0229592D01*
X0019500Y0230591D02*
X0025250Y0230591D01*
X0025250Y0231589D02*
X0019500Y0231589D01*
X0019500Y0232588D02*
X0025250Y0232588D01*
X0025250Y0233586D02*
X0019500Y0233586D01*
X0019500Y0234585D02*
X0025250Y0234585D01*
X0025250Y0235583D02*
X0019500Y0235583D01*
X0019500Y0236582D02*
X0025250Y0236582D01*
X0025250Y0237580D02*
X0019500Y0237580D01*
X0019500Y0238579D02*
X0025250Y0238579D01*
X0025250Y0239577D02*
X0019500Y0239577D01*
X0019500Y0240576D02*
X0025250Y0240576D01*
X0025250Y0241574D02*
X0019500Y0241574D01*
X0019500Y0242573D02*
X0025250Y0242573D01*
X0025250Y0243571D02*
X0019500Y0243571D01*
X0019500Y0244570D02*
X0025250Y0244570D01*
X0025250Y0245568D02*
X0019500Y0245568D01*
X0019500Y0246567D02*
X0025250Y0246567D01*
X0025250Y0247565D02*
X0019500Y0247565D01*
X0019500Y0248564D02*
X0025250Y0248564D01*
X0024892Y0249562D02*
X0019500Y0249562D01*
X0019500Y0250561D02*
X0024418Y0250561D01*
X0024213Y0251559D02*
X0019500Y0251559D01*
X0019500Y0252558D02*
X0024213Y0252558D01*
X0024624Y0253556D02*
X0019500Y0253556D01*
X0019500Y0254555D02*
X0025388Y0254555D01*
X0027138Y0255553D02*
X0019500Y0255553D01*
X0019500Y0256552D02*
X0083870Y0256552D01*
X0084868Y0255553D02*
X0028862Y0255553D01*
X0030612Y0254555D02*
X0085867Y0254555D01*
X0086865Y0253556D02*
X0031376Y0253556D01*
X0031787Y0252558D02*
X0087864Y0252558D01*
X0088862Y0251559D02*
X0031787Y0251559D01*
X0031582Y0250561D02*
X0089213Y0250561D01*
X0089213Y0250558D02*
X0089789Y0249166D01*
X0089894Y0249061D01*
X0089789Y0248956D01*
X0089213Y0247564D01*
X0089213Y0246058D01*
X0089789Y0244666D01*
X0090855Y0243600D01*
X0092247Y0243024D01*
X0093753Y0243024D01*
X0095145Y0243600D01*
X0096211Y0244666D01*
X0096787Y0246058D01*
X0096787Y0247564D01*
X0096211Y0248956D01*
X0096106Y0249061D01*
X0096211Y0249166D01*
X0096787Y0250558D01*
X0096787Y0252064D01*
X0096211Y0253456D01*
X0095145Y0254522D01*
X0093753Y0255098D01*
X0093102Y0255098D01*
X0064558Y0283642D01*
X0063547Y0284061D01*
X0057606Y0284061D01*
X0057145Y0284522D01*
X0055753Y0285098D01*
X0054247Y0285098D01*
X0053000Y0284582D01*
X0051753Y0285098D01*
X0050247Y0285098D01*
X0048855Y0284522D01*
X0047789Y0283456D01*
X0047213Y0282064D01*
X0047213Y0280558D01*
X0047789Y0279166D01*
X0048855Y0278100D01*
X0050247Y0277524D01*
X0051753Y0277524D01*
X0053000Y0278040D01*
X0054247Y0277524D01*
X0055753Y0277524D01*
X0057145Y0278100D01*
X0057606Y0278561D01*
X0061861Y0278561D01*
X0089213Y0251209D01*
X0089213Y0250558D01*
X0089625Y0249562D02*
X0031108Y0249562D01*
X0031000Y0246811D02*
X0040000Y0246811D01*
X0040000Y0238811D01*
X0031000Y0238811D01*
X0031000Y0246811D01*
X0031000Y0246567D02*
X0040000Y0246567D01*
X0040000Y0245568D02*
X0031000Y0245568D01*
X0031000Y0244570D02*
X0040000Y0244570D01*
X0040000Y0243571D02*
X0031000Y0243571D01*
X0031000Y0242573D02*
X0040000Y0242573D01*
X0040000Y0241574D02*
X0031000Y0241574D01*
X0031000Y0240576D02*
X0040000Y0240576D01*
X0040000Y0239577D02*
X0031000Y0239577D01*
X0030750Y0235583D02*
X0042500Y0235583D01*
X0042500Y0234585D02*
X0030750Y0234585D01*
X0030750Y0233586D02*
X0042500Y0233586D01*
X0042500Y0232588D02*
X0030750Y0232588D01*
X0030750Y0231589D02*
X0042500Y0231589D01*
X0042500Y0230591D02*
X0030750Y0230591D01*
X0030750Y0229592D02*
X0042500Y0229592D01*
X0042500Y0228594D02*
X0041753Y0228594D01*
X0042381Y0227595D02*
X0042798Y0227595D01*
X0042500Y0226597D02*
X0043813Y0226597D01*
X0042500Y0225598D02*
X0053324Y0225598D01*
X0054322Y0224600D02*
X0042500Y0224600D01*
X0042500Y0223601D02*
X0054750Y0223601D01*
X0054750Y0222603D02*
X0042500Y0222603D01*
X0042500Y0221604D02*
X0054750Y0221604D01*
X0054750Y0220606D02*
X0042500Y0220606D01*
X0042500Y0219607D02*
X0054750Y0219607D01*
X0054000Y0216811D02*
X0054000Y0208811D01*
X0045000Y0208811D01*
X0045000Y0216811D01*
X0054000Y0216811D01*
X0054000Y0216612D02*
X0045000Y0216612D01*
X0045000Y0215613D02*
X0054000Y0215613D01*
X0054000Y0214615D02*
X0045000Y0214615D01*
X0045000Y0213616D02*
X0054000Y0213616D01*
X0054000Y0212617D02*
X0045000Y0212617D01*
X0045000Y0211619D02*
X0054000Y0211619D01*
X0054000Y0210620D02*
X0045000Y0210620D01*
X0045000Y0209622D02*
X0054000Y0209622D01*
X0050961Y0205628D02*
X0042500Y0205628D01*
X0042500Y0206626D02*
X0043741Y0206626D01*
X0042785Y0207625D02*
X0042369Y0207625D01*
X0042500Y0208623D02*
X0041723Y0208623D01*
X0042500Y0209622D02*
X0030750Y0209622D01*
X0030750Y0210620D02*
X0042500Y0210620D01*
X0042500Y0211619D02*
X0030750Y0211619D01*
X0030750Y0212617D02*
X0042500Y0212617D01*
X0042500Y0213616D02*
X0030750Y0213616D01*
X0030750Y0214615D02*
X0042500Y0214615D01*
X0042500Y0215613D02*
X0030750Y0215613D01*
X0031000Y0218811D02*
X0031000Y0226811D01*
X0040000Y0226811D01*
X0040000Y0218811D01*
X0031000Y0218811D01*
X0031000Y0219607D02*
X0040000Y0219607D01*
X0040000Y0220606D02*
X0031000Y0220606D01*
X0031000Y0221604D02*
X0040000Y0221604D01*
X0040000Y0222603D02*
X0031000Y0222603D01*
X0031000Y0223601D02*
X0040000Y0223601D01*
X0040000Y0224600D02*
X0031000Y0224600D01*
X0031000Y0225598D02*
X0040000Y0225598D01*
X0040000Y0226597D02*
X0031000Y0226597D01*
X0042500Y0218609D02*
X0043262Y0218609D01*
X0042625Y0217610D02*
X0042209Y0217610D01*
X0042500Y0216612D02*
X0041223Y0216612D01*
X0040000Y0206811D02*
X0031000Y0206811D01*
X0031000Y0198811D01*
X0040000Y0198811D01*
X0040000Y0206811D01*
X0040000Y0206626D02*
X0031000Y0206626D01*
X0031000Y0205628D02*
X0040000Y0205628D01*
X0040000Y0204629D02*
X0031000Y0204629D01*
X0031000Y0203631D02*
X0040000Y0203631D01*
X0040000Y0202632D02*
X0031000Y0202632D01*
X0031000Y0201634D02*
X0040000Y0201634D01*
X0040000Y0200635D02*
X0031000Y0200635D01*
X0031000Y0199637D02*
X0040000Y0199637D01*
X0042500Y0199637D02*
X0051318Y0199637D01*
X0050319Y0200635D02*
X0042500Y0200635D01*
X0042500Y0201634D02*
X0049888Y0201634D01*
X0049713Y0202632D02*
X0042500Y0202632D01*
X0042500Y0203631D02*
X0049740Y0203631D01*
X0050154Y0204629D02*
X0042500Y0204629D01*
X0042500Y0198638D02*
X0053784Y0198638D01*
X0054782Y0197640D02*
X0042221Y0197640D01*
X0041295Y0196641D02*
X0055781Y0196641D01*
X0056779Y0195643D02*
X0030750Y0195643D01*
X0031056Y0194644D02*
X0057778Y0194644D01*
X0058750Y0193646D02*
X0032054Y0193646D01*
X0033053Y0192647D02*
X0058750Y0192647D01*
X0058750Y0191649D02*
X0034051Y0191649D01*
X0035050Y0190650D02*
X0058750Y0190650D01*
X0058750Y0189652D02*
X0036048Y0189652D01*
X0037047Y0188653D02*
X0058750Y0188653D01*
X0058750Y0187655D02*
X0038045Y0187655D01*
X0039044Y0186656D02*
X0059002Y0186656D01*
X0059764Y0185658D02*
X0040042Y0185658D01*
X0041041Y0184659D02*
X0060763Y0184659D01*
X0061761Y0183661D02*
X0042039Y0183661D01*
X0043038Y0182662D02*
X0062760Y0182662D01*
X0063758Y0181664D02*
X0044036Y0181664D01*
X0045035Y0180665D02*
X0064757Y0180665D01*
X0065755Y0179667D02*
X0046033Y0179667D01*
X0045000Y0176811D02*
X0054000Y0176811D01*
X0054000Y0168811D01*
X0045000Y0168811D01*
X0045000Y0176811D01*
X0045000Y0176671D02*
X0054000Y0176671D01*
X0054000Y0175673D02*
X0045000Y0175673D01*
X0045000Y0174674D02*
X0054000Y0174674D01*
X0054000Y0173676D02*
X0045000Y0173676D01*
X0045000Y0172677D02*
X0054000Y0172677D01*
X0054000Y0171679D02*
X0045000Y0171679D01*
X0045000Y0170680D02*
X0054000Y0170680D01*
X0054000Y0169682D02*
X0045000Y0169682D01*
X0055402Y0166686D02*
X0080736Y0166686D01*
X0079737Y0167684D02*
X0056239Y0167684D01*
X0056500Y0168683D02*
X0077159Y0168683D01*
X0075740Y0169682D02*
X0056500Y0169682D01*
X0056500Y0170680D02*
X0074742Y0170680D01*
X0073743Y0171679D02*
X0056500Y0171679D01*
X0056500Y0172677D02*
X0072745Y0172677D01*
X0071746Y0173676D02*
X0056500Y0173676D01*
X0056500Y0174674D02*
X0070748Y0174674D01*
X0069749Y0175673D02*
X0056500Y0175673D01*
X0056500Y0176671D02*
X0068751Y0176671D01*
X0067752Y0177670D02*
X0056350Y0177670D01*
X0055678Y0178668D02*
X0066754Y0178668D01*
X0099250Y0184950D02*
X0099250Y0186760D01*
X0099289Y0186666D01*
X0100355Y0185600D01*
X0101747Y0185024D01*
X0103253Y0185024D01*
X0104645Y0185600D01*
X0105711Y0186666D01*
X0106287Y0188058D01*
X0106287Y0189024D01*
X0106713Y0189024D01*
X0106713Y0188558D01*
X0107289Y0187166D01*
X0108355Y0186100D01*
X0109747Y0185524D01*
X0111253Y0185524D01*
X0112645Y0186100D01*
X0113711Y0187166D01*
X0114287Y0188558D01*
X0114287Y0189209D01*
X0136058Y0210980D01*
X0136750Y0211672D01*
X0136750Y0175264D01*
X0137169Y0174253D01*
X0140028Y0171394D01*
X0140321Y0170687D01*
X0141376Y0169632D01*
X0142754Y0169061D01*
X0144246Y0169061D01*
X0145296Y0169496D01*
X0142083Y0166283D01*
X0141376Y0165990D01*
X0140321Y0164935D01*
X0140158Y0164542D01*
X0130558Y0174142D01*
X0129547Y0174561D01*
X0109639Y0174561D01*
X0099250Y0184950D01*
X0099541Y0184659D02*
X0136750Y0184659D01*
X0136750Y0183661D02*
X0100539Y0183661D01*
X0101538Y0182662D02*
X0136750Y0182662D01*
X0136750Y0181664D02*
X0102536Y0181664D01*
X0103535Y0180665D02*
X0136750Y0180665D01*
X0136750Y0179667D02*
X0104533Y0179667D01*
X0105532Y0178668D02*
X0136750Y0178668D01*
X0136750Y0177670D02*
X0106530Y0177670D01*
X0107529Y0176671D02*
X0136750Y0176671D01*
X0136750Y0175673D02*
X0108528Y0175673D01*
X0109526Y0174674D02*
X0136994Y0174674D01*
X0137746Y0173676D02*
X0131025Y0173676D01*
X0132023Y0172677D02*
X0138745Y0172677D01*
X0139743Y0171679D02*
X0133022Y0171679D01*
X0134020Y0170680D02*
X0140328Y0170680D01*
X0141326Y0169682D02*
X0135019Y0169682D01*
X0136017Y0168683D02*
X0144483Y0168683D01*
X0143484Y0167684D02*
X0137016Y0167684D01*
X0138014Y0166686D02*
X0142486Y0166686D01*
X0141073Y0165687D02*
X0139013Y0165687D01*
X0140011Y0164689D02*
X0140219Y0164689D01*
X0136750Y0185658D02*
X0111577Y0185658D01*
X0113201Y0186656D02*
X0136750Y0186656D01*
X0136750Y0187655D02*
X0113913Y0187655D01*
X0114287Y0188653D02*
X0136750Y0188653D01*
X0136750Y0189652D02*
X0114730Y0189652D01*
X0115728Y0190650D02*
X0136750Y0190650D01*
X0136750Y0191649D02*
X0116727Y0191649D01*
X0117725Y0192647D02*
X0136750Y0192647D01*
X0136750Y0193646D02*
X0118724Y0193646D01*
X0119722Y0194644D02*
X0136750Y0194644D01*
X0136750Y0195643D02*
X0120721Y0195643D01*
X0121719Y0196641D02*
X0136750Y0196641D01*
X0136750Y0197640D02*
X0122718Y0197640D01*
X0123716Y0198638D02*
X0136750Y0198638D01*
X0136750Y0199637D02*
X0124715Y0199637D01*
X0125713Y0200635D02*
X0136750Y0200635D01*
X0136750Y0201634D02*
X0126712Y0201634D01*
X0127710Y0202632D02*
X0136750Y0202632D01*
X0136750Y0203631D02*
X0128709Y0203631D01*
X0129707Y0204629D02*
X0136750Y0204629D01*
X0136750Y0205628D02*
X0130706Y0205628D01*
X0131704Y0206626D02*
X0136750Y0206626D01*
X0136750Y0207625D02*
X0132703Y0207625D01*
X0133701Y0208623D02*
X0136750Y0208623D01*
X0136750Y0209622D02*
X0134700Y0209622D01*
X0135699Y0210620D02*
X0136750Y0210620D01*
X0136058Y0210980D02*
X0136058Y0210980D01*
X0136697Y0211619D02*
X0136750Y0211619D01*
X0124750Y0216612D02*
X0092089Y0216612D01*
X0091090Y0217610D02*
X0124750Y0217610D01*
X0124750Y0218609D02*
X0090092Y0218609D01*
X0093087Y0215613D02*
X0123913Y0215613D01*
X0122914Y0214615D02*
X0094086Y0214615D01*
X0095084Y0213616D02*
X0121916Y0213616D01*
X0120917Y0212617D02*
X0096083Y0212617D01*
X0097081Y0211619D02*
X0119919Y0211619D01*
X0118920Y0210620D02*
X0098080Y0210620D01*
X0099078Y0209622D02*
X0117922Y0209622D01*
X0116923Y0208623D02*
X0100077Y0208623D01*
X0124750Y0219607D02*
X0067250Y0219607D01*
X0067250Y0218609D02*
X0070908Y0218609D01*
X0069910Y0217610D02*
X0067250Y0217610D01*
X0067250Y0216612D02*
X0068911Y0216612D01*
X0067913Y0215613D02*
X0067250Y0215613D01*
X0067250Y0220606D02*
X0124750Y0220606D01*
X0124750Y0221604D02*
X0067250Y0221604D01*
X0067250Y0222603D02*
X0124750Y0222603D01*
X0124750Y0223601D02*
X0067250Y0223601D01*
X0067250Y0224600D02*
X0124750Y0224600D01*
X0124750Y0225598D02*
X0067250Y0225598D01*
X0067250Y0226597D02*
X0124750Y0226597D01*
X0124750Y0227595D02*
X0066945Y0227595D01*
X0066106Y0228594D02*
X0124750Y0228594D01*
X0124750Y0229592D02*
X0065108Y0229592D01*
X0064109Y0230591D02*
X0124846Y0230591D01*
X0125389Y0231589D02*
X0063111Y0231589D01*
X0062112Y0232588D02*
X0126388Y0232588D01*
X0127386Y0233586D02*
X0061778Y0233586D01*
X0061365Y0234585D02*
X0128385Y0234585D01*
X0129383Y0235583D02*
X0060584Y0235583D01*
X0058794Y0236582D02*
X0130382Y0236582D01*
X0131133Y0237580D02*
X0056387Y0237580D01*
X0056500Y0236582D02*
X0057206Y0236582D01*
X0055768Y0238579D02*
X0131912Y0238579D01*
X0132345Y0239577D02*
X0042500Y0239577D01*
X0042500Y0238579D02*
X0043232Y0238579D01*
X0042613Y0237580D02*
X0042196Y0237580D01*
X0042500Y0236582D02*
X0041151Y0236582D01*
X0045000Y0236582D02*
X0054000Y0236582D01*
X0054000Y0236811D02*
X0054000Y0228811D01*
X0045000Y0228811D01*
X0045000Y0236811D01*
X0054000Y0236811D01*
X0054000Y0235583D02*
X0045000Y0235583D01*
X0045000Y0234585D02*
X0054000Y0234585D01*
X0054000Y0233586D02*
X0045000Y0233586D01*
X0045000Y0232588D02*
X0054000Y0232588D01*
X0054000Y0231589D02*
X0045000Y0231589D01*
X0045000Y0230591D02*
X0054000Y0230591D01*
X0054000Y0229592D02*
X0045000Y0229592D01*
X0042500Y0240576D02*
X0131346Y0240576D01*
X0130348Y0241574D02*
X0042500Y0241574D01*
X0042500Y0242573D02*
X0129349Y0242573D01*
X0133133Y0246567D02*
X0168473Y0246567D01*
X0169471Y0245568D02*
X0151046Y0245568D01*
X0145954Y0245568D02*
X0134132Y0245568D01*
X0135130Y0244570D02*
X0145170Y0244570D01*
X0144756Y0243571D02*
X0136129Y0243571D01*
X0137127Y0242573D02*
X0144750Y0242573D01*
X0144953Y0241574D02*
X0138126Y0241574D01*
X0139124Y0240576D02*
X0145432Y0240576D01*
X0145173Y0239577D02*
X0140123Y0239577D01*
X0141121Y0238579D02*
X0144759Y0238579D01*
X0144750Y0237580D02*
X0141951Y0237580D01*
X0142250Y0236582D02*
X0144950Y0236582D01*
X0145424Y0235583D02*
X0142250Y0235583D01*
X0142250Y0234585D02*
X0146490Y0234585D01*
X0148888Y0232588D02*
X0142250Y0232588D01*
X0142250Y0233586D02*
X0149886Y0233586D01*
X0150510Y0234585D02*
X0150885Y0234585D01*
X0147889Y0231589D02*
X0142250Y0231589D01*
X0142250Y0230591D02*
X0146891Y0230591D01*
X0145892Y0229592D02*
X0142250Y0229592D01*
X0142250Y0228594D02*
X0144894Y0228594D01*
X0143895Y0227595D02*
X0142250Y0227595D01*
X0142250Y0226597D02*
X0142897Y0226597D01*
X0165630Y0244570D02*
X0177370Y0244570D01*
X0176371Y0243571D02*
X0166629Y0243571D01*
X0167627Y0242573D02*
X0175373Y0242573D01*
X0167474Y0247565D02*
X0132135Y0247565D01*
X0131136Y0248564D02*
X0166476Y0248564D01*
X0165477Y0249562D02*
X0117638Y0249562D01*
X0116639Y0250561D02*
X0164479Y0250561D01*
X0163480Y0251559D02*
X0115641Y0251559D01*
X0114642Y0252558D02*
X0162482Y0252558D01*
X0161483Y0253556D02*
X0113644Y0253556D01*
X0112645Y0254555D02*
X0160485Y0254555D01*
X0159486Y0255553D02*
X0111647Y0255553D01*
X0110648Y0256552D02*
X0158887Y0256552D01*
X0158750Y0257551D02*
X0109650Y0257551D01*
X0108651Y0258549D02*
X0158750Y0258549D01*
X0158750Y0259548D02*
X0107653Y0259548D01*
X0106654Y0260546D02*
X0158750Y0260546D01*
X0158750Y0261545D02*
X0105656Y0261545D01*
X0104657Y0262543D02*
X0158750Y0262543D01*
X0158750Y0263542D02*
X0103659Y0263542D01*
X0102660Y0264540D02*
X0158750Y0264540D01*
X0159032Y0265539D02*
X0101661Y0265539D01*
X0100663Y0266537D02*
X0159837Y0266537D01*
X0160836Y0267536D02*
X0099664Y0267536D01*
X0098666Y0268534D02*
X0161834Y0268534D01*
X0162833Y0269533D02*
X0097667Y0269533D01*
X0096669Y0270531D02*
X0110623Y0270531D01*
X0109624Y0271530D02*
X0095670Y0271530D01*
X0094672Y0272528D02*
X0109202Y0272528D01*
X0109000Y0273527D02*
X0093673Y0273527D01*
X0092675Y0274525D02*
X0109000Y0274525D01*
X0109380Y0275524D02*
X0091676Y0275524D01*
X0090678Y0276522D02*
X0110054Y0276522D01*
X0111504Y0277521D02*
X0089679Y0277521D01*
X0088681Y0278519D02*
X0174250Y0278519D01*
X0174268Y0277521D02*
X0114496Y0277521D01*
X0115377Y0270531D02*
X0163831Y0270531D01*
X0172287Y0266537D02*
X0232500Y0266537D01*
X0232500Y0265539D02*
X0172287Y0265539D01*
X0172073Y0264540D02*
X0232500Y0264540D01*
X0232500Y0263542D02*
X0171587Y0263542D01*
X0171882Y0262543D02*
X0232819Y0262543D01*
X0232881Y0262395D02*
X0233584Y0261692D01*
X0234503Y0261311D01*
X0244497Y0261311D01*
X0245416Y0261692D01*
X0246119Y0262395D01*
X0246500Y0263314D01*
X0246500Y0264308D01*
X0246500Y0272308D01*
X0246119Y0273227D01*
X0245416Y0273930D01*
X0244497Y0274311D01*
X0234503Y0274311D01*
X0233584Y0273930D01*
X0232881Y0273227D01*
X0232500Y0272308D01*
X0232500Y0263314D01*
X0232881Y0262395D01*
X0233939Y0261545D02*
X0172287Y0261545D01*
X0172654Y0260546D02*
X0257500Y0260546D01*
X0257500Y0259548D02*
X0173653Y0259548D01*
X0174651Y0258549D02*
X0257500Y0258549D01*
X0257500Y0257551D02*
X0175650Y0257551D01*
X0185614Y0267536D02*
X0232500Y0267536D01*
X0232500Y0268534D02*
X0186612Y0268534D01*
X0187611Y0269533D02*
X0232500Y0269533D01*
X0232500Y0270531D02*
X0188609Y0270531D01*
X0189608Y0271530D02*
X0219975Y0271530D01*
X0219584Y0271692D02*
X0220503Y0271311D01*
X0230497Y0271311D01*
X0231416Y0271692D01*
X0232119Y0272395D01*
X0232500Y0273314D01*
X0232500Y0280993D01*
X0234584Y0280993D01*
X0238500Y0282419D01*
X0241693Y0285098D01*
X0243776Y0288707D01*
X0244500Y0292811D01*
X0243776Y0296915D01*
X0241693Y0300524D01*
X0238500Y0303203D01*
X0234584Y0304629D01*
X0230416Y0304629D01*
X0226500Y0303203D01*
X0223307Y0300524D01*
X0221224Y0296915D01*
X0220500Y0292811D01*
X0221224Y0288707D01*
X0223307Y0285098D01*
X0224245Y0284311D01*
X0220503Y0284311D01*
X0219584Y0283930D01*
X0218881Y0283227D01*
X0218500Y0282308D01*
X0218500Y0273314D01*
X0218881Y0272395D01*
X0219584Y0271692D01*
X0218825Y0272528D02*
X0190606Y0272528D01*
X0191605Y0273527D02*
X0218500Y0273527D01*
X0218500Y0274525D02*
X0192603Y0274525D01*
X0193602Y0275524D02*
X0218500Y0275524D01*
X0218500Y0276522D02*
X0194600Y0276522D01*
X0195442Y0277521D02*
X0218500Y0277521D01*
X0218500Y0278519D02*
X0195750Y0278519D01*
X0195750Y0279518D02*
X0218500Y0279518D01*
X0218500Y0280516D02*
X0195750Y0280516D01*
X0195750Y0281515D02*
X0218500Y0281515D01*
X0218585Y0282513D02*
X0195750Y0282513D01*
X0195750Y0283512D02*
X0219165Y0283512D01*
X0221000Y0281811D02*
X0230000Y0281811D01*
X0230000Y0273811D01*
X0221000Y0273811D01*
X0221000Y0281811D01*
X0221000Y0281515D02*
X0230000Y0281515D01*
X0230000Y0280516D02*
X0221000Y0280516D01*
X0221000Y0279518D02*
X0230000Y0279518D01*
X0230000Y0278519D02*
X0221000Y0278519D01*
X0221000Y0277521D02*
X0230000Y0277521D01*
X0230000Y0276522D02*
X0221000Y0276522D01*
X0221000Y0275524D02*
X0230000Y0275524D01*
X0230000Y0274525D02*
X0221000Y0274525D01*
X0231025Y0271530D02*
X0232500Y0271530D01*
X0232591Y0272528D02*
X0232175Y0272528D01*
X0232500Y0273527D02*
X0233180Y0273527D01*
X0232500Y0274525D02*
X0257500Y0274525D01*
X0257500Y0273527D02*
X0245820Y0273527D01*
X0246409Y0272528D02*
X0257500Y0272528D01*
X0257500Y0271530D02*
X0246500Y0271530D01*
X0246500Y0270531D02*
X0257500Y0270531D01*
X0257500Y0269533D02*
X0246500Y0269533D01*
X0246500Y0268534D02*
X0257500Y0268534D01*
X0257500Y0267536D02*
X0246500Y0267536D01*
X0246500Y0266537D02*
X0257500Y0266537D01*
X0257500Y0265539D02*
X0246500Y0265539D01*
X0246500Y0264540D02*
X0257500Y0264540D01*
X0257500Y0263542D02*
X0246500Y0263542D01*
X0246181Y0262543D02*
X0257500Y0262543D01*
X0257500Y0261545D02*
X0245061Y0261545D01*
X0244000Y0263811D02*
X0235000Y0263811D01*
X0235000Y0271811D01*
X0244000Y0271811D01*
X0244000Y0263811D01*
X0244000Y0264540D02*
X0235000Y0264540D01*
X0235000Y0265539D02*
X0244000Y0265539D01*
X0244000Y0266537D02*
X0235000Y0266537D01*
X0235000Y0267536D02*
X0244000Y0267536D01*
X0244000Y0268534D02*
X0235000Y0268534D01*
X0235000Y0269533D02*
X0244000Y0269533D01*
X0244000Y0270531D02*
X0235000Y0270531D01*
X0235000Y0271530D02*
X0244000Y0271530D01*
X0232500Y0275524D02*
X0257500Y0275524D01*
X0257500Y0276522D02*
X0232500Y0276522D01*
X0232500Y0277521D02*
X0257500Y0277521D01*
X0257500Y0278519D02*
X0232500Y0278519D01*
X0232500Y0279518D02*
X0257500Y0279518D01*
X0257500Y0280516D02*
X0232500Y0280516D01*
X0236016Y0281515D02*
X0257500Y0281515D01*
X0257500Y0282513D02*
X0238613Y0282513D01*
X0239803Y0283512D02*
X0257500Y0283512D01*
X0257500Y0284510D02*
X0240993Y0284510D01*
X0241930Y0285509D02*
X0257500Y0285509D01*
X0257500Y0286507D02*
X0242506Y0286507D01*
X0243083Y0287506D02*
X0257500Y0287506D01*
X0257500Y0288504D02*
X0243659Y0288504D01*
X0243917Y0289503D02*
X0257500Y0289503D01*
X0257500Y0290501D02*
X0244093Y0290501D01*
X0244269Y0291500D02*
X0257500Y0291500D01*
X0257500Y0292498D02*
X0244445Y0292498D01*
X0244379Y0293497D02*
X0257500Y0293497D01*
X0257500Y0294495D02*
X0244203Y0294495D01*
X0244027Y0295494D02*
X0257167Y0295494D01*
X0255763Y0296492D02*
X0243851Y0296492D01*
X0243444Y0297491D02*
X0255177Y0297491D01*
X0254925Y0298489D02*
X0242867Y0298489D01*
X0242291Y0299488D02*
X0254925Y0299488D01*
X0255325Y0300486D02*
X0241714Y0300486D01*
X0240548Y0301485D02*
X0255500Y0301485D01*
X0255500Y0302484D02*
X0239358Y0302484D01*
X0237734Y0303482D02*
X0255500Y0303482D01*
X0255182Y0304481D02*
X0234991Y0304481D01*
X0230009Y0304481D02*
X0201559Y0304481D01*
X0202557Y0305479D02*
X0254925Y0305479D01*
X0254925Y0306478D02*
X0204849Y0306478D01*
X0206021Y0307476D02*
X0255320Y0307476D01*
X0255500Y0308475D02*
X0206546Y0308475D01*
X0206787Y0309473D02*
X0255500Y0309473D01*
X0255500Y0310472D02*
X0206787Y0310472D01*
X0206412Y0311470D02*
X0255186Y0311470D01*
X0254925Y0312469D02*
X0205699Y0312469D01*
X0205959Y0313467D02*
X0254925Y0313467D01*
X0255316Y0314466D02*
X0206502Y0314466D01*
X0206750Y0315464D02*
X0255500Y0315464D01*
X0255500Y0316463D02*
X0206750Y0316463D01*
X0206375Y0317461D02*
X0255500Y0317461D01*
X0255190Y0318460D02*
X0205655Y0318460D01*
X0203994Y0319458D02*
X0254925Y0319458D01*
X0254925Y0320457D02*
X0202243Y0320457D01*
X0201245Y0321455D02*
X0255312Y0321455D01*
X0255500Y0322454D02*
X0200246Y0322454D01*
X0199248Y0323452D02*
X0255500Y0323452D01*
X0255500Y0324451D02*
X0198249Y0324451D01*
X0197251Y0325449D02*
X0255195Y0325449D01*
X0254925Y0326448D02*
X0195820Y0326448D01*
X0195090Y0328069D02*
X0196454Y0329434D01*
X0197193Y0331216D01*
X0197193Y0333146D01*
X0196454Y0334928D01*
X0195090Y0336293D01*
X0193307Y0337031D01*
X0191378Y0337031D01*
X0189595Y0336293D01*
X0188231Y0334928D01*
X0187493Y0333146D01*
X0187493Y0331216D01*
X0188231Y0329434D01*
X0189595Y0328069D01*
X0191378Y0327331D01*
X0193307Y0327331D01*
X0195090Y0328069D01*
X0195465Y0328445D02*
X0255307Y0328445D01*
X0254925Y0327446D02*
X0193585Y0327446D01*
X0191100Y0327446D02*
X0173900Y0327446D01*
X0173622Y0327331D02*
X0175405Y0328069D01*
X0176769Y0329434D01*
X0177507Y0331216D01*
X0177507Y0333146D01*
X0176769Y0334928D01*
X0175405Y0336293D01*
X0173622Y0337031D01*
X0171693Y0337031D01*
X0169910Y0336293D01*
X0168546Y0334928D01*
X0167807Y0333146D01*
X0167807Y0331216D01*
X0168546Y0329434D01*
X0169910Y0328069D01*
X0171693Y0327331D01*
X0173622Y0327331D01*
X0171415Y0327446D02*
X0153250Y0327446D01*
X0153250Y0326448D02*
X0179680Y0326448D01*
X0178249Y0325449D02*
X0153250Y0325449D01*
X0153250Y0324451D02*
X0177251Y0324451D01*
X0176252Y0323452D02*
X0153250Y0323452D01*
X0153250Y0322454D02*
X0175254Y0322454D01*
X0174255Y0321455D02*
X0153250Y0321455D01*
X0153250Y0320457D02*
X0173257Y0320457D01*
X0172258Y0319458D02*
X0153250Y0319458D01*
X0153250Y0318460D02*
X0171260Y0318460D01*
X0170261Y0317461D02*
X0153250Y0317461D01*
X0153250Y0316463D02*
X0169263Y0316463D01*
X0168264Y0315464D02*
X0153250Y0315464D01*
X0153250Y0314764D02*
X0153250Y0332358D01*
X0152831Y0333369D01*
X0152787Y0333413D01*
X0152787Y0334064D01*
X0152211Y0335456D01*
X0151145Y0336522D01*
X0149753Y0337098D01*
X0148247Y0337098D01*
X0146855Y0336522D01*
X0145789Y0335456D01*
X0145213Y0334064D01*
X0145213Y0332558D01*
X0145789Y0331166D01*
X0146855Y0330100D01*
X0147750Y0329729D01*
X0147750Y0316450D01*
X0123709Y0292409D01*
X0123253Y0292598D01*
X0121747Y0292598D01*
X0120355Y0292022D01*
X0119289Y0290956D01*
X0118713Y0289564D01*
X0118713Y0288058D01*
X0119289Y0286666D01*
X0120355Y0285600D01*
X0121747Y0285024D01*
X0123253Y0285024D01*
X0124645Y0285600D01*
X0125502Y0286456D01*
X0125558Y0286480D01*
X0152058Y0312980D01*
X0152831Y0313753D01*
X0153250Y0314764D01*
X0153126Y0314466D02*
X0167266Y0314466D01*
X0166502Y0313467D02*
X0152545Y0313467D01*
X0151547Y0312469D02*
X0166250Y0312469D01*
X0166250Y0311470D02*
X0150548Y0311470D01*
X0149550Y0310472D02*
X0166250Y0310472D01*
X0166250Y0309473D02*
X0148551Y0309473D01*
X0147553Y0308475D02*
X0166250Y0308475D01*
X0166250Y0307476D02*
X0146554Y0307476D01*
X0145556Y0306478D02*
X0162553Y0306478D01*
X0164447Y0306478D02*
X0165777Y0306478D01*
X0160865Y0305479D02*
X0144557Y0305479D01*
X0143559Y0304481D02*
X0160133Y0304481D01*
X0159750Y0303482D02*
X0142560Y0303482D01*
X0141562Y0302484D02*
X0159750Y0302484D01*
X0159990Y0301485D02*
X0140563Y0301485D01*
X0139565Y0300486D02*
X0160521Y0300486D01*
X0161723Y0299488D02*
X0138566Y0299488D01*
X0137568Y0298489D02*
X0175250Y0298489D01*
X0175250Y0297491D02*
X0136569Y0297491D01*
X0135570Y0296492D02*
X0175250Y0296492D01*
X0175250Y0295494D02*
X0134572Y0295494D01*
X0133573Y0294495D02*
X0175250Y0294495D01*
X0175250Y0293497D02*
X0132575Y0293497D01*
X0131576Y0292498D02*
X0175250Y0292498D01*
X0175250Y0291500D02*
X0130578Y0291500D01*
X0129579Y0290501D02*
X0175250Y0290501D01*
X0175250Y0289503D02*
X0128581Y0289503D01*
X0127582Y0288504D02*
X0175250Y0288504D01*
X0175250Y0287506D02*
X0126584Y0287506D01*
X0125585Y0286507D02*
X0175250Y0286507D01*
X0175250Y0285509D02*
X0124425Y0285509D01*
X0120575Y0285509D02*
X0086750Y0285509D01*
X0086750Y0286507D02*
X0119447Y0286507D01*
X0118941Y0287506D02*
X0086750Y0287506D01*
X0086750Y0288504D02*
X0118713Y0288504D01*
X0118713Y0289503D02*
X0086750Y0289503D01*
X0086750Y0290501D02*
X0119101Y0290501D01*
X0119833Y0291500D02*
X0086750Y0291500D01*
X0086750Y0292498D02*
X0121505Y0292498D01*
X0123495Y0292498D02*
X0123798Y0292498D01*
X0124797Y0293497D02*
X0086750Y0293497D01*
X0086750Y0294495D02*
X0125795Y0294495D01*
X0126794Y0295494D02*
X0086750Y0295494D01*
X0086750Y0296492D02*
X0127792Y0296492D01*
X0128791Y0297491D02*
X0086750Y0297491D01*
X0086750Y0298489D02*
X0129789Y0298489D01*
X0130788Y0299488D02*
X0086750Y0299488D01*
X0086750Y0300486D02*
X0131786Y0300486D01*
X0132785Y0301485D02*
X0086750Y0301485D01*
X0086750Y0302484D02*
X0133783Y0302484D01*
X0134782Y0303482D02*
X0086750Y0303482D01*
X0086750Y0304481D02*
X0135780Y0304481D01*
X0136779Y0305479D02*
X0086750Y0305479D01*
X0086750Y0306478D02*
X0137777Y0306478D01*
X0138776Y0307476D02*
X0086750Y0307476D01*
X0086750Y0308475D02*
X0139774Y0308475D01*
X0140773Y0309473D02*
X0086750Y0309473D01*
X0086496Y0310472D02*
X0141772Y0310472D01*
X0142770Y0311470D02*
X0086287Y0311470D01*
X0085913Y0312469D02*
X0143769Y0312469D01*
X0144767Y0313467D02*
X0085200Y0313467D01*
X0083574Y0314466D02*
X0145766Y0314466D01*
X0146764Y0315464D02*
X0019500Y0315464D01*
X0019500Y0314466D02*
X0081426Y0314466D01*
X0079800Y0313467D02*
X0019500Y0313467D01*
X0019500Y0312469D02*
X0079087Y0312469D01*
X0078713Y0311470D02*
X0019500Y0311470D01*
X0019500Y0310472D02*
X0078713Y0310472D01*
X0078955Y0309473D02*
X0045011Y0309473D01*
X0044584Y0309629D02*
X0040416Y0309629D01*
X0036500Y0308203D01*
X0033307Y0305524D01*
X0031224Y0301915D01*
X0030500Y0297811D01*
X0031224Y0293707D01*
X0033307Y0290098D01*
X0036500Y0287419D01*
X0040416Y0285993D01*
X0044584Y0285993D01*
X0048500Y0287419D01*
X0051693Y0290098D01*
X0053776Y0293707D01*
X0054500Y0297811D01*
X0053776Y0301915D01*
X0051693Y0305524D01*
X0048500Y0308203D01*
X0044584Y0309629D01*
X0047755Y0308475D02*
X0079480Y0308475D01*
X0080654Y0307476D02*
X0049367Y0307476D01*
X0050557Y0306478D02*
X0081250Y0306478D01*
X0081250Y0305479D02*
X0051719Y0305479D01*
X0052295Y0304481D02*
X0081250Y0304481D01*
X0081250Y0303482D02*
X0052872Y0303482D01*
X0053448Y0302484D02*
X0081250Y0302484D01*
X0081250Y0301485D02*
X0053852Y0301485D01*
X0054028Y0300486D02*
X0081250Y0300486D01*
X0081250Y0299488D02*
X0054204Y0299488D01*
X0054380Y0298489D02*
X0081250Y0298489D01*
X0081250Y0297491D02*
X0054444Y0297491D01*
X0054267Y0296492D02*
X0081250Y0296492D01*
X0081250Y0295494D02*
X0054091Y0295494D01*
X0053915Y0294495D02*
X0081250Y0294495D01*
X0081250Y0293497D02*
X0053655Y0293497D01*
X0053079Y0292498D02*
X0081250Y0292498D01*
X0081250Y0291500D02*
X0052502Y0291500D01*
X0051926Y0290501D02*
X0081250Y0290501D01*
X0081250Y0289503D02*
X0050984Y0289503D01*
X0049794Y0288504D02*
X0081250Y0288504D01*
X0081250Y0287506D02*
X0048604Y0287506D01*
X0045996Y0286507D02*
X0081250Y0286507D01*
X0081250Y0285509D02*
X0019500Y0285509D01*
X0019500Y0286507D02*
X0039004Y0286507D01*
X0036396Y0287506D02*
X0019500Y0287506D01*
X0019500Y0288504D02*
X0035206Y0288504D01*
X0034016Y0289503D02*
X0019500Y0289503D01*
X0019500Y0290501D02*
X0033074Y0290501D01*
X0032498Y0291500D02*
X0019500Y0291500D01*
X0019500Y0292498D02*
X0031921Y0292498D01*
X0031345Y0293497D02*
X0019500Y0293497D01*
X0019500Y0294495D02*
X0031085Y0294495D01*
X0030909Y0295494D02*
X0019500Y0295494D01*
X0019500Y0296492D02*
X0030732Y0296492D01*
X0030556Y0297491D02*
X0019500Y0297491D01*
X0019500Y0298489D02*
X0030620Y0298489D01*
X0030796Y0299488D02*
X0019500Y0299488D01*
X0019500Y0300486D02*
X0030972Y0300486D01*
X0031148Y0301485D02*
X0019500Y0301485D01*
X0019500Y0302484D02*
X0031552Y0302484D01*
X0032128Y0303482D02*
X0019500Y0303482D01*
X0019500Y0304481D02*
X0032705Y0304481D01*
X0033281Y0305479D02*
X0019500Y0305479D01*
X0019500Y0306478D02*
X0034443Y0306478D01*
X0035633Y0307476D02*
X0019500Y0307476D01*
X0019500Y0308475D02*
X0037245Y0308475D01*
X0039989Y0309473D02*
X0019500Y0309473D01*
X0019500Y0316463D02*
X0090459Y0316463D01*
X0089461Y0317461D02*
X0019500Y0317461D01*
X0019500Y0318460D02*
X0088462Y0318460D01*
X0087464Y0319458D02*
X0019500Y0319458D01*
X0019500Y0320457D02*
X0086465Y0320457D01*
X0085467Y0321455D02*
X0019500Y0321455D01*
X0019500Y0322454D02*
X0084468Y0322454D01*
X0083470Y0323452D02*
X0019500Y0323452D01*
X0019500Y0324451D02*
X0082471Y0324451D01*
X0081473Y0325449D02*
X0019500Y0325449D01*
X0019500Y0326448D02*
X0080474Y0326448D01*
X0078009Y0327446D02*
X0019500Y0327446D01*
X0019500Y0328445D02*
X0077174Y0328445D01*
X0076760Y0329443D02*
X0019500Y0329443D01*
X0019500Y0330442D02*
X0076713Y0330442D01*
X0076868Y0331440D02*
X0019500Y0331440D01*
X0019500Y0332439D02*
X0077282Y0332439D01*
X0078270Y0333437D02*
X0019500Y0333437D01*
X0019500Y0334436D02*
X0115000Y0334436D01*
X0115000Y0335434D02*
X0019500Y0335434D01*
X0019500Y0336433D02*
X0070139Y0336433D01*
X0070458Y0336114D02*
X0071844Y0335539D01*
X0073345Y0335539D01*
X0074731Y0336114D01*
X0075792Y0337175D01*
X0076366Y0338561D01*
X0076366Y0340061D01*
X0075792Y0341447D01*
X0074731Y0342508D01*
X0073345Y0343083D01*
X0071844Y0343083D01*
X0070458Y0342508D01*
X0069397Y0341447D01*
X0068823Y0340061D01*
X0068823Y0338561D01*
X0069397Y0337175D01*
X0070458Y0336114D01*
X0069291Y0337431D02*
X0019500Y0337431D01*
X0019500Y0338430D02*
X0068877Y0338430D01*
X0068823Y0339428D02*
X0019500Y0339428D01*
X0019500Y0340427D02*
X0068974Y0340427D01*
X0069388Y0341425D02*
X0019500Y0341425D01*
X0019500Y0342424D02*
X0070374Y0342424D01*
X0074815Y0342424D02*
X0082185Y0342424D01*
X0082269Y0342508D02*
X0081208Y0341447D01*
X0080634Y0340061D01*
X0080634Y0338561D01*
X0081208Y0337175D01*
X0082269Y0336114D01*
X0083655Y0335539D01*
X0085156Y0335539D01*
X0086542Y0336114D01*
X0087603Y0337175D01*
X0088177Y0338561D01*
X0088177Y0340061D01*
X0087603Y0341447D01*
X0086542Y0342508D01*
X0085156Y0343083D01*
X0083655Y0343083D01*
X0082269Y0342508D01*
X0081199Y0341425D02*
X0075801Y0341425D01*
X0076215Y0340427D02*
X0080785Y0340427D01*
X0080634Y0339428D02*
X0076366Y0339428D01*
X0076312Y0338430D02*
X0080688Y0338430D01*
X0081102Y0337431D02*
X0075898Y0337431D01*
X0075050Y0336433D02*
X0081950Y0336433D01*
X0082730Y0333437D02*
X0115000Y0333437D01*
X0115000Y0332439D02*
X0083718Y0332439D01*
X0084132Y0331440D02*
X0115000Y0331440D01*
X0115000Y0330442D02*
X0084287Y0330442D01*
X0085257Y0329443D02*
X0115000Y0329443D01*
X0115000Y0328445D02*
X0086255Y0328445D01*
X0087254Y0327446D02*
X0115000Y0327446D01*
X0115000Y0326448D02*
X0088252Y0326448D01*
X0089251Y0325449D02*
X0115000Y0325449D01*
X0115000Y0324451D02*
X0090249Y0324451D01*
X0091248Y0323452D02*
X0115000Y0323452D01*
X0115000Y0322454D02*
X0092246Y0322454D01*
X0093245Y0321455D02*
X0115000Y0321455D01*
X0117500Y0321455D02*
X0132255Y0321455D01*
X0132111Y0321311D02*
X0117500Y0321311D01*
X0117500Y0350811D01*
X0132500Y0350811D01*
X0132500Y0321700D01*
X0132111Y0321311D01*
X0132500Y0322454D02*
X0117500Y0322454D01*
X0117500Y0323452D02*
X0132500Y0323452D01*
X0132500Y0324451D02*
X0117500Y0324451D01*
X0117500Y0325449D02*
X0132500Y0325449D01*
X0132500Y0326448D02*
X0117500Y0326448D01*
X0117500Y0327446D02*
X0132500Y0327446D01*
X0132500Y0328445D02*
X0117500Y0328445D01*
X0117500Y0329443D02*
X0132500Y0329443D01*
X0132500Y0330442D02*
X0117500Y0330442D01*
X0117500Y0331440D02*
X0132500Y0331440D01*
X0132500Y0332439D02*
X0117500Y0332439D01*
X0117500Y0333437D02*
X0132500Y0333437D01*
X0132500Y0334436D02*
X0117500Y0334436D01*
X0117500Y0335434D02*
X0132500Y0335434D01*
X0132500Y0336433D02*
X0117500Y0336433D01*
X0117500Y0337431D02*
X0132500Y0337431D01*
X0132500Y0338430D02*
X0117500Y0338430D01*
X0117500Y0339428D02*
X0132500Y0339428D01*
X0132500Y0340427D02*
X0117500Y0340427D01*
X0117500Y0341425D02*
X0132500Y0341425D01*
X0132500Y0342424D02*
X0117500Y0342424D01*
X0117500Y0343422D02*
X0132500Y0343422D01*
X0132500Y0344421D02*
X0117500Y0344421D01*
X0117500Y0345420D02*
X0132500Y0345420D01*
X0132500Y0346418D02*
X0117500Y0346418D01*
X0117500Y0347417D02*
X0132500Y0347417D01*
X0132500Y0348415D02*
X0117500Y0348415D01*
X0117500Y0349414D02*
X0132500Y0349414D01*
X0132500Y0350412D02*
X0117500Y0350412D01*
X0115000Y0350412D02*
X0020327Y0350412D01*
X0019626Y0349414D02*
X0115000Y0349414D01*
X0115000Y0348415D02*
X0019500Y0348415D01*
X0019500Y0347417D02*
X0115000Y0347417D01*
X0115000Y0346418D02*
X0019500Y0346418D01*
X0019500Y0345420D02*
X0115000Y0345420D01*
X0115000Y0344421D02*
X0019500Y0344421D01*
X0019500Y0343422D02*
X0115000Y0343422D01*
X0115000Y0342424D02*
X0086626Y0342424D01*
X0087612Y0341425D02*
X0115000Y0341425D01*
X0115000Y0340427D02*
X0088026Y0340427D01*
X0088177Y0339428D02*
X0115000Y0339428D01*
X0115000Y0338430D02*
X0088123Y0338430D01*
X0087709Y0337431D02*
X0115000Y0337431D01*
X0115000Y0336433D02*
X0086861Y0336433D01*
X0135041Y0316463D02*
X0147750Y0316463D01*
X0147750Y0317461D02*
X0136039Y0317461D01*
X0137038Y0318460D02*
X0147750Y0318460D01*
X0147750Y0319458D02*
X0137916Y0319458D01*
X0138250Y0320457D02*
X0147750Y0320457D01*
X0147750Y0321455D02*
X0138250Y0321455D01*
X0138250Y0322454D02*
X0147750Y0322454D01*
X0147750Y0323452D02*
X0138250Y0323452D01*
X0138250Y0324451D02*
X0147750Y0324451D01*
X0147750Y0325449D02*
X0138250Y0325449D01*
X0138250Y0326448D02*
X0147750Y0326448D01*
X0147750Y0327446D02*
X0138250Y0327446D01*
X0138250Y0328445D02*
X0147750Y0328445D01*
X0147750Y0329443D02*
X0138250Y0329443D01*
X0138250Y0330442D02*
X0146513Y0330442D01*
X0145675Y0331440D02*
X0138250Y0331440D01*
X0138250Y0332439D02*
X0145262Y0332439D01*
X0145213Y0333437D02*
X0138250Y0333437D01*
X0138250Y0334436D02*
X0145366Y0334436D01*
X0145780Y0335434D02*
X0138250Y0335434D01*
X0138250Y0336433D02*
X0146766Y0336433D01*
X0151234Y0336433D02*
X0170249Y0336433D01*
X0170931Y0337431D02*
X0193879Y0337431D01*
X0194751Y0336433D02*
X0219500Y0336433D01*
X0219500Y0337431D02*
X0198680Y0337431D01*
X0199900Y0338430D02*
X0219500Y0338430D01*
X0219500Y0339428D02*
X0200422Y0339428D01*
X0200642Y0340427D02*
X0219500Y0340427D01*
X0219500Y0341425D02*
X0200642Y0341425D01*
X0200642Y0342424D02*
X0210031Y0342424D01*
X0209183Y0343422D02*
X0200642Y0343422D01*
X0200642Y0344421D02*
X0208769Y0344421D01*
X0208502Y0345420D02*
X0200642Y0345420D01*
X0200297Y0346418D02*
X0207504Y0346418D01*
X0206505Y0347417D02*
X0199597Y0347417D01*
X0191917Y0343422D02*
X0173083Y0343422D01*
X0173083Y0342424D02*
X0191917Y0342424D01*
X0191917Y0341425D02*
X0173083Y0341425D01*
X0173083Y0340427D02*
X0191917Y0340427D01*
X0192137Y0339428D02*
X0172831Y0339428D01*
X0172262Y0338430D02*
X0192659Y0338430D01*
X0189934Y0336433D02*
X0175066Y0336433D01*
X0176263Y0335434D02*
X0188737Y0335434D01*
X0188027Y0334436D02*
X0176973Y0334436D01*
X0177387Y0333437D02*
X0187613Y0333437D01*
X0187493Y0332439D02*
X0177507Y0332439D01*
X0177507Y0331440D02*
X0187493Y0331440D01*
X0187813Y0330442D02*
X0177187Y0330442D01*
X0176773Y0329443D02*
X0188227Y0329443D01*
X0189220Y0328445D02*
X0175780Y0328445D01*
X0169535Y0328445D02*
X0153250Y0328445D01*
X0153250Y0329443D02*
X0168542Y0329443D01*
X0168128Y0330442D02*
X0153250Y0330442D01*
X0153250Y0331440D02*
X0167807Y0331440D01*
X0167807Y0332439D02*
X0153217Y0332439D01*
X0152787Y0333437D02*
X0167928Y0333437D01*
X0168342Y0334436D02*
X0152634Y0334436D01*
X0152220Y0335434D02*
X0169052Y0335434D01*
X0166510Y0337431D02*
X0138250Y0337431D01*
X0138250Y0338430D02*
X0165179Y0338430D01*
X0164610Y0339428D02*
X0138250Y0339428D01*
X0138250Y0340427D02*
X0164358Y0340427D01*
X0164358Y0341425D02*
X0138250Y0341425D01*
X0138250Y0342424D02*
X0164358Y0342424D01*
X0164358Y0343422D02*
X0138250Y0343422D01*
X0138250Y0344421D02*
X0164358Y0344421D01*
X0164358Y0345420D02*
X0138998Y0345420D01*
X0139996Y0346418D02*
X0164671Y0346418D01*
X0165324Y0347417D02*
X0140995Y0347417D01*
X0181035Y0320457D02*
X0185000Y0320457D01*
X0185000Y0319458D02*
X0180036Y0319458D01*
X0179038Y0318460D02*
X0185230Y0318460D01*
X0185693Y0317461D02*
X0178039Y0317461D01*
X0177041Y0316463D02*
X0186000Y0316463D01*
X0186000Y0315464D02*
X0176042Y0315464D01*
X0175044Y0314466D02*
X0186000Y0314466D01*
X0186000Y0313467D02*
X0180147Y0313467D01*
X0181146Y0312469D02*
X0186000Y0312469D01*
X0186000Y0311470D02*
X0181730Y0311470D01*
X0182728Y0310472D02*
X0186000Y0310472D01*
X0186000Y0309473D02*
X0183727Y0309473D01*
X0184726Y0308475D02*
X0186000Y0308475D01*
X0186000Y0307476D02*
X0185201Y0307476D01*
X0185250Y0306478D02*
X0186000Y0306478D01*
X0186000Y0305479D02*
X0185250Y0305479D01*
X0185250Y0304481D02*
X0186000Y0304481D01*
X0186000Y0303482D02*
X0185250Y0303482D01*
X0185250Y0302484D02*
X0186000Y0302484D01*
X0186000Y0301485D02*
X0185250Y0301485D01*
X0185250Y0300486D02*
X0186000Y0300486D01*
X0186000Y0299488D02*
X0185250Y0299488D01*
X0185250Y0298489D02*
X0186000Y0298489D01*
X0186000Y0297491D02*
X0185250Y0297491D01*
X0185250Y0296492D02*
X0186000Y0296492D01*
X0186000Y0295494D02*
X0185250Y0295494D01*
X0185250Y0294495D02*
X0186000Y0294495D01*
X0186000Y0293497D02*
X0185250Y0293497D01*
X0185250Y0292498D02*
X0186000Y0292498D01*
X0186000Y0291500D02*
X0185250Y0291500D01*
X0185250Y0290501D02*
X0186000Y0290501D01*
X0186000Y0289503D02*
X0185250Y0289503D01*
X0185250Y0288504D02*
X0186000Y0288504D01*
X0186000Y0287506D02*
X0185250Y0287506D01*
X0185250Y0286507D02*
X0186000Y0286507D01*
X0186000Y0285509D02*
X0185250Y0285509D01*
X0185250Y0284510D02*
X0186000Y0284510D01*
X0186000Y0283512D02*
X0185603Y0283512D01*
X0195750Y0284510D02*
X0224007Y0284510D01*
X0223070Y0285509D02*
X0195750Y0285509D01*
X0195750Y0286507D02*
X0222494Y0286507D01*
X0221917Y0287506D02*
X0195750Y0287506D01*
X0195750Y0288504D02*
X0221341Y0288504D01*
X0221083Y0289503D02*
X0195750Y0289503D01*
X0195750Y0290501D02*
X0220907Y0290501D01*
X0220731Y0291500D02*
X0195750Y0291500D01*
X0195750Y0292498D02*
X0220555Y0292498D01*
X0220621Y0293497D02*
X0195750Y0293497D01*
X0195750Y0294495D02*
X0220797Y0294495D01*
X0220973Y0295494D02*
X0195750Y0295494D01*
X0195750Y0296492D02*
X0221149Y0296492D01*
X0221556Y0297491D02*
X0195750Y0297491D01*
X0195750Y0298489D02*
X0222133Y0298489D01*
X0222709Y0299488D02*
X0196566Y0299488D01*
X0197565Y0300486D02*
X0223286Y0300486D01*
X0224452Y0301485D02*
X0198563Y0301485D01*
X0199562Y0302484D02*
X0225642Y0302484D01*
X0227266Y0303482D02*
X0200560Y0303482D01*
X0175250Y0302484D02*
X0169562Y0302484D01*
X0170560Y0303482D02*
X0174699Y0303482D01*
X0174285Y0304481D02*
X0171425Y0304481D01*
X0171750Y0305479D02*
X0174250Y0305479D01*
X0174424Y0306478D02*
X0171750Y0306478D01*
X0171750Y0307476D02*
X0174862Y0307476D01*
X0174702Y0308475D02*
X0171750Y0308475D01*
X0171750Y0309473D02*
X0174288Y0309473D01*
X0174250Y0310472D02*
X0171750Y0310472D01*
X0172048Y0311470D02*
X0174421Y0311470D01*
X0174854Y0312469D02*
X0173047Y0312469D01*
X0174045Y0313467D02*
X0175853Y0313467D01*
X0175250Y0301485D02*
X0168563Y0301485D01*
X0167565Y0300486D02*
X0175250Y0300486D01*
X0175250Y0299488D02*
X0165277Y0299488D01*
X0175250Y0284510D02*
X0086750Y0284510D01*
X0086750Y0283512D02*
X0175250Y0283512D01*
X0175250Y0282513D02*
X0086750Y0282513D01*
X0086750Y0281515D02*
X0175250Y0281515D01*
X0174902Y0280516D02*
X0086750Y0280516D01*
X0087682Y0279518D02*
X0174441Y0279518D01*
X0203920Y0256552D02*
X0257500Y0256552D01*
X0257500Y0255553D02*
X0205498Y0255553D01*
X0205683Y0255369D02*
X0205683Y0255369D01*
X0206497Y0254555D02*
X0257500Y0254555D01*
X0257500Y0253556D02*
X0207495Y0253556D01*
X0208494Y0252558D02*
X0257500Y0252558D01*
X0257500Y0251559D02*
X0209492Y0251559D01*
X0210491Y0250561D02*
X0257500Y0250561D01*
X0257500Y0249562D02*
X0211489Y0249562D01*
X0212488Y0248564D02*
X0257500Y0248564D01*
X0257500Y0247565D02*
X0213395Y0247565D01*
X0213750Y0246567D02*
X0257500Y0246567D01*
X0257500Y0245568D02*
X0213750Y0245568D01*
X0213750Y0244570D02*
X0257500Y0244570D01*
X0257500Y0243571D02*
X0213750Y0243571D01*
X0213750Y0242573D02*
X0257500Y0242573D01*
X0257500Y0241574D02*
X0213750Y0241574D01*
X0213750Y0240576D02*
X0231961Y0240576D01*
X0231173Y0239577D02*
X0213750Y0239577D01*
X0213750Y0238579D02*
X0230759Y0238579D01*
X0230380Y0237580D02*
X0213750Y0237580D01*
X0213750Y0236582D02*
X0229382Y0236582D01*
X0228383Y0235583D02*
X0213750Y0235583D01*
X0213750Y0234585D02*
X0227385Y0234585D01*
X0226386Y0233586D02*
X0213750Y0233586D01*
X0213750Y0232588D02*
X0225388Y0232588D01*
X0224389Y0231589D02*
X0213750Y0231589D01*
X0213750Y0230591D02*
X0223391Y0230591D01*
X0222392Y0229592D02*
X0213750Y0229592D01*
X0213750Y0228594D02*
X0221394Y0228594D01*
X0220395Y0227595D02*
X0213750Y0227595D01*
X0213750Y0226597D02*
X0219397Y0226597D01*
X0218398Y0225598D02*
X0213750Y0225598D01*
X0213750Y0224600D02*
X0217400Y0224600D01*
X0216401Y0223601D02*
X0213750Y0223601D01*
X0213750Y0222603D02*
X0215403Y0222603D01*
X0214404Y0221604D02*
X0213750Y0221604D01*
X0221193Y0214615D02*
X0230250Y0214615D01*
X0230250Y0215613D02*
X0222191Y0215613D01*
X0223190Y0216612D02*
X0230250Y0216612D01*
X0230562Y0217610D02*
X0224188Y0217610D01*
X0225187Y0218609D02*
X0230771Y0218609D01*
X0231185Y0219607D02*
X0226185Y0219607D01*
X0227184Y0220606D02*
X0231991Y0220606D01*
X0229181Y0222603D02*
X0257500Y0222603D01*
X0257500Y0223601D02*
X0230179Y0223601D01*
X0232546Y0224600D02*
X0257500Y0224600D01*
X0257500Y0225598D02*
X0233590Y0225598D01*
X0234056Y0226597D02*
X0257500Y0226597D01*
X0257500Y0227595D02*
X0234250Y0227595D01*
X0234235Y0228594D02*
X0257500Y0228594D01*
X0257500Y0229592D02*
X0233821Y0229592D01*
X0233024Y0230591D02*
X0257500Y0230591D01*
X0257500Y0231589D02*
X0232167Y0231589D01*
X0233166Y0232588D02*
X0257500Y0232588D01*
X0257500Y0233586D02*
X0234164Y0233586D01*
X0236510Y0234585D02*
X0257500Y0234585D01*
X0257500Y0235583D02*
X0237576Y0235583D01*
X0238050Y0236582D02*
X0257500Y0236582D01*
X0257500Y0237580D02*
X0238250Y0237580D01*
X0238241Y0238579D02*
X0257500Y0238579D01*
X0257500Y0239577D02*
X0237827Y0239577D01*
X0237038Y0240576D02*
X0257500Y0240576D01*
X0257500Y0221604D02*
X0228182Y0221604D01*
X0237009Y0220606D02*
X0257500Y0220606D01*
X0257500Y0219607D02*
X0237815Y0219607D01*
X0238229Y0218609D02*
X0257500Y0218609D01*
X0257500Y0217610D02*
X0238250Y0217610D01*
X0238062Y0216612D02*
X0257500Y0216612D01*
X0257500Y0215613D02*
X0237605Y0215613D01*
X0236582Y0214615D02*
X0257500Y0214615D01*
X0257500Y0213616D02*
X0235750Y0213616D01*
X0235750Y0212617D02*
X0257500Y0212617D01*
X0257500Y0211619D02*
X0235750Y0211619D01*
X0235750Y0210620D02*
X0257500Y0210620D01*
X0257500Y0209622D02*
X0235750Y0209622D01*
X0235750Y0208623D02*
X0257500Y0208623D01*
X0257500Y0207625D02*
X0235750Y0207625D01*
X0235750Y0206626D02*
X0257500Y0206626D01*
X0257500Y0205628D02*
X0235750Y0205628D01*
X0235750Y0204629D02*
X0257500Y0204629D01*
X0257500Y0203631D02*
X0235750Y0203631D01*
X0235750Y0202632D02*
X0257500Y0202632D01*
X0257500Y0201634D02*
X0235750Y0201634D01*
X0235750Y0200635D02*
X0257500Y0200635D01*
X0257500Y0199637D02*
X0235750Y0199637D01*
X0235750Y0198638D02*
X0257500Y0198638D01*
X0257500Y0197640D02*
X0235750Y0197640D01*
X0235750Y0196641D02*
X0257500Y0196641D01*
X0257500Y0195643D02*
X0235750Y0195643D01*
X0235750Y0194644D02*
X0256278Y0194644D01*
X0255391Y0193646D02*
X0235750Y0193646D01*
X0235750Y0192647D02*
X0254977Y0192647D01*
X0254925Y0191649D02*
X0235750Y0191649D01*
X0235750Y0190650D02*
X0255111Y0190650D01*
X0255500Y0189652D02*
X0235750Y0189652D01*
X0235750Y0188653D02*
X0255500Y0188653D01*
X0255500Y0187655D02*
X0235750Y0187655D01*
X0235750Y0186656D02*
X0255395Y0186656D01*
X0254981Y0185658D02*
X0235750Y0185658D01*
X0235750Y0184659D02*
X0254925Y0184659D01*
X0255107Y0183661D02*
X0235750Y0183661D01*
X0235750Y0182662D02*
X0255500Y0182662D01*
X0255500Y0181664D02*
X0235750Y0181664D01*
X0235750Y0180665D02*
X0255500Y0180665D01*
X0255399Y0179667D02*
X0235750Y0179667D01*
X0235750Y0178668D02*
X0254986Y0178668D01*
X0254925Y0177670D02*
X0235750Y0177670D01*
X0235750Y0176671D02*
X0255103Y0176671D01*
X0255500Y0175673D02*
X0235750Y0175673D01*
X0235750Y0174674D02*
X0255500Y0174674D01*
X0255500Y0173676D02*
X0235750Y0173676D01*
X0235750Y0172677D02*
X0255404Y0172677D01*
X0254990Y0171679D02*
X0235750Y0171679D01*
X0235750Y0170680D02*
X0254925Y0170680D01*
X0255099Y0169682D02*
X0235750Y0169682D01*
X0235750Y0168683D02*
X0255500Y0168683D01*
X0255500Y0167684D02*
X0235750Y0167684D01*
X0235511Y0166686D02*
X0255500Y0166686D01*
X0255408Y0165687D02*
X0234766Y0165687D01*
X0233767Y0164689D02*
X0254994Y0164689D01*
X0254925Y0163690D02*
X0232768Y0163690D01*
X0231770Y0162692D02*
X0255094Y0162692D01*
X0255562Y0161693D02*
X0230771Y0161693D01*
X0229773Y0160695D02*
X0256682Y0160695D01*
X0257500Y0159696D02*
X0228774Y0159696D01*
X0227776Y0158698D02*
X0257500Y0158698D01*
X0257500Y0157699D02*
X0226777Y0157699D01*
X0225779Y0156701D02*
X0257500Y0156701D01*
X0257500Y0155702D02*
X0224780Y0155702D01*
X0223782Y0154704D02*
X0257500Y0154704D01*
X0257500Y0153705D02*
X0222783Y0153705D01*
X0222750Y0152707D02*
X0257500Y0152707D01*
X0257500Y0151708D02*
X0222750Y0151708D01*
X0222750Y0150710D02*
X0257500Y0150710D01*
X0257500Y0149711D02*
X0222750Y0149711D01*
X0222750Y0148713D02*
X0257500Y0148713D01*
X0257500Y0147714D02*
X0222750Y0147714D01*
X0222750Y0146716D02*
X0257500Y0146716D01*
X0257500Y0145717D02*
X0222750Y0145717D01*
X0222750Y0144719D02*
X0257500Y0144719D01*
X0257500Y0143720D02*
X0222750Y0143720D01*
X0222750Y0142722D02*
X0257500Y0142722D01*
X0257500Y0141723D02*
X0222750Y0141723D01*
X0222750Y0140725D02*
X0257500Y0140725D01*
X0257500Y0139726D02*
X0222750Y0139726D01*
X0222750Y0138728D02*
X0257500Y0138728D01*
X0257500Y0137729D02*
X0222750Y0137729D01*
X0222750Y0136731D02*
X0257500Y0136731D01*
X0257500Y0135732D02*
X0222750Y0135732D01*
X0222750Y0134734D02*
X0257500Y0134734D01*
X0257500Y0133735D02*
X0222750Y0133735D01*
X0222750Y0132737D02*
X0257500Y0132737D01*
X0257500Y0131738D02*
X0222750Y0131738D01*
X0222750Y0130740D02*
X0257500Y0130740D01*
X0257500Y0129741D02*
X0222750Y0129741D01*
X0222750Y0128743D02*
X0257500Y0128743D01*
X0257500Y0127744D02*
X0222750Y0127744D01*
X0222750Y0126746D02*
X0257500Y0126746D01*
X0257500Y0125747D02*
X0222750Y0125747D01*
X0222750Y0124748D02*
X0257500Y0124748D01*
X0257500Y0123750D02*
X0222750Y0123750D01*
X0222750Y0122751D02*
X0257500Y0122751D01*
X0257500Y0121753D02*
X0222750Y0121753D01*
X0222750Y0120754D02*
X0257500Y0120754D01*
X0257500Y0119756D02*
X0222750Y0119756D01*
X0222750Y0118757D02*
X0257500Y0118757D01*
X0257500Y0117759D02*
X0222750Y0117759D01*
X0222750Y0116760D02*
X0257500Y0116760D01*
X0257500Y0115762D02*
X0222750Y0115762D01*
X0222750Y0114763D02*
X0257500Y0114763D01*
X0257500Y0113765D02*
X0222750Y0113765D01*
X0222750Y0112766D02*
X0257500Y0112766D01*
X0257500Y0111768D02*
X0222750Y0111768D01*
X0222338Y0110769D02*
X0257500Y0110769D01*
X0257500Y0109771D02*
X0221349Y0109771D01*
X0220350Y0108772D02*
X0232926Y0108772D01*
X0232193Y0107774D02*
X0219352Y0107774D01*
X0218353Y0106775D02*
X0232000Y0106775D01*
X0232000Y0105777D02*
X0217355Y0105777D01*
X0216356Y0104778D02*
X0232000Y0104778D01*
X0232000Y0103780D02*
X0215358Y0103780D01*
X0214359Y0102781D02*
X0232000Y0102781D01*
X0232000Y0101783D02*
X0213361Y0101783D01*
X0212362Y0100784D02*
X0232000Y0100784D01*
X0232000Y0099786D02*
X0211364Y0099786D01*
X0210365Y0098787D02*
X0232000Y0098787D01*
X0232217Y0097789D02*
X0209367Y0097789D01*
X0209424Y0096790D02*
X0208368Y0096790D01*
X0208451Y0095792D02*
X0207370Y0095792D01*
X0234500Y0098811D02*
X0234500Y0106811D01*
X0243500Y0106811D01*
X0243500Y0098811D01*
X0234500Y0098811D01*
X0234500Y0099786D02*
X0243500Y0099786D01*
X0243500Y0100784D02*
X0234500Y0100784D01*
X0234500Y0101783D02*
X0243500Y0101783D01*
X0243500Y0102781D02*
X0234500Y0102781D01*
X0234500Y0103780D02*
X0243500Y0103780D01*
X0243500Y0104778D02*
X0234500Y0104778D01*
X0234500Y0105777D02*
X0243500Y0105777D01*
X0243500Y0106775D02*
X0234500Y0106775D01*
X0245074Y0108772D02*
X0257500Y0108772D01*
X0257500Y0107774D02*
X0245807Y0107774D01*
X0246000Y0106775D02*
X0257500Y0106775D01*
X0257500Y0105777D02*
X0246000Y0105777D01*
X0246000Y0104778D02*
X0257500Y0104778D01*
X0257500Y0103780D02*
X0246000Y0103780D01*
X0246000Y0102781D02*
X0257500Y0102781D01*
X0257500Y0101783D02*
X0246000Y0101783D01*
X0246000Y0100784D02*
X0257500Y0100784D01*
X0257500Y0099786D02*
X0246000Y0099786D01*
X0246000Y0098787D02*
X0257500Y0098787D01*
X0257500Y0097789D02*
X0245783Y0097789D01*
X0245015Y0096790D02*
X0257498Y0096790D01*
X0257201Y0095792D02*
X0242549Y0095792D01*
X0166032Y0082811D02*
X0158999Y0082811D01*
X0159000Y0083810D02*
X0164842Y0083810D01*
X0163652Y0084808D02*
X0159000Y0084808D01*
X0159000Y0085807D02*
X0162898Y0085807D01*
X0162322Y0086805D02*
X0159000Y0086805D01*
X0159000Y0087804D02*
X0161745Y0087804D01*
X0161207Y0088802D02*
X0159000Y0088802D01*
X0159000Y0089801D02*
X0161031Y0089801D01*
X0160855Y0090799D02*
X0159000Y0090799D01*
X0159000Y0091798D02*
X0160679Y0091798D01*
X0160503Y0092796D02*
X0159000Y0092796D01*
X0159000Y0093795D02*
X0160673Y0093795D01*
X0160850Y0094793D02*
X0158553Y0094793D01*
X0157044Y0095792D02*
X0161026Y0095792D01*
X0161202Y0096790D02*
X0073798Y0096790D01*
X0073974Y0095792D02*
X0147956Y0095792D01*
X0146447Y0094793D02*
X0074150Y0094793D01*
X0074327Y0093795D02*
X0146000Y0093795D01*
X0146000Y0092796D02*
X0074497Y0092796D01*
X0074321Y0091798D02*
X0146000Y0091798D01*
X0146000Y0090799D02*
X0074145Y0090799D01*
X0073969Y0089801D02*
X0146000Y0089801D01*
X0146000Y0088802D02*
X0073793Y0088802D01*
X0073255Y0087804D02*
X0146000Y0087804D01*
X0146000Y0086805D02*
X0072678Y0086805D01*
X0072102Y0085807D02*
X0146000Y0085807D01*
X0146000Y0084808D02*
X0071347Y0084808D01*
X0070157Y0083810D02*
X0146000Y0083810D01*
X0146001Y0082811D02*
X0068968Y0082811D01*
X0073272Y0097789D02*
X0161728Y0097789D01*
X0162304Y0098787D02*
X0072696Y0098787D01*
X0072119Y0099786D02*
X0162881Y0099786D01*
X0163617Y0100784D02*
X0138509Y0100784D01*
X0136500Y0102311D02*
X0128500Y0102311D01*
X0128500Y0112311D01*
X0136500Y0112311D01*
X0136500Y0102311D01*
X0136500Y0102781D02*
X0128500Y0102781D01*
X0128500Y0103780D02*
X0136500Y0103780D01*
X0136500Y0104778D02*
X0128500Y0104778D01*
X0128500Y0105777D02*
X0136500Y0105777D01*
X0136500Y0106775D02*
X0128500Y0106775D01*
X0128500Y0107774D02*
X0136500Y0107774D01*
X0136500Y0108772D02*
X0128500Y0108772D01*
X0128500Y0109771D02*
X0136500Y0109771D01*
X0136500Y0110769D02*
X0128500Y0110769D01*
X0128500Y0111768D02*
X0136500Y0111768D01*
X0127888Y0114763D02*
X0042500Y0114763D01*
X0042500Y0113765D02*
X0126418Y0113765D01*
X0126000Y0112766D02*
X0042500Y0112766D01*
X0042500Y0111768D02*
X0126000Y0111768D01*
X0126000Y0110769D02*
X0042500Y0110769D01*
X0042500Y0109771D02*
X0126000Y0109771D01*
X0126000Y0108772D02*
X0055574Y0108772D01*
X0056307Y0107774D02*
X0126000Y0107774D01*
X0126000Y0106775D02*
X0056500Y0106775D01*
X0056500Y0105777D02*
X0126000Y0105777D01*
X0126000Y0104778D02*
X0056500Y0104778D01*
X0056500Y0103780D02*
X0058084Y0103780D01*
X0056500Y0103203D02*
X0056500Y0103203D01*
X0054000Y0102781D02*
X0045000Y0102781D01*
X0045000Y0101783D02*
X0054000Y0101783D01*
X0054000Y0100784D02*
X0045000Y0100784D01*
X0045000Y0099786D02*
X0054000Y0099786D01*
X0054000Y0098811D02*
X0045000Y0098811D01*
X0045000Y0106811D01*
X0054000Y0106811D01*
X0054000Y0098811D01*
X0054000Y0103780D02*
X0045000Y0103780D01*
X0045000Y0104778D02*
X0054000Y0104778D01*
X0054000Y0105777D02*
X0045000Y0105777D01*
X0045000Y0106775D02*
X0054000Y0106775D01*
X0043426Y0108772D02*
X0042500Y0108772D01*
X0042693Y0107774D02*
X0042276Y0107774D01*
X0042500Y0106775D02*
X0041500Y0106775D01*
X0042500Y0105777D02*
X0019500Y0105777D01*
X0019500Y0106775D02*
X0029500Y0106775D01*
X0028724Y0107774D02*
X0019500Y0107774D01*
X0019500Y0108772D02*
X0028500Y0108772D01*
X0028500Y0109771D02*
X0019500Y0109771D01*
X0019500Y0110769D02*
X0028500Y0110769D01*
X0028500Y0111768D02*
X0019500Y0111768D01*
X0019500Y0112766D02*
X0028500Y0112766D01*
X0028500Y0113765D02*
X0019500Y0113765D01*
X0019500Y0114763D02*
X0028500Y0114763D01*
X0028500Y0115762D02*
X0019500Y0115762D01*
X0019500Y0116760D02*
X0028500Y0116760D01*
X0028687Y0117759D02*
X0019500Y0117759D01*
X0019500Y0118757D02*
X0029411Y0118757D01*
X0031000Y0116811D02*
X0040000Y0116811D01*
X0040000Y0108811D01*
X0031000Y0108811D01*
X0031000Y0116811D01*
X0031000Y0116760D02*
X0040000Y0116760D01*
X0040000Y0115762D02*
X0031000Y0115762D01*
X0031000Y0114763D02*
X0040000Y0114763D01*
X0040000Y0113765D02*
X0031000Y0113765D01*
X0031000Y0112766D02*
X0040000Y0112766D01*
X0040000Y0111768D02*
X0031000Y0111768D01*
X0031000Y0110769D02*
X0040000Y0110769D01*
X0040000Y0109771D02*
X0031000Y0109771D01*
X0019500Y0104778D02*
X0042500Y0104778D01*
X0042500Y0103780D02*
X0019500Y0103780D01*
X0019500Y0102781D02*
X0042500Y0102781D01*
X0042500Y0101783D02*
X0019500Y0101783D01*
X0019500Y0100784D02*
X0042500Y0100784D01*
X0042500Y0099786D02*
X0019500Y0099786D01*
X0019500Y0098787D02*
X0042500Y0098787D01*
X0042717Y0097789D02*
X0019500Y0097789D01*
X0019474Y0079815D02*
X0039800Y0079815D01*
X0039800Y0078817D02*
X0019201Y0078817D01*
X0019200Y0077818D02*
X0039800Y0077818D01*
X0040087Y0076820D02*
X0019200Y0076820D01*
X0019200Y0075821D02*
X0041085Y0075821D01*
X0042084Y0074823D02*
X0019200Y0074823D01*
X0019200Y0073824D02*
X0043082Y0073824D01*
X0044081Y0072826D02*
X0019200Y0072826D01*
X0019200Y0071827D02*
X0045079Y0071827D01*
X0046078Y0070829D02*
X0019200Y0070829D01*
X0019200Y0069830D02*
X0047076Y0069830D01*
X0071383Y0100784D02*
X0126491Y0100784D01*
X0126013Y0101783D02*
X0070193Y0101783D01*
X0069003Y0102781D02*
X0126000Y0102781D01*
X0126000Y0103780D02*
X0066916Y0103780D01*
X0148500Y0093311D02*
X0148500Y0083311D01*
X0156500Y0083311D01*
X0156500Y0093311D01*
X0148500Y0093311D01*
X0148500Y0092796D02*
X0156500Y0092796D01*
X0156500Y0091798D02*
X0148500Y0091798D01*
X0148500Y0090799D02*
X0156500Y0090799D01*
X0156500Y0089801D02*
X0148500Y0089801D01*
X0148500Y0088802D02*
X0156500Y0088802D01*
X0156500Y0087804D02*
X0148500Y0087804D01*
X0148500Y0086805D02*
X0156500Y0086805D01*
X0156500Y0085807D02*
X0148500Y0085807D01*
X0148500Y0084808D02*
X0156500Y0084808D01*
X0156500Y0083810D02*
X0148500Y0083810D01*
X0256806Y0004927D02*
X0020194Y0004927D01*
X0019425Y0005926D02*
X0257575Y0005926D01*
X0230000Y0168811D02*
X0221000Y0168811D01*
X0221000Y0176811D01*
X0230000Y0176811D01*
X0230000Y0168811D01*
X0230000Y0169682D02*
X0221000Y0169682D01*
X0221000Y0170680D02*
X0230000Y0170680D01*
X0230000Y0171679D02*
X0221000Y0171679D01*
X0221000Y0172677D02*
X0230000Y0172677D01*
X0230000Y0173676D02*
X0221000Y0173676D01*
X0221000Y0174674D02*
X0230000Y0174674D01*
X0230000Y0175673D02*
X0221000Y0175673D01*
X0221000Y0176671D02*
X0230000Y0176671D01*
X0230000Y0193811D02*
X0221000Y0193811D01*
X0221000Y0201811D01*
X0230000Y0201811D01*
X0230000Y0193811D01*
X0230000Y0194644D02*
X0221000Y0194644D01*
X0221000Y0195643D02*
X0230000Y0195643D01*
X0230000Y0196641D02*
X0221000Y0196641D01*
X0221000Y0197640D02*
X0230000Y0197640D01*
X0230000Y0198638D02*
X0221000Y0198638D01*
X0221000Y0199637D02*
X0230000Y0199637D01*
X0230000Y0200635D02*
X0221000Y0200635D01*
X0221000Y0201634D02*
X0230000Y0201634D01*
X0230250Y0204629D02*
X0219750Y0204629D01*
X0219750Y0205628D02*
X0230250Y0205628D01*
X0230250Y0206626D02*
X0219750Y0206626D01*
X0219750Y0207625D02*
X0230250Y0207625D01*
X0230250Y0208623D02*
X0219750Y0208623D01*
X0219750Y0209622D02*
X0230250Y0209622D01*
X0230250Y0210620D02*
X0219750Y0210620D01*
X0219750Y0211619D02*
X0230250Y0211619D01*
X0230250Y0212617D02*
X0219750Y0212617D01*
X0220194Y0213616D02*
X0230250Y0213616D01*
X0116428Y0243571D02*
X0095076Y0243571D01*
X0096115Y0244570D02*
X0114852Y0244570D01*
X0113854Y0245568D02*
X0096585Y0245568D01*
X0096787Y0246567D02*
X0112855Y0246567D01*
X0111857Y0247565D02*
X0096787Y0247565D01*
X0096373Y0248564D02*
X0110858Y0248564D01*
X0109860Y0249562D02*
X0096375Y0249562D01*
X0096787Y0250561D02*
X0108861Y0250561D01*
X0107862Y0251559D02*
X0096787Y0251559D01*
X0096583Y0252558D02*
X0106864Y0252558D01*
X0105865Y0253556D02*
X0096111Y0253556D01*
X0095065Y0254555D02*
X0104867Y0254555D01*
X0103868Y0255553D02*
X0092647Y0255553D01*
X0091648Y0256552D02*
X0102870Y0256552D01*
X0101871Y0257551D02*
X0090650Y0257551D01*
X0089651Y0258549D02*
X0100873Y0258549D01*
X0099874Y0259548D02*
X0088653Y0259548D01*
X0087654Y0260546D02*
X0098876Y0260546D01*
X0097877Y0261545D02*
X0086656Y0261545D01*
X0085657Y0262543D02*
X0096879Y0262543D01*
X0095880Y0263542D02*
X0084659Y0263542D01*
X0083660Y0264540D02*
X0094882Y0264540D01*
X0093883Y0265539D02*
X0082661Y0265539D01*
X0081663Y0266537D02*
X0092885Y0266537D01*
X0091886Y0267536D02*
X0080664Y0267536D01*
X0079666Y0268534D02*
X0090888Y0268534D01*
X0089889Y0269533D02*
X0078667Y0269533D01*
X0077669Y0270531D02*
X0088891Y0270531D01*
X0087892Y0271530D02*
X0076670Y0271530D01*
X0075672Y0272528D02*
X0086894Y0272528D01*
X0085895Y0273527D02*
X0074673Y0273527D01*
X0073675Y0274525D02*
X0084897Y0274525D01*
X0083898Y0275524D02*
X0072676Y0275524D01*
X0071678Y0276522D02*
X0082900Y0276522D01*
X0081901Y0277521D02*
X0070679Y0277521D01*
X0069681Y0278519D02*
X0081351Y0278519D01*
X0081250Y0279518D02*
X0068682Y0279518D01*
X0067684Y0280516D02*
X0081250Y0280516D01*
X0081250Y0281515D02*
X0066685Y0281515D01*
X0065687Y0282513D02*
X0081250Y0282513D01*
X0081250Y0283512D02*
X0064688Y0283512D01*
X0061903Y0278519D02*
X0057564Y0278519D01*
X0062901Y0277521D02*
X0019500Y0277521D01*
X0019500Y0278519D02*
X0048436Y0278519D01*
X0047643Y0279518D02*
X0019500Y0279518D01*
X0019500Y0280516D02*
X0047230Y0280516D01*
X0047213Y0281515D02*
X0019500Y0281515D01*
X0019500Y0282513D02*
X0047399Y0282513D01*
X0047845Y0283512D02*
X0019500Y0283512D01*
X0019500Y0284510D02*
X0048843Y0284510D01*
X0057157Y0284510D02*
X0081250Y0284510D01*
X0067894Y0272528D02*
X0019500Y0272528D01*
X0019500Y0271530D02*
X0068892Y0271530D01*
X0069891Y0270531D02*
X0019500Y0270531D01*
X0019500Y0269533D02*
X0070889Y0269533D01*
X0071888Y0268534D02*
X0019500Y0268534D01*
X0019500Y0267536D02*
X0072886Y0267536D01*
X0073885Y0266537D02*
X0019500Y0266537D01*
X0019500Y0265539D02*
X0074883Y0265539D01*
X0075882Y0264540D02*
X0019500Y0264540D01*
X0019500Y0263542D02*
X0076880Y0263542D01*
X0077879Y0262543D02*
X0019500Y0262543D01*
X0019500Y0261545D02*
X0078877Y0261545D01*
X0079876Y0260546D02*
X0019500Y0260546D01*
X0019500Y0259548D02*
X0080874Y0259548D01*
X0081873Y0258549D02*
X0019500Y0258549D01*
X0019500Y0257551D02*
X0082871Y0257551D01*
X0089627Y0248564D02*
X0041783Y0248564D01*
X0042394Y0247565D02*
X0089213Y0247565D01*
X0089213Y0246567D02*
X0042500Y0246567D01*
X0042500Y0245568D02*
X0089415Y0245568D01*
X0089885Y0244570D02*
X0042500Y0244570D01*
X0042500Y0243571D02*
X0090924Y0243571D01*
X0066895Y0273527D02*
X0019500Y0273527D01*
X0019500Y0274525D02*
X0065897Y0274525D01*
X0064898Y0275524D02*
X0019500Y0275524D01*
X0019500Y0276522D02*
X0063900Y0276522D01*
X0099250Y0186656D02*
X0099299Y0186656D01*
X0099250Y0185658D02*
X0100297Y0185658D01*
X0104703Y0185658D02*
X0109423Y0185658D01*
X0107799Y0186656D02*
X0105701Y0186656D01*
X0106120Y0187655D02*
X0107087Y0187655D01*
X0106713Y0188653D02*
X0106287Y0188653D01*
X0196458Y0329443D02*
X0256077Y0329443D01*
X0257500Y0330442D02*
X0196872Y0330442D01*
X0197193Y0331440D02*
X0257500Y0331440D01*
X0257500Y0332439D02*
X0197193Y0332439D01*
X0197072Y0333437D02*
X0220545Y0333437D01*
X0220672Y0333311D02*
X0251828Y0333311D01*
X0253000Y0334483D01*
X0253000Y0347139D01*
X0251828Y0348311D01*
X0220672Y0348311D01*
X0219500Y0347139D01*
X0219500Y0334483D01*
X0220672Y0333311D01*
X0219547Y0334436D02*
X0196658Y0334436D01*
X0195948Y0335434D02*
X0219500Y0335434D01*
X0219500Y0342424D02*
X0214969Y0342424D01*
X0215817Y0343422D02*
X0219500Y0343422D01*
X0219500Y0344421D02*
X0216231Y0344421D01*
X0216287Y0345420D02*
X0219500Y0345420D01*
X0219500Y0346418D02*
X0216141Y0346418D01*
X0215727Y0347417D02*
X0219777Y0347417D01*
X0214752Y0348415D02*
X0257500Y0348415D01*
X0257500Y0347417D02*
X0252723Y0347417D01*
X0253000Y0346418D02*
X0257500Y0346418D01*
X0257500Y0345420D02*
X0253000Y0345420D01*
X0253000Y0344421D02*
X0257500Y0344421D01*
X0257500Y0343422D02*
X0253000Y0343422D01*
X0253000Y0342424D02*
X0257500Y0342424D01*
X0257500Y0341425D02*
X0253000Y0341425D01*
X0253000Y0340427D02*
X0257500Y0340427D01*
X0257500Y0339428D02*
X0253000Y0339428D01*
X0253000Y0338430D02*
X0257500Y0338430D01*
X0257500Y0337431D02*
X0253000Y0337431D01*
X0253000Y0336433D02*
X0257500Y0336433D01*
X0257500Y0335434D02*
X0253000Y0335434D01*
X0252953Y0334436D02*
X0257500Y0334436D01*
X0257500Y0333437D02*
X0251955Y0333437D01*
X0257374Y0349414D02*
X0212287Y0349414D01*
X0211288Y0350412D02*
X0256673Y0350412D01*
D15*
X0203000Y0315811D03*
X0178000Y0310311D03*
X0178000Y0305311D03*
X0163500Y0302811D03*
X0182500Y0281311D03*
X0178000Y0278311D03*
X0201000Y0242811D03*
X0201000Y0237811D03*
X0201000Y0227811D03*
X0201000Y0222811D03*
X0201000Y0217811D03*
X0201000Y0207811D03*
X0201000Y0202811D03*
X0201000Y0197811D03*
X0201000Y0187811D03*
X0201000Y0177811D03*
X0201000Y0172811D03*
X0201000Y0162811D03*
X0201000Y0157811D03*
X0201000Y0152811D03*
X0201000Y0142811D03*
X0201000Y0137811D03*
X0201000Y0132811D03*
X0201000Y0122811D03*
X0201000Y0117811D03*
X0201000Y0107811D03*
X0167000Y0113811D03*
X0164000Y0109811D03*
X0161000Y0105811D03*
X0185500Y0133311D03*
X0185500Y0153311D03*
X0185500Y0173311D03*
X0185500Y0193311D03*
X0185500Y0213311D03*
X0185500Y0233311D03*
X0148500Y0237811D03*
X0148500Y0242811D03*
X0148500Y0222811D03*
X0148500Y0217811D03*
X0143500Y0217811D03*
X0148500Y0202811D03*
X0148500Y0197811D03*
X0144500Y0194811D03*
X0148276Y0188087D03*
X0148500Y0182811D03*
X0148500Y0177811D03*
X0143500Y0177811D03*
X0143500Y0172811D03*
X0143500Y0162811D03*
X0148500Y0162811D03*
X0148500Y0157811D03*
X0148500Y0142811D03*
X0148500Y0137811D03*
X0080500Y0180311D03*
X0080500Y0185311D03*
X0080500Y0190311D03*
X0080500Y0195311D03*
X0080500Y0200311D03*
X0230500Y0227811D03*
X0234500Y0217811D03*
X0234500Y0237811D03*
D16*
X0214000Y0217311D01*
X0214000Y0115311D01*
X0202500Y0103811D01*
X0192500Y0103811D01*
X0182500Y0113811D01*
X0167000Y0113811D01*
X0164000Y0109811D02*
X0182000Y0109811D01*
X0191000Y0100811D01*
X0204000Y0100811D01*
X0217000Y0113811D01*
X0217000Y0214311D01*
X0230500Y0227811D01*
X0234500Y0217811D02*
X0233000Y0216311D01*
X0233000Y0167811D01*
X0220000Y0154811D01*
X0220000Y0112311D01*
X0205500Y0097811D01*
X0189500Y0097811D01*
X0181500Y0105811D01*
X0161000Y0105811D01*
X0170000Y0117811D02*
X0165000Y0122811D01*
X0144500Y0122811D01*
X0132500Y0134811D01*
X0132500Y0145811D01*
X0121500Y0156811D01*
X0094500Y0156811D01*
X0088000Y0163311D01*
X0080000Y0171311D01*
X0078000Y0171311D01*
X0061500Y0187811D01*
X0061500Y0194811D01*
X0053500Y0202811D01*
X0057500Y0206811D01*
X0057500Y0225311D01*
X0053000Y0229811D01*
X0052500Y0229811D01*
X0058000Y0232811D02*
X0064500Y0226311D01*
X0064500Y0208311D01*
X0072500Y0216311D01*
X0088500Y0216311D01*
X0099436Y0205375D01*
X0117564Y0205375D01*
X0127500Y0215311D01*
X0127500Y0229811D01*
X0133500Y0235811D01*
X0134500Y0235811D01*
X0134500Y0230811D02*
X0133500Y0230811D01*
X0130500Y0227811D01*
X0130500Y0213811D01*
X0110500Y0193811D01*
X0107500Y0193811D01*
X0106500Y0192811D01*
X0110500Y0189311D02*
X0134500Y0213311D01*
X0134500Y0225811D01*
X0143500Y0223311D02*
X0153500Y0233311D01*
X0185500Y0233311D01*
X0191000Y0227811D01*
X0201000Y0227811D01*
X0201000Y0222811D02*
X0148500Y0222811D01*
X0143500Y0223311D02*
X0143500Y0217811D01*
X0148500Y0217811D02*
X0201000Y0217811D01*
X0195500Y0213311D02*
X0201000Y0207811D01*
X0195500Y0213311D02*
X0185500Y0213311D01*
X0153500Y0213311D01*
X0144500Y0204311D01*
X0144500Y0194811D01*
X0148000Y0193311D02*
X0139500Y0184811D01*
X0139500Y0236311D01*
X0129500Y0246311D01*
X0117000Y0246311D01*
X0084000Y0279311D01*
X0084000Y0309311D01*
X0082500Y0310811D01*
X0092500Y0318311D02*
X0080500Y0330311D01*
X0092500Y0318311D02*
X0133000Y0318311D01*
X0135500Y0320811D01*
X0135500Y0345811D01*
X0140000Y0350311D01*
X0170000Y0350311D01*
X0173500Y0346811D01*
X0191500Y0346811D01*
X0195000Y0350311D01*
X0207500Y0350311D01*
X0212500Y0345311D01*
X0195000Y0323811D02*
X0180500Y0323811D01*
X0169000Y0312311D01*
X0169000Y0305811D01*
X0166000Y0302811D01*
X0163500Y0302811D01*
X0178000Y0305311D02*
X0178000Y0278311D01*
X0182500Y0281311D02*
X0182500Y0306811D01*
X0179000Y0310311D01*
X0178000Y0310311D01*
X0193000Y0299811D02*
X0203000Y0309811D01*
X0203000Y0315811D02*
X0195000Y0323811D01*
X0193000Y0299811D02*
X0193000Y0278811D01*
X0184000Y0269811D01*
X0167000Y0269811D01*
X0161500Y0264311D01*
X0161500Y0257429D01*
X0171118Y0247811D01*
X0201500Y0247811D01*
X0205000Y0244311D01*
X0205000Y0126811D01*
X0201000Y0122811D01*
X0196000Y0122811D01*
X0185500Y0133311D01*
X0147500Y0133311D01*
X0141500Y0139311D01*
X0141500Y0150311D01*
X0126000Y0165811D01*
X0105500Y0165811D01*
X0090500Y0180811D01*
X0090500Y0200811D01*
X0084000Y0207311D01*
X0077000Y0207311D01*
X0073500Y0203811D01*
X0073500Y0196311D01*
X0079500Y0190311D01*
X0080500Y0190311D01*
X0080500Y0185311D02*
X0079500Y0185311D01*
X0070500Y0194311D01*
X0070500Y0205311D01*
X0075500Y0210311D01*
X0085500Y0210311D01*
X0093500Y0202311D01*
X0093500Y0182311D01*
X0107000Y0168811D01*
X0127500Y0168811D01*
X0144500Y0151811D01*
X0144500Y0140811D01*
X0147500Y0137811D01*
X0148500Y0137811D01*
X0187500Y0137811D01*
X0192500Y0132811D01*
X0201000Y0132811D01*
X0201000Y0137811D02*
X0192500Y0137811D01*
X0187500Y0142811D01*
X0148500Y0142811D01*
X0138500Y0137811D02*
X0147500Y0128811D01*
X0176500Y0128811D01*
X0187500Y0117811D01*
X0201000Y0117811D01*
X0202000Y0117811D01*
X0208000Y0123811D01*
X0208000Y0245288D01*
X0202477Y0250811D01*
X0172516Y0250811D01*
X0164500Y0258827D01*
X0164500Y0262811D01*
X0167500Y0265811D01*
X0168500Y0265811D01*
X0168500Y0260811D02*
X0175500Y0253811D01*
X0203351Y0253811D01*
X0211000Y0246162D01*
X0211000Y0117811D01*
X0201000Y0107811D01*
X0193000Y0107811D01*
X0175000Y0125811D01*
X0146000Y0125811D01*
X0135500Y0136311D01*
X0135500Y0147311D01*
X0123000Y0159811D01*
X0102500Y0159811D01*
X0084500Y0177811D01*
X0084500Y0197311D01*
X0081500Y0200311D01*
X0080500Y0200311D01*
X0076500Y0198311D02*
X0076500Y0202311D01*
X0078500Y0204311D01*
X0082500Y0204311D01*
X0087500Y0199311D01*
X0087500Y0179311D01*
X0104000Y0162811D01*
X0124500Y0162811D01*
X0138500Y0148811D01*
X0138500Y0137811D01*
X0147500Y0153311D02*
X0129000Y0171811D01*
X0108500Y0171811D01*
X0096500Y0183811D01*
X0096500Y0203811D01*
X0087000Y0213311D01*
X0074000Y0213311D01*
X0067500Y0206811D01*
X0067500Y0192311D01*
X0079500Y0180311D01*
X0080500Y0180311D01*
X0080500Y0175311D02*
X0079000Y0175311D01*
X0064500Y0189811D01*
X0064500Y0208311D01*
X0076500Y0198311D02*
X0079500Y0195311D01*
X0080500Y0195311D01*
X0099436Y0191875D02*
X0102500Y0188811D01*
X0099436Y0191875D02*
X0099436Y0205375D01*
X0139500Y0184811D02*
X0139500Y0175811D01*
X0142500Y0172811D01*
X0143500Y0172811D01*
X0143500Y0177811D02*
X0143500Y0183311D01*
X0148276Y0188087D01*
X0148500Y0182811D02*
X0187500Y0182811D01*
X0192500Y0177811D01*
X0201000Y0177811D01*
X0201000Y0172811D02*
X0192500Y0172811D01*
X0187500Y0177811D01*
X0148500Y0177811D01*
X0153000Y0173311D02*
X0143500Y0163811D01*
X0143500Y0162811D01*
X0148500Y0162811D02*
X0187500Y0162811D01*
X0192500Y0157811D01*
X0201000Y0157811D01*
X0201000Y0152811D02*
X0192500Y0152811D01*
X0187500Y0157811D01*
X0148500Y0157811D01*
X0147500Y0153311D02*
X0185500Y0153311D01*
X0196000Y0142811D01*
X0201000Y0142811D01*
X0201000Y0162811D02*
X0196000Y0162811D01*
X0185500Y0173311D01*
X0153000Y0173311D01*
X0148000Y0193311D02*
X0185500Y0193311D01*
X0191000Y0187811D01*
X0201000Y0187811D01*
X0201000Y0197811D02*
X0148500Y0197811D01*
X0148500Y0202811D02*
X0201000Y0202811D01*
X0201000Y0237811D02*
X0180000Y0237811D01*
X0178500Y0236311D01*
X0164500Y0236311D01*
X0163000Y0237811D01*
X0148500Y0237811D01*
X0148500Y0242811D02*
X0163500Y0242811D01*
X0166500Y0239811D01*
X0176500Y0239811D01*
X0179500Y0242811D01*
X0201000Y0242811D01*
X0150500Y0315311D02*
X0124000Y0288811D01*
X0122500Y0288811D01*
X0150500Y0315311D02*
X0150500Y0331811D01*
X0149000Y0333311D01*
X0093000Y0251311D02*
X0063000Y0281311D01*
X0051000Y0281311D01*
X0028000Y0251811D02*
X0028000Y0193811D01*
X0046000Y0175811D01*
X0046500Y0175811D01*
X0093000Y0246811D02*
X0093000Y0251311D01*
D17*
X0052500Y0235811D03*
X0049500Y0235811D03*
X0046500Y0235811D03*
X0046500Y0229811D03*
X0049500Y0229811D03*
X0052500Y0229811D03*
X0038500Y0225811D03*
X0035500Y0225811D03*
X0032500Y0225811D03*
X0032500Y0219811D03*
X0035500Y0219811D03*
X0038500Y0219811D03*
X0046500Y0215811D03*
X0049500Y0215811D03*
X0052500Y0215811D03*
X0052500Y0209811D03*
X0049500Y0209811D03*
X0046500Y0209811D03*
X0038500Y0205811D03*
X0035500Y0205811D03*
X0032500Y0205811D03*
X0032500Y0199811D03*
X0035500Y0199811D03*
X0038500Y0199811D03*
X0046500Y0175811D03*
X0049500Y0175811D03*
X0052500Y0175811D03*
X0052500Y0169811D03*
X0049500Y0169811D03*
X0046500Y0169811D03*
X0038500Y0155811D03*
X0035500Y0155811D03*
X0032500Y0155811D03*
X0032500Y0149811D03*
X0035500Y0149811D03*
X0038500Y0149811D03*
X0046500Y0145811D03*
X0049500Y0145811D03*
X0052500Y0145811D03*
X0052500Y0139811D03*
X0049500Y0139811D03*
X0046500Y0139811D03*
X0038500Y0135811D03*
X0035500Y0135811D03*
X0032500Y0135811D03*
X0032500Y0129811D03*
X0035500Y0129811D03*
X0038500Y0129811D03*
X0046500Y0125811D03*
X0049500Y0125811D03*
X0052500Y0125811D03*
X0052500Y0119811D03*
X0049500Y0119811D03*
X0046500Y0119811D03*
X0038500Y0115811D03*
X0035500Y0115811D03*
X0032500Y0115811D03*
X0032500Y0109811D03*
X0035500Y0109811D03*
X0038500Y0109811D03*
X0046500Y0105811D03*
X0049500Y0105811D03*
X0052500Y0105811D03*
X0052500Y0099811D03*
X0049500Y0099811D03*
X0046500Y0099811D03*
X0129500Y0104311D03*
X0129500Y0107311D03*
X0129500Y0110311D03*
X0135500Y0110311D03*
X0135500Y0107311D03*
X0135500Y0104311D03*
X0149500Y0091311D03*
X0149500Y0088311D03*
X0149500Y0085311D03*
X0155500Y0085311D03*
X0155500Y0088311D03*
X0155500Y0091311D03*
X0236000Y0099811D03*
X0239000Y0099811D03*
X0242000Y0099811D03*
X0242000Y0105811D03*
X0239000Y0105811D03*
X0236000Y0105811D03*
X0228500Y0169811D03*
X0225500Y0169811D03*
X0222500Y0169811D03*
X0222500Y0175811D03*
X0225500Y0175811D03*
X0228500Y0175811D03*
X0228500Y0194811D03*
X0225500Y0194811D03*
X0222500Y0194811D03*
X0222500Y0200811D03*
X0225500Y0200811D03*
X0228500Y0200811D03*
X0236500Y0264811D03*
X0239500Y0264811D03*
X0242500Y0264811D03*
X0242500Y0270811D03*
X0239500Y0270811D03*
X0236500Y0270811D03*
X0228500Y0274811D03*
X0225500Y0274811D03*
X0222500Y0274811D03*
X0222500Y0280811D03*
X0225500Y0280811D03*
X0228500Y0280811D03*
X0038500Y0245811D03*
X0035500Y0245811D03*
X0032500Y0245811D03*
X0032500Y0239811D03*
X0035500Y0239811D03*
X0038500Y0239811D03*
D18*
X0113000Y0273811D02*
X0182500Y0273811D01*
X0189000Y0280311D01*
X0189000Y0319811D01*
X0297500Y0317811D02*
X0297500Y0277811D01*
X0297500Y0257811D01*
X0297500Y0217811D01*
X0297500Y0197811D01*
X0297500Y0157811D01*
X0297500Y0137811D01*
X0297500Y0097811D01*
X0297500Y0077811D01*
X0297500Y0037811D01*
X0307500Y0037811D02*
X0307500Y0077811D01*
X0307500Y0097811D01*
X0307500Y0137811D01*
X0307500Y0157811D01*
X0307500Y0197811D01*
X0307500Y0217811D01*
X0307500Y0257811D01*
X0307500Y0277811D01*
X0307500Y0317811D01*
X0332500Y0312811D02*
X0372500Y0312811D01*
X0372500Y0322811D02*
X0332500Y0322811D01*
X0332500Y0302811D02*
X0372500Y0302811D01*
X0372500Y0292811D02*
X0332500Y0292811D01*
X0332500Y0282811D02*
X0372500Y0282811D01*
X0372500Y0272811D02*
X0332500Y0272811D01*
X0332500Y0262811D02*
X0372500Y0262811D01*
X0372500Y0252811D02*
X0332500Y0252811D01*
X0332500Y0242811D02*
X0372500Y0242811D01*
X0372500Y0232811D02*
X0332500Y0232811D01*
X0332500Y0222811D02*
X0372500Y0222811D01*
X0372500Y0212811D02*
X0332500Y0212811D01*
X0332500Y0202811D02*
X0372500Y0202811D01*
X0372500Y0192811D02*
X0332500Y0192811D01*
X0332500Y0182811D02*
X0372500Y0182811D01*
X0372500Y0172811D02*
X0332500Y0172811D01*
X0332500Y0162811D02*
X0372500Y0162811D01*
X0372500Y0152811D02*
X0332500Y0152811D01*
X0332500Y0142811D02*
X0372500Y0142811D01*
X0372500Y0132811D02*
X0332500Y0132811D01*
X0332500Y0122811D02*
X0372500Y0122811D01*
X0372500Y0112811D02*
X0332500Y0112811D01*
X0332500Y0102811D02*
X0372500Y0102811D01*
X0372500Y0092811D02*
X0332500Y0092811D01*
X0332500Y0082811D02*
X0372500Y0082811D01*
X0372500Y0072811D02*
X0332500Y0072811D01*
X0332500Y0062811D02*
X0372500Y0062811D01*
X0372500Y0052811D02*
X0332500Y0052811D01*
X0332500Y0042811D02*
X0372500Y0042811D01*
X0372500Y0032811D02*
X0332500Y0032811D01*
X0402500Y0032811D02*
X0442500Y0032811D01*
X0442500Y0042811D02*
X0402500Y0042811D01*
X0402500Y0052811D02*
X0442500Y0052811D01*
X0442500Y0062811D02*
X0402500Y0062811D01*
X0402500Y0072811D02*
X0442500Y0072811D01*
X0442500Y0082811D02*
X0402500Y0082811D01*
X0402500Y0092811D02*
X0442500Y0092811D01*
X0442500Y0102811D02*
X0402500Y0102811D01*
X0402500Y0112811D02*
X0442500Y0112811D01*
X0442500Y0122811D02*
X0402500Y0122811D01*
X0402500Y0132811D02*
X0442500Y0132811D01*
X0442500Y0142811D02*
X0402500Y0142811D01*
X0402500Y0152811D02*
X0442500Y0152811D01*
X0442500Y0162811D02*
X0402500Y0162811D01*
X0402500Y0172811D02*
X0442500Y0172811D01*
X0442500Y0182811D02*
X0402500Y0182811D01*
X0402500Y0192811D02*
X0442500Y0192811D01*
X0442500Y0202811D02*
X0402500Y0202811D01*
X0402500Y0212811D02*
X0442500Y0212811D01*
X0442500Y0222811D02*
X0402500Y0222811D01*
X0402500Y0232811D02*
X0442500Y0232811D01*
X0442500Y0242811D02*
X0402500Y0242811D01*
X0402500Y0252811D02*
X0442500Y0252811D01*
X0442500Y0262811D02*
X0402500Y0262811D01*
X0402500Y0272811D02*
X0442500Y0272811D01*
X0442500Y0282811D02*
X0402500Y0282811D01*
X0402500Y0292811D02*
X0442500Y0292811D01*
X0442500Y0302811D02*
X0402500Y0302811D01*
X0402500Y0312811D02*
X0442500Y0312811D01*
X0442500Y0322811D02*
X0402500Y0322811D01*
X0467500Y0317811D02*
X0467500Y0277811D01*
X0467500Y0257811D01*
X0467500Y0217811D01*
X0467500Y0197811D01*
X0467500Y0157811D01*
X0467500Y0137811D01*
X0467500Y0097811D01*
X0467500Y0077811D01*
X0467500Y0037811D01*
X0477500Y0037811D02*
X0477500Y0077811D01*
X0477500Y0097811D01*
X0477500Y0137811D01*
X0477500Y0157811D01*
X0477500Y0197811D01*
X0477500Y0217811D01*
X0477500Y0257811D01*
X0477500Y0277811D01*
X0477500Y0317811D01*
D19*
X0212500Y0345311D03*
X0203000Y0309811D03*
X0149000Y0333311D03*
X0122500Y0288811D03*
X0082500Y0310811D03*
X0080500Y0330311D03*
X0055000Y0281311D03*
X0051000Y0281311D03*
X0028000Y0251811D03*
X0058000Y0232811D03*
X0093000Y0246811D03*
X0093000Y0251311D03*
X0134500Y0235811D03*
X0134500Y0230811D03*
X0134500Y0225811D03*
X0106500Y0192811D03*
X0110500Y0189311D03*
X0102500Y0188811D03*
X0080500Y0175311D03*
X0088000Y0163311D03*
X0053500Y0202811D03*
X0168500Y0260811D03*
X0168500Y0265811D03*
X0170000Y0117811D03*
D20*
X0297500Y0117811D03*
X0307500Y0117811D03*
X0307500Y0107811D03*
X0297500Y0107811D03*
X0297500Y0097811D03*
X0307500Y0097811D03*
X0332500Y0092811D03*
X0342500Y0092811D03*
X0352500Y0092811D03*
X0362500Y0092811D03*
X0372500Y0092811D03*
X0372500Y0082811D03*
X0372500Y0072811D03*
X0362500Y0072811D03*
X0352500Y0072811D03*
X0342500Y0072811D03*
X0332500Y0072811D03*
X0332500Y0082811D03*
X0342500Y0082811D03*
X0352500Y0082811D03*
X0362500Y0082811D03*
X0362500Y0062811D03*
X0352500Y0062811D03*
X0342500Y0062811D03*
X0332500Y0062811D03*
X0332500Y0052811D03*
X0342500Y0052811D03*
X0352500Y0052811D03*
X0362500Y0052811D03*
X0372500Y0052811D03*
X0372500Y0042811D03*
X0372500Y0032811D03*
X0362500Y0032811D03*
X0352500Y0032811D03*
X0342500Y0032811D03*
X0332500Y0032811D03*
X0332500Y0042811D03*
X0342500Y0042811D03*
X0352500Y0042811D03*
X0362500Y0042811D03*
X0372500Y0062811D03*
X0402500Y0062811D03*
X0412500Y0062811D03*
X0422500Y0062811D03*
X0432500Y0062811D03*
X0442500Y0062811D03*
X0442500Y0052811D03*
X0432500Y0052811D03*
X0422500Y0052811D03*
X0412500Y0052811D03*
X0402500Y0052811D03*
X0402500Y0042811D03*
X0402500Y0032811D03*
X0412500Y0032811D03*
X0422500Y0032811D03*
X0432500Y0032811D03*
X0442500Y0032811D03*
X0442500Y0042811D03*
X0432500Y0042811D03*
X0422500Y0042811D03*
X0412500Y0042811D03*
X0412500Y0072811D03*
X0402500Y0072811D03*
X0402500Y0082811D03*
X0412500Y0082811D03*
X0422500Y0082811D03*
X0422500Y0072811D03*
X0432500Y0072811D03*
X0442500Y0072811D03*
X0442500Y0082811D03*
X0432500Y0082811D03*
X0432500Y0092811D03*
X0422500Y0092811D03*
X0412500Y0092811D03*
X0402500Y0092811D03*
X0402500Y0102811D03*
X0412500Y0102811D03*
X0422500Y0102811D03*
X0432500Y0102811D03*
X0442500Y0102811D03*
X0442500Y0092811D03*
X0467500Y0097811D03*
X0477500Y0097811D03*
X0477500Y0107811D03*
X0467500Y0107811D03*
X0467500Y0117811D03*
X0477500Y0117811D03*
X0477500Y0127811D03*
X0467500Y0127811D03*
X0467500Y0137811D03*
X0477500Y0137811D03*
X0477500Y0157811D03*
X0467500Y0157811D03*
X0467500Y0167811D03*
X0477500Y0167811D03*
X0477500Y0177811D03*
X0467500Y0177811D03*
X0467500Y0187811D03*
X0477500Y0187811D03*
X0477500Y0197811D03*
X0467500Y0197811D03*
X0442500Y0192811D03*
X0432500Y0192811D03*
X0422500Y0192811D03*
X0412500Y0192811D03*
X0402500Y0192811D03*
X0402500Y0202811D03*
X0412500Y0202811D03*
X0422500Y0202811D03*
X0432500Y0202811D03*
X0442500Y0202811D03*
X0442500Y0212811D03*
X0432500Y0212811D03*
X0422500Y0212811D03*
X0412500Y0212811D03*
X0402500Y0212811D03*
X0402500Y0222811D03*
X0412500Y0222811D03*
X0422500Y0222811D03*
X0432500Y0222811D03*
X0442500Y0222811D03*
X0442500Y0232811D03*
X0432500Y0232811D03*
X0422500Y0232811D03*
X0412500Y0232811D03*
X0402500Y0232811D03*
X0402500Y0242811D03*
X0412500Y0242811D03*
X0422500Y0242811D03*
X0432500Y0242811D03*
X0442500Y0242811D03*
X0442500Y0252811D03*
X0432500Y0252811D03*
X0422500Y0252811D03*
X0412500Y0252811D03*
X0402500Y0252811D03*
X0402500Y0262811D03*
X0412500Y0262811D03*
X0422500Y0262811D03*
X0432500Y0262811D03*
X0442500Y0262811D03*
X0442500Y0272811D03*
X0432500Y0272811D03*
X0422500Y0272811D03*
X0412500Y0272811D03*
X0402500Y0272811D03*
X0402500Y0282811D03*
X0412500Y0282811D03*
X0422500Y0282811D03*
X0432500Y0282811D03*
X0442500Y0282811D03*
X0442500Y0292811D03*
X0432500Y0292811D03*
X0422500Y0292811D03*
X0412500Y0292811D03*
X0402500Y0292811D03*
X0402500Y0302811D03*
X0412500Y0302811D03*
X0422500Y0302811D03*
X0432500Y0302811D03*
X0442500Y0302811D03*
X0442500Y0312811D03*
X0432500Y0312811D03*
X0422500Y0312811D03*
X0412500Y0312811D03*
X0402500Y0312811D03*
X0402500Y0322811D03*
X0412500Y0322811D03*
X0422500Y0322811D03*
X0432500Y0322811D03*
X0442500Y0322811D03*
X0467500Y0317811D03*
X0477500Y0317811D03*
X0477500Y0307811D03*
X0477500Y0297811D03*
X0467500Y0297811D03*
X0467500Y0307811D03*
X0467500Y0287811D03*
X0477500Y0287811D03*
X0477500Y0277811D03*
X0467500Y0277811D03*
X0467500Y0257811D03*
X0467500Y0247811D03*
X0477500Y0247811D03*
X0477500Y0257811D03*
X0477500Y0237811D03*
X0467500Y0237811D03*
X0467500Y0227811D03*
X0477500Y0227811D03*
X0477500Y0217811D03*
X0467500Y0217811D03*
X0442500Y0182811D03*
X0432500Y0182811D03*
X0422500Y0182811D03*
X0412500Y0182811D03*
X0402500Y0182811D03*
X0402500Y0172811D03*
X0412500Y0172811D03*
X0422500Y0172811D03*
X0432500Y0172811D03*
X0442500Y0172811D03*
X0442500Y0162811D03*
X0442500Y0152811D03*
X0432500Y0152811D03*
X0422500Y0152811D03*
X0412500Y0152811D03*
X0402500Y0152811D03*
X0402500Y0162811D03*
X0412500Y0162811D03*
X0422500Y0162811D03*
X0432500Y0162811D03*
X0432500Y0142811D03*
X0422500Y0142811D03*
X0412500Y0142811D03*
X0402500Y0142811D03*
X0402500Y0132811D03*
X0412500Y0132811D03*
X0422500Y0132811D03*
X0432500Y0132811D03*
X0442500Y0132811D03*
X0442500Y0122811D03*
X0442500Y0112811D03*
X0432500Y0112811D03*
X0422500Y0112811D03*
X0412500Y0112811D03*
X0402500Y0112811D03*
X0402500Y0122811D03*
X0412500Y0122811D03*
X0422500Y0122811D03*
X0432500Y0122811D03*
X0442500Y0142811D03*
X0372500Y0142811D03*
X0362500Y0142811D03*
X0352500Y0142811D03*
X0342500Y0142811D03*
X0332500Y0142811D03*
X0332500Y0132811D03*
X0342500Y0132811D03*
X0352500Y0132811D03*
X0362500Y0132811D03*
X0372500Y0132811D03*
X0372500Y0122811D03*
X0372500Y0112811D03*
X0362500Y0112811D03*
X0352500Y0112811D03*
X0342500Y0112811D03*
X0332500Y0112811D03*
X0332500Y0122811D03*
X0342500Y0122811D03*
X0352500Y0122811D03*
X0362500Y0122811D03*
X0362500Y0102811D03*
X0352500Y0102811D03*
X0342500Y0102811D03*
X0332500Y0102811D03*
X0307500Y0077811D03*
X0297500Y0077811D03*
X0297500Y0067811D03*
X0307500Y0067811D03*
X0307500Y0057811D03*
X0307500Y0047811D03*
X0297500Y0047811D03*
X0297500Y0057811D03*
X0297500Y0037811D03*
X0307500Y0037811D03*
X0372500Y0102811D03*
X0307500Y0127811D03*
X0297500Y0127811D03*
X0297500Y0137811D03*
X0307500Y0137811D03*
X0332500Y0152811D03*
X0342500Y0152811D03*
X0352500Y0152811D03*
X0362500Y0152811D03*
X0372500Y0152811D03*
X0372500Y0162811D03*
X0362500Y0162811D03*
X0352500Y0162811D03*
X0342500Y0162811D03*
X0332500Y0162811D03*
X0332500Y0172811D03*
X0342500Y0172811D03*
X0352500Y0172811D03*
X0362500Y0172811D03*
X0372500Y0172811D03*
X0372500Y0182811D03*
X0362500Y0182811D03*
X0352500Y0182811D03*
X0342500Y0182811D03*
X0332500Y0182811D03*
X0332500Y0192811D03*
X0342500Y0192811D03*
X0352500Y0192811D03*
X0362500Y0192811D03*
X0372500Y0192811D03*
X0372500Y0202811D03*
X0362500Y0202811D03*
X0352500Y0202811D03*
X0342500Y0202811D03*
X0332500Y0202811D03*
X0332500Y0212811D03*
X0342500Y0212811D03*
X0352500Y0212811D03*
X0362500Y0212811D03*
X0372500Y0212811D03*
X0372500Y0222811D03*
X0362500Y0222811D03*
X0352500Y0222811D03*
X0342500Y0222811D03*
X0332500Y0222811D03*
X0332500Y0232811D03*
X0342500Y0232811D03*
X0352500Y0232811D03*
X0362500Y0232811D03*
X0372500Y0232811D03*
X0372500Y0242811D03*
X0362500Y0242811D03*
X0352500Y0242811D03*
X0342500Y0242811D03*
X0332500Y0242811D03*
X0332500Y0252811D03*
X0342500Y0252811D03*
X0352500Y0252811D03*
X0362500Y0252811D03*
X0372500Y0252811D03*
X0372500Y0262811D03*
X0362500Y0262811D03*
X0352500Y0262811D03*
X0342500Y0262811D03*
X0332500Y0262811D03*
X0332500Y0272811D03*
X0342500Y0272811D03*
X0352500Y0272811D03*
X0362500Y0272811D03*
X0372500Y0272811D03*
X0372500Y0282811D03*
X0362500Y0282811D03*
X0352500Y0282811D03*
X0342500Y0282811D03*
X0332500Y0282811D03*
X0332500Y0292811D03*
X0342500Y0292811D03*
X0352500Y0292811D03*
X0362500Y0292811D03*
X0372500Y0292811D03*
X0372500Y0302811D03*
X0362500Y0302811D03*
X0352500Y0302811D03*
X0342500Y0302811D03*
X0332500Y0302811D03*
X0332500Y0312811D03*
X0342500Y0312811D03*
X0352500Y0312811D03*
X0362500Y0312811D03*
X0372500Y0312811D03*
X0372500Y0322811D03*
X0362500Y0322811D03*
X0352500Y0322811D03*
X0342500Y0322811D03*
X0332500Y0322811D03*
X0307500Y0317811D03*
X0297500Y0317811D03*
X0297500Y0307811D03*
X0297500Y0297811D03*
X0307500Y0297811D03*
X0307500Y0307811D03*
X0307500Y0287811D03*
X0297500Y0287811D03*
X0297500Y0277811D03*
X0307500Y0277811D03*
X0307500Y0257811D03*
X0307500Y0247811D03*
X0297500Y0247811D03*
X0297500Y0257811D03*
X0297500Y0237811D03*
X0307500Y0237811D03*
X0307500Y0227811D03*
X0297500Y0227811D03*
X0297500Y0217811D03*
X0307500Y0217811D03*
X0307500Y0197811D03*
X0297500Y0197811D03*
X0297500Y0187811D03*
X0307500Y0187811D03*
X0307500Y0177811D03*
X0307500Y0167811D03*
X0297500Y0167811D03*
X0297500Y0177811D03*
X0297500Y0157811D03*
X0307500Y0157811D03*
X0467500Y0077811D03*
X0477500Y0077811D03*
X0477500Y0067811D03*
X0467500Y0067811D03*
X0467500Y0057811D03*
X0467500Y0047811D03*
X0477500Y0047811D03*
X0477500Y0057811D03*
X0477500Y0037811D03*
X0467500Y0037811D03*
M02*
