G75*
%MOIN*%
%OFA0B0*%
%FSLAX25Y25*%
%IPPOS*%
%LPD*%
%AMOC8*
5,1,8,0,0,1.08239X$1,22.5*
%
%ADD10C,0.00000*%
%ADD11C,0.00500*%
%ADD12C,0.00800*%
%ADD13C,0.00300*%
%ADD14C,0.00400*%
D10*
X0017500Y0006811D02*
X0017500Y0078811D01*
X0017502Y0078937D01*
X0017508Y0079062D01*
X0017518Y0079187D01*
X0017532Y0079312D01*
X0017549Y0079437D01*
X0017571Y0079561D01*
X0017596Y0079684D01*
X0017626Y0079806D01*
X0017659Y0079927D01*
X0017696Y0080047D01*
X0017736Y0080166D01*
X0017781Y0080283D01*
X0017829Y0080400D01*
X0017881Y0080514D01*
X0017936Y0080627D01*
X0017995Y0080738D01*
X0018057Y0080847D01*
X0018123Y0080954D01*
X0018192Y0081059D01*
X0018264Y0081162D01*
X0018339Y0081263D01*
X0018418Y0081361D01*
X0018500Y0081456D01*
X0018584Y0081549D01*
X0018672Y0081639D01*
X0018762Y0081727D01*
X0018855Y0081811D01*
X0018950Y0081893D01*
X0019048Y0081972D01*
X0019149Y0082047D01*
X0019252Y0082119D01*
X0019357Y0082188D01*
X0019464Y0082254D01*
X0019573Y0082316D01*
X0019684Y0082375D01*
X0019797Y0082430D01*
X0019911Y0082482D01*
X0020028Y0082530D01*
X0020145Y0082575D01*
X0020264Y0082615D01*
X0020384Y0082652D01*
X0020505Y0082685D01*
X0020627Y0082715D01*
X0020750Y0082740D01*
X0020874Y0082762D01*
X0020999Y0082779D01*
X0021124Y0082793D01*
X0021249Y0082803D01*
X0021374Y0082809D01*
X0021500Y0082811D01*
X0021500Y0092811D01*
X0019925Y0093811D02*
X0019927Y0093890D01*
X0019933Y0093969D01*
X0019943Y0094048D01*
X0019957Y0094126D01*
X0019974Y0094203D01*
X0019996Y0094279D01*
X0020021Y0094354D01*
X0020051Y0094427D01*
X0020083Y0094499D01*
X0020120Y0094570D01*
X0020160Y0094638D01*
X0020203Y0094704D01*
X0020249Y0094768D01*
X0020299Y0094830D01*
X0020352Y0094889D01*
X0020407Y0094945D01*
X0020466Y0094999D01*
X0020527Y0095049D01*
X0020590Y0095097D01*
X0020656Y0095141D01*
X0020724Y0095182D01*
X0020794Y0095219D01*
X0020865Y0095253D01*
X0020939Y0095283D01*
X0021013Y0095309D01*
X0021089Y0095331D01*
X0021166Y0095350D01*
X0021244Y0095365D01*
X0021322Y0095376D01*
X0021401Y0095383D01*
X0021480Y0095386D01*
X0021559Y0095385D01*
X0021638Y0095380D01*
X0021717Y0095371D01*
X0021795Y0095358D01*
X0021872Y0095341D01*
X0021949Y0095321D01*
X0022024Y0095296D01*
X0022098Y0095268D01*
X0022171Y0095236D01*
X0022241Y0095201D01*
X0022310Y0095162D01*
X0022377Y0095119D01*
X0022442Y0095073D01*
X0022504Y0095025D01*
X0022564Y0094973D01*
X0022621Y0094918D01*
X0022675Y0094860D01*
X0022726Y0094800D01*
X0022774Y0094737D01*
X0022819Y0094672D01*
X0022861Y0094604D01*
X0022899Y0094535D01*
X0022933Y0094464D01*
X0022964Y0094391D01*
X0022992Y0094316D01*
X0023015Y0094241D01*
X0023035Y0094164D01*
X0023051Y0094087D01*
X0023063Y0094008D01*
X0023071Y0093930D01*
X0023075Y0093851D01*
X0023075Y0093771D01*
X0023071Y0093692D01*
X0023063Y0093614D01*
X0023051Y0093535D01*
X0023035Y0093458D01*
X0023015Y0093381D01*
X0022992Y0093306D01*
X0022964Y0093231D01*
X0022933Y0093158D01*
X0022899Y0093087D01*
X0022861Y0093018D01*
X0022819Y0092950D01*
X0022774Y0092885D01*
X0022726Y0092822D01*
X0022675Y0092762D01*
X0022621Y0092704D01*
X0022564Y0092649D01*
X0022504Y0092597D01*
X0022442Y0092549D01*
X0022377Y0092503D01*
X0022310Y0092460D01*
X0022241Y0092421D01*
X0022171Y0092386D01*
X0022098Y0092354D01*
X0022024Y0092326D01*
X0021949Y0092301D01*
X0021872Y0092281D01*
X0021795Y0092264D01*
X0021717Y0092251D01*
X0021638Y0092242D01*
X0021559Y0092237D01*
X0021480Y0092236D01*
X0021401Y0092239D01*
X0021322Y0092246D01*
X0021244Y0092257D01*
X0021166Y0092272D01*
X0021089Y0092291D01*
X0021013Y0092313D01*
X0020939Y0092339D01*
X0020865Y0092369D01*
X0020794Y0092403D01*
X0020724Y0092440D01*
X0020656Y0092481D01*
X0020590Y0092525D01*
X0020527Y0092573D01*
X0020466Y0092623D01*
X0020407Y0092677D01*
X0020352Y0092733D01*
X0020299Y0092792D01*
X0020249Y0092854D01*
X0020203Y0092918D01*
X0020160Y0092984D01*
X0020120Y0093052D01*
X0020083Y0093123D01*
X0020051Y0093195D01*
X0020021Y0093268D01*
X0019996Y0093343D01*
X0019974Y0093419D01*
X0019957Y0093496D01*
X0019943Y0093574D01*
X0019933Y0093653D01*
X0019927Y0093732D01*
X0019925Y0093811D01*
X0021500Y0092811D02*
X0021374Y0092813D01*
X0021249Y0092819D01*
X0021124Y0092829D01*
X0020999Y0092843D01*
X0020874Y0092860D01*
X0020750Y0092882D01*
X0020627Y0092907D01*
X0020505Y0092937D01*
X0020384Y0092970D01*
X0020264Y0093007D01*
X0020145Y0093047D01*
X0020028Y0093092D01*
X0019911Y0093140D01*
X0019797Y0093192D01*
X0019684Y0093247D01*
X0019573Y0093306D01*
X0019464Y0093368D01*
X0019357Y0093434D01*
X0019252Y0093503D01*
X0019149Y0093575D01*
X0019048Y0093650D01*
X0018950Y0093729D01*
X0018855Y0093811D01*
X0018762Y0093895D01*
X0018672Y0093983D01*
X0018584Y0094073D01*
X0018500Y0094166D01*
X0018418Y0094261D01*
X0018339Y0094359D01*
X0018264Y0094460D01*
X0018192Y0094563D01*
X0018123Y0094668D01*
X0018057Y0094775D01*
X0017995Y0094884D01*
X0017936Y0094995D01*
X0017881Y0095108D01*
X0017829Y0095222D01*
X0017781Y0095339D01*
X0017736Y0095456D01*
X0017696Y0095575D01*
X0017659Y0095695D01*
X0017626Y0095816D01*
X0017596Y0095938D01*
X0017571Y0096061D01*
X0017549Y0096185D01*
X0017532Y0096310D01*
X0017518Y0096435D01*
X0017508Y0096560D01*
X0017502Y0096685D01*
X0017500Y0096811D01*
X0017500Y0348811D01*
X0017502Y0348937D01*
X0017508Y0349062D01*
X0017518Y0349187D01*
X0017532Y0349312D01*
X0017549Y0349437D01*
X0017571Y0349561D01*
X0017596Y0349684D01*
X0017626Y0349806D01*
X0017659Y0349927D01*
X0017696Y0350047D01*
X0017736Y0350166D01*
X0017781Y0350283D01*
X0017829Y0350400D01*
X0017881Y0350514D01*
X0017936Y0350627D01*
X0017995Y0350738D01*
X0018057Y0350847D01*
X0018123Y0350954D01*
X0018192Y0351059D01*
X0018264Y0351162D01*
X0018339Y0351263D01*
X0018418Y0351361D01*
X0018500Y0351456D01*
X0018584Y0351549D01*
X0018672Y0351639D01*
X0018762Y0351727D01*
X0018855Y0351811D01*
X0018950Y0351893D01*
X0019048Y0351972D01*
X0019149Y0352047D01*
X0019252Y0352119D01*
X0019357Y0352188D01*
X0019464Y0352254D01*
X0019573Y0352316D01*
X0019684Y0352375D01*
X0019797Y0352430D01*
X0019911Y0352482D01*
X0020028Y0352530D01*
X0020145Y0352575D01*
X0020264Y0352615D01*
X0020384Y0352652D01*
X0020505Y0352685D01*
X0020627Y0352715D01*
X0020750Y0352740D01*
X0020874Y0352762D01*
X0020999Y0352779D01*
X0021124Y0352793D01*
X0021249Y0352803D01*
X0021374Y0352809D01*
X0021500Y0352811D01*
X0171000Y0352811D01*
X0174000Y0349811D01*
X0191000Y0349811D01*
X0194000Y0352811D01*
X0255500Y0352811D01*
X0255626Y0352809D01*
X0255751Y0352803D01*
X0255876Y0352793D01*
X0256001Y0352779D01*
X0256126Y0352762D01*
X0256250Y0352740D01*
X0256373Y0352715D01*
X0256495Y0352685D01*
X0256616Y0352652D01*
X0256736Y0352615D01*
X0256855Y0352575D01*
X0256972Y0352530D01*
X0257089Y0352482D01*
X0257203Y0352430D01*
X0257316Y0352375D01*
X0257427Y0352316D01*
X0257536Y0352254D01*
X0257643Y0352188D01*
X0257748Y0352119D01*
X0257851Y0352047D01*
X0257952Y0351972D01*
X0258050Y0351893D01*
X0258145Y0351811D01*
X0258238Y0351727D01*
X0258328Y0351639D01*
X0258416Y0351549D01*
X0258500Y0351456D01*
X0258582Y0351361D01*
X0258661Y0351263D01*
X0258736Y0351162D01*
X0258808Y0351059D01*
X0258877Y0350954D01*
X0258943Y0350847D01*
X0259005Y0350738D01*
X0259064Y0350627D01*
X0259119Y0350514D01*
X0259171Y0350400D01*
X0259219Y0350283D01*
X0259264Y0350166D01*
X0259304Y0350047D01*
X0259341Y0349927D01*
X0259374Y0349806D01*
X0259404Y0349684D01*
X0259429Y0349561D01*
X0259451Y0349437D01*
X0259468Y0349312D01*
X0259482Y0349187D01*
X0259492Y0349062D01*
X0259498Y0348937D01*
X0259500Y0348811D01*
X0259500Y0325811D01*
X0265500Y0325811D01*
X0265626Y0325813D01*
X0265751Y0325819D01*
X0265876Y0325829D01*
X0266001Y0325843D01*
X0266126Y0325860D01*
X0266250Y0325882D01*
X0266373Y0325907D01*
X0266495Y0325937D01*
X0266616Y0325970D01*
X0266736Y0326007D01*
X0266855Y0326047D01*
X0266972Y0326092D01*
X0267089Y0326140D01*
X0267203Y0326192D01*
X0267316Y0326247D01*
X0267427Y0326306D01*
X0267536Y0326368D01*
X0267643Y0326434D01*
X0267748Y0326503D01*
X0267851Y0326575D01*
X0267952Y0326650D01*
X0268050Y0326729D01*
X0268145Y0326811D01*
X0268238Y0326895D01*
X0268328Y0326983D01*
X0268416Y0327073D01*
X0268500Y0327166D01*
X0268582Y0327261D01*
X0268661Y0327359D01*
X0268736Y0327460D01*
X0268808Y0327563D01*
X0268877Y0327668D01*
X0268943Y0327775D01*
X0269005Y0327884D01*
X0269064Y0327995D01*
X0269119Y0328108D01*
X0269171Y0328222D01*
X0269219Y0328339D01*
X0269264Y0328456D01*
X0269304Y0328575D01*
X0269341Y0328695D01*
X0269374Y0328816D01*
X0269404Y0328938D01*
X0269429Y0329061D01*
X0269451Y0329185D01*
X0269468Y0329310D01*
X0269482Y0329435D01*
X0269492Y0329560D01*
X0269498Y0329685D01*
X0269500Y0329811D01*
X0269500Y0348811D01*
X0269502Y0348937D01*
X0269508Y0349062D01*
X0269518Y0349187D01*
X0269532Y0349312D01*
X0269549Y0349437D01*
X0269571Y0349561D01*
X0269596Y0349684D01*
X0269626Y0349806D01*
X0269659Y0349927D01*
X0269696Y0350047D01*
X0269736Y0350166D01*
X0269781Y0350283D01*
X0269829Y0350400D01*
X0269881Y0350514D01*
X0269936Y0350627D01*
X0269995Y0350738D01*
X0270057Y0350847D01*
X0270123Y0350954D01*
X0270192Y0351059D01*
X0270264Y0351162D01*
X0270339Y0351263D01*
X0270418Y0351361D01*
X0270500Y0351456D01*
X0270584Y0351549D01*
X0270672Y0351639D01*
X0270762Y0351727D01*
X0270855Y0351811D01*
X0270950Y0351893D01*
X0271048Y0351972D01*
X0271149Y0352047D01*
X0271252Y0352119D01*
X0271357Y0352188D01*
X0271464Y0352254D01*
X0271573Y0352316D01*
X0271684Y0352375D01*
X0271797Y0352430D01*
X0271911Y0352482D01*
X0272028Y0352530D01*
X0272145Y0352575D01*
X0272264Y0352615D01*
X0272384Y0352652D01*
X0272505Y0352685D01*
X0272627Y0352715D01*
X0272750Y0352740D01*
X0272874Y0352762D01*
X0272999Y0352779D01*
X0273124Y0352793D01*
X0273249Y0352803D01*
X0273374Y0352809D01*
X0273500Y0352811D01*
X0513500Y0352811D01*
X0513626Y0352809D01*
X0513751Y0352803D01*
X0513876Y0352793D01*
X0514001Y0352779D01*
X0514126Y0352762D01*
X0514250Y0352740D01*
X0514373Y0352715D01*
X0514495Y0352685D01*
X0514616Y0352652D01*
X0514736Y0352615D01*
X0514855Y0352575D01*
X0514972Y0352530D01*
X0515089Y0352482D01*
X0515203Y0352430D01*
X0515316Y0352375D01*
X0515427Y0352316D01*
X0515536Y0352254D01*
X0515643Y0352188D01*
X0515748Y0352119D01*
X0515851Y0352047D01*
X0515952Y0351972D01*
X0516050Y0351893D01*
X0516145Y0351811D01*
X0516238Y0351727D01*
X0516328Y0351639D01*
X0516416Y0351549D01*
X0516500Y0351456D01*
X0516582Y0351361D01*
X0516661Y0351263D01*
X0516736Y0351162D01*
X0516808Y0351059D01*
X0516877Y0350954D01*
X0516943Y0350847D01*
X0517005Y0350738D01*
X0517064Y0350627D01*
X0517119Y0350514D01*
X0517171Y0350400D01*
X0517219Y0350283D01*
X0517264Y0350166D01*
X0517304Y0350047D01*
X0517341Y0349927D01*
X0517374Y0349806D01*
X0517404Y0349684D01*
X0517429Y0349561D01*
X0517451Y0349437D01*
X0517468Y0349312D01*
X0517482Y0349187D01*
X0517492Y0349062D01*
X0517498Y0348937D01*
X0517500Y0348811D01*
X0517500Y0006811D01*
X0517498Y0006685D01*
X0517492Y0006560D01*
X0517482Y0006435D01*
X0517468Y0006310D01*
X0517451Y0006185D01*
X0517429Y0006061D01*
X0517404Y0005938D01*
X0517374Y0005816D01*
X0517341Y0005695D01*
X0517304Y0005575D01*
X0517264Y0005456D01*
X0517219Y0005339D01*
X0517171Y0005222D01*
X0517119Y0005108D01*
X0517064Y0004995D01*
X0517005Y0004884D01*
X0516943Y0004775D01*
X0516877Y0004668D01*
X0516808Y0004563D01*
X0516736Y0004460D01*
X0516661Y0004359D01*
X0516582Y0004261D01*
X0516500Y0004166D01*
X0516416Y0004073D01*
X0516328Y0003983D01*
X0516238Y0003895D01*
X0516145Y0003811D01*
X0516050Y0003729D01*
X0515952Y0003650D01*
X0515851Y0003575D01*
X0515748Y0003503D01*
X0515643Y0003434D01*
X0515536Y0003368D01*
X0515427Y0003306D01*
X0515316Y0003247D01*
X0515203Y0003192D01*
X0515089Y0003140D01*
X0514972Y0003092D01*
X0514855Y0003047D01*
X0514736Y0003007D01*
X0514616Y0002970D01*
X0514495Y0002937D01*
X0514373Y0002907D01*
X0514250Y0002882D01*
X0514126Y0002860D01*
X0514001Y0002843D01*
X0513876Y0002829D01*
X0513751Y0002819D01*
X0513626Y0002813D01*
X0513500Y0002811D01*
X0273500Y0002811D01*
X0273374Y0002813D01*
X0273249Y0002819D01*
X0273124Y0002829D01*
X0272999Y0002843D01*
X0272874Y0002860D01*
X0272750Y0002882D01*
X0272627Y0002907D01*
X0272505Y0002937D01*
X0272384Y0002970D01*
X0272264Y0003007D01*
X0272145Y0003047D01*
X0272028Y0003092D01*
X0271911Y0003140D01*
X0271797Y0003192D01*
X0271684Y0003247D01*
X0271573Y0003306D01*
X0271464Y0003368D01*
X0271357Y0003434D01*
X0271252Y0003503D01*
X0271149Y0003575D01*
X0271048Y0003650D01*
X0270950Y0003729D01*
X0270855Y0003811D01*
X0270762Y0003895D01*
X0270672Y0003983D01*
X0270584Y0004073D01*
X0270500Y0004166D01*
X0270418Y0004261D01*
X0270339Y0004359D01*
X0270264Y0004460D01*
X0270192Y0004563D01*
X0270123Y0004668D01*
X0270057Y0004775D01*
X0269995Y0004884D01*
X0269936Y0004995D01*
X0269881Y0005108D01*
X0269829Y0005222D01*
X0269781Y0005339D01*
X0269736Y0005456D01*
X0269696Y0005575D01*
X0269659Y0005695D01*
X0269626Y0005816D01*
X0269596Y0005938D01*
X0269571Y0006061D01*
X0269549Y0006185D01*
X0269532Y0006310D01*
X0269518Y0006435D01*
X0269508Y0006560D01*
X0269502Y0006685D01*
X0269500Y0006811D01*
X0269500Y0025811D01*
X0269498Y0025937D01*
X0269492Y0026062D01*
X0269482Y0026187D01*
X0269468Y0026312D01*
X0269451Y0026437D01*
X0269429Y0026561D01*
X0269404Y0026684D01*
X0269374Y0026806D01*
X0269341Y0026927D01*
X0269304Y0027047D01*
X0269264Y0027166D01*
X0269219Y0027283D01*
X0269171Y0027400D01*
X0269119Y0027514D01*
X0269064Y0027627D01*
X0269005Y0027738D01*
X0268943Y0027847D01*
X0268877Y0027954D01*
X0268808Y0028059D01*
X0268736Y0028162D01*
X0268661Y0028263D01*
X0268582Y0028361D01*
X0268500Y0028456D01*
X0268416Y0028549D01*
X0268328Y0028639D01*
X0268238Y0028727D01*
X0268145Y0028811D01*
X0268050Y0028893D01*
X0267952Y0028972D01*
X0267851Y0029047D01*
X0267748Y0029119D01*
X0267643Y0029188D01*
X0267536Y0029254D01*
X0267427Y0029316D01*
X0267316Y0029375D01*
X0267203Y0029430D01*
X0267089Y0029482D01*
X0266972Y0029530D01*
X0266855Y0029575D01*
X0266736Y0029615D01*
X0266616Y0029652D01*
X0266495Y0029685D01*
X0266373Y0029715D01*
X0266250Y0029740D01*
X0266126Y0029762D01*
X0266001Y0029779D01*
X0265876Y0029793D01*
X0265751Y0029803D01*
X0265626Y0029809D01*
X0265500Y0029811D01*
X0259500Y0029811D01*
X0259500Y0006811D01*
X0259498Y0006685D01*
X0259492Y0006560D01*
X0259482Y0006435D01*
X0259468Y0006310D01*
X0259451Y0006185D01*
X0259429Y0006061D01*
X0259404Y0005938D01*
X0259374Y0005816D01*
X0259341Y0005695D01*
X0259304Y0005575D01*
X0259264Y0005456D01*
X0259219Y0005339D01*
X0259171Y0005222D01*
X0259119Y0005108D01*
X0259064Y0004995D01*
X0259005Y0004884D01*
X0258943Y0004775D01*
X0258877Y0004668D01*
X0258808Y0004563D01*
X0258736Y0004460D01*
X0258661Y0004359D01*
X0258582Y0004261D01*
X0258500Y0004166D01*
X0258416Y0004073D01*
X0258328Y0003983D01*
X0258238Y0003895D01*
X0258145Y0003811D01*
X0258050Y0003729D01*
X0257952Y0003650D01*
X0257851Y0003575D01*
X0257748Y0003503D01*
X0257643Y0003434D01*
X0257536Y0003368D01*
X0257427Y0003306D01*
X0257316Y0003247D01*
X0257203Y0003192D01*
X0257089Y0003140D01*
X0256972Y0003092D01*
X0256855Y0003047D01*
X0256736Y0003007D01*
X0256616Y0002970D01*
X0256495Y0002937D01*
X0256373Y0002907D01*
X0256250Y0002882D01*
X0256126Y0002860D01*
X0256001Y0002843D01*
X0255876Y0002829D01*
X0255751Y0002819D01*
X0255626Y0002813D01*
X0255500Y0002811D01*
X0021500Y0002811D01*
X0021374Y0002813D01*
X0021249Y0002819D01*
X0021124Y0002829D01*
X0020999Y0002843D01*
X0020874Y0002860D01*
X0020750Y0002882D01*
X0020627Y0002907D01*
X0020505Y0002937D01*
X0020384Y0002970D01*
X0020264Y0003007D01*
X0020145Y0003047D01*
X0020028Y0003092D01*
X0019911Y0003140D01*
X0019797Y0003192D01*
X0019684Y0003247D01*
X0019573Y0003306D01*
X0019464Y0003368D01*
X0019357Y0003434D01*
X0019252Y0003503D01*
X0019149Y0003575D01*
X0019048Y0003650D01*
X0018950Y0003729D01*
X0018855Y0003811D01*
X0018762Y0003895D01*
X0018672Y0003983D01*
X0018584Y0004073D01*
X0018500Y0004166D01*
X0018418Y0004261D01*
X0018339Y0004359D01*
X0018264Y0004460D01*
X0018192Y0004563D01*
X0018123Y0004668D01*
X0018057Y0004775D01*
X0017995Y0004884D01*
X0017936Y0004995D01*
X0017881Y0005108D01*
X0017829Y0005222D01*
X0017781Y0005339D01*
X0017736Y0005456D01*
X0017696Y0005575D01*
X0017659Y0005695D01*
X0017626Y0005816D01*
X0017596Y0005938D01*
X0017571Y0006061D01*
X0017549Y0006185D01*
X0017532Y0006310D01*
X0017518Y0006435D01*
X0017508Y0006560D01*
X0017502Y0006685D01*
X0017500Y0006811D01*
X0048500Y0070811D02*
X0041500Y0077811D01*
X0041500Y0093811D01*
X0043000Y0093811D01*
X0056000Y0080811D01*
X0179500Y0080811D01*
X0191500Y0092811D01*
X0212500Y0092811D01*
X0212500Y0086811D01*
X0212498Y0086685D01*
X0212492Y0086560D01*
X0212482Y0086435D01*
X0212468Y0086310D01*
X0212451Y0086185D01*
X0212429Y0086061D01*
X0212404Y0085938D01*
X0212374Y0085816D01*
X0212341Y0085695D01*
X0212304Y0085575D01*
X0212264Y0085456D01*
X0212219Y0085339D01*
X0212171Y0085222D01*
X0212119Y0085108D01*
X0212064Y0084995D01*
X0212005Y0084884D01*
X0211943Y0084775D01*
X0211877Y0084668D01*
X0211808Y0084563D01*
X0211736Y0084460D01*
X0211661Y0084359D01*
X0211582Y0084261D01*
X0211500Y0084166D01*
X0211416Y0084073D01*
X0211328Y0083983D01*
X0211238Y0083895D01*
X0211145Y0083811D01*
X0211050Y0083729D01*
X0210952Y0083650D01*
X0210851Y0083575D01*
X0210748Y0083503D01*
X0210643Y0083434D01*
X0210536Y0083368D01*
X0210427Y0083306D01*
X0210316Y0083247D01*
X0210203Y0083192D01*
X0210089Y0083140D01*
X0209972Y0083092D01*
X0209855Y0083047D01*
X0209736Y0083007D01*
X0209616Y0082970D01*
X0209495Y0082937D01*
X0209373Y0082907D01*
X0209250Y0082882D01*
X0209126Y0082860D01*
X0209001Y0082843D01*
X0208876Y0082829D01*
X0208751Y0082819D01*
X0208626Y0082813D01*
X0208500Y0082811D01*
X0195500Y0082811D01*
X0183500Y0070811D01*
X0048500Y0070811D01*
X0040925Y0093811D02*
X0040927Y0093890D01*
X0040933Y0093969D01*
X0040943Y0094048D01*
X0040957Y0094126D01*
X0040974Y0094203D01*
X0040996Y0094279D01*
X0041021Y0094354D01*
X0041051Y0094427D01*
X0041083Y0094499D01*
X0041120Y0094570D01*
X0041160Y0094638D01*
X0041203Y0094704D01*
X0041249Y0094768D01*
X0041299Y0094830D01*
X0041352Y0094889D01*
X0041407Y0094945D01*
X0041466Y0094999D01*
X0041527Y0095049D01*
X0041590Y0095097D01*
X0041656Y0095141D01*
X0041724Y0095182D01*
X0041794Y0095219D01*
X0041865Y0095253D01*
X0041939Y0095283D01*
X0042013Y0095309D01*
X0042089Y0095331D01*
X0042166Y0095350D01*
X0042244Y0095365D01*
X0042322Y0095376D01*
X0042401Y0095383D01*
X0042480Y0095386D01*
X0042559Y0095385D01*
X0042638Y0095380D01*
X0042717Y0095371D01*
X0042795Y0095358D01*
X0042872Y0095341D01*
X0042949Y0095321D01*
X0043024Y0095296D01*
X0043098Y0095268D01*
X0043171Y0095236D01*
X0043241Y0095201D01*
X0043310Y0095162D01*
X0043377Y0095119D01*
X0043442Y0095073D01*
X0043504Y0095025D01*
X0043564Y0094973D01*
X0043621Y0094918D01*
X0043675Y0094860D01*
X0043726Y0094800D01*
X0043774Y0094737D01*
X0043819Y0094672D01*
X0043861Y0094604D01*
X0043899Y0094535D01*
X0043933Y0094464D01*
X0043964Y0094391D01*
X0043992Y0094316D01*
X0044015Y0094241D01*
X0044035Y0094164D01*
X0044051Y0094087D01*
X0044063Y0094008D01*
X0044071Y0093930D01*
X0044075Y0093851D01*
X0044075Y0093771D01*
X0044071Y0093692D01*
X0044063Y0093614D01*
X0044051Y0093535D01*
X0044035Y0093458D01*
X0044015Y0093381D01*
X0043992Y0093306D01*
X0043964Y0093231D01*
X0043933Y0093158D01*
X0043899Y0093087D01*
X0043861Y0093018D01*
X0043819Y0092950D01*
X0043774Y0092885D01*
X0043726Y0092822D01*
X0043675Y0092762D01*
X0043621Y0092704D01*
X0043564Y0092649D01*
X0043504Y0092597D01*
X0043442Y0092549D01*
X0043377Y0092503D01*
X0043310Y0092460D01*
X0043241Y0092421D01*
X0043171Y0092386D01*
X0043098Y0092354D01*
X0043024Y0092326D01*
X0042949Y0092301D01*
X0042872Y0092281D01*
X0042795Y0092264D01*
X0042717Y0092251D01*
X0042638Y0092242D01*
X0042559Y0092237D01*
X0042480Y0092236D01*
X0042401Y0092239D01*
X0042322Y0092246D01*
X0042244Y0092257D01*
X0042166Y0092272D01*
X0042089Y0092291D01*
X0042013Y0092313D01*
X0041939Y0092339D01*
X0041865Y0092369D01*
X0041794Y0092403D01*
X0041724Y0092440D01*
X0041656Y0092481D01*
X0041590Y0092525D01*
X0041527Y0092573D01*
X0041466Y0092623D01*
X0041407Y0092677D01*
X0041352Y0092733D01*
X0041299Y0092792D01*
X0041249Y0092854D01*
X0041203Y0092918D01*
X0041160Y0092984D01*
X0041120Y0093052D01*
X0041083Y0093123D01*
X0041051Y0093195D01*
X0041021Y0093268D01*
X0040996Y0093343D01*
X0040974Y0093419D01*
X0040957Y0093496D01*
X0040943Y0093574D01*
X0040933Y0093653D01*
X0040927Y0093732D01*
X0040925Y0093811D01*
X0033925Y0093811D02*
X0033927Y0093890D01*
X0033933Y0093969D01*
X0033943Y0094048D01*
X0033957Y0094126D01*
X0033974Y0094203D01*
X0033996Y0094279D01*
X0034021Y0094354D01*
X0034051Y0094427D01*
X0034083Y0094499D01*
X0034120Y0094570D01*
X0034160Y0094638D01*
X0034203Y0094704D01*
X0034249Y0094768D01*
X0034299Y0094830D01*
X0034352Y0094889D01*
X0034407Y0094945D01*
X0034466Y0094999D01*
X0034527Y0095049D01*
X0034590Y0095097D01*
X0034656Y0095141D01*
X0034724Y0095182D01*
X0034794Y0095219D01*
X0034865Y0095253D01*
X0034939Y0095283D01*
X0035013Y0095309D01*
X0035089Y0095331D01*
X0035166Y0095350D01*
X0035244Y0095365D01*
X0035322Y0095376D01*
X0035401Y0095383D01*
X0035480Y0095386D01*
X0035559Y0095385D01*
X0035638Y0095380D01*
X0035717Y0095371D01*
X0035795Y0095358D01*
X0035872Y0095341D01*
X0035949Y0095321D01*
X0036024Y0095296D01*
X0036098Y0095268D01*
X0036171Y0095236D01*
X0036241Y0095201D01*
X0036310Y0095162D01*
X0036377Y0095119D01*
X0036442Y0095073D01*
X0036504Y0095025D01*
X0036564Y0094973D01*
X0036621Y0094918D01*
X0036675Y0094860D01*
X0036726Y0094800D01*
X0036774Y0094737D01*
X0036819Y0094672D01*
X0036861Y0094604D01*
X0036899Y0094535D01*
X0036933Y0094464D01*
X0036964Y0094391D01*
X0036992Y0094316D01*
X0037015Y0094241D01*
X0037035Y0094164D01*
X0037051Y0094087D01*
X0037063Y0094008D01*
X0037071Y0093930D01*
X0037075Y0093851D01*
X0037075Y0093771D01*
X0037071Y0093692D01*
X0037063Y0093614D01*
X0037051Y0093535D01*
X0037035Y0093458D01*
X0037015Y0093381D01*
X0036992Y0093306D01*
X0036964Y0093231D01*
X0036933Y0093158D01*
X0036899Y0093087D01*
X0036861Y0093018D01*
X0036819Y0092950D01*
X0036774Y0092885D01*
X0036726Y0092822D01*
X0036675Y0092762D01*
X0036621Y0092704D01*
X0036564Y0092649D01*
X0036504Y0092597D01*
X0036442Y0092549D01*
X0036377Y0092503D01*
X0036310Y0092460D01*
X0036241Y0092421D01*
X0036171Y0092386D01*
X0036098Y0092354D01*
X0036024Y0092326D01*
X0035949Y0092301D01*
X0035872Y0092281D01*
X0035795Y0092264D01*
X0035717Y0092251D01*
X0035638Y0092242D01*
X0035559Y0092237D01*
X0035480Y0092236D01*
X0035401Y0092239D01*
X0035322Y0092246D01*
X0035244Y0092257D01*
X0035166Y0092272D01*
X0035089Y0092291D01*
X0035013Y0092313D01*
X0034939Y0092339D01*
X0034865Y0092369D01*
X0034794Y0092403D01*
X0034724Y0092440D01*
X0034656Y0092481D01*
X0034590Y0092525D01*
X0034527Y0092573D01*
X0034466Y0092623D01*
X0034407Y0092677D01*
X0034352Y0092733D01*
X0034299Y0092792D01*
X0034249Y0092854D01*
X0034203Y0092918D01*
X0034160Y0092984D01*
X0034120Y0093052D01*
X0034083Y0093123D01*
X0034051Y0093195D01*
X0034021Y0093268D01*
X0033996Y0093343D01*
X0033974Y0093419D01*
X0033957Y0093496D01*
X0033943Y0093574D01*
X0033933Y0093653D01*
X0033927Y0093732D01*
X0033925Y0093811D01*
X0026925Y0093811D02*
X0026927Y0093890D01*
X0026933Y0093969D01*
X0026943Y0094048D01*
X0026957Y0094126D01*
X0026974Y0094203D01*
X0026996Y0094279D01*
X0027021Y0094354D01*
X0027051Y0094427D01*
X0027083Y0094499D01*
X0027120Y0094570D01*
X0027160Y0094638D01*
X0027203Y0094704D01*
X0027249Y0094768D01*
X0027299Y0094830D01*
X0027352Y0094889D01*
X0027407Y0094945D01*
X0027466Y0094999D01*
X0027527Y0095049D01*
X0027590Y0095097D01*
X0027656Y0095141D01*
X0027724Y0095182D01*
X0027794Y0095219D01*
X0027865Y0095253D01*
X0027939Y0095283D01*
X0028013Y0095309D01*
X0028089Y0095331D01*
X0028166Y0095350D01*
X0028244Y0095365D01*
X0028322Y0095376D01*
X0028401Y0095383D01*
X0028480Y0095386D01*
X0028559Y0095385D01*
X0028638Y0095380D01*
X0028717Y0095371D01*
X0028795Y0095358D01*
X0028872Y0095341D01*
X0028949Y0095321D01*
X0029024Y0095296D01*
X0029098Y0095268D01*
X0029171Y0095236D01*
X0029241Y0095201D01*
X0029310Y0095162D01*
X0029377Y0095119D01*
X0029442Y0095073D01*
X0029504Y0095025D01*
X0029564Y0094973D01*
X0029621Y0094918D01*
X0029675Y0094860D01*
X0029726Y0094800D01*
X0029774Y0094737D01*
X0029819Y0094672D01*
X0029861Y0094604D01*
X0029899Y0094535D01*
X0029933Y0094464D01*
X0029964Y0094391D01*
X0029992Y0094316D01*
X0030015Y0094241D01*
X0030035Y0094164D01*
X0030051Y0094087D01*
X0030063Y0094008D01*
X0030071Y0093930D01*
X0030075Y0093851D01*
X0030075Y0093771D01*
X0030071Y0093692D01*
X0030063Y0093614D01*
X0030051Y0093535D01*
X0030035Y0093458D01*
X0030015Y0093381D01*
X0029992Y0093306D01*
X0029964Y0093231D01*
X0029933Y0093158D01*
X0029899Y0093087D01*
X0029861Y0093018D01*
X0029819Y0092950D01*
X0029774Y0092885D01*
X0029726Y0092822D01*
X0029675Y0092762D01*
X0029621Y0092704D01*
X0029564Y0092649D01*
X0029504Y0092597D01*
X0029442Y0092549D01*
X0029377Y0092503D01*
X0029310Y0092460D01*
X0029241Y0092421D01*
X0029171Y0092386D01*
X0029098Y0092354D01*
X0029024Y0092326D01*
X0028949Y0092301D01*
X0028872Y0092281D01*
X0028795Y0092264D01*
X0028717Y0092251D01*
X0028638Y0092242D01*
X0028559Y0092237D01*
X0028480Y0092236D01*
X0028401Y0092239D01*
X0028322Y0092246D01*
X0028244Y0092257D01*
X0028166Y0092272D01*
X0028089Y0092291D01*
X0028013Y0092313D01*
X0027939Y0092339D01*
X0027865Y0092369D01*
X0027794Y0092403D01*
X0027724Y0092440D01*
X0027656Y0092481D01*
X0027590Y0092525D01*
X0027527Y0092573D01*
X0027466Y0092623D01*
X0027407Y0092677D01*
X0027352Y0092733D01*
X0027299Y0092792D01*
X0027249Y0092854D01*
X0027203Y0092918D01*
X0027160Y0092984D01*
X0027120Y0093052D01*
X0027083Y0093123D01*
X0027051Y0093195D01*
X0027021Y0093268D01*
X0026996Y0093343D01*
X0026974Y0093419D01*
X0026957Y0093496D01*
X0026943Y0093574D01*
X0026933Y0093653D01*
X0026927Y0093732D01*
X0026925Y0093811D01*
X0056594Y0092811D02*
X0056596Y0092964D01*
X0056602Y0093118D01*
X0056612Y0093271D01*
X0056626Y0093423D01*
X0056644Y0093576D01*
X0056666Y0093727D01*
X0056691Y0093878D01*
X0056721Y0094029D01*
X0056755Y0094179D01*
X0056792Y0094327D01*
X0056833Y0094475D01*
X0056878Y0094621D01*
X0056927Y0094767D01*
X0056980Y0094911D01*
X0057036Y0095053D01*
X0057096Y0095194D01*
X0057160Y0095334D01*
X0057227Y0095472D01*
X0057298Y0095608D01*
X0057373Y0095742D01*
X0057450Y0095874D01*
X0057532Y0096004D01*
X0057616Y0096132D01*
X0057704Y0096258D01*
X0057795Y0096381D01*
X0057889Y0096502D01*
X0057987Y0096620D01*
X0058087Y0096736D01*
X0058191Y0096849D01*
X0058297Y0096960D01*
X0058406Y0097068D01*
X0058518Y0097173D01*
X0058632Y0097274D01*
X0058750Y0097373D01*
X0058869Y0097469D01*
X0058991Y0097562D01*
X0059116Y0097651D01*
X0059243Y0097738D01*
X0059372Y0097820D01*
X0059503Y0097900D01*
X0059636Y0097976D01*
X0059771Y0098049D01*
X0059908Y0098118D01*
X0060047Y0098183D01*
X0060187Y0098245D01*
X0060329Y0098303D01*
X0060472Y0098358D01*
X0060617Y0098409D01*
X0060763Y0098456D01*
X0060910Y0098499D01*
X0061058Y0098538D01*
X0061207Y0098574D01*
X0061357Y0098605D01*
X0061508Y0098633D01*
X0061659Y0098657D01*
X0061812Y0098677D01*
X0061964Y0098693D01*
X0062117Y0098705D01*
X0062270Y0098713D01*
X0062423Y0098717D01*
X0062577Y0098717D01*
X0062730Y0098713D01*
X0062883Y0098705D01*
X0063036Y0098693D01*
X0063188Y0098677D01*
X0063341Y0098657D01*
X0063492Y0098633D01*
X0063643Y0098605D01*
X0063793Y0098574D01*
X0063942Y0098538D01*
X0064090Y0098499D01*
X0064237Y0098456D01*
X0064383Y0098409D01*
X0064528Y0098358D01*
X0064671Y0098303D01*
X0064813Y0098245D01*
X0064953Y0098183D01*
X0065092Y0098118D01*
X0065229Y0098049D01*
X0065364Y0097976D01*
X0065497Y0097900D01*
X0065628Y0097820D01*
X0065757Y0097738D01*
X0065884Y0097651D01*
X0066009Y0097562D01*
X0066131Y0097469D01*
X0066250Y0097373D01*
X0066368Y0097274D01*
X0066482Y0097173D01*
X0066594Y0097068D01*
X0066703Y0096960D01*
X0066809Y0096849D01*
X0066913Y0096736D01*
X0067013Y0096620D01*
X0067111Y0096502D01*
X0067205Y0096381D01*
X0067296Y0096258D01*
X0067384Y0096132D01*
X0067468Y0096004D01*
X0067550Y0095874D01*
X0067627Y0095742D01*
X0067702Y0095608D01*
X0067773Y0095472D01*
X0067840Y0095334D01*
X0067904Y0095194D01*
X0067964Y0095053D01*
X0068020Y0094911D01*
X0068073Y0094767D01*
X0068122Y0094621D01*
X0068167Y0094475D01*
X0068208Y0094327D01*
X0068245Y0094179D01*
X0068279Y0094029D01*
X0068309Y0093878D01*
X0068334Y0093727D01*
X0068356Y0093576D01*
X0068374Y0093423D01*
X0068388Y0093271D01*
X0068398Y0093118D01*
X0068404Y0092964D01*
X0068406Y0092811D01*
X0068404Y0092658D01*
X0068398Y0092504D01*
X0068388Y0092351D01*
X0068374Y0092199D01*
X0068356Y0092046D01*
X0068334Y0091895D01*
X0068309Y0091744D01*
X0068279Y0091593D01*
X0068245Y0091443D01*
X0068208Y0091295D01*
X0068167Y0091147D01*
X0068122Y0091001D01*
X0068073Y0090855D01*
X0068020Y0090711D01*
X0067964Y0090569D01*
X0067904Y0090428D01*
X0067840Y0090288D01*
X0067773Y0090150D01*
X0067702Y0090014D01*
X0067627Y0089880D01*
X0067550Y0089748D01*
X0067468Y0089618D01*
X0067384Y0089490D01*
X0067296Y0089364D01*
X0067205Y0089241D01*
X0067111Y0089120D01*
X0067013Y0089002D01*
X0066913Y0088886D01*
X0066809Y0088773D01*
X0066703Y0088662D01*
X0066594Y0088554D01*
X0066482Y0088449D01*
X0066368Y0088348D01*
X0066250Y0088249D01*
X0066131Y0088153D01*
X0066009Y0088060D01*
X0065884Y0087971D01*
X0065757Y0087884D01*
X0065628Y0087802D01*
X0065497Y0087722D01*
X0065364Y0087646D01*
X0065229Y0087573D01*
X0065092Y0087504D01*
X0064953Y0087439D01*
X0064813Y0087377D01*
X0064671Y0087319D01*
X0064528Y0087264D01*
X0064383Y0087213D01*
X0064237Y0087166D01*
X0064090Y0087123D01*
X0063942Y0087084D01*
X0063793Y0087048D01*
X0063643Y0087017D01*
X0063492Y0086989D01*
X0063341Y0086965D01*
X0063188Y0086945D01*
X0063036Y0086929D01*
X0062883Y0086917D01*
X0062730Y0086909D01*
X0062577Y0086905D01*
X0062423Y0086905D01*
X0062270Y0086909D01*
X0062117Y0086917D01*
X0061964Y0086929D01*
X0061812Y0086945D01*
X0061659Y0086965D01*
X0061508Y0086989D01*
X0061357Y0087017D01*
X0061207Y0087048D01*
X0061058Y0087084D01*
X0060910Y0087123D01*
X0060763Y0087166D01*
X0060617Y0087213D01*
X0060472Y0087264D01*
X0060329Y0087319D01*
X0060187Y0087377D01*
X0060047Y0087439D01*
X0059908Y0087504D01*
X0059771Y0087573D01*
X0059636Y0087646D01*
X0059503Y0087722D01*
X0059372Y0087802D01*
X0059243Y0087884D01*
X0059116Y0087971D01*
X0058991Y0088060D01*
X0058869Y0088153D01*
X0058750Y0088249D01*
X0058632Y0088348D01*
X0058518Y0088449D01*
X0058406Y0088554D01*
X0058297Y0088662D01*
X0058191Y0088773D01*
X0058087Y0088886D01*
X0057987Y0089002D01*
X0057889Y0089120D01*
X0057795Y0089241D01*
X0057704Y0089364D01*
X0057616Y0089490D01*
X0057532Y0089618D01*
X0057450Y0089748D01*
X0057373Y0089880D01*
X0057298Y0090014D01*
X0057227Y0090150D01*
X0057160Y0090288D01*
X0057096Y0090428D01*
X0057036Y0090569D01*
X0056980Y0090711D01*
X0056927Y0090855D01*
X0056878Y0091001D01*
X0056833Y0091147D01*
X0056792Y0091295D01*
X0056755Y0091443D01*
X0056721Y0091593D01*
X0056691Y0091744D01*
X0056666Y0091895D01*
X0056644Y0092046D01*
X0056626Y0092199D01*
X0056612Y0092351D01*
X0056602Y0092504D01*
X0056596Y0092658D01*
X0056594Y0092811D01*
X0166594Y0092811D02*
X0166596Y0092964D01*
X0166602Y0093118D01*
X0166612Y0093271D01*
X0166626Y0093423D01*
X0166644Y0093576D01*
X0166666Y0093727D01*
X0166691Y0093878D01*
X0166721Y0094029D01*
X0166755Y0094179D01*
X0166792Y0094327D01*
X0166833Y0094475D01*
X0166878Y0094621D01*
X0166927Y0094767D01*
X0166980Y0094911D01*
X0167036Y0095053D01*
X0167096Y0095194D01*
X0167160Y0095334D01*
X0167227Y0095472D01*
X0167298Y0095608D01*
X0167373Y0095742D01*
X0167450Y0095874D01*
X0167532Y0096004D01*
X0167616Y0096132D01*
X0167704Y0096258D01*
X0167795Y0096381D01*
X0167889Y0096502D01*
X0167987Y0096620D01*
X0168087Y0096736D01*
X0168191Y0096849D01*
X0168297Y0096960D01*
X0168406Y0097068D01*
X0168518Y0097173D01*
X0168632Y0097274D01*
X0168750Y0097373D01*
X0168869Y0097469D01*
X0168991Y0097562D01*
X0169116Y0097651D01*
X0169243Y0097738D01*
X0169372Y0097820D01*
X0169503Y0097900D01*
X0169636Y0097976D01*
X0169771Y0098049D01*
X0169908Y0098118D01*
X0170047Y0098183D01*
X0170187Y0098245D01*
X0170329Y0098303D01*
X0170472Y0098358D01*
X0170617Y0098409D01*
X0170763Y0098456D01*
X0170910Y0098499D01*
X0171058Y0098538D01*
X0171207Y0098574D01*
X0171357Y0098605D01*
X0171508Y0098633D01*
X0171659Y0098657D01*
X0171812Y0098677D01*
X0171964Y0098693D01*
X0172117Y0098705D01*
X0172270Y0098713D01*
X0172423Y0098717D01*
X0172577Y0098717D01*
X0172730Y0098713D01*
X0172883Y0098705D01*
X0173036Y0098693D01*
X0173188Y0098677D01*
X0173341Y0098657D01*
X0173492Y0098633D01*
X0173643Y0098605D01*
X0173793Y0098574D01*
X0173942Y0098538D01*
X0174090Y0098499D01*
X0174237Y0098456D01*
X0174383Y0098409D01*
X0174528Y0098358D01*
X0174671Y0098303D01*
X0174813Y0098245D01*
X0174953Y0098183D01*
X0175092Y0098118D01*
X0175229Y0098049D01*
X0175364Y0097976D01*
X0175497Y0097900D01*
X0175628Y0097820D01*
X0175757Y0097738D01*
X0175884Y0097651D01*
X0176009Y0097562D01*
X0176131Y0097469D01*
X0176250Y0097373D01*
X0176368Y0097274D01*
X0176482Y0097173D01*
X0176594Y0097068D01*
X0176703Y0096960D01*
X0176809Y0096849D01*
X0176913Y0096736D01*
X0177013Y0096620D01*
X0177111Y0096502D01*
X0177205Y0096381D01*
X0177296Y0096258D01*
X0177384Y0096132D01*
X0177468Y0096004D01*
X0177550Y0095874D01*
X0177627Y0095742D01*
X0177702Y0095608D01*
X0177773Y0095472D01*
X0177840Y0095334D01*
X0177904Y0095194D01*
X0177964Y0095053D01*
X0178020Y0094911D01*
X0178073Y0094767D01*
X0178122Y0094621D01*
X0178167Y0094475D01*
X0178208Y0094327D01*
X0178245Y0094179D01*
X0178279Y0094029D01*
X0178309Y0093878D01*
X0178334Y0093727D01*
X0178356Y0093576D01*
X0178374Y0093423D01*
X0178388Y0093271D01*
X0178398Y0093118D01*
X0178404Y0092964D01*
X0178406Y0092811D01*
X0178404Y0092658D01*
X0178398Y0092504D01*
X0178388Y0092351D01*
X0178374Y0092199D01*
X0178356Y0092046D01*
X0178334Y0091895D01*
X0178309Y0091744D01*
X0178279Y0091593D01*
X0178245Y0091443D01*
X0178208Y0091295D01*
X0178167Y0091147D01*
X0178122Y0091001D01*
X0178073Y0090855D01*
X0178020Y0090711D01*
X0177964Y0090569D01*
X0177904Y0090428D01*
X0177840Y0090288D01*
X0177773Y0090150D01*
X0177702Y0090014D01*
X0177627Y0089880D01*
X0177550Y0089748D01*
X0177468Y0089618D01*
X0177384Y0089490D01*
X0177296Y0089364D01*
X0177205Y0089241D01*
X0177111Y0089120D01*
X0177013Y0089002D01*
X0176913Y0088886D01*
X0176809Y0088773D01*
X0176703Y0088662D01*
X0176594Y0088554D01*
X0176482Y0088449D01*
X0176368Y0088348D01*
X0176250Y0088249D01*
X0176131Y0088153D01*
X0176009Y0088060D01*
X0175884Y0087971D01*
X0175757Y0087884D01*
X0175628Y0087802D01*
X0175497Y0087722D01*
X0175364Y0087646D01*
X0175229Y0087573D01*
X0175092Y0087504D01*
X0174953Y0087439D01*
X0174813Y0087377D01*
X0174671Y0087319D01*
X0174528Y0087264D01*
X0174383Y0087213D01*
X0174237Y0087166D01*
X0174090Y0087123D01*
X0173942Y0087084D01*
X0173793Y0087048D01*
X0173643Y0087017D01*
X0173492Y0086989D01*
X0173341Y0086965D01*
X0173188Y0086945D01*
X0173036Y0086929D01*
X0172883Y0086917D01*
X0172730Y0086909D01*
X0172577Y0086905D01*
X0172423Y0086905D01*
X0172270Y0086909D01*
X0172117Y0086917D01*
X0171964Y0086929D01*
X0171812Y0086945D01*
X0171659Y0086965D01*
X0171508Y0086989D01*
X0171357Y0087017D01*
X0171207Y0087048D01*
X0171058Y0087084D01*
X0170910Y0087123D01*
X0170763Y0087166D01*
X0170617Y0087213D01*
X0170472Y0087264D01*
X0170329Y0087319D01*
X0170187Y0087377D01*
X0170047Y0087439D01*
X0169908Y0087504D01*
X0169771Y0087573D01*
X0169636Y0087646D01*
X0169503Y0087722D01*
X0169372Y0087802D01*
X0169243Y0087884D01*
X0169116Y0087971D01*
X0168991Y0088060D01*
X0168869Y0088153D01*
X0168750Y0088249D01*
X0168632Y0088348D01*
X0168518Y0088449D01*
X0168406Y0088554D01*
X0168297Y0088662D01*
X0168191Y0088773D01*
X0168087Y0088886D01*
X0167987Y0089002D01*
X0167889Y0089120D01*
X0167795Y0089241D01*
X0167704Y0089364D01*
X0167616Y0089490D01*
X0167532Y0089618D01*
X0167450Y0089748D01*
X0167373Y0089880D01*
X0167298Y0090014D01*
X0167227Y0090150D01*
X0167160Y0090288D01*
X0167096Y0090428D01*
X0167036Y0090569D01*
X0166980Y0090711D01*
X0166927Y0090855D01*
X0166878Y0091001D01*
X0166833Y0091147D01*
X0166792Y0091295D01*
X0166755Y0091443D01*
X0166721Y0091593D01*
X0166691Y0091744D01*
X0166666Y0091895D01*
X0166644Y0092046D01*
X0166626Y0092199D01*
X0166612Y0092351D01*
X0166602Y0092504D01*
X0166596Y0092658D01*
X0166594Y0092811D01*
X0209925Y0093811D02*
X0209927Y0093890D01*
X0209933Y0093969D01*
X0209943Y0094048D01*
X0209957Y0094126D01*
X0209974Y0094203D01*
X0209996Y0094279D01*
X0210021Y0094354D01*
X0210051Y0094427D01*
X0210083Y0094499D01*
X0210120Y0094570D01*
X0210160Y0094638D01*
X0210203Y0094704D01*
X0210249Y0094768D01*
X0210299Y0094830D01*
X0210352Y0094889D01*
X0210407Y0094945D01*
X0210466Y0094999D01*
X0210527Y0095049D01*
X0210590Y0095097D01*
X0210656Y0095141D01*
X0210724Y0095182D01*
X0210794Y0095219D01*
X0210865Y0095253D01*
X0210939Y0095283D01*
X0211013Y0095309D01*
X0211089Y0095331D01*
X0211166Y0095350D01*
X0211244Y0095365D01*
X0211322Y0095376D01*
X0211401Y0095383D01*
X0211480Y0095386D01*
X0211559Y0095385D01*
X0211638Y0095380D01*
X0211717Y0095371D01*
X0211795Y0095358D01*
X0211872Y0095341D01*
X0211949Y0095321D01*
X0212024Y0095296D01*
X0212098Y0095268D01*
X0212171Y0095236D01*
X0212241Y0095201D01*
X0212310Y0095162D01*
X0212377Y0095119D01*
X0212442Y0095073D01*
X0212504Y0095025D01*
X0212564Y0094973D01*
X0212621Y0094918D01*
X0212675Y0094860D01*
X0212726Y0094800D01*
X0212774Y0094737D01*
X0212819Y0094672D01*
X0212861Y0094604D01*
X0212899Y0094535D01*
X0212933Y0094464D01*
X0212964Y0094391D01*
X0212992Y0094316D01*
X0213015Y0094241D01*
X0213035Y0094164D01*
X0213051Y0094087D01*
X0213063Y0094008D01*
X0213071Y0093930D01*
X0213075Y0093851D01*
X0213075Y0093771D01*
X0213071Y0093692D01*
X0213063Y0093614D01*
X0213051Y0093535D01*
X0213035Y0093458D01*
X0213015Y0093381D01*
X0212992Y0093306D01*
X0212964Y0093231D01*
X0212933Y0093158D01*
X0212899Y0093087D01*
X0212861Y0093018D01*
X0212819Y0092950D01*
X0212774Y0092885D01*
X0212726Y0092822D01*
X0212675Y0092762D01*
X0212621Y0092704D01*
X0212564Y0092649D01*
X0212504Y0092597D01*
X0212442Y0092549D01*
X0212377Y0092503D01*
X0212310Y0092460D01*
X0212241Y0092421D01*
X0212171Y0092386D01*
X0212098Y0092354D01*
X0212024Y0092326D01*
X0211949Y0092301D01*
X0211872Y0092281D01*
X0211795Y0092264D01*
X0211717Y0092251D01*
X0211638Y0092242D01*
X0211559Y0092237D01*
X0211480Y0092236D01*
X0211401Y0092239D01*
X0211322Y0092246D01*
X0211244Y0092257D01*
X0211166Y0092272D01*
X0211089Y0092291D01*
X0211013Y0092313D01*
X0210939Y0092339D01*
X0210865Y0092369D01*
X0210794Y0092403D01*
X0210724Y0092440D01*
X0210656Y0092481D01*
X0210590Y0092525D01*
X0210527Y0092573D01*
X0210466Y0092623D01*
X0210407Y0092677D01*
X0210352Y0092733D01*
X0210299Y0092792D01*
X0210249Y0092854D01*
X0210203Y0092918D01*
X0210160Y0092984D01*
X0210120Y0093052D01*
X0210083Y0093123D01*
X0210051Y0093195D01*
X0210021Y0093268D01*
X0209996Y0093343D01*
X0209974Y0093419D01*
X0209957Y0093496D01*
X0209943Y0093574D01*
X0209933Y0093653D01*
X0209927Y0093732D01*
X0209925Y0093811D01*
X0216925Y0093811D02*
X0216927Y0093890D01*
X0216933Y0093969D01*
X0216943Y0094048D01*
X0216957Y0094126D01*
X0216974Y0094203D01*
X0216996Y0094279D01*
X0217021Y0094354D01*
X0217051Y0094427D01*
X0217083Y0094499D01*
X0217120Y0094570D01*
X0217160Y0094638D01*
X0217203Y0094704D01*
X0217249Y0094768D01*
X0217299Y0094830D01*
X0217352Y0094889D01*
X0217407Y0094945D01*
X0217466Y0094999D01*
X0217527Y0095049D01*
X0217590Y0095097D01*
X0217656Y0095141D01*
X0217724Y0095182D01*
X0217794Y0095219D01*
X0217865Y0095253D01*
X0217939Y0095283D01*
X0218013Y0095309D01*
X0218089Y0095331D01*
X0218166Y0095350D01*
X0218244Y0095365D01*
X0218322Y0095376D01*
X0218401Y0095383D01*
X0218480Y0095386D01*
X0218559Y0095385D01*
X0218638Y0095380D01*
X0218717Y0095371D01*
X0218795Y0095358D01*
X0218872Y0095341D01*
X0218949Y0095321D01*
X0219024Y0095296D01*
X0219098Y0095268D01*
X0219171Y0095236D01*
X0219241Y0095201D01*
X0219310Y0095162D01*
X0219377Y0095119D01*
X0219442Y0095073D01*
X0219504Y0095025D01*
X0219564Y0094973D01*
X0219621Y0094918D01*
X0219675Y0094860D01*
X0219726Y0094800D01*
X0219774Y0094737D01*
X0219819Y0094672D01*
X0219861Y0094604D01*
X0219899Y0094535D01*
X0219933Y0094464D01*
X0219964Y0094391D01*
X0219992Y0094316D01*
X0220015Y0094241D01*
X0220035Y0094164D01*
X0220051Y0094087D01*
X0220063Y0094008D01*
X0220071Y0093930D01*
X0220075Y0093851D01*
X0220075Y0093771D01*
X0220071Y0093692D01*
X0220063Y0093614D01*
X0220051Y0093535D01*
X0220035Y0093458D01*
X0220015Y0093381D01*
X0219992Y0093306D01*
X0219964Y0093231D01*
X0219933Y0093158D01*
X0219899Y0093087D01*
X0219861Y0093018D01*
X0219819Y0092950D01*
X0219774Y0092885D01*
X0219726Y0092822D01*
X0219675Y0092762D01*
X0219621Y0092704D01*
X0219564Y0092649D01*
X0219504Y0092597D01*
X0219442Y0092549D01*
X0219377Y0092503D01*
X0219310Y0092460D01*
X0219241Y0092421D01*
X0219171Y0092386D01*
X0219098Y0092354D01*
X0219024Y0092326D01*
X0218949Y0092301D01*
X0218872Y0092281D01*
X0218795Y0092264D01*
X0218717Y0092251D01*
X0218638Y0092242D01*
X0218559Y0092237D01*
X0218480Y0092236D01*
X0218401Y0092239D01*
X0218322Y0092246D01*
X0218244Y0092257D01*
X0218166Y0092272D01*
X0218089Y0092291D01*
X0218013Y0092313D01*
X0217939Y0092339D01*
X0217865Y0092369D01*
X0217794Y0092403D01*
X0217724Y0092440D01*
X0217656Y0092481D01*
X0217590Y0092525D01*
X0217527Y0092573D01*
X0217466Y0092623D01*
X0217407Y0092677D01*
X0217352Y0092733D01*
X0217299Y0092792D01*
X0217249Y0092854D01*
X0217203Y0092918D01*
X0217160Y0092984D01*
X0217120Y0093052D01*
X0217083Y0093123D01*
X0217051Y0093195D01*
X0217021Y0093268D01*
X0216996Y0093343D01*
X0216974Y0093419D01*
X0216957Y0093496D01*
X0216943Y0093574D01*
X0216933Y0093653D01*
X0216927Y0093732D01*
X0216925Y0093811D01*
X0223925Y0093811D02*
X0223927Y0093890D01*
X0223933Y0093969D01*
X0223943Y0094048D01*
X0223957Y0094126D01*
X0223974Y0094203D01*
X0223996Y0094279D01*
X0224021Y0094354D01*
X0224051Y0094427D01*
X0224083Y0094499D01*
X0224120Y0094570D01*
X0224160Y0094638D01*
X0224203Y0094704D01*
X0224249Y0094768D01*
X0224299Y0094830D01*
X0224352Y0094889D01*
X0224407Y0094945D01*
X0224466Y0094999D01*
X0224527Y0095049D01*
X0224590Y0095097D01*
X0224656Y0095141D01*
X0224724Y0095182D01*
X0224794Y0095219D01*
X0224865Y0095253D01*
X0224939Y0095283D01*
X0225013Y0095309D01*
X0225089Y0095331D01*
X0225166Y0095350D01*
X0225244Y0095365D01*
X0225322Y0095376D01*
X0225401Y0095383D01*
X0225480Y0095386D01*
X0225559Y0095385D01*
X0225638Y0095380D01*
X0225717Y0095371D01*
X0225795Y0095358D01*
X0225872Y0095341D01*
X0225949Y0095321D01*
X0226024Y0095296D01*
X0226098Y0095268D01*
X0226171Y0095236D01*
X0226241Y0095201D01*
X0226310Y0095162D01*
X0226377Y0095119D01*
X0226442Y0095073D01*
X0226504Y0095025D01*
X0226564Y0094973D01*
X0226621Y0094918D01*
X0226675Y0094860D01*
X0226726Y0094800D01*
X0226774Y0094737D01*
X0226819Y0094672D01*
X0226861Y0094604D01*
X0226899Y0094535D01*
X0226933Y0094464D01*
X0226964Y0094391D01*
X0226992Y0094316D01*
X0227015Y0094241D01*
X0227035Y0094164D01*
X0227051Y0094087D01*
X0227063Y0094008D01*
X0227071Y0093930D01*
X0227075Y0093851D01*
X0227075Y0093771D01*
X0227071Y0093692D01*
X0227063Y0093614D01*
X0227051Y0093535D01*
X0227035Y0093458D01*
X0227015Y0093381D01*
X0226992Y0093306D01*
X0226964Y0093231D01*
X0226933Y0093158D01*
X0226899Y0093087D01*
X0226861Y0093018D01*
X0226819Y0092950D01*
X0226774Y0092885D01*
X0226726Y0092822D01*
X0226675Y0092762D01*
X0226621Y0092704D01*
X0226564Y0092649D01*
X0226504Y0092597D01*
X0226442Y0092549D01*
X0226377Y0092503D01*
X0226310Y0092460D01*
X0226241Y0092421D01*
X0226171Y0092386D01*
X0226098Y0092354D01*
X0226024Y0092326D01*
X0225949Y0092301D01*
X0225872Y0092281D01*
X0225795Y0092264D01*
X0225717Y0092251D01*
X0225638Y0092242D01*
X0225559Y0092237D01*
X0225480Y0092236D01*
X0225401Y0092239D01*
X0225322Y0092246D01*
X0225244Y0092257D01*
X0225166Y0092272D01*
X0225089Y0092291D01*
X0225013Y0092313D01*
X0224939Y0092339D01*
X0224865Y0092369D01*
X0224794Y0092403D01*
X0224724Y0092440D01*
X0224656Y0092481D01*
X0224590Y0092525D01*
X0224527Y0092573D01*
X0224466Y0092623D01*
X0224407Y0092677D01*
X0224352Y0092733D01*
X0224299Y0092792D01*
X0224249Y0092854D01*
X0224203Y0092918D01*
X0224160Y0092984D01*
X0224120Y0093052D01*
X0224083Y0093123D01*
X0224051Y0093195D01*
X0224021Y0093268D01*
X0223996Y0093343D01*
X0223974Y0093419D01*
X0223957Y0093496D01*
X0223943Y0093574D01*
X0223933Y0093653D01*
X0223927Y0093732D01*
X0223925Y0093811D01*
X0230925Y0093811D02*
X0230927Y0093890D01*
X0230933Y0093969D01*
X0230943Y0094048D01*
X0230957Y0094126D01*
X0230974Y0094203D01*
X0230996Y0094279D01*
X0231021Y0094354D01*
X0231051Y0094427D01*
X0231083Y0094499D01*
X0231120Y0094570D01*
X0231160Y0094638D01*
X0231203Y0094704D01*
X0231249Y0094768D01*
X0231299Y0094830D01*
X0231352Y0094889D01*
X0231407Y0094945D01*
X0231466Y0094999D01*
X0231527Y0095049D01*
X0231590Y0095097D01*
X0231656Y0095141D01*
X0231724Y0095182D01*
X0231794Y0095219D01*
X0231865Y0095253D01*
X0231939Y0095283D01*
X0232013Y0095309D01*
X0232089Y0095331D01*
X0232166Y0095350D01*
X0232244Y0095365D01*
X0232322Y0095376D01*
X0232401Y0095383D01*
X0232480Y0095386D01*
X0232559Y0095385D01*
X0232638Y0095380D01*
X0232717Y0095371D01*
X0232795Y0095358D01*
X0232872Y0095341D01*
X0232949Y0095321D01*
X0233024Y0095296D01*
X0233098Y0095268D01*
X0233171Y0095236D01*
X0233241Y0095201D01*
X0233310Y0095162D01*
X0233377Y0095119D01*
X0233442Y0095073D01*
X0233504Y0095025D01*
X0233564Y0094973D01*
X0233621Y0094918D01*
X0233675Y0094860D01*
X0233726Y0094800D01*
X0233774Y0094737D01*
X0233819Y0094672D01*
X0233861Y0094604D01*
X0233899Y0094535D01*
X0233933Y0094464D01*
X0233964Y0094391D01*
X0233992Y0094316D01*
X0234015Y0094241D01*
X0234035Y0094164D01*
X0234051Y0094087D01*
X0234063Y0094008D01*
X0234071Y0093930D01*
X0234075Y0093851D01*
X0234075Y0093771D01*
X0234071Y0093692D01*
X0234063Y0093614D01*
X0234051Y0093535D01*
X0234035Y0093458D01*
X0234015Y0093381D01*
X0233992Y0093306D01*
X0233964Y0093231D01*
X0233933Y0093158D01*
X0233899Y0093087D01*
X0233861Y0093018D01*
X0233819Y0092950D01*
X0233774Y0092885D01*
X0233726Y0092822D01*
X0233675Y0092762D01*
X0233621Y0092704D01*
X0233564Y0092649D01*
X0233504Y0092597D01*
X0233442Y0092549D01*
X0233377Y0092503D01*
X0233310Y0092460D01*
X0233241Y0092421D01*
X0233171Y0092386D01*
X0233098Y0092354D01*
X0233024Y0092326D01*
X0232949Y0092301D01*
X0232872Y0092281D01*
X0232795Y0092264D01*
X0232717Y0092251D01*
X0232638Y0092242D01*
X0232559Y0092237D01*
X0232480Y0092236D01*
X0232401Y0092239D01*
X0232322Y0092246D01*
X0232244Y0092257D01*
X0232166Y0092272D01*
X0232089Y0092291D01*
X0232013Y0092313D01*
X0231939Y0092339D01*
X0231865Y0092369D01*
X0231794Y0092403D01*
X0231724Y0092440D01*
X0231656Y0092481D01*
X0231590Y0092525D01*
X0231527Y0092573D01*
X0231466Y0092623D01*
X0231407Y0092677D01*
X0231352Y0092733D01*
X0231299Y0092792D01*
X0231249Y0092854D01*
X0231203Y0092918D01*
X0231160Y0092984D01*
X0231120Y0093052D01*
X0231083Y0093123D01*
X0231051Y0093195D01*
X0231021Y0093268D01*
X0230996Y0093343D01*
X0230974Y0093419D01*
X0230957Y0093496D01*
X0230943Y0093574D01*
X0230933Y0093653D01*
X0230927Y0093732D01*
X0230925Y0093811D01*
X0238500Y0092811D02*
X0238500Y0086811D01*
X0238502Y0086685D01*
X0238508Y0086560D01*
X0238518Y0086435D01*
X0238532Y0086310D01*
X0238549Y0086185D01*
X0238571Y0086061D01*
X0238596Y0085938D01*
X0238626Y0085816D01*
X0238659Y0085695D01*
X0238696Y0085575D01*
X0238736Y0085456D01*
X0238781Y0085339D01*
X0238829Y0085222D01*
X0238881Y0085108D01*
X0238936Y0084995D01*
X0238995Y0084884D01*
X0239057Y0084775D01*
X0239123Y0084668D01*
X0239192Y0084563D01*
X0239264Y0084460D01*
X0239339Y0084359D01*
X0239418Y0084261D01*
X0239500Y0084166D01*
X0239584Y0084073D01*
X0239672Y0083983D01*
X0239762Y0083895D01*
X0239855Y0083811D01*
X0239950Y0083729D01*
X0240048Y0083650D01*
X0240149Y0083575D01*
X0240252Y0083503D01*
X0240357Y0083434D01*
X0240464Y0083368D01*
X0240573Y0083306D01*
X0240684Y0083247D01*
X0240797Y0083192D01*
X0240911Y0083140D01*
X0241028Y0083092D01*
X0241145Y0083047D01*
X0241264Y0083007D01*
X0241384Y0082970D01*
X0241505Y0082937D01*
X0241627Y0082907D01*
X0241750Y0082882D01*
X0241874Y0082860D01*
X0241999Y0082843D01*
X0242124Y0082829D01*
X0242249Y0082819D01*
X0242374Y0082813D01*
X0242500Y0082811D01*
X0255500Y0082811D01*
X0255626Y0082809D01*
X0255751Y0082803D01*
X0255876Y0082793D01*
X0256001Y0082779D01*
X0256126Y0082762D01*
X0256250Y0082740D01*
X0256373Y0082715D01*
X0256495Y0082685D01*
X0256616Y0082652D01*
X0256736Y0082615D01*
X0256855Y0082575D01*
X0256972Y0082530D01*
X0257089Y0082482D01*
X0257203Y0082430D01*
X0257316Y0082375D01*
X0257427Y0082316D01*
X0257536Y0082254D01*
X0257643Y0082188D01*
X0257748Y0082119D01*
X0257851Y0082047D01*
X0257952Y0081972D01*
X0258050Y0081893D01*
X0258145Y0081811D01*
X0258238Y0081727D01*
X0258328Y0081639D01*
X0258416Y0081549D01*
X0258500Y0081456D01*
X0258582Y0081361D01*
X0258661Y0081263D01*
X0258736Y0081162D01*
X0258808Y0081059D01*
X0258877Y0080954D01*
X0258943Y0080847D01*
X0259005Y0080738D01*
X0259064Y0080627D01*
X0259119Y0080514D01*
X0259171Y0080400D01*
X0259219Y0080283D01*
X0259264Y0080166D01*
X0259304Y0080047D01*
X0259341Y0079927D01*
X0259374Y0079806D01*
X0259404Y0079684D01*
X0259429Y0079561D01*
X0259451Y0079437D01*
X0259468Y0079312D01*
X0259482Y0079187D01*
X0259492Y0079062D01*
X0259498Y0078937D01*
X0259500Y0078811D01*
X0259500Y0055811D01*
X0265500Y0055811D01*
X0265626Y0055813D01*
X0265751Y0055819D01*
X0265876Y0055829D01*
X0266001Y0055843D01*
X0266126Y0055860D01*
X0266250Y0055882D01*
X0266373Y0055907D01*
X0266495Y0055937D01*
X0266616Y0055970D01*
X0266736Y0056007D01*
X0266855Y0056047D01*
X0266972Y0056092D01*
X0267089Y0056140D01*
X0267203Y0056192D01*
X0267316Y0056247D01*
X0267427Y0056306D01*
X0267536Y0056368D01*
X0267643Y0056434D01*
X0267748Y0056503D01*
X0267851Y0056575D01*
X0267952Y0056650D01*
X0268050Y0056729D01*
X0268145Y0056811D01*
X0268238Y0056895D01*
X0268328Y0056983D01*
X0268416Y0057073D01*
X0268500Y0057166D01*
X0268582Y0057261D01*
X0268661Y0057359D01*
X0268736Y0057460D01*
X0268808Y0057563D01*
X0268877Y0057668D01*
X0268943Y0057775D01*
X0269005Y0057884D01*
X0269064Y0057995D01*
X0269119Y0058108D01*
X0269171Y0058222D01*
X0269219Y0058339D01*
X0269264Y0058456D01*
X0269304Y0058575D01*
X0269341Y0058695D01*
X0269374Y0058816D01*
X0269404Y0058938D01*
X0269429Y0059061D01*
X0269451Y0059185D01*
X0269468Y0059310D01*
X0269482Y0059435D01*
X0269492Y0059560D01*
X0269498Y0059685D01*
X0269500Y0059811D01*
X0269500Y0160811D01*
X0269498Y0160937D01*
X0269492Y0161062D01*
X0269482Y0161187D01*
X0269468Y0161312D01*
X0269451Y0161437D01*
X0269429Y0161561D01*
X0269404Y0161684D01*
X0269374Y0161806D01*
X0269341Y0161927D01*
X0269304Y0162047D01*
X0269264Y0162166D01*
X0269219Y0162283D01*
X0269171Y0162400D01*
X0269119Y0162514D01*
X0269064Y0162627D01*
X0269005Y0162738D01*
X0268943Y0162847D01*
X0268877Y0162954D01*
X0268808Y0163059D01*
X0268736Y0163162D01*
X0268661Y0163263D01*
X0268582Y0163361D01*
X0268500Y0163456D01*
X0268416Y0163549D01*
X0268328Y0163639D01*
X0268238Y0163727D01*
X0268145Y0163811D01*
X0268050Y0163893D01*
X0267952Y0163972D01*
X0267851Y0164047D01*
X0267748Y0164119D01*
X0267643Y0164188D01*
X0267536Y0164254D01*
X0267427Y0164316D01*
X0267316Y0164375D01*
X0267203Y0164430D01*
X0267089Y0164482D01*
X0266972Y0164530D01*
X0266855Y0164575D01*
X0266736Y0164615D01*
X0266616Y0164652D01*
X0266495Y0164685D01*
X0266373Y0164715D01*
X0266250Y0164740D01*
X0266126Y0164762D01*
X0266001Y0164779D01*
X0265876Y0164793D01*
X0265751Y0164803D01*
X0265626Y0164809D01*
X0265500Y0164811D01*
X0259500Y0164811D01*
X0259500Y0096811D01*
X0259498Y0096685D01*
X0259492Y0096560D01*
X0259482Y0096435D01*
X0259468Y0096310D01*
X0259451Y0096185D01*
X0259429Y0096061D01*
X0259404Y0095938D01*
X0259374Y0095816D01*
X0259341Y0095695D01*
X0259304Y0095575D01*
X0259264Y0095456D01*
X0259219Y0095339D01*
X0259171Y0095222D01*
X0259119Y0095108D01*
X0259064Y0094995D01*
X0259005Y0094884D01*
X0258943Y0094775D01*
X0258877Y0094668D01*
X0258808Y0094563D01*
X0258736Y0094460D01*
X0258661Y0094359D01*
X0258582Y0094261D01*
X0258500Y0094166D01*
X0258416Y0094073D01*
X0258328Y0093983D01*
X0258238Y0093895D01*
X0258145Y0093811D01*
X0258050Y0093729D01*
X0257952Y0093650D01*
X0257851Y0093575D01*
X0257748Y0093503D01*
X0257643Y0093434D01*
X0257536Y0093368D01*
X0257427Y0093306D01*
X0257316Y0093247D01*
X0257203Y0093192D01*
X0257089Y0093140D01*
X0256972Y0093092D01*
X0256855Y0093047D01*
X0256736Y0093007D01*
X0256616Y0092970D01*
X0256495Y0092937D01*
X0256373Y0092907D01*
X0256250Y0092882D01*
X0256126Y0092860D01*
X0256001Y0092843D01*
X0255876Y0092829D01*
X0255751Y0092819D01*
X0255626Y0092813D01*
X0255500Y0092811D01*
X0238500Y0092811D01*
X0237925Y0093811D02*
X0237927Y0093890D01*
X0237933Y0093969D01*
X0237943Y0094048D01*
X0237957Y0094126D01*
X0237974Y0094203D01*
X0237996Y0094279D01*
X0238021Y0094354D01*
X0238051Y0094427D01*
X0238083Y0094499D01*
X0238120Y0094570D01*
X0238160Y0094638D01*
X0238203Y0094704D01*
X0238249Y0094768D01*
X0238299Y0094830D01*
X0238352Y0094889D01*
X0238407Y0094945D01*
X0238466Y0094999D01*
X0238527Y0095049D01*
X0238590Y0095097D01*
X0238656Y0095141D01*
X0238724Y0095182D01*
X0238794Y0095219D01*
X0238865Y0095253D01*
X0238939Y0095283D01*
X0239013Y0095309D01*
X0239089Y0095331D01*
X0239166Y0095350D01*
X0239244Y0095365D01*
X0239322Y0095376D01*
X0239401Y0095383D01*
X0239480Y0095386D01*
X0239559Y0095385D01*
X0239638Y0095380D01*
X0239717Y0095371D01*
X0239795Y0095358D01*
X0239872Y0095341D01*
X0239949Y0095321D01*
X0240024Y0095296D01*
X0240098Y0095268D01*
X0240171Y0095236D01*
X0240241Y0095201D01*
X0240310Y0095162D01*
X0240377Y0095119D01*
X0240442Y0095073D01*
X0240504Y0095025D01*
X0240564Y0094973D01*
X0240621Y0094918D01*
X0240675Y0094860D01*
X0240726Y0094800D01*
X0240774Y0094737D01*
X0240819Y0094672D01*
X0240861Y0094604D01*
X0240899Y0094535D01*
X0240933Y0094464D01*
X0240964Y0094391D01*
X0240992Y0094316D01*
X0241015Y0094241D01*
X0241035Y0094164D01*
X0241051Y0094087D01*
X0241063Y0094008D01*
X0241071Y0093930D01*
X0241075Y0093851D01*
X0241075Y0093771D01*
X0241071Y0093692D01*
X0241063Y0093614D01*
X0241051Y0093535D01*
X0241035Y0093458D01*
X0241015Y0093381D01*
X0240992Y0093306D01*
X0240964Y0093231D01*
X0240933Y0093158D01*
X0240899Y0093087D01*
X0240861Y0093018D01*
X0240819Y0092950D01*
X0240774Y0092885D01*
X0240726Y0092822D01*
X0240675Y0092762D01*
X0240621Y0092704D01*
X0240564Y0092649D01*
X0240504Y0092597D01*
X0240442Y0092549D01*
X0240377Y0092503D01*
X0240310Y0092460D01*
X0240241Y0092421D01*
X0240171Y0092386D01*
X0240098Y0092354D01*
X0240024Y0092326D01*
X0239949Y0092301D01*
X0239872Y0092281D01*
X0239795Y0092264D01*
X0239717Y0092251D01*
X0239638Y0092242D01*
X0239559Y0092237D01*
X0239480Y0092236D01*
X0239401Y0092239D01*
X0239322Y0092246D01*
X0239244Y0092257D01*
X0239166Y0092272D01*
X0239089Y0092291D01*
X0239013Y0092313D01*
X0238939Y0092339D01*
X0238865Y0092369D01*
X0238794Y0092403D01*
X0238724Y0092440D01*
X0238656Y0092481D01*
X0238590Y0092525D01*
X0238527Y0092573D01*
X0238466Y0092623D01*
X0238407Y0092677D01*
X0238352Y0092733D01*
X0238299Y0092792D01*
X0238249Y0092854D01*
X0238203Y0092918D01*
X0238160Y0092984D01*
X0238120Y0093052D01*
X0238083Y0093123D01*
X0238051Y0093195D01*
X0238021Y0093268D01*
X0237996Y0093343D01*
X0237974Y0093419D01*
X0237957Y0093496D01*
X0237943Y0093574D01*
X0237933Y0093653D01*
X0237927Y0093732D01*
X0237925Y0093811D01*
X0256925Y0056811D02*
X0256927Y0056890D01*
X0256933Y0056969D01*
X0256943Y0057048D01*
X0256957Y0057126D01*
X0256974Y0057203D01*
X0256996Y0057279D01*
X0257021Y0057354D01*
X0257051Y0057427D01*
X0257083Y0057499D01*
X0257120Y0057570D01*
X0257160Y0057638D01*
X0257203Y0057704D01*
X0257249Y0057768D01*
X0257299Y0057830D01*
X0257352Y0057889D01*
X0257407Y0057945D01*
X0257466Y0057999D01*
X0257527Y0058049D01*
X0257590Y0058097D01*
X0257656Y0058141D01*
X0257724Y0058182D01*
X0257794Y0058219D01*
X0257865Y0058253D01*
X0257939Y0058283D01*
X0258013Y0058309D01*
X0258089Y0058331D01*
X0258166Y0058350D01*
X0258244Y0058365D01*
X0258322Y0058376D01*
X0258401Y0058383D01*
X0258480Y0058386D01*
X0258559Y0058385D01*
X0258638Y0058380D01*
X0258717Y0058371D01*
X0258795Y0058358D01*
X0258872Y0058341D01*
X0258949Y0058321D01*
X0259024Y0058296D01*
X0259098Y0058268D01*
X0259171Y0058236D01*
X0259241Y0058201D01*
X0259310Y0058162D01*
X0259377Y0058119D01*
X0259442Y0058073D01*
X0259504Y0058025D01*
X0259564Y0057973D01*
X0259621Y0057918D01*
X0259675Y0057860D01*
X0259726Y0057800D01*
X0259774Y0057737D01*
X0259819Y0057672D01*
X0259861Y0057604D01*
X0259899Y0057535D01*
X0259933Y0057464D01*
X0259964Y0057391D01*
X0259992Y0057316D01*
X0260015Y0057241D01*
X0260035Y0057164D01*
X0260051Y0057087D01*
X0260063Y0057008D01*
X0260071Y0056930D01*
X0260075Y0056851D01*
X0260075Y0056771D01*
X0260071Y0056692D01*
X0260063Y0056614D01*
X0260051Y0056535D01*
X0260035Y0056458D01*
X0260015Y0056381D01*
X0259992Y0056306D01*
X0259964Y0056231D01*
X0259933Y0056158D01*
X0259899Y0056087D01*
X0259861Y0056018D01*
X0259819Y0055950D01*
X0259774Y0055885D01*
X0259726Y0055822D01*
X0259675Y0055762D01*
X0259621Y0055704D01*
X0259564Y0055649D01*
X0259504Y0055597D01*
X0259442Y0055549D01*
X0259377Y0055503D01*
X0259310Y0055460D01*
X0259241Y0055421D01*
X0259171Y0055386D01*
X0259098Y0055354D01*
X0259024Y0055326D01*
X0258949Y0055301D01*
X0258872Y0055281D01*
X0258795Y0055264D01*
X0258717Y0055251D01*
X0258638Y0055242D01*
X0258559Y0055237D01*
X0258480Y0055236D01*
X0258401Y0055239D01*
X0258322Y0055246D01*
X0258244Y0055257D01*
X0258166Y0055272D01*
X0258089Y0055291D01*
X0258013Y0055313D01*
X0257939Y0055339D01*
X0257865Y0055369D01*
X0257794Y0055403D01*
X0257724Y0055440D01*
X0257656Y0055481D01*
X0257590Y0055525D01*
X0257527Y0055573D01*
X0257466Y0055623D01*
X0257407Y0055677D01*
X0257352Y0055733D01*
X0257299Y0055792D01*
X0257249Y0055854D01*
X0257203Y0055918D01*
X0257160Y0055984D01*
X0257120Y0056052D01*
X0257083Y0056123D01*
X0257051Y0056195D01*
X0257021Y0056268D01*
X0256996Y0056343D01*
X0256974Y0056419D01*
X0256957Y0056496D01*
X0256943Y0056574D01*
X0256933Y0056653D01*
X0256927Y0056732D01*
X0256925Y0056811D01*
X0256925Y0049811D02*
X0256927Y0049890D01*
X0256933Y0049969D01*
X0256943Y0050048D01*
X0256957Y0050126D01*
X0256974Y0050203D01*
X0256996Y0050279D01*
X0257021Y0050354D01*
X0257051Y0050427D01*
X0257083Y0050499D01*
X0257120Y0050570D01*
X0257160Y0050638D01*
X0257203Y0050704D01*
X0257249Y0050768D01*
X0257299Y0050830D01*
X0257352Y0050889D01*
X0257407Y0050945D01*
X0257466Y0050999D01*
X0257527Y0051049D01*
X0257590Y0051097D01*
X0257656Y0051141D01*
X0257724Y0051182D01*
X0257794Y0051219D01*
X0257865Y0051253D01*
X0257939Y0051283D01*
X0258013Y0051309D01*
X0258089Y0051331D01*
X0258166Y0051350D01*
X0258244Y0051365D01*
X0258322Y0051376D01*
X0258401Y0051383D01*
X0258480Y0051386D01*
X0258559Y0051385D01*
X0258638Y0051380D01*
X0258717Y0051371D01*
X0258795Y0051358D01*
X0258872Y0051341D01*
X0258949Y0051321D01*
X0259024Y0051296D01*
X0259098Y0051268D01*
X0259171Y0051236D01*
X0259241Y0051201D01*
X0259310Y0051162D01*
X0259377Y0051119D01*
X0259442Y0051073D01*
X0259504Y0051025D01*
X0259564Y0050973D01*
X0259621Y0050918D01*
X0259675Y0050860D01*
X0259726Y0050800D01*
X0259774Y0050737D01*
X0259819Y0050672D01*
X0259861Y0050604D01*
X0259899Y0050535D01*
X0259933Y0050464D01*
X0259964Y0050391D01*
X0259992Y0050316D01*
X0260015Y0050241D01*
X0260035Y0050164D01*
X0260051Y0050087D01*
X0260063Y0050008D01*
X0260071Y0049930D01*
X0260075Y0049851D01*
X0260075Y0049771D01*
X0260071Y0049692D01*
X0260063Y0049614D01*
X0260051Y0049535D01*
X0260035Y0049458D01*
X0260015Y0049381D01*
X0259992Y0049306D01*
X0259964Y0049231D01*
X0259933Y0049158D01*
X0259899Y0049087D01*
X0259861Y0049018D01*
X0259819Y0048950D01*
X0259774Y0048885D01*
X0259726Y0048822D01*
X0259675Y0048762D01*
X0259621Y0048704D01*
X0259564Y0048649D01*
X0259504Y0048597D01*
X0259442Y0048549D01*
X0259377Y0048503D01*
X0259310Y0048460D01*
X0259241Y0048421D01*
X0259171Y0048386D01*
X0259098Y0048354D01*
X0259024Y0048326D01*
X0258949Y0048301D01*
X0258872Y0048281D01*
X0258795Y0048264D01*
X0258717Y0048251D01*
X0258638Y0048242D01*
X0258559Y0048237D01*
X0258480Y0048236D01*
X0258401Y0048239D01*
X0258322Y0048246D01*
X0258244Y0048257D01*
X0258166Y0048272D01*
X0258089Y0048291D01*
X0258013Y0048313D01*
X0257939Y0048339D01*
X0257865Y0048369D01*
X0257794Y0048403D01*
X0257724Y0048440D01*
X0257656Y0048481D01*
X0257590Y0048525D01*
X0257527Y0048573D01*
X0257466Y0048623D01*
X0257407Y0048677D01*
X0257352Y0048733D01*
X0257299Y0048792D01*
X0257249Y0048854D01*
X0257203Y0048918D01*
X0257160Y0048984D01*
X0257120Y0049052D01*
X0257083Y0049123D01*
X0257051Y0049195D01*
X0257021Y0049268D01*
X0256996Y0049343D01*
X0256974Y0049419D01*
X0256957Y0049496D01*
X0256943Y0049574D01*
X0256933Y0049653D01*
X0256927Y0049732D01*
X0256925Y0049811D01*
X0256925Y0042811D02*
X0256927Y0042890D01*
X0256933Y0042969D01*
X0256943Y0043048D01*
X0256957Y0043126D01*
X0256974Y0043203D01*
X0256996Y0043279D01*
X0257021Y0043354D01*
X0257051Y0043427D01*
X0257083Y0043499D01*
X0257120Y0043570D01*
X0257160Y0043638D01*
X0257203Y0043704D01*
X0257249Y0043768D01*
X0257299Y0043830D01*
X0257352Y0043889D01*
X0257407Y0043945D01*
X0257466Y0043999D01*
X0257527Y0044049D01*
X0257590Y0044097D01*
X0257656Y0044141D01*
X0257724Y0044182D01*
X0257794Y0044219D01*
X0257865Y0044253D01*
X0257939Y0044283D01*
X0258013Y0044309D01*
X0258089Y0044331D01*
X0258166Y0044350D01*
X0258244Y0044365D01*
X0258322Y0044376D01*
X0258401Y0044383D01*
X0258480Y0044386D01*
X0258559Y0044385D01*
X0258638Y0044380D01*
X0258717Y0044371D01*
X0258795Y0044358D01*
X0258872Y0044341D01*
X0258949Y0044321D01*
X0259024Y0044296D01*
X0259098Y0044268D01*
X0259171Y0044236D01*
X0259241Y0044201D01*
X0259310Y0044162D01*
X0259377Y0044119D01*
X0259442Y0044073D01*
X0259504Y0044025D01*
X0259564Y0043973D01*
X0259621Y0043918D01*
X0259675Y0043860D01*
X0259726Y0043800D01*
X0259774Y0043737D01*
X0259819Y0043672D01*
X0259861Y0043604D01*
X0259899Y0043535D01*
X0259933Y0043464D01*
X0259964Y0043391D01*
X0259992Y0043316D01*
X0260015Y0043241D01*
X0260035Y0043164D01*
X0260051Y0043087D01*
X0260063Y0043008D01*
X0260071Y0042930D01*
X0260075Y0042851D01*
X0260075Y0042771D01*
X0260071Y0042692D01*
X0260063Y0042614D01*
X0260051Y0042535D01*
X0260035Y0042458D01*
X0260015Y0042381D01*
X0259992Y0042306D01*
X0259964Y0042231D01*
X0259933Y0042158D01*
X0259899Y0042087D01*
X0259861Y0042018D01*
X0259819Y0041950D01*
X0259774Y0041885D01*
X0259726Y0041822D01*
X0259675Y0041762D01*
X0259621Y0041704D01*
X0259564Y0041649D01*
X0259504Y0041597D01*
X0259442Y0041549D01*
X0259377Y0041503D01*
X0259310Y0041460D01*
X0259241Y0041421D01*
X0259171Y0041386D01*
X0259098Y0041354D01*
X0259024Y0041326D01*
X0258949Y0041301D01*
X0258872Y0041281D01*
X0258795Y0041264D01*
X0258717Y0041251D01*
X0258638Y0041242D01*
X0258559Y0041237D01*
X0258480Y0041236D01*
X0258401Y0041239D01*
X0258322Y0041246D01*
X0258244Y0041257D01*
X0258166Y0041272D01*
X0258089Y0041291D01*
X0258013Y0041313D01*
X0257939Y0041339D01*
X0257865Y0041369D01*
X0257794Y0041403D01*
X0257724Y0041440D01*
X0257656Y0041481D01*
X0257590Y0041525D01*
X0257527Y0041573D01*
X0257466Y0041623D01*
X0257407Y0041677D01*
X0257352Y0041733D01*
X0257299Y0041792D01*
X0257249Y0041854D01*
X0257203Y0041918D01*
X0257160Y0041984D01*
X0257120Y0042052D01*
X0257083Y0042123D01*
X0257051Y0042195D01*
X0257021Y0042268D01*
X0256996Y0042343D01*
X0256974Y0042419D01*
X0256957Y0042496D01*
X0256943Y0042574D01*
X0256933Y0042653D01*
X0256927Y0042732D01*
X0256925Y0042811D01*
X0256925Y0035811D02*
X0256927Y0035890D01*
X0256933Y0035969D01*
X0256943Y0036048D01*
X0256957Y0036126D01*
X0256974Y0036203D01*
X0256996Y0036279D01*
X0257021Y0036354D01*
X0257051Y0036427D01*
X0257083Y0036499D01*
X0257120Y0036570D01*
X0257160Y0036638D01*
X0257203Y0036704D01*
X0257249Y0036768D01*
X0257299Y0036830D01*
X0257352Y0036889D01*
X0257407Y0036945D01*
X0257466Y0036999D01*
X0257527Y0037049D01*
X0257590Y0037097D01*
X0257656Y0037141D01*
X0257724Y0037182D01*
X0257794Y0037219D01*
X0257865Y0037253D01*
X0257939Y0037283D01*
X0258013Y0037309D01*
X0258089Y0037331D01*
X0258166Y0037350D01*
X0258244Y0037365D01*
X0258322Y0037376D01*
X0258401Y0037383D01*
X0258480Y0037386D01*
X0258559Y0037385D01*
X0258638Y0037380D01*
X0258717Y0037371D01*
X0258795Y0037358D01*
X0258872Y0037341D01*
X0258949Y0037321D01*
X0259024Y0037296D01*
X0259098Y0037268D01*
X0259171Y0037236D01*
X0259241Y0037201D01*
X0259310Y0037162D01*
X0259377Y0037119D01*
X0259442Y0037073D01*
X0259504Y0037025D01*
X0259564Y0036973D01*
X0259621Y0036918D01*
X0259675Y0036860D01*
X0259726Y0036800D01*
X0259774Y0036737D01*
X0259819Y0036672D01*
X0259861Y0036604D01*
X0259899Y0036535D01*
X0259933Y0036464D01*
X0259964Y0036391D01*
X0259992Y0036316D01*
X0260015Y0036241D01*
X0260035Y0036164D01*
X0260051Y0036087D01*
X0260063Y0036008D01*
X0260071Y0035930D01*
X0260075Y0035851D01*
X0260075Y0035771D01*
X0260071Y0035692D01*
X0260063Y0035614D01*
X0260051Y0035535D01*
X0260035Y0035458D01*
X0260015Y0035381D01*
X0259992Y0035306D01*
X0259964Y0035231D01*
X0259933Y0035158D01*
X0259899Y0035087D01*
X0259861Y0035018D01*
X0259819Y0034950D01*
X0259774Y0034885D01*
X0259726Y0034822D01*
X0259675Y0034762D01*
X0259621Y0034704D01*
X0259564Y0034649D01*
X0259504Y0034597D01*
X0259442Y0034549D01*
X0259377Y0034503D01*
X0259310Y0034460D01*
X0259241Y0034421D01*
X0259171Y0034386D01*
X0259098Y0034354D01*
X0259024Y0034326D01*
X0258949Y0034301D01*
X0258872Y0034281D01*
X0258795Y0034264D01*
X0258717Y0034251D01*
X0258638Y0034242D01*
X0258559Y0034237D01*
X0258480Y0034236D01*
X0258401Y0034239D01*
X0258322Y0034246D01*
X0258244Y0034257D01*
X0258166Y0034272D01*
X0258089Y0034291D01*
X0258013Y0034313D01*
X0257939Y0034339D01*
X0257865Y0034369D01*
X0257794Y0034403D01*
X0257724Y0034440D01*
X0257656Y0034481D01*
X0257590Y0034525D01*
X0257527Y0034573D01*
X0257466Y0034623D01*
X0257407Y0034677D01*
X0257352Y0034733D01*
X0257299Y0034792D01*
X0257249Y0034854D01*
X0257203Y0034918D01*
X0257160Y0034984D01*
X0257120Y0035052D01*
X0257083Y0035123D01*
X0257051Y0035195D01*
X0257021Y0035268D01*
X0256996Y0035343D01*
X0256974Y0035419D01*
X0256957Y0035496D01*
X0256943Y0035574D01*
X0256933Y0035653D01*
X0256927Y0035732D01*
X0256925Y0035811D01*
X0256925Y0028811D02*
X0256927Y0028890D01*
X0256933Y0028969D01*
X0256943Y0029048D01*
X0256957Y0029126D01*
X0256974Y0029203D01*
X0256996Y0029279D01*
X0257021Y0029354D01*
X0257051Y0029427D01*
X0257083Y0029499D01*
X0257120Y0029570D01*
X0257160Y0029638D01*
X0257203Y0029704D01*
X0257249Y0029768D01*
X0257299Y0029830D01*
X0257352Y0029889D01*
X0257407Y0029945D01*
X0257466Y0029999D01*
X0257527Y0030049D01*
X0257590Y0030097D01*
X0257656Y0030141D01*
X0257724Y0030182D01*
X0257794Y0030219D01*
X0257865Y0030253D01*
X0257939Y0030283D01*
X0258013Y0030309D01*
X0258089Y0030331D01*
X0258166Y0030350D01*
X0258244Y0030365D01*
X0258322Y0030376D01*
X0258401Y0030383D01*
X0258480Y0030386D01*
X0258559Y0030385D01*
X0258638Y0030380D01*
X0258717Y0030371D01*
X0258795Y0030358D01*
X0258872Y0030341D01*
X0258949Y0030321D01*
X0259024Y0030296D01*
X0259098Y0030268D01*
X0259171Y0030236D01*
X0259241Y0030201D01*
X0259310Y0030162D01*
X0259377Y0030119D01*
X0259442Y0030073D01*
X0259504Y0030025D01*
X0259564Y0029973D01*
X0259621Y0029918D01*
X0259675Y0029860D01*
X0259726Y0029800D01*
X0259774Y0029737D01*
X0259819Y0029672D01*
X0259861Y0029604D01*
X0259899Y0029535D01*
X0259933Y0029464D01*
X0259964Y0029391D01*
X0259992Y0029316D01*
X0260015Y0029241D01*
X0260035Y0029164D01*
X0260051Y0029087D01*
X0260063Y0029008D01*
X0260071Y0028930D01*
X0260075Y0028851D01*
X0260075Y0028771D01*
X0260071Y0028692D01*
X0260063Y0028614D01*
X0260051Y0028535D01*
X0260035Y0028458D01*
X0260015Y0028381D01*
X0259992Y0028306D01*
X0259964Y0028231D01*
X0259933Y0028158D01*
X0259899Y0028087D01*
X0259861Y0028018D01*
X0259819Y0027950D01*
X0259774Y0027885D01*
X0259726Y0027822D01*
X0259675Y0027762D01*
X0259621Y0027704D01*
X0259564Y0027649D01*
X0259504Y0027597D01*
X0259442Y0027549D01*
X0259377Y0027503D01*
X0259310Y0027460D01*
X0259241Y0027421D01*
X0259171Y0027386D01*
X0259098Y0027354D01*
X0259024Y0027326D01*
X0258949Y0027301D01*
X0258872Y0027281D01*
X0258795Y0027264D01*
X0258717Y0027251D01*
X0258638Y0027242D01*
X0258559Y0027237D01*
X0258480Y0027236D01*
X0258401Y0027239D01*
X0258322Y0027246D01*
X0258244Y0027257D01*
X0258166Y0027272D01*
X0258089Y0027291D01*
X0258013Y0027313D01*
X0257939Y0027339D01*
X0257865Y0027369D01*
X0257794Y0027403D01*
X0257724Y0027440D01*
X0257656Y0027481D01*
X0257590Y0027525D01*
X0257527Y0027573D01*
X0257466Y0027623D01*
X0257407Y0027677D01*
X0257352Y0027733D01*
X0257299Y0027792D01*
X0257249Y0027854D01*
X0257203Y0027918D01*
X0257160Y0027984D01*
X0257120Y0028052D01*
X0257083Y0028123D01*
X0257051Y0028195D01*
X0257021Y0028268D01*
X0256996Y0028343D01*
X0256974Y0028419D01*
X0256957Y0028496D01*
X0256943Y0028574D01*
X0256933Y0028653D01*
X0256927Y0028732D01*
X0256925Y0028811D01*
X0256925Y0163811D02*
X0256927Y0163890D01*
X0256933Y0163969D01*
X0256943Y0164048D01*
X0256957Y0164126D01*
X0256974Y0164203D01*
X0256996Y0164279D01*
X0257021Y0164354D01*
X0257051Y0164427D01*
X0257083Y0164499D01*
X0257120Y0164570D01*
X0257160Y0164638D01*
X0257203Y0164704D01*
X0257249Y0164768D01*
X0257299Y0164830D01*
X0257352Y0164889D01*
X0257407Y0164945D01*
X0257466Y0164999D01*
X0257527Y0165049D01*
X0257590Y0165097D01*
X0257656Y0165141D01*
X0257724Y0165182D01*
X0257794Y0165219D01*
X0257865Y0165253D01*
X0257939Y0165283D01*
X0258013Y0165309D01*
X0258089Y0165331D01*
X0258166Y0165350D01*
X0258244Y0165365D01*
X0258322Y0165376D01*
X0258401Y0165383D01*
X0258480Y0165386D01*
X0258559Y0165385D01*
X0258638Y0165380D01*
X0258717Y0165371D01*
X0258795Y0165358D01*
X0258872Y0165341D01*
X0258949Y0165321D01*
X0259024Y0165296D01*
X0259098Y0165268D01*
X0259171Y0165236D01*
X0259241Y0165201D01*
X0259310Y0165162D01*
X0259377Y0165119D01*
X0259442Y0165073D01*
X0259504Y0165025D01*
X0259564Y0164973D01*
X0259621Y0164918D01*
X0259675Y0164860D01*
X0259726Y0164800D01*
X0259774Y0164737D01*
X0259819Y0164672D01*
X0259861Y0164604D01*
X0259899Y0164535D01*
X0259933Y0164464D01*
X0259964Y0164391D01*
X0259992Y0164316D01*
X0260015Y0164241D01*
X0260035Y0164164D01*
X0260051Y0164087D01*
X0260063Y0164008D01*
X0260071Y0163930D01*
X0260075Y0163851D01*
X0260075Y0163771D01*
X0260071Y0163692D01*
X0260063Y0163614D01*
X0260051Y0163535D01*
X0260035Y0163458D01*
X0260015Y0163381D01*
X0259992Y0163306D01*
X0259964Y0163231D01*
X0259933Y0163158D01*
X0259899Y0163087D01*
X0259861Y0163018D01*
X0259819Y0162950D01*
X0259774Y0162885D01*
X0259726Y0162822D01*
X0259675Y0162762D01*
X0259621Y0162704D01*
X0259564Y0162649D01*
X0259504Y0162597D01*
X0259442Y0162549D01*
X0259377Y0162503D01*
X0259310Y0162460D01*
X0259241Y0162421D01*
X0259171Y0162386D01*
X0259098Y0162354D01*
X0259024Y0162326D01*
X0258949Y0162301D01*
X0258872Y0162281D01*
X0258795Y0162264D01*
X0258717Y0162251D01*
X0258638Y0162242D01*
X0258559Y0162237D01*
X0258480Y0162236D01*
X0258401Y0162239D01*
X0258322Y0162246D01*
X0258244Y0162257D01*
X0258166Y0162272D01*
X0258089Y0162291D01*
X0258013Y0162313D01*
X0257939Y0162339D01*
X0257865Y0162369D01*
X0257794Y0162403D01*
X0257724Y0162440D01*
X0257656Y0162481D01*
X0257590Y0162525D01*
X0257527Y0162573D01*
X0257466Y0162623D01*
X0257407Y0162677D01*
X0257352Y0162733D01*
X0257299Y0162792D01*
X0257249Y0162854D01*
X0257203Y0162918D01*
X0257160Y0162984D01*
X0257120Y0163052D01*
X0257083Y0163123D01*
X0257051Y0163195D01*
X0257021Y0163268D01*
X0256996Y0163343D01*
X0256974Y0163419D01*
X0256957Y0163496D01*
X0256943Y0163574D01*
X0256933Y0163653D01*
X0256927Y0163732D01*
X0256925Y0163811D01*
X0256925Y0170811D02*
X0256927Y0170890D01*
X0256933Y0170969D01*
X0256943Y0171048D01*
X0256957Y0171126D01*
X0256974Y0171203D01*
X0256996Y0171279D01*
X0257021Y0171354D01*
X0257051Y0171427D01*
X0257083Y0171499D01*
X0257120Y0171570D01*
X0257160Y0171638D01*
X0257203Y0171704D01*
X0257249Y0171768D01*
X0257299Y0171830D01*
X0257352Y0171889D01*
X0257407Y0171945D01*
X0257466Y0171999D01*
X0257527Y0172049D01*
X0257590Y0172097D01*
X0257656Y0172141D01*
X0257724Y0172182D01*
X0257794Y0172219D01*
X0257865Y0172253D01*
X0257939Y0172283D01*
X0258013Y0172309D01*
X0258089Y0172331D01*
X0258166Y0172350D01*
X0258244Y0172365D01*
X0258322Y0172376D01*
X0258401Y0172383D01*
X0258480Y0172386D01*
X0258559Y0172385D01*
X0258638Y0172380D01*
X0258717Y0172371D01*
X0258795Y0172358D01*
X0258872Y0172341D01*
X0258949Y0172321D01*
X0259024Y0172296D01*
X0259098Y0172268D01*
X0259171Y0172236D01*
X0259241Y0172201D01*
X0259310Y0172162D01*
X0259377Y0172119D01*
X0259442Y0172073D01*
X0259504Y0172025D01*
X0259564Y0171973D01*
X0259621Y0171918D01*
X0259675Y0171860D01*
X0259726Y0171800D01*
X0259774Y0171737D01*
X0259819Y0171672D01*
X0259861Y0171604D01*
X0259899Y0171535D01*
X0259933Y0171464D01*
X0259964Y0171391D01*
X0259992Y0171316D01*
X0260015Y0171241D01*
X0260035Y0171164D01*
X0260051Y0171087D01*
X0260063Y0171008D01*
X0260071Y0170930D01*
X0260075Y0170851D01*
X0260075Y0170771D01*
X0260071Y0170692D01*
X0260063Y0170614D01*
X0260051Y0170535D01*
X0260035Y0170458D01*
X0260015Y0170381D01*
X0259992Y0170306D01*
X0259964Y0170231D01*
X0259933Y0170158D01*
X0259899Y0170087D01*
X0259861Y0170018D01*
X0259819Y0169950D01*
X0259774Y0169885D01*
X0259726Y0169822D01*
X0259675Y0169762D01*
X0259621Y0169704D01*
X0259564Y0169649D01*
X0259504Y0169597D01*
X0259442Y0169549D01*
X0259377Y0169503D01*
X0259310Y0169460D01*
X0259241Y0169421D01*
X0259171Y0169386D01*
X0259098Y0169354D01*
X0259024Y0169326D01*
X0258949Y0169301D01*
X0258872Y0169281D01*
X0258795Y0169264D01*
X0258717Y0169251D01*
X0258638Y0169242D01*
X0258559Y0169237D01*
X0258480Y0169236D01*
X0258401Y0169239D01*
X0258322Y0169246D01*
X0258244Y0169257D01*
X0258166Y0169272D01*
X0258089Y0169291D01*
X0258013Y0169313D01*
X0257939Y0169339D01*
X0257865Y0169369D01*
X0257794Y0169403D01*
X0257724Y0169440D01*
X0257656Y0169481D01*
X0257590Y0169525D01*
X0257527Y0169573D01*
X0257466Y0169623D01*
X0257407Y0169677D01*
X0257352Y0169733D01*
X0257299Y0169792D01*
X0257249Y0169854D01*
X0257203Y0169918D01*
X0257160Y0169984D01*
X0257120Y0170052D01*
X0257083Y0170123D01*
X0257051Y0170195D01*
X0257021Y0170268D01*
X0256996Y0170343D01*
X0256974Y0170419D01*
X0256957Y0170496D01*
X0256943Y0170574D01*
X0256933Y0170653D01*
X0256927Y0170732D01*
X0256925Y0170811D01*
X0256925Y0177811D02*
X0256927Y0177890D01*
X0256933Y0177969D01*
X0256943Y0178048D01*
X0256957Y0178126D01*
X0256974Y0178203D01*
X0256996Y0178279D01*
X0257021Y0178354D01*
X0257051Y0178427D01*
X0257083Y0178499D01*
X0257120Y0178570D01*
X0257160Y0178638D01*
X0257203Y0178704D01*
X0257249Y0178768D01*
X0257299Y0178830D01*
X0257352Y0178889D01*
X0257407Y0178945D01*
X0257466Y0178999D01*
X0257527Y0179049D01*
X0257590Y0179097D01*
X0257656Y0179141D01*
X0257724Y0179182D01*
X0257794Y0179219D01*
X0257865Y0179253D01*
X0257939Y0179283D01*
X0258013Y0179309D01*
X0258089Y0179331D01*
X0258166Y0179350D01*
X0258244Y0179365D01*
X0258322Y0179376D01*
X0258401Y0179383D01*
X0258480Y0179386D01*
X0258559Y0179385D01*
X0258638Y0179380D01*
X0258717Y0179371D01*
X0258795Y0179358D01*
X0258872Y0179341D01*
X0258949Y0179321D01*
X0259024Y0179296D01*
X0259098Y0179268D01*
X0259171Y0179236D01*
X0259241Y0179201D01*
X0259310Y0179162D01*
X0259377Y0179119D01*
X0259442Y0179073D01*
X0259504Y0179025D01*
X0259564Y0178973D01*
X0259621Y0178918D01*
X0259675Y0178860D01*
X0259726Y0178800D01*
X0259774Y0178737D01*
X0259819Y0178672D01*
X0259861Y0178604D01*
X0259899Y0178535D01*
X0259933Y0178464D01*
X0259964Y0178391D01*
X0259992Y0178316D01*
X0260015Y0178241D01*
X0260035Y0178164D01*
X0260051Y0178087D01*
X0260063Y0178008D01*
X0260071Y0177930D01*
X0260075Y0177851D01*
X0260075Y0177771D01*
X0260071Y0177692D01*
X0260063Y0177614D01*
X0260051Y0177535D01*
X0260035Y0177458D01*
X0260015Y0177381D01*
X0259992Y0177306D01*
X0259964Y0177231D01*
X0259933Y0177158D01*
X0259899Y0177087D01*
X0259861Y0177018D01*
X0259819Y0176950D01*
X0259774Y0176885D01*
X0259726Y0176822D01*
X0259675Y0176762D01*
X0259621Y0176704D01*
X0259564Y0176649D01*
X0259504Y0176597D01*
X0259442Y0176549D01*
X0259377Y0176503D01*
X0259310Y0176460D01*
X0259241Y0176421D01*
X0259171Y0176386D01*
X0259098Y0176354D01*
X0259024Y0176326D01*
X0258949Y0176301D01*
X0258872Y0176281D01*
X0258795Y0176264D01*
X0258717Y0176251D01*
X0258638Y0176242D01*
X0258559Y0176237D01*
X0258480Y0176236D01*
X0258401Y0176239D01*
X0258322Y0176246D01*
X0258244Y0176257D01*
X0258166Y0176272D01*
X0258089Y0176291D01*
X0258013Y0176313D01*
X0257939Y0176339D01*
X0257865Y0176369D01*
X0257794Y0176403D01*
X0257724Y0176440D01*
X0257656Y0176481D01*
X0257590Y0176525D01*
X0257527Y0176573D01*
X0257466Y0176623D01*
X0257407Y0176677D01*
X0257352Y0176733D01*
X0257299Y0176792D01*
X0257249Y0176854D01*
X0257203Y0176918D01*
X0257160Y0176984D01*
X0257120Y0177052D01*
X0257083Y0177123D01*
X0257051Y0177195D01*
X0257021Y0177268D01*
X0256996Y0177343D01*
X0256974Y0177419D01*
X0256957Y0177496D01*
X0256943Y0177574D01*
X0256933Y0177653D01*
X0256927Y0177732D01*
X0256925Y0177811D01*
X0256925Y0184811D02*
X0256927Y0184890D01*
X0256933Y0184969D01*
X0256943Y0185048D01*
X0256957Y0185126D01*
X0256974Y0185203D01*
X0256996Y0185279D01*
X0257021Y0185354D01*
X0257051Y0185427D01*
X0257083Y0185499D01*
X0257120Y0185570D01*
X0257160Y0185638D01*
X0257203Y0185704D01*
X0257249Y0185768D01*
X0257299Y0185830D01*
X0257352Y0185889D01*
X0257407Y0185945D01*
X0257466Y0185999D01*
X0257527Y0186049D01*
X0257590Y0186097D01*
X0257656Y0186141D01*
X0257724Y0186182D01*
X0257794Y0186219D01*
X0257865Y0186253D01*
X0257939Y0186283D01*
X0258013Y0186309D01*
X0258089Y0186331D01*
X0258166Y0186350D01*
X0258244Y0186365D01*
X0258322Y0186376D01*
X0258401Y0186383D01*
X0258480Y0186386D01*
X0258559Y0186385D01*
X0258638Y0186380D01*
X0258717Y0186371D01*
X0258795Y0186358D01*
X0258872Y0186341D01*
X0258949Y0186321D01*
X0259024Y0186296D01*
X0259098Y0186268D01*
X0259171Y0186236D01*
X0259241Y0186201D01*
X0259310Y0186162D01*
X0259377Y0186119D01*
X0259442Y0186073D01*
X0259504Y0186025D01*
X0259564Y0185973D01*
X0259621Y0185918D01*
X0259675Y0185860D01*
X0259726Y0185800D01*
X0259774Y0185737D01*
X0259819Y0185672D01*
X0259861Y0185604D01*
X0259899Y0185535D01*
X0259933Y0185464D01*
X0259964Y0185391D01*
X0259992Y0185316D01*
X0260015Y0185241D01*
X0260035Y0185164D01*
X0260051Y0185087D01*
X0260063Y0185008D01*
X0260071Y0184930D01*
X0260075Y0184851D01*
X0260075Y0184771D01*
X0260071Y0184692D01*
X0260063Y0184614D01*
X0260051Y0184535D01*
X0260035Y0184458D01*
X0260015Y0184381D01*
X0259992Y0184306D01*
X0259964Y0184231D01*
X0259933Y0184158D01*
X0259899Y0184087D01*
X0259861Y0184018D01*
X0259819Y0183950D01*
X0259774Y0183885D01*
X0259726Y0183822D01*
X0259675Y0183762D01*
X0259621Y0183704D01*
X0259564Y0183649D01*
X0259504Y0183597D01*
X0259442Y0183549D01*
X0259377Y0183503D01*
X0259310Y0183460D01*
X0259241Y0183421D01*
X0259171Y0183386D01*
X0259098Y0183354D01*
X0259024Y0183326D01*
X0258949Y0183301D01*
X0258872Y0183281D01*
X0258795Y0183264D01*
X0258717Y0183251D01*
X0258638Y0183242D01*
X0258559Y0183237D01*
X0258480Y0183236D01*
X0258401Y0183239D01*
X0258322Y0183246D01*
X0258244Y0183257D01*
X0258166Y0183272D01*
X0258089Y0183291D01*
X0258013Y0183313D01*
X0257939Y0183339D01*
X0257865Y0183369D01*
X0257794Y0183403D01*
X0257724Y0183440D01*
X0257656Y0183481D01*
X0257590Y0183525D01*
X0257527Y0183573D01*
X0257466Y0183623D01*
X0257407Y0183677D01*
X0257352Y0183733D01*
X0257299Y0183792D01*
X0257249Y0183854D01*
X0257203Y0183918D01*
X0257160Y0183984D01*
X0257120Y0184052D01*
X0257083Y0184123D01*
X0257051Y0184195D01*
X0257021Y0184268D01*
X0256996Y0184343D01*
X0256974Y0184419D01*
X0256957Y0184496D01*
X0256943Y0184574D01*
X0256933Y0184653D01*
X0256927Y0184732D01*
X0256925Y0184811D01*
X0259500Y0190811D02*
X0265500Y0190811D01*
X0265626Y0190813D01*
X0265751Y0190819D01*
X0265876Y0190829D01*
X0266001Y0190843D01*
X0266126Y0190860D01*
X0266250Y0190882D01*
X0266373Y0190907D01*
X0266495Y0190937D01*
X0266616Y0190970D01*
X0266736Y0191007D01*
X0266855Y0191047D01*
X0266972Y0191092D01*
X0267089Y0191140D01*
X0267203Y0191192D01*
X0267316Y0191247D01*
X0267427Y0191306D01*
X0267536Y0191368D01*
X0267643Y0191434D01*
X0267748Y0191503D01*
X0267851Y0191575D01*
X0267952Y0191650D01*
X0268050Y0191729D01*
X0268145Y0191811D01*
X0268238Y0191895D01*
X0268328Y0191983D01*
X0268416Y0192073D01*
X0268500Y0192166D01*
X0268582Y0192261D01*
X0268661Y0192359D01*
X0268736Y0192460D01*
X0268808Y0192563D01*
X0268877Y0192668D01*
X0268943Y0192775D01*
X0269005Y0192884D01*
X0269064Y0192995D01*
X0269119Y0193108D01*
X0269171Y0193222D01*
X0269219Y0193339D01*
X0269264Y0193456D01*
X0269304Y0193575D01*
X0269341Y0193695D01*
X0269374Y0193816D01*
X0269404Y0193938D01*
X0269429Y0194061D01*
X0269451Y0194185D01*
X0269468Y0194310D01*
X0269482Y0194435D01*
X0269492Y0194560D01*
X0269498Y0194685D01*
X0269500Y0194811D01*
X0269500Y0295811D01*
X0269498Y0295937D01*
X0269492Y0296062D01*
X0269482Y0296187D01*
X0269468Y0296312D01*
X0269451Y0296437D01*
X0269429Y0296561D01*
X0269404Y0296684D01*
X0269374Y0296806D01*
X0269341Y0296927D01*
X0269304Y0297047D01*
X0269264Y0297166D01*
X0269219Y0297283D01*
X0269171Y0297400D01*
X0269119Y0297514D01*
X0269064Y0297627D01*
X0269005Y0297738D01*
X0268943Y0297847D01*
X0268877Y0297954D01*
X0268808Y0298059D01*
X0268736Y0298162D01*
X0268661Y0298263D01*
X0268582Y0298361D01*
X0268500Y0298456D01*
X0268416Y0298549D01*
X0268328Y0298639D01*
X0268238Y0298727D01*
X0268145Y0298811D01*
X0268050Y0298893D01*
X0267952Y0298972D01*
X0267851Y0299047D01*
X0267748Y0299119D01*
X0267643Y0299188D01*
X0267536Y0299254D01*
X0267427Y0299316D01*
X0267316Y0299375D01*
X0267203Y0299430D01*
X0267089Y0299482D01*
X0266972Y0299530D01*
X0266855Y0299575D01*
X0266736Y0299615D01*
X0266616Y0299652D01*
X0266495Y0299685D01*
X0266373Y0299715D01*
X0266250Y0299740D01*
X0266126Y0299762D01*
X0266001Y0299779D01*
X0265876Y0299793D01*
X0265751Y0299803D01*
X0265626Y0299809D01*
X0265500Y0299811D01*
X0259500Y0299811D01*
X0259500Y0190811D01*
X0256925Y0191811D02*
X0256927Y0191890D01*
X0256933Y0191969D01*
X0256943Y0192048D01*
X0256957Y0192126D01*
X0256974Y0192203D01*
X0256996Y0192279D01*
X0257021Y0192354D01*
X0257051Y0192427D01*
X0257083Y0192499D01*
X0257120Y0192570D01*
X0257160Y0192638D01*
X0257203Y0192704D01*
X0257249Y0192768D01*
X0257299Y0192830D01*
X0257352Y0192889D01*
X0257407Y0192945D01*
X0257466Y0192999D01*
X0257527Y0193049D01*
X0257590Y0193097D01*
X0257656Y0193141D01*
X0257724Y0193182D01*
X0257794Y0193219D01*
X0257865Y0193253D01*
X0257939Y0193283D01*
X0258013Y0193309D01*
X0258089Y0193331D01*
X0258166Y0193350D01*
X0258244Y0193365D01*
X0258322Y0193376D01*
X0258401Y0193383D01*
X0258480Y0193386D01*
X0258559Y0193385D01*
X0258638Y0193380D01*
X0258717Y0193371D01*
X0258795Y0193358D01*
X0258872Y0193341D01*
X0258949Y0193321D01*
X0259024Y0193296D01*
X0259098Y0193268D01*
X0259171Y0193236D01*
X0259241Y0193201D01*
X0259310Y0193162D01*
X0259377Y0193119D01*
X0259442Y0193073D01*
X0259504Y0193025D01*
X0259564Y0192973D01*
X0259621Y0192918D01*
X0259675Y0192860D01*
X0259726Y0192800D01*
X0259774Y0192737D01*
X0259819Y0192672D01*
X0259861Y0192604D01*
X0259899Y0192535D01*
X0259933Y0192464D01*
X0259964Y0192391D01*
X0259992Y0192316D01*
X0260015Y0192241D01*
X0260035Y0192164D01*
X0260051Y0192087D01*
X0260063Y0192008D01*
X0260071Y0191930D01*
X0260075Y0191851D01*
X0260075Y0191771D01*
X0260071Y0191692D01*
X0260063Y0191614D01*
X0260051Y0191535D01*
X0260035Y0191458D01*
X0260015Y0191381D01*
X0259992Y0191306D01*
X0259964Y0191231D01*
X0259933Y0191158D01*
X0259899Y0191087D01*
X0259861Y0191018D01*
X0259819Y0190950D01*
X0259774Y0190885D01*
X0259726Y0190822D01*
X0259675Y0190762D01*
X0259621Y0190704D01*
X0259564Y0190649D01*
X0259504Y0190597D01*
X0259442Y0190549D01*
X0259377Y0190503D01*
X0259310Y0190460D01*
X0259241Y0190421D01*
X0259171Y0190386D01*
X0259098Y0190354D01*
X0259024Y0190326D01*
X0258949Y0190301D01*
X0258872Y0190281D01*
X0258795Y0190264D01*
X0258717Y0190251D01*
X0258638Y0190242D01*
X0258559Y0190237D01*
X0258480Y0190236D01*
X0258401Y0190239D01*
X0258322Y0190246D01*
X0258244Y0190257D01*
X0258166Y0190272D01*
X0258089Y0190291D01*
X0258013Y0190313D01*
X0257939Y0190339D01*
X0257865Y0190369D01*
X0257794Y0190403D01*
X0257724Y0190440D01*
X0257656Y0190481D01*
X0257590Y0190525D01*
X0257527Y0190573D01*
X0257466Y0190623D01*
X0257407Y0190677D01*
X0257352Y0190733D01*
X0257299Y0190792D01*
X0257249Y0190854D01*
X0257203Y0190918D01*
X0257160Y0190984D01*
X0257120Y0191052D01*
X0257083Y0191123D01*
X0257051Y0191195D01*
X0257021Y0191268D01*
X0256996Y0191343D01*
X0256974Y0191419D01*
X0256957Y0191496D01*
X0256943Y0191574D01*
X0256933Y0191653D01*
X0256927Y0191732D01*
X0256925Y0191811D01*
X0226594Y0292811D02*
X0226596Y0292964D01*
X0226602Y0293118D01*
X0226612Y0293271D01*
X0226626Y0293423D01*
X0226644Y0293576D01*
X0226666Y0293727D01*
X0226691Y0293878D01*
X0226721Y0294029D01*
X0226755Y0294179D01*
X0226792Y0294327D01*
X0226833Y0294475D01*
X0226878Y0294621D01*
X0226927Y0294767D01*
X0226980Y0294911D01*
X0227036Y0295053D01*
X0227096Y0295194D01*
X0227160Y0295334D01*
X0227227Y0295472D01*
X0227298Y0295608D01*
X0227373Y0295742D01*
X0227450Y0295874D01*
X0227532Y0296004D01*
X0227616Y0296132D01*
X0227704Y0296258D01*
X0227795Y0296381D01*
X0227889Y0296502D01*
X0227987Y0296620D01*
X0228087Y0296736D01*
X0228191Y0296849D01*
X0228297Y0296960D01*
X0228406Y0297068D01*
X0228518Y0297173D01*
X0228632Y0297274D01*
X0228750Y0297373D01*
X0228869Y0297469D01*
X0228991Y0297562D01*
X0229116Y0297651D01*
X0229243Y0297738D01*
X0229372Y0297820D01*
X0229503Y0297900D01*
X0229636Y0297976D01*
X0229771Y0298049D01*
X0229908Y0298118D01*
X0230047Y0298183D01*
X0230187Y0298245D01*
X0230329Y0298303D01*
X0230472Y0298358D01*
X0230617Y0298409D01*
X0230763Y0298456D01*
X0230910Y0298499D01*
X0231058Y0298538D01*
X0231207Y0298574D01*
X0231357Y0298605D01*
X0231508Y0298633D01*
X0231659Y0298657D01*
X0231812Y0298677D01*
X0231964Y0298693D01*
X0232117Y0298705D01*
X0232270Y0298713D01*
X0232423Y0298717D01*
X0232577Y0298717D01*
X0232730Y0298713D01*
X0232883Y0298705D01*
X0233036Y0298693D01*
X0233188Y0298677D01*
X0233341Y0298657D01*
X0233492Y0298633D01*
X0233643Y0298605D01*
X0233793Y0298574D01*
X0233942Y0298538D01*
X0234090Y0298499D01*
X0234237Y0298456D01*
X0234383Y0298409D01*
X0234528Y0298358D01*
X0234671Y0298303D01*
X0234813Y0298245D01*
X0234953Y0298183D01*
X0235092Y0298118D01*
X0235229Y0298049D01*
X0235364Y0297976D01*
X0235497Y0297900D01*
X0235628Y0297820D01*
X0235757Y0297738D01*
X0235884Y0297651D01*
X0236009Y0297562D01*
X0236131Y0297469D01*
X0236250Y0297373D01*
X0236368Y0297274D01*
X0236482Y0297173D01*
X0236594Y0297068D01*
X0236703Y0296960D01*
X0236809Y0296849D01*
X0236913Y0296736D01*
X0237013Y0296620D01*
X0237111Y0296502D01*
X0237205Y0296381D01*
X0237296Y0296258D01*
X0237384Y0296132D01*
X0237468Y0296004D01*
X0237550Y0295874D01*
X0237627Y0295742D01*
X0237702Y0295608D01*
X0237773Y0295472D01*
X0237840Y0295334D01*
X0237904Y0295194D01*
X0237964Y0295053D01*
X0238020Y0294911D01*
X0238073Y0294767D01*
X0238122Y0294621D01*
X0238167Y0294475D01*
X0238208Y0294327D01*
X0238245Y0294179D01*
X0238279Y0294029D01*
X0238309Y0293878D01*
X0238334Y0293727D01*
X0238356Y0293576D01*
X0238374Y0293423D01*
X0238388Y0293271D01*
X0238398Y0293118D01*
X0238404Y0292964D01*
X0238406Y0292811D01*
X0238404Y0292658D01*
X0238398Y0292504D01*
X0238388Y0292351D01*
X0238374Y0292199D01*
X0238356Y0292046D01*
X0238334Y0291895D01*
X0238309Y0291744D01*
X0238279Y0291593D01*
X0238245Y0291443D01*
X0238208Y0291295D01*
X0238167Y0291147D01*
X0238122Y0291001D01*
X0238073Y0290855D01*
X0238020Y0290711D01*
X0237964Y0290569D01*
X0237904Y0290428D01*
X0237840Y0290288D01*
X0237773Y0290150D01*
X0237702Y0290014D01*
X0237627Y0289880D01*
X0237550Y0289748D01*
X0237468Y0289618D01*
X0237384Y0289490D01*
X0237296Y0289364D01*
X0237205Y0289241D01*
X0237111Y0289120D01*
X0237013Y0289002D01*
X0236913Y0288886D01*
X0236809Y0288773D01*
X0236703Y0288662D01*
X0236594Y0288554D01*
X0236482Y0288449D01*
X0236368Y0288348D01*
X0236250Y0288249D01*
X0236131Y0288153D01*
X0236009Y0288060D01*
X0235884Y0287971D01*
X0235757Y0287884D01*
X0235628Y0287802D01*
X0235497Y0287722D01*
X0235364Y0287646D01*
X0235229Y0287573D01*
X0235092Y0287504D01*
X0234953Y0287439D01*
X0234813Y0287377D01*
X0234671Y0287319D01*
X0234528Y0287264D01*
X0234383Y0287213D01*
X0234237Y0287166D01*
X0234090Y0287123D01*
X0233942Y0287084D01*
X0233793Y0287048D01*
X0233643Y0287017D01*
X0233492Y0286989D01*
X0233341Y0286965D01*
X0233188Y0286945D01*
X0233036Y0286929D01*
X0232883Y0286917D01*
X0232730Y0286909D01*
X0232577Y0286905D01*
X0232423Y0286905D01*
X0232270Y0286909D01*
X0232117Y0286917D01*
X0231964Y0286929D01*
X0231812Y0286945D01*
X0231659Y0286965D01*
X0231508Y0286989D01*
X0231357Y0287017D01*
X0231207Y0287048D01*
X0231058Y0287084D01*
X0230910Y0287123D01*
X0230763Y0287166D01*
X0230617Y0287213D01*
X0230472Y0287264D01*
X0230329Y0287319D01*
X0230187Y0287377D01*
X0230047Y0287439D01*
X0229908Y0287504D01*
X0229771Y0287573D01*
X0229636Y0287646D01*
X0229503Y0287722D01*
X0229372Y0287802D01*
X0229243Y0287884D01*
X0229116Y0287971D01*
X0228991Y0288060D01*
X0228869Y0288153D01*
X0228750Y0288249D01*
X0228632Y0288348D01*
X0228518Y0288449D01*
X0228406Y0288554D01*
X0228297Y0288662D01*
X0228191Y0288773D01*
X0228087Y0288886D01*
X0227987Y0289002D01*
X0227889Y0289120D01*
X0227795Y0289241D01*
X0227704Y0289364D01*
X0227616Y0289490D01*
X0227532Y0289618D01*
X0227450Y0289748D01*
X0227373Y0289880D01*
X0227298Y0290014D01*
X0227227Y0290150D01*
X0227160Y0290288D01*
X0227096Y0290428D01*
X0227036Y0290569D01*
X0226980Y0290711D01*
X0226927Y0290855D01*
X0226878Y0291001D01*
X0226833Y0291147D01*
X0226792Y0291295D01*
X0226755Y0291443D01*
X0226721Y0291593D01*
X0226691Y0291744D01*
X0226666Y0291895D01*
X0226644Y0292046D01*
X0226626Y0292199D01*
X0226612Y0292351D01*
X0226602Y0292504D01*
X0226596Y0292658D01*
X0226594Y0292811D01*
X0256925Y0298811D02*
X0256927Y0298890D01*
X0256933Y0298969D01*
X0256943Y0299048D01*
X0256957Y0299126D01*
X0256974Y0299203D01*
X0256996Y0299279D01*
X0257021Y0299354D01*
X0257051Y0299427D01*
X0257083Y0299499D01*
X0257120Y0299570D01*
X0257160Y0299638D01*
X0257203Y0299704D01*
X0257249Y0299768D01*
X0257299Y0299830D01*
X0257352Y0299889D01*
X0257407Y0299945D01*
X0257466Y0299999D01*
X0257527Y0300049D01*
X0257590Y0300097D01*
X0257656Y0300141D01*
X0257724Y0300182D01*
X0257794Y0300219D01*
X0257865Y0300253D01*
X0257939Y0300283D01*
X0258013Y0300309D01*
X0258089Y0300331D01*
X0258166Y0300350D01*
X0258244Y0300365D01*
X0258322Y0300376D01*
X0258401Y0300383D01*
X0258480Y0300386D01*
X0258559Y0300385D01*
X0258638Y0300380D01*
X0258717Y0300371D01*
X0258795Y0300358D01*
X0258872Y0300341D01*
X0258949Y0300321D01*
X0259024Y0300296D01*
X0259098Y0300268D01*
X0259171Y0300236D01*
X0259241Y0300201D01*
X0259310Y0300162D01*
X0259377Y0300119D01*
X0259442Y0300073D01*
X0259504Y0300025D01*
X0259564Y0299973D01*
X0259621Y0299918D01*
X0259675Y0299860D01*
X0259726Y0299800D01*
X0259774Y0299737D01*
X0259819Y0299672D01*
X0259861Y0299604D01*
X0259899Y0299535D01*
X0259933Y0299464D01*
X0259964Y0299391D01*
X0259992Y0299316D01*
X0260015Y0299241D01*
X0260035Y0299164D01*
X0260051Y0299087D01*
X0260063Y0299008D01*
X0260071Y0298930D01*
X0260075Y0298851D01*
X0260075Y0298771D01*
X0260071Y0298692D01*
X0260063Y0298614D01*
X0260051Y0298535D01*
X0260035Y0298458D01*
X0260015Y0298381D01*
X0259992Y0298306D01*
X0259964Y0298231D01*
X0259933Y0298158D01*
X0259899Y0298087D01*
X0259861Y0298018D01*
X0259819Y0297950D01*
X0259774Y0297885D01*
X0259726Y0297822D01*
X0259675Y0297762D01*
X0259621Y0297704D01*
X0259564Y0297649D01*
X0259504Y0297597D01*
X0259442Y0297549D01*
X0259377Y0297503D01*
X0259310Y0297460D01*
X0259241Y0297421D01*
X0259171Y0297386D01*
X0259098Y0297354D01*
X0259024Y0297326D01*
X0258949Y0297301D01*
X0258872Y0297281D01*
X0258795Y0297264D01*
X0258717Y0297251D01*
X0258638Y0297242D01*
X0258559Y0297237D01*
X0258480Y0297236D01*
X0258401Y0297239D01*
X0258322Y0297246D01*
X0258244Y0297257D01*
X0258166Y0297272D01*
X0258089Y0297291D01*
X0258013Y0297313D01*
X0257939Y0297339D01*
X0257865Y0297369D01*
X0257794Y0297403D01*
X0257724Y0297440D01*
X0257656Y0297481D01*
X0257590Y0297525D01*
X0257527Y0297573D01*
X0257466Y0297623D01*
X0257407Y0297677D01*
X0257352Y0297733D01*
X0257299Y0297792D01*
X0257249Y0297854D01*
X0257203Y0297918D01*
X0257160Y0297984D01*
X0257120Y0298052D01*
X0257083Y0298123D01*
X0257051Y0298195D01*
X0257021Y0298268D01*
X0256996Y0298343D01*
X0256974Y0298419D01*
X0256957Y0298496D01*
X0256943Y0298574D01*
X0256933Y0298653D01*
X0256927Y0298732D01*
X0256925Y0298811D01*
X0256925Y0305811D02*
X0256927Y0305890D01*
X0256933Y0305969D01*
X0256943Y0306048D01*
X0256957Y0306126D01*
X0256974Y0306203D01*
X0256996Y0306279D01*
X0257021Y0306354D01*
X0257051Y0306427D01*
X0257083Y0306499D01*
X0257120Y0306570D01*
X0257160Y0306638D01*
X0257203Y0306704D01*
X0257249Y0306768D01*
X0257299Y0306830D01*
X0257352Y0306889D01*
X0257407Y0306945D01*
X0257466Y0306999D01*
X0257527Y0307049D01*
X0257590Y0307097D01*
X0257656Y0307141D01*
X0257724Y0307182D01*
X0257794Y0307219D01*
X0257865Y0307253D01*
X0257939Y0307283D01*
X0258013Y0307309D01*
X0258089Y0307331D01*
X0258166Y0307350D01*
X0258244Y0307365D01*
X0258322Y0307376D01*
X0258401Y0307383D01*
X0258480Y0307386D01*
X0258559Y0307385D01*
X0258638Y0307380D01*
X0258717Y0307371D01*
X0258795Y0307358D01*
X0258872Y0307341D01*
X0258949Y0307321D01*
X0259024Y0307296D01*
X0259098Y0307268D01*
X0259171Y0307236D01*
X0259241Y0307201D01*
X0259310Y0307162D01*
X0259377Y0307119D01*
X0259442Y0307073D01*
X0259504Y0307025D01*
X0259564Y0306973D01*
X0259621Y0306918D01*
X0259675Y0306860D01*
X0259726Y0306800D01*
X0259774Y0306737D01*
X0259819Y0306672D01*
X0259861Y0306604D01*
X0259899Y0306535D01*
X0259933Y0306464D01*
X0259964Y0306391D01*
X0259992Y0306316D01*
X0260015Y0306241D01*
X0260035Y0306164D01*
X0260051Y0306087D01*
X0260063Y0306008D01*
X0260071Y0305930D01*
X0260075Y0305851D01*
X0260075Y0305771D01*
X0260071Y0305692D01*
X0260063Y0305614D01*
X0260051Y0305535D01*
X0260035Y0305458D01*
X0260015Y0305381D01*
X0259992Y0305306D01*
X0259964Y0305231D01*
X0259933Y0305158D01*
X0259899Y0305087D01*
X0259861Y0305018D01*
X0259819Y0304950D01*
X0259774Y0304885D01*
X0259726Y0304822D01*
X0259675Y0304762D01*
X0259621Y0304704D01*
X0259564Y0304649D01*
X0259504Y0304597D01*
X0259442Y0304549D01*
X0259377Y0304503D01*
X0259310Y0304460D01*
X0259241Y0304421D01*
X0259171Y0304386D01*
X0259098Y0304354D01*
X0259024Y0304326D01*
X0258949Y0304301D01*
X0258872Y0304281D01*
X0258795Y0304264D01*
X0258717Y0304251D01*
X0258638Y0304242D01*
X0258559Y0304237D01*
X0258480Y0304236D01*
X0258401Y0304239D01*
X0258322Y0304246D01*
X0258244Y0304257D01*
X0258166Y0304272D01*
X0258089Y0304291D01*
X0258013Y0304313D01*
X0257939Y0304339D01*
X0257865Y0304369D01*
X0257794Y0304403D01*
X0257724Y0304440D01*
X0257656Y0304481D01*
X0257590Y0304525D01*
X0257527Y0304573D01*
X0257466Y0304623D01*
X0257407Y0304677D01*
X0257352Y0304733D01*
X0257299Y0304792D01*
X0257249Y0304854D01*
X0257203Y0304918D01*
X0257160Y0304984D01*
X0257120Y0305052D01*
X0257083Y0305123D01*
X0257051Y0305195D01*
X0257021Y0305268D01*
X0256996Y0305343D01*
X0256974Y0305419D01*
X0256957Y0305496D01*
X0256943Y0305574D01*
X0256933Y0305653D01*
X0256927Y0305732D01*
X0256925Y0305811D01*
X0256925Y0312811D02*
X0256927Y0312890D01*
X0256933Y0312969D01*
X0256943Y0313048D01*
X0256957Y0313126D01*
X0256974Y0313203D01*
X0256996Y0313279D01*
X0257021Y0313354D01*
X0257051Y0313427D01*
X0257083Y0313499D01*
X0257120Y0313570D01*
X0257160Y0313638D01*
X0257203Y0313704D01*
X0257249Y0313768D01*
X0257299Y0313830D01*
X0257352Y0313889D01*
X0257407Y0313945D01*
X0257466Y0313999D01*
X0257527Y0314049D01*
X0257590Y0314097D01*
X0257656Y0314141D01*
X0257724Y0314182D01*
X0257794Y0314219D01*
X0257865Y0314253D01*
X0257939Y0314283D01*
X0258013Y0314309D01*
X0258089Y0314331D01*
X0258166Y0314350D01*
X0258244Y0314365D01*
X0258322Y0314376D01*
X0258401Y0314383D01*
X0258480Y0314386D01*
X0258559Y0314385D01*
X0258638Y0314380D01*
X0258717Y0314371D01*
X0258795Y0314358D01*
X0258872Y0314341D01*
X0258949Y0314321D01*
X0259024Y0314296D01*
X0259098Y0314268D01*
X0259171Y0314236D01*
X0259241Y0314201D01*
X0259310Y0314162D01*
X0259377Y0314119D01*
X0259442Y0314073D01*
X0259504Y0314025D01*
X0259564Y0313973D01*
X0259621Y0313918D01*
X0259675Y0313860D01*
X0259726Y0313800D01*
X0259774Y0313737D01*
X0259819Y0313672D01*
X0259861Y0313604D01*
X0259899Y0313535D01*
X0259933Y0313464D01*
X0259964Y0313391D01*
X0259992Y0313316D01*
X0260015Y0313241D01*
X0260035Y0313164D01*
X0260051Y0313087D01*
X0260063Y0313008D01*
X0260071Y0312930D01*
X0260075Y0312851D01*
X0260075Y0312771D01*
X0260071Y0312692D01*
X0260063Y0312614D01*
X0260051Y0312535D01*
X0260035Y0312458D01*
X0260015Y0312381D01*
X0259992Y0312306D01*
X0259964Y0312231D01*
X0259933Y0312158D01*
X0259899Y0312087D01*
X0259861Y0312018D01*
X0259819Y0311950D01*
X0259774Y0311885D01*
X0259726Y0311822D01*
X0259675Y0311762D01*
X0259621Y0311704D01*
X0259564Y0311649D01*
X0259504Y0311597D01*
X0259442Y0311549D01*
X0259377Y0311503D01*
X0259310Y0311460D01*
X0259241Y0311421D01*
X0259171Y0311386D01*
X0259098Y0311354D01*
X0259024Y0311326D01*
X0258949Y0311301D01*
X0258872Y0311281D01*
X0258795Y0311264D01*
X0258717Y0311251D01*
X0258638Y0311242D01*
X0258559Y0311237D01*
X0258480Y0311236D01*
X0258401Y0311239D01*
X0258322Y0311246D01*
X0258244Y0311257D01*
X0258166Y0311272D01*
X0258089Y0311291D01*
X0258013Y0311313D01*
X0257939Y0311339D01*
X0257865Y0311369D01*
X0257794Y0311403D01*
X0257724Y0311440D01*
X0257656Y0311481D01*
X0257590Y0311525D01*
X0257527Y0311573D01*
X0257466Y0311623D01*
X0257407Y0311677D01*
X0257352Y0311733D01*
X0257299Y0311792D01*
X0257249Y0311854D01*
X0257203Y0311918D01*
X0257160Y0311984D01*
X0257120Y0312052D01*
X0257083Y0312123D01*
X0257051Y0312195D01*
X0257021Y0312268D01*
X0256996Y0312343D01*
X0256974Y0312419D01*
X0256957Y0312496D01*
X0256943Y0312574D01*
X0256933Y0312653D01*
X0256927Y0312732D01*
X0256925Y0312811D01*
X0256925Y0319811D02*
X0256927Y0319890D01*
X0256933Y0319969D01*
X0256943Y0320048D01*
X0256957Y0320126D01*
X0256974Y0320203D01*
X0256996Y0320279D01*
X0257021Y0320354D01*
X0257051Y0320427D01*
X0257083Y0320499D01*
X0257120Y0320570D01*
X0257160Y0320638D01*
X0257203Y0320704D01*
X0257249Y0320768D01*
X0257299Y0320830D01*
X0257352Y0320889D01*
X0257407Y0320945D01*
X0257466Y0320999D01*
X0257527Y0321049D01*
X0257590Y0321097D01*
X0257656Y0321141D01*
X0257724Y0321182D01*
X0257794Y0321219D01*
X0257865Y0321253D01*
X0257939Y0321283D01*
X0258013Y0321309D01*
X0258089Y0321331D01*
X0258166Y0321350D01*
X0258244Y0321365D01*
X0258322Y0321376D01*
X0258401Y0321383D01*
X0258480Y0321386D01*
X0258559Y0321385D01*
X0258638Y0321380D01*
X0258717Y0321371D01*
X0258795Y0321358D01*
X0258872Y0321341D01*
X0258949Y0321321D01*
X0259024Y0321296D01*
X0259098Y0321268D01*
X0259171Y0321236D01*
X0259241Y0321201D01*
X0259310Y0321162D01*
X0259377Y0321119D01*
X0259442Y0321073D01*
X0259504Y0321025D01*
X0259564Y0320973D01*
X0259621Y0320918D01*
X0259675Y0320860D01*
X0259726Y0320800D01*
X0259774Y0320737D01*
X0259819Y0320672D01*
X0259861Y0320604D01*
X0259899Y0320535D01*
X0259933Y0320464D01*
X0259964Y0320391D01*
X0259992Y0320316D01*
X0260015Y0320241D01*
X0260035Y0320164D01*
X0260051Y0320087D01*
X0260063Y0320008D01*
X0260071Y0319930D01*
X0260075Y0319851D01*
X0260075Y0319771D01*
X0260071Y0319692D01*
X0260063Y0319614D01*
X0260051Y0319535D01*
X0260035Y0319458D01*
X0260015Y0319381D01*
X0259992Y0319306D01*
X0259964Y0319231D01*
X0259933Y0319158D01*
X0259899Y0319087D01*
X0259861Y0319018D01*
X0259819Y0318950D01*
X0259774Y0318885D01*
X0259726Y0318822D01*
X0259675Y0318762D01*
X0259621Y0318704D01*
X0259564Y0318649D01*
X0259504Y0318597D01*
X0259442Y0318549D01*
X0259377Y0318503D01*
X0259310Y0318460D01*
X0259241Y0318421D01*
X0259171Y0318386D01*
X0259098Y0318354D01*
X0259024Y0318326D01*
X0258949Y0318301D01*
X0258872Y0318281D01*
X0258795Y0318264D01*
X0258717Y0318251D01*
X0258638Y0318242D01*
X0258559Y0318237D01*
X0258480Y0318236D01*
X0258401Y0318239D01*
X0258322Y0318246D01*
X0258244Y0318257D01*
X0258166Y0318272D01*
X0258089Y0318291D01*
X0258013Y0318313D01*
X0257939Y0318339D01*
X0257865Y0318369D01*
X0257794Y0318403D01*
X0257724Y0318440D01*
X0257656Y0318481D01*
X0257590Y0318525D01*
X0257527Y0318573D01*
X0257466Y0318623D01*
X0257407Y0318677D01*
X0257352Y0318733D01*
X0257299Y0318792D01*
X0257249Y0318854D01*
X0257203Y0318918D01*
X0257160Y0318984D01*
X0257120Y0319052D01*
X0257083Y0319123D01*
X0257051Y0319195D01*
X0257021Y0319268D01*
X0256996Y0319343D01*
X0256974Y0319419D01*
X0256957Y0319496D01*
X0256943Y0319574D01*
X0256933Y0319653D01*
X0256927Y0319732D01*
X0256925Y0319811D01*
X0256925Y0326811D02*
X0256927Y0326890D01*
X0256933Y0326969D01*
X0256943Y0327048D01*
X0256957Y0327126D01*
X0256974Y0327203D01*
X0256996Y0327279D01*
X0257021Y0327354D01*
X0257051Y0327427D01*
X0257083Y0327499D01*
X0257120Y0327570D01*
X0257160Y0327638D01*
X0257203Y0327704D01*
X0257249Y0327768D01*
X0257299Y0327830D01*
X0257352Y0327889D01*
X0257407Y0327945D01*
X0257466Y0327999D01*
X0257527Y0328049D01*
X0257590Y0328097D01*
X0257656Y0328141D01*
X0257724Y0328182D01*
X0257794Y0328219D01*
X0257865Y0328253D01*
X0257939Y0328283D01*
X0258013Y0328309D01*
X0258089Y0328331D01*
X0258166Y0328350D01*
X0258244Y0328365D01*
X0258322Y0328376D01*
X0258401Y0328383D01*
X0258480Y0328386D01*
X0258559Y0328385D01*
X0258638Y0328380D01*
X0258717Y0328371D01*
X0258795Y0328358D01*
X0258872Y0328341D01*
X0258949Y0328321D01*
X0259024Y0328296D01*
X0259098Y0328268D01*
X0259171Y0328236D01*
X0259241Y0328201D01*
X0259310Y0328162D01*
X0259377Y0328119D01*
X0259442Y0328073D01*
X0259504Y0328025D01*
X0259564Y0327973D01*
X0259621Y0327918D01*
X0259675Y0327860D01*
X0259726Y0327800D01*
X0259774Y0327737D01*
X0259819Y0327672D01*
X0259861Y0327604D01*
X0259899Y0327535D01*
X0259933Y0327464D01*
X0259964Y0327391D01*
X0259992Y0327316D01*
X0260015Y0327241D01*
X0260035Y0327164D01*
X0260051Y0327087D01*
X0260063Y0327008D01*
X0260071Y0326930D01*
X0260075Y0326851D01*
X0260075Y0326771D01*
X0260071Y0326692D01*
X0260063Y0326614D01*
X0260051Y0326535D01*
X0260035Y0326458D01*
X0260015Y0326381D01*
X0259992Y0326306D01*
X0259964Y0326231D01*
X0259933Y0326158D01*
X0259899Y0326087D01*
X0259861Y0326018D01*
X0259819Y0325950D01*
X0259774Y0325885D01*
X0259726Y0325822D01*
X0259675Y0325762D01*
X0259621Y0325704D01*
X0259564Y0325649D01*
X0259504Y0325597D01*
X0259442Y0325549D01*
X0259377Y0325503D01*
X0259310Y0325460D01*
X0259241Y0325421D01*
X0259171Y0325386D01*
X0259098Y0325354D01*
X0259024Y0325326D01*
X0258949Y0325301D01*
X0258872Y0325281D01*
X0258795Y0325264D01*
X0258717Y0325251D01*
X0258638Y0325242D01*
X0258559Y0325237D01*
X0258480Y0325236D01*
X0258401Y0325239D01*
X0258322Y0325246D01*
X0258244Y0325257D01*
X0258166Y0325272D01*
X0258089Y0325291D01*
X0258013Y0325313D01*
X0257939Y0325339D01*
X0257865Y0325369D01*
X0257794Y0325403D01*
X0257724Y0325440D01*
X0257656Y0325481D01*
X0257590Y0325525D01*
X0257527Y0325573D01*
X0257466Y0325623D01*
X0257407Y0325677D01*
X0257352Y0325733D01*
X0257299Y0325792D01*
X0257249Y0325854D01*
X0257203Y0325918D01*
X0257160Y0325984D01*
X0257120Y0326052D01*
X0257083Y0326123D01*
X0257051Y0326195D01*
X0257021Y0326268D01*
X0256996Y0326343D01*
X0256974Y0326419D01*
X0256957Y0326496D01*
X0256943Y0326574D01*
X0256933Y0326653D01*
X0256927Y0326732D01*
X0256925Y0326811D01*
X0197461Y0341433D02*
X0197461Y0344189D01*
X0197459Y0344256D01*
X0197453Y0344324D01*
X0197444Y0344390D01*
X0197430Y0344456D01*
X0197413Y0344522D01*
X0197392Y0344586D01*
X0197368Y0344649D01*
X0197340Y0344710D01*
X0197308Y0344770D01*
X0197274Y0344827D01*
X0197235Y0344883D01*
X0197194Y0344937D01*
X0197150Y0344988D01*
X0197103Y0345036D01*
X0197053Y0345082D01*
X0197001Y0345124D01*
X0196947Y0345164D01*
X0196890Y0345200D01*
X0196831Y0345234D01*
X0196771Y0345263D01*
X0196708Y0345290D01*
X0196645Y0345312D01*
X0196580Y0345331D01*
X0196515Y0345346D01*
X0196448Y0345358D01*
X0196381Y0345366D01*
X0196314Y0345370D01*
X0196246Y0345370D01*
X0196179Y0345366D01*
X0196112Y0345358D01*
X0196045Y0345346D01*
X0195980Y0345331D01*
X0195915Y0345312D01*
X0195852Y0345290D01*
X0195789Y0345263D01*
X0195729Y0345234D01*
X0195670Y0345200D01*
X0195613Y0345164D01*
X0195559Y0345124D01*
X0195507Y0345082D01*
X0195457Y0345036D01*
X0195410Y0344988D01*
X0195366Y0344937D01*
X0195325Y0344883D01*
X0195286Y0344827D01*
X0195252Y0344770D01*
X0195220Y0344710D01*
X0195192Y0344649D01*
X0195168Y0344586D01*
X0195147Y0344522D01*
X0195130Y0344456D01*
X0195116Y0344390D01*
X0195107Y0344324D01*
X0195101Y0344256D01*
X0195099Y0344189D01*
X0195098Y0344189D02*
X0195098Y0341433D01*
X0195099Y0341433D02*
X0195101Y0341366D01*
X0195107Y0341298D01*
X0195116Y0341232D01*
X0195130Y0341166D01*
X0195147Y0341100D01*
X0195168Y0341036D01*
X0195192Y0340973D01*
X0195220Y0340912D01*
X0195252Y0340852D01*
X0195286Y0340795D01*
X0195325Y0340739D01*
X0195366Y0340685D01*
X0195410Y0340634D01*
X0195457Y0340586D01*
X0195507Y0340540D01*
X0195559Y0340498D01*
X0195613Y0340458D01*
X0195670Y0340422D01*
X0195729Y0340388D01*
X0195789Y0340359D01*
X0195852Y0340332D01*
X0195915Y0340310D01*
X0195980Y0340291D01*
X0196045Y0340276D01*
X0196112Y0340264D01*
X0196179Y0340256D01*
X0196246Y0340252D01*
X0196314Y0340252D01*
X0196381Y0340256D01*
X0196448Y0340264D01*
X0196515Y0340276D01*
X0196580Y0340291D01*
X0196645Y0340310D01*
X0196708Y0340332D01*
X0196771Y0340359D01*
X0196831Y0340388D01*
X0196890Y0340422D01*
X0196947Y0340458D01*
X0197001Y0340498D01*
X0197053Y0340540D01*
X0197103Y0340586D01*
X0197150Y0340634D01*
X0197194Y0340685D01*
X0197235Y0340739D01*
X0197274Y0340795D01*
X0197308Y0340852D01*
X0197340Y0340912D01*
X0197368Y0340973D01*
X0197392Y0341036D01*
X0197413Y0341100D01*
X0197430Y0341166D01*
X0197444Y0341232D01*
X0197453Y0341298D01*
X0197459Y0341366D01*
X0197461Y0341433D01*
X0190743Y0332181D02*
X0190745Y0332261D01*
X0190751Y0332340D01*
X0190761Y0332419D01*
X0190775Y0332498D01*
X0190792Y0332576D01*
X0190814Y0332653D01*
X0190839Y0332728D01*
X0190869Y0332802D01*
X0190901Y0332875D01*
X0190938Y0332946D01*
X0190978Y0333015D01*
X0191021Y0333082D01*
X0191068Y0333147D01*
X0191117Y0333209D01*
X0191170Y0333269D01*
X0191226Y0333326D01*
X0191284Y0333381D01*
X0191345Y0333432D01*
X0191409Y0333480D01*
X0191475Y0333525D01*
X0191543Y0333567D01*
X0191613Y0333605D01*
X0191685Y0333639D01*
X0191758Y0333670D01*
X0191833Y0333698D01*
X0191910Y0333721D01*
X0191987Y0333741D01*
X0192065Y0333757D01*
X0192144Y0333769D01*
X0192223Y0333777D01*
X0192303Y0333781D01*
X0192383Y0333781D01*
X0192463Y0333777D01*
X0192542Y0333769D01*
X0192621Y0333757D01*
X0192699Y0333741D01*
X0192776Y0333721D01*
X0192853Y0333698D01*
X0192928Y0333670D01*
X0193001Y0333639D01*
X0193073Y0333605D01*
X0193143Y0333567D01*
X0193211Y0333525D01*
X0193277Y0333480D01*
X0193341Y0333432D01*
X0193402Y0333381D01*
X0193460Y0333326D01*
X0193516Y0333269D01*
X0193569Y0333209D01*
X0193618Y0333147D01*
X0193665Y0333082D01*
X0193708Y0333015D01*
X0193748Y0332946D01*
X0193785Y0332875D01*
X0193817Y0332802D01*
X0193847Y0332728D01*
X0193872Y0332653D01*
X0193894Y0332576D01*
X0193911Y0332498D01*
X0193925Y0332419D01*
X0193935Y0332340D01*
X0193941Y0332261D01*
X0193943Y0332181D01*
X0193941Y0332101D01*
X0193935Y0332022D01*
X0193925Y0331943D01*
X0193911Y0331864D01*
X0193894Y0331786D01*
X0193872Y0331709D01*
X0193847Y0331634D01*
X0193817Y0331560D01*
X0193785Y0331487D01*
X0193748Y0331416D01*
X0193708Y0331347D01*
X0193665Y0331280D01*
X0193618Y0331215D01*
X0193569Y0331153D01*
X0193516Y0331093D01*
X0193460Y0331036D01*
X0193402Y0330981D01*
X0193341Y0330930D01*
X0193277Y0330882D01*
X0193211Y0330837D01*
X0193143Y0330795D01*
X0193073Y0330757D01*
X0193001Y0330723D01*
X0192928Y0330692D01*
X0192853Y0330664D01*
X0192776Y0330641D01*
X0192699Y0330621D01*
X0192621Y0330605D01*
X0192542Y0330593D01*
X0192463Y0330585D01*
X0192383Y0330581D01*
X0192303Y0330581D01*
X0192223Y0330585D01*
X0192144Y0330593D01*
X0192065Y0330605D01*
X0191987Y0330621D01*
X0191910Y0330641D01*
X0191833Y0330664D01*
X0191758Y0330692D01*
X0191685Y0330723D01*
X0191613Y0330757D01*
X0191543Y0330795D01*
X0191475Y0330837D01*
X0191409Y0330882D01*
X0191345Y0330930D01*
X0191284Y0330981D01*
X0191226Y0331036D01*
X0191170Y0331093D01*
X0191117Y0331153D01*
X0191068Y0331215D01*
X0191021Y0331280D01*
X0190978Y0331347D01*
X0190938Y0331416D01*
X0190901Y0331487D01*
X0190869Y0331560D01*
X0190839Y0331634D01*
X0190814Y0331709D01*
X0190792Y0331786D01*
X0190775Y0331864D01*
X0190761Y0331943D01*
X0190751Y0332022D01*
X0190745Y0332101D01*
X0190743Y0332181D01*
X0171057Y0332181D02*
X0171059Y0332261D01*
X0171065Y0332340D01*
X0171075Y0332419D01*
X0171089Y0332498D01*
X0171106Y0332576D01*
X0171128Y0332653D01*
X0171153Y0332728D01*
X0171183Y0332802D01*
X0171215Y0332875D01*
X0171252Y0332946D01*
X0171292Y0333015D01*
X0171335Y0333082D01*
X0171382Y0333147D01*
X0171431Y0333209D01*
X0171484Y0333269D01*
X0171540Y0333326D01*
X0171598Y0333381D01*
X0171659Y0333432D01*
X0171723Y0333480D01*
X0171789Y0333525D01*
X0171857Y0333567D01*
X0171927Y0333605D01*
X0171999Y0333639D01*
X0172072Y0333670D01*
X0172147Y0333698D01*
X0172224Y0333721D01*
X0172301Y0333741D01*
X0172379Y0333757D01*
X0172458Y0333769D01*
X0172537Y0333777D01*
X0172617Y0333781D01*
X0172697Y0333781D01*
X0172777Y0333777D01*
X0172856Y0333769D01*
X0172935Y0333757D01*
X0173013Y0333741D01*
X0173090Y0333721D01*
X0173167Y0333698D01*
X0173242Y0333670D01*
X0173315Y0333639D01*
X0173387Y0333605D01*
X0173457Y0333567D01*
X0173525Y0333525D01*
X0173591Y0333480D01*
X0173655Y0333432D01*
X0173716Y0333381D01*
X0173774Y0333326D01*
X0173830Y0333269D01*
X0173883Y0333209D01*
X0173932Y0333147D01*
X0173979Y0333082D01*
X0174022Y0333015D01*
X0174062Y0332946D01*
X0174099Y0332875D01*
X0174131Y0332802D01*
X0174161Y0332728D01*
X0174186Y0332653D01*
X0174208Y0332576D01*
X0174225Y0332498D01*
X0174239Y0332419D01*
X0174249Y0332340D01*
X0174255Y0332261D01*
X0174257Y0332181D01*
X0174255Y0332101D01*
X0174249Y0332022D01*
X0174239Y0331943D01*
X0174225Y0331864D01*
X0174208Y0331786D01*
X0174186Y0331709D01*
X0174161Y0331634D01*
X0174131Y0331560D01*
X0174099Y0331487D01*
X0174062Y0331416D01*
X0174022Y0331347D01*
X0173979Y0331280D01*
X0173932Y0331215D01*
X0173883Y0331153D01*
X0173830Y0331093D01*
X0173774Y0331036D01*
X0173716Y0330981D01*
X0173655Y0330930D01*
X0173591Y0330882D01*
X0173525Y0330837D01*
X0173457Y0330795D01*
X0173387Y0330757D01*
X0173315Y0330723D01*
X0173242Y0330692D01*
X0173167Y0330664D01*
X0173090Y0330641D01*
X0173013Y0330621D01*
X0172935Y0330605D01*
X0172856Y0330593D01*
X0172777Y0330585D01*
X0172697Y0330581D01*
X0172617Y0330581D01*
X0172537Y0330585D01*
X0172458Y0330593D01*
X0172379Y0330605D01*
X0172301Y0330621D01*
X0172224Y0330641D01*
X0172147Y0330664D01*
X0172072Y0330692D01*
X0171999Y0330723D01*
X0171927Y0330757D01*
X0171857Y0330795D01*
X0171789Y0330837D01*
X0171723Y0330882D01*
X0171659Y0330930D01*
X0171598Y0330981D01*
X0171540Y0331036D01*
X0171484Y0331093D01*
X0171431Y0331153D01*
X0171382Y0331215D01*
X0171335Y0331280D01*
X0171292Y0331347D01*
X0171252Y0331416D01*
X0171215Y0331487D01*
X0171183Y0331560D01*
X0171153Y0331634D01*
X0171128Y0331709D01*
X0171106Y0331786D01*
X0171089Y0331864D01*
X0171075Y0331943D01*
X0171065Y0332022D01*
X0171059Y0332101D01*
X0171057Y0332181D01*
X0171059Y0332260D01*
X0171065Y0332338D01*
X0171074Y0332416D01*
X0171088Y0332493D01*
X0171105Y0332570D01*
X0171126Y0332645D01*
X0171151Y0332720D01*
X0171179Y0332793D01*
X0171211Y0332865D01*
X0171246Y0332935D01*
X0171285Y0333004D01*
X0171327Y0333070D01*
X0171372Y0333134D01*
X0171420Y0333196D01*
X0171471Y0333255D01*
X0171526Y0333312D01*
X0171583Y0333367D01*
X0171642Y0333418D01*
X0171704Y0333466D01*
X0171768Y0333511D01*
X0171834Y0333553D01*
X0171903Y0333592D01*
X0171973Y0333627D01*
X0172045Y0333659D01*
X0172118Y0333687D01*
X0172193Y0333712D01*
X0172268Y0333733D01*
X0172345Y0333750D01*
X0172422Y0333764D01*
X0172500Y0333773D01*
X0172578Y0333779D01*
X0172657Y0333781D01*
X0172736Y0333779D01*
X0172814Y0333773D01*
X0172892Y0333764D01*
X0172969Y0333750D01*
X0173046Y0333733D01*
X0173121Y0333712D01*
X0173196Y0333687D01*
X0173269Y0333659D01*
X0173341Y0333627D01*
X0173411Y0333592D01*
X0173480Y0333553D01*
X0173546Y0333511D01*
X0173610Y0333466D01*
X0173672Y0333418D01*
X0173731Y0333367D01*
X0173788Y0333312D01*
X0173843Y0333255D01*
X0173894Y0333196D01*
X0173942Y0333134D01*
X0173987Y0333070D01*
X0174029Y0333004D01*
X0174068Y0332935D01*
X0174103Y0332865D01*
X0174135Y0332793D01*
X0174163Y0332720D01*
X0174188Y0332645D01*
X0174209Y0332570D01*
X0174226Y0332493D01*
X0174240Y0332416D01*
X0174249Y0332338D01*
X0174255Y0332260D01*
X0174257Y0332181D01*
X0174255Y0332102D01*
X0174249Y0332024D01*
X0174240Y0331946D01*
X0174226Y0331869D01*
X0174209Y0331792D01*
X0174188Y0331717D01*
X0174163Y0331642D01*
X0174135Y0331569D01*
X0174103Y0331497D01*
X0174068Y0331427D01*
X0174029Y0331358D01*
X0173987Y0331292D01*
X0173942Y0331228D01*
X0173894Y0331166D01*
X0173843Y0331107D01*
X0173788Y0331050D01*
X0173731Y0330995D01*
X0173672Y0330944D01*
X0173610Y0330896D01*
X0173546Y0330851D01*
X0173480Y0330809D01*
X0173411Y0330770D01*
X0173341Y0330735D01*
X0173269Y0330703D01*
X0173196Y0330675D01*
X0173121Y0330650D01*
X0173046Y0330629D01*
X0172969Y0330612D01*
X0172892Y0330598D01*
X0172814Y0330589D01*
X0172736Y0330583D01*
X0172657Y0330581D01*
X0172578Y0330583D01*
X0172500Y0330589D01*
X0172422Y0330598D01*
X0172345Y0330612D01*
X0172268Y0330629D01*
X0172193Y0330650D01*
X0172118Y0330675D01*
X0172045Y0330703D01*
X0171973Y0330735D01*
X0171903Y0330770D01*
X0171834Y0330809D01*
X0171768Y0330851D01*
X0171704Y0330896D01*
X0171642Y0330944D01*
X0171583Y0330995D01*
X0171526Y0331050D01*
X0171471Y0331107D01*
X0171420Y0331166D01*
X0171372Y0331228D01*
X0171327Y0331292D01*
X0171285Y0331358D01*
X0171246Y0331427D01*
X0171211Y0331497D01*
X0171179Y0331569D01*
X0171151Y0331642D01*
X0171126Y0331717D01*
X0171105Y0331792D01*
X0171088Y0331869D01*
X0171074Y0331946D01*
X0171065Y0332024D01*
X0171059Y0332102D01*
X0171057Y0332181D01*
X0169902Y0341433D02*
X0169902Y0344189D01*
X0169901Y0344189D02*
X0169899Y0344256D01*
X0169893Y0344324D01*
X0169884Y0344390D01*
X0169870Y0344456D01*
X0169853Y0344522D01*
X0169832Y0344586D01*
X0169808Y0344649D01*
X0169780Y0344710D01*
X0169748Y0344770D01*
X0169714Y0344827D01*
X0169675Y0344883D01*
X0169634Y0344937D01*
X0169590Y0344988D01*
X0169543Y0345036D01*
X0169493Y0345082D01*
X0169441Y0345124D01*
X0169387Y0345164D01*
X0169330Y0345200D01*
X0169271Y0345234D01*
X0169211Y0345263D01*
X0169148Y0345290D01*
X0169085Y0345312D01*
X0169020Y0345331D01*
X0168955Y0345346D01*
X0168888Y0345358D01*
X0168821Y0345366D01*
X0168754Y0345370D01*
X0168686Y0345370D01*
X0168619Y0345366D01*
X0168552Y0345358D01*
X0168485Y0345346D01*
X0168420Y0345331D01*
X0168355Y0345312D01*
X0168292Y0345290D01*
X0168229Y0345263D01*
X0168169Y0345234D01*
X0168110Y0345200D01*
X0168053Y0345164D01*
X0167999Y0345124D01*
X0167947Y0345082D01*
X0167897Y0345036D01*
X0167850Y0344988D01*
X0167806Y0344937D01*
X0167765Y0344883D01*
X0167726Y0344827D01*
X0167692Y0344770D01*
X0167660Y0344710D01*
X0167632Y0344649D01*
X0167608Y0344586D01*
X0167587Y0344522D01*
X0167570Y0344456D01*
X0167556Y0344390D01*
X0167547Y0344324D01*
X0167541Y0344256D01*
X0167539Y0344189D01*
X0167539Y0341433D01*
X0167541Y0341366D01*
X0167547Y0341298D01*
X0167556Y0341232D01*
X0167570Y0341166D01*
X0167587Y0341100D01*
X0167608Y0341036D01*
X0167632Y0340973D01*
X0167660Y0340912D01*
X0167692Y0340852D01*
X0167726Y0340795D01*
X0167765Y0340739D01*
X0167806Y0340685D01*
X0167850Y0340634D01*
X0167897Y0340586D01*
X0167947Y0340540D01*
X0167999Y0340498D01*
X0168053Y0340458D01*
X0168110Y0340422D01*
X0168169Y0340388D01*
X0168229Y0340359D01*
X0168292Y0340332D01*
X0168355Y0340310D01*
X0168420Y0340291D01*
X0168485Y0340276D01*
X0168552Y0340264D01*
X0168619Y0340256D01*
X0168686Y0340252D01*
X0168754Y0340252D01*
X0168821Y0340256D01*
X0168888Y0340264D01*
X0168955Y0340276D01*
X0169020Y0340291D01*
X0169085Y0340310D01*
X0169148Y0340332D01*
X0169211Y0340359D01*
X0169271Y0340388D01*
X0169330Y0340422D01*
X0169387Y0340458D01*
X0169441Y0340498D01*
X0169493Y0340540D01*
X0169543Y0340586D01*
X0169590Y0340634D01*
X0169634Y0340685D01*
X0169675Y0340739D01*
X0169714Y0340795D01*
X0169748Y0340852D01*
X0169780Y0340912D01*
X0169808Y0340973D01*
X0169832Y0341036D01*
X0169853Y0341100D01*
X0169870Y0341166D01*
X0169884Y0341232D01*
X0169893Y0341298D01*
X0169899Y0341366D01*
X0169901Y0341433D01*
X0082634Y0339311D02*
X0082636Y0339395D01*
X0082642Y0339478D01*
X0082652Y0339561D01*
X0082666Y0339644D01*
X0082683Y0339726D01*
X0082705Y0339807D01*
X0082730Y0339886D01*
X0082759Y0339965D01*
X0082792Y0340042D01*
X0082828Y0340117D01*
X0082868Y0340191D01*
X0082911Y0340263D01*
X0082958Y0340332D01*
X0083008Y0340399D01*
X0083061Y0340464D01*
X0083117Y0340526D01*
X0083175Y0340586D01*
X0083237Y0340643D01*
X0083301Y0340696D01*
X0083368Y0340747D01*
X0083437Y0340794D01*
X0083508Y0340839D01*
X0083581Y0340879D01*
X0083656Y0340916D01*
X0083733Y0340950D01*
X0083811Y0340980D01*
X0083890Y0341006D01*
X0083971Y0341029D01*
X0084053Y0341047D01*
X0084135Y0341062D01*
X0084218Y0341073D01*
X0084301Y0341080D01*
X0084385Y0341083D01*
X0084469Y0341082D01*
X0084552Y0341077D01*
X0084636Y0341068D01*
X0084718Y0341055D01*
X0084800Y0341039D01*
X0084881Y0341018D01*
X0084962Y0340994D01*
X0085040Y0340966D01*
X0085118Y0340934D01*
X0085194Y0340898D01*
X0085268Y0340859D01*
X0085340Y0340817D01*
X0085410Y0340771D01*
X0085478Y0340722D01*
X0085543Y0340670D01*
X0085606Y0340615D01*
X0085666Y0340557D01*
X0085724Y0340496D01*
X0085778Y0340432D01*
X0085830Y0340366D01*
X0085878Y0340298D01*
X0085923Y0340227D01*
X0085964Y0340154D01*
X0086003Y0340080D01*
X0086037Y0340004D01*
X0086068Y0339926D01*
X0086095Y0339847D01*
X0086119Y0339766D01*
X0086138Y0339685D01*
X0086154Y0339603D01*
X0086166Y0339520D01*
X0086174Y0339436D01*
X0086178Y0339353D01*
X0086178Y0339269D01*
X0086174Y0339186D01*
X0086166Y0339102D01*
X0086154Y0339019D01*
X0086138Y0338937D01*
X0086119Y0338856D01*
X0086095Y0338775D01*
X0086068Y0338696D01*
X0086037Y0338618D01*
X0086003Y0338542D01*
X0085964Y0338468D01*
X0085923Y0338395D01*
X0085878Y0338324D01*
X0085830Y0338256D01*
X0085778Y0338190D01*
X0085724Y0338126D01*
X0085666Y0338065D01*
X0085606Y0338007D01*
X0085543Y0337952D01*
X0085478Y0337900D01*
X0085410Y0337851D01*
X0085340Y0337805D01*
X0085268Y0337763D01*
X0085194Y0337724D01*
X0085118Y0337688D01*
X0085040Y0337656D01*
X0084962Y0337628D01*
X0084881Y0337604D01*
X0084800Y0337583D01*
X0084718Y0337567D01*
X0084636Y0337554D01*
X0084552Y0337545D01*
X0084469Y0337540D01*
X0084385Y0337539D01*
X0084301Y0337542D01*
X0084218Y0337549D01*
X0084135Y0337560D01*
X0084053Y0337575D01*
X0083971Y0337593D01*
X0083890Y0337616D01*
X0083811Y0337642D01*
X0083733Y0337672D01*
X0083656Y0337706D01*
X0083581Y0337743D01*
X0083508Y0337783D01*
X0083437Y0337828D01*
X0083368Y0337875D01*
X0083301Y0337926D01*
X0083237Y0337979D01*
X0083175Y0338036D01*
X0083117Y0338096D01*
X0083061Y0338158D01*
X0083008Y0338223D01*
X0082958Y0338290D01*
X0082911Y0338359D01*
X0082868Y0338431D01*
X0082828Y0338505D01*
X0082792Y0338580D01*
X0082759Y0338657D01*
X0082730Y0338736D01*
X0082705Y0338815D01*
X0082683Y0338896D01*
X0082666Y0338978D01*
X0082652Y0339061D01*
X0082642Y0339144D01*
X0082636Y0339227D01*
X0082634Y0339311D01*
X0070822Y0339311D02*
X0070824Y0339395D01*
X0070830Y0339478D01*
X0070840Y0339561D01*
X0070854Y0339644D01*
X0070871Y0339726D01*
X0070893Y0339807D01*
X0070918Y0339886D01*
X0070947Y0339965D01*
X0070980Y0340042D01*
X0071016Y0340117D01*
X0071056Y0340191D01*
X0071099Y0340263D01*
X0071146Y0340332D01*
X0071196Y0340399D01*
X0071249Y0340464D01*
X0071305Y0340526D01*
X0071363Y0340586D01*
X0071425Y0340643D01*
X0071489Y0340696D01*
X0071556Y0340747D01*
X0071625Y0340794D01*
X0071696Y0340839D01*
X0071769Y0340879D01*
X0071844Y0340916D01*
X0071921Y0340950D01*
X0071999Y0340980D01*
X0072078Y0341006D01*
X0072159Y0341029D01*
X0072241Y0341047D01*
X0072323Y0341062D01*
X0072406Y0341073D01*
X0072489Y0341080D01*
X0072573Y0341083D01*
X0072657Y0341082D01*
X0072740Y0341077D01*
X0072824Y0341068D01*
X0072906Y0341055D01*
X0072988Y0341039D01*
X0073069Y0341018D01*
X0073150Y0340994D01*
X0073228Y0340966D01*
X0073306Y0340934D01*
X0073382Y0340898D01*
X0073456Y0340859D01*
X0073528Y0340817D01*
X0073598Y0340771D01*
X0073666Y0340722D01*
X0073731Y0340670D01*
X0073794Y0340615D01*
X0073854Y0340557D01*
X0073912Y0340496D01*
X0073966Y0340432D01*
X0074018Y0340366D01*
X0074066Y0340298D01*
X0074111Y0340227D01*
X0074152Y0340154D01*
X0074191Y0340080D01*
X0074225Y0340004D01*
X0074256Y0339926D01*
X0074283Y0339847D01*
X0074307Y0339766D01*
X0074326Y0339685D01*
X0074342Y0339603D01*
X0074354Y0339520D01*
X0074362Y0339436D01*
X0074366Y0339353D01*
X0074366Y0339269D01*
X0074362Y0339186D01*
X0074354Y0339102D01*
X0074342Y0339019D01*
X0074326Y0338937D01*
X0074307Y0338856D01*
X0074283Y0338775D01*
X0074256Y0338696D01*
X0074225Y0338618D01*
X0074191Y0338542D01*
X0074152Y0338468D01*
X0074111Y0338395D01*
X0074066Y0338324D01*
X0074018Y0338256D01*
X0073966Y0338190D01*
X0073912Y0338126D01*
X0073854Y0338065D01*
X0073794Y0338007D01*
X0073731Y0337952D01*
X0073666Y0337900D01*
X0073598Y0337851D01*
X0073528Y0337805D01*
X0073456Y0337763D01*
X0073382Y0337724D01*
X0073306Y0337688D01*
X0073228Y0337656D01*
X0073150Y0337628D01*
X0073069Y0337604D01*
X0072988Y0337583D01*
X0072906Y0337567D01*
X0072824Y0337554D01*
X0072740Y0337545D01*
X0072657Y0337540D01*
X0072573Y0337539D01*
X0072489Y0337542D01*
X0072406Y0337549D01*
X0072323Y0337560D01*
X0072241Y0337575D01*
X0072159Y0337593D01*
X0072078Y0337616D01*
X0071999Y0337642D01*
X0071921Y0337672D01*
X0071844Y0337706D01*
X0071769Y0337743D01*
X0071696Y0337783D01*
X0071625Y0337828D01*
X0071556Y0337875D01*
X0071489Y0337926D01*
X0071425Y0337979D01*
X0071363Y0338036D01*
X0071305Y0338096D01*
X0071249Y0338158D01*
X0071196Y0338223D01*
X0071146Y0338290D01*
X0071099Y0338359D01*
X0071056Y0338431D01*
X0071016Y0338505D01*
X0070980Y0338580D01*
X0070947Y0338657D01*
X0070918Y0338736D01*
X0070893Y0338815D01*
X0070871Y0338896D01*
X0070854Y0338978D01*
X0070840Y0339061D01*
X0070830Y0339144D01*
X0070824Y0339227D01*
X0070822Y0339311D01*
X0036594Y0297811D02*
X0036596Y0297964D01*
X0036602Y0298118D01*
X0036612Y0298271D01*
X0036626Y0298423D01*
X0036644Y0298576D01*
X0036666Y0298727D01*
X0036691Y0298878D01*
X0036721Y0299029D01*
X0036755Y0299179D01*
X0036792Y0299327D01*
X0036833Y0299475D01*
X0036878Y0299621D01*
X0036927Y0299767D01*
X0036980Y0299911D01*
X0037036Y0300053D01*
X0037096Y0300194D01*
X0037160Y0300334D01*
X0037227Y0300472D01*
X0037298Y0300608D01*
X0037373Y0300742D01*
X0037450Y0300874D01*
X0037532Y0301004D01*
X0037616Y0301132D01*
X0037704Y0301258D01*
X0037795Y0301381D01*
X0037889Y0301502D01*
X0037987Y0301620D01*
X0038087Y0301736D01*
X0038191Y0301849D01*
X0038297Y0301960D01*
X0038406Y0302068D01*
X0038518Y0302173D01*
X0038632Y0302274D01*
X0038750Y0302373D01*
X0038869Y0302469D01*
X0038991Y0302562D01*
X0039116Y0302651D01*
X0039243Y0302738D01*
X0039372Y0302820D01*
X0039503Y0302900D01*
X0039636Y0302976D01*
X0039771Y0303049D01*
X0039908Y0303118D01*
X0040047Y0303183D01*
X0040187Y0303245D01*
X0040329Y0303303D01*
X0040472Y0303358D01*
X0040617Y0303409D01*
X0040763Y0303456D01*
X0040910Y0303499D01*
X0041058Y0303538D01*
X0041207Y0303574D01*
X0041357Y0303605D01*
X0041508Y0303633D01*
X0041659Y0303657D01*
X0041812Y0303677D01*
X0041964Y0303693D01*
X0042117Y0303705D01*
X0042270Y0303713D01*
X0042423Y0303717D01*
X0042577Y0303717D01*
X0042730Y0303713D01*
X0042883Y0303705D01*
X0043036Y0303693D01*
X0043188Y0303677D01*
X0043341Y0303657D01*
X0043492Y0303633D01*
X0043643Y0303605D01*
X0043793Y0303574D01*
X0043942Y0303538D01*
X0044090Y0303499D01*
X0044237Y0303456D01*
X0044383Y0303409D01*
X0044528Y0303358D01*
X0044671Y0303303D01*
X0044813Y0303245D01*
X0044953Y0303183D01*
X0045092Y0303118D01*
X0045229Y0303049D01*
X0045364Y0302976D01*
X0045497Y0302900D01*
X0045628Y0302820D01*
X0045757Y0302738D01*
X0045884Y0302651D01*
X0046009Y0302562D01*
X0046131Y0302469D01*
X0046250Y0302373D01*
X0046368Y0302274D01*
X0046482Y0302173D01*
X0046594Y0302068D01*
X0046703Y0301960D01*
X0046809Y0301849D01*
X0046913Y0301736D01*
X0047013Y0301620D01*
X0047111Y0301502D01*
X0047205Y0301381D01*
X0047296Y0301258D01*
X0047384Y0301132D01*
X0047468Y0301004D01*
X0047550Y0300874D01*
X0047627Y0300742D01*
X0047702Y0300608D01*
X0047773Y0300472D01*
X0047840Y0300334D01*
X0047904Y0300194D01*
X0047964Y0300053D01*
X0048020Y0299911D01*
X0048073Y0299767D01*
X0048122Y0299621D01*
X0048167Y0299475D01*
X0048208Y0299327D01*
X0048245Y0299179D01*
X0048279Y0299029D01*
X0048309Y0298878D01*
X0048334Y0298727D01*
X0048356Y0298576D01*
X0048374Y0298423D01*
X0048388Y0298271D01*
X0048398Y0298118D01*
X0048404Y0297964D01*
X0048406Y0297811D01*
X0048404Y0297658D01*
X0048398Y0297504D01*
X0048388Y0297351D01*
X0048374Y0297199D01*
X0048356Y0297046D01*
X0048334Y0296895D01*
X0048309Y0296744D01*
X0048279Y0296593D01*
X0048245Y0296443D01*
X0048208Y0296295D01*
X0048167Y0296147D01*
X0048122Y0296001D01*
X0048073Y0295855D01*
X0048020Y0295711D01*
X0047964Y0295569D01*
X0047904Y0295428D01*
X0047840Y0295288D01*
X0047773Y0295150D01*
X0047702Y0295014D01*
X0047627Y0294880D01*
X0047550Y0294748D01*
X0047468Y0294618D01*
X0047384Y0294490D01*
X0047296Y0294364D01*
X0047205Y0294241D01*
X0047111Y0294120D01*
X0047013Y0294002D01*
X0046913Y0293886D01*
X0046809Y0293773D01*
X0046703Y0293662D01*
X0046594Y0293554D01*
X0046482Y0293449D01*
X0046368Y0293348D01*
X0046250Y0293249D01*
X0046131Y0293153D01*
X0046009Y0293060D01*
X0045884Y0292971D01*
X0045757Y0292884D01*
X0045628Y0292802D01*
X0045497Y0292722D01*
X0045364Y0292646D01*
X0045229Y0292573D01*
X0045092Y0292504D01*
X0044953Y0292439D01*
X0044813Y0292377D01*
X0044671Y0292319D01*
X0044528Y0292264D01*
X0044383Y0292213D01*
X0044237Y0292166D01*
X0044090Y0292123D01*
X0043942Y0292084D01*
X0043793Y0292048D01*
X0043643Y0292017D01*
X0043492Y0291989D01*
X0043341Y0291965D01*
X0043188Y0291945D01*
X0043036Y0291929D01*
X0042883Y0291917D01*
X0042730Y0291909D01*
X0042577Y0291905D01*
X0042423Y0291905D01*
X0042270Y0291909D01*
X0042117Y0291917D01*
X0041964Y0291929D01*
X0041812Y0291945D01*
X0041659Y0291965D01*
X0041508Y0291989D01*
X0041357Y0292017D01*
X0041207Y0292048D01*
X0041058Y0292084D01*
X0040910Y0292123D01*
X0040763Y0292166D01*
X0040617Y0292213D01*
X0040472Y0292264D01*
X0040329Y0292319D01*
X0040187Y0292377D01*
X0040047Y0292439D01*
X0039908Y0292504D01*
X0039771Y0292573D01*
X0039636Y0292646D01*
X0039503Y0292722D01*
X0039372Y0292802D01*
X0039243Y0292884D01*
X0039116Y0292971D01*
X0038991Y0293060D01*
X0038869Y0293153D01*
X0038750Y0293249D01*
X0038632Y0293348D01*
X0038518Y0293449D01*
X0038406Y0293554D01*
X0038297Y0293662D01*
X0038191Y0293773D01*
X0038087Y0293886D01*
X0037987Y0294002D01*
X0037889Y0294120D01*
X0037795Y0294241D01*
X0037704Y0294364D01*
X0037616Y0294490D01*
X0037532Y0294618D01*
X0037450Y0294748D01*
X0037373Y0294880D01*
X0037298Y0295014D01*
X0037227Y0295150D01*
X0037160Y0295288D01*
X0037096Y0295428D01*
X0037036Y0295569D01*
X0036980Y0295711D01*
X0036927Y0295855D01*
X0036878Y0296001D01*
X0036833Y0296147D01*
X0036792Y0296295D01*
X0036755Y0296443D01*
X0036721Y0296593D01*
X0036691Y0296744D01*
X0036666Y0296895D01*
X0036644Y0297046D01*
X0036626Y0297199D01*
X0036612Y0297351D01*
X0036602Y0297504D01*
X0036596Y0297658D01*
X0036594Y0297811D01*
X0501594Y0342811D02*
X0501596Y0342964D01*
X0501602Y0343118D01*
X0501612Y0343271D01*
X0501626Y0343423D01*
X0501644Y0343576D01*
X0501666Y0343727D01*
X0501691Y0343878D01*
X0501721Y0344029D01*
X0501755Y0344179D01*
X0501792Y0344327D01*
X0501833Y0344475D01*
X0501878Y0344621D01*
X0501927Y0344767D01*
X0501980Y0344911D01*
X0502036Y0345053D01*
X0502096Y0345194D01*
X0502160Y0345334D01*
X0502227Y0345472D01*
X0502298Y0345608D01*
X0502373Y0345742D01*
X0502450Y0345874D01*
X0502532Y0346004D01*
X0502616Y0346132D01*
X0502704Y0346258D01*
X0502795Y0346381D01*
X0502889Y0346502D01*
X0502987Y0346620D01*
X0503087Y0346736D01*
X0503191Y0346849D01*
X0503297Y0346960D01*
X0503406Y0347068D01*
X0503518Y0347173D01*
X0503632Y0347274D01*
X0503750Y0347373D01*
X0503869Y0347469D01*
X0503991Y0347562D01*
X0504116Y0347651D01*
X0504243Y0347738D01*
X0504372Y0347820D01*
X0504503Y0347900D01*
X0504636Y0347976D01*
X0504771Y0348049D01*
X0504908Y0348118D01*
X0505047Y0348183D01*
X0505187Y0348245D01*
X0505329Y0348303D01*
X0505472Y0348358D01*
X0505617Y0348409D01*
X0505763Y0348456D01*
X0505910Y0348499D01*
X0506058Y0348538D01*
X0506207Y0348574D01*
X0506357Y0348605D01*
X0506508Y0348633D01*
X0506659Y0348657D01*
X0506812Y0348677D01*
X0506964Y0348693D01*
X0507117Y0348705D01*
X0507270Y0348713D01*
X0507423Y0348717D01*
X0507577Y0348717D01*
X0507730Y0348713D01*
X0507883Y0348705D01*
X0508036Y0348693D01*
X0508188Y0348677D01*
X0508341Y0348657D01*
X0508492Y0348633D01*
X0508643Y0348605D01*
X0508793Y0348574D01*
X0508942Y0348538D01*
X0509090Y0348499D01*
X0509237Y0348456D01*
X0509383Y0348409D01*
X0509528Y0348358D01*
X0509671Y0348303D01*
X0509813Y0348245D01*
X0509953Y0348183D01*
X0510092Y0348118D01*
X0510229Y0348049D01*
X0510364Y0347976D01*
X0510497Y0347900D01*
X0510628Y0347820D01*
X0510757Y0347738D01*
X0510884Y0347651D01*
X0511009Y0347562D01*
X0511131Y0347469D01*
X0511250Y0347373D01*
X0511368Y0347274D01*
X0511482Y0347173D01*
X0511594Y0347068D01*
X0511703Y0346960D01*
X0511809Y0346849D01*
X0511913Y0346736D01*
X0512013Y0346620D01*
X0512111Y0346502D01*
X0512205Y0346381D01*
X0512296Y0346258D01*
X0512384Y0346132D01*
X0512468Y0346004D01*
X0512550Y0345874D01*
X0512627Y0345742D01*
X0512702Y0345608D01*
X0512773Y0345472D01*
X0512840Y0345334D01*
X0512904Y0345194D01*
X0512964Y0345053D01*
X0513020Y0344911D01*
X0513073Y0344767D01*
X0513122Y0344621D01*
X0513167Y0344475D01*
X0513208Y0344327D01*
X0513245Y0344179D01*
X0513279Y0344029D01*
X0513309Y0343878D01*
X0513334Y0343727D01*
X0513356Y0343576D01*
X0513374Y0343423D01*
X0513388Y0343271D01*
X0513398Y0343118D01*
X0513404Y0342964D01*
X0513406Y0342811D01*
X0513404Y0342658D01*
X0513398Y0342504D01*
X0513388Y0342351D01*
X0513374Y0342199D01*
X0513356Y0342046D01*
X0513334Y0341895D01*
X0513309Y0341744D01*
X0513279Y0341593D01*
X0513245Y0341443D01*
X0513208Y0341295D01*
X0513167Y0341147D01*
X0513122Y0341001D01*
X0513073Y0340855D01*
X0513020Y0340711D01*
X0512964Y0340569D01*
X0512904Y0340428D01*
X0512840Y0340288D01*
X0512773Y0340150D01*
X0512702Y0340014D01*
X0512627Y0339880D01*
X0512550Y0339748D01*
X0512468Y0339618D01*
X0512384Y0339490D01*
X0512296Y0339364D01*
X0512205Y0339241D01*
X0512111Y0339120D01*
X0512013Y0339002D01*
X0511913Y0338886D01*
X0511809Y0338773D01*
X0511703Y0338662D01*
X0511594Y0338554D01*
X0511482Y0338449D01*
X0511368Y0338348D01*
X0511250Y0338249D01*
X0511131Y0338153D01*
X0511009Y0338060D01*
X0510884Y0337971D01*
X0510757Y0337884D01*
X0510628Y0337802D01*
X0510497Y0337722D01*
X0510364Y0337646D01*
X0510229Y0337573D01*
X0510092Y0337504D01*
X0509953Y0337439D01*
X0509813Y0337377D01*
X0509671Y0337319D01*
X0509528Y0337264D01*
X0509383Y0337213D01*
X0509237Y0337166D01*
X0509090Y0337123D01*
X0508942Y0337084D01*
X0508793Y0337048D01*
X0508643Y0337017D01*
X0508492Y0336989D01*
X0508341Y0336965D01*
X0508188Y0336945D01*
X0508036Y0336929D01*
X0507883Y0336917D01*
X0507730Y0336909D01*
X0507577Y0336905D01*
X0507423Y0336905D01*
X0507270Y0336909D01*
X0507117Y0336917D01*
X0506964Y0336929D01*
X0506812Y0336945D01*
X0506659Y0336965D01*
X0506508Y0336989D01*
X0506357Y0337017D01*
X0506207Y0337048D01*
X0506058Y0337084D01*
X0505910Y0337123D01*
X0505763Y0337166D01*
X0505617Y0337213D01*
X0505472Y0337264D01*
X0505329Y0337319D01*
X0505187Y0337377D01*
X0505047Y0337439D01*
X0504908Y0337504D01*
X0504771Y0337573D01*
X0504636Y0337646D01*
X0504503Y0337722D01*
X0504372Y0337802D01*
X0504243Y0337884D01*
X0504116Y0337971D01*
X0503991Y0338060D01*
X0503869Y0338153D01*
X0503750Y0338249D01*
X0503632Y0338348D01*
X0503518Y0338449D01*
X0503406Y0338554D01*
X0503297Y0338662D01*
X0503191Y0338773D01*
X0503087Y0338886D01*
X0502987Y0339002D01*
X0502889Y0339120D01*
X0502795Y0339241D01*
X0502704Y0339364D01*
X0502616Y0339490D01*
X0502532Y0339618D01*
X0502450Y0339748D01*
X0502373Y0339880D01*
X0502298Y0340014D01*
X0502227Y0340150D01*
X0502160Y0340288D01*
X0502096Y0340428D01*
X0502036Y0340569D01*
X0501980Y0340711D01*
X0501927Y0340855D01*
X0501878Y0341001D01*
X0501833Y0341147D01*
X0501792Y0341295D01*
X0501755Y0341443D01*
X0501721Y0341593D01*
X0501691Y0341744D01*
X0501666Y0341895D01*
X0501644Y0342046D01*
X0501626Y0342199D01*
X0501612Y0342351D01*
X0501602Y0342504D01*
X0501596Y0342658D01*
X0501594Y0342811D01*
X0501594Y0012811D02*
X0501596Y0012964D01*
X0501602Y0013118D01*
X0501612Y0013271D01*
X0501626Y0013423D01*
X0501644Y0013576D01*
X0501666Y0013727D01*
X0501691Y0013878D01*
X0501721Y0014029D01*
X0501755Y0014179D01*
X0501792Y0014327D01*
X0501833Y0014475D01*
X0501878Y0014621D01*
X0501927Y0014767D01*
X0501980Y0014911D01*
X0502036Y0015053D01*
X0502096Y0015194D01*
X0502160Y0015334D01*
X0502227Y0015472D01*
X0502298Y0015608D01*
X0502373Y0015742D01*
X0502450Y0015874D01*
X0502532Y0016004D01*
X0502616Y0016132D01*
X0502704Y0016258D01*
X0502795Y0016381D01*
X0502889Y0016502D01*
X0502987Y0016620D01*
X0503087Y0016736D01*
X0503191Y0016849D01*
X0503297Y0016960D01*
X0503406Y0017068D01*
X0503518Y0017173D01*
X0503632Y0017274D01*
X0503750Y0017373D01*
X0503869Y0017469D01*
X0503991Y0017562D01*
X0504116Y0017651D01*
X0504243Y0017738D01*
X0504372Y0017820D01*
X0504503Y0017900D01*
X0504636Y0017976D01*
X0504771Y0018049D01*
X0504908Y0018118D01*
X0505047Y0018183D01*
X0505187Y0018245D01*
X0505329Y0018303D01*
X0505472Y0018358D01*
X0505617Y0018409D01*
X0505763Y0018456D01*
X0505910Y0018499D01*
X0506058Y0018538D01*
X0506207Y0018574D01*
X0506357Y0018605D01*
X0506508Y0018633D01*
X0506659Y0018657D01*
X0506812Y0018677D01*
X0506964Y0018693D01*
X0507117Y0018705D01*
X0507270Y0018713D01*
X0507423Y0018717D01*
X0507577Y0018717D01*
X0507730Y0018713D01*
X0507883Y0018705D01*
X0508036Y0018693D01*
X0508188Y0018677D01*
X0508341Y0018657D01*
X0508492Y0018633D01*
X0508643Y0018605D01*
X0508793Y0018574D01*
X0508942Y0018538D01*
X0509090Y0018499D01*
X0509237Y0018456D01*
X0509383Y0018409D01*
X0509528Y0018358D01*
X0509671Y0018303D01*
X0509813Y0018245D01*
X0509953Y0018183D01*
X0510092Y0018118D01*
X0510229Y0018049D01*
X0510364Y0017976D01*
X0510497Y0017900D01*
X0510628Y0017820D01*
X0510757Y0017738D01*
X0510884Y0017651D01*
X0511009Y0017562D01*
X0511131Y0017469D01*
X0511250Y0017373D01*
X0511368Y0017274D01*
X0511482Y0017173D01*
X0511594Y0017068D01*
X0511703Y0016960D01*
X0511809Y0016849D01*
X0511913Y0016736D01*
X0512013Y0016620D01*
X0512111Y0016502D01*
X0512205Y0016381D01*
X0512296Y0016258D01*
X0512384Y0016132D01*
X0512468Y0016004D01*
X0512550Y0015874D01*
X0512627Y0015742D01*
X0512702Y0015608D01*
X0512773Y0015472D01*
X0512840Y0015334D01*
X0512904Y0015194D01*
X0512964Y0015053D01*
X0513020Y0014911D01*
X0513073Y0014767D01*
X0513122Y0014621D01*
X0513167Y0014475D01*
X0513208Y0014327D01*
X0513245Y0014179D01*
X0513279Y0014029D01*
X0513309Y0013878D01*
X0513334Y0013727D01*
X0513356Y0013576D01*
X0513374Y0013423D01*
X0513388Y0013271D01*
X0513398Y0013118D01*
X0513404Y0012964D01*
X0513406Y0012811D01*
X0513404Y0012658D01*
X0513398Y0012504D01*
X0513388Y0012351D01*
X0513374Y0012199D01*
X0513356Y0012046D01*
X0513334Y0011895D01*
X0513309Y0011744D01*
X0513279Y0011593D01*
X0513245Y0011443D01*
X0513208Y0011295D01*
X0513167Y0011147D01*
X0513122Y0011001D01*
X0513073Y0010855D01*
X0513020Y0010711D01*
X0512964Y0010569D01*
X0512904Y0010428D01*
X0512840Y0010288D01*
X0512773Y0010150D01*
X0512702Y0010014D01*
X0512627Y0009880D01*
X0512550Y0009748D01*
X0512468Y0009618D01*
X0512384Y0009490D01*
X0512296Y0009364D01*
X0512205Y0009241D01*
X0512111Y0009120D01*
X0512013Y0009002D01*
X0511913Y0008886D01*
X0511809Y0008773D01*
X0511703Y0008662D01*
X0511594Y0008554D01*
X0511482Y0008449D01*
X0511368Y0008348D01*
X0511250Y0008249D01*
X0511131Y0008153D01*
X0511009Y0008060D01*
X0510884Y0007971D01*
X0510757Y0007884D01*
X0510628Y0007802D01*
X0510497Y0007722D01*
X0510364Y0007646D01*
X0510229Y0007573D01*
X0510092Y0007504D01*
X0509953Y0007439D01*
X0509813Y0007377D01*
X0509671Y0007319D01*
X0509528Y0007264D01*
X0509383Y0007213D01*
X0509237Y0007166D01*
X0509090Y0007123D01*
X0508942Y0007084D01*
X0508793Y0007048D01*
X0508643Y0007017D01*
X0508492Y0006989D01*
X0508341Y0006965D01*
X0508188Y0006945D01*
X0508036Y0006929D01*
X0507883Y0006917D01*
X0507730Y0006909D01*
X0507577Y0006905D01*
X0507423Y0006905D01*
X0507270Y0006909D01*
X0507117Y0006917D01*
X0506964Y0006929D01*
X0506812Y0006945D01*
X0506659Y0006965D01*
X0506508Y0006989D01*
X0506357Y0007017D01*
X0506207Y0007048D01*
X0506058Y0007084D01*
X0505910Y0007123D01*
X0505763Y0007166D01*
X0505617Y0007213D01*
X0505472Y0007264D01*
X0505329Y0007319D01*
X0505187Y0007377D01*
X0505047Y0007439D01*
X0504908Y0007504D01*
X0504771Y0007573D01*
X0504636Y0007646D01*
X0504503Y0007722D01*
X0504372Y0007802D01*
X0504243Y0007884D01*
X0504116Y0007971D01*
X0503991Y0008060D01*
X0503869Y0008153D01*
X0503750Y0008249D01*
X0503632Y0008348D01*
X0503518Y0008449D01*
X0503406Y0008554D01*
X0503297Y0008662D01*
X0503191Y0008773D01*
X0503087Y0008886D01*
X0502987Y0009002D01*
X0502889Y0009120D01*
X0502795Y0009241D01*
X0502704Y0009364D01*
X0502616Y0009490D01*
X0502532Y0009618D01*
X0502450Y0009748D01*
X0502373Y0009880D01*
X0502298Y0010014D01*
X0502227Y0010150D01*
X0502160Y0010288D01*
X0502096Y0010428D01*
X0502036Y0010569D01*
X0501980Y0010711D01*
X0501927Y0010855D01*
X0501878Y0011001D01*
X0501833Y0011147D01*
X0501792Y0011295D01*
X0501755Y0011443D01*
X0501721Y0011593D01*
X0501691Y0011744D01*
X0501666Y0011895D01*
X0501644Y0012046D01*
X0501626Y0012199D01*
X0501612Y0012351D01*
X0501602Y0012504D01*
X0501596Y0012658D01*
X0501594Y0012811D01*
D11*
X0265250Y0068561D02*
X0262548Y0068561D01*
X0265250Y0070363D01*
X0262548Y0070363D01*
X0262548Y0071508D02*
X0262548Y0072859D01*
X0262998Y0073309D01*
X0263899Y0073309D01*
X0264349Y0072859D01*
X0264349Y0071508D01*
X0265250Y0071508D02*
X0262548Y0071508D01*
X0262548Y0074454D02*
X0262548Y0076256D01*
X0262548Y0075355D02*
X0265250Y0075355D01*
X0265250Y0077401D02*
X0262548Y0077401D01*
X0263899Y0077401D02*
X0263899Y0079202D01*
X0262548Y0079202D02*
X0265250Y0079202D01*
X0261391Y0087061D02*
X0261391Y0089763D01*
X0261391Y0088412D02*
X0259590Y0088412D01*
X0259590Y0087061D02*
X0259590Y0089763D01*
X0258445Y0089763D02*
X0256643Y0089763D01*
X0257544Y0089763D02*
X0257544Y0087061D01*
X0255498Y0088412D02*
X0255048Y0087962D01*
X0253697Y0087962D01*
X0253697Y0087061D02*
X0253697Y0089763D01*
X0255048Y0089763D01*
X0255498Y0089313D01*
X0255498Y0088412D01*
X0252552Y0087061D02*
X0252552Y0089763D01*
X0250750Y0089763D02*
X0252552Y0087061D01*
X0250750Y0087061D02*
X0250750Y0089763D01*
X0263048Y0202061D02*
X0265750Y0203863D01*
X0263048Y0203863D01*
X0263048Y0205008D02*
X0263048Y0206359D01*
X0263498Y0206809D01*
X0264399Y0206809D01*
X0264849Y0206359D01*
X0264849Y0205008D01*
X0265750Y0205008D02*
X0263048Y0205008D01*
X0263048Y0207954D02*
X0263048Y0209756D01*
X0263048Y0208855D02*
X0265750Y0208855D01*
X0265750Y0210901D02*
X0263048Y0210901D01*
X0264399Y0210901D02*
X0264399Y0212702D01*
X0263048Y0212702D02*
X0265750Y0212702D01*
X0265750Y0202061D02*
X0263048Y0202061D01*
X0263048Y0338061D02*
X0265750Y0339863D01*
X0263048Y0339863D01*
X0263048Y0341008D02*
X0263048Y0342359D01*
X0263498Y0342809D01*
X0264399Y0342809D01*
X0264849Y0342359D01*
X0264849Y0341008D01*
X0265750Y0341008D02*
X0263048Y0341008D01*
X0263048Y0343954D02*
X0263048Y0345756D01*
X0263048Y0344855D02*
X0265750Y0344855D01*
X0265750Y0346901D02*
X0263048Y0346901D01*
X0264399Y0346901D02*
X0264399Y0348702D01*
X0263048Y0348702D02*
X0265750Y0348702D01*
X0265750Y0338061D02*
X0263048Y0338061D01*
X0013891Y0089763D02*
X0013891Y0087061D01*
X0013891Y0088412D02*
X0012090Y0088412D01*
X0012090Y0087061D02*
X0012090Y0089763D01*
X0010945Y0089763D02*
X0009143Y0089763D01*
X0010044Y0089763D02*
X0010044Y0087061D01*
X0007998Y0088412D02*
X0007548Y0087962D01*
X0006197Y0087962D01*
X0006197Y0087061D02*
X0006197Y0089763D01*
X0007548Y0089763D01*
X0007998Y0089313D01*
X0007998Y0088412D01*
X0005052Y0087061D02*
X0005052Y0089763D01*
X0003250Y0089763D02*
X0005052Y0087061D01*
X0003250Y0087061D02*
X0003250Y0089763D01*
D12*
X0015000Y0088311D02*
X0019000Y0091311D01*
X0017000Y0091311D01*
X0019000Y0091311D02*
X0019000Y0089811D01*
X0242000Y0090811D02*
X0243000Y0087811D01*
X0242000Y0090811D02*
X0244500Y0091811D01*
X0242000Y0090811D02*
X0249500Y0088311D01*
X0264000Y0067311D02*
X0261500Y0059811D01*
X0260500Y0062311D01*
X0261500Y0059811D02*
X0264500Y0060811D01*
X0262000Y0193311D02*
X0261000Y0195811D01*
X0262000Y0193311D02*
X0265000Y0194311D01*
X0262000Y0193311D02*
X0264500Y0200811D01*
X0262000Y0329311D02*
X0261000Y0331811D01*
X0262000Y0329311D02*
X0265000Y0330311D01*
X0262000Y0329311D02*
X0264500Y0336811D01*
D13*
X0235626Y0293662D02*
X0235626Y0291961D01*
X0235626Y0292812D02*
X0234492Y0292812D01*
X0234492Y0293662D02*
X0234492Y0291961D01*
X0233217Y0291961D02*
X0233217Y0293662D01*
X0232650Y0293662D02*
X0233784Y0293662D01*
X0231943Y0293379D02*
X0231943Y0292812D01*
X0231659Y0292528D01*
X0230808Y0292528D01*
X0230808Y0291961D02*
X0230808Y0293662D01*
X0231659Y0293662D01*
X0231943Y0293379D01*
X0230101Y0293662D02*
X0230101Y0291961D01*
X0228967Y0293662D01*
X0228967Y0291961D01*
X0045626Y0296961D02*
X0045626Y0298662D01*
X0045626Y0297812D02*
X0044492Y0297812D01*
X0044492Y0298662D02*
X0044492Y0296961D01*
X0043217Y0296961D02*
X0043217Y0298662D01*
X0042650Y0298662D02*
X0043784Y0298662D01*
X0041943Y0298379D02*
X0041943Y0297812D01*
X0041659Y0297528D01*
X0040808Y0297528D01*
X0040808Y0296961D02*
X0040808Y0298662D01*
X0041659Y0298662D01*
X0041943Y0298379D01*
X0040101Y0298662D02*
X0040101Y0296961D01*
X0038967Y0298662D01*
X0038967Y0296961D01*
X0058967Y0093662D02*
X0060101Y0091961D01*
X0060101Y0093662D01*
X0060808Y0093662D02*
X0061659Y0093662D01*
X0061943Y0093379D01*
X0061943Y0092812D01*
X0061659Y0092528D01*
X0060808Y0092528D01*
X0060808Y0091961D02*
X0060808Y0093662D01*
X0058967Y0093662D02*
X0058967Y0091961D01*
X0062650Y0093662D02*
X0063784Y0093662D01*
X0063217Y0093662D02*
X0063217Y0091961D01*
X0064492Y0091961D02*
X0064492Y0093662D01*
X0064492Y0092812D02*
X0065626Y0092812D01*
X0065626Y0093662D02*
X0065626Y0091961D01*
X0168967Y0091961D02*
X0168967Y0093662D01*
X0170101Y0091961D01*
X0170101Y0093662D01*
X0170808Y0093662D02*
X0171659Y0093662D01*
X0171943Y0093379D01*
X0171943Y0092812D01*
X0171659Y0092528D01*
X0170808Y0092528D01*
X0170808Y0091961D02*
X0170808Y0093662D01*
X0172650Y0093662D02*
X0173784Y0093662D01*
X0173217Y0093662D02*
X0173217Y0091961D01*
X0174492Y0091961D02*
X0174492Y0093662D01*
X0174492Y0092812D02*
X0175626Y0092812D01*
X0175626Y0093662D02*
X0175626Y0091961D01*
D14*
X0503096Y0013863D02*
X0504497Y0011761D01*
X0504497Y0013863D01*
X0505398Y0013863D02*
X0506449Y0013863D01*
X0506799Y0013513D01*
X0506799Y0012812D01*
X0506449Y0012462D01*
X0505398Y0012462D01*
X0505398Y0011761D02*
X0505398Y0013863D01*
X0503096Y0013863D02*
X0503096Y0011761D01*
X0507700Y0013863D02*
X0509101Y0013863D01*
X0508401Y0013863D02*
X0508401Y0011761D01*
X0510002Y0011761D02*
X0510002Y0013863D01*
X0510002Y0012812D02*
X0511403Y0012812D01*
X0511403Y0013863D02*
X0511403Y0011761D01*
X0511403Y0341761D02*
X0511403Y0343863D01*
X0511403Y0342812D02*
X0510002Y0342812D01*
X0510002Y0341761D02*
X0510002Y0343863D01*
X0509101Y0343863D02*
X0507700Y0343863D01*
X0508401Y0343863D02*
X0508401Y0341761D01*
X0506799Y0342812D02*
X0506449Y0342462D01*
X0505398Y0342462D01*
X0505398Y0341761D02*
X0505398Y0343863D01*
X0506449Y0343863D01*
X0506799Y0343513D01*
X0506799Y0342812D01*
X0504497Y0341761D02*
X0504497Y0343863D01*
X0503096Y0343863D02*
X0504497Y0341761D01*
X0503096Y0341761D02*
X0503096Y0343863D01*
M02*
