%
M48
M72
T01C0.01000
T02C0.01500
T03C0.01575
T04C0.02000
T05C0.03150
T06C0.03200
T07C0.03543
T08C0.03937
T09C0.11811
%
T01
X46500Y99811
X49500Y99811
X52500Y99811
X52500Y105811
X49500Y105811
X46500Y105811
X38500Y109811
X35500Y109811
X32500Y109811
X32500Y115811
X35500Y115811
X38500Y115811
X46500Y119811
X49500Y119811
X52500Y119811
X52500Y125811
X49500Y125811
X46500Y125811
X38500Y129811
X35500Y129811
X32500Y129811
X32500Y135811
X35500Y135811
X38500Y135811
X46500Y139811
X49500Y139811
X52500Y139811
X52500Y145811
X49500Y145811
X46500Y145811
X38500Y149811
X35500Y149811
X32500Y149811
X32500Y155811
X35500Y155811
X38500Y155811
X46500Y169811
X49500Y169811
X52500Y169811
X52500Y175811
X49500Y175811
X46500Y175811
X38500Y199811
X35500Y199811
X32500Y199811
X32500Y205811
X35500Y205811
X38500Y205811
X46500Y209811
X49500Y209811
X52500Y209811
X52500Y215811
X49500Y215811
X46500Y215811
X38500Y219811
X35500Y219811
X32500Y219811
X32500Y225811
X35500Y225811
X38500Y225811
X46500Y229811
X49500Y229811
X52500Y229811
X52500Y235811
X49500Y235811
X46500Y235811
X38500Y239811
X35500Y239811
X32500Y239811
X32500Y245811
X35500Y245811
X38500Y245811
X222500Y274811
X225500Y274811
X228500Y274811
X228500Y280811
X225500Y280811
X222500Y280811
X236500Y270811
X239500Y270811
X242500Y270811
X242500Y264811
X239500Y264811
X236500Y264811
X228500Y200811
X225500Y200811
X222500Y200811
X222500Y194811
X225500Y194811
X228500Y194811
X228500Y175811
X225500Y175811
X222500Y175811
X222500Y169811
X225500Y169811
X228500Y169811
X236000Y105811
X239000Y105811
X242000Y105811
X242000Y99811
X239000Y99811
X236000Y99811
X155500Y91311
X155500Y88311
X155500Y85311
X149500Y85311
X149500Y88311
X149500Y91311
X135500Y104311
X135500Y107311
X135500Y110311
X129500Y110311
X129500Y107311
X129500Y104311
T02
X161000Y105811
X164000Y109811
X167000Y113811
X185500Y133311
X201000Y132811
X201000Y137811
X201000Y142811
X201000Y152811
X201000Y157811
X201000Y162811
X201000Y172811
X201000Y177811
X201000Y187811
X201000Y197811
X201000Y202811
X201000Y207811
X201000Y217811
X201000Y222811
X201000Y227811
X201000Y237811
X201000Y242811
X185500Y233311
X185500Y213311
X185500Y193311
X185500Y173311
X185500Y153311
X148500Y157811
X148500Y162811
X143500Y162811
X143500Y172811
X143500Y177811
X148500Y177811
X148500Y182811
X148276Y188087
X144500Y194811
X148500Y197811
X148500Y202811
X148500Y217811
X143500Y217811
X148500Y222811
X148500Y237811
X148500Y242811
X178000Y278311
X182500Y281311
X163500Y302811
X178000Y305311
X178000Y310311
X203000Y315811
X234500Y237811
X230500Y227811
X234500Y217811
X148500Y142811
X148500Y137811
X201000Y122811
X201000Y117811
X201000Y107811
X80500Y180311
X80500Y185311
X80500Y190311
X80500Y195311
X80500Y200311
T03
X102500Y188811
X106500Y192811
X110500Y189311
X80500Y175311
X88000Y163311
X53500Y202811
X58000Y232811
X28000Y251811
X51000Y281311
X55000Y281311
X82500Y310811
X80500Y330311
X122500Y288811
X168500Y265811
X168500Y260811
X134500Y235811
X134500Y230811
X134500Y225811
X93000Y246811
X93000Y251311
X149000Y333311
X203000Y309811
X212500Y345311
X170000Y117811
T04
X82500Y87811
X97500Y87811
X111500Y87811
X111500Y102811
X97500Y102811
X82500Y102811
X82500Y117811
X97500Y117811
X111500Y117811
X131500Y122311
X112500Y142811
X86500Y156811
X110000Y182311
X107500Y227811
X92500Y227811
X107500Y242811
X127500Y262811
X113000Y273811
X97500Y293811
X92500Y293811
X92500Y301311
X97500Y301311
X122500Y297811
X141500Y280811
X163000Y292811
X150500Y297811
X167500Y322811
X189000Y319811
X212500Y292811
X212500Y277811
X247500Y277811
X247500Y257811
X237500Y311311
X237500Y327311
X129500Y329811
X129500Y323811
X120500Y323811
X120500Y329811
X110500Y326811
X101500Y326811
X101500Y344811
X110500Y344811
X120500Y341811
X120500Y347811
X129500Y347811
X129500Y341811
X52500Y332811
X27500Y332811
X55000Y305311
X22500Y282811
X22500Y262811
X22500Y242811
X22500Y222811
X55500Y245811
X53500Y265811
X37500Y172811
X22500Y172811
X22500Y152811
X22500Y132811
X22500Y112811
X235500Y112811
T05
X232500Y93811
X225500Y93811
X218500Y93811
X211500Y93811
X239500Y93811
X258500Y56811
X258500Y49811
X258500Y42811
X258500Y35811
X258500Y28811
X258500Y163811
X258500Y170811
X258500Y177811
X258500Y184811
X258500Y191811
X258500Y298811
X258500Y305811
X258500Y312811
X258500Y319811
X258500Y326811
X42500Y93811
X35500Y93811
X28500Y93811
X21500Y93811
T06
X172657Y332181
X192343Y332181
T07
X84406Y339311
X72594Y339311
T08
X297500Y317811
X307500Y317811
X307500Y307811
X307500Y297811
X297500Y297811
X297500Y307811
X297500Y287811
X307500Y287811
X307500Y277811
X297500Y277811
X297500Y257811
X297500Y247811
X307500Y247811
X307500Y257811
X332500Y252811
X342500Y252811
X352500Y252811
X362500Y252811
X372500Y252811
X372500Y242811
X372500Y232811
X362500Y232811
X352500Y232811
X342500Y232811
X332500Y232811
X332500Y242811
X342500Y242811
X352500Y242811
X362500Y242811
X362500Y222811
X352500Y222811
X342500Y222811
X332500Y222811
X332500Y212811
X342500Y212811
X352500Y212811
X362500Y212811
X372500Y212811
X372500Y202811
X372500Y192811
X362500Y192811
X352500Y192811
X342500Y192811
X332500Y192811
X332500Y202811
X342500Y202811
X352500Y202811
X362500Y202811
X362500Y182811
X352500Y182811
X342500Y182811
X332500Y182811
X332500Y172811
X342500Y172811
X352500Y172811
X362500Y172811
X372500Y172811
X372500Y162811
X372500Y152811
X362500Y152811
X352500Y152811
X342500Y152811
X332500Y152811
X332500Y162811
X342500Y162811
X352500Y162811
X362500Y162811
X362500Y142811
X352500Y142811
X342500Y142811
X332500Y142811
X332500Y132811
X342500Y132811
X352500Y132811
X362500Y132811
X372500Y132811
X372500Y122811
X372500Y112811
X362500Y112811
X352500Y112811
X342500Y112811
X332500Y112811
X332500Y122811
X342500Y122811
X352500Y122811
X362500Y122811
X362500Y102811
X352500Y102811
X342500Y102811
X332500Y102811
X332500Y92811
X342500Y92811
X352500Y92811
X362500Y92811
X372500Y92811
X372500Y82811
X372500Y72811
X362500Y72811
X352500Y72811
X342500Y72811
X332500Y72811
X332500Y82811
X342500Y82811
X352500Y82811
X362500Y82811
X362500Y62811
X352500Y62811
X342500Y62811
X332500Y62811
X332500Y52811
X342500Y52811
X352500Y52811
X362500Y52811
X372500Y52811
X372500Y42811
X372500Y32811
X362500Y32811
X352500Y32811
X342500Y32811
X332500Y32811
X332500Y42811
X342500Y42811
X352500Y42811
X362500Y42811
X372500Y62811
X402500Y62811
X412500Y62811
X422500Y62811
X432500Y62811
X442500Y62811
X442500Y52811
X432500Y52811
X422500Y52811
X412500Y52811
X402500Y52811
X402500Y42811
X402500Y32811
X412500Y32811
X422500Y32811
X432500Y32811
X442500Y32811
X442500Y42811
X432500Y42811
X422500Y42811
X412500Y42811
X412500Y72811
X402500Y72811
X402500Y82811
X412500Y82811
X422500Y82811
X422500Y72811
X432500Y72811
X442500Y72811
X442500Y82811
X432500Y82811
X432500Y92811
X422500Y92811
X412500Y92811
X402500Y92811
X402500Y102811
X412500Y102811
X422500Y102811
X432500Y102811
X442500Y102811
X442500Y92811
X467500Y97811
X477500Y97811
X477500Y107811
X467500Y107811
X467500Y117811
X477500Y117811
X477500Y127811
X467500Y127811
X467500Y137811
X477500Y137811
X477500Y157811
X467500Y157811
X467500Y167811
X477500Y167811
X477500Y177811
X467500Y177811
X467500Y187811
X477500Y187811
X477500Y197811
X467500Y197811
X442500Y192811
X432500Y192811
X422500Y192811
X412500Y192811
X402500Y192811
X402500Y202811
X412500Y202811
X422500Y202811
X432500Y202811
X442500Y202811
X442500Y212811
X432500Y212811
X422500Y212811
X412500Y212811
X402500Y212811
X402500Y222811
X412500Y222811
X422500Y222811
X432500Y222811
X442500Y222811
X442500Y232811
X432500Y232811
X422500Y232811
X412500Y232811
X402500Y232811
X402500Y242811
X412500Y242811
X422500Y242811
X432500Y242811
X442500Y242811
X442500Y252811
X432500Y252811
X422500Y252811
X412500Y252811
X402500Y252811
X402500Y262811
X412500Y262811
X422500Y262811
X432500Y262811
X442500Y262811
X442500Y272811
X432500Y272811
X422500Y272811
X412500Y272811
X402500Y272811
X402500Y282811
X412500Y282811
X422500Y282811
X432500Y282811
X442500Y282811
X442500Y292811
X432500Y292811
X422500Y292811
X412500Y292811
X402500Y292811
X402500Y302811
X412500Y302811
X422500Y302811
X432500Y302811
X442500Y302811
X442500Y312811
X432500Y312811
X422500Y312811
X412500Y312811
X402500Y312811
X402500Y322811
X412500Y322811
X422500Y322811
X432500Y322811
X442500Y322811
X467500Y317811
X477500Y317811
X477500Y307811
X477500Y297811
X467500Y297811
X467500Y307811
X467500Y287811
X477500Y287811
X477500Y277811
X467500Y277811
X467500Y257811
X467500Y247811
X477500Y247811
X477500Y257811
X477500Y237811
X467500Y237811
X467500Y227811
X477500Y227811
X477500Y217811
X467500Y217811
X442500Y182811
X432500Y182811
X422500Y182811
X412500Y182811
X402500Y182811
X402500Y172811
X412500Y172811
X422500Y172811
X432500Y172811
X442500Y172811
X442500Y162811
X442500Y152811
X432500Y152811
X422500Y152811
X412500Y152811
X402500Y152811
X402500Y162811
X412500Y162811
X422500Y162811
X432500Y162811
X432500Y142811
X422500Y142811
X412500Y142811
X402500Y142811
X402500Y132811
X412500Y132811
X422500Y132811
X432500Y132811
X442500Y132811
X442500Y122811
X442500Y112811
X432500Y112811
X422500Y112811
X412500Y112811
X402500Y112811
X402500Y122811
X412500Y122811
X422500Y122811
X432500Y122811
X442500Y142811
X372500Y142811
X372500Y102811
X307500Y97811
X297500Y97811
X297500Y107811
X307500Y107811
X307500Y117811
X297500Y117811
X297500Y127811
X307500Y127811
X307500Y137811
X297500Y137811
X297500Y157811
X307500Y157811
X307500Y167811
X297500Y167811
X297500Y177811
X307500Y177811
X307500Y187811
X297500Y187811
X297500Y197811
X307500Y197811
X307500Y217811
X297500Y217811
X297500Y227811
X307500Y227811
X307500Y237811
X297500Y237811
X332500Y262811
X342500Y262811
X352500Y262811
X362500Y262811
X372500Y262811
X372500Y272811
X362500Y272811
X352500Y272811
X342500Y272811
X332500Y272811
X332500Y282811
X342500Y282811
X352500Y282811
X362500Y282811
X372500Y282811
X372500Y292811
X362500Y292811
X352500Y292811
X342500Y292811
X332500Y292811
X332500Y302811
X342500Y302811
X352500Y302811
X362500Y302811
X372500Y302811
X372500Y312811
X362500Y312811
X352500Y312811
X342500Y312811
X332500Y312811
X332500Y322811
X342500Y322811
X352500Y322811
X362500Y322811
X372500Y322811
X372500Y222811
X372500Y182811
X307500Y77811
X297500Y77811
X297500Y67811
X307500Y67811
X307500Y57811
X307500Y47811
X297500Y47811
X297500Y57811
X297500Y37811
X307500Y37811
X467500Y37811
X477500Y37811
X477500Y47811
X467500Y47811
X467500Y57811
X477500Y57811
X477500Y67811
X467500Y67811
X467500Y77811
X477500Y77811
T09
X507500Y12811
X172500Y92811
X62500Y92811
X232500Y292811
X42500Y297811
X507500Y342811
M30
