G75*
%MOIN*%
%OFA0B0*%
%FSLAX25Y25*%
%IPPOS*%
%LPD*%
%AMOC8*
5,1,8,0,0,1.08239X$1,22.5*
%
%ADD10C,0.00000*%
%ADD11C,0.00500*%
%ADD12C,0.00800*%
%ADD13C,0.00300*%
%ADD14C,0.00400*%
D10*
X0017500Y0016500D02*
X0017500Y0088500D01*
X0017502Y0088626D01*
X0017508Y0088751D01*
X0017518Y0088876D01*
X0017532Y0089001D01*
X0017549Y0089126D01*
X0017571Y0089250D01*
X0017596Y0089373D01*
X0017626Y0089495D01*
X0017659Y0089616D01*
X0017696Y0089736D01*
X0017736Y0089855D01*
X0017781Y0089972D01*
X0017829Y0090089D01*
X0017881Y0090203D01*
X0017936Y0090316D01*
X0017995Y0090427D01*
X0018057Y0090536D01*
X0018123Y0090643D01*
X0018192Y0090748D01*
X0018264Y0090851D01*
X0018339Y0090952D01*
X0018418Y0091050D01*
X0018500Y0091145D01*
X0018584Y0091238D01*
X0018672Y0091328D01*
X0018762Y0091416D01*
X0018855Y0091500D01*
X0018950Y0091582D01*
X0019048Y0091661D01*
X0019149Y0091736D01*
X0019252Y0091808D01*
X0019357Y0091877D01*
X0019464Y0091943D01*
X0019573Y0092005D01*
X0019684Y0092064D01*
X0019797Y0092119D01*
X0019911Y0092171D01*
X0020028Y0092219D01*
X0020145Y0092264D01*
X0020264Y0092304D01*
X0020384Y0092341D01*
X0020505Y0092374D01*
X0020627Y0092404D01*
X0020750Y0092429D01*
X0020874Y0092451D01*
X0020999Y0092468D01*
X0021124Y0092482D01*
X0021249Y0092492D01*
X0021374Y0092498D01*
X0021500Y0092500D01*
X0021500Y0102500D01*
X0019925Y0103500D02*
X0019927Y0103579D01*
X0019933Y0103658D01*
X0019943Y0103737D01*
X0019957Y0103815D01*
X0019974Y0103892D01*
X0019996Y0103968D01*
X0020021Y0104043D01*
X0020051Y0104116D01*
X0020083Y0104188D01*
X0020120Y0104259D01*
X0020160Y0104327D01*
X0020203Y0104393D01*
X0020249Y0104457D01*
X0020299Y0104519D01*
X0020352Y0104578D01*
X0020407Y0104634D01*
X0020466Y0104688D01*
X0020527Y0104738D01*
X0020590Y0104786D01*
X0020656Y0104830D01*
X0020724Y0104871D01*
X0020794Y0104908D01*
X0020865Y0104942D01*
X0020939Y0104972D01*
X0021013Y0104998D01*
X0021089Y0105020D01*
X0021166Y0105039D01*
X0021244Y0105054D01*
X0021322Y0105065D01*
X0021401Y0105072D01*
X0021480Y0105075D01*
X0021559Y0105074D01*
X0021638Y0105069D01*
X0021717Y0105060D01*
X0021795Y0105047D01*
X0021872Y0105030D01*
X0021949Y0105010D01*
X0022024Y0104985D01*
X0022098Y0104957D01*
X0022171Y0104925D01*
X0022241Y0104890D01*
X0022310Y0104851D01*
X0022377Y0104808D01*
X0022442Y0104762D01*
X0022504Y0104714D01*
X0022564Y0104662D01*
X0022621Y0104607D01*
X0022675Y0104549D01*
X0022726Y0104489D01*
X0022774Y0104426D01*
X0022819Y0104361D01*
X0022861Y0104293D01*
X0022899Y0104224D01*
X0022933Y0104153D01*
X0022964Y0104080D01*
X0022992Y0104005D01*
X0023015Y0103930D01*
X0023035Y0103853D01*
X0023051Y0103776D01*
X0023063Y0103697D01*
X0023071Y0103619D01*
X0023075Y0103540D01*
X0023075Y0103460D01*
X0023071Y0103381D01*
X0023063Y0103303D01*
X0023051Y0103224D01*
X0023035Y0103147D01*
X0023015Y0103070D01*
X0022992Y0102995D01*
X0022964Y0102920D01*
X0022933Y0102847D01*
X0022899Y0102776D01*
X0022861Y0102707D01*
X0022819Y0102639D01*
X0022774Y0102574D01*
X0022726Y0102511D01*
X0022675Y0102451D01*
X0022621Y0102393D01*
X0022564Y0102338D01*
X0022504Y0102286D01*
X0022442Y0102238D01*
X0022377Y0102192D01*
X0022310Y0102149D01*
X0022241Y0102110D01*
X0022171Y0102075D01*
X0022098Y0102043D01*
X0022024Y0102015D01*
X0021949Y0101990D01*
X0021872Y0101970D01*
X0021795Y0101953D01*
X0021717Y0101940D01*
X0021638Y0101931D01*
X0021559Y0101926D01*
X0021480Y0101925D01*
X0021401Y0101928D01*
X0021322Y0101935D01*
X0021244Y0101946D01*
X0021166Y0101961D01*
X0021089Y0101980D01*
X0021013Y0102002D01*
X0020939Y0102028D01*
X0020865Y0102058D01*
X0020794Y0102092D01*
X0020724Y0102129D01*
X0020656Y0102170D01*
X0020590Y0102214D01*
X0020527Y0102262D01*
X0020466Y0102312D01*
X0020407Y0102366D01*
X0020352Y0102422D01*
X0020299Y0102481D01*
X0020249Y0102543D01*
X0020203Y0102607D01*
X0020160Y0102673D01*
X0020120Y0102741D01*
X0020083Y0102812D01*
X0020051Y0102884D01*
X0020021Y0102957D01*
X0019996Y0103032D01*
X0019974Y0103108D01*
X0019957Y0103185D01*
X0019943Y0103263D01*
X0019933Y0103342D01*
X0019927Y0103421D01*
X0019925Y0103500D01*
X0021500Y0102500D02*
X0021374Y0102502D01*
X0021249Y0102508D01*
X0021124Y0102518D01*
X0020999Y0102532D01*
X0020874Y0102549D01*
X0020750Y0102571D01*
X0020627Y0102596D01*
X0020505Y0102626D01*
X0020384Y0102659D01*
X0020264Y0102696D01*
X0020145Y0102736D01*
X0020028Y0102781D01*
X0019911Y0102829D01*
X0019797Y0102881D01*
X0019684Y0102936D01*
X0019573Y0102995D01*
X0019464Y0103057D01*
X0019357Y0103123D01*
X0019252Y0103192D01*
X0019149Y0103264D01*
X0019048Y0103339D01*
X0018950Y0103418D01*
X0018855Y0103500D01*
X0018762Y0103584D01*
X0018672Y0103672D01*
X0018584Y0103762D01*
X0018500Y0103855D01*
X0018418Y0103950D01*
X0018339Y0104048D01*
X0018264Y0104149D01*
X0018192Y0104252D01*
X0018123Y0104357D01*
X0018057Y0104464D01*
X0017995Y0104573D01*
X0017936Y0104684D01*
X0017881Y0104797D01*
X0017829Y0104911D01*
X0017781Y0105028D01*
X0017736Y0105145D01*
X0017696Y0105264D01*
X0017659Y0105384D01*
X0017626Y0105505D01*
X0017596Y0105627D01*
X0017571Y0105750D01*
X0017549Y0105874D01*
X0017532Y0105999D01*
X0017518Y0106124D01*
X0017508Y0106249D01*
X0017502Y0106374D01*
X0017500Y0106500D01*
X0017500Y0358500D01*
X0017502Y0358626D01*
X0017508Y0358751D01*
X0017518Y0358876D01*
X0017532Y0359001D01*
X0017549Y0359126D01*
X0017571Y0359250D01*
X0017596Y0359373D01*
X0017626Y0359495D01*
X0017659Y0359616D01*
X0017696Y0359736D01*
X0017736Y0359855D01*
X0017781Y0359972D01*
X0017829Y0360089D01*
X0017881Y0360203D01*
X0017936Y0360316D01*
X0017995Y0360427D01*
X0018057Y0360536D01*
X0018123Y0360643D01*
X0018192Y0360748D01*
X0018264Y0360851D01*
X0018339Y0360952D01*
X0018418Y0361050D01*
X0018500Y0361145D01*
X0018584Y0361238D01*
X0018672Y0361328D01*
X0018762Y0361416D01*
X0018855Y0361500D01*
X0018950Y0361582D01*
X0019048Y0361661D01*
X0019149Y0361736D01*
X0019252Y0361808D01*
X0019357Y0361877D01*
X0019464Y0361943D01*
X0019573Y0362005D01*
X0019684Y0362064D01*
X0019797Y0362119D01*
X0019911Y0362171D01*
X0020028Y0362219D01*
X0020145Y0362264D01*
X0020264Y0362304D01*
X0020384Y0362341D01*
X0020505Y0362374D01*
X0020627Y0362404D01*
X0020750Y0362429D01*
X0020874Y0362451D01*
X0020999Y0362468D01*
X0021124Y0362482D01*
X0021249Y0362492D01*
X0021374Y0362498D01*
X0021500Y0362500D01*
X0171000Y0362500D01*
X0174000Y0359500D01*
X0191000Y0359500D01*
X0194000Y0362500D01*
X0257500Y0362500D01*
X0257626Y0362498D01*
X0257751Y0362492D01*
X0257876Y0362482D01*
X0258001Y0362468D01*
X0258126Y0362451D01*
X0258250Y0362429D01*
X0258373Y0362404D01*
X0258495Y0362374D01*
X0258616Y0362341D01*
X0258736Y0362304D01*
X0258855Y0362264D01*
X0258972Y0362219D01*
X0259089Y0362171D01*
X0259203Y0362119D01*
X0259316Y0362064D01*
X0259427Y0362005D01*
X0259536Y0361943D01*
X0259643Y0361877D01*
X0259748Y0361808D01*
X0259851Y0361736D01*
X0259952Y0361661D01*
X0260050Y0361582D01*
X0260145Y0361500D01*
X0260238Y0361416D01*
X0260328Y0361328D01*
X0260416Y0361238D01*
X0260500Y0361145D01*
X0260582Y0361050D01*
X0260661Y0360952D01*
X0260736Y0360851D01*
X0260808Y0360748D01*
X0260877Y0360643D01*
X0260943Y0360536D01*
X0261005Y0360427D01*
X0261064Y0360316D01*
X0261119Y0360203D01*
X0261171Y0360089D01*
X0261219Y0359972D01*
X0261264Y0359855D01*
X0261304Y0359736D01*
X0261341Y0359616D01*
X0261374Y0359495D01*
X0261404Y0359373D01*
X0261429Y0359250D01*
X0261451Y0359126D01*
X0261468Y0359001D01*
X0261482Y0358876D01*
X0261492Y0358751D01*
X0261498Y0358626D01*
X0261500Y0358500D01*
X0261500Y0351500D01*
X0265500Y0351500D01*
X0265626Y0351502D01*
X0265751Y0351508D01*
X0265876Y0351518D01*
X0266001Y0351532D01*
X0266126Y0351549D01*
X0266250Y0351571D01*
X0266373Y0351596D01*
X0266495Y0351626D01*
X0266616Y0351659D01*
X0266736Y0351696D01*
X0266855Y0351736D01*
X0266972Y0351781D01*
X0267089Y0351829D01*
X0267203Y0351881D01*
X0267316Y0351936D01*
X0267427Y0351995D01*
X0267536Y0352057D01*
X0267643Y0352123D01*
X0267748Y0352192D01*
X0267851Y0352264D01*
X0267952Y0352339D01*
X0268050Y0352418D01*
X0268145Y0352500D01*
X0268238Y0352584D01*
X0268328Y0352672D01*
X0268416Y0352762D01*
X0268500Y0352855D01*
X0268582Y0352950D01*
X0268661Y0353048D01*
X0268736Y0353149D01*
X0268808Y0353252D01*
X0268877Y0353357D01*
X0268943Y0353464D01*
X0269005Y0353573D01*
X0269064Y0353684D01*
X0269119Y0353797D01*
X0269171Y0353911D01*
X0269219Y0354028D01*
X0269264Y0354145D01*
X0269304Y0354264D01*
X0269341Y0354384D01*
X0269374Y0354505D01*
X0269404Y0354627D01*
X0269429Y0354750D01*
X0269451Y0354874D01*
X0269468Y0354999D01*
X0269482Y0355124D01*
X0269492Y0355249D01*
X0269498Y0355374D01*
X0269500Y0355500D01*
X0269500Y0358500D01*
X0269502Y0358626D01*
X0269508Y0358751D01*
X0269518Y0358876D01*
X0269532Y0359001D01*
X0269549Y0359126D01*
X0269571Y0359250D01*
X0269596Y0359373D01*
X0269626Y0359495D01*
X0269659Y0359616D01*
X0269696Y0359736D01*
X0269736Y0359855D01*
X0269781Y0359972D01*
X0269829Y0360089D01*
X0269881Y0360203D01*
X0269936Y0360316D01*
X0269995Y0360427D01*
X0270057Y0360536D01*
X0270123Y0360643D01*
X0270192Y0360748D01*
X0270264Y0360851D01*
X0270339Y0360952D01*
X0270418Y0361050D01*
X0270500Y0361145D01*
X0270584Y0361238D01*
X0270672Y0361328D01*
X0270762Y0361416D01*
X0270855Y0361500D01*
X0270950Y0361582D01*
X0271048Y0361661D01*
X0271149Y0361736D01*
X0271252Y0361808D01*
X0271357Y0361877D01*
X0271464Y0361943D01*
X0271573Y0362005D01*
X0271684Y0362064D01*
X0271797Y0362119D01*
X0271911Y0362171D01*
X0272028Y0362219D01*
X0272145Y0362264D01*
X0272264Y0362304D01*
X0272384Y0362341D01*
X0272505Y0362374D01*
X0272627Y0362404D01*
X0272750Y0362429D01*
X0272874Y0362451D01*
X0272999Y0362468D01*
X0273124Y0362482D01*
X0273249Y0362492D01*
X0273374Y0362498D01*
X0273500Y0362500D01*
X0513500Y0362500D01*
X0513626Y0362498D01*
X0513751Y0362492D01*
X0513876Y0362482D01*
X0514001Y0362468D01*
X0514126Y0362451D01*
X0514250Y0362429D01*
X0514373Y0362404D01*
X0514495Y0362374D01*
X0514616Y0362341D01*
X0514736Y0362304D01*
X0514855Y0362264D01*
X0514972Y0362219D01*
X0515089Y0362171D01*
X0515203Y0362119D01*
X0515316Y0362064D01*
X0515427Y0362005D01*
X0515536Y0361943D01*
X0515643Y0361877D01*
X0515748Y0361808D01*
X0515851Y0361736D01*
X0515952Y0361661D01*
X0516050Y0361582D01*
X0516145Y0361500D01*
X0516238Y0361416D01*
X0516328Y0361328D01*
X0516416Y0361238D01*
X0516500Y0361145D01*
X0516582Y0361050D01*
X0516661Y0360952D01*
X0516736Y0360851D01*
X0516808Y0360748D01*
X0516877Y0360643D01*
X0516943Y0360536D01*
X0517005Y0360427D01*
X0517064Y0360316D01*
X0517119Y0360203D01*
X0517171Y0360089D01*
X0517219Y0359972D01*
X0517264Y0359855D01*
X0517304Y0359736D01*
X0517341Y0359616D01*
X0517374Y0359495D01*
X0517404Y0359373D01*
X0517429Y0359250D01*
X0517451Y0359126D01*
X0517468Y0359001D01*
X0517482Y0358876D01*
X0517492Y0358751D01*
X0517498Y0358626D01*
X0517500Y0358500D01*
X0517500Y0016500D01*
X0517498Y0016374D01*
X0517492Y0016249D01*
X0517482Y0016124D01*
X0517468Y0015999D01*
X0517451Y0015874D01*
X0517429Y0015750D01*
X0517404Y0015627D01*
X0517374Y0015505D01*
X0517341Y0015384D01*
X0517304Y0015264D01*
X0517264Y0015145D01*
X0517219Y0015028D01*
X0517171Y0014911D01*
X0517119Y0014797D01*
X0517064Y0014684D01*
X0517005Y0014573D01*
X0516943Y0014464D01*
X0516877Y0014357D01*
X0516808Y0014252D01*
X0516736Y0014149D01*
X0516661Y0014048D01*
X0516582Y0013950D01*
X0516500Y0013855D01*
X0516416Y0013762D01*
X0516328Y0013672D01*
X0516238Y0013584D01*
X0516145Y0013500D01*
X0516050Y0013418D01*
X0515952Y0013339D01*
X0515851Y0013264D01*
X0515748Y0013192D01*
X0515643Y0013123D01*
X0515536Y0013057D01*
X0515427Y0012995D01*
X0515316Y0012936D01*
X0515203Y0012881D01*
X0515089Y0012829D01*
X0514972Y0012781D01*
X0514855Y0012736D01*
X0514736Y0012696D01*
X0514616Y0012659D01*
X0514495Y0012626D01*
X0514373Y0012596D01*
X0514250Y0012571D01*
X0514126Y0012549D01*
X0514001Y0012532D01*
X0513876Y0012518D01*
X0513751Y0012508D01*
X0513626Y0012502D01*
X0513500Y0012500D01*
X0273500Y0012500D01*
X0273374Y0012502D01*
X0273249Y0012508D01*
X0273124Y0012518D01*
X0272999Y0012532D01*
X0272874Y0012549D01*
X0272750Y0012571D01*
X0272627Y0012596D01*
X0272505Y0012626D01*
X0272384Y0012659D01*
X0272264Y0012696D01*
X0272145Y0012736D01*
X0272028Y0012781D01*
X0271911Y0012829D01*
X0271797Y0012881D01*
X0271684Y0012936D01*
X0271573Y0012995D01*
X0271464Y0013057D01*
X0271357Y0013123D01*
X0271252Y0013192D01*
X0271149Y0013264D01*
X0271048Y0013339D01*
X0270950Y0013418D01*
X0270855Y0013500D01*
X0270762Y0013584D01*
X0270672Y0013672D01*
X0270584Y0013762D01*
X0270500Y0013855D01*
X0270418Y0013950D01*
X0270339Y0014048D01*
X0270264Y0014149D01*
X0270192Y0014252D01*
X0270123Y0014357D01*
X0270057Y0014464D01*
X0269995Y0014573D01*
X0269936Y0014684D01*
X0269881Y0014797D01*
X0269829Y0014911D01*
X0269781Y0015028D01*
X0269736Y0015145D01*
X0269696Y0015264D01*
X0269659Y0015384D01*
X0269626Y0015505D01*
X0269596Y0015627D01*
X0269571Y0015750D01*
X0269549Y0015874D01*
X0269532Y0015999D01*
X0269518Y0016124D01*
X0269508Y0016249D01*
X0269502Y0016374D01*
X0269500Y0016500D01*
X0269500Y0019500D01*
X0269498Y0019626D01*
X0269492Y0019751D01*
X0269482Y0019876D01*
X0269468Y0020001D01*
X0269451Y0020126D01*
X0269429Y0020250D01*
X0269404Y0020373D01*
X0269374Y0020495D01*
X0269341Y0020616D01*
X0269304Y0020736D01*
X0269264Y0020855D01*
X0269219Y0020972D01*
X0269171Y0021089D01*
X0269119Y0021203D01*
X0269064Y0021316D01*
X0269005Y0021427D01*
X0268943Y0021536D01*
X0268877Y0021643D01*
X0268808Y0021748D01*
X0268736Y0021851D01*
X0268661Y0021952D01*
X0268582Y0022050D01*
X0268500Y0022145D01*
X0268416Y0022238D01*
X0268328Y0022328D01*
X0268238Y0022416D01*
X0268145Y0022500D01*
X0268050Y0022582D01*
X0267952Y0022661D01*
X0267851Y0022736D01*
X0267748Y0022808D01*
X0267643Y0022877D01*
X0267536Y0022943D01*
X0267427Y0023005D01*
X0267316Y0023064D01*
X0267203Y0023119D01*
X0267089Y0023171D01*
X0266972Y0023219D01*
X0266855Y0023264D01*
X0266736Y0023304D01*
X0266616Y0023341D01*
X0266495Y0023374D01*
X0266373Y0023404D01*
X0266250Y0023429D01*
X0266126Y0023451D01*
X0266001Y0023468D01*
X0265876Y0023482D01*
X0265751Y0023492D01*
X0265626Y0023498D01*
X0265500Y0023500D01*
X0261500Y0023500D01*
X0261500Y0016500D01*
X0261498Y0016374D01*
X0261492Y0016249D01*
X0261482Y0016124D01*
X0261468Y0015999D01*
X0261451Y0015874D01*
X0261429Y0015750D01*
X0261404Y0015627D01*
X0261374Y0015505D01*
X0261341Y0015384D01*
X0261304Y0015264D01*
X0261264Y0015145D01*
X0261219Y0015028D01*
X0261171Y0014911D01*
X0261119Y0014797D01*
X0261064Y0014684D01*
X0261005Y0014573D01*
X0260943Y0014464D01*
X0260877Y0014357D01*
X0260808Y0014252D01*
X0260736Y0014149D01*
X0260661Y0014048D01*
X0260582Y0013950D01*
X0260500Y0013855D01*
X0260416Y0013762D01*
X0260328Y0013672D01*
X0260238Y0013584D01*
X0260145Y0013500D01*
X0260050Y0013418D01*
X0259952Y0013339D01*
X0259851Y0013264D01*
X0259748Y0013192D01*
X0259643Y0013123D01*
X0259536Y0013057D01*
X0259427Y0012995D01*
X0259316Y0012936D01*
X0259203Y0012881D01*
X0259089Y0012829D01*
X0258972Y0012781D01*
X0258855Y0012736D01*
X0258736Y0012696D01*
X0258616Y0012659D01*
X0258495Y0012626D01*
X0258373Y0012596D01*
X0258250Y0012571D01*
X0258126Y0012549D01*
X0258001Y0012532D01*
X0257876Y0012518D01*
X0257751Y0012508D01*
X0257626Y0012502D01*
X0257500Y0012500D01*
X0021500Y0012500D01*
X0021374Y0012502D01*
X0021249Y0012508D01*
X0021124Y0012518D01*
X0020999Y0012532D01*
X0020874Y0012549D01*
X0020750Y0012571D01*
X0020627Y0012596D01*
X0020505Y0012626D01*
X0020384Y0012659D01*
X0020264Y0012696D01*
X0020145Y0012736D01*
X0020028Y0012781D01*
X0019911Y0012829D01*
X0019797Y0012881D01*
X0019684Y0012936D01*
X0019573Y0012995D01*
X0019464Y0013057D01*
X0019357Y0013123D01*
X0019252Y0013192D01*
X0019149Y0013264D01*
X0019048Y0013339D01*
X0018950Y0013418D01*
X0018855Y0013500D01*
X0018762Y0013584D01*
X0018672Y0013672D01*
X0018584Y0013762D01*
X0018500Y0013855D01*
X0018418Y0013950D01*
X0018339Y0014048D01*
X0018264Y0014149D01*
X0018192Y0014252D01*
X0018123Y0014357D01*
X0018057Y0014464D01*
X0017995Y0014573D01*
X0017936Y0014684D01*
X0017881Y0014797D01*
X0017829Y0014911D01*
X0017781Y0015028D01*
X0017736Y0015145D01*
X0017696Y0015264D01*
X0017659Y0015384D01*
X0017626Y0015505D01*
X0017596Y0015627D01*
X0017571Y0015750D01*
X0017549Y0015874D01*
X0017532Y0015999D01*
X0017518Y0016124D01*
X0017508Y0016249D01*
X0017502Y0016374D01*
X0017500Y0016500D01*
X0048500Y0080500D02*
X0041500Y0087500D01*
X0041500Y0103500D01*
X0043000Y0103500D01*
X0056000Y0090500D01*
X0179500Y0090500D01*
X0191500Y0102500D01*
X0196500Y0102500D01*
X0196500Y0093500D01*
X0183500Y0080500D01*
X0048500Y0080500D01*
X0040925Y0103500D02*
X0040927Y0103579D01*
X0040933Y0103658D01*
X0040943Y0103737D01*
X0040957Y0103815D01*
X0040974Y0103892D01*
X0040996Y0103968D01*
X0041021Y0104043D01*
X0041051Y0104116D01*
X0041083Y0104188D01*
X0041120Y0104259D01*
X0041160Y0104327D01*
X0041203Y0104393D01*
X0041249Y0104457D01*
X0041299Y0104519D01*
X0041352Y0104578D01*
X0041407Y0104634D01*
X0041466Y0104688D01*
X0041527Y0104738D01*
X0041590Y0104786D01*
X0041656Y0104830D01*
X0041724Y0104871D01*
X0041794Y0104908D01*
X0041865Y0104942D01*
X0041939Y0104972D01*
X0042013Y0104998D01*
X0042089Y0105020D01*
X0042166Y0105039D01*
X0042244Y0105054D01*
X0042322Y0105065D01*
X0042401Y0105072D01*
X0042480Y0105075D01*
X0042559Y0105074D01*
X0042638Y0105069D01*
X0042717Y0105060D01*
X0042795Y0105047D01*
X0042872Y0105030D01*
X0042949Y0105010D01*
X0043024Y0104985D01*
X0043098Y0104957D01*
X0043171Y0104925D01*
X0043241Y0104890D01*
X0043310Y0104851D01*
X0043377Y0104808D01*
X0043442Y0104762D01*
X0043504Y0104714D01*
X0043564Y0104662D01*
X0043621Y0104607D01*
X0043675Y0104549D01*
X0043726Y0104489D01*
X0043774Y0104426D01*
X0043819Y0104361D01*
X0043861Y0104293D01*
X0043899Y0104224D01*
X0043933Y0104153D01*
X0043964Y0104080D01*
X0043992Y0104005D01*
X0044015Y0103930D01*
X0044035Y0103853D01*
X0044051Y0103776D01*
X0044063Y0103697D01*
X0044071Y0103619D01*
X0044075Y0103540D01*
X0044075Y0103460D01*
X0044071Y0103381D01*
X0044063Y0103303D01*
X0044051Y0103224D01*
X0044035Y0103147D01*
X0044015Y0103070D01*
X0043992Y0102995D01*
X0043964Y0102920D01*
X0043933Y0102847D01*
X0043899Y0102776D01*
X0043861Y0102707D01*
X0043819Y0102639D01*
X0043774Y0102574D01*
X0043726Y0102511D01*
X0043675Y0102451D01*
X0043621Y0102393D01*
X0043564Y0102338D01*
X0043504Y0102286D01*
X0043442Y0102238D01*
X0043377Y0102192D01*
X0043310Y0102149D01*
X0043241Y0102110D01*
X0043171Y0102075D01*
X0043098Y0102043D01*
X0043024Y0102015D01*
X0042949Y0101990D01*
X0042872Y0101970D01*
X0042795Y0101953D01*
X0042717Y0101940D01*
X0042638Y0101931D01*
X0042559Y0101926D01*
X0042480Y0101925D01*
X0042401Y0101928D01*
X0042322Y0101935D01*
X0042244Y0101946D01*
X0042166Y0101961D01*
X0042089Y0101980D01*
X0042013Y0102002D01*
X0041939Y0102028D01*
X0041865Y0102058D01*
X0041794Y0102092D01*
X0041724Y0102129D01*
X0041656Y0102170D01*
X0041590Y0102214D01*
X0041527Y0102262D01*
X0041466Y0102312D01*
X0041407Y0102366D01*
X0041352Y0102422D01*
X0041299Y0102481D01*
X0041249Y0102543D01*
X0041203Y0102607D01*
X0041160Y0102673D01*
X0041120Y0102741D01*
X0041083Y0102812D01*
X0041051Y0102884D01*
X0041021Y0102957D01*
X0040996Y0103032D01*
X0040974Y0103108D01*
X0040957Y0103185D01*
X0040943Y0103263D01*
X0040933Y0103342D01*
X0040927Y0103421D01*
X0040925Y0103500D01*
X0033925Y0103500D02*
X0033927Y0103579D01*
X0033933Y0103658D01*
X0033943Y0103737D01*
X0033957Y0103815D01*
X0033974Y0103892D01*
X0033996Y0103968D01*
X0034021Y0104043D01*
X0034051Y0104116D01*
X0034083Y0104188D01*
X0034120Y0104259D01*
X0034160Y0104327D01*
X0034203Y0104393D01*
X0034249Y0104457D01*
X0034299Y0104519D01*
X0034352Y0104578D01*
X0034407Y0104634D01*
X0034466Y0104688D01*
X0034527Y0104738D01*
X0034590Y0104786D01*
X0034656Y0104830D01*
X0034724Y0104871D01*
X0034794Y0104908D01*
X0034865Y0104942D01*
X0034939Y0104972D01*
X0035013Y0104998D01*
X0035089Y0105020D01*
X0035166Y0105039D01*
X0035244Y0105054D01*
X0035322Y0105065D01*
X0035401Y0105072D01*
X0035480Y0105075D01*
X0035559Y0105074D01*
X0035638Y0105069D01*
X0035717Y0105060D01*
X0035795Y0105047D01*
X0035872Y0105030D01*
X0035949Y0105010D01*
X0036024Y0104985D01*
X0036098Y0104957D01*
X0036171Y0104925D01*
X0036241Y0104890D01*
X0036310Y0104851D01*
X0036377Y0104808D01*
X0036442Y0104762D01*
X0036504Y0104714D01*
X0036564Y0104662D01*
X0036621Y0104607D01*
X0036675Y0104549D01*
X0036726Y0104489D01*
X0036774Y0104426D01*
X0036819Y0104361D01*
X0036861Y0104293D01*
X0036899Y0104224D01*
X0036933Y0104153D01*
X0036964Y0104080D01*
X0036992Y0104005D01*
X0037015Y0103930D01*
X0037035Y0103853D01*
X0037051Y0103776D01*
X0037063Y0103697D01*
X0037071Y0103619D01*
X0037075Y0103540D01*
X0037075Y0103460D01*
X0037071Y0103381D01*
X0037063Y0103303D01*
X0037051Y0103224D01*
X0037035Y0103147D01*
X0037015Y0103070D01*
X0036992Y0102995D01*
X0036964Y0102920D01*
X0036933Y0102847D01*
X0036899Y0102776D01*
X0036861Y0102707D01*
X0036819Y0102639D01*
X0036774Y0102574D01*
X0036726Y0102511D01*
X0036675Y0102451D01*
X0036621Y0102393D01*
X0036564Y0102338D01*
X0036504Y0102286D01*
X0036442Y0102238D01*
X0036377Y0102192D01*
X0036310Y0102149D01*
X0036241Y0102110D01*
X0036171Y0102075D01*
X0036098Y0102043D01*
X0036024Y0102015D01*
X0035949Y0101990D01*
X0035872Y0101970D01*
X0035795Y0101953D01*
X0035717Y0101940D01*
X0035638Y0101931D01*
X0035559Y0101926D01*
X0035480Y0101925D01*
X0035401Y0101928D01*
X0035322Y0101935D01*
X0035244Y0101946D01*
X0035166Y0101961D01*
X0035089Y0101980D01*
X0035013Y0102002D01*
X0034939Y0102028D01*
X0034865Y0102058D01*
X0034794Y0102092D01*
X0034724Y0102129D01*
X0034656Y0102170D01*
X0034590Y0102214D01*
X0034527Y0102262D01*
X0034466Y0102312D01*
X0034407Y0102366D01*
X0034352Y0102422D01*
X0034299Y0102481D01*
X0034249Y0102543D01*
X0034203Y0102607D01*
X0034160Y0102673D01*
X0034120Y0102741D01*
X0034083Y0102812D01*
X0034051Y0102884D01*
X0034021Y0102957D01*
X0033996Y0103032D01*
X0033974Y0103108D01*
X0033957Y0103185D01*
X0033943Y0103263D01*
X0033933Y0103342D01*
X0033927Y0103421D01*
X0033925Y0103500D01*
X0026925Y0103500D02*
X0026927Y0103579D01*
X0026933Y0103658D01*
X0026943Y0103737D01*
X0026957Y0103815D01*
X0026974Y0103892D01*
X0026996Y0103968D01*
X0027021Y0104043D01*
X0027051Y0104116D01*
X0027083Y0104188D01*
X0027120Y0104259D01*
X0027160Y0104327D01*
X0027203Y0104393D01*
X0027249Y0104457D01*
X0027299Y0104519D01*
X0027352Y0104578D01*
X0027407Y0104634D01*
X0027466Y0104688D01*
X0027527Y0104738D01*
X0027590Y0104786D01*
X0027656Y0104830D01*
X0027724Y0104871D01*
X0027794Y0104908D01*
X0027865Y0104942D01*
X0027939Y0104972D01*
X0028013Y0104998D01*
X0028089Y0105020D01*
X0028166Y0105039D01*
X0028244Y0105054D01*
X0028322Y0105065D01*
X0028401Y0105072D01*
X0028480Y0105075D01*
X0028559Y0105074D01*
X0028638Y0105069D01*
X0028717Y0105060D01*
X0028795Y0105047D01*
X0028872Y0105030D01*
X0028949Y0105010D01*
X0029024Y0104985D01*
X0029098Y0104957D01*
X0029171Y0104925D01*
X0029241Y0104890D01*
X0029310Y0104851D01*
X0029377Y0104808D01*
X0029442Y0104762D01*
X0029504Y0104714D01*
X0029564Y0104662D01*
X0029621Y0104607D01*
X0029675Y0104549D01*
X0029726Y0104489D01*
X0029774Y0104426D01*
X0029819Y0104361D01*
X0029861Y0104293D01*
X0029899Y0104224D01*
X0029933Y0104153D01*
X0029964Y0104080D01*
X0029992Y0104005D01*
X0030015Y0103930D01*
X0030035Y0103853D01*
X0030051Y0103776D01*
X0030063Y0103697D01*
X0030071Y0103619D01*
X0030075Y0103540D01*
X0030075Y0103460D01*
X0030071Y0103381D01*
X0030063Y0103303D01*
X0030051Y0103224D01*
X0030035Y0103147D01*
X0030015Y0103070D01*
X0029992Y0102995D01*
X0029964Y0102920D01*
X0029933Y0102847D01*
X0029899Y0102776D01*
X0029861Y0102707D01*
X0029819Y0102639D01*
X0029774Y0102574D01*
X0029726Y0102511D01*
X0029675Y0102451D01*
X0029621Y0102393D01*
X0029564Y0102338D01*
X0029504Y0102286D01*
X0029442Y0102238D01*
X0029377Y0102192D01*
X0029310Y0102149D01*
X0029241Y0102110D01*
X0029171Y0102075D01*
X0029098Y0102043D01*
X0029024Y0102015D01*
X0028949Y0101990D01*
X0028872Y0101970D01*
X0028795Y0101953D01*
X0028717Y0101940D01*
X0028638Y0101931D01*
X0028559Y0101926D01*
X0028480Y0101925D01*
X0028401Y0101928D01*
X0028322Y0101935D01*
X0028244Y0101946D01*
X0028166Y0101961D01*
X0028089Y0101980D01*
X0028013Y0102002D01*
X0027939Y0102028D01*
X0027865Y0102058D01*
X0027794Y0102092D01*
X0027724Y0102129D01*
X0027656Y0102170D01*
X0027590Y0102214D01*
X0027527Y0102262D01*
X0027466Y0102312D01*
X0027407Y0102366D01*
X0027352Y0102422D01*
X0027299Y0102481D01*
X0027249Y0102543D01*
X0027203Y0102607D01*
X0027160Y0102673D01*
X0027120Y0102741D01*
X0027083Y0102812D01*
X0027051Y0102884D01*
X0027021Y0102957D01*
X0026996Y0103032D01*
X0026974Y0103108D01*
X0026957Y0103185D01*
X0026943Y0103263D01*
X0026933Y0103342D01*
X0026927Y0103421D01*
X0026925Y0103500D01*
X0056594Y0102500D02*
X0056596Y0102653D01*
X0056602Y0102807D01*
X0056612Y0102960D01*
X0056626Y0103112D01*
X0056644Y0103265D01*
X0056666Y0103416D01*
X0056691Y0103567D01*
X0056721Y0103718D01*
X0056755Y0103868D01*
X0056792Y0104016D01*
X0056833Y0104164D01*
X0056878Y0104310D01*
X0056927Y0104456D01*
X0056980Y0104600D01*
X0057036Y0104742D01*
X0057096Y0104883D01*
X0057160Y0105023D01*
X0057227Y0105161D01*
X0057298Y0105297D01*
X0057373Y0105431D01*
X0057450Y0105563D01*
X0057532Y0105693D01*
X0057616Y0105821D01*
X0057704Y0105947D01*
X0057795Y0106070D01*
X0057889Y0106191D01*
X0057987Y0106309D01*
X0058087Y0106425D01*
X0058191Y0106538D01*
X0058297Y0106649D01*
X0058406Y0106757D01*
X0058518Y0106862D01*
X0058632Y0106963D01*
X0058750Y0107062D01*
X0058869Y0107158D01*
X0058991Y0107251D01*
X0059116Y0107340D01*
X0059243Y0107427D01*
X0059372Y0107509D01*
X0059503Y0107589D01*
X0059636Y0107665D01*
X0059771Y0107738D01*
X0059908Y0107807D01*
X0060047Y0107872D01*
X0060187Y0107934D01*
X0060329Y0107992D01*
X0060472Y0108047D01*
X0060617Y0108098D01*
X0060763Y0108145D01*
X0060910Y0108188D01*
X0061058Y0108227D01*
X0061207Y0108263D01*
X0061357Y0108294D01*
X0061508Y0108322D01*
X0061659Y0108346D01*
X0061812Y0108366D01*
X0061964Y0108382D01*
X0062117Y0108394D01*
X0062270Y0108402D01*
X0062423Y0108406D01*
X0062577Y0108406D01*
X0062730Y0108402D01*
X0062883Y0108394D01*
X0063036Y0108382D01*
X0063188Y0108366D01*
X0063341Y0108346D01*
X0063492Y0108322D01*
X0063643Y0108294D01*
X0063793Y0108263D01*
X0063942Y0108227D01*
X0064090Y0108188D01*
X0064237Y0108145D01*
X0064383Y0108098D01*
X0064528Y0108047D01*
X0064671Y0107992D01*
X0064813Y0107934D01*
X0064953Y0107872D01*
X0065092Y0107807D01*
X0065229Y0107738D01*
X0065364Y0107665D01*
X0065497Y0107589D01*
X0065628Y0107509D01*
X0065757Y0107427D01*
X0065884Y0107340D01*
X0066009Y0107251D01*
X0066131Y0107158D01*
X0066250Y0107062D01*
X0066368Y0106963D01*
X0066482Y0106862D01*
X0066594Y0106757D01*
X0066703Y0106649D01*
X0066809Y0106538D01*
X0066913Y0106425D01*
X0067013Y0106309D01*
X0067111Y0106191D01*
X0067205Y0106070D01*
X0067296Y0105947D01*
X0067384Y0105821D01*
X0067468Y0105693D01*
X0067550Y0105563D01*
X0067627Y0105431D01*
X0067702Y0105297D01*
X0067773Y0105161D01*
X0067840Y0105023D01*
X0067904Y0104883D01*
X0067964Y0104742D01*
X0068020Y0104600D01*
X0068073Y0104456D01*
X0068122Y0104310D01*
X0068167Y0104164D01*
X0068208Y0104016D01*
X0068245Y0103868D01*
X0068279Y0103718D01*
X0068309Y0103567D01*
X0068334Y0103416D01*
X0068356Y0103265D01*
X0068374Y0103112D01*
X0068388Y0102960D01*
X0068398Y0102807D01*
X0068404Y0102653D01*
X0068406Y0102500D01*
X0068404Y0102347D01*
X0068398Y0102193D01*
X0068388Y0102040D01*
X0068374Y0101888D01*
X0068356Y0101735D01*
X0068334Y0101584D01*
X0068309Y0101433D01*
X0068279Y0101282D01*
X0068245Y0101132D01*
X0068208Y0100984D01*
X0068167Y0100836D01*
X0068122Y0100690D01*
X0068073Y0100544D01*
X0068020Y0100400D01*
X0067964Y0100258D01*
X0067904Y0100117D01*
X0067840Y0099977D01*
X0067773Y0099839D01*
X0067702Y0099703D01*
X0067627Y0099569D01*
X0067550Y0099437D01*
X0067468Y0099307D01*
X0067384Y0099179D01*
X0067296Y0099053D01*
X0067205Y0098930D01*
X0067111Y0098809D01*
X0067013Y0098691D01*
X0066913Y0098575D01*
X0066809Y0098462D01*
X0066703Y0098351D01*
X0066594Y0098243D01*
X0066482Y0098138D01*
X0066368Y0098037D01*
X0066250Y0097938D01*
X0066131Y0097842D01*
X0066009Y0097749D01*
X0065884Y0097660D01*
X0065757Y0097573D01*
X0065628Y0097491D01*
X0065497Y0097411D01*
X0065364Y0097335D01*
X0065229Y0097262D01*
X0065092Y0097193D01*
X0064953Y0097128D01*
X0064813Y0097066D01*
X0064671Y0097008D01*
X0064528Y0096953D01*
X0064383Y0096902D01*
X0064237Y0096855D01*
X0064090Y0096812D01*
X0063942Y0096773D01*
X0063793Y0096737D01*
X0063643Y0096706D01*
X0063492Y0096678D01*
X0063341Y0096654D01*
X0063188Y0096634D01*
X0063036Y0096618D01*
X0062883Y0096606D01*
X0062730Y0096598D01*
X0062577Y0096594D01*
X0062423Y0096594D01*
X0062270Y0096598D01*
X0062117Y0096606D01*
X0061964Y0096618D01*
X0061812Y0096634D01*
X0061659Y0096654D01*
X0061508Y0096678D01*
X0061357Y0096706D01*
X0061207Y0096737D01*
X0061058Y0096773D01*
X0060910Y0096812D01*
X0060763Y0096855D01*
X0060617Y0096902D01*
X0060472Y0096953D01*
X0060329Y0097008D01*
X0060187Y0097066D01*
X0060047Y0097128D01*
X0059908Y0097193D01*
X0059771Y0097262D01*
X0059636Y0097335D01*
X0059503Y0097411D01*
X0059372Y0097491D01*
X0059243Y0097573D01*
X0059116Y0097660D01*
X0058991Y0097749D01*
X0058869Y0097842D01*
X0058750Y0097938D01*
X0058632Y0098037D01*
X0058518Y0098138D01*
X0058406Y0098243D01*
X0058297Y0098351D01*
X0058191Y0098462D01*
X0058087Y0098575D01*
X0057987Y0098691D01*
X0057889Y0098809D01*
X0057795Y0098930D01*
X0057704Y0099053D01*
X0057616Y0099179D01*
X0057532Y0099307D01*
X0057450Y0099437D01*
X0057373Y0099569D01*
X0057298Y0099703D01*
X0057227Y0099839D01*
X0057160Y0099977D01*
X0057096Y0100117D01*
X0057036Y0100258D01*
X0056980Y0100400D01*
X0056927Y0100544D01*
X0056878Y0100690D01*
X0056833Y0100836D01*
X0056792Y0100984D01*
X0056755Y0101132D01*
X0056721Y0101282D01*
X0056691Y0101433D01*
X0056666Y0101584D01*
X0056644Y0101735D01*
X0056626Y0101888D01*
X0056612Y0102040D01*
X0056602Y0102193D01*
X0056596Y0102347D01*
X0056594Y0102500D01*
X0166594Y0102500D02*
X0166596Y0102653D01*
X0166602Y0102807D01*
X0166612Y0102960D01*
X0166626Y0103112D01*
X0166644Y0103265D01*
X0166666Y0103416D01*
X0166691Y0103567D01*
X0166721Y0103718D01*
X0166755Y0103868D01*
X0166792Y0104016D01*
X0166833Y0104164D01*
X0166878Y0104310D01*
X0166927Y0104456D01*
X0166980Y0104600D01*
X0167036Y0104742D01*
X0167096Y0104883D01*
X0167160Y0105023D01*
X0167227Y0105161D01*
X0167298Y0105297D01*
X0167373Y0105431D01*
X0167450Y0105563D01*
X0167532Y0105693D01*
X0167616Y0105821D01*
X0167704Y0105947D01*
X0167795Y0106070D01*
X0167889Y0106191D01*
X0167987Y0106309D01*
X0168087Y0106425D01*
X0168191Y0106538D01*
X0168297Y0106649D01*
X0168406Y0106757D01*
X0168518Y0106862D01*
X0168632Y0106963D01*
X0168750Y0107062D01*
X0168869Y0107158D01*
X0168991Y0107251D01*
X0169116Y0107340D01*
X0169243Y0107427D01*
X0169372Y0107509D01*
X0169503Y0107589D01*
X0169636Y0107665D01*
X0169771Y0107738D01*
X0169908Y0107807D01*
X0170047Y0107872D01*
X0170187Y0107934D01*
X0170329Y0107992D01*
X0170472Y0108047D01*
X0170617Y0108098D01*
X0170763Y0108145D01*
X0170910Y0108188D01*
X0171058Y0108227D01*
X0171207Y0108263D01*
X0171357Y0108294D01*
X0171508Y0108322D01*
X0171659Y0108346D01*
X0171812Y0108366D01*
X0171964Y0108382D01*
X0172117Y0108394D01*
X0172270Y0108402D01*
X0172423Y0108406D01*
X0172577Y0108406D01*
X0172730Y0108402D01*
X0172883Y0108394D01*
X0173036Y0108382D01*
X0173188Y0108366D01*
X0173341Y0108346D01*
X0173492Y0108322D01*
X0173643Y0108294D01*
X0173793Y0108263D01*
X0173942Y0108227D01*
X0174090Y0108188D01*
X0174237Y0108145D01*
X0174383Y0108098D01*
X0174528Y0108047D01*
X0174671Y0107992D01*
X0174813Y0107934D01*
X0174953Y0107872D01*
X0175092Y0107807D01*
X0175229Y0107738D01*
X0175364Y0107665D01*
X0175497Y0107589D01*
X0175628Y0107509D01*
X0175757Y0107427D01*
X0175884Y0107340D01*
X0176009Y0107251D01*
X0176131Y0107158D01*
X0176250Y0107062D01*
X0176368Y0106963D01*
X0176482Y0106862D01*
X0176594Y0106757D01*
X0176703Y0106649D01*
X0176809Y0106538D01*
X0176913Y0106425D01*
X0177013Y0106309D01*
X0177111Y0106191D01*
X0177205Y0106070D01*
X0177296Y0105947D01*
X0177384Y0105821D01*
X0177468Y0105693D01*
X0177550Y0105563D01*
X0177627Y0105431D01*
X0177702Y0105297D01*
X0177773Y0105161D01*
X0177840Y0105023D01*
X0177904Y0104883D01*
X0177964Y0104742D01*
X0178020Y0104600D01*
X0178073Y0104456D01*
X0178122Y0104310D01*
X0178167Y0104164D01*
X0178208Y0104016D01*
X0178245Y0103868D01*
X0178279Y0103718D01*
X0178309Y0103567D01*
X0178334Y0103416D01*
X0178356Y0103265D01*
X0178374Y0103112D01*
X0178388Y0102960D01*
X0178398Y0102807D01*
X0178404Y0102653D01*
X0178406Y0102500D01*
X0178404Y0102347D01*
X0178398Y0102193D01*
X0178388Y0102040D01*
X0178374Y0101888D01*
X0178356Y0101735D01*
X0178334Y0101584D01*
X0178309Y0101433D01*
X0178279Y0101282D01*
X0178245Y0101132D01*
X0178208Y0100984D01*
X0178167Y0100836D01*
X0178122Y0100690D01*
X0178073Y0100544D01*
X0178020Y0100400D01*
X0177964Y0100258D01*
X0177904Y0100117D01*
X0177840Y0099977D01*
X0177773Y0099839D01*
X0177702Y0099703D01*
X0177627Y0099569D01*
X0177550Y0099437D01*
X0177468Y0099307D01*
X0177384Y0099179D01*
X0177296Y0099053D01*
X0177205Y0098930D01*
X0177111Y0098809D01*
X0177013Y0098691D01*
X0176913Y0098575D01*
X0176809Y0098462D01*
X0176703Y0098351D01*
X0176594Y0098243D01*
X0176482Y0098138D01*
X0176368Y0098037D01*
X0176250Y0097938D01*
X0176131Y0097842D01*
X0176009Y0097749D01*
X0175884Y0097660D01*
X0175757Y0097573D01*
X0175628Y0097491D01*
X0175497Y0097411D01*
X0175364Y0097335D01*
X0175229Y0097262D01*
X0175092Y0097193D01*
X0174953Y0097128D01*
X0174813Y0097066D01*
X0174671Y0097008D01*
X0174528Y0096953D01*
X0174383Y0096902D01*
X0174237Y0096855D01*
X0174090Y0096812D01*
X0173942Y0096773D01*
X0173793Y0096737D01*
X0173643Y0096706D01*
X0173492Y0096678D01*
X0173341Y0096654D01*
X0173188Y0096634D01*
X0173036Y0096618D01*
X0172883Y0096606D01*
X0172730Y0096598D01*
X0172577Y0096594D01*
X0172423Y0096594D01*
X0172270Y0096598D01*
X0172117Y0096606D01*
X0171964Y0096618D01*
X0171812Y0096634D01*
X0171659Y0096654D01*
X0171508Y0096678D01*
X0171357Y0096706D01*
X0171207Y0096737D01*
X0171058Y0096773D01*
X0170910Y0096812D01*
X0170763Y0096855D01*
X0170617Y0096902D01*
X0170472Y0096953D01*
X0170329Y0097008D01*
X0170187Y0097066D01*
X0170047Y0097128D01*
X0169908Y0097193D01*
X0169771Y0097262D01*
X0169636Y0097335D01*
X0169503Y0097411D01*
X0169372Y0097491D01*
X0169243Y0097573D01*
X0169116Y0097660D01*
X0168991Y0097749D01*
X0168869Y0097842D01*
X0168750Y0097938D01*
X0168632Y0098037D01*
X0168518Y0098138D01*
X0168406Y0098243D01*
X0168297Y0098351D01*
X0168191Y0098462D01*
X0168087Y0098575D01*
X0167987Y0098691D01*
X0167889Y0098809D01*
X0167795Y0098930D01*
X0167704Y0099053D01*
X0167616Y0099179D01*
X0167532Y0099307D01*
X0167450Y0099437D01*
X0167373Y0099569D01*
X0167298Y0099703D01*
X0167227Y0099839D01*
X0167160Y0099977D01*
X0167096Y0100117D01*
X0167036Y0100258D01*
X0166980Y0100400D01*
X0166927Y0100544D01*
X0166878Y0100690D01*
X0166833Y0100836D01*
X0166792Y0100984D01*
X0166755Y0101132D01*
X0166721Y0101282D01*
X0166691Y0101433D01*
X0166666Y0101584D01*
X0166644Y0101735D01*
X0166626Y0101888D01*
X0166612Y0102040D01*
X0166602Y0102193D01*
X0166596Y0102347D01*
X0166594Y0102500D01*
X0193925Y0103500D02*
X0193927Y0103579D01*
X0193933Y0103658D01*
X0193943Y0103737D01*
X0193957Y0103815D01*
X0193974Y0103892D01*
X0193996Y0103968D01*
X0194021Y0104043D01*
X0194051Y0104116D01*
X0194083Y0104188D01*
X0194120Y0104259D01*
X0194160Y0104327D01*
X0194203Y0104393D01*
X0194249Y0104457D01*
X0194299Y0104519D01*
X0194352Y0104578D01*
X0194407Y0104634D01*
X0194466Y0104688D01*
X0194527Y0104738D01*
X0194590Y0104786D01*
X0194656Y0104830D01*
X0194724Y0104871D01*
X0194794Y0104908D01*
X0194865Y0104942D01*
X0194939Y0104972D01*
X0195013Y0104998D01*
X0195089Y0105020D01*
X0195166Y0105039D01*
X0195244Y0105054D01*
X0195322Y0105065D01*
X0195401Y0105072D01*
X0195480Y0105075D01*
X0195559Y0105074D01*
X0195638Y0105069D01*
X0195717Y0105060D01*
X0195795Y0105047D01*
X0195872Y0105030D01*
X0195949Y0105010D01*
X0196024Y0104985D01*
X0196098Y0104957D01*
X0196171Y0104925D01*
X0196241Y0104890D01*
X0196310Y0104851D01*
X0196377Y0104808D01*
X0196442Y0104762D01*
X0196504Y0104714D01*
X0196564Y0104662D01*
X0196621Y0104607D01*
X0196675Y0104549D01*
X0196726Y0104489D01*
X0196774Y0104426D01*
X0196819Y0104361D01*
X0196861Y0104293D01*
X0196899Y0104224D01*
X0196933Y0104153D01*
X0196964Y0104080D01*
X0196992Y0104005D01*
X0197015Y0103930D01*
X0197035Y0103853D01*
X0197051Y0103776D01*
X0197063Y0103697D01*
X0197071Y0103619D01*
X0197075Y0103540D01*
X0197075Y0103460D01*
X0197071Y0103381D01*
X0197063Y0103303D01*
X0197051Y0103224D01*
X0197035Y0103147D01*
X0197015Y0103070D01*
X0196992Y0102995D01*
X0196964Y0102920D01*
X0196933Y0102847D01*
X0196899Y0102776D01*
X0196861Y0102707D01*
X0196819Y0102639D01*
X0196774Y0102574D01*
X0196726Y0102511D01*
X0196675Y0102451D01*
X0196621Y0102393D01*
X0196564Y0102338D01*
X0196504Y0102286D01*
X0196442Y0102238D01*
X0196377Y0102192D01*
X0196310Y0102149D01*
X0196241Y0102110D01*
X0196171Y0102075D01*
X0196098Y0102043D01*
X0196024Y0102015D01*
X0195949Y0101990D01*
X0195872Y0101970D01*
X0195795Y0101953D01*
X0195717Y0101940D01*
X0195638Y0101931D01*
X0195559Y0101926D01*
X0195480Y0101925D01*
X0195401Y0101928D01*
X0195322Y0101935D01*
X0195244Y0101946D01*
X0195166Y0101961D01*
X0195089Y0101980D01*
X0195013Y0102002D01*
X0194939Y0102028D01*
X0194865Y0102058D01*
X0194794Y0102092D01*
X0194724Y0102129D01*
X0194656Y0102170D01*
X0194590Y0102214D01*
X0194527Y0102262D01*
X0194466Y0102312D01*
X0194407Y0102366D01*
X0194352Y0102422D01*
X0194299Y0102481D01*
X0194249Y0102543D01*
X0194203Y0102607D01*
X0194160Y0102673D01*
X0194120Y0102741D01*
X0194083Y0102812D01*
X0194051Y0102884D01*
X0194021Y0102957D01*
X0193996Y0103032D01*
X0193974Y0103108D01*
X0193957Y0103185D01*
X0193943Y0103263D01*
X0193933Y0103342D01*
X0193927Y0103421D01*
X0193925Y0103500D01*
X0199925Y0103500D02*
X0199927Y0103579D01*
X0199933Y0103658D01*
X0199943Y0103737D01*
X0199957Y0103815D01*
X0199974Y0103892D01*
X0199996Y0103968D01*
X0200021Y0104043D01*
X0200051Y0104116D01*
X0200083Y0104188D01*
X0200120Y0104259D01*
X0200160Y0104327D01*
X0200203Y0104393D01*
X0200249Y0104457D01*
X0200299Y0104519D01*
X0200352Y0104578D01*
X0200407Y0104634D01*
X0200466Y0104688D01*
X0200527Y0104738D01*
X0200590Y0104786D01*
X0200656Y0104830D01*
X0200724Y0104871D01*
X0200794Y0104908D01*
X0200865Y0104942D01*
X0200939Y0104972D01*
X0201013Y0104998D01*
X0201089Y0105020D01*
X0201166Y0105039D01*
X0201244Y0105054D01*
X0201322Y0105065D01*
X0201401Y0105072D01*
X0201480Y0105075D01*
X0201559Y0105074D01*
X0201638Y0105069D01*
X0201717Y0105060D01*
X0201795Y0105047D01*
X0201872Y0105030D01*
X0201949Y0105010D01*
X0202024Y0104985D01*
X0202098Y0104957D01*
X0202171Y0104925D01*
X0202241Y0104890D01*
X0202310Y0104851D01*
X0202377Y0104808D01*
X0202442Y0104762D01*
X0202504Y0104714D01*
X0202564Y0104662D01*
X0202621Y0104607D01*
X0202675Y0104549D01*
X0202726Y0104489D01*
X0202774Y0104426D01*
X0202819Y0104361D01*
X0202861Y0104293D01*
X0202899Y0104224D01*
X0202933Y0104153D01*
X0202964Y0104080D01*
X0202992Y0104005D01*
X0203015Y0103930D01*
X0203035Y0103853D01*
X0203051Y0103776D01*
X0203063Y0103697D01*
X0203071Y0103619D01*
X0203075Y0103540D01*
X0203075Y0103460D01*
X0203071Y0103381D01*
X0203063Y0103303D01*
X0203051Y0103224D01*
X0203035Y0103147D01*
X0203015Y0103070D01*
X0202992Y0102995D01*
X0202964Y0102920D01*
X0202933Y0102847D01*
X0202899Y0102776D01*
X0202861Y0102707D01*
X0202819Y0102639D01*
X0202774Y0102574D01*
X0202726Y0102511D01*
X0202675Y0102451D01*
X0202621Y0102393D01*
X0202564Y0102338D01*
X0202504Y0102286D01*
X0202442Y0102238D01*
X0202377Y0102192D01*
X0202310Y0102149D01*
X0202241Y0102110D01*
X0202171Y0102075D01*
X0202098Y0102043D01*
X0202024Y0102015D01*
X0201949Y0101990D01*
X0201872Y0101970D01*
X0201795Y0101953D01*
X0201717Y0101940D01*
X0201638Y0101931D01*
X0201559Y0101926D01*
X0201480Y0101925D01*
X0201401Y0101928D01*
X0201322Y0101935D01*
X0201244Y0101946D01*
X0201166Y0101961D01*
X0201089Y0101980D01*
X0201013Y0102002D01*
X0200939Y0102028D01*
X0200865Y0102058D01*
X0200794Y0102092D01*
X0200724Y0102129D01*
X0200656Y0102170D01*
X0200590Y0102214D01*
X0200527Y0102262D01*
X0200466Y0102312D01*
X0200407Y0102366D01*
X0200352Y0102422D01*
X0200299Y0102481D01*
X0200249Y0102543D01*
X0200203Y0102607D01*
X0200160Y0102673D01*
X0200120Y0102741D01*
X0200083Y0102812D01*
X0200051Y0102884D01*
X0200021Y0102957D01*
X0199996Y0103032D01*
X0199974Y0103108D01*
X0199957Y0103185D01*
X0199943Y0103263D01*
X0199933Y0103342D01*
X0199927Y0103421D01*
X0199925Y0103500D01*
X0205925Y0103500D02*
X0205927Y0103579D01*
X0205933Y0103658D01*
X0205943Y0103737D01*
X0205957Y0103815D01*
X0205974Y0103892D01*
X0205996Y0103968D01*
X0206021Y0104043D01*
X0206051Y0104116D01*
X0206083Y0104188D01*
X0206120Y0104259D01*
X0206160Y0104327D01*
X0206203Y0104393D01*
X0206249Y0104457D01*
X0206299Y0104519D01*
X0206352Y0104578D01*
X0206407Y0104634D01*
X0206466Y0104688D01*
X0206527Y0104738D01*
X0206590Y0104786D01*
X0206656Y0104830D01*
X0206724Y0104871D01*
X0206794Y0104908D01*
X0206865Y0104942D01*
X0206939Y0104972D01*
X0207013Y0104998D01*
X0207089Y0105020D01*
X0207166Y0105039D01*
X0207244Y0105054D01*
X0207322Y0105065D01*
X0207401Y0105072D01*
X0207480Y0105075D01*
X0207559Y0105074D01*
X0207638Y0105069D01*
X0207717Y0105060D01*
X0207795Y0105047D01*
X0207872Y0105030D01*
X0207949Y0105010D01*
X0208024Y0104985D01*
X0208098Y0104957D01*
X0208171Y0104925D01*
X0208241Y0104890D01*
X0208310Y0104851D01*
X0208377Y0104808D01*
X0208442Y0104762D01*
X0208504Y0104714D01*
X0208564Y0104662D01*
X0208621Y0104607D01*
X0208675Y0104549D01*
X0208726Y0104489D01*
X0208774Y0104426D01*
X0208819Y0104361D01*
X0208861Y0104293D01*
X0208899Y0104224D01*
X0208933Y0104153D01*
X0208964Y0104080D01*
X0208992Y0104005D01*
X0209015Y0103930D01*
X0209035Y0103853D01*
X0209051Y0103776D01*
X0209063Y0103697D01*
X0209071Y0103619D01*
X0209075Y0103540D01*
X0209075Y0103460D01*
X0209071Y0103381D01*
X0209063Y0103303D01*
X0209051Y0103224D01*
X0209035Y0103147D01*
X0209015Y0103070D01*
X0208992Y0102995D01*
X0208964Y0102920D01*
X0208933Y0102847D01*
X0208899Y0102776D01*
X0208861Y0102707D01*
X0208819Y0102639D01*
X0208774Y0102574D01*
X0208726Y0102511D01*
X0208675Y0102451D01*
X0208621Y0102393D01*
X0208564Y0102338D01*
X0208504Y0102286D01*
X0208442Y0102238D01*
X0208377Y0102192D01*
X0208310Y0102149D01*
X0208241Y0102110D01*
X0208171Y0102075D01*
X0208098Y0102043D01*
X0208024Y0102015D01*
X0207949Y0101990D01*
X0207872Y0101970D01*
X0207795Y0101953D01*
X0207717Y0101940D01*
X0207638Y0101931D01*
X0207559Y0101926D01*
X0207480Y0101925D01*
X0207401Y0101928D01*
X0207322Y0101935D01*
X0207244Y0101946D01*
X0207166Y0101961D01*
X0207089Y0101980D01*
X0207013Y0102002D01*
X0206939Y0102028D01*
X0206865Y0102058D01*
X0206794Y0102092D01*
X0206724Y0102129D01*
X0206656Y0102170D01*
X0206590Y0102214D01*
X0206527Y0102262D01*
X0206466Y0102312D01*
X0206407Y0102366D01*
X0206352Y0102422D01*
X0206299Y0102481D01*
X0206249Y0102543D01*
X0206203Y0102607D01*
X0206160Y0102673D01*
X0206120Y0102741D01*
X0206083Y0102812D01*
X0206051Y0102884D01*
X0206021Y0102957D01*
X0205996Y0103032D01*
X0205974Y0103108D01*
X0205957Y0103185D01*
X0205943Y0103263D01*
X0205933Y0103342D01*
X0205927Y0103421D01*
X0205925Y0103500D01*
X0211925Y0103500D02*
X0211927Y0103579D01*
X0211933Y0103658D01*
X0211943Y0103737D01*
X0211957Y0103815D01*
X0211974Y0103892D01*
X0211996Y0103968D01*
X0212021Y0104043D01*
X0212051Y0104116D01*
X0212083Y0104188D01*
X0212120Y0104259D01*
X0212160Y0104327D01*
X0212203Y0104393D01*
X0212249Y0104457D01*
X0212299Y0104519D01*
X0212352Y0104578D01*
X0212407Y0104634D01*
X0212466Y0104688D01*
X0212527Y0104738D01*
X0212590Y0104786D01*
X0212656Y0104830D01*
X0212724Y0104871D01*
X0212794Y0104908D01*
X0212865Y0104942D01*
X0212939Y0104972D01*
X0213013Y0104998D01*
X0213089Y0105020D01*
X0213166Y0105039D01*
X0213244Y0105054D01*
X0213322Y0105065D01*
X0213401Y0105072D01*
X0213480Y0105075D01*
X0213559Y0105074D01*
X0213638Y0105069D01*
X0213717Y0105060D01*
X0213795Y0105047D01*
X0213872Y0105030D01*
X0213949Y0105010D01*
X0214024Y0104985D01*
X0214098Y0104957D01*
X0214171Y0104925D01*
X0214241Y0104890D01*
X0214310Y0104851D01*
X0214377Y0104808D01*
X0214442Y0104762D01*
X0214504Y0104714D01*
X0214564Y0104662D01*
X0214621Y0104607D01*
X0214675Y0104549D01*
X0214726Y0104489D01*
X0214774Y0104426D01*
X0214819Y0104361D01*
X0214861Y0104293D01*
X0214899Y0104224D01*
X0214933Y0104153D01*
X0214964Y0104080D01*
X0214992Y0104005D01*
X0215015Y0103930D01*
X0215035Y0103853D01*
X0215051Y0103776D01*
X0215063Y0103697D01*
X0215071Y0103619D01*
X0215075Y0103540D01*
X0215075Y0103460D01*
X0215071Y0103381D01*
X0215063Y0103303D01*
X0215051Y0103224D01*
X0215035Y0103147D01*
X0215015Y0103070D01*
X0214992Y0102995D01*
X0214964Y0102920D01*
X0214933Y0102847D01*
X0214899Y0102776D01*
X0214861Y0102707D01*
X0214819Y0102639D01*
X0214774Y0102574D01*
X0214726Y0102511D01*
X0214675Y0102451D01*
X0214621Y0102393D01*
X0214564Y0102338D01*
X0214504Y0102286D01*
X0214442Y0102238D01*
X0214377Y0102192D01*
X0214310Y0102149D01*
X0214241Y0102110D01*
X0214171Y0102075D01*
X0214098Y0102043D01*
X0214024Y0102015D01*
X0213949Y0101990D01*
X0213872Y0101970D01*
X0213795Y0101953D01*
X0213717Y0101940D01*
X0213638Y0101931D01*
X0213559Y0101926D01*
X0213480Y0101925D01*
X0213401Y0101928D01*
X0213322Y0101935D01*
X0213244Y0101946D01*
X0213166Y0101961D01*
X0213089Y0101980D01*
X0213013Y0102002D01*
X0212939Y0102028D01*
X0212865Y0102058D01*
X0212794Y0102092D01*
X0212724Y0102129D01*
X0212656Y0102170D01*
X0212590Y0102214D01*
X0212527Y0102262D01*
X0212466Y0102312D01*
X0212407Y0102366D01*
X0212352Y0102422D01*
X0212299Y0102481D01*
X0212249Y0102543D01*
X0212203Y0102607D01*
X0212160Y0102673D01*
X0212120Y0102741D01*
X0212083Y0102812D01*
X0212051Y0102884D01*
X0212021Y0102957D01*
X0211996Y0103032D01*
X0211974Y0103108D01*
X0211957Y0103185D01*
X0211943Y0103263D01*
X0211933Y0103342D01*
X0211927Y0103421D01*
X0211925Y0103500D01*
X0217925Y0103500D02*
X0217927Y0103579D01*
X0217933Y0103658D01*
X0217943Y0103737D01*
X0217957Y0103815D01*
X0217974Y0103892D01*
X0217996Y0103968D01*
X0218021Y0104043D01*
X0218051Y0104116D01*
X0218083Y0104188D01*
X0218120Y0104259D01*
X0218160Y0104327D01*
X0218203Y0104393D01*
X0218249Y0104457D01*
X0218299Y0104519D01*
X0218352Y0104578D01*
X0218407Y0104634D01*
X0218466Y0104688D01*
X0218527Y0104738D01*
X0218590Y0104786D01*
X0218656Y0104830D01*
X0218724Y0104871D01*
X0218794Y0104908D01*
X0218865Y0104942D01*
X0218939Y0104972D01*
X0219013Y0104998D01*
X0219089Y0105020D01*
X0219166Y0105039D01*
X0219244Y0105054D01*
X0219322Y0105065D01*
X0219401Y0105072D01*
X0219480Y0105075D01*
X0219559Y0105074D01*
X0219638Y0105069D01*
X0219717Y0105060D01*
X0219795Y0105047D01*
X0219872Y0105030D01*
X0219949Y0105010D01*
X0220024Y0104985D01*
X0220098Y0104957D01*
X0220171Y0104925D01*
X0220241Y0104890D01*
X0220310Y0104851D01*
X0220377Y0104808D01*
X0220442Y0104762D01*
X0220504Y0104714D01*
X0220564Y0104662D01*
X0220621Y0104607D01*
X0220675Y0104549D01*
X0220726Y0104489D01*
X0220774Y0104426D01*
X0220819Y0104361D01*
X0220861Y0104293D01*
X0220899Y0104224D01*
X0220933Y0104153D01*
X0220964Y0104080D01*
X0220992Y0104005D01*
X0221015Y0103930D01*
X0221035Y0103853D01*
X0221051Y0103776D01*
X0221063Y0103697D01*
X0221071Y0103619D01*
X0221075Y0103540D01*
X0221075Y0103460D01*
X0221071Y0103381D01*
X0221063Y0103303D01*
X0221051Y0103224D01*
X0221035Y0103147D01*
X0221015Y0103070D01*
X0220992Y0102995D01*
X0220964Y0102920D01*
X0220933Y0102847D01*
X0220899Y0102776D01*
X0220861Y0102707D01*
X0220819Y0102639D01*
X0220774Y0102574D01*
X0220726Y0102511D01*
X0220675Y0102451D01*
X0220621Y0102393D01*
X0220564Y0102338D01*
X0220504Y0102286D01*
X0220442Y0102238D01*
X0220377Y0102192D01*
X0220310Y0102149D01*
X0220241Y0102110D01*
X0220171Y0102075D01*
X0220098Y0102043D01*
X0220024Y0102015D01*
X0219949Y0101990D01*
X0219872Y0101970D01*
X0219795Y0101953D01*
X0219717Y0101940D01*
X0219638Y0101931D01*
X0219559Y0101926D01*
X0219480Y0101925D01*
X0219401Y0101928D01*
X0219322Y0101935D01*
X0219244Y0101946D01*
X0219166Y0101961D01*
X0219089Y0101980D01*
X0219013Y0102002D01*
X0218939Y0102028D01*
X0218865Y0102058D01*
X0218794Y0102092D01*
X0218724Y0102129D01*
X0218656Y0102170D01*
X0218590Y0102214D01*
X0218527Y0102262D01*
X0218466Y0102312D01*
X0218407Y0102366D01*
X0218352Y0102422D01*
X0218299Y0102481D01*
X0218249Y0102543D01*
X0218203Y0102607D01*
X0218160Y0102673D01*
X0218120Y0102741D01*
X0218083Y0102812D01*
X0218051Y0102884D01*
X0218021Y0102957D01*
X0217996Y0103032D01*
X0217974Y0103108D01*
X0217957Y0103185D01*
X0217943Y0103263D01*
X0217933Y0103342D01*
X0217927Y0103421D01*
X0217925Y0103500D01*
X0223925Y0103500D02*
X0223927Y0103579D01*
X0223933Y0103658D01*
X0223943Y0103737D01*
X0223957Y0103815D01*
X0223974Y0103892D01*
X0223996Y0103968D01*
X0224021Y0104043D01*
X0224051Y0104116D01*
X0224083Y0104188D01*
X0224120Y0104259D01*
X0224160Y0104327D01*
X0224203Y0104393D01*
X0224249Y0104457D01*
X0224299Y0104519D01*
X0224352Y0104578D01*
X0224407Y0104634D01*
X0224466Y0104688D01*
X0224527Y0104738D01*
X0224590Y0104786D01*
X0224656Y0104830D01*
X0224724Y0104871D01*
X0224794Y0104908D01*
X0224865Y0104942D01*
X0224939Y0104972D01*
X0225013Y0104998D01*
X0225089Y0105020D01*
X0225166Y0105039D01*
X0225244Y0105054D01*
X0225322Y0105065D01*
X0225401Y0105072D01*
X0225480Y0105075D01*
X0225559Y0105074D01*
X0225638Y0105069D01*
X0225717Y0105060D01*
X0225795Y0105047D01*
X0225872Y0105030D01*
X0225949Y0105010D01*
X0226024Y0104985D01*
X0226098Y0104957D01*
X0226171Y0104925D01*
X0226241Y0104890D01*
X0226310Y0104851D01*
X0226377Y0104808D01*
X0226442Y0104762D01*
X0226504Y0104714D01*
X0226564Y0104662D01*
X0226621Y0104607D01*
X0226675Y0104549D01*
X0226726Y0104489D01*
X0226774Y0104426D01*
X0226819Y0104361D01*
X0226861Y0104293D01*
X0226899Y0104224D01*
X0226933Y0104153D01*
X0226964Y0104080D01*
X0226992Y0104005D01*
X0227015Y0103930D01*
X0227035Y0103853D01*
X0227051Y0103776D01*
X0227063Y0103697D01*
X0227071Y0103619D01*
X0227075Y0103540D01*
X0227075Y0103460D01*
X0227071Y0103381D01*
X0227063Y0103303D01*
X0227051Y0103224D01*
X0227035Y0103147D01*
X0227015Y0103070D01*
X0226992Y0102995D01*
X0226964Y0102920D01*
X0226933Y0102847D01*
X0226899Y0102776D01*
X0226861Y0102707D01*
X0226819Y0102639D01*
X0226774Y0102574D01*
X0226726Y0102511D01*
X0226675Y0102451D01*
X0226621Y0102393D01*
X0226564Y0102338D01*
X0226504Y0102286D01*
X0226442Y0102238D01*
X0226377Y0102192D01*
X0226310Y0102149D01*
X0226241Y0102110D01*
X0226171Y0102075D01*
X0226098Y0102043D01*
X0226024Y0102015D01*
X0225949Y0101990D01*
X0225872Y0101970D01*
X0225795Y0101953D01*
X0225717Y0101940D01*
X0225638Y0101931D01*
X0225559Y0101926D01*
X0225480Y0101925D01*
X0225401Y0101928D01*
X0225322Y0101935D01*
X0225244Y0101946D01*
X0225166Y0101961D01*
X0225089Y0101980D01*
X0225013Y0102002D01*
X0224939Y0102028D01*
X0224865Y0102058D01*
X0224794Y0102092D01*
X0224724Y0102129D01*
X0224656Y0102170D01*
X0224590Y0102214D01*
X0224527Y0102262D01*
X0224466Y0102312D01*
X0224407Y0102366D01*
X0224352Y0102422D01*
X0224299Y0102481D01*
X0224249Y0102543D01*
X0224203Y0102607D01*
X0224160Y0102673D01*
X0224120Y0102741D01*
X0224083Y0102812D01*
X0224051Y0102884D01*
X0224021Y0102957D01*
X0223996Y0103032D01*
X0223974Y0103108D01*
X0223957Y0103185D01*
X0223943Y0103263D01*
X0223933Y0103342D01*
X0223927Y0103421D01*
X0223925Y0103500D01*
X0229925Y0103500D02*
X0229927Y0103579D01*
X0229933Y0103658D01*
X0229943Y0103737D01*
X0229957Y0103815D01*
X0229974Y0103892D01*
X0229996Y0103968D01*
X0230021Y0104043D01*
X0230051Y0104116D01*
X0230083Y0104188D01*
X0230120Y0104259D01*
X0230160Y0104327D01*
X0230203Y0104393D01*
X0230249Y0104457D01*
X0230299Y0104519D01*
X0230352Y0104578D01*
X0230407Y0104634D01*
X0230466Y0104688D01*
X0230527Y0104738D01*
X0230590Y0104786D01*
X0230656Y0104830D01*
X0230724Y0104871D01*
X0230794Y0104908D01*
X0230865Y0104942D01*
X0230939Y0104972D01*
X0231013Y0104998D01*
X0231089Y0105020D01*
X0231166Y0105039D01*
X0231244Y0105054D01*
X0231322Y0105065D01*
X0231401Y0105072D01*
X0231480Y0105075D01*
X0231559Y0105074D01*
X0231638Y0105069D01*
X0231717Y0105060D01*
X0231795Y0105047D01*
X0231872Y0105030D01*
X0231949Y0105010D01*
X0232024Y0104985D01*
X0232098Y0104957D01*
X0232171Y0104925D01*
X0232241Y0104890D01*
X0232310Y0104851D01*
X0232377Y0104808D01*
X0232442Y0104762D01*
X0232504Y0104714D01*
X0232564Y0104662D01*
X0232621Y0104607D01*
X0232675Y0104549D01*
X0232726Y0104489D01*
X0232774Y0104426D01*
X0232819Y0104361D01*
X0232861Y0104293D01*
X0232899Y0104224D01*
X0232933Y0104153D01*
X0232964Y0104080D01*
X0232992Y0104005D01*
X0233015Y0103930D01*
X0233035Y0103853D01*
X0233051Y0103776D01*
X0233063Y0103697D01*
X0233071Y0103619D01*
X0233075Y0103540D01*
X0233075Y0103460D01*
X0233071Y0103381D01*
X0233063Y0103303D01*
X0233051Y0103224D01*
X0233035Y0103147D01*
X0233015Y0103070D01*
X0232992Y0102995D01*
X0232964Y0102920D01*
X0232933Y0102847D01*
X0232899Y0102776D01*
X0232861Y0102707D01*
X0232819Y0102639D01*
X0232774Y0102574D01*
X0232726Y0102511D01*
X0232675Y0102451D01*
X0232621Y0102393D01*
X0232564Y0102338D01*
X0232504Y0102286D01*
X0232442Y0102238D01*
X0232377Y0102192D01*
X0232310Y0102149D01*
X0232241Y0102110D01*
X0232171Y0102075D01*
X0232098Y0102043D01*
X0232024Y0102015D01*
X0231949Y0101990D01*
X0231872Y0101970D01*
X0231795Y0101953D01*
X0231717Y0101940D01*
X0231638Y0101931D01*
X0231559Y0101926D01*
X0231480Y0101925D01*
X0231401Y0101928D01*
X0231322Y0101935D01*
X0231244Y0101946D01*
X0231166Y0101961D01*
X0231089Y0101980D01*
X0231013Y0102002D01*
X0230939Y0102028D01*
X0230865Y0102058D01*
X0230794Y0102092D01*
X0230724Y0102129D01*
X0230656Y0102170D01*
X0230590Y0102214D01*
X0230527Y0102262D01*
X0230466Y0102312D01*
X0230407Y0102366D01*
X0230352Y0102422D01*
X0230299Y0102481D01*
X0230249Y0102543D01*
X0230203Y0102607D01*
X0230160Y0102673D01*
X0230120Y0102741D01*
X0230083Y0102812D01*
X0230051Y0102884D01*
X0230021Y0102957D01*
X0229996Y0103032D01*
X0229974Y0103108D01*
X0229957Y0103185D01*
X0229943Y0103263D01*
X0229933Y0103342D01*
X0229927Y0103421D01*
X0229925Y0103500D01*
X0235925Y0103500D02*
X0235927Y0103579D01*
X0235933Y0103658D01*
X0235943Y0103737D01*
X0235957Y0103815D01*
X0235974Y0103892D01*
X0235996Y0103968D01*
X0236021Y0104043D01*
X0236051Y0104116D01*
X0236083Y0104188D01*
X0236120Y0104259D01*
X0236160Y0104327D01*
X0236203Y0104393D01*
X0236249Y0104457D01*
X0236299Y0104519D01*
X0236352Y0104578D01*
X0236407Y0104634D01*
X0236466Y0104688D01*
X0236527Y0104738D01*
X0236590Y0104786D01*
X0236656Y0104830D01*
X0236724Y0104871D01*
X0236794Y0104908D01*
X0236865Y0104942D01*
X0236939Y0104972D01*
X0237013Y0104998D01*
X0237089Y0105020D01*
X0237166Y0105039D01*
X0237244Y0105054D01*
X0237322Y0105065D01*
X0237401Y0105072D01*
X0237480Y0105075D01*
X0237559Y0105074D01*
X0237638Y0105069D01*
X0237717Y0105060D01*
X0237795Y0105047D01*
X0237872Y0105030D01*
X0237949Y0105010D01*
X0238024Y0104985D01*
X0238098Y0104957D01*
X0238171Y0104925D01*
X0238241Y0104890D01*
X0238310Y0104851D01*
X0238377Y0104808D01*
X0238442Y0104762D01*
X0238504Y0104714D01*
X0238564Y0104662D01*
X0238621Y0104607D01*
X0238675Y0104549D01*
X0238726Y0104489D01*
X0238774Y0104426D01*
X0238819Y0104361D01*
X0238861Y0104293D01*
X0238899Y0104224D01*
X0238933Y0104153D01*
X0238964Y0104080D01*
X0238992Y0104005D01*
X0239015Y0103930D01*
X0239035Y0103853D01*
X0239051Y0103776D01*
X0239063Y0103697D01*
X0239071Y0103619D01*
X0239075Y0103540D01*
X0239075Y0103460D01*
X0239071Y0103381D01*
X0239063Y0103303D01*
X0239051Y0103224D01*
X0239035Y0103147D01*
X0239015Y0103070D01*
X0238992Y0102995D01*
X0238964Y0102920D01*
X0238933Y0102847D01*
X0238899Y0102776D01*
X0238861Y0102707D01*
X0238819Y0102639D01*
X0238774Y0102574D01*
X0238726Y0102511D01*
X0238675Y0102451D01*
X0238621Y0102393D01*
X0238564Y0102338D01*
X0238504Y0102286D01*
X0238442Y0102238D01*
X0238377Y0102192D01*
X0238310Y0102149D01*
X0238241Y0102110D01*
X0238171Y0102075D01*
X0238098Y0102043D01*
X0238024Y0102015D01*
X0237949Y0101990D01*
X0237872Y0101970D01*
X0237795Y0101953D01*
X0237717Y0101940D01*
X0237638Y0101931D01*
X0237559Y0101926D01*
X0237480Y0101925D01*
X0237401Y0101928D01*
X0237322Y0101935D01*
X0237244Y0101946D01*
X0237166Y0101961D01*
X0237089Y0101980D01*
X0237013Y0102002D01*
X0236939Y0102028D01*
X0236865Y0102058D01*
X0236794Y0102092D01*
X0236724Y0102129D01*
X0236656Y0102170D01*
X0236590Y0102214D01*
X0236527Y0102262D01*
X0236466Y0102312D01*
X0236407Y0102366D01*
X0236352Y0102422D01*
X0236299Y0102481D01*
X0236249Y0102543D01*
X0236203Y0102607D01*
X0236160Y0102673D01*
X0236120Y0102741D01*
X0236083Y0102812D01*
X0236051Y0102884D01*
X0236021Y0102957D01*
X0235996Y0103032D01*
X0235974Y0103108D01*
X0235957Y0103185D01*
X0235943Y0103263D01*
X0235933Y0103342D01*
X0235927Y0103421D01*
X0235925Y0103500D01*
X0241925Y0103500D02*
X0241927Y0103579D01*
X0241933Y0103658D01*
X0241943Y0103737D01*
X0241957Y0103815D01*
X0241974Y0103892D01*
X0241996Y0103968D01*
X0242021Y0104043D01*
X0242051Y0104116D01*
X0242083Y0104188D01*
X0242120Y0104259D01*
X0242160Y0104327D01*
X0242203Y0104393D01*
X0242249Y0104457D01*
X0242299Y0104519D01*
X0242352Y0104578D01*
X0242407Y0104634D01*
X0242466Y0104688D01*
X0242527Y0104738D01*
X0242590Y0104786D01*
X0242656Y0104830D01*
X0242724Y0104871D01*
X0242794Y0104908D01*
X0242865Y0104942D01*
X0242939Y0104972D01*
X0243013Y0104998D01*
X0243089Y0105020D01*
X0243166Y0105039D01*
X0243244Y0105054D01*
X0243322Y0105065D01*
X0243401Y0105072D01*
X0243480Y0105075D01*
X0243559Y0105074D01*
X0243638Y0105069D01*
X0243717Y0105060D01*
X0243795Y0105047D01*
X0243872Y0105030D01*
X0243949Y0105010D01*
X0244024Y0104985D01*
X0244098Y0104957D01*
X0244171Y0104925D01*
X0244241Y0104890D01*
X0244310Y0104851D01*
X0244377Y0104808D01*
X0244442Y0104762D01*
X0244504Y0104714D01*
X0244564Y0104662D01*
X0244621Y0104607D01*
X0244675Y0104549D01*
X0244726Y0104489D01*
X0244774Y0104426D01*
X0244819Y0104361D01*
X0244861Y0104293D01*
X0244899Y0104224D01*
X0244933Y0104153D01*
X0244964Y0104080D01*
X0244992Y0104005D01*
X0245015Y0103930D01*
X0245035Y0103853D01*
X0245051Y0103776D01*
X0245063Y0103697D01*
X0245071Y0103619D01*
X0245075Y0103540D01*
X0245075Y0103460D01*
X0245071Y0103381D01*
X0245063Y0103303D01*
X0245051Y0103224D01*
X0245035Y0103147D01*
X0245015Y0103070D01*
X0244992Y0102995D01*
X0244964Y0102920D01*
X0244933Y0102847D01*
X0244899Y0102776D01*
X0244861Y0102707D01*
X0244819Y0102639D01*
X0244774Y0102574D01*
X0244726Y0102511D01*
X0244675Y0102451D01*
X0244621Y0102393D01*
X0244564Y0102338D01*
X0244504Y0102286D01*
X0244442Y0102238D01*
X0244377Y0102192D01*
X0244310Y0102149D01*
X0244241Y0102110D01*
X0244171Y0102075D01*
X0244098Y0102043D01*
X0244024Y0102015D01*
X0243949Y0101990D01*
X0243872Y0101970D01*
X0243795Y0101953D01*
X0243717Y0101940D01*
X0243638Y0101931D01*
X0243559Y0101926D01*
X0243480Y0101925D01*
X0243401Y0101928D01*
X0243322Y0101935D01*
X0243244Y0101946D01*
X0243166Y0101961D01*
X0243089Y0101980D01*
X0243013Y0102002D01*
X0242939Y0102028D01*
X0242865Y0102058D01*
X0242794Y0102092D01*
X0242724Y0102129D01*
X0242656Y0102170D01*
X0242590Y0102214D01*
X0242527Y0102262D01*
X0242466Y0102312D01*
X0242407Y0102366D01*
X0242352Y0102422D01*
X0242299Y0102481D01*
X0242249Y0102543D01*
X0242203Y0102607D01*
X0242160Y0102673D01*
X0242120Y0102741D01*
X0242083Y0102812D01*
X0242051Y0102884D01*
X0242021Y0102957D01*
X0241996Y0103032D01*
X0241974Y0103108D01*
X0241957Y0103185D01*
X0241943Y0103263D01*
X0241933Y0103342D01*
X0241927Y0103421D01*
X0241925Y0103500D01*
X0248500Y0102500D02*
X0248500Y0096500D01*
X0248502Y0096374D01*
X0248508Y0096249D01*
X0248518Y0096124D01*
X0248532Y0095999D01*
X0248549Y0095874D01*
X0248571Y0095750D01*
X0248596Y0095627D01*
X0248626Y0095505D01*
X0248659Y0095384D01*
X0248696Y0095264D01*
X0248736Y0095145D01*
X0248781Y0095028D01*
X0248829Y0094911D01*
X0248881Y0094797D01*
X0248936Y0094684D01*
X0248995Y0094573D01*
X0249057Y0094464D01*
X0249123Y0094357D01*
X0249192Y0094252D01*
X0249264Y0094149D01*
X0249339Y0094048D01*
X0249418Y0093950D01*
X0249500Y0093855D01*
X0249584Y0093762D01*
X0249672Y0093672D01*
X0249762Y0093584D01*
X0249855Y0093500D01*
X0249950Y0093418D01*
X0250048Y0093339D01*
X0250149Y0093264D01*
X0250252Y0093192D01*
X0250357Y0093123D01*
X0250464Y0093057D01*
X0250573Y0092995D01*
X0250684Y0092936D01*
X0250797Y0092881D01*
X0250911Y0092829D01*
X0251028Y0092781D01*
X0251145Y0092736D01*
X0251264Y0092696D01*
X0251384Y0092659D01*
X0251505Y0092626D01*
X0251627Y0092596D01*
X0251750Y0092571D01*
X0251874Y0092549D01*
X0251999Y0092532D01*
X0252124Y0092518D01*
X0252249Y0092508D01*
X0252374Y0092502D01*
X0252500Y0092500D01*
X0257500Y0092500D01*
X0257626Y0092498D01*
X0257751Y0092492D01*
X0257876Y0092482D01*
X0258001Y0092468D01*
X0258126Y0092451D01*
X0258250Y0092429D01*
X0258373Y0092404D01*
X0258495Y0092374D01*
X0258616Y0092341D01*
X0258736Y0092304D01*
X0258855Y0092264D01*
X0258972Y0092219D01*
X0259089Y0092171D01*
X0259203Y0092119D01*
X0259316Y0092064D01*
X0259427Y0092005D01*
X0259536Y0091943D01*
X0259643Y0091877D01*
X0259748Y0091808D01*
X0259851Y0091736D01*
X0259952Y0091661D01*
X0260050Y0091582D01*
X0260145Y0091500D01*
X0260238Y0091416D01*
X0260328Y0091328D01*
X0260416Y0091238D01*
X0260500Y0091145D01*
X0260582Y0091050D01*
X0260661Y0090952D01*
X0260736Y0090851D01*
X0260808Y0090748D01*
X0260877Y0090643D01*
X0260943Y0090536D01*
X0261005Y0090427D01*
X0261064Y0090316D01*
X0261119Y0090203D01*
X0261171Y0090089D01*
X0261219Y0089972D01*
X0261264Y0089855D01*
X0261304Y0089736D01*
X0261341Y0089616D01*
X0261374Y0089495D01*
X0261404Y0089373D01*
X0261429Y0089250D01*
X0261451Y0089126D01*
X0261468Y0089001D01*
X0261482Y0088876D01*
X0261492Y0088751D01*
X0261498Y0088626D01*
X0261500Y0088500D01*
X0261500Y0057500D01*
X0265500Y0057500D01*
X0265626Y0057502D01*
X0265751Y0057508D01*
X0265876Y0057518D01*
X0266001Y0057532D01*
X0266126Y0057549D01*
X0266250Y0057571D01*
X0266373Y0057596D01*
X0266495Y0057626D01*
X0266616Y0057659D01*
X0266736Y0057696D01*
X0266855Y0057736D01*
X0266972Y0057781D01*
X0267089Y0057829D01*
X0267203Y0057881D01*
X0267316Y0057936D01*
X0267427Y0057995D01*
X0267536Y0058057D01*
X0267643Y0058123D01*
X0267748Y0058192D01*
X0267851Y0058264D01*
X0267952Y0058339D01*
X0268050Y0058418D01*
X0268145Y0058500D01*
X0268238Y0058584D01*
X0268328Y0058672D01*
X0268416Y0058762D01*
X0268500Y0058855D01*
X0268582Y0058950D01*
X0268661Y0059048D01*
X0268736Y0059149D01*
X0268808Y0059252D01*
X0268877Y0059357D01*
X0268943Y0059464D01*
X0269005Y0059573D01*
X0269064Y0059684D01*
X0269119Y0059797D01*
X0269171Y0059911D01*
X0269219Y0060028D01*
X0269264Y0060145D01*
X0269304Y0060264D01*
X0269341Y0060384D01*
X0269374Y0060505D01*
X0269404Y0060627D01*
X0269429Y0060750D01*
X0269451Y0060874D01*
X0269468Y0060999D01*
X0269482Y0061124D01*
X0269492Y0061249D01*
X0269498Y0061374D01*
X0269500Y0061500D01*
X0269500Y0117500D01*
X0269498Y0117626D01*
X0269492Y0117751D01*
X0269482Y0117876D01*
X0269468Y0118001D01*
X0269451Y0118126D01*
X0269429Y0118250D01*
X0269404Y0118373D01*
X0269374Y0118495D01*
X0269341Y0118616D01*
X0269304Y0118736D01*
X0269264Y0118855D01*
X0269219Y0118972D01*
X0269171Y0119089D01*
X0269119Y0119203D01*
X0269064Y0119316D01*
X0269005Y0119427D01*
X0268943Y0119536D01*
X0268877Y0119643D01*
X0268808Y0119748D01*
X0268736Y0119851D01*
X0268661Y0119952D01*
X0268582Y0120050D01*
X0268500Y0120145D01*
X0268416Y0120238D01*
X0268328Y0120328D01*
X0268238Y0120416D01*
X0268145Y0120500D01*
X0268050Y0120582D01*
X0267952Y0120661D01*
X0267851Y0120736D01*
X0267748Y0120808D01*
X0267643Y0120877D01*
X0267536Y0120943D01*
X0267427Y0121005D01*
X0267316Y0121064D01*
X0267203Y0121119D01*
X0267089Y0121171D01*
X0266972Y0121219D01*
X0266855Y0121264D01*
X0266736Y0121304D01*
X0266616Y0121341D01*
X0266495Y0121374D01*
X0266373Y0121404D01*
X0266250Y0121429D01*
X0266126Y0121451D01*
X0266001Y0121468D01*
X0265876Y0121482D01*
X0265751Y0121492D01*
X0265626Y0121498D01*
X0265500Y0121500D01*
X0261500Y0121500D01*
X0261500Y0106500D01*
X0261498Y0106374D01*
X0261492Y0106249D01*
X0261482Y0106124D01*
X0261468Y0105999D01*
X0261451Y0105874D01*
X0261429Y0105750D01*
X0261404Y0105627D01*
X0261374Y0105505D01*
X0261341Y0105384D01*
X0261304Y0105264D01*
X0261264Y0105145D01*
X0261219Y0105028D01*
X0261171Y0104911D01*
X0261119Y0104797D01*
X0261064Y0104684D01*
X0261005Y0104573D01*
X0260943Y0104464D01*
X0260877Y0104357D01*
X0260808Y0104252D01*
X0260736Y0104149D01*
X0260661Y0104048D01*
X0260582Y0103950D01*
X0260500Y0103855D01*
X0260416Y0103762D01*
X0260328Y0103672D01*
X0260238Y0103584D01*
X0260145Y0103500D01*
X0260050Y0103418D01*
X0259952Y0103339D01*
X0259851Y0103264D01*
X0259748Y0103192D01*
X0259643Y0103123D01*
X0259536Y0103057D01*
X0259427Y0102995D01*
X0259316Y0102936D01*
X0259203Y0102881D01*
X0259089Y0102829D01*
X0258972Y0102781D01*
X0258855Y0102736D01*
X0258736Y0102696D01*
X0258616Y0102659D01*
X0258495Y0102626D01*
X0258373Y0102596D01*
X0258250Y0102571D01*
X0258126Y0102549D01*
X0258001Y0102532D01*
X0257876Y0102518D01*
X0257751Y0102508D01*
X0257626Y0102502D01*
X0257500Y0102500D01*
X0248500Y0102500D01*
X0247925Y0103500D02*
X0247927Y0103579D01*
X0247933Y0103658D01*
X0247943Y0103737D01*
X0247957Y0103815D01*
X0247974Y0103892D01*
X0247996Y0103968D01*
X0248021Y0104043D01*
X0248051Y0104116D01*
X0248083Y0104188D01*
X0248120Y0104259D01*
X0248160Y0104327D01*
X0248203Y0104393D01*
X0248249Y0104457D01*
X0248299Y0104519D01*
X0248352Y0104578D01*
X0248407Y0104634D01*
X0248466Y0104688D01*
X0248527Y0104738D01*
X0248590Y0104786D01*
X0248656Y0104830D01*
X0248724Y0104871D01*
X0248794Y0104908D01*
X0248865Y0104942D01*
X0248939Y0104972D01*
X0249013Y0104998D01*
X0249089Y0105020D01*
X0249166Y0105039D01*
X0249244Y0105054D01*
X0249322Y0105065D01*
X0249401Y0105072D01*
X0249480Y0105075D01*
X0249559Y0105074D01*
X0249638Y0105069D01*
X0249717Y0105060D01*
X0249795Y0105047D01*
X0249872Y0105030D01*
X0249949Y0105010D01*
X0250024Y0104985D01*
X0250098Y0104957D01*
X0250171Y0104925D01*
X0250241Y0104890D01*
X0250310Y0104851D01*
X0250377Y0104808D01*
X0250442Y0104762D01*
X0250504Y0104714D01*
X0250564Y0104662D01*
X0250621Y0104607D01*
X0250675Y0104549D01*
X0250726Y0104489D01*
X0250774Y0104426D01*
X0250819Y0104361D01*
X0250861Y0104293D01*
X0250899Y0104224D01*
X0250933Y0104153D01*
X0250964Y0104080D01*
X0250992Y0104005D01*
X0251015Y0103930D01*
X0251035Y0103853D01*
X0251051Y0103776D01*
X0251063Y0103697D01*
X0251071Y0103619D01*
X0251075Y0103540D01*
X0251075Y0103460D01*
X0251071Y0103381D01*
X0251063Y0103303D01*
X0251051Y0103224D01*
X0251035Y0103147D01*
X0251015Y0103070D01*
X0250992Y0102995D01*
X0250964Y0102920D01*
X0250933Y0102847D01*
X0250899Y0102776D01*
X0250861Y0102707D01*
X0250819Y0102639D01*
X0250774Y0102574D01*
X0250726Y0102511D01*
X0250675Y0102451D01*
X0250621Y0102393D01*
X0250564Y0102338D01*
X0250504Y0102286D01*
X0250442Y0102238D01*
X0250377Y0102192D01*
X0250310Y0102149D01*
X0250241Y0102110D01*
X0250171Y0102075D01*
X0250098Y0102043D01*
X0250024Y0102015D01*
X0249949Y0101990D01*
X0249872Y0101970D01*
X0249795Y0101953D01*
X0249717Y0101940D01*
X0249638Y0101931D01*
X0249559Y0101926D01*
X0249480Y0101925D01*
X0249401Y0101928D01*
X0249322Y0101935D01*
X0249244Y0101946D01*
X0249166Y0101961D01*
X0249089Y0101980D01*
X0249013Y0102002D01*
X0248939Y0102028D01*
X0248865Y0102058D01*
X0248794Y0102092D01*
X0248724Y0102129D01*
X0248656Y0102170D01*
X0248590Y0102214D01*
X0248527Y0102262D01*
X0248466Y0102312D01*
X0248407Y0102366D01*
X0248352Y0102422D01*
X0248299Y0102481D01*
X0248249Y0102543D01*
X0248203Y0102607D01*
X0248160Y0102673D01*
X0248120Y0102741D01*
X0248083Y0102812D01*
X0248051Y0102884D01*
X0248021Y0102957D01*
X0247996Y0103032D01*
X0247974Y0103108D01*
X0247957Y0103185D01*
X0247943Y0103263D01*
X0247933Y0103342D01*
X0247927Y0103421D01*
X0247925Y0103500D01*
X0258925Y0120500D02*
X0258927Y0120579D01*
X0258933Y0120658D01*
X0258943Y0120737D01*
X0258957Y0120815D01*
X0258974Y0120892D01*
X0258996Y0120968D01*
X0259021Y0121043D01*
X0259051Y0121116D01*
X0259083Y0121188D01*
X0259120Y0121259D01*
X0259160Y0121327D01*
X0259203Y0121393D01*
X0259249Y0121457D01*
X0259299Y0121519D01*
X0259352Y0121578D01*
X0259407Y0121634D01*
X0259466Y0121688D01*
X0259527Y0121738D01*
X0259590Y0121786D01*
X0259656Y0121830D01*
X0259724Y0121871D01*
X0259794Y0121908D01*
X0259865Y0121942D01*
X0259939Y0121972D01*
X0260013Y0121998D01*
X0260089Y0122020D01*
X0260166Y0122039D01*
X0260244Y0122054D01*
X0260322Y0122065D01*
X0260401Y0122072D01*
X0260480Y0122075D01*
X0260559Y0122074D01*
X0260638Y0122069D01*
X0260717Y0122060D01*
X0260795Y0122047D01*
X0260872Y0122030D01*
X0260949Y0122010D01*
X0261024Y0121985D01*
X0261098Y0121957D01*
X0261171Y0121925D01*
X0261241Y0121890D01*
X0261310Y0121851D01*
X0261377Y0121808D01*
X0261442Y0121762D01*
X0261504Y0121714D01*
X0261564Y0121662D01*
X0261621Y0121607D01*
X0261675Y0121549D01*
X0261726Y0121489D01*
X0261774Y0121426D01*
X0261819Y0121361D01*
X0261861Y0121293D01*
X0261899Y0121224D01*
X0261933Y0121153D01*
X0261964Y0121080D01*
X0261992Y0121005D01*
X0262015Y0120930D01*
X0262035Y0120853D01*
X0262051Y0120776D01*
X0262063Y0120697D01*
X0262071Y0120619D01*
X0262075Y0120540D01*
X0262075Y0120460D01*
X0262071Y0120381D01*
X0262063Y0120303D01*
X0262051Y0120224D01*
X0262035Y0120147D01*
X0262015Y0120070D01*
X0261992Y0119995D01*
X0261964Y0119920D01*
X0261933Y0119847D01*
X0261899Y0119776D01*
X0261861Y0119707D01*
X0261819Y0119639D01*
X0261774Y0119574D01*
X0261726Y0119511D01*
X0261675Y0119451D01*
X0261621Y0119393D01*
X0261564Y0119338D01*
X0261504Y0119286D01*
X0261442Y0119238D01*
X0261377Y0119192D01*
X0261310Y0119149D01*
X0261241Y0119110D01*
X0261171Y0119075D01*
X0261098Y0119043D01*
X0261024Y0119015D01*
X0260949Y0118990D01*
X0260872Y0118970D01*
X0260795Y0118953D01*
X0260717Y0118940D01*
X0260638Y0118931D01*
X0260559Y0118926D01*
X0260480Y0118925D01*
X0260401Y0118928D01*
X0260322Y0118935D01*
X0260244Y0118946D01*
X0260166Y0118961D01*
X0260089Y0118980D01*
X0260013Y0119002D01*
X0259939Y0119028D01*
X0259865Y0119058D01*
X0259794Y0119092D01*
X0259724Y0119129D01*
X0259656Y0119170D01*
X0259590Y0119214D01*
X0259527Y0119262D01*
X0259466Y0119312D01*
X0259407Y0119366D01*
X0259352Y0119422D01*
X0259299Y0119481D01*
X0259249Y0119543D01*
X0259203Y0119607D01*
X0259160Y0119673D01*
X0259120Y0119741D01*
X0259083Y0119812D01*
X0259051Y0119884D01*
X0259021Y0119957D01*
X0258996Y0120032D01*
X0258974Y0120108D01*
X0258957Y0120185D01*
X0258943Y0120263D01*
X0258933Y0120342D01*
X0258927Y0120421D01*
X0258925Y0120500D01*
X0258925Y0126500D02*
X0258927Y0126579D01*
X0258933Y0126658D01*
X0258943Y0126737D01*
X0258957Y0126815D01*
X0258974Y0126892D01*
X0258996Y0126968D01*
X0259021Y0127043D01*
X0259051Y0127116D01*
X0259083Y0127188D01*
X0259120Y0127259D01*
X0259160Y0127327D01*
X0259203Y0127393D01*
X0259249Y0127457D01*
X0259299Y0127519D01*
X0259352Y0127578D01*
X0259407Y0127634D01*
X0259466Y0127688D01*
X0259527Y0127738D01*
X0259590Y0127786D01*
X0259656Y0127830D01*
X0259724Y0127871D01*
X0259794Y0127908D01*
X0259865Y0127942D01*
X0259939Y0127972D01*
X0260013Y0127998D01*
X0260089Y0128020D01*
X0260166Y0128039D01*
X0260244Y0128054D01*
X0260322Y0128065D01*
X0260401Y0128072D01*
X0260480Y0128075D01*
X0260559Y0128074D01*
X0260638Y0128069D01*
X0260717Y0128060D01*
X0260795Y0128047D01*
X0260872Y0128030D01*
X0260949Y0128010D01*
X0261024Y0127985D01*
X0261098Y0127957D01*
X0261171Y0127925D01*
X0261241Y0127890D01*
X0261310Y0127851D01*
X0261377Y0127808D01*
X0261442Y0127762D01*
X0261504Y0127714D01*
X0261564Y0127662D01*
X0261621Y0127607D01*
X0261675Y0127549D01*
X0261726Y0127489D01*
X0261774Y0127426D01*
X0261819Y0127361D01*
X0261861Y0127293D01*
X0261899Y0127224D01*
X0261933Y0127153D01*
X0261964Y0127080D01*
X0261992Y0127005D01*
X0262015Y0126930D01*
X0262035Y0126853D01*
X0262051Y0126776D01*
X0262063Y0126697D01*
X0262071Y0126619D01*
X0262075Y0126540D01*
X0262075Y0126460D01*
X0262071Y0126381D01*
X0262063Y0126303D01*
X0262051Y0126224D01*
X0262035Y0126147D01*
X0262015Y0126070D01*
X0261992Y0125995D01*
X0261964Y0125920D01*
X0261933Y0125847D01*
X0261899Y0125776D01*
X0261861Y0125707D01*
X0261819Y0125639D01*
X0261774Y0125574D01*
X0261726Y0125511D01*
X0261675Y0125451D01*
X0261621Y0125393D01*
X0261564Y0125338D01*
X0261504Y0125286D01*
X0261442Y0125238D01*
X0261377Y0125192D01*
X0261310Y0125149D01*
X0261241Y0125110D01*
X0261171Y0125075D01*
X0261098Y0125043D01*
X0261024Y0125015D01*
X0260949Y0124990D01*
X0260872Y0124970D01*
X0260795Y0124953D01*
X0260717Y0124940D01*
X0260638Y0124931D01*
X0260559Y0124926D01*
X0260480Y0124925D01*
X0260401Y0124928D01*
X0260322Y0124935D01*
X0260244Y0124946D01*
X0260166Y0124961D01*
X0260089Y0124980D01*
X0260013Y0125002D01*
X0259939Y0125028D01*
X0259865Y0125058D01*
X0259794Y0125092D01*
X0259724Y0125129D01*
X0259656Y0125170D01*
X0259590Y0125214D01*
X0259527Y0125262D01*
X0259466Y0125312D01*
X0259407Y0125366D01*
X0259352Y0125422D01*
X0259299Y0125481D01*
X0259249Y0125543D01*
X0259203Y0125607D01*
X0259160Y0125673D01*
X0259120Y0125741D01*
X0259083Y0125812D01*
X0259051Y0125884D01*
X0259021Y0125957D01*
X0258996Y0126032D01*
X0258974Y0126108D01*
X0258957Y0126185D01*
X0258943Y0126263D01*
X0258933Y0126342D01*
X0258927Y0126421D01*
X0258925Y0126500D01*
X0258925Y0132500D02*
X0258927Y0132579D01*
X0258933Y0132658D01*
X0258943Y0132737D01*
X0258957Y0132815D01*
X0258974Y0132892D01*
X0258996Y0132968D01*
X0259021Y0133043D01*
X0259051Y0133116D01*
X0259083Y0133188D01*
X0259120Y0133259D01*
X0259160Y0133327D01*
X0259203Y0133393D01*
X0259249Y0133457D01*
X0259299Y0133519D01*
X0259352Y0133578D01*
X0259407Y0133634D01*
X0259466Y0133688D01*
X0259527Y0133738D01*
X0259590Y0133786D01*
X0259656Y0133830D01*
X0259724Y0133871D01*
X0259794Y0133908D01*
X0259865Y0133942D01*
X0259939Y0133972D01*
X0260013Y0133998D01*
X0260089Y0134020D01*
X0260166Y0134039D01*
X0260244Y0134054D01*
X0260322Y0134065D01*
X0260401Y0134072D01*
X0260480Y0134075D01*
X0260559Y0134074D01*
X0260638Y0134069D01*
X0260717Y0134060D01*
X0260795Y0134047D01*
X0260872Y0134030D01*
X0260949Y0134010D01*
X0261024Y0133985D01*
X0261098Y0133957D01*
X0261171Y0133925D01*
X0261241Y0133890D01*
X0261310Y0133851D01*
X0261377Y0133808D01*
X0261442Y0133762D01*
X0261504Y0133714D01*
X0261564Y0133662D01*
X0261621Y0133607D01*
X0261675Y0133549D01*
X0261726Y0133489D01*
X0261774Y0133426D01*
X0261819Y0133361D01*
X0261861Y0133293D01*
X0261899Y0133224D01*
X0261933Y0133153D01*
X0261964Y0133080D01*
X0261992Y0133005D01*
X0262015Y0132930D01*
X0262035Y0132853D01*
X0262051Y0132776D01*
X0262063Y0132697D01*
X0262071Y0132619D01*
X0262075Y0132540D01*
X0262075Y0132460D01*
X0262071Y0132381D01*
X0262063Y0132303D01*
X0262051Y0132224D01*
X0262035Y0132147D01*
X0262015Y0132070D01*
X0261992Y0131995D01*
X0261964Y0131920D01*
X0261933Y0131847D01*
X0261899Y0131776D01*
X0261861Y0131707D01*
X0261819Y0131639D01*
X0261774Y0131574D01*
X0261726Y0131511D01*
X0261675Y0131451D01*
X0261621Y0131393D01*
X0261564Y0131338D01*
X0261504Y0131286D01*
X0261442Y0131238D01*
X0261377Y0131192D01*
X0261310Y0131149D01*
X0261241Y0131110D01*
X0261171Y0131075D01*
X0261098Y0131043D01*
X0261024Y0131015D01*
X0260949Y0130990D01*
X0260872Y0130970D01*
X0260795Y0130953D01*
X0260717Y0130940D01*
X0260638Y0130931D01*
X0260559Y0130926D01*
X0260480Y0130925D01*
X0260401Y0130928D01*
X0260322Y0130935D01*
X0260244Y0130946D01*
X0260166Y0130961D01*
X0260089Y0130980D01*
X0260013Y0131002D01*
X0259939Y0131028D01*
X0259865Y0131058D01*
X0259794Y0131092D01*
X0259724Y0131129D01*
X0259656Y0131170D01*
X0259590Y0131214D01*
X0259527Y0131262D01*
X0259466Y0131312D01*
X0259407Y0131366D01*
X0259352Y0131422D01*
X0259299Y0131481D01*
X0259249Y0131543D01*
X0259203Y0131607D01*
X0259160Y0131673D01*
X0259120Y0131741D01*
X0259083Y0131812D01*
X0259051Y0131884D01*
X0259021Y0131957D01*
X0258996Y0132032D01*
X0258974Y0132108D01*
X0258957Y0132185D01*
X0258943Y0132263D01*
X0258933Y0132342D01*
X0258927Y0132421D01*
X0258925Y0132500D01*
X0258925Y0138500D02*
X0258927Y0138579D01*
X0258933Y0138658D01*
X0258943Y0138737D01*
X0258957Y0138815D01*
X0258974Y0138892D01*
X0258996Y0138968D01*
X0259021Y0139043D01*
X0259051Y0139116D01*
X0259083Y0139188D01*
X0259120Y0139259D01*
X0259160Y0139327D01*
X0259203Y0139393D01*
X0259249Y0139457D01*
X0259299Y0139519D01*
X0259352Y0139578D01*
X0259407Y0139634D01*
X0259466Y0139688D01*
X0259527Y0139738D01*
X0259590Y0139786D01*
X0259656Y0139830D01*
X0259724Y0139871D01*
X0259794Y0139908D01*
X0259865Y0139942D01*
X0259939Y0139972D01*
X0260013Y0139998D01*
X0260089Y0140020D01*
X0260166Y0140039D01*
X0260244Y0140054D01*
X0260322Y0140065D01*
X0260401Y0140072D01*
X0260480Y0140075D01*
X0260559Y0140074D01*
X0260638Y0140069D01*
X0260717Y0140060D01*
X0260795Y0140047D01*
X0260872Y0140030D01*
X0260949Y0140010D01*
X0261024Y0139985D01*
X0261098Y0139957D01*
X0261171Y0139925D01*
X0261241Y0139890D01*
X0261310Y0139851D01*
X0261377Y0139808D01*
X0261442Y0139762D01*
X0261504Y0139714D01*
X0261564Y0139662D01*
X0261621Y0139607D01*
X0261675Y0139549D01*
X0261726Y0139489D01*
X0261774Y0139426D01*
X0261819Y0139361D01*
X0261861Y0139293D01*
X0261899Y0139224D01*
X0261933Y0139153D01*
X0261964Y0139080D01*
X0261992Y0139005D01*
X0262015Y0138930D01*
X0262035Y0138853D01*
X0262051Y0138776D01*
X0262063Y0138697D01*
X0262071Y0138619D01*
X0262075Y0138540D01*
X0262075Y0138460D01*
X0262071Y0138381D01*
X0262063Y0138303D01*
X0262051Y0138224D01*
X0262035Y0138147D01*
X0262015Y0138070D01*
X0261992Y0137995D01*
X0261964Y0137920D01*
X0261933Y0137847D01*
X0261899Y0137776D01*
X0261861Y0137707D01*
X0261819Y0137639D01*
X0261774Y0137574D01*
X0261726Y0137511D01*
X0261675Y0137451D01*
X0261621Y0137393D01*
X0261564Y0137338D01*
X0261504Y0137286D01*
X0261442Y0137238D01*
X0261377Y0137192D01*
X0261310Y0137149D01*
X0261241Y0137110D01*
X0261171Y0137075D01*
X0261098Y0137043D01*
X0261024Y0137015D01*
X0260949Y0136990D01*
X0260872Y0136970D01*
X0260795Y0136953D01*
X0260717Y0136940D01*
X0260638Y0136931D01*
X0260559Y0136926D01*
X0260480Y0136925D01*
X0260401Y0136928D01*
X0260322Y0136935D01*
X0260244Y0136946D01*
X0260166Y0136961D01*
X0260089Y0136980D01*
X0260013Y0137002D01*
X0259939Y0137028D01*
X0259865Y0137058D01*
X0259794Y0137092D01*
X0259724Y0137129D01*
X0259656Y0137170D01*
X0259590Y0137214D01*
X0259527Y0137262D01*
X0259466Y0137312D01*
X0259407Y0137366D01*
X0259352Y0137422D01*
X0259299Y0137481D01*
X0259249Y0137543D01*
X0259203Y0137607D01*
X0259160Y0137673D01*
X0259120Y0137741D01*
X0259083Y0137812D01*
X0259051Y0137884D01*
X0259021Y0137957D01*
X0258996Y0138032D01*
X0258974Y0138108D01*
X0258957Y0138185D01*
X0258943Y0138263D01*
X0258933Y0138342D01*
X0258927Y0138421D01*
X0258925Y0138500D01*
X0258925Y0144500D02*
X0258927Y0144579D01*
X0258933Y0144658D01*
X0258943Y0144737D01*
X0258957Y0144815D01*
X0258974Y0144892D01*
X0258996Y0144968D01*
X0259021Y0145043D01*
X0259051Y0145116D01*
X0259083Y0145188D01*
X0259120Y0145259D01*
X0259160Y0145327D01*
X0259203Y0145393D01*
X0259249Y0145457D01*
X0259299Y0145519D01*
X0259352Y0145578D01*
X0259407Y0145634D01*
X0259466Y0145688D01*
X0259527Y0145738D01*
X0259590Y0145786D01*
X0259656Y0145830D01*
X0259724Y0145871D01*
X0259794Y0145908D01*
X0259865Y0145942D01*
X0259939Y0145972D01*
X0260013Y0145998D01*
X0260089Y0146020D01*
X0260166Y0146039D01*
X0260244Y0146054D01*
X0260322Y0146065D01*
X0260401Y0146072D01*
X0260480Y0146075D01*
X0260559Y0146074D01*
X0260638Y0146069D01*
X0260717Y0146060D01*
X0260795Y0146047D01*
X0260872Y0146030D01*
X0260949Y0146010D01*
X0261024Y0145985D01*
X0261098Y0145957D01*
X0261171Y0145925D01*
X0261241Y0145890D01*
X0261310Y0145851D01*
X0261377Y0145808D01*
X0261442Y0145762D01*
X0261504Y0145714D01*
X0261564Y0145662D01*
X0261621Y0145607D01*
X0261675Y0145549D01*
X0261726Y0145489D01*
X0261774Y0145426D01*
X0261819Y0145361D01*
X0261861Y0145293D01*
X0261899Y0145224D01*
X0261933Y0145153D01*
X0261964Y0145080D01*
X0261992Y0145005D01*
X0262015Y0144930D01*
X0262035Y0144853D01*
X0262051Y0144776D01*
X0262063Y0144697D01*
X0262071Y0144619D01*
X0262075Y0144540D01*
X0262075Y0144460D01*
X0262071Y0144381D01*
X0262063Y0144303D01*
X0262051Y0144224D01*
X0262035Y0144147D01*
X0262015Y0144070D01*
X0261992Y0143995D01*
X0261964Y0143920D01*
X0261933Y0143847D01*
X0261899Y0143776D01*
X0261861Y0143707D01*
X0261819Y0143639D01*
X0261774Y0143574D01*
X0261726Y0143511D01*
X0261675Y0143451D01*
X0261621Y0143393D01*
X0261564Y0143338D01*
X0261504Y0143286D01*
X0261442Y0143238D01*
X0261377Y0143192D01*
X0261310Y0143149D01*
X0261241Y0143110D01*
X0261171Y0143075D01*
X0261098Y0143043D01*
X0261024Y0143015D01*
X0260949Y0142990D01*
X0260872Y0142970D01*
X0260795Y0142953D01*
X0260717Y0142940D01*
X0260638Y0142931D01*
X0260559Y0142926D01*
X0260480Y0142925D01*
X0260401Y0142928D01*
X0260322Y0142935D01*
X0260244Y0142946D01*
X0260166Y0142961D01*
X0260089Y0142980D01*
X0260013Y0143002D01*
X0259939Y0143028D01*
X0259865Y0143058D01*
X0259794Y0143092D01*
X0259724Y0143129D01*
X0259656Y0143170D01*
X0259590Y0143214D01*
X0259527Y0143262D01*
X0259466Y0143312D01*
X0259407Y0143366D01*
X0259352Y0143422D01*
X0259299Y0143481D01*
X0259249Y0143543D01*
X0259203Y0143607D01*
X0259160Y0143673D01*
X0259120Y0143741D01*
X0259083Y0143812D01*
X0259051Y0143884D01*
X0259021Y0143957D01*
X0258996Y0144032D01*
X0258974Y0144108D01*
X0258957Y0144185D01*
X0258943Y0144263D01*
X0258933Y0144342D01*
X0258927Y0144421D01*
X0258925Y0144500D01*
X0258925Y0150500D02*
X0258927Y0150579D01*
X0258933Y0150658D01*
X0258943Y0150737D01*
X0258957Y0150815D01*
X0258974Y0150892D01*
X0258996Y0150968D01*
X0259021Y0151043D01*
X0259051Y0151116D01*
X0259083Y0151188D01*
X0259120Y0151259D01*
X0259160Y0151327D01*
X0259203Y0151393D01*
X0259249Y0151457D01*
X0259299Y0151519D01*
X0259352Y0151578D01*
X0259407Y0151634D01*
X0259466Y0151688D01*
X0259527Y0151738D01*
X0259590Y0151786D01*
X0259656Y0151830D01*
X0259724Y0151871D01*
X0259794Y0151908D01*
X0259865Y0151942D01*
X0259939Y0151972D01*
X0260013Y0151998D01*
X0260089Y0152020D01*
X0260166Y0152039D01*
X0260244Y0152054D01*
X0260322Y0152065D01*
X0260401Y0152072D01*
X0260480Y0152075D01*
X0260559Y0152074D01*
X0260638Y0152069D01*
X0260717Y0152060D01*
X0260795Y0152047D01*
X0260872Y0152030D01*
X0260949Y0152010D01*
X0261024Y0151985D01*
X0261098Y0151957D01*
X0261171Y0151925D01*
X0261241Y0151890D01*
X0261310Y0151851D01*
X0261377Y0151808D01*
X0261442Y0151762D01*
X0261504Y0151714D01*
X0261564Y0151662D01*
X0261621Y0151607D01*
X0261675Y0151549D01*
X0261726Y0151489D01*
X0261774Y0151426D01*
X0261819Y0151361D01*
X0261861Y0151293D01*
X0261899Y0151224D01*
X0261933Y0151153D01*
X0261964Y0151080D01*
X0261992Y0151005D01*
X0262015Y0150930D01*
X0262035Y0150853D01*
X0262051Y0150776D01*
X0262063Y0150697D01*
X0262071Y0150619D01*
X0262075Y0150540D01*
X0262075Y0150460D01*
X0262071Y0150381D01*
X0262063Y0150303D01*
X0262051Y0150224D01*
X0262035Y0150147D01*
X0262015Y0150070D01*
X0261992Y0149995D01*
X0261964Y0149920D01*
X0261933Y0149847D01*
X0261899Y0149776D01*
X0261861Y0149707D01*
X0261819Y0149639D01*
X0261774Y0149574D01*
X0261726Y0149511D01*
X0261675Y0149451D01*
X0261621Y0149393D01*
X0261564Y0149338D01*
X0261504Y0149286D01*
X0261442Y0149238D01*
X0261377Y0149192D01*
X0261310Y0149149D01*
X0261241Y0149110D01*
X0261171Y0149075D01*
X0261098Y0149043D01*
X0261024Y0149015D01*
X0260949Y0148990D01*
X0260872Y0148970D01*
X0260795Y0148953D01*
X0260717Y0148940D01*
X0260638Y0148931D01*
X0260559Y0148926D01*
X0260480Y0148925D01*
X0260401Y0148928D01*
X0260322Y0148935D01*
X0260244Y0148946D01*
X0260166Y0148961D01*
X0260089Y0148980D01*
X0260013Y0149002D01*
X0259939Y0149028D01*
X0259865Y0149058D01*
X0259794Y0149092D01*
X0259724Y0149129D01*
X0259656Y0149170D01*
X0259590Y0149214D01*
X0259527Y0149262D01*
X0259466Y0149312D01*
X0259407Y0149366D01*
X0259352Y0149422D01*
X0259299Y0149481D01*
X0259249Y0149543D01*
X0259203Y0149607D01*
X0259160Y0149673D01*
X0259120Y0149741D01*
X0259083Y0149812D01*
X0259051Y0149884D01*
X0259021Y0149957D01*
X0258996Y0150032D01*
X0258974Y0150108D01*
X0258957Y0150185D01*
X0258943Y0150263D01*
X0258933Y0150342D01*
X0258927Y0150421D01*
X0258925Y0150500D01*
X0261500Y0155500D02*
X0265500Y0155500D01*
X0265626Y0155502D01*
X0265751Y0155508D01*
X0265876Y0155518D01*
X0266001Y0155532D01*
X0266126Y0155549D01*
X0266250Y0155571D01*
X0266373Y0155596D01*
X0266495Y0155626D01*
X0266616Y0155659D01*
X0266736Y0155696D01*
X0266855Y0155736D01*
X0266972Y0155781D01*
X0267089Y0155829D01*
X0267203Y0155881D01*
X0267316Y0155936D01*
X0267427Y0155995D01*
X0267536Y0156057D01*
X0267643Y0156123D01*
X0267748Y0156192D01*
X0267851Y0156264D01*
X0267952Y0156339D01*
X0268050Y0156418D01*
X0268145Y0156500D01*
X0268238Y0156584D01*
X0268328Y0156672D01*
X0268416Y0156762D01*
X0268500Y0156855D01*
X0268582Y0156950D01*
X0268661Y0157048D01*
X0268736Y0157149D01*
X0268808Y0157252D01*
X0268877Y0157357D01*
X0268943Y0157464D01*
X0269005Y0157573D01*
X0269064Y0157684D01*
X0269119Y0157797D01*
X0269171Y0157911D01*
X0269219Y0158028D01*
X0269264Y0158145D01*
X0269304Y0158264D01*
X0269341Y0158384D01*
X0269374Y0158505D01*
X0269404Y0158627D01*
X0269429Y0158750D01*
X0269451Y0158874D01*
X0269468Y0158999D01*
X0269482Y0159124D01*
X0269492Y0159249D01*
X0269498Y0159374D01*
X0269500Y0159500D01*
X0269500Y0215500D01*
X0269498Y0215626D01*
X0269492Y0215751D01*
X0269482Y0215876D01*
X0269468Y0216001D01*
X0269451Y0216126D01*
X0269429Y0216250D01*
X0269404Y0216373D01*
X0269374Y0216495D01*
X0269341Y0216616D01*
X0269304Y0216736D01*
X0269264Y0216855D01*
X0269219Y0216972D01*
X0269171Y0217089D01*
X0269119Y0217203D01*
X0269064Y0217316D01*
X0269005Y0217427D01*
X0268943Y0217536D01*
X0268877Y0217643D01*
X0268808Y0217748D01*
X0268736Y0217851D01*
X0268661Y0217952D01*
X0268582Y0218050D01*
X0268500Y0218145D01*
X0268416Y0218238D01*
X0268328Y0218328D01*
X0268238Y0218416D01*
X0268145Y0218500D01*
X0268050Y0218582D01*
X0267952Y0218661D01*
X0267851Y0218736D01*
X0267748Y0218808D01*
X0267643Y0218877D01*
X0267536Y0218943D01*
X0267427Y0219005D01*
X0267316Y0219064D01*
X0267203Y0219119D01*
X0267089Y0219171D01*
X0266972Y0219219D01*
X0266855Y0219264D01*
X0266736Y0219304D01*
X0266616Y0219341D01*
X0266495Y0219374D01*
X0266373Y0219404D01*
X0266250Y0219429D01*
X0266126Y0219451D01*
X0266001Y0219468D01*
X0265876Y0219482D01*
X0265751Y0219492D01*
X0265626Y0219498D01*
X0265500Y0219500D01*
X0261500Y0219500D01*
X0261500Y0155500D01*
X0258925Y0156500D02*
X0258927Y0156579D01*
X0258933Y0156658D01*
X0258943Y0156737D01*
X0258957Y0156815D01*
X0258974Y0156892D01*
X0258996Y0156968D01*
X0259021Y0157043D01*
X0259051Y0157116D01*
X0259083Y0157188D01*
X0259120Y0157259D01*
X0259160Y0157327D01*
X0259203Y0157393D01*
X0259249Y0157457D01*
X0259299Y0157519D01*
X0259352Y0157578D01*
X0259407Y0157634D01*
X0259466Y0157688D01*
X0259527Y0157738D01*
X0259590Y0157786D01*
X0259656Y0157830D01*
X0259724Y0157871D01*
X0259794Y0157908D01*
X0259865Y0157942D01*
X0259939Y0157972D01*
X0260013Y0157998D01*
X0260089Y0158020D01*
X0260166Y0158039D01*
X0260244Y0158054D01*
X0260322Y0158065D01*
X0260401Y0158072D01*
X0260480Y0158075D01*
X0260559Y0158074D01*
X0260638Y0158069D01*
X0260717Y0158060D01*
X0260795Y0158047D01*
X0260872Y0158030D01*
X0260949Y0158010D01*
X0261024Y0157985D01*
X0261098Y0157957D01*
X0261171Y0157925D01*
X0261241Y0157890D01*
X0261310Y0157851D01*
X0261377Y0157808D01*
X0261442Y0157762D01*
X0261504Y0157714D01*
X0261564Y0157662D01*
X0261621Y0157607D01*
X0261675Y0157549D01*
X0261726Y0157489D01*
X0261774Y0157426D01*
X0261819Y0157361D01*
X0261861Y0157293D01*
X0261899Y0157224D01*
X0261933Y0157153D01*
X0261964Y0157080D01*
X0261992Y0157005D01*
X0262015Y0156930D01*
X0262035Y0156853D01*
X0262051Y0156776D01*
X0262063Y0156697D01*
X0262071Y0156619D01*
X0262075Y0156540D01*
X0262075Y0156460D01*
X0262071Y0156381D01*
X0262063Y0156303D01*
X0262051Y0156224D01*
X0262035Y0156147D01*
X0262015Y0156070D01*
X0261992Y0155995D01*
X0261964Y0155920D01*
X0261933Y0155847D01*
X0261899Y0155776D01*
X0261861Y0155707D01*
X0261819Y0155639D01*
X0261774Y0155574D01*
X0261726Y0155511D01*
X0261675Y0155451D01*
X0261621Y0155393D01*
X0261564Y0155338D01*
X0261504Y0155286D01*
X0261442Y0155238D01*
X0261377Y0155192D01*
X0261310Y0155149D01*
X0261241Y0155110D01*
X0261171Y0155075D01*
X0261098Y0155043D01*
X0261024Y0155015D01*
X0260949Y0154990D01*
X0260872Y0154970D01*
X0260795Y0154953D01*
X0260717Y0154940D01*
X0260638Y0154931D01*
X0260559Y0154926D01*
X0260480Y0154925D01*
X0260401Y0154928D01*
X0260322Y0154935D01*
X0260244Y0154946D01*
X0260166Y0154961D01*
X0260089Y0154980D01*
X0260013Y0155002D01*
X0259939Y0155028D01*
X0259865Y0155058D01*
X0259794Y0155092D01*
X0259724Y0155129D01*
X0259656Y0155170D01*
X0259590Y0155214D01*
X0259527Y0155262D01*
X0259466Y0155312D01*
X0259407Y0155366D01*
X0259352Y0155422D01*
X0259299Y0155481D01*
X0259249Y0155543D01*
X0259203Y0155607D01*
X0259160Y0155673D01*
X0259120Y0155741D01*
X0259083Y0155812D01*
X0259051Y0155884D01*
X0259021Y0155957D01*
X0258996Y0156032D01*
X0258974Y0156108D01*
X0258957Y0156185D01*
X0258943Y0156263D01*
X0258933Y0156342D01*
X0258927Y0156421D01*
X0258925Y0156500D01*
X0258925Y0218500D02*
X0258927Y0218579D01*
X0258933Y0218658D01*
X0258943Y0218737D01*
X0258957Y0218815D01*
X0258974Y0218892D01*
X0258996Y0218968D01*
X0259021Y0219043D01*
X0259051Y0219116D01*
X0259083Y0219188D01*
X0259120Y0219259D01*
X0259160Y0219327D01*
X0259203Y0219393D01*
X0259249Y0219457D01*
X0259299Y0219519D01*
X0259352Y0219578D01*
X0259407Y0219634D01*
X0259466Y0219688D01*
X0259527Y0219738D01*
X0259590Y0219786D01*
X0259656Y0219830D01*
X0259724Y0219871D01*
X0259794Y0219908D01*
X0259865Y0219942D01*
X0259939Y0219972D01*
X0260013Y0219998D01*
X0260089Y0220020D01*
X0260166Y0220039D01*
X0260244Y0220054D01*
X0260322Y0220065D01*
X0260401Y0220072D01*
X0260480Y0220075D01*
X0260559Y0220074D01*
X0260638Y0220069D01*
X0260717Y0220060D01*
X0260795Y0220047D01*
X0260872Y0220030D01*
X0260949Y0220010D01*
X0261024Y0219985D01*
X0261098Y0219957D01*
X0261171Y0219925D01*
X0261241Y0219890D01*
X0261310Y0219851D01*
X0261377Y0219808D01*
X0261442Y0219762D01*
X0261504Y0219714D01*
X0261564Y0219662D01*
X0261621Y0219607D01*
X0261675Y0219549D01*
X0261726Y0219489D01*
X0261774Y0219426D01*
X0261819Y0219361D01*
X0261861Y0219293D01*
X0261899Y0219224D01*
X0261933Y0219153D01*
X0261964Y0219080D01*
X0261992Y0219005D01*
X0262015Y0218930D01*
X0262035Y0218853D01*
X0262051Y0218776D01*
X0262063Y0218697D01*
X0262071Y0218619D01*
X0262075Y0218540D01*
X0262075Y0218460D01*
X0262071Y0218381D01*
X0262063Y0218303D01*
X0262051Y0218224D01*
X0262035Y0218147D01*
X0262015Y0218070D01*
X0261992Y0217995D01*
X0261964Y0217920D01*
X0261933Y0217847D01*
X0261899Y0217776D01*
X0261861Y0217707D01*
X0261819Y0217639D01*
X0261774Y0217574D01*
X0261726Y0217511D01*
X0261675Y0217451D01*
X0261621Y0217393D01*
X0261564Y0217338D01*
X0261504Y0217286D01*
X0261442Y0217238D01*
X0261377Y0217192D01*
X0261310Y0217149D01*
X0261241Y0217110D01*
X0261171Y0217075D01*
X0261098Y0217043D01*
X0261024Y0217015D01*
X0260949Y0216990D01*
X0260872Y0216970D01*
X0260795Y0216953D01*
X0260717Y0216940D01*
X0260638Y0216931D01*
X0260559Y0216926D01*
X0260480Y0216925D01*
X0260401Y0216928D01*
X0260322Y0216935D01*
X0260244Y0216946D01*
X0260166Y0216961D01*
X0260089Y0216980D01*
X0260013Y0217002D01*
X0259939Y0217028D01*
X0259865Y0217058D01*
X0259794Y0217092D01*
X0259724Y0217129D01*
X0259656Y0217170D01*
X0259590Y0217214D01*
X0259527Y0217262D01*
X0259466Y0217312D01*
X0259407Y0217366D01*
X0259352Y0217422D01*
X0259299Y0217481D01*
X0259249Y0217543D01*
X0259203Y0217607D01*
X0259160Y0217673D01*
X0259120Y0217741D01*
X0259083Y0217812D01*
X0259051Y0217884D01*
X0259021Y0217957D01*
X0258996Y0218032D01*
X0258974Y0218108D01*
X0258957Y0218185D01*
X0258943Y0218263D01*
X0258933Y0218342D01*
X0258927Y0218421D01*
X0258925Y0218500D01*
X0258925Y0224500D02*
X0258927Y0224579D01*
X0258933Y0224658D01*
X0258943Y0224737D01*
X0258957Y0224815D01*
X0258974Y0224892D01*
X0258996Y0224968D01*
X0259021Y0225043D01*
X0259051Y0225116D01*
X0259083Y0225188D01*
X0259120Y0225259D01*
X0259160Y0225327D01*
X0259203Y0225393D01*
X0259249Y0225457D01*
X0259299Y0225519D01*
X0259352Y0225578D01*
X0259407Y0225634D01*
X0259466Y0225688D01*
X0259527Y0225738D01*
X0259590Y0225786D01*
X0259656Y0225830D01*
X0259724Y0225871D01*
X0259794Y0225908D01*
X0259865Y0225942D01*
X0259939Y0225972D01*
X0260013Y0225998D01*
X0260089Y0226020D01*
X0260166Y0226039D01*
X0260244Y0226054D01*
X0260322Y0226065D01*
X0260401Y0226072D01*
X0260480Y0226075D01*
X0260559Y0226074D01*
X0260638Y0226069D01*
X0260717Y0226060D01*
X0260795Y0226047D01*
X0260872Y0226030D01*
X0260949Y0226010D01*
X0261024Y0225985D01*
X0261098Y0225957D01*
X0261171Y0225925D01*
X0261241Y0225890D01*
X0261310Y0225851D01*
X0261377Y0225808D01*
X0261442Y0225762D01*
X0261504Y0225714D01*
X0261564Y0225662D01*
X0261621Y0225607D01*
X0261675Y0225549D01*
X0261726Y0225489D01*
X0261774Y0225426D01*
X0261819Y0225361D01*
X0261861Y0225293D01*
X0261899Y0225224D01*
X0261933Y0225153D01*
X0261964Y0225080D01*
X0261992Y0225005D01*
X0262015Y0224930D01*
X0262035Y0224853D01*
X0262051Y0224776D01*
X0262063Y0224697D01*
X0262071Y0224619D01*
X0262075Y0224540D01*
X0262075Y0224460D01*
X0262071Y0224381D01*
X0262063Y0224303D01*
X0262051Y0224224D01*
X0262035Y0224147D01*
X0262015Y0224070D01*
X0261992Y0223995D01*
X0261964Y0223920D01*
X0261933Y0223847D01*
X0261899Y0223776D01*
X0261861Y0223707D01*
X0261819Y0223639D01*
X0261774Y0223574D01*
X0261726Y0223511D01*
X0261675Y0223451D01*
X0261621Y0223393D01*
X0261564Y0223338D01*
X0261504Y0223286D01*
X0261442Y0223238D01*
X0261377Y0223192D01*
X0261310Y0223149D01*
X0261241Y0223110D01*
X0261171Y0223075D01*
X0261098Y0223043D01*
X0261024Y0223015D01*
X0260949Y0222990D01*
X0260872Y0222970D01*
X0260795Y0222953D01*
X0260717Y0222940D01*
X0260638Y0222931D01*
X0260559Y0222926D01*
X0260480Y0222925D01*
X0260401Y0222928D01*
X0260322Y0222935D01*
X0260244Y0222946D01*
X0260166Y0222961D01*
X0260089Y0222980D01*
X0260013Y0223002D01*
X0259939Y0223028D01*
X0259865Y0223058D01*
X0259794Y0223092D01*
X0259724Y0223129D01*
X0259656Y0223170D01*
X0259590Y0223214D01*
X0259527Y0223262D01*
X0259466Y0223312D01*
X0259407Y0223366D01*
X0259352Y0223422D01*
X0259299Y0223481D01*
X0259249Y0223543D01*
X0259203Y0223607D01*
X0259160Y0223673D01*
X0259120Y0223741D01*
X0259083Y0223812D01*
X0259051Y0223884D01*
X0259021Y0223957D01*
X0258996Y0224032D01*
X0258974Y0224108D01*
X0258957Y0224185D01*
X0258943Y0224263D01*
X0258933Y0224342D01*
X0258927Y0224421D01*
X0258925Y0224500D01*
X0258925Y0230500D02*
X0258927Y0230579D01*
X0258933Y0230658D01*
X0258943Y0230737D01*
X0258957Y0230815D01*
X0258974Y0230892D01*
X0258996Y0230968D01*
X0259021Y0231043D01*
X0259051Y0231116D01*
X0259083Y0231188D01*
X0259120Y0231259D01*
X0259160Y0231327D01*
X0259203Y0231393D01*
X0259249Y0231457D01*
X0259299Y0231519D01*
X0259352Y0231578D01*
X0259407Y0231634D01*
X0259466Y0231688D01*
X0259527Y0231738D01*
X0259590Y0231786D01*
X0259656Y0231830D01*
X0259724Y0231871D01*
X0259794Y0231908D01*
X0259865Y0231942D01*
X0259939Y0231972D01*
X0260013Y0231998D01*
X0260089Y0232020D01*
X0260166Y0232039D01*
X0260244Y0232054D01*
X0260322Y0232065D01*
X0260401Y0232072D01*
X0260480Y0232075D01*
X0260559Y0232074D01*
X0260638Y0232069D01*
X0260717Y0232060D01*
X0260795Y0232047D01*
X0260872Y0232030D01*
X0260949Y0232010D01*
X0261024Y0231985D01*
X0261098Y0231957D01*
X0261171Y0231925D01*
X0261241Y0231890D01*
X0261310Y0231851D01*
X0261377Y0231808D01*
X0261442Y0231762D01*
X0261504Y0231714D01*
X0261564Y0231662D01*
X0261621Y0231607D01*
X0261675Y0231549D01*
X0261726Y0231489D01*
X0261774Y0231426D01*
X0261819Y0231361D01*
X0261861Y0231293D01*
X0261899Y0231224D01*
X0261933Y0231153D01*
X0261964Y0231080D01*
X0261992Y0231005D01*
X0262015Y0230930D01*
X0262035Y0230853D01*
X0262051Y0230776D01*
X0262063Y0230697D01*
X0262071Y0230619D01*
X0262075Y0230540D01*
X0262075Y0230460D01*
X0262071Y0230381D01*
X0262063Y0230303D01*
X0262051Y0230224D01*
X0262035Y0230147D01*
X0262015Y0230070D01*
X0261992Y0229995D01*
X0261964Y0229920D01*
X0261933Y0229847D01*
X0261899Y0229776D01*
X0261861Y0229707D01*
X0261819Y0229639D01*
X0261774Y0229574D01*
X0261726Y0229511D01*
X0261675Y0229451D01*
X0261621Y0229393D01*
X0261564Y0229338D01*
X0261504Y0229286D01*
X0261442Y0229238D01*
X0261377Y0229192D01*
X0261310Y0229149D01*
X0261241Y0229110D01*
X0261171Y0229075D01*
X0261098Y0229043D01*
X0261024Y0229015D01*
X0260949Y0228990D01*
X0260872Y0228970D01*
X0260795Y0228953D01*
X0260717Y0228940D01*
X0260638Y0228931D01*
X0260559Y0228926D01*
X0260480Y0228925D01*
X0260401Y0228928D01*
X0260322Y0228935D01*
X0260244Y0228946D01*
X0260166Y0228961D01*
X0260089Y0228980D01*
X0260013Y0229002D01*
X0259939Y0229028D01*
X0259865Y0229058D01*
X0259794Y0229092D01*
X0259724Y0229129D01*
X0259656Y0229170D01*
X0259590Y0229214D01*
X0259527Y0229262D01*
X0259466Y0229312D01*
X0259407Y0229366D01*
X0259352Y0229422D01*
X0259299Y0229481D01*
X0259249Y0229543D01*
X0259203Y0229607D01*
X0259160Y0229673D01*
X0259120Y0229741D01*
X0259083Y0229812D01*
X0259051Y0229884D01*
X0259021Y0229957D01*
X0258996Y0230032D01*
X0258974Y0230108D01*
X0258957Y0230185D01*
X0258943Y0230263D01*
X0258933Y0230342D01*
X0258927Y0230421D01*
X0258925Y0230500D01*
X0258925Y0236500D02*
X0258927Y0236579D01*
X0258933Y0236658D01*
X0258943Y0236737D01*
X0258957Y0236815D01*
X0258974Y0236892D01*
X0258996Y0236968D01*
X0259021Y0237043D01*
X0259051Y0237116D01*
X0259083Y0237188D01*
X0259120Y0237259D01*
X0259160Y0237327D01*
X0259203Y0237393D01*
X0259249Y0237457D01*
X0259299Y0237519D01*
X0259352Y0237578D01*
X0259407Y0237634D01*
X0259466Y0237688D01*
X0259527Y0237738D01*
X0259590Y0237786D01*
X0259656Y0237830D01*
X0259724Y0237871D01*
X0259794Y0237908D01*
X0259865Y0237942D01*
X0259939Y0237972D01*
X0260013Y0237998D01*
X0260089Y0238020D01*
X0260166Y0238039D01*
X0260244Y0238054D01*
X0260322Y0238065D01*
X0260401Y0238072D01*
X0260480Y0238075D01*
X0260559Y0238074D01*
X0260638Y0238069D01*
X0260717Y0238060D01*
X0260795Y0238047D01*
X0260872Y0238030D01*
X0260949Y0238010D01*
X0261024Y0237985D01*
X0261098Y0237957D01*
X0261171Y0237925D01*
X0261241Y0237890D01*
X0261310Y0237851D01*
X0261377Y0237808D01*
X0261442Y0237762D01*
X0261504Y0237714D01*
X0261564Y0237662D01*
X0261621Y0237607D01*
X0261675Y0237549D01*
X0261726Y0237489D01*
X0261774Y0237426D01*
X0261819Y0237361D01*
X0261861Y0237293D01*
X0261899Y0237224D01*
X0261933Y0237153D01*
X0261964Y0237080D01*
X0261992Y0237005D01*
X0262015Y0236930D01*
X0262035Y0236853D01*
X0262051Y0236776D01*
X0262063Y0236697D01*
X0262071Y0236619D01*
X0262075Y0236540D01*
X0262075Y0236460D01*
X0262071Y0236381D01*
X0262063Y0236303D01*
X0262051Y0236224D01*
X0262035Y0236147D01*
X0262015Y0236070D01*
X0261992Y0235995D01*
X0261964Y0235920D01*
X0261933Y0235847D01*
X0261899Y0235776D01*
X0261861Y0235707D01*
X0261819Y0235639D01*
X0261774Y0235574D01*
X0261726Y0235511D01*
X0261675Y0235451D01*
X0261621Y0235393D01*
X0261564Y0235338D01*
X0261504Y0235286D01*
X0261442Y0235238D01*
X0261377Y0235192D01*
X0261310Y0235149D01*
X0261241Y0235110D01*
X0261171Y0235075D01*
X0261098Y0235043D01*
X0261024Y0235015D01*
X0260949Y0234990D01*
X0260872Y0234970D01*
X0260795Y0234953D01*
X0260717Y0234940D01*
X0260638Y0234931D01*
X0260559Y0234926D01*
X0260480Y0234925D01*
X0260401Y0234928D01*
X0260322Y0234935D01*
X0260244Y0234946D01*
X0260166Y0234961D01*
X0260089Y0234980D01*
X0260013Y0235002D01*
X0259939Y0235028D01*
X0259865Y0235058D01*
X0259794Y0235092D01*
X0259724Y0235129D01*
X0259656Y0235170D01*
X0259590Y0235214D01*
X0259527Y0235262D01*
X0259466Y0235312D01*
X0259407Y0235366D01*
X0259352Y0235422D01*
X0259299Y0235481D01*
X0259249Y0235543D01*
X0259203Y0235607D01*
X0259160Y0235673D01*
X0259120Y0235741D01*
X0259083Y0235812D01*
X0259051Y0235884D01*
X0259021Y0235957D01*
X0258996Y0236032D01*
X0258974Y0236108D01*
X0258957Y0236185D01*
X0258943Y0236263D01*
X0258933Y0236342D01*
X0258927Y0236421D01*
X0258925Y0236500D01*
X0258925Y0242500D02*
X0258927Y0242579D01*
X0258933Y0242658D01*
X0258943Y0242737D01*
X0258957Y0242815D01*
X0258974Y0242892D01*
X0258996Y0242968D01*
X0259021Y0243043D01*
X0259051Y0243116D01*
X0259083Y0243188D01*
X0259120Y0243259D01*
X0259160Y0243327D01*
X0259203Y0243393D01*
X0259249Y0243457D01*
X0259299Y0243519D01*
X0259352Y0243578D01*
X0259407Y0243634D01*
X0259466Y0243688D01*
X0259527Y0243738D01*
X0259590Y0243786D01*
X0259656Y0243830D01*
X0259724Y0243871D01*
X0259794Y0243908D01*
X0259865Y0243942D01*
X0259939Y0243972D01*
X0260013Y0243998D01*
X0260089Y0244020D01*
X0260166Y0244039D01*
X0260244Y0244054D01*
X0260322Y0244065D01*
X0260401Y0244072D01*
X0260480Y0244075D01*
X0260559Y0244074D01*
X0260638Y0244069D01*
X0260717Y0244060D01*
X0260795Y0244047D01*
X0260872Y0244030D01*
X0260949Y0244010D01*
X0261024Y0243985D01*
X0261098Y0243957D01*
X0261171Y0243925D01*
X0261241Y0243890D01*
X0261310Y0243851D01*
X0261377Y0243808D01*
X0261442Y0243762D01*
X0261504Y0243714D01*
X0261564Y0243662D01*
X0261621Y0243607D01*
X0261675Y0243549D01*
X0261726Y0243489D01*
X0261774Y0243426D01*
X0261819Y0243361D01*
X0261861Y0243293D01*
X0261899Y0243224D01*
X0261933Y0243153D01*
X0261964Y0243080D01*
X0261992Y0243005D01*
X0262015Y0242930D01*
X0262035Y0242853D01*
X0262051Y0242776D01*
X0262063Y0242697D01*
X0262071Y0242619D01*
X0262075Y0242540D01*
X0262075Y0242460D01*
X0262071Y0242381D01*
X0262063Y0242303D01*
X0262051Y0242224D01*
X0262035Y0242147D01*
X0262015Y0242070D01*
X0261992Y0241995D01*
X0261964Y0241920D01*
X0261933Y0241847D01*
X0261899Y0241776D01*
X0261861Y0241707D01*
X0261819Y0241639D01*
X0261774Y0241574D01*
X0261726Y0241511D01*
X0261675Y0241451D01*
X0261621Y0241393D01*
X0261564Y0241338D01*
X0261504Y0241286D01*
X0261442Y0241238D01*
X0261377Y0241192D01*
X0261310Y0241149D01*
X0261241Y0241110D01*
X0261171Y0241075D01*
X0261098Y0241043D01*
X0261024Y0241015D01*
X0260949Y0240990D01*
X0260872Y0240970D01*
X0260795Y0240953D01*
X0260717Y0240940D01*
X0260638Y0240931D01*
X0260559Y0240926D01*
X0260480Y0240925D01*
X0260401Y0240928D01*
X0260322Y0240935D01*
X0260244Y0240946D01*
X0260166Y0240961D01*
X0260089Y0240980D01*
X0260013Y0241002D01*
X0259939Y0241028D01*
X0259865Y0241058D01*
X0259794Y0241092D01*
X0259724Y0241129D01*
X0259656Y0241170D01*
X0259590Y0241214D01*
X0259527Y0241262D01*
X0259466Y0241312D01*
X0259407Y0241366D01*
X0259352Y0241422D01*
X0259299Y0241481D01*
X0259249Y0241543D01*
X0259203Y0241607D01*
X0259160Y0241673D01*
X0259120Y0241741D01*
X0259083Y0241812D01*
X0259051Y0241884D01*
X0259021Y0241957D01*
X0258996Y0242032D01*
X0258974Y0242108D01*
X0258957Y0242185D01*
X0258943Y0242263D01*
X0258933Y0242342D01*
X0258927Y0242421D01*
X0258925Y0242500D01*
X0258925Y0248500D02*
X0258927Y0248579D01*
X0258933Y0248658D01*
X0258943Y0248737D01*
X0258957Y0248815D01*
X0258974Y0248892D01*
X0258996Y0248968D01*
X0259021Y0249043D01*
X0259051Y0249116D01*
X0259083Y0249188D01*
X0259120Y0249259D01*
X0259160Y0249327D01*
X0259203Y0249393D01*
X0259249Y0249457D01*
X0259299Y0249519D01*
X0259352Y0249578D01*
X0259407Y0249634D01*
X0259466Y0249688D01*
X0259527Y0249738D01*
X0259590Y0249786D01*
X0259656Y0249830D01*
X0259724Y0249871D01*
X0259794Y0249908D01*
X0259865Y0249942D01*
X0259939Y0249972D01*
X0260013Y0249998D01*
X0260089Y0250020D01*
X0260166Y0250039D01*
X0260244Y0250054D01*
X0260322Y0250065D01*
X0260401Y0250072D01*
X0260480Y0250075D01*
X0260559Y0250074D01*
X0260638Y0250069D01*
X0260717Y0250060D01*
X0260795Y0250047D01*
X0260872Y0250030D01*
X0260949Y0250010D01*
X0261024Y0249985D01*
X0261098Y0249957D01*
X0261171Y0249925D01*
X0261241Y0249890D01*
X0261310Y0249851D01*
X0261377Y0249808D01*
X0261442Y0249762D01*
X0261504Y0249714D01*
X0261564Y0249662D01*
X0261621Y0249607D01*
X0261675Y0249549D01*
X0261726Y0249489D01*
X0261774Y0249426D01*
X0261819Y0249361D01*
X0261861Y0249293D01*
X0261899Y0249224D01*
X0261933Y0249153D01*
X0261964Y0249080D01*
X0261992Y0249005D01*
X0262015Y0248930D01*
X0262035Y0248853D01*
X0262051Y0248776D01*
X0262063Y0248697D01*
X0262071Y0248619D01*
X0262075Y0248540D01*
X0262075Y0248460D01*
X0262071Y0248381D01*
X0262063Y0248303D01*
X0262051Y0248224D01*
X0262035Y0248147D01*
X0262015Y0248070D01*
X0261992Y0247995D01*
X0261964Y0247920D01*
X0261933Y0247847D01*
X0261899Y0247776D01*
X0261861Y0247707D01*
X0261819Y0247639D01*
X0261774Y0247574D01*
X0261726Y0247511D01*
X0261675Y0247451D01*
X0261621Y0247393D01*
X0261564Y0247338D01*
X0261504Y0247286D01*
X0261442Y0247238D01*
X0261377Y0247192D01*
X0261310Y0247149D01*
X0261241Y0247110D01*
X0261171Y0247075D01*
X0261098Y0247043D01*
X0261024Y0247015D01*
X0260949Y0246990D01*
X0260872Y0246970D01*
X0260795Y0246953D01*
X0260717Y0246940D01*
X0260638Y0246931D01*
X0260559Y0246926D01*
X0260480Y0246925D01*
X0260401Y0246928D01*
X0260322Y0246935D01*
X0260244Y0246946D01*
X0260166Y0246961D01*
X0260089Y0246980D01*
X0260013Y0247002D01*
X0259939Y0247028D01*
X0259865Y0247058D01*
X0259794Y0247092D01*
X0259724Y0247129D01*
X0259656Y0247170D01*
X0259590Y0247214D01*
X0259527Y0247262D01*
X0259466Y0247312D01*
X0259407Y0247366D01*
X0259352Y0247422D01*
X0259299Y0247481D01*
X0259249Y0247543D01*
X0259203Y0247607D01*
X0259160Y0247673D01*
X0259120Y0247741D01*
X0259083Y0247812D01*
X0259051Y0247884D01*
X0259021Y0247957D01*
X0258996Y0248032D01*
X0258974Y0248108D01*
X0258957Y0248185D01*
X0258943Y0248263D01*
X0258933Y0248342D01*
X0258927Y0248421D01*
X0258925Y0248500D01*
X0261500Y0253500D02*
X0265500Y0253500D01*
X0265626Y0253502D01*
X0265751Y0253508D01*
X0265876Y0253518D01*
X0266001Y0253532D01*
X0266126Y0253549D01*
X0266250Y0253571D01*
X0266373Y0253596D01*
X0266495Y0253626D01*
X0266616Y0253659D01*
X0266736Y0253696D01*
X0266855Y0253736D01*
X0266972Y0253781D01*
X0267089Y0253829D01*
X0267203Y0253881D01*
X0267316Y0253936D01*
X0267427Y0253995D01*
X0267536Y0254057D01*
X0267643Y0254123D01*
X0267748Y0254192D01*
X0267851Y0254264D01*
X0267952Y0254339D01*
X0268050Y0254418D01*
X0268145Y0254500D01*
X0268238Y0254584D01*
X0268328Y0254672D01*
X0268416Y0254762D01*
X0268500Y0254855D01*
X0268582Y0254950D01*
X0268661Y0255048D01*
X0268736Y0255149D01*
X0268808Y0255252D01*
X0268877Y0255357D01*
X0268943Y0255464D01*
X0269005Y0255573D01*
X0269064Y0255684D01*
X0269119Y0255797D01*
X0269171Y0255911D01*
X0269219Y0256028D01*
X0269264Y0256145D01*
X0269304Y0256264D01*
X0269341Y0256384D01*
X0269374Y0256505D01*
X0269404Y0256627D01*
X0269429Y0256750D01*
X0269451Y0256874D01*
X0269468Y0256999D01*
X0269482Y0257124D01*
X0269492Y0257249D01*
X0269498Y0257374D01*
X0269500Y0257500D01*
X0269500Y0313500D01*
X0269498Y0313626D01*
X0269492Y0313751D01*
X0269482Y0313876D01*
X0269468Y0314001D01*
X0269451Y0314126D01*
X0269429Y0314250D01*
X0269404Y0314373D01*
X0269374Y0314495D01*
X0269341Y0314616D01*
X0269304Y0314736D01*
X0269264Y0314855D01*
X0269219Y0314972D01*
X0269171Y0315089D01*
X0269119Y0315203D01*
X0269064Y0315316D01*
X0269005Y0315427D01*
X0268943Y0315536D01*
X0268877Y0315643D01*
X0268808Y0315748D01*
X0268736Y0315851D01*
X0268661Y0315952D01*
X0268582Y0316050D01*
X0268500Y0316145D01*
X0268416Y0316238D01*
X0268328Y0316328D01*
X0268238Y0316416D01*
X0268145Y0316500D01*
X0268050Y0316582D01*
X0267952Y0316661D01*
X0267851Y0316736D01*
X0267748Y0316808D01*
X0267643Y0316877D01*
X0267536Y0316943D01*
X0267427Y0317005D01*
X0267316Y0317064D01*
X0267203Y0317119D01*
X0267089Y0317171D01*
X0266972Y0317219D01*
X0266855Y0317264D01*
X0266736Y0317304D01*
X0266616Y0317341D01*
X0266495Y0317374D01*
X0266373Y0317404D01*
X0266250Y0317429D01*
X0266126Y0317451D01*
X0266001Y0317468D01*
X0265876Y0317482D01*
X0265751Y0317492D01*
X0265626Y0317498D01*
X0265500Y0317500D01*
X0261500Y0317500D01*
X0261500Y0253500D01*
X0258925Y0254500D02*
X0258927Y0254579D01*
X0258933Y0254658D01*
X0258943Y0254737D01*
X0258957Y0254815D01*
X0258974Y0254892D01*
X0258996Y0254968D01*
X0259021Y0255043D01*
X0259051Y0255116D01*
X0259083Y0255188D01*
X0259120Y0255259D01*
X0259160Y0255327D01*
X0259203Y0255393D01*
X0259249Y0255457D01*
X0259299Y0255519D01*
X0259352Y0255578D01*
X0259407Y0255634D01*
X0259466Y0255688D01*
X0259527Y0255738D01*
X0259590Y0255786D01*
X0259656Y0255830D01*
X0259724Y0255871D01*
X0259794Y0255908D01*
X0259865Y0255942D01*
X0259939Y0255972D01*
X0260013Y0255998D01*
X0260089Y0256020D01*
X0260166Y0256039D01*
X0260244Y0256054D01*
X0260322Y0256065D01*
X0260401Y0256072D01*
X0260480Y0256075D01*
X0260559Y0256074D01*
X0260638Y0256069D01*
X0260717Y0256060D01*
X0260795Y0256047D01*
X0260872Y0256030D01*
X0260949Y0256010D01*
X0261024Y0255985D01*
X0261098Y0255957D01*
X0261171Y0255925D01*
X0261241Y0255890D01*
X0261310Y0255851D01*
X0261377Y0255808D01*
X0261442Y0255762D01*
X0261504Y0255714D01*
X0261564Y0255662D01*
X0261621Y0255607D01*
X0261675Y0255549D01*
X0261726Y0255489D01*
X0261774Y0255426D01*
X0261819Y0255361D01*
X0261861Y0255293D01*
X0261899Y0255224D01*
X0261933Y0255153D01*
X0261964Y0255080D01*
X0261992Y0255005D01*
X0262015Y0254930D01*
X0262035Y0254853D01*
X0262051Y0254776D01*
X0262063Y0254697D01*
X0262071Y0254619D01*
X0262075Y0254540D01*
X0262075Y0254460D01*
X0262071Y0254381D01*
X0262063Y0254303D01*
X0262051Y0254224D01*
X0262035Y0254147D01*
X0262015Y0254070D01*
X0261992Y0253995D01*
X0261964Y0253920D01*
X0261933Y0253847D01*
X0261899Y0253776D01*
X0261861Y0253707D01*
X0261819Y0253639D01*
X0261774Y0253574D01*
X0261726Y0253511D01*
X0261675Y0253451D01*
X0261621Y0253393D01*
X0261564Y0253338D01*
X0261504Y0253286D01*
X0261442Y0253238D01*
X0261377Y0253192D01*
X0261310Y0253149D01*
X0261241Y0253110D01*
X0261171Y0253075D01*
X0261098Y0253043D01*
X0261024Y0253015D01*
X0260949Y0252990D01*
X0260872Y0252970D01*
X0260795Y0252953D01*
X0260717Y0252940D01*
X0260638Y0252931D01*
X0260559Y0252926D01*
X0260480Y0252925D01*
X0260401Y0252928D01*
X0260322Y0252935D01*
X0260244Y0252946D01*
X0260166Y0252961D01*
X0260089Y0252980D01*
X0260013Y0253002D01*
X0259939Y0253028D01*
X0259865Y0253058D01*
X0259794Y0253092D01*
X0259724Y0253129D01*
X0259656Y0253170D01*
X0259590Y0253214D01*
X0259527Y0253262D01*
X0259466Y0253312D01*
X0259407Y0253366D01*
X0259352Y0253422D01*
X0259299Y0253481D01*
X0259249Y0253543D01*
X0259203Y0253607D01*
X0259160Y0253673D01*
X0259120Y0253741D01*
X0259083Y0253812D01*
X0259051Y0253884D01*
X0259021Y0253957D01*
X0258996Y0254032D01*
X0258974Y0254108D01*
X0258957Y0254185D01*
X0258943Y0254263D01*
X0258933Y0254342D01*
X0258927Y0254421D01*
X0258925Y0254500D01*
X0226594Y0302500D02*
X0226596Y0302653D01*
X0226602Y0302807D01*
X0226612Y0302960D01*
X0226626Y0303112D01*
X0226644Y0303265D01*
X0226666Y0303416D01*
X0226691Y0303567D01*
X0226721Y0303718D01*
X0226755Y0303868D01*
X0226792Y0304016D01*
X0226833Y0304164D01*
X0226878Y0304310D01*
X0226927Y0304456D01*
X0226980Y0304600D01*
X0227036Y0304742D01*
X0227096Y0304883D01*
X0227160Y0305023D01*
X0227227Y0305161D01*
X0227298Y0305297D01*
X0227373Y0305431D01*
X0227450Y0305563D01*
X0227532Y0305693D01*
X0227616Y0305821D01*
X0227704Y0305947D01*
X0227795Y0306070D01*
X0227889Y0306191D01*
X0227987Y0306309D01*
X0228087Y0306425D01*
X0228191Y0306538D01*
X0228297Y0306649D01*
X0228406Y0306757D01*
X0228518Y0306862D01*
X0228632Y0306963D01*
X0228750Y0307062D01*
X0228869Y0307158D01*
X0228991Y0307251D01*
X0229116Y0307340D01*
X0229243Y0307427D01*
X0229372Y0307509D01*
X0229503Y0307589D01*
X0229636Y0307665D01*
X0229771Y0307738D01*
X0229908Y0307807D01*
X0230047Y0307872D01*
X0230187Y0307934D01*
X0230329Y0307992D01*
X0230472Y0308047D01*
X0230617Y0308098D01*
X0230763Y0308145D01*
X0230910Y0308188D01*
X0231058Y0308227D01*
X0231207Y0308263D01*
X0231357Y0308294D01*
X0231508Y0308322D01*
X0231659Y0308346D01*
X0231812Y0308366D01*
X0231964Y0308382D01*
X0232117Y0308394D01*
X0232270Y0308402D01*
X0232423Y0308406D01*
X0232577Y0308406D01*
X0232730Y0308402D01*
X0232883Y0308394D01*
X0233036Y0308382D01*
X0233188Y0308366D01*
X0233341Y0308346D01*
X0233492Y0308322D01*
X0233643Y0308294D01*
X0233793Y0308263D01*
X0233942Y0308227D01*
X0234090Y0308188D01*
X0234237Y0308145D01*
X0234383Y0308098D01*
X0234528Y0308047D01*
X0234671Y0307992D01*
X0234813Y0307934D01*
X0234953Y0307872D01*
X0235092Y0307807D01*
X0235229Y0307738D01*
X0235364Y0307665D01*
X0235497Y0307589D01*
X0235628Y0307509D01*
X0235757Y0307427D01*
X0235884Y0307340D01*
X0236009Y0307251D01*
X0236131Y0307158D01*
X0236250Y0307062D01*
X0236368Y0306963D01*
X0236482Y0306862D01*
X0236594Y0306757D01*
X0236703Y0306649D01*
X0236809Y0306538D01*
X0236913Y0306425D01*
X0237013Y0306309D01*
X0237111Y0306191D01*
X0237205Y0306070D01*
X0237296Y0305947D01*
X0237384Y0305821D01*
X0237468Y0305693D01*
X0237550Y0305563D01*
X0237627Y0305431D01*
X0237702Y0305297D01*
X0237773Y0305161D01*
X0237840Y0305023D01*
X0237904Y0304883D01*
X0237964Y0304742D01*
X0238020Y0304600D01*
X0238073Y0304456D01*
X0238122Y0304310D01*
X0238167Y0304164D01*
X0238208Y0304016D01*
X0238245Y0303868D01*
X0238279Y0303718D01*
X0238309Y0303567D01*
X0238334Y0303416D01*
X0238356Y0303265D01*
X0238374Y0303112D01*
X0238388Y0302960D01*
X0238398Y0302807D01*
X0238404Y0302653D01*
X0238406Y0302500D01*
X0238404Y0302347D01*
X0238398Y0302193D01*
X0238388Y0302040D01*
X0238374Y0301888D01*
X0238356Y0301735D01*
X0238334Y0301584D01*
X0238309Y0301433D01*
X0238279Y0301282D01*
X0238245Y0301132D01*
X0238208Y0300984D01*
X0238167Y0300836D01*
X0238122Y0300690D01*
X0238073Y0300544D01*
X0238020Y0300400D01*
X0237964Y0300258D01*
X0237904Y0300117D01*
X0237840Y0299977D01*
X0237773Y0299839D01*
X0237702Y0299703D01*
X0237627Y0299569D01*
X0237550Y0299437D01*
X0237468Y0299307D01*
X0237384Y0299179D01*
X0237296Y0299053D01*
X0237205Y0298930D01*
X0237111Y0298809D01*
X0237013Y0298691D01*
X0236913Y0298575D01*
X0236809Y0298462D01*
X0236703Y0298351D01*
X0236594Y0298243D01*
X0236482Y0298138D01*
X0236368Y0298037D01*
X0236250Y0297938D01*
X0236131Y0297842D01*
X0236009Y0297749D01*
X0235884Y0297660D01*
X0235757Y0297573D01*
X0235628Y0297491D01*
X0235497Y0297411D01*
X0235364Y0297335D01*
X0235229Y0297262D01*
X0235092Y0297193D01*
X0234953Y0297128D01*
X0234813Y0297066D01*
X0234671Y0297008D01*
X0234528Y0296953D01*
X0234383Y0296902D01*
X0234237Y0296855D01*
X0234090Y0296812D01*
X0233942Y0296773D01*
X0233793Y0296737D01*
X0233643Y0296706D01*
X0233492Y0296678D01*
X0233341Y0296654D01*
X0233188Y0296634D01*
X0233036Y0296618D01*
X0232883Y0296606D01*
X0232730Y0296598D01*
X0232577Y0296594D01*
X0232423Y0296594D01*
X0232270Y0296598D01*
X0232117Y0296606D01*
X0231964Y0296618D01*
X0231812Y0296634D01*
X0231659Y0296654D01*
X0231508Y0296678D01*
X0231357Y0296706D01*
X0231207Y0296737D01*
X0231058Y0296773D01*
X0230910Y0296812D01*
X0230763Y0296855D01*
X0230617Y0296902D01*
X0230472Y0296953D01*
X0230329Y0297008D01*
X0230187Y0297066D01*
X0230047Y0297128D01*
X0229908Y0297193D01*
X0229771Y0297262D01*
X0229636Y0297335D01*
X0229503Y0297411D01*
X0229372Y0297491D01*
X0229243Y0297573D01*
X0229116Y0297660D01*
X0228991Y0297749D01*
X0228869Y0297842D01*
X0228750Y0297938D01*
X0228632Y0298037D01*
X0228518Y0298138D01*
X0228406Y0298243D01*
X0228297Y0298351D01*
X0228191Y0298462D01*
X0228087Y0298575D01*
X0227987Y0298691D01*
X0227889Y0298809D01*
X0227795Y0298930D01*
X0227704Y0299053D01*
X0227616Y0299179D01*
X0227532Y0299307D01*
X0227450Y0299437D01*
X0227373Y0299569D01*
X0227298Y0299703D01*
X0227227Y0299839D01*
X0227160Y0299977D01*
X0227096Y0300117D01*
X0227036Y0300258D01*
X0226980Y0300400D01*
X0226927Y0300544D01*
X0226878Y0300690D01*
X0226833Y0300836D01*
X0226792Y0300984D01*
X0226755Y0301132D01*
X0226721Y0301282D01*
X0226691Y0301433D01*
X0226666Y0301584D01*
X0226644Y0301735D01*
X0226626Y0301888D01*
X0226612Y0302040D01*
X0226602Y0302193D01*
X0226596Y0302347D01*
X0226594Y0302500D01*
X0258925Y0316500D02*
X0258927Y0316579D01*
X0258933Y0316658D01*
X0258943Y0316737D01*
X0258957Y0316815D01*
X0258974Y0316892D01*
X0258996Y0316968D01*
X0259021Y0317043D01*
X0259051Y0317116D01*
X0259083Y0317188D01*
X0259120Y0317259D01*
X0259160Y0317327D01*
X0259203Y0317393D01*
X0259249Y0317457D01*
X0259299Y0317519D01*
X0259352Y0317578D01*
X0259407Y0317634D01*
X0259466Y0317688D01*
X0259527Y0317738D01*
X0259590Y0317786D01*
X0259656Y0317830D01*
X0259724Y0317871D01*
X0259794Y0317908D01*
X0259865Y0317942D01*
X0259939Y0317972D01*
X0260013Y0317998D01*
X0260089Y0318020D01*
X0260166Y0318039D01*
X0260244Y0318054D01*
X0260322Y0318065D01*
X0260401Y0318072D01*
X0260480Y0318075D01*
X0260559Y0318074D01*
X0260638Y0318069D01*
X0260717Y0318060D01*
X0260795Y0318047D01*
X0260872Y0318030D01*
X0260949Y0318010D01*
X0261024Y0317985D01*
X0261098Y0317957D01*
X0261171Y0317925D01*
X0261241Y0317890D01*
X0261310Y0317851D01*
X0261377Y0317808D01*
X0261442Y0317762D01*
X0261504Y0317714D01*
X0261564Y0317662D01*
X0261621Y0317607D01*
X0261675Y0317549D01*
X0261726Y0317489D01*
X0261774Y0317426D01*
X0261819Y0317361D01*
X0261861Y0317293D01*
X0261899Y0317224D01*
X0261933Y0317153D01*
X0261964Y0317080D01*
X0261992Y0317005D01*
X0262015Y0316930D01*
X0262035Y0316853D01*
X0262051Y0316776D01*
X0262063Y0316697D01*
X0262071Y0316619D01*
X0262075Y0316540D01*
X0262075Y0316460D01*
X0262071Y0316381D01*
X0262063Y0316303D01*
X0262051Y0316224D01*
X0262035Y0316147D01*
X0262015Y0316070D01*
X0261992Y0315995D01*
X0261964Y0315920D01*
X0261933Y0315847D01*
X0261899Y0315776D01*
X0261861Y0315707D01*
X0261819Y0315639D01*
X0261774Y0315574D01*
X0261726Y0315511D01*
X0261675Y0315451D01*
X0261621Y0315393D01*
X0261564Y0315338D01*
X0261504Y0315286D01*
X0261442Y0315238D01*
X0261377Y0315192D01*
X0261310Y0315149D01*
X0261241Y0315110D01*
X0261171Y0315075D01*
X0261098Y0315043D01*
X0261024Y0315015D01*
X0260949Y0314990D01*
X0260872Y0314970D01*
X0260795Y0314953D01*
X0260717Y0314940D01*
X0260638Y0314931D01*
X0260559Y0314926D01*
X0260480Y0314925D01*
X0260401Y0314928D01*
X0260322Y0314935D01*
X0260244Y0314946D01*
X0260166Y0314961D01*
X0260089Y0314980D01*
X0260013Y0315002D01*
X0259939Y0315028D01*
X0259865Y0315058D01*
X0259794Y0315092D01*
X0259724Y0315129D01*
X0259656Y0315170D01*
X0259590Y0315214D01*
X0259527Y0315262D01*
X0259466Y0315312D01*
X0259407Y0315366D01*
X0259352Y0315422D01*
X0259299Y0315481D01*
X0259249Y0315543D01*
X0259203Y0315607D01*
X0259160Y0315673D01*
X0259120Y0315741D01*
X0259083Y0315812D01*
X0259051Y0315884D01*
X0259021Y0315957D01*
X0258996Y0316032D01*
X0258974Y0316108D01*
X0258957Y0316185D01*
X0258943Y0316263D01*
X0258933Y0316342D01*
X0258927Y0316421D01*
X0258925Y0316500D01*
X0258925Y0322500D02*
X0258927Y0322579D01*
X0258933Y0322658D01*
X0258943Y0322737D01*
X0258957Y0322815D01*
X0258974Y0322892D01*
X0258996Y0322968D01*
X0259021Y0323043D01*
X0259051Y0323116D01*
X0259083Y0323188D01*
X0259120Y0323259D01*
X0259160Y0323327D01*
X0259203Y0323393D01*
X0259249Y0323457D01*
X0259299Y0323519D01*
X0259352Y0323578D01*
X0259407Y0323634D01*
X0259466Y0323688D01*
X0259527Y0323738D01*
X0259590Y0323786D01*
X0259656Y0323830D01*
X0259724Y0323871D01*
X0259794Y0323908D01*
X0259865Y0323942D01*
X0259939Y0323972D01*
X0260013Y0323998D01*
X0260089Y0324020D01*
X0260166Y0324039D01*
X0260244Y0324054D01*
X0260322Y0324065D01*
X0260401Y0324072D01*
X0260480Y0324075D01*
X0260559Y0324074D01*
X0260638Y0324069D01*
X0260717Y0324060D01*
X0260795Y0324047D01*
X0260872Y0324030D01*
X0260949Y0324010D01*
X0261024Y0323985D01*
X0261098Y0323957D01*
X0261171Y0323925D01*
X0261241Y0323890D01*
X0261310Y0323851D01*
X0261377Y0323808D01*
X0261442Y0323762D01*
X0261504Y0323714D01*
X0261564Y0323662D01*
X0261621Y0323607D01*
X0261675Y0323549D01*
X0261726Y0323489D01*
X0261774Y0323426D01*
X0261819Y0323361D01*
X0261861Y0323293D01*
X0261899Y0323224D01*
X0261933Y0323153D01*
X0261964Y0323080D01*
X0261992Y0323005D01*
X0262015Y0322930D01*
X0262035Y0322853D01*
X0262051Y0322776D01*
X0262063Y0322697D01*
X0262071Y0322619D01*
X0262075Y0322540D01*
X0262075Y0322460D01*
X0262071Y0322381D01*
X0262063Y0322303D01*
X0262051Y0322224D01*
X0262035Y0322147D01*
X0262015Y0322070D01*
X0261992Y0321995D01*
X0261964Y0321920D01*
X0261933Y0321847D01*
X0261899Y0321776D01*
X0261861Y0321707D01*
X0261819Y0321639D01*
X0261774Y0321574D01*
X0261726Y0321511D01*
X0261675Y0321451D01*
X0261621Y0321393D01*
X0261564Y0321338D01*
X0261504Y0321286D01*
X0261442Y0321238D01*
X0261377Y0321192D01*
X0261310Y0321149D01*
X0261241Y0321110D01*
X0261171Y0321075D01*
X0261098Y0321043D01*
X0261024Y0321015D01*
X0260949Y0320990D01*
X0260872Y0320970D01*
X0260795Y0320953D01*
X0260717Y0320940D01*
X0260638Y0320931D01*
X0260559Y0320926D01*
X0260480Y0320925D01*
X0260401Y0320928D01*
X0260322Y0320935D01*
X0260244Y0320946D01*
X0260166Y0320961D01*
X0260089Y0320980D01*
X0260013Y0321002D01*
X0259939Y0321028D01*
X0259865Y0321058D01*
X0259794Y0321092D01*
X0259724Y0321129D01*
X0259656Y0321170D01*
X0259590Y0321214D01*
X0259527Y0321262D01*
X0259466Y0321312D01*
X0259407Y0321366D01*
X0259352Y0321422D01*
X0259299Y0321481D01*
X0259249Y0321543D01*
X0259203Y0321607D01*
X0259160Y0321673D01*
X0259120Y0321741D01*
X0259083Y0321812D01*
X0259051Y0321884D01*
X0259021Y0321957D01*
X0258996Y0322032D01*
X0258974Y0322108D01*
X0258957Y0322185D01*
X0258943Y0322263D01*
X0258933Y0322342D01*
X0258927Y0322421D01*
X0258925Y0322500D01*
X0258925Y0328500D02*
X0258927Y0328579D01*
X0258933Y0328658D01*
X0258943Y0328737D01*
X0258957Y0328815D01*
X0258974Y0328892D01*
X0258996Y0328968D01*
X0259021Y0329043D01*
X0259051Y0329116D01*
X0259083Y0329188D01*
X0259120Y0329259D01*
X0259160Y0329327D01*
X0259203Y0329393D01*
X0259249Y0329457D01*
X0259299Y0329519D01*
X0259352Y0329578D01*
X0259407Y0329634D01*
X0259466Y0329688D01*
X0259527Y0329738D01*
X0259590Y0329786D01*
X0259656Y0329830D01*
X0259724Y0329871D01*
X0259794Y0329908D01*
X0259865Y0329942D01*
X0259939Y0329972D01*
X0260013Y0329998D01*
X0260089Y0330020D01*
X0260166Y0330039D01*
X0260244Y0330054D01*
X0260322Y0330065D01*
X0260401Y0330072D01*
X0260480Y0330075D01*
X0260559Y0330074D01*
X0260638Y0330069D01*
X0260717Y0330060D01*
X0260795Y0330047D01*
X0260872Y0330030D01*
X0260949Y0330010D01*
X0261024Y0329985D01*
X0261098Y0329957D01*
X0261171Y0329925D01*
X0261241Y0329890D01*
X0261310Y0329851D01*
X0261377Y0329808D01*
X0261442Y0329762D01*
X0261504Y0329714D01*
X0261564Y0329662D01*
X0261621Y0329607D01*
X0261675Y0329549D01*
X0261726Y0329489D01*
X0261774Y0329426D01*
X0261819Y0329361D01*
X0261861Y0329293D01*
X0261899Y0329224D01*
X0261933Y0329153D01*
X0261964Y0329080D01*
X0261992Y0329005D01*
X0262015Y0328930D01*
X0262035Y0328853D01*
X0262051Y0328776D01*
X0262063Y0328697D01*
X0262071Y0328619D01*
X0262075Y0328540D01*
X0262075Y0328460D01*
X0262071Y0328381D01*
X0262063Y0328303D01*
X0262051Y0328224D01*
X0262035Y0328147D01*
X0262015Y0328070D01*
X0261992Y0327995D01*
X0261964Y0327920D01*
X0261933Y0327847D01*
X0261899Y0327776D01*
X0261861Y0327707D01*
X0261819Y0327639D01*
X0261774Y0327574D01*
X0261726Y0327511D01*
X0261675Y0327451D01*
X0261621Y0327393D01*
X0261564Y0327338D01*
X0261504Y0327286D01*
X0261442Y0327238D01*
X0261377Y0327192D01*
X0261310Y0327149D01*
X0261241Y0327110D01*
X0261171Y0327075D01*
X0261098Y0327043D01*
X0261024Y0327015D01*
X0260949Y0326990D01*
X0260872Y0326970D01*
X0260795Y0326953D01*
X0260717Y0326940D01*
X0260638Y0326931D01*
X0260559Y0326926D01*
X0260480Y0326925D01*
X0260401Y0326928D01*
X0260322Y0326935D01*
X0260244Y0326946D01*
X0260166Y0326961D01*
X0260089Y0326980D01*
X0260013Y0327002D01*
X0259939Y0327028D01*
X0259865Y0327058D01*
X0259794Y0327092D01*
X0259724Y0327129D01*
X0259656Y0327170D01*
X0259590Y0327214D01*
X0259527Y0327262D01*
X0259466Y0327312D01*
X0259407Y0327366D01*
X0259352Y0327422D01*
X0259299Y0327481D01*
X0259249Y0327543D01*
X0259203Y0327607D01*
X0259160Y0327673D01*
X0259120Y0327741D01*
X0259083Y0327812D01*
X0259051Y0327884D01*
X0259021Y0327957D01*
X0258996Y0328032D01*
X0258974Y0328108D01*
X0258957Y0328185D01*
X0258943Y0328263D01*
X0258933Y0328342D01*
X0258927Y0328421D01*
X0258925Y0328500D01*
X0258925Y0334500D02*
X0258927Y0334579D01*
X0258933Y0334658D01*
X0258943Y0334737D01*
X0258957Y0334815D01*
X0258974Y0334892D01*
X0258996Y0334968D01*
X0259021Y0335043D01*
X0259051Y0335116D01*
X0259083Y0335188D01*
X0259120Y0335259D01*
X0259160Y0335327D01*
X0259203Y0335393D01*
X0259249Y0335457D01*
X0259299Y0335519D01*
X0259352Y0335578D01*
X0259407Y0335634D01*
X0259466Y0335688D01*
X0259527Y0335738D01*
X0259590Y0335786D01*
X0259656Y0335830D01*
X0259724Y0335871D01*
X0259794Y0335908D01*
X0259865Y0335942D01*
X0259939Y0335972D01*
X0260013Y0335998D01*
X0260089Y0336020D01*
X0260166Y0336039D01*
X0260244Y0336054D01*
X0260322Y0336065D01*
X0260401Y0336072D01*
X0260480Y0336075D01*
X0260559Y0336074D01*
X0260638Y0336069D01*
X0260717Y0336060D01*
X0260795Y0336047D01*
X0260872Y0336030D01*
X0260949Y0336010D01*
X0261024Y0335985D01*
X0261098Y0335957D01*
X0261171Y0335925D01*
X0261241Y0335890D01*
X0261310Y0335851D01*
X0261377Y0335808D01*
X0261442Y0335762D01*
X0261504Y0335714D01*
X0261564Y0335662D01*
X0261621Y0335607D01*
X0261675Y0335549D01*
X0261726Y0335489D01*
X0261774Y0335426D01*
X0261819Y0335361D01*
X0261861Y0335293D01*
X0261899Y0335224D01*
X0261933Y0335153D01*
X0261964Y0335080D01*
X0261992Y0335005D01*
X0262015Y0334930D01*
X0262035Y0334853D01*
X0262051Y0334776D01*
X0262063Y0334697D01*
X0262071Y0334619D01*
X0262075Y0334540D01*
X0262075Y0334460D01*
X0262071Y0334381D01*
X0262063Y0334303D01*
X0262051Y0334224D01*
X0262035Y0334147D01*
X0262015Y0334070D01*
X0261992Y0333995D01*
X0261964Y0333920D01*
X0261933Y0333847D01*
X0261899Y0333776D01*
X0261861Y0333707D01*
X0261819Y0333639D01*
X0261774Y0333574D01*
X0261726Y0333511D01*
X0261675Y0333451D01*
X0261621Y0333393D01*
X0261564Y0333338D01*
X0261504Y0333286D01*
X0261442Y0333238D01*
X0261377Y0333192D01*
X0261310Y0333149D01*
X0261241Y0333110D01*
X0261171Y0333075D01*
X0261098Y0333043D01*
X0261024Y0333015D01*
X0260949Y0332990D01*
X0260872Y0332970D01*
X0260795Y0332953D01*
X0260717Y0332940D01*
X0260638Y0332931D01*
X0260559Y0332926D01*
X0260480Y0332925D01*
X0260401Y0332928D01*
X0260322Y0332935D01*
X0260244Y0332946D01*
X0260166Y0332961D01*
X0260089Y0332980D01*
X0260013Y0333002D01*
X0259939Y0333028D01*
X0259865Y0333058D01*
X0259794Y0333092D01*
X0259724Y0333129D01*
X0259656Y0333170D01*
X0259590Y0333214D01*
X0259527Y0333262D01*
X0259466Y0333312D01*
X0259407Y0333366D01*
X0259352Y0333422D01*
X0259299Y0333481D01*
X0259249Y0333543D01*
X0259203Y0333607D01*
X0259160Y0333673D01*
X0259120Y0333741D01*
X0259083Y0333812D01*
X0259051Y0333884D01*
X0259021Y0333957D01*
X0258996Y0334032D01*
X0258974Y0334108D01*
X0258957Y0334185D01*
X0258943Y0334263D01*
X0258933Y0334342D01*
X0258927Y0334421D01*
X0258925Y0334500D01*
X0258925Y0340500D02*
X0258927Y0340579D01*
X0258933Y0340658D01*
X0258943Y0340737D01*
X0258957Y0340815D01*
X0258974Y0340892D01*
X0258996Y0340968D01*
X0259021Y0341043D01*
X0259051Y0341116D01*
X0259083Y0341188D01*
X0259120Y0341259D01*
X0259160Y0341327D01*
X0259203Y0341393D01*
X0259249Y0341457D01*
X0259299Y0341519D01*
X0259352Y0341578D01*
X0259407Y0341634D01*
X0259466Y0341688D01*
X0259527Y0341738D01*
X0259590Y0341786D01*
X0259656Y0341830D01*
X0259724Y0341871D01*
X0259794Y0341908D01*
X0259865Y0341942D01*
X0259939Y0341972D01*
X0260013Y0341998D01*
X0260089Y0342020D01*
X0260166Y0342039D01*
X0260244Y0342054D01*
X0260322Y0342065D01*
X0260401Y0342072D01*
X0260480Y0342075D01*
X0260559Y0342074D01*
X0260638Y0342069D01*
X0260717Y0342060D01*
X0260795Y0342047D01*
X0260872Y0342030D01*
X0260949Y0342010D01*
X0261024Y0341985D01*
X0261098Y0341957D01*
X0261171Y0341925D01*
X0261241Y0341890D01*
X0261310Y0341851D01*
X0261377Y0341808D01*
X0261442Y0341762D01*
X0261504Y0341714D01*
X0261564Y0341662D01*
X0261621Y0341607D01*
X0261675Y0341549D01*
X0261726Y0341489D01*
X0261774Y0341426D01*
X0261819Y0341361D01*
X0261861Y0341293D01*
X0261899Y0341224D01*
X0261933Y0341153D01*
X0261964Y0341080D01*
X0261992Y0341005D01*
X0262015Y0340930D01*
X0262035Y0340853D01*
X0262051Y0340776D01*
X0262063Y0340697D01*
X0262071Y0340619D01*
X0262075Y0340540D01*
X0262075Y0340460D01*
X0262071Y0340381D01*
X0262063Y0340303D01*
X0262051Y0340224D01*
X0262035Y0340147D01*
X0262015Y0340070D01*
X0261992Y0339995D01*
X0261964Y0339920D01*
X0261933Y0339847D01*
X0261899Y0339776D01*
X0261861Y0339707D01*
X0261819Y0339639D01*
X0261774Y0339574D01*
X0261726Y0339511D01*
X0261675Y0339451D01*
X0261621Y0339393D01*
X0261564Y0339338D01*
X0261504Y0339286D01*
X0261442Y0339238D01*
X0261377Y0339192D01*
X0261310Y0339149D01*
X0261241Y0339110D01*
X0261171Y0339075D01*
X0261098Y0339043D01*
X0261024Y0339015D01*
X0260949Y0338990D01*
X0260872Y0338970D01*
X0260795Y0338953D01*
X0260717Y0338940D01*
X0260638Y0338931D01*
X0260559Y0338926D01*
X0260480Y0338925D01*
X0260401Y0338928D01*
X0260322Y0338935D01*
X0260244Y0338946D01*
X0260166Y0338961D01*
X0260089Y0338980D01*
X0260013Y0339002D01*
X0259939Y0339028D01*
X0259865Y0339058D01*
X0259794Y0339092D01*
X0259724Y0339129D01*
X0259656Y0339170D01*
X0259590Y0339214D01*
X0259527Y0339262D01*
X0259466Y0339312D01*
X0259407Y0339366D01*
X0259352Y0339422D01*
X0259299Y0339481D01*
X0259249Y0339543D01*
X0259203Y0339607D01*
X0259160Y0339673D01*
X0259120Y0339741D01*
X0259083Y0339812D01*
X0259051Y0339884D01*
X0259021Y0339957D01*
X0258996Y0340032D01*
X0258974Y0340108D01*
X0258957Y0340185D01*
X0258943Y0340263D01*
X0258933Y0340342D01*
X0258927Y0340421D01*
X0258925Y0340500D01*
X0258925Y0346500D02*
X0258927Y0346579D01*
X0258933Y0346658D01*
X0258943Y0346737D01*
X0258957Y0346815D01*
X0258974Y0346892D01*
X0258996Y0346968D01*
X0259021Y0347043D01*
X0259051Y0347116D01*
X0259083Y0347188D01*
X0259120Y0347259D01*
X0259160Y0347327D01*
X0259203Y0347393D01*
X0259249Y0347457D01*
X0259299Y0347519D01*
X0259352Y0347578D01*
X0259407Y0347634D01*
X0259466Y0347688D01*
X0259527Y0347738D01*
X0259590Y0347786D01*
X0259656Y0347830D01*
X0259724Y0347871D01*
X0259794Y0347908D01*
X0259865Y0347942D01*
X0259939Y0347972D01*
X0260013Y0347998D01*
X0260089Y0348020D01*
X0260166Y0348039D01*
X0260244Y0348054D01*
X0260322Y0348065D01*
X0260401Y0348072D01*
X0260480Y0348075D01*
X0260559Y0348074D01*
X0260638Y0348069D01*
X0260717Y0348060D01*
X0260795Y0348047D01*
X0260872Y0348030D01*
X0260949Y0348010D01*
X0261024Y0347985D01*
X0261098Y0347957D01*
X0261171Y0347925D01*
X0261241Y0347890D01*
X0261310Y0347851D01*
X0261377Y0347808D01*
X0261442Y0347762D01*
X0261504Y0347714D01*
X0261564Y0347662D01*
X0261621Y0347607D01*
X0261675Y0347549D01*
X0261726Y0347489D01*
X0261774Y0347426D01*
X0261819Y0347361D01*
X0261861Y0347293D01*
X0261899Y0347224D01*
X0261933Y0347153D01*
X0261964Y0347080D01*
X0261992Y0347005D01*
X0262015Y0346930D01*
X0262035Y0346853D01*
X0262051Y0346776D01*
X0262063Y0346697D01*
X0262071Y0346619D01*
X0262075Y0346540D01*
X0262075Y0346460D01*
X0262071Y0346381D01*
X0262063Y0346303D01*
X0262051Y0346224D01*
X0262035Y0346147D01*
X0262015Y0346070D01*
X0261992Y0345995D01*
X0261964Y0345920D01*
X0261933Y0345847D01*
X0261899Y0345776D01*
X0261861Y0345707D01*
X0261819Y0345639D01*
X0261774Y0345574D01*
X0261726Y0345511D01*
X0261675Y0345451D01*
X0261621Y0345393D01*
X0261564Y0345338D01*
X0261504Y0345286D01*
X0261442Y0345238D01*
X0261377Y0345192D01*
X0261310Y0345149D01*
X0261241Y0345110D01*
X0261171Y0345075D01*
X0261098Y0345043D01*
X0261024Y0345015D01*
X0260949Y0344990D01*
X0260872Y0344970D01*
X0260795Y0344953D01*
X0260717Y0344940D01*
X0260638Y0344931D01*
X0260559Y0344926D01*
X0260480Y0344925D01*
X0260401Y0344928D01*
X0260322Y0344935D01*
X0260244Y0344946D01*
X0260166Y0344961D01*
X0260089Y0344980D01*
X0260013Y0345002D01*
X0259939Y0345028D01*
X0259865Y0345058D01*
X0259794Y0345092D01*
X0259724Y0345129D01*
X0259656Y0345170D01*
X0259590Y0345214D01*
X0259527Y0345262D01*
X0259466Y0345312D01*
X0259407Y0345366D01*
X0259352Y0345422D01*
X0259299Y0345481D01*
X0259249Y0345543D01*
X0259203Y0345607D01*
X0259160Y0345673D01*
X0259120Y0345741D01*
X0259083Y0345812D01*
X0259051Y0345884D01*
X0259021Y0345957D01*
X0258996Y0346032D01*
X0258974Y0346108D01*
X0258957Y0346185D01*
X0258943Y0346263D01*
X0258933Y0346342D01*
X0258927Y0346421D01*
X0258925Y0346500D01*
X0258925Y0352500D02*
X0258927Y0352579D01*
X0258933Y0352658D01*
X0258943Y0352737D01*
X0258957Y0352815D01*
X0258974Y0352892D01*
X0258996Y0352968D01*
X0259021Y0353043D01*
X0259051Y0353116D01*
X0259083Y0353188D01*
X0259120Y0353259D01*
X0259160Y0353327D01*
X0259203Y0353393D01*
X0259249Y0353457D01*
X0259299Y0353519D01*
X0259352Y0353578D01*
X0259407Y0353634D01*
X0259466Y0353688D01*
X0259527Y0353738D01*
X0259590Y0353786D01*
X0259656Y0353830D01*
X0259724Y0353871D01*
X0259794Y0353908D01*
X0259865Y0353942D01*
X0259939Y0353972D01*
X0260013Y0353998D01*
X0260089Y0354020D01*
X0260166Y0354039D01*
X0260244Y0354054D01*
X0260322Y0354065D01*
X0260401Y0354072D01*
X0260480Y0354075D01*
X0260559Y0354074D01*
X0260638Y0354069D01*
X0260717Y0354060D01*
X0260795Y0354047D01*
X0260872Y0354030D01*
X0260949Y0354010D01*
X0261024Y0353985D01*
X0261098Y0353957D01*
X0261171Y0353925D01*
X0261241Y0353890D01*
X0261310Y0353851D01*
X0261377Y0353808D01*
X0261442Y0353762D01*
X0261504Y0353714D01*
X0261564Y0353662D01*
X0261621Y0353607D01*
X0261675Y0353549D01*
X0261726Y0353489D01*
X0261774Y0353426D01*
X0261819Y0353361D01*
X0261861Y0353293D01*
X0261899Y0353224D01*
X0261933Y0353153D01*
X0261964Y0353080D01*
X0261992Y0353005D01*
X0262015Y0352930D01*
X0262035Y0352853D01*
X0262051Y0352776D01*
X0262063Y0352697D01*
X0262071Y0352619D01*
X0262075Y0352540D01*
X0262075Y0352460D01*
X0262071Y0352381D01*
X0262063Y0352303D01*
X0262051Y0352224D01*
X0262035Y0352147D01*
X0262015Y0352070D01*
X0261992Y0351995D01*
X0261964Y0351920D01*
X0261933Y0351847D01*
X0261899Y0351776D01*
X0261861Y0351707D01*
X0261819Y0351639D01*
X0261774Y0351574D01*
X0261726Y0351511D01*
X0261675Y0351451D01*
X0261621Y0351393D01*
X0261564Y0351338D01*
X0261504Y0351286D01*
X0261442Y0351238D01*
X0261377Y0351192D01*
X0261310Y0351149D01*
X0261241Y0351110D01*
X0261171Y0351075D01*
X0261098Y0351043D01*
X0261024Y0351015D01*
X0260949Y0350990D01*
X0260872Y0350970D01*
X0260795Y0350953D01*
X0260717Y0350940D01*
X0260638Y0350931D01*
X0260559Y0350926D01*
X0260480Y0350925D01*
X0260401Y0350928D01*
X0260322Y0350935D01*
X0260244Y0350946D01*
X0260166Y0350961D01*
X0260089Y0350980D01*
X0260013Y0351002D01*
X0259939Y0351028D01*
X0259865Y0351058D01*
X0259794Y0351092D01*
X0259724Y0351129D01*
X0259656Y0351170D01*
X0259590Y0351214D01*
X0259527Y0351262D01*
X0259466Y0351312D01*
X0259407Y0351366D01*
X0259352Y0351422D01*
X0259299Y0351481D01*
X0259249Y0351543D01*
X0259203Y0351607D01*
X0259160Y0351673D01*
X0259120Y0351741D01*
X0259083Y0351812D01*
X0259051Y0351884D01*
X0259021Y0351957D01*
X0258996Y0352032D01*
X0258974Y0352108D01*
X0258957Y0352185D01*
X0258943Y0352263D01*
X0258933Y0352342D01*
X0258927Y0352421D01*
X0258925Y0352500D01*
X0197461Y0353878D02*
X0197461Y0351122D01*
X0197459Y0351055D01*
X0197453Y0350987D01*
X0197444Y0350921D01*
X0197430Y0350855D01*
X0197413Y0350789D01*
X0197392Y0350725D01*
X0197368Y0350662D01*
X0197340Y0350601D01*
X0197308Y0350541D01*
X0197274Y0350484D01*
X0197235Y0350428D01*
X0197194Y0350374D01*
X0197150Y0350323D01*
X0197103Y0350275D01*
X0197053Y0350229D01*
X0197001Y0350187D01*
X0196947Y0350147D01*
X0196890Y0350111D01*
X0196831Y0350077D01*
X0196771Y0350048D01*
X0196708Y0350021D01*
X0196645Y0349999D01*
X0196580Y0349980D01*
X0196515Y0349965D01*
X0196448Y0349953D01*
X0196381Y0349945D01*
X0196314Y0349941D01*
X0196246Y0349941D01*
X0196179Y0349945D01*
X0196112Y0349953D01*
X0196045Y0349965D01*
X0195980Y0349980D01*
X0195915Y0349999D01*
X0195852Y0350021D01*
X0195789Y0350048D01*
X0195729Y0350077D01*
X0195670Y0350111D01*
X0195613Y0350147D01*
X0195559Y0350187D01*
X0195507Y0350229D01*
X0195457Y0350275D01*
X0195410Y0350323D01*
X0195366Y0350374D01*
X0195325Y0350428D01*
X0195286Y0350484D01*
X0195252Y0350541D01*
X0195220Y0350601D01*
X0195192Y0350662D01*
X0195168Y0350725D01*
X0195147Y0350789D01*
X0195130Y0350855D01*
X0195116Y0350921D01*
X0195107Y0350987D01*
X0195101Y0351055D01*
X0195099Y0351122D01*
X0195098Y0351122D02*
X0195098Y0353878D01*
X0195099Y0353878D02*
X0195101Y0353945D01*
X0195107Y0354013D01*
X0195116Y0354079D01*
X0195130Y0354145D01*
X0195147Y0354211D01*
X0195168Y0354275D01*
X0195192Y0354338D01*
X0195220Y0354399D01*
X0195252Y0354459D01*
X0195286Y0354516D01*
X0195325Y0354572D01*
X0195366Y0354626D01*
X0195410Y0354677D01*
X0195457Y0354725D01*
X0195507Y0354771D01*
X0195559Y0354813D01*
X0195613Y0354853D01*
X0195670Y0354889D01*
X0195729Y0354923D01*
X0195789Y0354952D01*
X0195852Y0354979D01*
X0195915Y0355001D01*
X0195980Y0355020D01*
X0196045Y0355035D01*
X0196112Y0355047D01*
X0196179Y0355055D01*
X0196246Y0355059D01*
X0196314Y0355059D01*
X0196381Y0355055D01*
X0196448Y0355047D01*
X0196515Y0355035D01*
X0196580Y0355020D01*
X0196645Y0355001D01*
X0196708Y0354979D01*
X0196771Y0354952D01*
X0196831Y0354923D01*
X0196890Y0354889D01*
X0196947Y0354853D01*
X0197001Y0354813D01*
X0197053Y0354771D01*
X0197103Y0354725D01*
X0197150Y0354677D01*
X0197194Y0354626D01*
X0197235Y0354572D01*
X0197274Y0354516D01*
X0197308Y0354459D01*
X0197340Y0354399D01*
X0197368Y0354338D01*
X0197392Y0354275D01*
X0197413Y0354211D01*
X0197430Y0354145D01*
X0197444Y0354079D01*
X0197453Y0354013D01*
X0197459Y0353945D01*
X0197461Y0353878D01*
X0190743Y0341870D02*
X0190745Y0341950D01*
X0190751Y0342029D01*
X0190761Y0342108D01*
X0190775Y0342187D01*
X0190792Y0342265D01*
X0190814Y0342342D01*
X0190839Y0342417D01*
X0190869Y0342491D01*
X0190901Y0342564D01*
X0190938Y0342635D01*
X0190978Y0342704D01*
X0191021Y0342771D01*
X0191068Y0342836D01*
X0191117Y0342898D01*
X0191170Y0342958D01*
X0191226Y0343015D01*
X0191284Y0343070D01*
X0191345Y0343121D01*
X0191409Y0343169D01*
X0191475Y0343214D01*
X0191543Y0343256D01*
X0191613Y0343294D01*
X0191685Y0343328D01*
X0191758Y0343359D01*
X0191833Y0343387D01*
X0191910Y0343410D01*
X0191987Y0343430D01*
X0192065Y0343446D01*
X0192144Y0343458D01*
X0192223Y0343466D01*
X0192303Y0343470D01*
X0192383Y0343470D01*
X0192463Y0343466D01*
X0192542Y0343458D01*
X0192621Y0343446D01*
X0192699Y0343430D01*
X0192776Y0343410D01*
X0192853Y0343387D01*
X0192928Y0343359D01*
X0193001Y0343328D01*
X0193073Y0343294D01*
X0193143Y0343256D01*
X0193211Y0343214D01*
X0193277Y0343169D01*
X0193341Y0343121D01*
X0193402Y0343070D01*
X0193460Y0343015D01*
X0193516Y0342958D01*
X0193569Y0342898D01*
X0193618Y0342836D01*
X0193665Y0342771D01*
X0193708Y0342704D01*
X0193748Y0342635D01*
X0193785Y0342564D01*
X0193817Y0342491D01*
X0193847Y0342417D01*
X0193872Y0342342D01*
X0193894Y0342265D01*
X0193911Y0342187D01*
X0193925Y0342108D01*
X0193935Y0342029D01*
X0193941Y0341950D01*
X0193943Y0341870D01*
X0193941Y0341790D01*
X0193935Y0341711D01*
X0193925Y0341632D01*
X0193911Y0341553D01*
X0193894Y0341475D01*
X0193872Y0341398D01*
X0193847Y0341323D01*
X0193817Y0341249D01*
X0193785Y0341176D01*
X0193748Y0341105D01*
X0193708Y0341036D01*
X0193665Y0340969D01*
X0193618Y0340904D01*
X0193569Y0340842D01*
X0193516Y0340782D01*
X0193460Y0340725D01*
X0193402Y0340670D01*
X0193341Y0340619D01*
X0193277Y0340571D01*
X0193211Y0340526D01*
X0193143Y0340484D01*
X0193073Y0340446D01*
X0193001Y0340412D01*
X0192928Y0340381D01*
X0192853Y0340353D01*
X0192776Y0340330D01*
X0192699Y0340310D01*
X0192621Y0340294D01*
X0192542Y0340282D01*
X0192463Y0340274D01*
X0192383Y0340270D01*
X0192303Y0340270D01*
X0192223Y0340274D01*
X0192144Y0340282D01*
X0192065Y0340294D01*
X0191987Y0340310D01*
X0191910Y0340330D01*
X0191833Y0340353D01*
X0191758Y0340381D01*
X0191685Y0340412D01*
X0191613Y0340446D01*
X0191543Y0340484D01*
X0191475Y0340526D01*
X0191409Y0340571D01*
X0191345Y0340619D01*
X0191284Y0340670D01*
X0191226Y0340725D01*
X0191170Y0340782D01*
X0191117Y0340842D01*
X0191068Y0340904D01*
X0191021Y0340969D01*
X0190978Y0341036D01*
X0190938Y0341105D01*
X0190901Y0341176D01*
X0190869Y0341249D01*
X0190839Y0341323D01*
X0190814Y0341398D01*
X0190792Y0341475D01*
X0190775Y0341553D01*
X0190761Y0341632D01*
X0190751Y0341711D01*
X0190745Y0341790D01*
X0190743Y0341870D01*
X0171057Y0341870D02*
X0171059Y0341950D01*
X0171065Y0342029D01*
X0171075Y0342108D01*
X0171089Y0342187D01*
X0171106Y0342265D01*
X0171128Y0342342D01*
X0171153Y0342417D01*
X0171183Y0342491D01*
X0171215Y0342564D01*
X0171252Y0342635D01*
X0171292Y0342704D01*
X0171335Y0342771D01*
X0171382Y0342836D01*
X0171431Y0342898D01*
X0171484Y0342958D01*
X0171540Y0343015D01*
X0171598Y0343070D01*
X0171659Y0343121D01*
X0171723Y0343169D01*
X0171789Y0343214D01*
X0171857Y0343256D01*
X0171927Y0343294D01*
X0171999Y0343328D01*
X0172072Y0343359D01*
X0172147Y0343387D01*
X0172224Y0343410D01*
X0172301Y0343430D01*
X0172379Y0343446D01*
X0172458Y0343458D01*
X0172537Y0343466D01*
X0172617Y0343470D01*
X0172697Y0343470D01*
X0172777Y0343466D01*
X0172856Y0343458D01*
X0172935Y0343446D01*
X0173013Y0343430D01*
X0173090Y0343410D01*
X0173167Y0343387D01*
X0173242Y0343359D01*
X0173315Y0343328D01*
X0173387Y0343294D01*
X0173457Y0343256D01*
X0173525Y0343214D01*
X0173591Y0343169D01*
X0173655Y0343121D01*
X0173716Y0343070D01*
X0173774Y0343015D01*
X0173830Y0342958D01*
X0173883Y0342898D01*
X0173932Y0342836D01*
X0173979Y0342771D01*
X0174022Y0342704D01*
X0174062Y0342635D01*
X0174099Y0342564D01*
X0174131Y0342491D01*
X0174161Y0342417D01*
X0174186Y0342342D01*
X0174208Y0342265D01*
X0174225Y0342187D01*
X0174239Y0342108D01*
X0174249Y0342029D01*
X0174255Y0341950D01*
X0174257Y0341870D01*
X0174255Y0341790D01*
X0174249Y0341711D01*
X0174239Y0341632D01*
X0174225Y0341553D01*
X0174208Y0341475D01*
X0174186Y0341398D01*
X0174161Y0341323D01*
X0174131Y0341249D01*
X0174099Y0341176D01*
X0174062Y0341105D01*
X0174022Y0341036D01*
X0173979Y0340969D01*
X0173932Y0340904D01*
X0173883Y0340842D01*
X0173830Y0340782D01*
X0173774Y0340725D01*
X0173716Y0340670D01*
X0173655Y0340619D01*
X0173591Y0340571D01*
X0173525Y0340526D01*
X0173457Y0340484D01*
X0173387Y0340446D01*
X0173315Y0340412D01*
X0173242Y0340381D01*
X0173167Y0340353D01*
X0173090Y0340330D01*
X0173013Y0340310D01*
X0172935Y0340294D01*
X0172856Y0340282D01*
X0172777Y0340274D01*
X0172697Y0340270D01*
X0172617Y0340270D01*
X0172537Y0340274D01*
X0172458Y0340282D01*
X0172379Y0340294D01*
X0172301Y0340310D01*
X0172224Y0340330D01*
X0172147Y0340353D01*
X0172072Y0340381D01*
X0171999Y0340412D01*
X0171927Y0340446D01*
X0171857Y0340484D01*
X0171789Y0340526D01*
X0171723Y0340571D01*
X0171659Y0340619D01*
X0171598Y0340670D01*
X0171540Y0340725D01*
X0171484Y0340782D01*
X0171431Y0340842D01*
X0171382Y0340904D01*
X0171335Y0340969D01*
X0171292Y0341036D01*
X0171252Y0341105D01*
X0171215Y0341176D01*
X0171183Y0341249D01*
X0171153Y0341323D01*
X0171128Y0341398D01*
X0171106Y0341475D01*
X0171089Y0341553D01*
X0171075Y0341632D01*
X0171065Y0341711D01*
X0171059Y0341790D01*
X0171057Y0341870D01*
X0171059Y0341949D01*
X0171065Y0342027D01*
X0171074Y0342105D01*
X0171088Y0342182D01*
X0171105Y0342259D01*
X0171126Y0342334D01*
X0171151Y0342409D01*
X0171179Y0342482D01*
X0171211Y0342554D01*
X0171246Y0342624D01*
X0171285Y0342693D01*
X0171327Y0342759D01*
X0171372Y0342823D01*
X0171420Y0342885D01*
X0171471Y0342944D01*
X0171526Y0343001D01*
X0171583Y0343056D01*
X0171642Y0343107D01*
X0171704Y0343155D01*
X0171768Y0343200D01*
X0171834Y0343242D01*
X0171903Y0343281D01*
X0171973Y0343316D01*
X0172045Y0343348D01*
X0172118Y0343376D01*
X0172193Y0343401D01*
X0172268Y0343422D01*
X0172345Y0343439D01*
X0172422Y0343453D01*
X0172500Y0343462D01*
X0172578Y0343468D01*
X0172657Y0343470D01*
X0172736Y0343468D01*
X0172814Y0343462D01*
X0172892Y0343453D01*
X0172969Y0343439D01*
X0173046Y0343422D01*
X0173121Y0343401D01*
X0173196Y0343376D01*
X0173269Y0343348D01*
X0173341Y0343316D01*
X0173411Y0343281D01*
X0173480Y0343242D01*
X0173546Y0343200D01*
X0173610Y0343155D01*
X0173672Y0343107D01*
X0173731Y0343056D01*
X0173788Y0343001D01*
X0173843Y0342944D01*
X0173894Y0342885D01*
X0173942Y0342823D01*
X0173987Y0342759D01*
X0174029Y0342693D01*
X0174068Y0342624D01*
X0174103Y0342554D01*
X0174135Y0342482D01*
X0174163Y0342409D01*
X0174188Y0342334D01*
X0174209Y0342259D01*
X0174226Y0342182D01*
X0174240Y0342105D01*
X0174249Y0342027D01*
X0174255Y0341949D01*
X0174257Y0341870D01*
X0174255Y0341791D01*
X0174249Y0341713D01*
X0174240Y0341635D01*
X0174226Y0341558D01*
X0174209Y0341481D01*
X0174188Y0341406D01*
X0174163Y0341331D01*
X0174135Y0341258D01*
X0174103Y0341186D01*
X0174068Y0341116D01*
X0174029Y0341047D01*
X0173987Y0340981D01*
X0173942Y0340917D01*
X0173894Y0340855D01*
X0173843Y0340796D01*
X0173788Y0340739D01*
X0173731Y0340684D01*
X0173672Y0340633D01*
X0173610Y0340585D01*
X0173546Y0340540D01*
X0173480Y0340498D01*
X0173411Y0340459D01*
X0173341Y0340424D01*
X0173269Y0340392D01*
X0173196Y0340364D01*
X0173121Y0340339D01*
X0173046Y0340318D01*
X0172969Y0340301D01*
X0172892Y0340287D01*
X0172814Y0340278D01*
X0172736Y0340272D01*
X0172657Y0340270D01*
X0172578Y0340272D01*
X0172500Y0340278D01*
X0172422Y0340287D01*
X0172345Y0340301D01*
X0172268Y0340318D01*
X0172193Y0340339D01*
X0172118Y0340364D01*
X0172045Y0340392D01*
X0171973Y0340424D01*
X0171903Y0340459D01*
X0171834Y0340498D01*
X0171768Y0340540D01*
X0171704Y0340585D01*
X0171642Y0340633D01*
X0171583Y0340684D01*
X0171526Y0340739D01*
X0171471Y0340796D01*
X0171420Y0340855D01*
X0171372Y0340917D01*
X0171327Y0340981D01*
X0171285Y0341047D01*
X0171246Y0341116D01*
X0171211Y0341186D01*
X0171179Y0341258D01*
X0171151Y0341331D01*
X0171126Y0341406D01*
X0171105Y0341481D01*
X0171088Y0341558D01*
X0171074Y0341635D01*
X0171065Y0341713D01*
X0171059Y0341791D01*
X0171057Y0341870D01*
X0169902Y0351122D02*
X0169902Y0353878D01*
X0169901Y0353878D02*
X0169899Y0353945D01*
X0169893Y0354013D01*
X0169884Y0354079D01*
X0169870Y0354145D01*
X0169853Y0354211D01*
X0169832Y0354275D01*
X0169808Y0354338D01*
X0169780Y0354399D01*
X0169748Y0354459D01*
X0169714Y0354516D01*
X0169675Y0354572D01*
X0169634Y0354626D01*
X0169590Y0354677D01*
X0169543Y0354725D01*
X0169493Y0354771D01*
X0169441Y0354813D01*
X0169387Y0354853D01*
X0169330Y0354889D01*
X0169271Y0354923D01*
X0169211Y0354952D01*
X0169148Y0354979D01*
X0169085Y0355001D01*
X0169020Y0355020D01*
X0168955Y0355035D01*
X0168888Y0355047D01*
X0168821Y0355055D01*
X0168754Y0355059D01*
X0168686Y0355059D01*
X0168619Y0355055D01*
X0168552Y0355047D01*
X0168485Y0355035D01*
X0168420Y0355020D01*
X0168355Y0355001D01*
X0168292Y0354979D01*
X0168229Y0354952D01*
X0168169Y0354923D01*
X0168110Y0354889D01*
X0168053Y0354853D01*
X0167999Y0354813D01*
X0167947Y0354771D01*
X0167897Y0354725D01*
X0167850Y0354677D01*
X0167806Y0354626D01*
X0167765Y0354572D01*
X0167726Y0354516D01*
X0167692Y0354459D01*
X0167660Y0354399D01*
X0167632Y0354338D01*
X0167608Y0354275D01*
X0167587Y0354211D01*
X0167570Y0354145D01*
X0167556Y0354079D01*
X0167547Y0354013D01*
X0167541Y0353945D01*
X0167539Y0353878D01*
X0167539Y0351122D01*
X0167541Y0351055D01*
X0167547Y0350987D01*
X0167556Y0350921D01*
X0167570Y0350855D01*
X0167587Y0350789D01*
X0167608Y0350725D01*
X0167632Y0350662D01*
X0167660Y0350601D01*
X0167692Y0350541D01*
X0167726Y0350484D01*
X0167765Y0350428D01*
X0167806Y0350374D01*
X0167850Y0350323D01*
X0167897Y0350275D01*
X0167947Y0350229D01*
X0167999Y0350187D01*
X0168053Y0350147D01*
X0168110Y0350111D01*
X0168169Y0350077D01*
X0168229Y0350048D01*
X0168292Y0350021D01*
X0168355Y0349999D01*
X0168420Y0349980D01*
X0168485Y0349965D01*
X0168552Y0349953D01*
X0168619Y0349945D01*
X0168686Y0349941D01*
X0168754Y0349941D01*
X0168821Y0349945D01*
X0168888Y0349953D01*
X0168955Y0349965D01*
X0169020Y0349980D01*
X0169085Y0349999D01*
X0169148Y0350021D01*
X0169211Y0350048D01*
X0169271Y0350077D01*
X0169330Y0350111D01*
X0169387Y0350147D01*
X0169441Y0350187D01*
X0169493Y0350229D01*
X0169543Y0350275D01*
X0169590Y0350323D01*
X0169634Y0350374D01*
X0169675Y0350428D01*
X0169714Y0350484D01*
X0169748Y0350541D01*
X0169780Y0350601D01*
X0169808Y0350662D01*
X0169832Y0350725D01*
X0169853Y0350789D01*
X0169870Y0350855D01*
X0169884Y0350921D01*
X0169893Y0350987D01*
X0169899Y0351055D01*
X0169901Y0351122D01*
X0082634Y0349000D02*
X0082636Y0349084D01*
X0082642Y0349167D01*
X0082652Y0349250D01*
X0082666Y0349333D01*
X0082683Y0349415D01*
X0082705Y0349496D01*
X0082730Y0349575D01*
X0082759Y0349654D01*
X0082792Y0349731D01*
X0082828Y0349806D01*
X0082868Y0349880D01*
X0082911Y0349952D01*
X0082958Y0350021D01*
X0083008Y0350088D01*
X0083061Y0350153D01*
X0083117Y0350215D01*
X0083175Y0350275D01*
X0083237Y0350332D01*
X0083301Y0350385D01*
X0083368Y0350436D01*
X0083437Y0350483D01*
X0083508Y0350528D01*
X0083581Y0350568D01*
X0083656Y0350605D01*
X0083733Y0350639D01*
X0083811Y0350669D01*
X0083890Y0350695D01*
X0083971Y0350718D01*
X0084053Y0350736D01*
X0084135Y0350751D01*
X0084218Y0350762D01*
X0084301Y0350769D01*
X0084385Y0350772D01*
X0084469Y0350771D01*
X0084552Y0350766D01*
X0084636Y0350757D01*
X0084718Y0350744D01*
X0084800Y0350728D01*
X0084881Y0350707D01*
X0084962Y0350683D01*
X0085040Y0350655D01*
X0085118Y0350623D01*
X0085194Y0350587D01*
X0085268Y0350548D01*
X0085340Y0350506D01*
X0085410Y0350460D01*
X0085478Y0350411D01*
X0085543Y0350359D01*
X0085606Y0350304D01*
X0085666Y0350246D01*
X0085724Y0350185D01*
X0085778Y0350121D01*
X0085830Y0350055D01*
X0085878Y0349987D01*
X0085923Y0349916D01*
X0085964Y0349843D01*
X0086003Y0349769D01*
X0086037Y0349693D01*
X0086068Y0349615D01*
X0086095Y0349536D01*
X0086119Y0349455D01*
X0086138Y0349374D01*
X0086154Y0349292D01*
X0086166Y0349209D01*
X0086174Y0349125D01*
X0086178Y0349042D01*
X0086178Y0348958D01*
X0086174Y0348875D01*
X0086166Y0348791D01*
X0086154Y0348708D01*
X0086138Y0348626D01*
X0086119Y0348545D01*
X0086095Y0348464D01*
X0086068Y0348385D01*
X0086037Y0348307D01*
X0086003Y0348231D01*
X0085964Y0348157D01*
X0085923Y0348084D01*
X0085878Y0348013D01*
X0085830Y0347945D01*
X0085778Y0347879D01*
X0085724Y0347815D01*
X0085666Y0347754D01*
X0085606Y0347696D01*
X0085543Y0347641D01*
X0085478Y0347589D01*
X0085410Y0347540D01*
X0085340Y0347494D01*
X0085268Y0347452D01*
X0085194Y0347413D01*
X0085118Y0347377D01*
X0085040Y0347345D01*
X0084962Y0347317D01*
X0084881Y0347293D01*
X0084800Y0347272D01*
X0084718Y0347256D01*
X0084636Y0347243D01*
X0084552Y0347234D01*
X0084469Y0347229D01*
X0084385Y0347228D01*
X0084301Y0347231D01*
X0084218Y0347238D01*
X0084135Y0347249D01*
X0084053Y0347264D01*
X0083971Y0347282D01*
X0083890Y0347305D01*
X0083811Y0347331D01*
X0083733Y0347361D01*
X0083656Y0347395D01*
X0083581Y0347432D01*
X0083508Y0347472D01*
X0083437Y0347517D01*
X0083368Y0347564D01*
X0083301Y0347615D01*
X0083237Y0347668D01*
X0083175Y0347725D01*
X0083117Y0347785D01*
X0083061Y0347847D01*
X0083008Y0347912D01*
X0082958Y0347979D01*
X0082911Y0348048D01*
X0082868Y0348120D01*
X0082828Y0348194D01*
X0082792Y0348269D01*
X0082759Y0348346D01*
X0082730Y0348425D01*
X0082705Y0348504D01*
X0082683Y0348585D01*
X0082666Y0348667D01*
X0082652Y0348750D01*
X0082642Y0348833D01*
X0082636Y0348916D01*
X0082634Y0349000D01*
X0070822Y0349000D02*
X0070824Y0349084D01*
X0070830Y0349167D01*
X0070840Y0349250D01*
X0070854Y0349333D01*
X0070871Y0349415D01*
X0070893Y0349496D01*
X0070918Y0349575D01*
X0070947Y0349654D01*
X0070980Y0349731D01*
X0071016Y0349806D01*
X0071056Y0349880D01*
X0071099Y0349952D01*
X0071146Y0350021D01*
X0071196Y0350088D01*
X0071249Y0350153D01*
X0071305Y0350215D01*
X0071363Y0350275D01*
X0071425Y0350332D01*
X0071489Y0350385D01*
X0071556Y0350436D01*
X0071625Y0350483D01*
X0071696Y0350528D01*
X0071769Y0350568D01*
X0071844Y0350605D01*
X0071921Y0350639D01*
X0071999Y0350669D01*
X0072078Y0350695D01*
X0072159Y0350718D01*
X0072241Y0350736D01*
X0072323Y0350751D01*
X0072406Y0350762D01*
X0072489Y0350769D01*
X0072573Y0350772D01*
X0072657Y0350771D01*
X0072740Y0350766D01*
X0072824Y0350757D01*
X0072906Y0350744D01*
X0072988Y0350728D01*
X0073069Y0350707D01*
X0073150Y0350683D01*
X0073228Y0350655D01*
X0073306Y0350623D01*
X0073382Y0350587D01*
X0073456Y0350548D01*
X0073528Y0350506D01*
X0073598Y0350460D01*
X0073666Y0350411D01*
X0073731Y0350359D01*
X0073794Y0350304D01*
X0073854Y0350246D01*
X0073912Y0350185D01*
X0073966Y0350121D01*
X0074018Y0350055D01*
X0074066Y0349987D01*
X0074111Y0349916D01*
X0074152Y0349843D01*
X0074191Y0349769D01*
X0074225Y0349693D01*
X0074256Y0349615D01*
X0074283Y0349536D01*
X0074307Y0349455D01*
X0074326Y0349374D01*
X0074342Y0349292D01*
X0074354Y0349209D01*
X0074362Y0349125D01*
X0074366Y0349042D01*
X0074366Y0348958D01*
X0074362Y0348875D01*
X0074354Y0348791D01*
X0074342Y0348708D01*
X0074326Y0348626D01*
X0074307Y0348545D01*
X0074283Y0348464D01*
X0074256Y0348385D01*
X0074225Y0348307D01*
X0074191Y0348231D01*
X0074152Y0348157D01*
X0074111Y0348084D01*
X0074066Y0348013D01*
X0074018Y0347945D01*
X0073966Y0347879D01*
X0073912Y0347815D01*
X0073854Y0347754D01*
X0073794Y0347696D01*
X0073731Y0347641D01*
X0073666Y0347589D01*
X0073598Y0347540D01*
X0073528Y0347494D01*
X0073456Y0347452D01*
X0073382Y0347413D01*
X0073306Y0347377D01*
X0073228Y0347345D01*
X0073150Y0347317D01*
X0073069Y0347293D01*
X0072988Y0347272D01*
X0072906Y0347256D01*
X0072824Y0347243D01*
X0072740Y0347234D01*
X0072657Y0347229D01*
X0072573Y0347228D01*
X0072489Y0347231D01*
X0072406Y0347238D01*
X0072323Y0347249D01*
X0072241Y0347264D01*
X0072159Y0347282D01*
X0072078Y0347305D01*
X0071999Y0347331D01*
X0071921Y0347361D01*
X0071844Y0347395D01*
X0071769Y0347432D01*
X0071696Y0347472D01*
X0071625Y0347517D01*
X0071556Y0347564D01*
X0071489Y0347615D01*
X0071425Y0347668D01*
X0071363Y0347725D01*
X0071305Y0347785D01*
X0071249Y0347847D01*
X0071196Y0347912D01*
X0071146Y0347979D01*
X0071099Y0348048D01*
X0071056Y0348120D01*
X0071016Y0348194D01*
X0070980Y0348269D01*
X0070947Y0348346D01*
X0070918Y0348425D01*
X0070893Y0348504D01*
X0070871Y0348585D01*
X0070854Y0348667D01*
X0070840Y0348750D01*
X0070830Y0348833D01*
X0070824Y0348916D01*
X0070822Y0349000D01*
X0036594Y0307500D02*
X0036596Y0307653D01*
X0036602Y0307807D01*
X0036612Y0307960D01*
X0036626Y0308112D01*
X0036644Y0308265D01*
X0036666Y0308416D01*
X0036691Y0308567D01*
X0036721Y0308718D01*
X0036755Y0308868D01*
X0036792Y0309016D01*
X0036833Y0309164D01*
X0036878Y0309310D01*
X0036927Y0309456D01*
X0036980Y0309600D01*
X0037036Y0309742D01*
X0037096Y0309883D01*
X0037160Y0310023D01*
X0037227Y0310161D01*
X0037298Y0310297D01*
X0037373Y0310431D01*
X0037450Y0310563D01*
X0037532Y0310693D01*
X0037616Y0310821D01*
X0037704Y0310947D01*
X0037795Y0311070D01*
X0037889Y0311191D01*
X0037987Y0311309D01*
X0038087Y0311425D01*
X0038191Y0311538D01*
X0038297Y0311649D01*
X0038406Y0311757D01*
X0038518Y0311862D01*
X0038632Y0311963D01*
X0038750Y0312062D01*
X0038869Y0312158D01*
X0038991Y0312251D01*
X0039116Y0312340D01*
X0039243Y0312427D01*
X0039372Y0312509D01*
X0039503Y0312589D01*
X0039636Y0312665D01*
X0039771Y0312738D01*
X0039908Y0312807D01*
X0040047Y0312872D01*
X0040187Y0312934D01*
X0040329Y0312992D01*
X0040472Y0313047D01*
X0040617Y0313098D01*
X0040763Y0313145D01*
X0040910Y0313188D01*
X0041058Y0313227D01*
X0041207Y0313263D01*
X0041357Y0313294D01*
X0041508Y0313322D01*
X0041659Y0313346D01*
X0041812Y0313366D01*
X0041964Y0313382D01*
X0042117Y0313394D01*
X0042270Y0313402D01*
X0042423Y0313406D01*
X0042577Y0313406D01*
X0042730Y0313402D01*
X0042883Y0313394D01*
X0043036Y0313382D01*
X0043188Y0313366D01*
X0043341Y0313346D01*
X0043492Y0313322D01*
X0043643Y0313294D01*
X0043793Y0313263D01*
X0043942Y0313227D01*
X0044090Y0313188D01*
X0044237Y0313145D01*
X0044383Y0313098D01*
X0044528Y0313047D01*
X0044671Y0312992D01*
X0044813Y0312934D01*
X0044953Y0312872D01*
X0045092Y0312807D01*
X0045229Y0312738D01*
X0045364Y0312665D01*
X0045497Y0312589D01*
X0045628Y0312509D01*
X0045757Y0312427D01*
X0045884Y0312340D01*
X0046009Y0312251D01*
X0046131Y0312158D01*
X0046250Y0312062D01*
X0046368Y0311963D01*
X0046482Y0311862D01*
X0046594Y0311757D01*
X0046703Y0311649D01*
X0046809Y0311538D01*
X0046913Y0311425D01*
X0047013Y0311309D01*
X0047111Y0311191D01*
X0047205Y0311070D01*
X0047296Y0310947D01*
X0047384Y0310821D01*
X0047468Y0310693D01*
X0047550Y0310563D01*
X0047627Y0310431D01*
X0047702Y0310297D01*
X0047773Y0310161D01*
X0047840Y0310023D01*
X0047904Y0309883D01*
X0047964Y0309742D01*
X0048020Y0309600D01*
X0048073Y0309456D01*
X0048122Y0309310D01*
X0048167Y0309164D01*
X0048208Y0309016D01*
X0048245Y0308868D01*
X0048279Y0308718D01*
X0048309Y0308567D01*
X0048334Y0308416D01*
X0048356Y0308265D01*
X0048374Y0308112D01*
X0048388Y0307960D01*
X0048398Y0307807D01*
X0048404Y0307653D01*
X0048406Y0307500D01*
X0048404Y0307347D01*
X0048398Y0307193D01*
X0048388Y0307040D01*
X0048374Y0306888D01*
X0048356Y0306735D01*
X0048334Y0306584D01*
X0048309Y0306433D01*
X0048279Y0306282D01*
X0048245Y0306132D01*
X0048208Y0305984D01*
X0048167Y0305836D01*
X0048122Y0305690D01*
X0048073Y0305544D01*
X0048020Y0305400D01*
X0047964Y0305258D01*
X0047904Y0305117D01*
X0047840Y0304977D01*
X0047773Y0304839D01*
X0047702Y0304703D01*
X0047627Y0304569D01*
X0047550Y0304437D01*
X0047468Y0304307D01*
X0047384Y0304179D01*
X0047296Y0304053D01*
X0047205Y0303930D01*
X0047111Y0303809D01*
X0047013Y0303691D01*
X0046913Y0303575D01*
X0046809Y0303462D01*
X0046703Y0303351D01*
X0046594Y0303243D01*
X0046482Y0303138D01*
X0046368Y0303037D01*
X0046250Y0302938D01*
X0046131Y0302842D01*
X0046009Y0302749D01*
X0045884Y0302660D01*
X0045757Y0302573D01*
X0045628Y0302491D01*
X0045497Y0302411D01*
X0045364Y0302335D01*
X0045229Y0302262D01*
X0045092Y0302193D01*
X0044953Y0302128D01*
X0044813Y0302066D01*
X0044671Y0302008D01*
X0044528Y0301953D01*
X0044383Y0301902D01*
X0044237Y0301855D01*
X0044090Y0301812D01*
X0043942Y0301773D01*
X0043793Y0301737D01*
X0043643Y0301706D01*
X0043492Y0301678D01*
X0043341Y0301654D01*
X0043188Y0301634D01*
X0043036Y0301618D01*
X0042883Y0301606D01*
X0042730Y0301598D01*
X0042577Y0301594D01*
X0042423Y0301594D01*
X0042270Y0301598D01*
X0042117Y0301606D01*
X0041964Y0301618D01*
X0041812Y0301634D01*
X0041659Y0301654D01*
X0041508Y0301678D01*
X0041357Y0301706D01*
X0041207Y0301737D01*
X0041058Y0301773D01*
X0040910Y0301812D01*
X0040763Y0301855D01*
X0040617Y0301902D01*
X0040472Y0301953D01*
X0040329Y0302008D01*
X0040187Y0302066D01*
X0040047Y0302128D01*
X0039908Y0302193D01*
X0039771Y0302262D01*
X0039636Y0302335D01*
X0039503Y0302411D01*
X0039372Y0302491D01*
X0039243Y0302573D01*
X0039116Y0302660D01*
X0038991Y0302749D01*
X0038869Y0302842D01*
X0038750Y0302938D01*
X0038632Y0303037D01*
X0038518Y0303138D01*
X0038406Y0303243D01*
X0038297Y0303351D01*
X0038191Y0303462D01*
X0038087Y0303575D01*
X0037987Y0303691D01*
X0037889Y0303809D01*
X0037795Y0303930D01*
X0037704Y0304053D01*
X0037616Y0304179D01*
X0037532Y0304307D01*
X0037450Y0304437D01*
X0037373Y0304569D01*
X0037298Y0304703D01*
X0037227Y0304839D01*
X0037160Y0304977D01*
X0037096Y0305117D01*
X0037036Y0305258D01*
X0036980Y0305400D01*
X0036927Y0305544D01*
X0036878Y0305690D01*
X0036833Y0305836D01*
X0036792Y0305984D01*
X0036755Y0306132D01*
X0036721Y0306282D01*
X0036691Y0306433D01*
X0036666Y0306584D01*
X0036644Y0306735D01*
X0036626Y0306888D01*
X0036612Y0307040D01*
X0036602Y0307193D01*
X0036596Y0307347D01*
X0036594Y0307500D01*
X0258925Y0058500D02*
X0258927Y0058579D01*
X0258933Y0058658D01*
X0258943Y0058737D01*
X0258957Y0058815D01*
X0258974Y0058892D01*
X0258996Y0058968D01*
X0259021Y0059043D01*
X0259051Y0059116D01*
X0259083Y0059188D01*
X0259120Y0059259D01*
X0259160Y0059327D01*
X0259203Y0059393D01*
X0259249Y0059457D01*
X0259299Y0059519D01*
X0259352Y0059578D01*
X0259407Y0059634D01*
X0259466Y0059688D01*
X0259527Y0059738D01*
X0259590Y0059786D01*
X0259656Y0059830D01*
X0259724Y0059871D01*
X0259794Y0059908D01*
X0259865Y0059942D01*
X0259939Y0059972D01*
X0260013Y0059998D01*
X0260089Y0060020D01*
X0260166Y0060039D01*
X0260244Y0060054D01*
X0260322Y0060065D01*
X0260401Y0060072D01*
X0260480Y0060075D01*
X0260559Y0060074D01*
X0260638Y0060069D01*
X0260717Y0060060D01*
X0260795Y0060047D01*
X0260872Y0060030D01*
X0260949Y0060010D01*
X0261024Y0059985D01*
X0261098Y0059957D01*
X0261171Y0059925D01*
X0261241Y0059890D01*
X0261310Y0059851D01*
X0261377Y0059808D01*
X0261442Y0059762D01*
X0261504Y0059714D01*
X0261564Y0059662D01*
X0261621Y0059607D01*
X0261675Y0059549D01*
X0261726Y0059489D01*
X0261774Y0059426D01*
X0261819Y0059361D01*
X0261861Y0059293D01*
X0261899Y0059224D01*
X0261933Y0059153D01*
X0261964Y0059080D01*
X0261992Y0059005D01*
X0262015Y0058930D01*
X0262035Y0058853D01*
X0262051Y0058776D01*
X0262063Y0058697D01*
X0262071Y0058619D01*
X0262075Y0058540D01*
X0262075Y0058460D01*
X0262071Y0058381D01*
X0262063Y0058303D01*
X0262051Y0058224D01*
X0262035Y0058147D01*
X0262015Y0058070D01*
X0261992Y0057995D01*
X0261964Y0057920D01*
X0261933Y0057847D01*
X0261899Y0057776D01*
X0261861Y0057707D01*
X0261819Y0057639D01*
X0261774Y0057574D01*
X0261726Y0057511D01*
X0261675Y0057451D01*
X0261621Y0057393D01*
X0261564Y0057338D01*
X0261504Y0057286D01*
X0261442Y0057238D01*
X0261377Y0057192D01*
X0261310Y0057149D01*
X0261241Y0057110D01*
X0261171Y0057075D01*
X0261098Y0057043D01*
X0261024Y0057015D01*
X0260949Y0056990D01*
X0260872Y0056970D01*
X0260795Y0056953D01*
X0260717Y0056940D01*
X0260638Y0056931D01*
X0260559Y0056926D01*
X0260480Y0056925D01*
X0260401Y0056928D01*
X0260322Y0056935D01*
X0260244Y0056946D01*
X0260166Y0056961D01*
X0260089Y0056980D01*
X0260013Y0057002D01*
X0259939Y0057028D01*
X0259865Y0057058D01*
X0259794Y0057092D01*
X0259724Y0057129D01*
X0259656Y0057170D01*
X0259590Y0057214D01*
X0259527Y0057262D01*
X0259466Y0057312D01*
X0259407Y0057366D01*
X0259352Y0057422D01*
X0259299Y0057481D01*
X0259249Y0057543D01*
X0259203Y0057607D01*
X0259160Y0057673D01*
X0259120Y0057741D01*
X0259083Y0057812D01*
X0259051Y0057884D01*
X0259021Y0057957D01*
X0258996Y0058032D01*
X0258974Y0058108D01*
X0258957Y0058185D01*
X0258943Y0058263D01*
X0258933Y0058342D01*
X0258927Y0058421D01*
X0258925Y0058500D01*
X0258925Y0052500D02*
X0258927Y0052579D01*
X0258933Y0052658D01*
X0258943Y0052737D01*
X0258957Y0052815D01*
X0258974Y0052892D01*
X0258996Y0052968D01*
X0259021Y0053043D01*
X0259051Y0053116D01*
X0259083Y0053188D01*
X0259120Y0053259D01*
X0259160Y0053327D01*
X0259203Y0053393D01*
X0259249Y0053457D01*
X0259299Y0053519D01*
X0259352Y0053578D01*
X0259407Y0053634D01*
X0259466Y0053688D01*
X0259527Y0053738D01*
X0259590Y0053786D01*
X0259656Y0053830D01*
X0259724Y0053871D01*
X0259794Y0053908D01*
X0259865Y0053942D01*
X0259939Y0053972D01*
X0260013Y0053998D01*
X0260089Y0054020D01*
X0260166Y0054039D01*
X0260244Y0054054D01*
X0260322Y0054065D01*
X0260401Y0054072D01*
X0260480Y0054075D01*
X0260559Y0054074D01*
X0260638Y0054069D01*
X0260717Y0054060D01*
X0260795Y0054047D01*
X0260872Y0054030D01*
X0260949Y0054010D01*
X0261024Y0053985D01*
X0261098Y0053957D01*
X0261171Y0053925D01*
X0261241Y0053890D01*
X0261310Y0053851D01*
X0261377Y0053808D01*
X0261442Y0053762D01*
X0261504Y0053714D01*
X0261564Y0053662D01*
X0261621Y0053607D01*
X0261675Y0053549D01*
X0261726Y0053489D01*
X0261774Y0053426D01*
X0261819Y0053361D01*
X0261861Y0053293D01*
X0261899Y0053224D01*
X0261933Y0053153D01*
X0261964Y0053080D01*
X0261992Y0053005D01*
X0262015Y0052930D01*
X0262035Y0052853D01*
X0262051Y0052776D01*
X0262063Y0052697D01*
X0262071Y0052619D01*
X0262075Y0052540D01*
X0262075Y0052460D01*
X0262071Y0052381D01*
X0262063Y0052303D01*
X0262051Y0052224D01*
X0262035Y0052147D01*
X0262015Y0052070D01*
X0261992Y0051995D01*
X0261964Y0051920D01*
X0261933Y0051847D01*
X0261899Y0051776D01*
X0261861Y0051707D01*
X0261819Y0051639D01*
X0261774Y0051574D01*
X0261726Y0051511D01*
X0261675Y0051451D01*
X0261621Y0051393D01*
X0261564Y0051338D01*
X0261504Y0051286D01*
X0261442Y0051238D01*
X0261377Y0051192D01*
X0261310Y0051149D01*
X0261241Y0051110D01*
X0261171Y0051075D01*
X0261098Y0051043D01*
X0261024Y0051015D01*
X0260949Y0050990D01*
X0260872Y0050970D01*
X0260795Y0050953D01*
X0260717Y0050940D01*
X0260638Y0050931D01*
X0260559Y0050926D01*
X0260480Y0050925D01*
X0260401Y0050928D01*
X0260322Y0050935D01*
X0260244Y0050946D01*
X0260166Y0050961D01*
X0260089Y0050980D01*
X0260013Y0051002D01*
X0259939Y0051028D01*
X0259865Y0051058D01*
X0259794Y0051092D01*
X0259724Y0051129D01*
X0259656Y0051170D01*
X0259590Y0051214D01*
X0259527Y0051262D01*
X0259466Y0051312D01*
X0259407Y0051366D01*
X0259352Y0051422D01*
X0259299Y0051481D01*
X0259249Y0051543D01*
X0259203Y0051607D01*
X0259160Y0051673D01*
X0259120Y0051741D01*
X0259083Y0051812D01*
X0259051Y0051884D01*
X0259021Y0051957D01*
X0258996Y0052032D01*
X0258974Y0052108D01*
X0258957Y0052185D01*
X0258943Y0052263D01*
X0258933Y0052342D01*
X0258927Y0052421D01*
X0258925Y0052500D01*
X0258925Y0046500D02*
X0258927Y0046579D01*
X0258933Y0046658D01*
X0258943Y0046737D01*
X0258957Y0046815D01*
X0258974Y0046892D01*
X0258996Y0046968D01*
X0259021Y0047043D01*
X0259051Y0047116D01*
X0259083Y0047188D01*
X0259120Y0047259D01*
X0259160Y0047327D01*
X0259203Y0047393D01*
X0259249Y0047457D01*
X0259299Y0047519D01*
X0259352Y0047578D01*
X0259407Y0047634D01*
X0259466Y0047688D01*
X0259527Y0047738D01*
X0259590Y0047786D01*
X0259656Y0047830D01*
X0259724Y0047871D01*
X0259794Y0047908D01*
X0259865Y0047942D01*
X0259939Y0047972D01*
X0260013Y0047998D01*
X0260089Y0048020D01*
X0260166Y0048039D01*
X0260244Y0048054D01*
X0260322Y0048065D01*
X0260401Y0048072D01*
X0260480Y0048075D01*
X0260559Y0048074D01*
X0260638Y0048069D01*
X0260717Y0048060D01*
X0260795Y0048047D01*
X0260872Y0048030D01*
X0260949Y0048010D01*
X0261024Y0047985D01*
X0261098Y0047957D01*
X0261171Y0047925D01*
X0261241Y0047890D01*
X0261310Y0047851D01*
X0261377Y0047808D01*
X0261442Y0047762D01*
X0261504Y0047714D01*
X0261564Y0047662D01*
X0261621Y0047607D01*
X0261675Y0047549D01*
X0261726Y0047489D01*
X0261774Y0047426D01*
X0261819Y0047361D01*
X0261861Y0047293D01*
X0261899Y0047224D01*
X0261933Y0047153D01*
X0261964Y0047080D01*
X0261992Y0047005D01*
X0262015Y0046930D01*
X0262035Y0046853D01*
X0262051Y0046776D01*
X0262063Y0046697D01*
X0262071Y0046619D01*
X0262075Y0046540D01*
X0262075Y0046460D01*
X0262071Y0046381D01*
X0262063Y0046303D01*
X0262051Y0046224D01*
X0262035Y0046147D01*
X0262015Y0046070D01*
X0261992Y0045995D01*
X0261964Y0045920D01*
X0261933Y0045847D01*
X0261899Y0045776D01*
X0261861Y0045707D01*
X0261819Y0045639D01*
X0261774Y0045574D01*
X0261726Y0045511D01*
X0261675Y0045451D01*
X0261621Y0045393D01*
X0261564Y0045338D01*
X0261504Y0045286D01*
X0261442Y0045238D01*
X0261377Y0045192D01*
X0261310Y0045149D01*
X0261241Y0045110D01*
X0261171Y0045075D01*
X0261098Y0045043D01*
X0261024Y0045015D01*
X0260949Y0044990D01*
X0260872Y0044970D01*
X0260795Y0044953D01*
X0260717Y0044940D01*
X0260638Y0044931D01*
X0260559Y0044926D01*
X0260480Y0044925D01*
X0260401Y0044928D01*
X0260322Y0044935D01*
X0260244Y0044946D01*
X0260166Y0044961D01*
X0260089Y0044980D01*
X0260013Y0045002D01*
X0259939Y0045028D01*
X0259865Y0045058D01*
X0259794Y0045092D01*
X0259724Y0045129D01*
X0259656Y0045170D01*
X0259590Y0045214D01*
X0259527Y0045262D01*
X0259466Y0045312D01*
X0259407Y0045366D01*
X0259352Y0045422D01*
X0259299Y0045481D01*
X0259249Y0045543D01*
X0259203Y0045607D01*
X0259160Y0045673D01*
X0259120Y0045741D01*
X0259083Y0045812D01*
X0259051Y0045884D01*
X0259021Y0045957D01*
X0258996Y0046032D01*
X0258974Y0046108D01*
X0258957Y0046185D01*
X0258943Y0046263D01*
X0258933Y0046342D01*
X0258927Y0046421D01*
X0258925Y0046500D01*
X0258925Y0040500D02*
X0258927Y0040579D01*
X0258933Y0040658D01*
X0258943Y0040737D01*
X0258957Y0040815D01*
X0258974Y0040892D01*
X0258996Y0040968D01*
X0259021Y0041043D01*
X0259051Y0041116D01*
X0259083Y0041188D01*
X0259120Y0041259D01*
X0259160Y0041327D01*
X0259203Y0041393D01*
X0259249Y0041457D01*
X0259299Y0041519D01*
X0259352Y0041578D01*
X0259407Y0041634D01*
X0259466Y0041688D01*
X0259527Y0041738D01*
X0259590Y0041786D01*
X0259656Y0041830D01*
X0259724Y0041871D01*
X0259794Y0041908D01*
X0259865Y0041942D01*
X0259939Y0041972D01*
X0260013Y0041998D01*
X0260089Y0042020D01*
X0260166Y0042039D01*
X0260244Y0042054D01*
X0260322Y0042065D01*
X0260401Y0042072D01*
X0260480Y0042075D01*
X0260559Y0042074D01*
X0260638Y0042069D01*
X0260717Y0042060D01*
X0260795Y0042047D01*
X0260872Y0042030D01*
X0260949Y0042010D01*
X0261024Y0041985D01*
X0261098Y0041957D01*
X0261171Y0041925D01*
X0261241Y0041890D01*
X0261310Y0041851D01*
X0261377Y0041808D01*
X0261442Y0041762D01*
X0261504Y0041714D01*
X0261564Y0041662D01*
X0261621Y0041607D01*
X0261675Y0041549D01*
X0261726Y0041489D01*
X0261774Y0041426D01*
X0261819Y0041361D01*
X0261861Y0041293D01*
X0261899Y0041224D01*
X0261933Y0041153D01*
X0261964Y0041080D01*
X0261992Y0041005D01*
X0262015Y0040930D01*
X0262035Y0040853D01*
X0262051Y0040776D01*
X0262063Y0040697D01*
X0262071Y0040619D01*
X0262075Y0040540D01*
X0262075Y0040460D01*
X0262071Y0040381D01*
X0262063Y0040303D01*
X0262051Y0040224D01*
X0262035Y0040147D01*
X0262015Y0040070D01*
X0261992Y0039995D01*
X0261964Y0039920D01*
X0261933Y0039847D01*
X0261899Y0039776D01*
X0261861Y0039707D01*
X0261819Y0039639D01*
X0261774Y0039574D01*
X0261726Y0039511D01*
X0261675Y0039451D01*
X0261621Y0039393D01*
X0261564Y0039338D01*
X0261504Y0039286D01*
X0261442Y0039238D01*
X0261377Y0039192D01*
X0261310Y0039149D01*
X0261241Y0039110D01*
X0261171Y0039075D01*
X0261098Y0039043D01*
X0261024Y0039015D01*
X0260949Y0038990D01*
X0260872Y0038970D01*
X0260795Y0038953D01*
X0260717Y0038940D01*
X0260638Y0038931D01*
X0260559Y0038926D01*
X0260480Y0038925D01*
X0260401Y0038928D01*
X0260322Y0038935D01*
X0260244Y0038946D01*
X0260166Y0038961D01*
X0260089Y0038980D01*
X0260013Y0039002D01*
X0259939Y0039028D01*
X0259865Y0039058D01*
X0259794Y0039092D01*
X0259724Y0039129D01*
X0259656Y0039170D01*
X0259590Y0039214D01*
X0259527Y0039262D01*
X0259466Y0039312D01*
X0259407Y0039366D01*
X0259352Y0039422D01*
X0259299Y0039481D01*
X0259249Y0039543D01*
X0259203Y0039607D01*
X0259160Y0039673D01*
X0259120Y0039741D01*
X0259083Y0039812D01*
X0259051Y0039884D01*
X0259021Y0039957D01*
X0258996Y0040032D01*
X0258974Y0040108D01*
X0258957Y0040185D01*
X0258943Y0040263D01*
X0258933Y0040342D01*
X0258927Y0040421D01*
X0258925Y0040500D01*
X0258925Y0034500D02*
X0258927Y0034579D01*
X0258933Y0034658D01*
X0258943Y0034737D01*
X0258957Y0034815D01*
X0258974Y0034892D01*
X0258996Y0034968D01*
X0259021Y0035043D01*
X0259051Y0035116D01*
X0259083Y0035188D01*
X0259120Y0035259D01*
X0259160Y0035327D01*
X0259203Y0035393D01*
X0259249Y0035457D01*
X0259299Y0035519D01*
X0259352Y0035578D01*
X0259407Y0035634D01*
X0259466Y0035688D01*
X0259527Y0035738D01*
X0259590Y0035786D01*
X0259656Y0035830D01*
X0259724Y0035871D01*
X0259794Y0035908D01*
X0259865Y0035942D01*
X0259939Y0035972D01*
X0260013Y0035998D01*
X0260089Y0036020D01*
X0260166Y0036039D01*
X0260244Y0036054D01*
X0260322Y0036065D01*
X0260401Y0036072D01*
X0260480Y0036075D01*
X0260559Y0036074D01*
X0260638Y0036069D01*
X0260717Y0036060D01*
X0260795Y0036047D01*
X0260872Y0036030D01*
X0260949Y0036010D01*
X0261024Y0035985D01*
X0261098Y0035957D01*
X0261171Y0035925D01*
X0261241Y0035890D01*
X0261310Y0035851D01*
X0261377Y0035808D01*
X0261442Y0035762D01*
X0261504Y0035714D01*
X0261564Y0035662D01*
X0261621Y0035607D01*
X0261675Y0035549D01*
X0261726Y0035489D01*
X0261774Y0035426D01*
X0261819Y0035361D01*
X0261861Y0035293D01*
X0261899Y0035224D01*
X0261933Y0035153D01*
X0261964Y0035080D01*
X0261992Y0035005D01*
X0262015Y0034930D01*
X0262035Y0034853D01*
X0262051Y0034776D01*
X0262063Y0034697D01*
X0262071Y0034619D01*
X0262075Y0034540D01*
X0262075Y0034460D01*
X0262071Y0034381D01*
X0262063Y0034303D01*
X0262051Y0034224D01*
X0262035Y0034147D01*
X0262015Y0034070D01*
X0261992Y0033995D01*
X0261964Y0033920D01*
X0261933Y0033847D01*
X0261899Y0033776D01*
X0261861Y0033707D01*
X0261819Y0033639D01*
X0261774Y0033574D01*
X0261726Y0033511D01*
X0261675Y0033451D01*
X0261621Y0033393D01*
X0261564Y0033338D01*
X0261504Y0033286D01*
X0261442Y0033238D01*
X0261377Y0033192D01*
X0261310Y0033149D01*
X0261241Y0033110D01*
X0261171Y0033075D01*
X0261098Y0033043D01*
X0261024Y0033015D01*
X0260949Y0032990D01*
X0260872Y0032970D01*
X0260795Y0032953D01*
X0260717Y0032940D01*
X0260638Y0032931D01*
X0260559Y0032926D01*
X0260480Y0032925D01*
X0260401Y0032928D01*
X0260322Y0032935D01*
X0260244Y0032946D01*
X0260166Y0032961D01*
X0260089Y0032980D01*
X0260013Y0033002D01*
X0259939Y0033028D01*
X0259865Y0033058D01*
X0259794Y0033092D01*
X0259724Y0033129D01*
X0259656Y0033170D01*
X0259590Y0033214D01*
X0259527Y0033262D01*
X0259466Y0033312D01*
X0259407Y0033366D01*
X0259352Y0033422D01*
X0259299Y0033481D01*
X0259249Y0033543D01*
X0259203Y0033607D01*
X0259160Y0033673D01*
X0259120Y0033741D01*
X0259083Y0033812D01*
X0259051Y0033884D01*
X0259021Y0033957D01*
X0258996Y0034032D01*
X0258974Y0034108D01*
X0258957Y0034185D01*
X0258943Y0034263D01*
X0258933Y0034342D01*
X0258927Y0034421D01*
X0258925Y0034500D01*
X0258925Y0028500D02*
X0258927Y0028579D01*
X0258933Y0028658D01*
X0258943Y0028737D01*
X0258957Y0028815D01*
X0258974Y0028892D01*
X0258996Y0028968D01*
X0259021Y0029043D01*
X0259051Y0029116D01*
X0259083Y0029188D01*
X0259120Y0029259D01*
X0259160Y0029327D01*
X0259203Y0029393D01*
X0259249Y0029457D01*
X0259299Y0029519D01*
X0259352Y0029578D01*
X0259407Y0029634D01*
X0259466Y0029688D01*
X0259527Y0029738D01*
X0259590Y0029786D01*
X0259656Y0029830D01*
X0259724Y0029871D01*
X0259794Y0029908D01*
X0259865Y0029942D01*
X0259939Y0029972D01*
X0260013Y0029998D01*
X0260089Y0030020D01*
X0260166Y0030039D01*
X0260244Y0030054D01*
X0260322Y0030065D01*
X0260401Y0030072D01*
X0260480Y0030075D01*
X0260559Y0030074D01*
X0260638Y0030069D01*
X0260717Y0030060D01*
X0260795Y0030047D01*
X0260872Y0030030D01*
X0260949Y0030010D01*
X0261024Y0029985D01*
X0261098Y0029957D01*
X0261171Y0029925D01*
X0261241Y0029890D01*
X0261310Y0029851D01*
X0261377Y0029808D01*
X0261442Y0029762D01*
X0261504Y0029714D01*
X0261564Y0029662D01*
X0261621Y0029607D01*
X0261675Y0029549D01*
X0261726Y0029489D01*
X0261774Y0029426D01*
X0261819Y0029361D01*
X0261861Y0029293D01*
X0261899Y0029224D01*
X0261933Y0029153D01*
X0261964Y0029080D01*
X0261992Y0029005D01*
X0262015Y0028930D01*
X0262035Y0028853D01*
X0262051Y0028776D01*
X0262063Y0028697D01*
X0262071Y0028619D01*
X0262075Y0028540D01*
X0262075Y0028460D01*
X0262071Y0028381D01*
X0262063Y0028303D01*
X0262051Y0028224D01*
X0262035Y0028147D01*
X0262015Y0028070D01*
X0261992Y0027995D01*
X0261964Y0027920D01*
X0261933Y0027847D01*
X0261899Y0027776D01*
X0261861Y0027707D01*
X0261819Y0027639D01*
X0261774Y0027574D01*
X0261726Y0027511D01*
X0261675Y0027451D01*
X0261621Y0027393D01*
X0261564Y0027338D01*
X0261504Y0027286D01*
X0261442Y0027238D01*
X0261377Y0027192D01*
X0261310Y0027149D01*
X0261241Y0027110D01*
X0261171Y0027075D01*
X0261098Y0027043D01*
X0261024Y0027015D01*
X0260949Y0026990D01*
X0260872Y0026970D01*
X0260795Y0026953D01*
X0260717Y0026940D01*
X0260638Y0026931D01*
X0260559Y0026926D01*
X0260480Y0026925D01*
X0260401Y0026928D01*
X0260322Y0026935D01*
X0260244Y0026946D01*
X0260166Y0026961D01*
X0260089Y0026980D01*
X0260013Y0027002D01*
X0259939Y0027028D01*
X0259865Y0027058D01*
X0259794Y0027092D01*
X0259724Y0027129D01*
X0259656Y0027170D01*
X0259590Y0027214D01*
X0259527Y0027262D01*
X0259466Y0027312D01*
X0259407Y0027366D01*
X0259352Y0027422D01*
X0259299Y0027481D01*
X0259249Y0027543D01*
X0259203Y0027607D01*
X0259160Y0027673D01*
X0259120Y0027741D01*
X0259083Y0027812D01*
X0259051Y0027884D01*
X0259021Y0027957D01*
X0258996Y0028032D01*
X0258974Y0028108D01*
X0258957Y0028185D01*
X0258943Y0028263D01*
X0258933Y0028342D01*
X0258927Y0028421D01*
X0258925Y0028500D01*
X0258925Y0022500D02*
X0258927Y0022579D01*
X0258933Y0022658D01*
X0258943Y0022737D01*
X0258957Y0022815D01*
X0258974Y0022892D01*
X0258996Y0022968D01*
X0259021Y0023043D01*
X0259051Y0023116D01*
X0259083Y0023188D01*
X0259120Y0023259D01*
X0259160Y0023327D01*
X0259203Y0023393D01*
X0259249Y0023457D01*
X0259299Y0023519D01*
X0259352Y0023578D01*
X0259407Y0023634D01*
X0259466Y0023688D01*
X0259527Y0023738D01*
X0259590Y0023786D01*
X0259656Y0023830D01*
X0259724Y0023871D01*
X0259794Y0023908D01*
X0259865Y0023942D01*
X0259939Y0023972D01*
X0260013Y0023998D01*
X0260089Y0024020D01*
X0260166Y0024039D01*
X0260244Y0024054D01*
X0260322Y0024065D01*
X0260401Y0024072D01*
X0260480Y0024075D01*
X0260559Y0024074D01*
X0260638Y0024069D01*
X0260717Y0024060D01*
X0260795Y0024047D01*
X0260872Y0024030D01*
X0260949Y0024010D01*
X0261024Y0023985D01*
X0261098Y0023957D01*
X0261171Y0023925D01*
X0261241Y0023890D01*
X0261310Y0023851D01*
X0261377Y0023808D01*
X0261442Y0023762D01*
X0261504Y0023714D01*
X0261564Y0023662D01*
X0261621Y0023607D01*
X0261675Y0023549D01*
X0261726Y0023489D01*
X0261774Y0023426D01*
X0261819Y0023361D01*
X0261861Y0023293D01*
X0261899Y0023224D01*
X0261933Y0023153D01*
X0261964Y0023080D01*
X0261992Y0023005D01*
X0262015Y0022930D01*
X0262035Y0022853D01*
X0262051Y0022776D01*
X0262063Y0022697D01*
X0262071Y0022619D01*
X0262075Y0022540D01*
X0262075Y0022460D01*
X0262071Y0022381D01*
X0262063Y0022303D01*
X0262051Y0022224D01*
X0262035Y0022147D01*
X0262015Y0022070D01*
X0261992Y0021995D01*
X0261964Y0021920D01*
X0261933Y0021847D01*
X0261899Y0021776D01*
X0261861Y0021707D01*
X0261819Y0021639D01*
X0261774Y0021574D01*
X0261726Y0021511D01*
X0261675Y0021451D01*
X0261621Y0021393D01*
X0261564Y0021338D01*
X0261504Y0021286D01*
X0261442Y0021238D01*
X0261377Y0021192D01*
X0261310Y0021149D01*
X0261241Y0021110D01*
X0261171Y0021075D01*
X0261098Y0021043D01*
X0261024Y0021015D01*
X0260949Y0020990D01*
X0260872Y0020970D01*
X0260795Y0020953D01*
X0260717Y0020940D01*
X0260638Y0020931D01*
X0260559Y0020926D01*
X0260480Y0020925D01*
X0260401Y0020928D01*
X0260322Y0020935D01*
X0260244Y0020946D01*
X0260166Y0020961D01*
X0260089Y0020980D01*
X0260013Y0021002D01*
X0259939Y0021028D01*
X0259865Y0021058D01*
X0259794Y0021092D01*
X0259724Y0021129D01*
X0259656Y0021170D01*
X0259590Y0021214D01*
X0259527Y0021262D01*
X0259466Y0021312D01*
X0259407Y0021366D01*
X0259352Y0021422D01*
X0259299Y0021481D01*
X0259249Y0021543D01*
X0259203Y0021607D01*
X0259160Y0021673D01*
X0259120Y0021741D01*
X0259083Y0021812D01*
X0259051Y0021884D01*
X0259021Y0021957D01*
X0258996Y0022032D01*
X0258974Y0022108D01*
X0258957Y0022185D01*
X0258943Y0022263D01*
X0258933Y0022342D01*
X0258927Y0022421D01*
X0258925Y0022500D01*
X0501594Y0022500D02*
X0501596Y0022653D01*
X0501602Y0022807D01*
X0501612Y0022960D01*
X0501626Y0023112D01*
X0501644Y0023265D01*
X0501666Y0023416D01*
X0501691Y0023567D01*
X0501721Y0023718D01*
X0501755Y0023868D01*
X0501792Y0024016D01*
X0501833Y0024164D01*
X0501878Y0024310D01*
X0501927Y0024456D01*
X0501980Y0024600D01*
X0502036Y0024742D01*
X0502096Y0024883D01*
X0502160Y0025023D01*
X0502227Y0025161D01*
X0502298Y0025297D01*
X0502373Y0025431D01*
X0502450Y0025563D01*
X0502532Y0025693D01*
X0502616Y0025821D01*
X0502704Y0025947D01*
X0502795Y0026070D01*
X0502889Y0026191D01*
X0502987Y0026309D01*
X0503087Y0026425D01*
X0503191Y0026538D01*
X0503297Y0026649D01*
X0503406Y0026757D01*
X0503518Y0026862D01*
X0503632Y0026963D01*
X0503750Y0027062D01*
X0503869Y0027158D01*
X0503991Y0027251D01*
X0504116Y0027340D01*
X0504243Y0027427D01*
X0504372Y0027509D01*
X0504503Y0027589D01*
X0504636Y0027665D01*
X0504771Y0027738D01*
X0504908Y0027807D01*
X0505047Y0027872D01*
X0505187Y0027934D01*
X0505329Y0027992D01*
X0505472Y0028047D01*
X0505617Y0028098D01*
X0505763Y0028145D01*
X0505910Y0028188D01*
X0506058Y0028227D01*
X0506207Y0028263D01*
X0506357Y0028294D01*
X0506508Y0028322D01*
X0506659Y0028346D01*
X0506812Y0028366D01*
X0506964Y0028382D01*
X0507117Y0028394D01*
X0507270Y0028402D01*
X0507423Y0028406D01*
X0507577Y0028406D01*
X0507730Y0028402D01*
X0507883Y0028394D01*
X0508036Y0028382D01*
X0508188Y0028366D01*
X0508341Y0028346D01*
X0508492Y0028322D01*
X0508643Y0028294D01*
X0508793Y0028263D01*
X0508942Y0028227D01*
X0509090Y0028188D01*
X0509237Y0028145D01*
X0509383Y0028098D01*
X0509528Y0028047D01*
X0509671Y0027992D01*
X0509813Y0027934D01*
X0509953Y0027872D01*
X0510092Y0027807D01*
X0510229Y0027738D01*
X0510364Y0027665D01*
X0510497Y0027589D01*
X0510628Y0027509D01*
X0510757Y0027427D01*
X0510884Y0027340D01*
X0511009Y0027251D01*
X0511131Y0027158D01*
X0511250Y0027062D01*
X0511368Y0026963D01*
X0511482Y0026862D01*
X0511594Y0026757D01*
X0511703Y0026649D01*
X0511809Y0026538D01*
X0511913Y0026425D01*
X0512013Y0026309D01*
X0512111Y0026191D01*
X0512205Y0026070D01*
X0512296Y0025947D01*
X0512384Y0025821D01*
X0512468Y0025693D01*
X0512550Y0025563D01*
X0512627Y0025431D01*
X0512702Y0025297D01*
X0512773Y0025161D01*
X0512840Y0025023D01*
X0512904Y0024883D01*
X0512964Y0024742D01*
X0513020Y0024600D01*
X0513073Y0024456D01*
X0513122Y0024310D01*
X0513167Y0024164D01*
X0513208Y0024016D01*
X0513245Y0023868D01*
X0513279Y0023718D01*
X0513309Y0023567D01*
X0513334Y0023416D01*
X0513356Y0023265D01*
X0513374Y0023112D01*
X0513388Y0022960D01*
X0513398Y0022807D01*
X0513404Y0022653D01*
X0513406Y0022500D01*
X0513404Y0022347D01*
X0513398Y0022193D01*
X0513388Y0022040D01*
X0513374Y0021888D01*
X0513356Y0021735D01*
X0513334Y0021584D01*
X0513309Y0021433D01*
X0513279Y0021282D01*
X0513245Y0021132D01*
X0513208Y0020984D01*
X0513167Y0020836D01*
X0513122Y0020690D01*
X0513073Y0020544D01*
X0513020Y0020400D01*
X0512964Y0020258D01*
X0512904Y0020117D01*
X0512840Y0019977D01*
X0512773Y0019839D01*
X0512702Y0019703D01*
X0512627Y0019569D01*
X0512550Y0019437D01*
X0512468Y0019307D01*
X0512384Y0019179D01*
X0512296Y0019053D01*
X0512205Y0018930D01*
X0512111Y0018809D01*
X0512013Y0018691D01*
X0511913Y0018575D01*
X0511809Y0018462D01*
X0511703Y0018351D01*
X0511594Y0018243D01*
X0511482Y0018138D01*
X0511368Y0018037D01*
X0511250Y0017938D01*
X0511131Y0017842D01*
X0511009Y0017749D01*
X0510884Y0017660D01*
X0510757Y0017573D01*
X0510628Y0017491D01*
X0510497Y0017411D01*
X0510364Y0017335D01*
X0510229Y0017262D01*
X0510092Y0017193D01*
X0509953Y0017128D01*
X0509813Y0017066D01*
X0509671Y0017008D01*
X0509528Y0016953D01*
X0509383Y0016902D01*
X0509237Y0016855D01*
X0509090Y0016812D01*
X0508942Y0016773D01*
X0508793Y0016737D01*
X0508643Y0016706D01*
X0508492Y0016678D01*
X0508341Y0016654D01*
X0508188Y0016634D01*
X0508036Y0016618D01*
X0507883Y0016606D01*
X0507730Y0016598D01*
X0507577Y0016594D01*
X0507423Y0016594D01*
X0507270Y0016598D01*
X0507117Y0016606D01*
X0506964Y0016618D01*
X0506812Y0016634D01*
X0506659Y0016654D01*
X0506508Y0016678D01*
X0506357Y0016706D01*
X0506207Y0016737D01*
X0506058Y0016773D01*
X0505910Y0016812D01*
X0505763Y0016855D01*
X0505617Y0016902D01*
X0505472Y0016953D01*
X0505329Y0017008D01*
X0505187Y0017066D01*
X0505047Y0017128D01*
X0504908Y0017193D01*
X0504771Y0017262D01*
X0504636Y0017335D01*
X0504503Y0017411D01*
X0504372Y0017491D01*
X0504243Y0017573D01*
X0504116Y0017660D01*
X0503991Y0017749D01*
X0503869Y0017842D01*
X0503750Y0017938D01*
X0503632Y0018037D01*
X0503518Y0018138D01*
X0503406Y0018243D01*
X0503297Y0018351D01*
X0503191Y0018462D01*
X0503087Y0018575D01*
X0502987Y0018691D01*
X0502889Y0018809D01*
X0502795Y0018930D01*
X0502704Y0019053D01*
X0502616Y0019179D01*
X0502532Y0019307D01*
X0502450Y0019437D01*
X0502373Y0019569D01*
X0502298Y0019703D01*
X0502227Y0019839D01*
X0502160Y0019977D01*
X0502096Y0020117D01*
X0502036Y0020258D01*
X0501980Y0020400D01*
X0501927Y0020544D01*
X0501878Y0020690D01*
X0501833Y0020836D01*
X0501792Y0020984D01*
X0501755Y0021132D01*
X0501721Y0021282D01*
X0501691Y0021433D01*
X0501666Y0021584D01*
X0501644Y0021735D01*
X0501626Y0021888D01*
X0501612Y0022040D01*
X0501602Y0022193D01*
X0501596Y0022347D01*
X0501594Y0022500D01*
X0501594Y0352500D02*
X0501596Y0352653D01*
X0501602Y0352807D01*
X0501612Y0352960D01*
X0501626Y0353112D01*
X0501644Y0353265D01*
X0501666Y0353416D01*
X0501691Y0353567D01*
X0501721Y0353718D01*
X0501755Y0353868D01*
X0501792Y0354016D01*
X0501833Y0354164D01*
X0501878Y0354310D01*
X0501927Y0354456D01*
X0501980Y0354600D01*
X0502036Y0354742D01*
X0502096Y0354883D01*
X0502160Y0355023D01*
X0502227Y0355161D01*
X0502298Y0355297D01*
X0502373Y0355431D01*
X0502450Y0355563D01*
X0502532Y0355693D01*
X0502616Y0355821D01*
X0502704Y0355947D01*
X0502795Y0356070D01*
X0502889Y0356191D01*
X0502987Y0356309D01*
X0503087Y0356425D01*
X0503191Y0356538D01*
X0503297Y0356649D01*
X0503406Y0356757D01*
X0503518Y0356862D01*
X0503632Y0356963D01*
X0503750Y0357062D01*
X0503869Y0357158D01*
X0503991Y0357251D01*
X0504116Y0357340D01*
X0504243Y0357427D01*
X0504372Y0357509D01*
X0504503Y0357589D01*
X0504636Y0357665D01*
X0504771Y0357738D01*
X0504908Y0357807D01*
X0505047Y0357872D01*
X0505187Y0357934D01*
X0505329Y0357992D01*
X0505472Y0358047D01*
X0505617Y0358098D01*
X0505763Y0358145D01*
X0505910Y0358188D01*
X0506058Y0358227D01*
X0506207Y0358263D01*
X0506357Y0358294D01*
X0506508Y0358322D01*
X0506659Y0358346D01*
X0506812Y0358366D01*
X0506964Y0358382D01*
X0507117Y0358394D01*
X0507270Y0358402D01*
X0507423Y0358406D01*
X0507577Y0358406D01*
X0507730Y0358402D01*
X0507883Y0358394D01*
X0508036Y0358382D01*
X0508188Y0358366D01*
X0508341Y0358346D01*
X0508492Y0358322D01*
X0508643Y0358294D01*
X0508793Y0358263D01*
X0508942Y0358227D01*
X0509090Y0358188D01*
X0509237Y0358145D01*
X0509383Y0358098D01*
X0509528Y0358047D01*
X0509671Y0357992D01*
X0509813Y0357934D01*
X0509953Y0357872D01*
X0510092Y0357807D01*
X0510229Y0357738D01*
X0510364Y0357665D01*
X0510497Y0357589D01*
X0510628Y0357509D01*
X0510757Y0357427D01*
X0510884Y0357340D01*
X0511009Y0357251D01*
X0511131Y0357158D01*
X0511250Y0357062D01*
X0511368Y0356963D01*
X0511482Y0356862D01*
X0511594Y0356757D01*
X0511703Y0356649D01*
X0511809Y0356538D01*
X0511913Y0356425D01*
X0512013Y0356309D01*
X0512111Y0356191D01*
X0512205Y0356070D01*
X0512296Y0355947D01*
X0512384Y0355821D01*
X0512468Y0355693D01*
X0512550Y0355563D01*
X0512627Y0355431D01*
X0512702Y0355297D01*
X0512773Y0355161D01*
X0512840Y0355023D01*
X0512904Y0354883D01*
X0512964Y0354742D01*
X0513020Y0354600D01*
X0513073Y0354456D01*
X0513122Y0354310D01*
X0513167Y0354164D01*
X0513208Y0354016D01*
X0513245Y0353868D01*
X0513279Y0353718D01*
X0513309Y0353567D01*
X0513334Y0353416D01*
X0513356Y0353265D01*
X0513374Y0353112D01*
X0513388Y0352960D01*
X0513398Y0352807D01*
X0513404Y0352653D01*
X0513406Y0352500D01*
X0513404Y0352347D01*
X0513398Y0352193D01*
X0513388Y0352040D01*
X0513374Y0351888D01*
X0513356Y0351735D01*
X0513334Y0351584D01*
X0513309Y0351433D01*
X0513279Y0351282D01*
X0513245Y0351132D01*
X0513208Y0350984D01*
X0513167Y0350836D01*
X0513122Y0350690D01*
X0513073Y0350544D01*
X0513020Y0350400D01*
X0512964Y0350258D01*
X0512904Y0350117D01*
X0512840Y0349977D01*
X0512773Y0349839D01*
X0512702Y0349703D01*
X0512627Y0349569D01*
X0512550Y0349437D01*
X0512468Y0349307D01*
X0512384Y0349179D01*
X0512296Y0349053D01*
X0512205Y0348930D01*
X0512111Y0348809D01*
X0512013Y0348691D01*
X0511913Y0348575D01*
X0511809Y0348462D01*
X0511703Y0348351D01*
X0511594Y0348243D01*
X0511482Y0348138D01*
X0511368Y0348037D01*
X0511250Y0347938D01*
X0511131Y0347842D01*
X0511009Y0347749D01*
X0510884Y0347660D01*
X0510757Y0347573D01*
X0510628Y0347491D01*
X0510497Y0347411D01*
X0510364Y0347335D01*
X0510229Y0347262D01*
X0510092Y0347193D01*
X0509953Y0347128D01*
X0509813Y0347066D01*
X0509671Y0347008D01*
X0509528Y0346953D01*
X0509383Y0346902D01*
X0509237Y0346855D01*
X0509090Y0346812D01*
X0508942Y0346773D01*
X0508793Y0346737D01*
X0508643Y0346706D01*
X0508492Y0346678D01*
X0508341Y0346654D01*
X0508188Y0346634D01*
X0508036Y0346618D01*
X0507883Y0346606D01*
X0507730Y0346598D01*
X0507577Y0346594D01*
X0507423Y0346594D01*
X0507270Y0346598D01*
X0507117Y0346606D01*
X0506964Y0346618D01*
X0506812Y0346634D01*
X0506659Y0346654D01*
X0506508Y0346678D01*
X0506357Y0346706D01*
X0506207Y0346737D01*
X0506058Y0346773D01*
X0505910Y0346812D01*
X0505763Y0346855D01*
X0505617Y0346902D01*
X0505472Y0346953D01*
X0505329Y0347008D01*
X0505187Y0347066D01*
X0505047Y0347128D01*
X0504908Y0347193D01*
X0504771Y0347262D01*
X0504636Y0347335D01*
X0504503Y0347411D01*
X0504372Y0347491D01*
X0504243Y0347573D01*
X0504116Y0347660D01*
X0503991Y0347749D01*
X0503869Y0347842D01*
X0503750Y0347938D01*
X0503632Y0348037D01*
X0503518Y0348138D01*
X0503406Y0348243D01*
X0503297Y0348351D01*
X0503191Y0348462D01*
X0503087Y0348575D01*
X0502987Y0348691D01*
X0502889Y0348809D01*
X0502795Y0348930D01*
X0502704Y0349053D01*
X0502616Y0349179D01*
X0502532Y0349307D01*
X0502450Y0349437D01*
X0502373Y0349569D01*
X0502298Y0349703D01*
X0502227Y0349839D01*
X0502160Y0349977D01*
X0502096Y0350117D01*
X0502036Y0350258D01*
X0501980Y0350400D01*
X0501927Y0350544D01*
X0501878Y0350690D01*
X0501833Y0350836D01*
X0501792Y0350984D01*
X0501755Y0351132D01*
X0501721Y0351282D01*
X0501691Y0351433D01*
X0501666Y0351584D01*
X0501644Y0351735D01*
X0501626Y0351888D01*
X0501612Y0352040D01*
X0501602Y0352193D01*
X0501596Y0352347D01*
X0501594Y0352500D01*
D11*
X0267250Y0364750D02*
X0264548Y0364750D01*
X0267250Y0366552D01*
X0264548Y0366552D01*
X0264548Y0367697D02*
X0264548Y0369048D01*
X0264998Y0369498D01*
X0265899Y0369498D01*
X0266349Y0369048D01*
X0266349Y0367697D01*
X0267250Y0367697D02*
X0264548Y0367697D01*
X0264548Y0370643D02*
X0264548Y0372445D01*
X0264548Y0371544D02*
X0267250Y0371544D01*
X0267250Y0373590D02*
X0264548Y0373590D01*
X0265899Y0373590D02*
X0265899Y0375391D01*
X0264548Y0375391D02*
X0267250Y0375391D01*
X0267250Y0277891D02*
X0264548Y0277891D01*
X0265899Y0277891D02*
X0265899Y0276090D01*
X0267250Y0276090D02*
X0264548Y0276090D01*
X0264548Y0274945D02*
X0264548Y0273143D01*
X0264548Y0274044D02*
X0267250Y0274044D01*
X0265899Y0271998D02*
X0264998Y0271998D01*
X0264548Y0271548D01*
X0264548Y0270197D01*
X0267250Y0270197D01*
X0266349Y0270197D02*
X0266349Y0271548D01*
X0265899Y0271998D01*
X0267250Y0269052D02*
X0264548Y0269052D01*
X0264548Y0267250D02*
X0267250Y0269052D01*
X0267250Y0267250D02*
X0264548Y0267250D01*
X0264548Y0179891D02*
X0267250Y0179891D01*
X0265899Y0179891D02*
X0265899Y0178090D01*
X0267250Y0178090D02*
X0264548Y0178090D01*
X0264548Y0176945D02*
X0264548Y0175143D01*
X0264548Y0176044D02*
X0267250Y0176044D01*
X0265899Y0173998D02*
X0264998Y0173998D01*
X0264548Y0173548D01*
X0264548Y0172197D01*
X0267250Y0172197D01*
X0266349Y0172197D02*
X0266349Y0173548D01*
X0265899Y0173998D01*
X0267250Y0171052D02*
X0264548Y0171052D01*
X0264548Y0169250D02*
X0267250Y0171052D01*
X0267250Y0169250D02*
X0264548Y0169250D01*
X0264544Y0099452D02*
X0264544Y0096750D01*
X0266590Y0096750D02*
X0266590Y0099452D01*
X0265445Y0099452D02*
X0263643Y0099452D01*
X0262498Y0099002D02*
X0262498Y0098101D01*
X0262048Y0097651D01*
X0260697Y0097651D01*
X0260697Y0096750D02*
X0260697Y0099452D01*
X0262048Y0099452D01*
X0262498Y0099002D01*
X0259552Y0099452D02*
X0259552Y0096750D01*
X0257750Y0099452D01*
X0257750Y0096750D01*
X0266590Y0098101D02*
X0268391Y0098101D01*
X0268391Y0099452D02*
X0268391Y0096750D01*
X0267250Y0013891D02*
X0264548Y0013891D01*
X0265899Y0013891D02*
X0265899Y0012090D01*
X0267250Y0012090D02*
X0264548Y0012090D01*
X0264548Y0010945D02*
X0264548Y0009143D01*
X0264548Y0010044D02*
X0267250Y0010044D01*
X0265899Y0007998D02*
X0266349Y0007548D01*
X0266349Y0006197D01*
X0267250Y0006197D02*
X0264548Y0006197D01*
X0264548Y0007548D01*
X0264998Y0007998D01*
X0265899Y0007998D01*
X0267250Y0005052D02*
X0264548Y0005052D01*
X0264548Y0003250D02*
X0267250Y0005052D01*
X0267250Y0003250D02*
X0264548Y0003250D01*
X0013891Y0096750D02*
X0013891Y0099452D01*
X0013891Y0098101D02*
X0012090Y0098101D01*
X0012090Y0096750D02*
X0012090Y0099452D01*
X0010945Y0099452D02*
X0009143Y0099452D01*
X0010044Y0099452D02*
X0010044Y0096750D01*
X0007998Y0098101D02*
X0007548Y0097651D01*
X0006197Y0097651D01*
X0006197Y0096750D02*
X0006197Y0099452D01*
X0007548Y0099452D01*
X0007998Y0099002D01*
X0007998Y0098101D01*
X0005052Y0096750D02*
X0005052Y0099452D01*
X0003250Y0099452D02*
X0005052Y0096750D01*
X0003250Y0096750D02*
X0003250Y0099452D01*
D12*
X0015000Y0098000D02*
X0019000Y0101000D01*
X0017000Y0101000D01*
X0019000Y0101000D02*
X0019000Y0099500D01*
X0251000Y0100500D02*
X0252000Y0097500D01*
X0251000Y0100500D02*
X0253500Y0101500D01*
X0251000Y0100500D02*
X0256000Y0097500D01*
X0263000Y0159500D02*
X0262500Y0163500D01*
X0263000Y0159500D02*
X0266500Y0162500D01*
X0263000Y0159500D02*
X0266000Y0167500D01*
X0263000Y0257500D02*
X0262500Y0261500D01*
X0263000Y0257500D02*
X0266500Y0260500D01*
X0263000Y0257500D02*
X0266000Y0265500D01*
X0263000Y0355000D02*
X0262500Y0359000D01*
X0263000Y0355000D02*
X0266500Y0358000D01*
X0263000Y0355000D02*
X0266000Y0363000D01*
X0263000Y0021000D02*
X0266000Y0019500D01*
X0263000Y0021000D02*
X0262500Y0018000D01*
X0263000Y0021000D02*
X0265500Y0015500D01*
D13*
X0175626Y0101650D02*
X0175626Y0103351D01*
X0175626Y0102501D02*
X0174492Y0102501D01*
X0174492Y0103351D02*
X0174492Y0101650D01*
X0173217Y0101650D02*
X0173217Y0103351D01*
X0172650Y0103351D02*
X0173784Y0103351D01*
X0171943Y0103068D02*
X0171943Y0102501D01*
X0171659Y0102217D01*
X0170808Y0102217D01*
X0170808Y0101650D02*
X0170808Y0103351D01*
X0171659Y0103351D01*
X0171943Y0103068D01*
X0170101Y0103351D02*
X0170101Y0101650D01*
X0168967Y0103351D01*
X0168967Y0101650D01*
X0065626Y0101650D02*
X0065626Y0103351D01*
X0065626Y0102501D02*
X0064492Y0102501D01*
X0064492Y0103351D02*
X0064492Y0101650D01*
X0063217Y0101650D02*
X0063217Y0103351D01*
X0062650Y0103351D02*
X0063784Y0103351D01*
X0061943Y0103068D02*
X0061943Y0102501D01*
X0061659Y0102217D01*
X0060808Y0102217D01*
X0060808Y0101650D02*
X0060808Y0103351D01*
X0061659Y0103351D01*
X0061943Y0103068D01*
X0060101Y0103351D02*
X0060101Y0101650D01*
X0058967Y0103351D01*
X0058967Y0101650D01*
X0228967Y0301650D02*
X0228967Y0303351D01*
X0230101Y0301650D01*
X0230101Y0303351D01*
X0230808Y0303351D02*
X0231659Y0303351D01*
X0231943Y0303068D01*
X0231943Y0302501D01*
X0231659Y0302217D01*
X0230808Y0302217D01*
X0230808Y0301650D02*
X0230808Y0303351D01*
X0232650Y0303351D02*
X0233784Y0303351D01*
X0233217Y0303351D02*
X0233217Y0301650D01*
X0234492Y0301650D02*
X0234492Y0303351D01*
X0234492Y0302501D02*
X0235626Y0302501D01*
X0235626Y0303351D02*
X0235626Y0301650D01*
X0045626Y0306650D02*
X0045626Y0308351D01*
X0045626Y0307501D02*
X0044492Y0307501D01*
X0044492Y0308351D02*
X0044492Y0306650D01*
X0043217Y0306650D02*
X0043217Y0308351D01*
X0042650Y0308351D02*
X0043784Y0308351D01*
X0041943Y0308068D02*
X0041943Y0307501D01*
X0041659Y0307217D01*
X0040808Y0307217D01*
X0040808Y0306650D02*
X0040808Y0308351D01*
X0041659Y0308351D01*
X0041943Y0308068D01*
X0040101Y0308351D02*
X0040101Y0306650D01*
X0038967Y0308351D01*
X0038967Y0306650D01*
D14*
X0503096Y0351450D02*
X0503096Y0353552D01*
X0504497Y0351450D01*
X0504497Y0353552D01*
X0505398Y0353552D02*
X0505398Y0351450D01*
X0505398Y0352151D02*
X0506449Y0352151D01*
X0506799Y0352501D01*
X0506799Y0353201D01*
X0506449Y0353552D01*
X0505398Y0353552D01*
X0507700Y0353552D02*
X0509101Y0353552D01*
X0508401Y0353552D02*
X0508401Y0351450D01*
X0510002Y0351450D02*
X0510002Y0353552D01*
X0510002Y0352501D02*
X0511403Y0352501D01*
X0511403Y0353552D02*
X0511403Y0351450D01*
X0511403Y0023552D02*
X0511403Y0021450D01*
X0511403Y0022501D02*
X0510002Y0022501D01*
X0510002Y0021450D02*
X0510002Y0023552D01*
X0509101Y0023552D02*
X0507700Y0023552D01*
X0508401Y0023552D02*
X0508401Y0021450D01*
X0506799Y0022501D02*
X0506449Y0022151D01*
X0505398Y0022151D01*
X0505398Y0021450D02*
X0505398Y0023552D01*
X0506449Y0023552D01*
X0506799Y0023201D01*
X0506799Y0022501D01*
X0504497Y0021450D02*
X0504497Y0023552D01*
X0503096Y0023552D02*
X0504497Y0021450D01*
X0503096Y0021450D02*
X0503096Y0023552D01*
M02*
