G75*
%MOIN*%
%OFA0B0*%
%FSLAX25Y25*%
%IPPOS*%
%LPD*%
%AMOC8*
5,1,8,0,0,1.08239X$1,22.5*
%
%ADD10C,0.00600*%
%ADD11C,0.03307*%
%ADD12C,0.05700*%
%ADD13C,0.04000*%
%ADD14C,0.01000*%
%ADD15C,0.03500*%
%ADD16C,0.01500*%
%ADD17C,0.03000*%
%ADD18C,0.02000*%
%ADD19C,0.03575*%
%ADD20C,0.07500*%
D10*
X0218217Y0336111D02*
X0217649Y0336678D01*
X0217649Y0338947D01*
X0218217Y0339514D01*
X0219351Y0339514D01*
X0219918Y0338947D01*
X0219918Y0338380D01*
X0219351Y0337812D01*
X0217649Y0337812D01*
X0218217Y0336111D02*
X0219351Y0336111D01*
X0219918Y0336678D01*
X0221333Y0336111D02*
X0223601Y0336111D01*
X0222467Y0336111D02*
X0222467Y0339514D01*
X0223601Y0338380D01*
X0225016Y0338947D02*
X0227284Y0336678D01*
X0226717Y0336111D01*
X0225583Y0336111D01*
X0225016Y0336678D01*
X0225016Y0338947D01*
X0225583Y0339514D01*
X0226717Y0339514D01*
X0227284Y0338947D01*
X0227284Y0336678D01*
X0228699Y0336111D02*
X0230967Y0336111D01*
X0228699Y0338380D01*
X0228699Y0338947D01*
X0229266Y0339514D01*
X0230400Y0339514D01*
X0230967Y0338947D01*
X0230967Y0342111D02*
X0230400Y0342111D01*
X0230400Y0342678D01*
X0230967Y0342678D01*
X0230967Y0342111D01*
X0232382Y0342111D02*
X0234651Y0342111D01*
X0233516Y0342111D02*
X0233516Y0345514D01*
X0234651Y0344380D01*
X0236065Y0345514D02*
X0236065Y0343245D01*
X0237199Y0342111D01*
X0238334Y0343245D01*
X0238334Y0345514D01*
X0239748Y0345514D02*
X0242017Y0345514D01*
X0242017Y0342111D01*
X0239748Y0342111D01*
X0240883Y0343812D02*
X0242017Y0343812D01*
X0243431Y0343812D02*
X0243999Y0343245D01*
X0245700Y0343245D01*
X0245700Y0342111D02*
X0245700Y0345514D01*
X0243999Y0345514D01*
X0243431Y0344947D01*
X0243431Y0343812D01*
X0244566Y0343245D02*
X0243431Y0342111D01*
X0243999Y0339514D02*
X0243431Y0338947D01*
X0243431Y0336678D01*
X0243999Y0336111D01*
X0245133Y0336111D01*
X0245700Y0336678D01*
X0245700Y0338947D01*
X0245133Y0339514D01*
X0243999Y0339514D01*
X0242017Y0338947D02*
X0242017Y0336678D01*
X0241450Y0336111D01*
X0240315Y0336111D01*
X0239748Y0336678D01*
X0239748Y0338947D02*
X0240315Y0339514D01*
X0241450Y0339514D01*
X0242017Y0338947D01*
X0238334Y0339514D02*
X0236065Y0339514D01*
X0237199Y0339514D02*
X0237199Y0336111D01*
X0229126Y0342678D02*
X0226857Y0344947D01*
X0226857Y0342678D01*
X0227424Y0342111D01*
X0228559Y0342111D01*
X0229126Y0342678D01*
X0229126Y0344947D01*
X0228559Y0345514D01*
X0227424Y0345514D01*
X0226857Y0344947D01*
X0225443Y0342678D02*
X0224876Y0342678D01*
X0224876Y0342111D01*
X0225443Y0342111D01*
X0225443Y0342678D01*
X0223601Y0342678D02*
X0221333Y0344947D01*
X0221333Y0342678D01*
X0221900Y0342111D01*
X0223034Y0342111D01*
X0223601Y0342678D01*
X0223601Y0344947D01*
X0223034Y0345514D01*
X0221900Y0345514D01*
X0221333Y0344947D01*
D11*
X0192489Y0344859D02*
X0192489Y0340685D01*
X0191071Y0340685D01*
X0191071Y0344859D01*
X0192489Y0344859D01*
X0192489Y0343991D02*
X0191071Y0343991D01*
X0163511Y0344937D02*
X0163511Y0340763D01*
X0163511Y0344937D02*
X0164929Y0344937D01*
X0164929Y0340763D01*
X0163511Y0340763D01*
X0163511Y0344069D02*
X0164929Y0344069D01*
D12*
X0168157Y0332181D03*
X0187843Y0332181D03*
D13*
X0184500Y0319811D03*
X0163000Y0322811D03*
X0146000Y0297811D03*
X0158500Y0292811D03*
X0137000Y0280811D03*
X0123000Y0262811D03*
X0108500Y0273811D03*
X0093000Y0293811D03*
X0088000Y0293811D03*
X0088000Y0301311D03*
X0093000Y0301311D03*
X0118000Y0297811D03*
X0116000Y0323811D03*
X0116000Y0329811D03*
X0125000Y0329811D03*
X0125000Y0323811D03*
X0125000Y0341811D03*
X0125000Y0347811D03*
X0116000Y0347811D03*
X0116000Y0341811D03*
X0048000Y0332811D03*
X0023000Y0332811D03*
X0050500Y0305311D03*
X0018000Y0282811D03*
X0018000Y0262811D03*
X0018000Y0242811D03*
X0018000Y0222811D03*
X0051000Y0245811D03*
X0049000Y0265811D03*
X0103000Y0242811D03*
X0103000Y0227811D03*
X0088000Y0227811D03*
X0105500Y0182311D03*
X0082000Y0156811D03*
X0108000Y0142811D03*
X0127000Y0122311D03*
X0107000Y0117811D03*
X0093000Y0117811D03*
X0078000Y0117811D03*
X0078000Y0102811D03*
X0093000Y0102811D03*
X0107000Y0102811D03*
X0107000Y0087811D03*
X0093000Y0087811D03*
X0078000Y0087811D03*
X0018000Y0112811D03*
X0018000Y0132811D03*
X0018000Y0152811D03*
X0018000Y0172811D03*
X0033000Y0172811D03*
X0208000Y0277811D03*
X0208000Y0292811D03*
X0233000Y0311311D03*
X0233000Y0327311D03*
X0243000Y0277811D03*
X0243000Y0257811D03*
X0231000Y0112811D03*
D14*
X0014700Y0006811D02*
X0014744Y0006362D01*
X0015088Y0005533D01*
X0015722Y0004899D01*
X0015722Y0004899D01*
X0016551Y0004555D01*
X0017000Y0004511D01*
X0251000Y0004511D01*
X0251449Y0004555D01*
X0252278Y0004899D01*
X0252912Y0005533D01*
X0253256Y0006362D01*
X0253300Y0006811D01*
X0253300Y0029144D01*
X0253463Y0029536D01*
X0253349Y0029536D01*
X0252145Y0030035D01*
X0251224Y0030956D01*
X0250725Y0032160D01*
X0250725Y0033462D01*
X0251224Y0034666D01*
X0251869Y0035311D01*
X0251224Y0035956D01*
X0250725Y0037160D01*
X0250725Y0038462D01*
X0251224Y0039666D01*
X0251869Y0040311D01*
X0251224Y0040956D01*
X0250725Y0042160D01*
X0250725Y0043462D01*
X0251224Y0044666D01*
X0251869Y0045311D01*
X0251224Y0045956D01*
X0250725Y0047160D01*
X0250725Y0048462D01*
X0251224Y0049666D01*
X0251869Y0050311D01*
X0251224Y0050956D01*
X0250725Y0052160D01*
X0250725Y0053462D01*
X0251224Y0054666D01*
X0252145Y0055587D01*
X0253349Y0056086D01*
X0253463Y0056086D01*
X0253300Y0056478D01*
X0253300Y0078811D01*
X0253256Y0079260D01*
X0252912Y0080089D01*
X0252278Y0080723D01*
X0252066Y0080811D01*
X0191404Y0080811D01*
X0179704Y0069111D01*
X0043296Y0069111D01*
X0031596Y0080811D01*
X0015934Y0080811D01*
X0015722Y0080723D01*
X0015088Y0080089D01*
X0014744Y0079260D01*
X0014700Y0078811D01*
X0014700Y0006811D01*
X0014700Y0006924D02*
X0253300Y0006924D01*
X0253300Y0007923D02*
X0014700Y0007923D01*
X0014700Y0008921D02*
X0253300Y0008921D01*
X0253300Y0009920D02*
X0014700Y0009920D01*
X0014700Y0010918D02*
X0253300Y0010918D01*
X0253300Y0011917D02*
X0014700Y0011917D01*
X0014700Y0012915D02*
X0253300Y0012915D01*
X0253300Y0013914D02*
X0014700Y0013914D01*
X0014700Y0014912D02*
X0253300Y0014912D01*
X0253300Y0015911D02*
X0014700Y0015911D01*
X0014700Y0016909D02*
X0253300Y0016909D01*
X0253300Y0017908D02*
X0014700Y0017908D01*
X0014700Y0018906D02*
X0253300Y0018906D01*
X0253300Y0019905D02*
X0014700Y0019905D01*
X0014700Y0020903D02*
X0253300Y0020903D01*
X0253300Y0021902D02*
X0014700Y0021902D01*
X0014700Y0022900D02*
X0253300Y0022900D01*
X0253300Y0023899D02*
X0014700Y0023899D01*
X0014700Y0024897D02*
X0253300Y0024897D01*
X0253300Y0025896D02*
X0014700Y0025896D01*
X0014700Y0026894D02*
X0253300Y0026894D01*
X0253300Y0027893D02*
X0014700Y0027893D01*
X0014700Y0028891D02*
X0253300Y0028891D01*
X0252495Y0029890D02*
X0014700Y0029890D01*
X0014700Y0030888D02*
X0251291Y0030888D01*
X0250838Y0031887D02*
X0014700Y0031887D01*
X0014700Y0032885D02*
X0250725Y0032885D01*
X0250900Y0033884D02*
X0014700Y0033884D01*
X0014700Y0034882D02*
X0251440Y0034882D01*
X0251299Y0035881D02*
X0014700Y0035881D01*
X0014700Y0036880D02*
X0250841Y0036880D01*
X0250725Y0037878D02*
X0014700Y0037878D01*
X0014700Y0038877D02*
X0250897Y0038877D01*
X0251433Y0039875D02*
X0014700Y0039875D01*
X0014700Y0040874D02*
X0251306Y0040874D01*
X0250844Y0041872D02*
X0014700Y0041872D01*
X0014700Y0042871D02*
X0250725Y0042871D01*
X0250894Y0043869D02*
X0014700Y0043869D01*
X0014700Y0044868D02*
X0251425Y0044868D01*
X0251314Y0045866D02*
X0014700Y0045866D01*
X0014700Y0046865D02*
X0250847Y0046865D01*
X0250725Y0047863D02*
X0014700Y0047863D01*
X0014700Y0048862D02*
X0250891Y0048862D01*
X0251418Y0049860D02*
X0014700Y0049860D01*
X0014700Y0050859D02*
X0251321Y0050859D01*
X0250850Y0051857D02*
X0014700Y0051857D01*
X0014700Y0052856D02*
X0250725Y0052856D01*
X0250887Y0053854D02*
X0014700Y0053854D01*
X0014700Y0054853D02*
X0251410Y0054853D01*
X0252782Y0055851D02*
X0014700Y0055851D01*
X0014700Y0056850D02*
X0253300Y0056850D01*
X0253300Y0057848D02*
X0014700Y0057848D01*
X0014700Y0058847D02*
X0253300Y0058847D01*
X0253300Y0059845D02*
X0014700Y0059845D01*
X0014700Y0060844D02*
X0253300Y0060844D01*
X0253300Y0061842D02*
X0014700Y0061842D01*
X0014700Y0062841D02*
X0253300Y0062841D01*
X0253300Y0063839D02*
X0014700Y0063839D01*
X0014700Y0064838D02*
X0253300Y0064838D01*
X0253300Y0065836D02*
X0014700Y0065836D01*
X0014700Y0066835D02*
X0253300Y0066835D01*
X0253300Y0067833D02*
X0014700Y0067833D01*
X0014700Y0068832D02*
X0253300Y0068832D01*
X0253300Y0069830D02*
X0180423Y0069830D01*
X0181422Y0070829D02*
X0253300Y0070829D01*
X0253300Y0071827D02*
X0182421Y0071827D01*
X0183419Y0072826D02*
X0253300Y0072826D01*
X0253300Y0073824D02*
X0184418Y0073824D01*
X0185416Y0074823D02*
X0253300Y0074823D01*
X0253300Y0075821D02*
X0186415Y0075821D01*
X0187413Y0076820D02*
X0253300Y0076820D01*
X0253300Y0077818D02*
X0188412Y0077818D01*
X0189410Y0078817D02*
X0253299Y0078817D01*
X0253026Y0079815D02*
X0190409Y0079815D01*
X0180163Y0088802D02*
X0179293Y0088802D01*
X0179276Y0088707D02*
X0180000Y0092811D01*
X0179276Y0096915D01*
X0177193Y0100524D01*
X0174170Y0103061D01*
X0175861Y0103061D01*
X0183442Y0095480D01*
X0184453Y0095061D01*
X0201547Y0095061D01*
X0202558Y0095480D01*
X0217831Y0110753D01*
X0218250Y0111764D01*
X0218250Y0153672D01*
X0230831Y0166253D01*
X0231250Y0167264D01*
X0231250Y0214270D01*
X0232124Y0214632D01*
X0233179Y0215687D01*
X0233750Y0217065D01*
X0233750Y0218557D01*
X0233179Y0219935D01*
X0232124Y0220990D01*
X0230746Y0221561D01*
X0229254Y0221561D01*
X0227876Y0220990D01*
X0226821Y0219935D01*
X0226250Y0218557D01*
X0226250Y0217950D01*
X0226169Y0217869D01*
X0225750Y0216858D01*
X0225750Y0204311D01*
X0216003Y0204311D01*
X0215250Y0203999D01*
X0215250Y0213172D01*
X0226139Y0224061D01*
X0226746Y0224061D01*
X0228124Y0224632D01*
X0229179Y0225687D01*
X0229750Y0227065D01*
X0229750Y0228557D01*
X0229179Y0229935D01*
X0228124Y0230990D01*
X0227377Y0231299D01*
X0230139Y0234061D01*
X0230746Y0234061D01*
X0232124Y0234632D01*
X0233179Y0235687D01*
X0233750Y0237065D01*
X0233750Y0238557D01*
X0233179Y0239935D01*
X0232124Y0240990D01*
X0230746Y0241561D01*
X0229254Y0241561D01*
X0227876Y0240990D01*
X0226821Y0239935D01*
X0226250Y0238557D01*
X0226250Y0237950D01*
X0209250Y0220950D01*
X0209250Y0246710D01*
X0208831Y0247720D01*
X0208058Y0248494D01*
X0200409Y0256142D01*
X0199398Y0256561D01*
X0172139Y0256561D01*
X0167787Y0260913D01*
X0167787Y0261564D01*
X0167211Y0262956D01*
X0166856Y0263311D01*
X0167211Y0263666D01*
X0167787Y0265058D01*
X0167787Y0266564D01*
X0167582Y0267061D01*
X0180047Y0267061D01*
X0181058Y0267480D01*
X0190058Y0276480D01*
X0190831Y0277253D01*
X0191250Y0278264D01*
X0191250Y0298672D01*
X0198602Y0306024D01*
X0199253Y0306024D01*
X0200645Y0306600D01*
X0201711Y0307666D01*
X0202287Y0309058D01*
X0202287Y0310564D01*
X0201711Y0311956D01*
X0200830Y0312837D01*
X0201679Y0313687D01*
X0202250Y0315065D01*
X0202250Y0316557D01*
X0201679Y0317935D01*
X0200624Y0318990D01*
X0199246Y0319561D01*
X0198639Y0319561D01*
X0192058Y0326142D01*
X0191047Y0326561D01*
X0175453Y0326561D01*
X0174442Y0326142D01*
X0173669Y0325369D01*
X0162169Y0313869D01*
X0161750Y0312858D01*
X0161750Y0306950D01*
X0160888Y0306088D01*
X0159746Y0306561D01*
X0158254Y0306561D01*
X0156876Y0305990D01*
X0155821Y0304935D01*
X0155250Y0303557D01*
X0155250Y0302065D01*
X0155821Y0300687D01*
X0156876Y0299632D01*
X0158254Y0299061D01*
X0159746Y0299061D01*
X0161124Y0299632D01*
X0161553Y0300061D01*
X0162047Y0300061D01*
X0163058Y0300480D01*
X0166058Y0303480D01*
X0166831Y0304253D01*
X0167250Y0305264D01*
X0167250Y0311172D01*
X0177139Y0321061D01*
X0180688Y0321061D01*
X0180500Y0320607D01*
X0180500Y0319015D01*
X0181109Y0317545D01*
X0181500Y0317154D01*
X0181500Y0282660D01*
X0181179Y0283435D01*
X0180750Y0283864D01*
X0180750Y0307358D01*
X0180331Y0308369D01*
X0179558Y0309142D01*
X0176972Y0311728D01*
X0176679Y0312435D01*
X0175624Y0313490D01*
X0174246Y0314061D01*
X0172754Y0314061D01*
X0171376Y0313490D01*
X0170321Y0312435D01*
X0169750Y0311057D01*
X0169750Y0309565D01*
X0170321Y0308187D01*
X0170697Y0307811D01*
X0170321Y0307435D01*
X0169750Y0306057D01*
X0169750Y0304565D01*
X0170321Y0303187D01*
X0170750Y0302758D01*
X0170750Y0280864D01*
X0170321Y0280435D01*
X0169750Y0279057D01*
X0169750Y0277565D01*
X0170062Y0276811D01*
X0111157Y0276811D01*
X0110766Y0277202D01*
X0109296Y0277811D01*
X0107704Y0277811D01*
X0106234Y0277202D01*
X0105109Y0276077D01*
X0104500Y0274607D01*
X0104500Y0273015D01*
X0105109Y0271545D01*
X0106234Y0270420D01*
X0107704Y0269811D01*
X0109296Y0269811D01*
X0110766Y0270420D01*
X0111157Y0270811D01*
X0159611Y0270811D01*
X0155442Y0266642D01*
X0154669Y0265869D01*
X0154250Y0264858D01*
X0154250Y0256882D01*
X0154669Y0255871D01*
X0155442Y0255097D01*
X0158479Y0252061D01*
X0115139Y0252061D01*
X0085250Y0281950D01*
X0085250Y0310172D01*
X0089102Y0314024D01*
X0089753Y0314024D01*
X0091145Y0314600D01*
X0092211Y0315666D01*
X0092787Y0317058D01*
X0092787Y0318564D01*
X0092211Y0319956D01*
X0091145Y0321022D01*
X0089753Y0321598D01*
X0088247Y0321598D01*
X0086855Y0321022D01*
X0085789Y0319956D01*
X0085213Y0318564D01*
X0085213Y0317913D01*
X0080734Y0313434D01*
X0080145Y0314022D01*
X0078753Y0314598D01*
X0077247Y0314598D01*
X0075855Y0314022D01*
X0074789Y0312956D01*
X0074213Y0311564D01*
X0074213Y0310058D01*
X0074789Y0308666D01*
X0075855Y0307600D01*
X0076750Y0307229D01*
X0076750Y0278764D01*
X0077169Y0277753D01*
X0110942Y0243980D01*
X0111953Y0243561D01*
X0123861Y0243561D01*
X0128240Y0239182D01*
X0127855Y0239022D01*
X0126789Y0237956D01*
X0126459Y0237159D01*
X0120669Y0231369D01*
X0120250Y0230358D01*
X0120250Y0216450D01*
X0111925Y0208125D01*
X0096075Y0208125D01*
X0085558Y0218642D01*
X0084547Y0219061D01*
X0067453Y0219061D01*
X0066442Y0218642D01*
X0062750Y0214950D01*
X0062750Y0226858D01*
X0062331Y0227869D01*
X0057287Y0232913D01*
X0057287Y0233564D01*
X0056711Y0234956D01*
X0055645Y0236022D01*
X0054253Y0236598D01*
X0052747Y0236598D01*
X0052000Y0236289D01*
X0052000Y0237308D01*
X0051619Y0238227D01*
X0050916Y0238930D01*
X0049997Y0239311D01*
X0040003Y0239311D01*
X0039084Y0238930D01*
X0038381Y0238227D01*
X0038000Y0237308D01*
X0038000Y0228314D01*
X0038381Y0227395D01*
X0039084Y0226692D01*
X0040003Y0226311D01*
X0048111Y0226311D01*
X0050250Y0224172D01*
X0050250Y0219206D01*
X0049997Y0219311D01*
X0040003Y0219311D01*
X0039084Y0218930D01*
X0038381Y0218227D01*
X0038000Y0217308D01*
X0038000Y0208314D01*
X0038381Y0207395D01*
X0039084Y0206692D01*
X0040003Y0206311D01*
X0047553Y0206311D01*
X0046855Y0206022D01*
X0045789Y0204956D01*
X0045213Y0203564D01*
X0045213Y0202058D01*
X0045789Y0200666D01*
X0046855Y0199600D01*
X0048247Y0199024D01*
X0048898Y0199024D01*
X0054250Y0193672D01*
X0054250Y0187264D01*
X0054669Y0186253D01*
X0055442Y0185480D01*
X0071942Y0168980D01*
X0072953Y0168561D01*
X0074361Y0168561D01*
X0079713Y0163209D01*
X0079713Y0162558D01*
X0080289Y0161166D01*
X0081355Y0160100D01*
X0082747Y0159524D01*
X0083398Y0159524D01*
X0087669Y0155253D01*
X0088442Y0154480D01*
X0089453Y0154061D01*
X0115861Y0154061D01*
X0125250Y0144672D01*
X0125250Y0134264D01*
X0125669Y0133253D01*
X0137669Y0121253D01*
X0138442Y0120480D01*
X0139453Y0120061D01*
X0159361Y0120061D01*
X0161713Y0117709D01*
X0161713Y0117544D01*
X0160376Y0116990D01*
X0159321Y0115935D01*
X0158750Y0114557D01*
X0158750Y0113559D01*
X0157376Y0112990D01*
X0156321Y0111935D01*
X0155750Y0110557D01*
X0155750Y0109559D01*
X0154376Y0108990D01*
X0153321Y0107935D01*
X0152750Y0106557D01*
X0152750Y0105065D01*
X0153321Y0103687D01*
X0154376Y0102632D01*
X0155754Y0102061D01*
X0157246Y0102061D01*
X0158624Y0102632D01*
X0159053Y0103061D01*
X0161830Y0103061D01*
X0158807Y0100524D01*
X0156724Y0096915D01*
X0156000Y0092811D01*
X0156724Y0088707D01*
X0158807Y0085098D01*
X0161532Y0082811D01*
X0154499Y0082811D01*
X0154500Y0082814D01*
X0154500Y0093808D01*
X0154119Y0094727D01*
X0153416Y0095430D01*
X0152497Y0095811D01*
X0143503Y0095811D01*
X0142584Y0095430D01*
X0141881Y0094727D01*
X0141500Y0093808D01*
X0141500Y0082814D01*
X0141501Y0082811D01*
X0064468Y0082811D01*
X0067193Y0085098D01*
X0069276Y0088707D01*
X0070000Y0092811D01*
X0069276Y0096915D01*
X0067193Y0100524D01*
X0064000Y0103203D01*
X0060084Y0104629D01*
X0055916Y0104629D01*
X0052000Y0103203D01*
X0052000Y0107308D01*
X0051619Y0108227D01*
X0050916Y0108930D01*
X0049997Y0109311D01*
X0040003Y0109311D01*
X0039084Y0108930D01*
X0038381Y0108227D01*
X0038000Y0107308D01*
X0038000Y0098314D01*
X0038381Y0097395D01*
X0039084Y0096692D01*
X0040003Y0096311D01*
X0046617Y0096311D01*
X0046000Y0092811D01*
X0046724Y0088707D01*
X0048807Y0085098D01*
X0051532Y0082811D01*
X0050828Y0082811D01*
X0038828Y0094811D01*
X0035608Y0094811D01*
X0035477Y0094757D01*
X0035031Y0095836D01*
X0034025Y0096842D01*
X0032711Y0097386D01*
X0031289Y0097386D01*
X0029975Y0096842D01*
X0029500Y0096367D01*
X0029025Y0096842D01*
X0027711Y0097386D01*
X0026289Y0097386D01*
X0024975Y0096842D01*
X0024500Y0096367D01*
X0024025Y0096842D01*
X0022711Y0097386D01*
X0021289Y0097386D01*
X0019975Y0096842D01*
X0018969Y0095836D01*
X0018523Y0094757D01*
X0018392Y0094811D01*
X0017000Y0094811D01*
X0016610Y0094849D01*
X0015889Y0095148D01*
X0015337Y0095700D01*
X0015038Y0096421D01*
X0015000Y0096811D01*
X0015000Y0348811D01*
X0015038Y0349201D01*
X0015337Y0349922D01*
X0015889Y0350474D01*
X0016610Y0350773D01*
X0017000Y0350811D01*
X0110500Y0350811D01*
X0110500Y0320814D01*
X0110881Y0319895D01*
X0111584Y0319192D01*
X0112503Y0318811D01*
X0128497Y0318811D01*
X0129416Y0319192D01*
X0130119Y0319895D01*
X0130500Y0320814D01*
X0130500Y0350811D01*
X0165672Y0350811D01*
X0167500Y0348983D01*
X0168672Y0347811D01*
X0187328Y0347811D01*
X0190328Y0350811D01*
X0251000Y0350811D01*
X0251390Y0350773D01*
X0252111Y0350474D01*
X0252663Y0349922D01*
X0252962Y0349201D01*
X0253000Y0348811D01*
X0253000Y0326266D01*
X0251975Y0325842D01*
X0250969Y0324836D01*
X0250425Y0323522D01*
X0250425Y0322100D01*
X0250969Y0320786D01*
X0251444Y0320311D01*
X0250969Y0319836D01*
X0250425Y0318522D01*
X0250425Y0317100D01*
X0250969Y0315786D01*
X0251444Y0315311D01*
X0250969Y0314836D01*
X0250425Y0313522D01*
X0250425Y0312100D01*
X0250969Y0310786D01*
X0251444Y0310311D01*
X0250969Y0309836D01*
X0250425Y0308522D01*
X0250425Y0307100D01*
X0250969Y0305786D01*
X0251444Y0305311D01*
X0250969Y0304836D01*
X0250425Y0303522D01*
X0250425Y0302100D01*
X0250969Y0300786D01*
X0251975Y0299780D01*
X0253000Y0299356D01*
X0253000Y0191266D01*
X0251975Y0190842D01*
X0250969Y0189836D01*
X0250425Y0188522D01*
X0250425Y0187100D01*
X0250969Y0185786D01*
X0251444Y0185311D01*
X0250969Y0184836D01*
X0250425Y0183522D01*
X0250425Y0182100D01*
X0250969Y0180786D01*
X0251444Y0180311D01*
X0250969Y0179836D01*
X0250425Y0178522D01*
X0250425Y0177100D01*
X0250969Y0175786D01*
X0251444Y0175311D01*
X0250969Y0174836D01*
X0250425Y0173522D01*
X0250425Y0172100D01*
X0250969Y0170786D01*
X0251444Y0170311D01*
X0250969Y0169836D01*
X0250425Y0168522D01*
X0250425Y0167100D01*
X0250969Y0165786D01*
X0251975Y0164780D01*
X0253000Y0164356D01*
X0253000Y0096811D01*
X0252962Y0096421D01*
X0252663Y0095700D01*
X0252111Y0095148D01*
X0251390Y0094849D01*
X0251000Y0094811D01*
X0234608Y0094811D01*
X0234477Y0094757D01*
X0234031Y0095836D01*
X0233555Y0096311D01*
X0239497Y0096311D01*
X0240416Y0096692D01*
X0241119Y0097395D01*
X0241500Y0098314D01*
X0241500Y0107308D01*
X0241119Y0108227D01*
X0240416Y0108930D01*
X0239497Y0109311D01*
X0229503Y0109311D01*
X0228584Y0108930D01*
X0227881Y0108227D01*
X0227500Y0107308D01*
X0227500Y0098314D01*
X0227881Y0097395D01*
X0228584Y0096692D01*
X0228754Y0096621D01*
X0228500Y0096367D01*
X0228025Y0096842D01*
X0226711Y0097386D01*
X0225289Y0097386D01*
X0223975Y0096842D01*
X0223500Y0096367D01*
X0223025Y0096842D01*
X0221711Y0097386D01*
X0220289Y0097386D01*
X0218975Y0096842D01*
X0218500Y0096367D01*
X0218025Y0096842D01*
X0216711Y0097386D01*
X0215289Y0097386D01*
X0213975Y0096842D01*
X0213500Y0096367D01*
X0213025Y0096842D01*
X0211711Y0097386D01*
X0210289Y0097386D01*
X0208975Y0096842D01*
X0207969Y0095836D01*
X0207523Y0094757D01*
X0207392Y0094811D01*
X0186172Y0094811D01*
X0178196Y0086835D01*
X0179276Y0088707D01*
X0179164Y0087804D02*
X0178755Y0087804D01*
X0179469Y0089801D02*
X0181161Y0089801D01*
X0182160Y0090799D02*
X0179645Y0090799D01*
X0179821Y0091798D02*
X0183158Y0091798D01*
X0184157Y0092796D02*
X0179997Y0092796D01*
X0179827Y0093795D02*
X0185155Y0093795D01*
X0186154Y0094793D02*
X0179650Y0094793D01*
X0179474Y0095792D02*
X0183130Y0095792D01*
X0182132Y0096790D02*
X0179298Y0096790D01*
X0178772Y0097789D02*
X0181133Y0097789D01*
X0180135Y0098787D02*
X0178196Y0098787D01*
X0177619Y0099786D02*
X0179136Y0099786D01*
X0178138Y0100784D02*
X0176883Y0100784D01*
X0177139Y0101783D02*
X0175693Y0101783D01*
X0176141Y0102781D02*
X0174503Y0102781D01*
X0161497Y0102781D02*
X0158774Y0102781D01*
X0160307Y0101783D02*
X0134487Y0101783D01*
X0134500Y0101814D02*
X0134500Y0112808D01*
X0134119Y0113727D01*
X0133416Y0114430D01*
X0132497Y0114811D01*
X0123503Y0114811D01*
X0122584Y0114430D01*
X0121881Y0113727D01*
X0121500Y0112808D01*
X0121500Y0111814D01*
X0121500Y0102808D01*
X0121500Y0101814D01*
X0121881Y0100895D01*
X0122584Y0100192D01*
X0123503Y0099811D01*
X0132497Y0099811D01*
X0133416Y0100192D01*
X0134119Y0100895D01*
X0134500Y0101814D01*
X0134500Y0102781D02*
X0154226Y0102781D01*
X0153282Y0103780D02*
X0134500Y0103780D01*
X0134500Y0104778D02*
X0152869Y0104778D01*
X0152750Y0105777D02*
X0134500Y0105777D01*
X0134500Y0106775D02*
X0152840Y0106775D01*
X0153254Y0107774D02*
X0134500Y0107774D01*
X0134500Y0108772D02*
X0154158Y0108772D01*
X0155750Y0109771D02*
X0134500Y0109771D01*
X0134500Y0110769D02*
X0155838Y0110769D01*
X0156252Y0111768D02*
X0134500Y0111768D01*
X0134500Y0112766D02*
X0157152Y0112766D01*
X0158750Y0113765D02*
X0134082Y0113765D01*
X0132612Y0114763D02*
X0158836Y0114763D01*
X0159249Y0115762D02*
X0038000Y0115762D01*
X0038000Y0116760D02*
X0039015Y0116760D01*
X0039084Y0116692D02*
X0040003Y0116311D01*
X0049997Y0116311D01*
X0050916Y0116692D01*
X0051619Y0117395D01*
X0052000Y0118314D01*
X0052000Y0127308D01*
X0051619Y0128227D01*
X0050916Y0128930D01*
X0049997Y0129311D01*
X0040003Y0129311D01*
X0039084Y0128930D01*
X0038381Y0128227D01*
X0038000Y0127308D01*
X0038000Y0119308D01*
X0038000Y0118314D01*
X0038381Y0117395D01*
X0039084Y0116692D01*
X0038000Y0117308D02*
X0037619Y0118227D01*
X0036916Y0118930D01*
X0035997Y0119311D01*
X0027304Y0119311D01*
X0026003Y0119311D01*
X0025084Y0118930D01*
X0024381Y0118227D01*
X0024000Y0117308D01*
X0024000Y0108314D01*
X0024381Y0107395D01*
X0025084Y0106692D01*
X0026003Y0106311D01*
X0035997Y0106311D01*
X0036916Y0106692D01*
X0037619Y0107395D01*
X0038000Y0108314D01*
X0038000Y0117308D01*
X0037813Y0117759D02*
X0038230Y0117759D01*
X0038000Y0118757D02*
X0037089Y0118757D01*
X0038000Y0119756D02*
X0015000Y0119756D01*
X0015000Y0120754D02*
X0038000Y0120754D01*
X0038000Y0121753D02*
X0015000Y0121753D01*
X0015000Y0122751D02*
X0038000Y0122751D01*
X0038000Y0123750D02*
X0015000Y0123750D01*
X0015000Y0124748D02*
X0038000Y0124748D01*
X0038000Y0125747D02*
X0015000Y0125747D01*
X0015000Y0126746D02*
X0025030Y0126746D01*
X0025084Y0126692D02*
X0026003Y0126311D01*
X0026997Y0126311D01*
X0035003Y0126311D01*
X0035997Y0126311D01*
X0036916Y0126692D01*
X0037619Y0127395D01*
X0038000Y0128314D01*
X0038000Y0137308D01*
X0037619Y0138227D01*
X0036916Y0138930D01*
X0035997Y0139311D01*
X0026003Y0139311D01*
X0025084Y0138930D01*
X0024381Y0138227D01*
X0024000Y0137308D01*
X0024000Y0128314D01*
X0024381Y0127395D01*
X0025084Y0126692D01*
X0024236Y0127744D02*
X0015000Y0127744D01*
X0015000Y0128743D02*
X0024000Y0128743D01*
X0024000Y0129741D02*
X0015000Y0129741D01*
X0015000Y0130740D02*
X0024000Y0130740D01*
X0024000Y0131738D02*
X0015000Y0131738D01*
X0015000Y0132737D02*
X0024000Y0132737D01*
X0024000Y0133735D02*
X0015000Y0133735D01*
X0015000Y0134734D02*
X0024000Y0134734D01*
X0024000Y0135732D02*
X0015000Y0135732D01*
X0015000Y0136731D02*
X0024000Y0136731D01*
X0024174Y0137729D02*
X0015000Y0137729D01*
X0015000Y0138728D02*
X0024881Y0138728D01*
X0026500Y0136811D02*
X0035500Y0136811D01*
X0035500Y0128811D01*
X0026500Y0128811D01*
X0026500Y0136811D01*
X0026500Y0136731D02*
X0035500Y0136731D01*
X0035500Y0135732D02*
X0026500Y0135732D01*
X0026500Y0134734D02*
X0035500Y0134734D01*
X0035500Y0133735D02*
X0026500Y0133735D01*
X0026500Y0132737D02*
X0035500Y0132737D01*
X0035500Y0131738D02*
X0026500Y0131738D01*
X0026500Y0130740D02*
X0035500Y0130740D01*
X0035500Y0129741D02*
X0026500Y0129741D01*
X0036970Y0126746D02*
X0038000Y0126746D01*
X0038180Y0127744D02*
X0037764Y0127744D01*
X0038000Y0128743D02*
X0038896Y0128743D01*
X0038000Y0129741D02*
X0129181Y0129741D01*
X0130179Y0128743D02*
X0051104Y0128743D01*
X0051820Y0127744D02*
X0131178Y0127744D01*
X0132176Y0126746D02*
X0052000Y0126746D01*
X0052000Y0125747D02*
X0133175Y0125747D01*
X0134173Y0124748D02*
X0052000Y0124748D01*
X0052000Y0123750D02*
X0135172Y0123750D01*
X0136170Y0122751D02*
X0052000Y0122751D01*
X0052000Y0121753D02*
X0137169Y0121753D01*
X0138167Y0120754D02*
X0052000Y0120754D01*
X0052000Y0119756D02*
X0159666Y0119756D01*
X0160665Y0118757D02*
X0052000Y0118757D01*
X0051770Y0117759D02*
X0161663Y0117759D01*
X0160146Y0116760D02*
X0050985Y0116760D01*
X0049500Y0118811D02*
X0049500Y0126811D01*
X0040500Y0126811D01*
X0040500Y0118811D01*
X0049500Y0118811D01*
X0049500Y0119756D02*
X0040500Y0119756D01*
X0040500Y0120754D02*
X0049500Y0120754D01*
X0049500Y0121753D02*
X0040500Y0121753D01*
X0040500Y0122751D02*
X0049500Y0122751D01*
X0049500Y0123750D02*
X0040500Y0123750D01*
X0040500Y0124748D02*
X0049500Y0124748D01*
X0049500Y0125747D02*
X0040500Y0125747D01*
X0040500Y0126746D02*
X0049500Y0126746D01*
X0038000Y0130740D02*
X0128182Y0130740D01*
X0127184Y0131738D02*
X0038000Y0131738D01*
X0038000Y0132737D02*
X0126185Y0132737D01*
X0125469Y0133735D02*
X0038000Y0133735D01*
X0038000Y0134734D02*
X0125250Y0134734D01*
X0125250Y0135732D02*
X0038000Y0135732D01*
X0038000Y0136731D02*
X0039045Y0136731D01*
X0039084Y0136692D02*
X0040003Y0136311D01*
X0040997Y0136311D01*
X0049003Y0136311D01*
X0049997Y0136311D01*
X0050916Y0136692D01*
X0051619Y0137395D01*
X0052000Y0138314D01*
X0052000Y0147308D01*
X0051619Y0148227D01*
X0050916Y0148930D01*
X0049997Y0149311D01*
X0040003Y0149311D01*
X0039084Y0148930D01*
X0038381Y0148227D01*
X0038000Y0147308D01*
X0038000Y0138314D01*
X0038381Y0137395D01*
X0039084Y0136692D01*
X0038242Y0137729D02*
X0037826Y0137729D01*
X0038000Y0138728D02*
X0037119Y0138728D01*
X0038000Y0139726D02*
X0015000Y0139726D01*
X0015000Y0140725D02*
X0038000Y0140725D01*
X0038000Y0141723D02*
X0015000Y0141723D01*
X0015000Y0142722D02*
X0038000Y0142722D01*
X0038000Y0143720D02*
X0015000Y0143720D01*
X0015000Y0144719D02*
X0038000Y0144719D01*
X0038000Y0145717D02*
X0015000Y0145717D01*
X0015000Y0146716D02*
X0025060Y0146716D01*
X0025084Y0146692D02*
X0024381Y0147395D01*
X0024000Y0148314D01*
X0024000Y0157308D01*
X0024381Y0158227D01*
X0025084Y0158930D01*
X0026003Y0159311D01*
X0035997Y0159311D01*
X0036916Y0158930D01*
X0037619Y0158227D01*
X0038000Y0157308D01*
X0038000Y0148314D01*
X0037619Y0147395D01*
X0036916Y0146692D01*
X0035997Y0146311D01*
X0030304Y0146311D01*
X0026997Y0146311D01*
X0026003Y0146311D01*
X0025084Y0146692D01*
X0024248Y0147714D02*
X0015000Y0147714D01*
X0015000Y0148713D02*
X0024000Y0148713D01*
X0024000Y0149711D02*
X0015000Y0149711D01*
X0015000Y0150710D02*
X0024000Y0150710D01*
X0024000Y0151708D02*
X0015000Y0151708D01*
X0015000Y0152707D02*
X0024000Y0152707D01*
X0024000Y0153705D02*
X0015000Y0153705D01*
X0015000Y0154704D02*
X0024000Y0154704D01*
X0024000Y0155702D02*
X0015000Y0155702D01*
X0015000Y0156701D02*
X0024000Y0156701D01*
X0024162Y0157699D02*
X0015000Y0157699D01*
X0015000Y0158698D02*
X0024851Y0158698D01*
X0026500Y0156811D02*
X0035500Y0156811D01*
X0035500Y0148811D01*
X0026500Y0148811D01*
X0026500Y0156811D01*
X0026500Y0156701D02*
X0035500Y0156701D01*
X0035500Y0155702D02*
X0026500Y0155702D01*
X0026500Y0154704D02*
X0035500Y0154704D01*
X0035500Y0153705D02*
X0026500Y0153705D01*
X0026500Y0152707D02*
X0035500Y0152707D01*
X0035500Y0151708D02*
X0026500Y0151708D01*
X0026500Y0150710D02*
X0035500Y0150710D01*
X0035500Y0149711D02*
X0026500Y0149711D01*
X0036940Y0146716D02*
X0038000Y0146716D01*
X0038168Y0147714D02*
X0037752Y0147714D01*
X0038000Y0148713D02*
X0038866Y0148713D01*
X0038000Y0149711D02*
X0120211Y0149711D01*
X0121209Y0148713D02*
X0051134Y0148713D01*
X0051832Y0147714D02*
X0122208Y0147714D01*
X0123206Y0146716D02*
X0052000Y0146716D01*
X0052000Y0145717D02*
X0124205Y0145717D01*
X0125203Y0144719D02*
X0052000Y0144719D01*
X0052000Y0143720D02*
X0125250Y0143720D01*
X0125250Y0142722D02*
X0052000Y0142722D01*
X0052000Y0141723D02*
X0125250Y0141723D01*
X0125250Y0140725D02*
X0052000Y0140725D01*
X0052000Y0139726D02*
X0125250Y0139726D01*
X0125250Y0138728D02*
X0052000Y0138728D01*
X0051758Y0137729D02*
X0125250Y0137729D01*
X0125250Y0136731D02*
X0050955Y0136731D01*
X0049500Y0138811D02*
X0049500Y0146811D01*
X0040500Y0146811D01*
X0040500Y0138811D01*
X0049500Y0138811D01*
X0049500Y0139726D02*
X0040500Y0139726D01*
X0040500Y0140725D02*
X0049500Y0140725D01*
X0049500Y0141723D02*
X0040500Y0141723D01*
X0040500Y0142722D02*
X0049500Y0142722D01*
X0049500Y0143720D02*
X0040500Y0143720D01*
X0040500Y0144719D02*
X0049500Y0144719D01*
X0049500Y0145717D02*
X0040500Y0145717D01*
X0040500Y0146716D02*
X0049500Y0146716D01*
X0038000Y0150710D02*
X0119212Y0150710D01*
X0118214Y0151708D02*
X0038000Y0151708D01*
X0038000Y0152707D02*
X0117215Y0152707D01*
X0116217Y0153705D02*
X0038000Y0153705D01*
X0038000Y0154704D02*
X0088218Y0154704D01*
X0087220Y0155702D02*
X0038000Y0155702D01*
X0038000Y0156701D02*
X0086221Y0156701D01*
X0085223Y0157699D02*
X0037838Y0157699D01*
X0037149Y0158698D02*
X0084224Y0158698D01*
X0082330Y0159696D02*
X0015000Y0159696D01*
X0015000Y0160695D02*
X0080760Y0160695D01*
X0080071Y0161693D02*
X0015000Y0161693D01*
X0015000Y0162692D02*
X0079713Y0162692D01*
X0079231Y0163690D02*
X0015000Y0163690D01*
X0015000Y0164689D02*
X0078233Y0164689D01*
X0077234Y0165687D02*
X0015000Y0165687D01*
X0015000Y0166686D02*
X0039097Y0166686D01*
X0039084Y0166692D02*
X0040003Y0166311D01*
X0049997Y0166311D01*
X0050916Y0166692D01*
X0051619Y0167395D01*
X0052000Y0168314D01*
X0052000Y0177308D01*
X0051619Y0178227D01*
X0050916Y0178930D01*
X0049997Y0179311D01*
X0041889Y0179311D01*
X0026250Y0194950D01*
X0026250Y0196311D01*
X0035997Y0196311D01*
X0036916Y0196692D01*
X0037619Y0197395D01*
X0038000Y0198314D01*
X0038000Y0207308D01*
X0037619Y0208227D01*
X0036916Y0208930D01*
X0035997Y0209311D01*
X0026250Y0209311D01*
X0026250Y0216311D01*
X0035997Y0216311D01*
X0036916Y0216692D01*
X0037619Y0217395D01*
X0038000Y0218314D01*
X0038000Y0227308D01*
X0037619Y0228227D01*
X0036916Y0228930D01*
X0035997Y0229311D01*
X0026250Y0229311D01*
X0026250Y0236311D01*
X0026997Y0236311D01*
X0035997Y0236311D01*
X0036916Y0236692D01*
X0037619Y0237395D01*
X0038000Y0238314D01*
X0038000Y0247308D01*
X0037619Y0248227D01*
X0036916Y0248930D01*
X0035997Y0249311D01*
X0026356Y0249311D01*
X0026711Y0249666D01*
X0027287Y0251058D01*
X0027287Y0252564D01*
X0026711Y0253956D01*
X0025645Y0255022D01*
X0024253Y0255598D01*
X0022747Y0255598D01*
X0021355Y0255022D01*
X0020289Y0253956D01*
X0019713Y0252564D01*
X0019713Y0251058D01*
X0020289Y0249666D01*
X0020750Y0249205D01*
X0020750Y0193264D01*
X0021169Y0192253D01*
X0021942Y0191480D01*
X0038000Y0175422D01*
X0038000Y0168314D01*
X0038381Y0167395D01*
X0039084Y0166692D01*
X0038261Y0167684D02*
X0015000Y0167684D01*
X0015000Y0168683D02*
X0038000Y0168683D01*
X0038000Y0169682D02*
X0015000Y0169682D01*
X0015000Y0170680D02*
X0038000Y0170680D01*
X0038000Y0171679D02*
X0015000Y0171679D01*
X0015000Y0172677D02*
X0038000Y0172677D01*
X0038000Y0173676D02*
X0015000Y0173676D01*
X0015000Y0174674D02*
X0038000Y0174674D01*
X0037749Y0175673D02*
X0015000Y0175673D01*
X0015000Y0176671D02*
X0036751Y0176671D01*
X0035752Y0177670D02*
X0015000Y0177670D01*
X0015000Y0178668D02*
X0034754Y0178668D01*
X0033755Y0179667D02*
X0015000Y0179667D01*
X0015000Y0180665D02*
X0032757Y0180665D01*
X0031758Y0181664D02*
X0015000Y0181664D01*
X0015000Y0182662D02*
X0030760Y0182662D01*
X0029761Y0183661D02*
X0015000Y0183661D01*
X0015000Y0184659D02*
X0028763Y0184659D01*
X0027764Y0185658D02*
X0015000Y0185658D01*
X0015000Y0186656D02*
X0026766Y0186656D01*
X0025767Y0187655D02*
X0015000Y0187655D01*
X0015000Y0188653D02*
X0024769Y0188653D01*
X0023770Y0189652D02*
X0015000Y0189652D01*
X0015000Y0190650D02*
X0022772Y0190650D01*
X0021942Y0191480D02*
X0021942Y0191480D01*
X0021773Y0191649D02*
X0015000Y0191649D01*
X0015000Y0192647D02*
X0021005Y0192647D01*
X0020750Y0193646D02*
X0015000Y0193646D01*
X0015000Y0194644D02*
X0020750Y0194644D01*
X0020750Y0195643D02*
X0015000Y0195643D01*
X0015000Y0196641D02*
X0020750Y0196641D01*
X0020750Y0197640D02*
X0015000Y0197640D01*
X0015000Y0198638D02*
X0020750Y0198638D01*
X0020750Y0199637D02*
X0015000Y0199637D01*
X0015000Y0200635D02*
X0020750Y0200635D01*
X0020750Y0201634D02*
X0015000Y0201634D01*
X0015000Y0202632D02*
X0020750Y0202632D01*
X0020750Y0203631D02*
X0015000Y0203631D01*
X0015000Y0204629D02*
X0020750Y0204629D01*
X0020750Y0205628D02*
X0015000Y0205628D01*
X0015000Y0206626D02*
X0020750Y0206626D01*
X0020750Y0207625D02*
X0015000Y0207625D01*
X0015000Y0208623D02*
X0020750Y0208623D01*
X0020750Y0209622D02*
X0015000Y0209622D01*
X0015000Y0210620D02*
X0020750Y0210620D01*
X0020750Y0211619D02*
X0015000Y0211619D01*
X0015000Y0212617D02*
X0020750Y0212617D01*
X0020750Y0213616D02*
X0015000Y0213616D01*
X0015000Y0214615D02*
X0020750Y0214615D01*
X0020750Y0215613D02*
X0015000Y0215613D01*
X0015000Y0216612D02*
X0020750Y0216612D01*
X0020750Y0217610D02*
X0015000Y0217610D01*
X0015000Y0218609D02*
X0020750Y0218609D01*
X0020750Y0219607D02*
X0015000Y0219607D01*
X0015000Y0220606D02*
X0020750Y0220606D01*
X0020750Y0221604D02*
X0015000Y0221604D01*
X0015000Y0222603D02*
X0020750Y0222603D01*
X0020750Y0223601D02*
X0015000Y0223601D01*
X0015000Y0224600D02*
X0020750Y0224600D01*
X0020750Y0225598D02*
X0015000Y0225598D01*
X0015000Y0226597D02*
X0020750Y0226597D01*
X0020750Y0227595D02*
X0015000Y0227595D01*
X0015000Y0228594D02*
X0020750Y0228594D01*
X0020750Y0229592D02*
X0015000Y0229592D01*
X0015000Y0230591D02*
X0020750Y0230591D01*
X0020750Y0231589D02*
X0015000Y0231589D01*
X0015000Y0232588D02*
X0020750Y0232588D01*
X0020750Y0233586D02*
X0015000Y0233586D01*
X0015000Y0234585D02*
X0020750Y0234585D01*
X0020750Y0235583D02*
X0015000Y0235583D01*
X0015000Y0236582D02*
X0020750Y0236582D01*
X0020750Y0237580D02*
X0015000Y0237580D01*
X0015000Y0238579D02*
X0020750Y0238579D01*
X0020750Y0239577D02*
X0015000Y0239577D01*
X0015000Y0240576D02*
X0020750Y0240576D01*
X0020750Y0241574D02*
X0015000Y0241574D01*
X0015000Y0242573D02*
X0020750Y0242573D01*
X0020750Y0243571D02*
X0015000Y0243571D01*
X0015000Y0244570D02*
X0020750Y0244570D01*
X0020750Y0245568D02*
X0015000Y0245568D01*
X0015000Y0246567D02*
X0020750Y0246567D01*
X0020750Y0247565D02*
X0015000Y0247565D01*
X0015000Y0248564D02*
X0020750Y0248564D01*
X0020392Y0249562D02*
X0015000Y0249562D01*
X0015000Y0250561D02*
X0019918Y0250561D01*
X0019713Y0251559D02*
X0015000Y0251559D01*
X0015000Y0252558D02*
X0019713Y0252558D01*
X0020124Y0253556D02*
X0015000Y0253556D01*
X0015000Y0254555D02*
X0020888Y0254555D01*
X0022638Y0255553D02*
X0015000Y0255553D01*
X0015000Y0256552D02*
X0079370Y0256552D01*
X0080368Y0255553D02*
X0024362Y0255553D01*
X0026112Y0254555D02*
X0081367Y0254555D01*
X0082365Y0253556D02*
X0026876Y0253556D01*
X0027287Y0252558D02*
X0083364Y0252558D01*
X0084363Y0251559D02*
X0027287Y0251559D01*
X0027082Y0250561D02*
X0084713Y0250561D01*
X0084713Y0250558D02*
X0085289Y0249166D01*
X0085394Y0249061D01*
X0085289Y0248956D01*
X0084713Y0247564D01*
X0084713Y0246058D01*
X0085289Y0244666D01*
X0086355Y0243600D01*
X0087747Y0243024D01*
X0089253Y0243024D01*
X0090645Y0243600D01*
X0091711Y0244666D01*
X0092287Y0246058D01*
X0092287Y0247564D01*
X0091711Y0248956D01*
X0091606Y0249061D01*
X0091711Y0249166D01*
X0092287Y0250558D01*
X0092287Y0252064D01*
X0091711Y0253456D01*
X0090645Y0254522D01*
X0089253Y0255098D01*
X0088602Y0255098D01*
X0060831Y0282869D01*
X0060058Y0283642D01*
X0059047Y0284061D01*
X0053106Y0284061D01*
X0052645Y0284522D01*
X0051253Y0285098D01*
X0049747Y0285098D01*
X0048500Y0284582D01*
X0047253Y0285098D01*
X0045747Y0285098D01*
X0044355Y0284522D01*
X0043289Y0283456D01*
X0042713Y0282064D01*
X0042713Y0280558D01*
X0043289Y0279166D01*
X0044355Y0278100D01*
X0045747Y0277524D01*
X0047253Y0277524D01*
X0048500Y0278040D01*
X0049747Y0277524D01*
X0051253Y0277524D01*
X0052645Y0278100D01*
X0053106Y0278561D01*
X0057361Y0278561D01*
X0084713Y0251209D01*
X0084713Y0250558D01*
X0085125Y0249562D02*
X0026608Y0249562D01*
X0026500Y0246811D02*
X0035500Y0246811D01*
X0035500Y0238811D01*
X0026500Y0238811D01*
X0026500Y0246811D01*
X0026500Y0246567D02*
X0035500Y0246567D01*
X0035500Y0245568D02*
X0026500Y0245568D01*
X0026500Y0244570D02*
X0035500Y0244570D01*
X0035500Y0243571D02*
X0026500Y0243571D01*
X0026500Y0242573D02*
X0035500Y0242573D01*
X0035500Y0241574D02*
X0026500Y0241574D01*
X0026500Y0240576D02*
X0035500Y0240576D01*
X0035500Y0239577D02*
X0026500Y0239577D01*
X0026250Y0235583D02*
X0038000Y0235583D01*
X0038000Y0234585D02*
X0026250Y0234585D01*
X0026250Y0233586D02*
X0038000Y0233586D01*
X0038000Y0232588D02*
X0026250Y0232588D01*
X0026250Y0231589D02*
X0038000Y0231589D01*
X0038000Y0230591D02*
X0026250Y0230591D01*
X0026250Y0229592D02*
X0038000Y0229592D01*
X0038000Y0228594D02*
X0037253Y0228594D01*
X0037881Y0227595D02*
X0038298Y0227595D01*
X0038000Y0226597D02*
X0039313Y0226597D01*
X0038000Y0225598D02*
X0048824Y0225598D01*
X0049822Y0224600D02*
X0038000Y0224600D01*
X0038000Y0223601D02*
X0050250Y0223601D01*
X0050250Y0222603D02*
X0038000Y0222603D01*
X0038000Y0221604D02*
X0050250Y0221604D01*
X0050250Y0220606D02*
X0038000Y0220606D01*
X0038000Y0219607D02*
X0050250Y0219607D01*
X0049500Y0216811D02*
X0049500Y0208811D01*
X0040500Y0208811D01*
X0040500Y0216811D01*
X0049500Y0216811D01*
X0049500Y0216612D02*
X0040500Y0216612D01*
X0040500Y0215613D02*
X0049500Y0215613D01*
X0049500Y0214615D02*
X0040500Y0214615D01*
X0040500Y0213616D02*
X0049500Y0213616D01*
X0049500Y0212617D02*
X0040500Y0212617D01*
X0040500Y0211619D02*
X0049500Y0211619D01*
X0049500Y0210620D02*
X0040500Y0210620D01*
X0040500Y0209622D02*
X0049500Y0209622D01*
X0046461Y0205628D02*
X0038000Y0205628D01*
X0038000Y0206626D02*
X0039241Y0206626D01*
X0038285Y0207625D02*
X0037869Y0207625D01*
X0038000Y0208623D02*
X0037223Y0208623D01*
X0038000Y0209622D02*
X0026250Y0209622D01*
X0026250Y0210620D02*
X0038000Y0210620D01*
X0038000Y0211619D02*
X0026250Y0211619D01*
X0026250Y0212617D02*
X0038000Y0212617D01*
X0038000Y0213616D02*
X0026250Y0213616D01*
X0026250Y0214615D02*
X0038000Y0214615D01*
X0038000Y0215613D02*
X0026250Y0215613D01*
X0026500Y0218811D02*
X0026500Y0226811D01*
X0035500Y0226811D01*
X0035500Y0218811D01*
X0026500Y0218811D01*
X0026500Y0219607D02*
X0035500Y0219607D01*
X0035500Y0220606D02*
X0026500Y0220606D01*
X0026500Y0221604D02*
X0035500Y0221604D01*
X0035500Y0222603D02*
X0026500Y0222603D01*
X0026500Y0223601D02*
X0035500Y0223601D01*
X0035500Y0224600D02*
X0026500Y0224600D01*
X0026500Y0225598D02*
X0035500Y0225598D01*
X0035500Y0226597D02*
X0026500Y0226597D01*
X0038000Y0218609D02*
X0038762Y0218609D01*
X0038125Y0217610D02*
X0037709Y0217610D01*
X0038000Y0216612D02*
X0036723Y0216612D01*
X0035500Y0206811D02*
X0026500Y0206811D01*
X0026500Y0198811D01*
X0035500Y0198811D01*
X0035500Y0206811D01*
X0035500Y0206626D02*
X0026500Y0206626D01*
X0026500Y0205628D02*
X0035500Y0205628D01*
X0035500Y0204629D02*
X0026500Y0204629D01*
X0026500Y0203631D02*
X0035500Y0203631D01*
X0035500Y0202632D02*
X0026500Y0202632D01*
X0026500Y0201634D02*
X0035500Y0201634D01*
X0035500Y0200635D02*
X0026500Y0200635D01*
X0026500Y0199637D02*
X0035500Y0199637D01*
X0038000Y0199637D02*
X0046818Y0199637D01*
X0045819Y0200635D02*
X0038000Y0200635D01*
X0038000Y0201634D02*
X0045388Y0201634D01*
X0045213Y0202632D02*
X0038000Y0202632D01*
X0038000Y0203631D02*
X0045240Y0203631D01*
X0045654Y0204629D02*
X0038000Y0204629D01*
X0038000Y0198638D02*
X0049284Y0198638D01*
X0050282Y0197640D02*
X0037721Y0197640D01*
X0036795Y0196641D02*
X0051281Y0196641D01*
X0052279Y0195643D02*
X0026250Y0195643D01*
X0026556Y0194644D02*
X0053278Y0194644D01*
X0054250Y0193646D02*
X0027554Y0193646D01*
X0028553Y0192647D02*
X0054250Y0192647D01*
X0054250Y0191649D02*
X0029551Y0191649D01*
X0030550Y0190650D02*
X0054250Y0190650D01*
X0054250Y0189652D02*
X0031548Y0189652D01*
X0032547Y0188653D02*
X0054250Y0188653D01*
X0054250Y0187655D02*
X0033545Y0187655D01*
X0034544Y0186656D02*
X0054502Y0186656D01*
X0055264Y0185658D02*
X0035542Y0185658D01*
X0036541Y0184659D02*
X0056263Y0184659D01*
X0057261Y0183661D02*
X0037539Y0183661D01*
X0038538Y0182662D02*
X0058260Y0182662D01*
X0059258Y0181664D02*
X0039536Y0181664D01*
X0040535Y0180665D02*
X0060257Y0180665D01*
X0061255Y0179667D02*
X0041533Y0179667D01*
X0040500Y0176811D02*
X0049500Y0176811D01*
X0049500Y0168811D01*
X0040500Y0168811D01*
X0040500Y0176811D01*
X0040500Y0176671D02*
X0049500Y0176671D01*
X0049500Y0175673D02*
X0040500Y0175673D01*
X0040500Y0174674D02*
X0049500Y0174674D01*
X0049500Y0173676D02*
X0040500Y0173676D01*
X0040500Y0172677D02*
X0049500Y0172677D01*
X0049500Y0171679D02*
X0040500Y0171679D01*
X0040500Y0170680D02*
X0049500Y0170680D01*
X0049500Y0169682D02*
X0040500Y0169682D01*
X0050902Y0166686D02*
X0076236Y0166686D01*
X0075237Y0167684D02*
X0051739Y0167684D01*
X0052000Y0168683D02*
X0072659Y0168683D01*
X0071240Y0169682D02*
X0052000Y0169682D01*
X0052000Y0170680D02*
X0070242Y0170680D01*
X0069243Y0171679D02*
X0052000Y0171679D01*
X0052000Y0172677D02*
X0068245Y0172677D01*
X0067246Y0173676D02*
X0052000Y0173676D01*
X0052000Y0174674D02*
X0066248Y0174674D01*
X0065249Y0175673D02*
X0052000Y0175673D01*
X0052000Y0176671D02*
X0064251Y0176671D01*
X0063252Y0177670D02*
X0051850Y0177670D01*
X0051178Y0178668D02*
X0062254Y0178668D01*
X0094750Y0184950D02*
X0094750Y0186760D01*
X0094789Y0186666D01*
X0095855Y0185600D01*
X0097247Y0185024D01*
X0098753Y0185024D01*
X0100145Y0185600D01*
X0101211Y0186666D01*
X0101787Y0188058D01*
X0101787Y0189024D01*
X0102213Y0189024D01*
X0102213Y0188558D01*
X0102789Y0187166D01*
X0103855Y0186100D01*
X0105247Y0185524D01*
X0106753Y0185524D01*
X0108145Y0186100D01*
X0109211Y0187166D01*
X0109787Y0188558D01*
X0109787Y0189209D01*
X0132250Y0211672D01*
X0132250Y0175264D01*
X0132669Y0174253D01*
X0135528Y0171394D01*
X0135821Y0170687D01*
X0136876Y0169632D01*
X0138254Y0169061D01*
X0139746Y0169061D01*
X0140796Y0169496D01*
X0137583Y0166283D01*
X0136876Y0165990D01*
X0135821Y0164935D01*
X0135658Y0164542D01*
X0126058Y0174142D01*
X0125047Y0174561D01*
X0105139Y0174561D01*
X0094750Y0184950D01*
X0095041Y0184659D02*
X0132250Y0184659D01*
X0132250Y0183661D02*
X0096039Y0183661D01*
X0097038Y0182662D02*
X0132250Y0182662D01*
X0132250Y0181664D02*
X0098036Y0181664D01*
X0099035Y0180665D02*
X0132250Y0180665D01*
X0132250Y0179667D02*
X0100033Y0179667D01*
X0101032Y0178668D02*
X0132250Y0178668D01*
X0132250Y0177670D02*
X0102030Y0177670D01*
X0103029Y0176671D02*
X0132250Y0176671D01*
X0132250Y0175673D02*
X0104028Y0175673D01*
X0105026Y0174674D02*
X0132494Y0174674D01*
X0133246Y0173676D02*
X0126525Y0173676D01*
X0127523Y0172677D02*
X0134245Y0172677D01*
X0135243Y0171679D02*
X0128522Y0171679D01*
X0129520Y0170680D02*
X0135828Y0170680D01*
X0136826Y0169682D02*
X0130519Y0169682D01*
X0131517Y0168683D02*
X0139983Y0168683D01*
X0138984Y0167684D02*
X0132516Y0167684D01*
X0133514Y0166686D02*
X0137986Y0166686D01*
X0136573Y0165687D02*
X0134513Y0165687D01*
X0135511Y0164689D02*
X0135719Y0164689D01*
X0132250Y0185658D02*
X0107077Y0185658D01*
X0108701Y0186656D02*
X0132250Y0186656D01*
X0132250Y0187655D02*
X0109413Y0187655D01*
X0109787Y0188653D02*
X0132250Y0188653D01*
X0132250Y0189652D02*
X0110230Y0189652D01*
X0111228Y0190650D02*
X0132250Y0190650D01*
X0132250Y0191649D02*
X0112227Y0191649D01*
X0113225Y0192647D02*
X0132250Y0192647D01*
X0132250Y0193646D02*
X0114224Y0193646D01*
X0115222Y0194644D02*
X0132250Y0194644D01*
X0132250Y0195643D02*
X0116221Y0195643D01*
X0117219Y0196641D02*
X0132250Y0196641D01*
X0132250Y0197640D02*
X0118218Y0197640D01*
X0119216Y0198638D02*
X0132250Y0198638D01*
X0132250Y0199637D02*
X0120215Y0199637D01*
X0121213Y0200635D02*
X0132250Y0200635D01*
X0132250Y0201634D02*
X0122212Y0201634D01*
X0123210Y0202632D02*
X0132250Y0202632D01*
X0132250Y0203631D02*
X0124209Y0203631D01*
X0125207Y0204629D02*
X0132250Y0204629D01*
X0132250Y0205628D02*
X0126206Y0205628D01*
X0127204Y0206626D02*
X0132250Y0206626D01*
X0132250Y0207625D02*
X0128203Y0207625D01*
X0129201Y0208623D02*
X0132250Y0208623D01*
X0132250Y0209622D02*
X0130200Y0209622D01*
X0131199Y0210620D02*
X0132250Y0210620D01*
X0132250Y0211619D02*
X0132197Y0211619D01*
X0120250Y0216612D02*
X0087589Y0216612D01*
X0086590Y0217610D02*
X0120250Y0217610D01*
X0120250Y0218609D02*
X0085592Y0218609D01*
X0088587Y0215613D02*
X0119413Y0215613D01*
X0118414Y0214615D02*
X0089586Y0214615D01*
X0090584Y0213616D02*
X0117416Y0213616D01*
X0116417Y0212617D02*
X0091583Y0212617D01*
X0092581Y0211619D02*
X0115419Y0211619D01*
X0114420Y0210620D02*
X0093580Y0210620D01*
X0094578Y0209622D02*
X0113422Y0209622D01*
X0112423Y0208623D02*
X0095577Y0208623D01*
X0120250Y0219607D02*
X0062750Y0219607D01*
X0062750Y0218609D02*
X0066408Y0218609D01*
X0065410Y0217610D02*
X0062750Y0217610D01*
X0062750Y0216612D02*
X0064411Y0216612D01*
X0063413Y0215613D02*
X0062750Y0215613D01*
X0062750Y0220606D02*
X0120250Y0220606D01*
X0120250Y0221604D02*
X0062750Y0221604D01*
X0062750Y0222603D02*
X0120250Y0222603D01*
X0120250Y0223601D02*
X0062750Y0223601D01*
X0062750Y0224600D02*
X0120250Y0224600D01*
X0120250Y0225598D02*
X0062750Y0225598D01*
X0062750Y0226597D02*
X0120250Y0226597D01*
X0120250Y0227595D02*
X0062445Y0227595D01*
X0061606Y0228594D02*
X0120250Y0228594D01*
X0120250Y0229592D02*
X0060608Y0229592D01*
X0059609Y0230591D02*
X0120346Y0230591D01*
X0120889Y0231589D02*
X0058611Y0231589D01*
X0057612Y0232588D02*
X0121888Y0232588D01*
X0122886Y0233586D02*
X0057278Y0233586D01*
X0056865Y0234585D02*
X0123885Y0234585D01*
X0124883Y0235583D02*
X0056084Y0235583D01*
X0054294Y0236582D02*
X0125882Y0236582D01*
X0126633Y0237580D02*
X0051887Y0237580D01*
X0052000Y0236582D02*
X0052706Y0236582D01*
X0051268Y0238579D02*
X0127412Y0238579D01*
X0127845Y0239577D02*
X0038000Y0239577D01*
X0038000Y0238579D02*
X0038732Y0238579D01*
X0038113Y0237580D02*
X0037696Y0237580D01*
X0038000Y0236582D02*
X0036651Y0236582D01*
X0040500Y0236582D02*
X0049500Y0236582D01*
X0049500Y0236811D02*
X0049500Y0228811D01*
X0040500Y0228811D01*
X0040500Y0236811D01*
X0049500Y0236811D01*
X0049500Y0235583D02*
X0040500Y0235583D01*
X0040500Y0234585D02*
X0049500Y0234585D01*
X0049500Y0233586D02*
X0040500Y0233586D01*
X0040500Y0232588D02*
X0049500Y0232588D01*
X0049500Y0231589D02*
X0040500Y0231589D01*
X0040500Y0230591D02*
X0049500Y0230591D01*
X0049500Y0229592D02*
X0040500Y0229592D01*
X0038000Y0240576D02*
X0126846Y0240576D01*
X0125848Y0241574D02*
X0038000Y0241574D01*
X0038000Y0242573D02*
X0124849Y0242573D01*
X0111928Y0243571D02*
X0090576Y0243571D01*
X0091615Y0244570D02*
X0110352Y0244570D01*
X0109354Y0245568D02*
X0092085Y0245568D01*
X0092287Y0246567D02*
X0108355Y0246567D01*
X0107357Y0247565D02*
X0092287Y0247565D01*
X0091873Y0248564D02*
X0106358Y0248564D01*
X0105360Y0249562D02*
X0091875Y0249562D01*
X0092287Y0250561D02*
X0104361Y0250561D01*
X0103362Y0251559D02*
X0092287Y0251559D01*
X0092083Y0252558D02*
X0102364Y0252558D01*
X0101365Y0253556D02*
X0091611Y0253556D01*
X0090565Y0254555D02*
X0100367Y0254555D01*
X0099368Y0255553D02*
X0088147Y0255553D01*
X0087148Y0256552D02*
X0098370Y0256552D01*
X0097371Y0257551D02*
X0086150Y0257551D01*
X0085151Y0258549D02*
X0096373Y0258549D01*
X0095374Y0259548D02*
X0084153Y0259548D01*
X0083154Y0260546D02*
X0094376Y0260546D01*
X0093377Y0261545D02*
X0082156Y0261545D01*
X0081157Y0262543D02*
X0092379Y0262543D01*
X0091380Y0263542D02*
X0080159Y0263542D01*
X0079160Y0264540D02*
X0090382Y0264540D01*
X0089383Y0265539D02*
X0078161Y0265539D01*
X0077163Y0266537D02*
X0088385Y0266537D01*
X0087386Y0267536D02*
X0076164Y0267536D01*
X0075166Y0268534D02*
X0086388Y0268534D01*
X0085389Y0269533D02*
X0074167Y0269533D01*
X0073169Y0270531D02*
X0084391Y0270531D01*
X0083392Y0271530D02*
X0072170Y0271530D01*
X0071172Y0272528D02*
X0082394Y0272528D01*
X0081395Y0273527D02*
X0070173Y0273527D01*
X0069175Y0274525D02*
X0080397Y0274525D01*
X0079398Y0275524D02*
X0068176Y0275524D01*
X0067178Y0276522D02*
X0078400Y0276522D01*
X0077401Y0277521D02*
X0066179Y0277521D01*
X0065181Y0278519D02*
X0076851Y0278519D01*
X0076750Y0279518D02*
X0064182Y0279518D01*
X0063184Y0280516D02*
X0076750Y0280516D01*
X0076750Y0281515D02*
X0062185Y0281515D01*
X0061187Y0282513D02*
X0076750Y0282513D01*
X0076750Y0283512D02*
X0060188Y0283512D01*
X0052657Y0284510D02*
X0076750Y0284510D01*
X0076750Y0285509D02*
X0015000Y0285509D01*
X0015000Y0286507D02*
X0034504Y0286507D01*
X0035916Y0285993D02*
X0032000Y0287419D01*
X0028807Y0290098D01*
X0026724Y0293707D01*
X0026000Y0297811D01*
X0026724Y0301915D01*
X0028807Y0305524D01*
X0032000Y0308203D01*
X0035916Y0309629D01*
X0040084Y0309629D01*
X0044000Y0308203D01*
X0047193Y0305524D01*
X0049276Y0301915D01*
X0050000Y0297811D01*
X0049276Y0293707D01*
X0047193Y0290098D01*
X0044000Y0287419D01*
X0040084Y0285993D01*
X0035916Y0285993D01*
X0031896Y0287506D02*
X0015000Y0287506D01*
X0015000Y0288504D02*
X0030706Y0288504D01*
X0029516Y0289503D02*
X0015000Y0289503D01*
X0015000Y0290501D02*
X0028574Y0290501D01*
X0027998Y0291500D02*
X0015000Y0291500D01*
X0015000Y0292498D02*
X0027421Y0292498D01*
X0026845Y0293497D02*
X0015000Y0293497D01*
X0015000Y0294495D02*
X0026585Y0294495D01*
X0026409Y0295494D02*
X0015000Y0295494D01*
X0015000Y0296492D02*
X0026232Y0296492D01*
X0026056Y0297491D02*
X0015000Y0297491D01*
X0015000Y0298489D02*
X0026120Y0298489D01*
X0026296Y0299488D02*
X0015000Y0299488D01*
X0015000Y0300486D02*
X0026472Y0300486D01*
X0026648Y0301485D02*
X0015000Y0301485D01*
X0015000Y0302484D02*
X0027052Y0302484D01*
X0027628Y0303482D02*
X0015000Y0303482D01*
X0015000Y0304481D02*
X0028205Y0304481D01*
X0028781Y0305479D02*
X0015000Y0305479D01*
X0015000Y0306478D02*
X0029943Y0306478D01*
X0031133Y0307476D02*
X0015000Y0307476D01*
X0015000Y0308475D02*
X0032745Y0308475D01*
X0035489Y0309473D02*
X0015000Y0309473D01*
X0015000Y0310472D02*
X0074213Y0310472D01*
X0074213Y0311470D02*
X0015000Y0311470D01*
X0015000Y0312469D02*
X0074587Y0312469D01*
X0075300Y0313467D02*
X0015000Y0313467D01*
X0015000Y0314466D02*
X0076926Y0314466D01*
X0079074Y0314466D02*
X0081766Y0314466D01*
X0082764Y0315464D02*
X0015000Y0315464D01*
X0015000Y0316463D02*
X0083763Y0316463D01*
X0084761Y0317461D02*
X0015000Y0317461D01*
X0015000Y0318460D02*
X0085213Y0318460D01*
X0085583Y0319458D02*
X0015000Y0319458D01*
X0015000Y0320457D02*
X0086290Y0320457D01*
X0087901Y0321455D02*
X0015000Y0321455D01*
X0015000Y0322454D02*
X0110500Y0322454D01*
X0110500Y0323452D02*
X0015000Y0323452D01*
X0015000Y0324451D02*
X0110500Y0324451D01*
X0110500Y0325449D02*
X0015000Y0325449D01*
X0015000Y0326448D02*
X0110500Y0326448D01*
X0110500Y0327446D02*
X0015000Y0327446D01*
X0015000Y0328445D02*
X0110500Y0328445D01*
X0110500Y0329443D02*
X0015000Y0329443D01*
X0015000Y0330442D02*
X0110500Y0330442D01*
X0110500Y0331440D02*
X0015000Y0331440D01*
X0015000Y0332439D02*
X0110500Y0332439D01*
X0110500Y0333437D02*
X0015000Y0333437D01*
X0015000Y0334436D02*
X0110500Y0334436D01*
X0110500Y0335434D02*
X0015000Y0335434D01*
X0015000Y0336433D02*
X0065639Y0336433D01*
X0065958Y0336114D02*
X0064897Y0337175D01*
X0064323Y0338561D01*
X0064323Y0340061D01*
X0064897Y0341447D01*
X0065958Y0342508D01*
X0067344Y0343083D01*
X0068845Y0343083D01*
X0070231Y0342508D01*
X0071292Y0341447D01*
X0071866Y0340061D01*
X0071866Y0338561D01*
X0071292Y0337175D01*
X0070231Y0336114D01*
X0068845Y0335539D01*
X0067344Y0335539D01*
X0065958Y0336114D01*
X0064791Y0337431D02*
X0015000Y0337431D01*
X0015000Y0338430D02*
X0064377Y0338430D01*
X0064323Y0339428D02*
X0015000Y0339428D01*
X0015000Y0340427D02*
X0064474Y0340427D01*
X0064888Y0341425D02*
X0015000Y0341425D01*
X0015000Y0342424D02*
X0065874Y0342424D01*
X0070315Y0342424D02*
X0077685Y0342424D01*
X0077769Y0342508D02*
X0076708Y0341447D01*
X0076134Y0340061D01*
X0076134Y0338561D01*
X0076708Y0337175D01*
X0077769Y0336114D01*
X0079155Y0335539D01*
X0080656Y0335539D01*
X0082042Y0336114D01*
X0083103Y0337175D01*
X0083677Y0338561D01*
X0083677Y0340061D01*
X0083103Y0341447D01*
X0082042Y0342508D01*
X0080656Y0343083D01*
X0079155Y0343083D01*
X0077769Y0342508D01*
X0076699Y0341425D02*
X0071301Y0341425D01*
X0071715Y0340427D02*
X0076285Y0340427D01*
X0076134Y0339428D02*
X0071866Y0339428D01*
X0071812Y0338430D02*
X0076188Y0338430D01*
X0076602Y0337431D02*
X0071398Y0337431D01*
X0070550Y0336433D02*
X0077450Y0336433D01*
X0082361Y0336433D02*
X0110500Y0336433D01*
X0110500Y0337431D02*
X0083209Y0337431D01*
X0083623Y0338430D02*
X0110500Y0338430D01*
X0110500Y0339428D02*
X0083677Y0339428D01*
X0083526Y0340427D02*
X0110500Y0340427D01*
X0110500Y0341425D02*
X0083112Y0341425D01*
X0082126Y0342424D02*
X0110500Y0342424D01*
X0110500Y0343422D02*
X0015000Y0343422D01*
X0015000Y0344421D02*
X0110500Y0344421D01*
X0110500Y0345420D02*
X0015000Y0345420D01*
X0015000Y0346418D02*
X0110500Y0346418D01*
X0110500Y0347417D02*
X0015000Y0347417D01*
X0015000Y0348415D02*
X0110500Y0348415D01*
X0110500Y0349414D02*
X0015126Y0349414D01*
X0015827Y0350412D02*
X0110500Y0350412D01*
X0113000Y0350412D02*
X0128000Y0350412D01*
X0128000Y0350811D02*
X0128000Y0321311D01*
X0113000Y0321311D01*
X0113000Y0350811D01*
X0128000Y0350811D01*
X0128000Y0349414D02*
X0113000Y0349414D01*
X0113000Y0348415D02*
X0128000Y0348415D01*
X0128000Y0347417D02*
X0113000Y0347417D01*
X0113000Y0346418D02*
X0128000Y0346418D01*
X0128000Y0345420D02*
X0113000Y0345420D01*
X0113000Y0344421D02*
X0128000Y0344421D01*
X0128000Y0343422D02*
X0113000Y0343422D01*
X0113000Y0342424D02*
X0128000Y0342424D01*
X0128000Y0341425D02*
X0113000Y0341425D01*
X0113000Y0340427D02*
X0128000Y0340427D01*
X0128000Y0339428D02*
X0113000Y0339428D01*
X0113000Y0338430D02*
X0128000Y0338430D01*
X0128000Y0337431D02*
X0113000Y0337431D01*
X0113000Y0336433D02*
X0128000Y0336433D01*
X0128000Y0335434D02*
X0113000Y0335434D01*
X0113000Y0334436D02*
X0128000Y0334436D01*
X0128000Y0333437D02*
X0113000Y0333437D01*
X0113000Y0332439D02*
X0128000Y0332439D01*
X0128000Y0331440D02*
X0113000Y0331440D01*
X0113000Y0330442D02*
X0128000Y0330442D01*
X0128000Y0329443D02*
X0113000Y0329443D01*
X0113000Y0328445D02*
X0128000Y0328445D01*
X0128000Y0327446D02*
X0113000Y0327446D01*
X0113000Y0326448D02*
X0128000Y0326448D01*
X0128000Y0325449D02*
X0113000Y0325449D01*
X0113000Y0324451D02*
X0128000Y0324451D01*
X0128000Y0323452D02*
X0113000Y0323452D01*
X0113000Y0322454D02*
X0128000Y0322454D01*
X0128000Y0321455D02*
X0113000Y0321455D01*
X0110500Y0321455D02*
X0090099Y0321455D01*
X0091710Y0320457D02*
X0110648Y0320457D01*
X0111317Y0319458D02*
X0092417Y0319458D01*
X0092787Y0318460D02*
X0143250Y0318460D01*
X0143250Y0319458D02*
X0129683Y0319458D01*
X0130352Y0320457D02*
X0143250Y0320457D01*
X0143250Y0321455D02*
X0130500Y0321455D01*
X0130500Y0322454D02*
X0143250Y0322454D01*
X0143250Y0323452D02*
X0130500Y0323452D01*
X0130500Y0324451D02*
X0143250Y0324451D01*
X0143250Y0325449D02*
X0130500Y0325449D01*
X0130500Y0326448D02*
X0143250Y0326448D01*
X0143250Y0327446D02*
X0130500Y0327446D01*
X0130500Y0328445D02*
X0143250Y0328445D01*
X0143250Y0329443D02*
X0130500Y0329443D01*
X0130500Y0330442D02*
X0142013Y0330442D01*
X0142355Y0330100D02*
X0143250Y0329729D01*
X0143250Y0316450D01*
X0119209Y0292410D01*
X0118753Y0292598D01*
X0117247Y0292598D01*
X0115855Y0292022D01*
X0114789Y0290956D01*
X0114213Y0289564D01*
X0114213Y0288058D01*
X0114789Y0286666D01*
X0115855Y0285600D01*
X0117247Y0285024D01*
X0118753Y0285024D01*
X0120145Y0285600D01*
X0121002Y0286456D01*
X0121058Y0286480D01*
X0147558Y0312980D01*
X0148331Y0313753D01*
X0148750Y0314764D01*
X0148750Y0332358D01*
X0148331Y0333369D01*
X0148287Y0333413D01*
X0148287Y0334064D01*
X0147711Y0335456D01*
X0146645Y0336522D01*
X0145253Y0337098D01*
X0143747Y0337098D01*
X0142355Y0336522D01*
X0141289Y0335456D01*
X0140713Y0334064D01*
X0140713Y0332558D01*
X0141289Y0331166D01*
X0142355Y0330100D01*
X0141175Y0331440D02*
X0130500Y0331440D01*
X0130500Y0332439D02*
X0140762Y0332439D01*
X0140713Y0333437D02*
X0130500Y0333437D01*
X0130500Y0334436D02*
X0140866Y0334436D01*
X0141280Y0335434D02*
X0130500Y0335434D01*
X0130500Y0336433D02*
X0142266Y0336433D01*
X0146734Y0336433D02*
X0165749Y0336433D01*
X0165410Y0336293D02*
X0167193Y0337031D01*
X0169122Y0337031D01*
X0170905Y0336293D01*
X0172269Y0334928D01*
X0173007Y0333146D01*
X0173007Y0331216D01*
X0172269Y0329434D01*
X0170905Y0328069D01*
X0169122Y0327331D01*
X0167193Y0327331D01*
X0165410Y0328069D01*
X0164046Y0329434D01*
X0163307Y0331216D01*
X0163307Y0333146D01*
X0164046Y0334928D01*
X0165410Y0336293D01*
X0165656Y0337110D02*
X0162785Y0337110D01*
X0161442Y0337666D01*
X0160414Y0338694D01*
X0159858Y0340037D01*
X0159858Y0345664D01*
X0160414Y0347007D01*
X0161442Y0348034D01*
X0162785Y0348591D01*
X0165656Y0348591D01*
X0166999Y0348034D01*
X0168026Y0347007D01*
X0168583Y0345664D01*
X0168583Y0340037D01*
X0168026Y0338694D01*
X0166999Y0337666D01*
X0165656Y0337110D01*
X0166431Y0337431D02*
X0189379Y0337431D01*
X0189001Y0337588D02*
X0190344Y0337031D01*
X0193215Y0337031D01*
X0194558Y0337588D01*
X0195586Y0338615D01*
X0196142Y0339958D01*
X0196142Y0345585D01*
X0195586Y0346928D01*
X0194558Y0347956D01*
X0193215Y0348512D01*
X0190344Y0348512D01*
X0189001Y0347956D01*
X0187974Y0346928D01*
X0187417Y0345585D01*
X0187417Y0339958D01*
X0187974Y0338615D01*
X0189001Y0337588D01*
X0188807Y0337031D02*
X0190590Y0336293D01*
X0191954Y0334928D01*
X0192693Y0333146D01*
X0192693Y0331216D01*
X0191954Y0329434D01*
X0190590Y0328069D01*
X0188807Y0327331D01*
X0186878Y0327331D01*
X0185095Y0328069D01*
X0183731Y0329434D01*
X0182993Y0331216D01*
X0182993Y0333146D01*
X0183731Y0334928D01*
X0185095Y0336293D01*
X0186878Y0337031D01*
X0188807Y0337031D01*
X0188159Y0338430D02*
X0167762Y0338430D01*
X0168331Y0339428D02*
X0187637Y0339428D01*
X0187417Y0340427D02*
X0168583Y0340427D01*
X0168583Y0341425D02*
X0187417Y0341425D01*
X0187417Y0342424D02*
X0168583Y0342424D01*
X0168583Y0343422D02*
X0187417Y0343422D01*
X0187417Y0344421D02*
X0168583Y0344421D01*
X0168583Y0345420D02*
X0187417Y0345420D01*
X0187762Y0346418D02*
X0168270Y0346418D01*
X0167616Y0347417D02*
X0188462Y0347417D01*
X0187932Y0348415D02*
X0190111Y0348415D01*
X0188931Y0349414D02*
X0252874Y0349414D01*
X0253000Y0348415D02*
X0193449Y0348415D01*
X0195097Y0347417D02*
X0215277Y0347417D01*
X0215000Y0347139D02*
X0215000Y0334483D01*
X0216172Y0333311D01*
X0247328Y0333311D01*
X0248500Y0334483D01*
X0248500Y0347139D01*
X0247328Y0348311D01*
X0216172Y0348311D01*
X0215000Y0347139D01*
X0215000Y0346418D02*
X0195797Y0346418D01*
X0196142Y0345420D02*
X0215000Y0345420D01*
X0215000Y0344421D02*
X0196142Y0344421D01*
X0196142Y0343422D02*
X0215000Y0343422D01*
X0215000Y0342424D02*
X0196142Y0342424D01*
X0196142Y0341425D02*
X0215000Y0341425D01*
X0215000Y0340427D02*
X0196142Y0340427D01*
X0195922Y0339428D02*
X0215000Y0339428D01*
X0215000Y0338430D02*
X0195400Y0338430D01*
X0194180Y0337431D02*
X0215000Y0337431D01*
X0215000Y0336433D02*
X0190251Y0336433D01*
X0191448Y0335434D02*
X0215000Y0335434D01*
X0215047Y0334436D02*
X0192158Y0334436D01*
X0192572Y0333437D02*
X0216045Y0333437D01*
X0201155Y0318460D02*
X0250425Y0318460D01*
X0250425Y0317461D02*
X0201875Y0317461D01*
X0202250Y0316463D02*
X0250689Y0316463D01*
X0251291Y0315464D02*
X0202250Y0315464D01*
X0202002Y0314466D02*
X0250816Y0314466D01*
X0250425Y0313467D02*
X0201459Y0313467D01*
X0201199Y0312469D02*
X0250425Y0312469D01*
X0250686Y0311470D02*
X0201912Y0311470D01*
X0202287Y0310472D02*
X0251284Y0310472D01*
X0250819Y0309473D02*
X0202287Y0309473D01*
X0202046Y0308475D02*
X0250425Y0308475D01*
X0250425Y0307476D02*
X0201521Y0307476D01*
X0200349Y0306478D02*
X0250683Y0306478D01*
X0251276Y0305479D02*
X0198057Y0305479D01*
X0197059Y0304481D02*
X0225509Y0304481D01*
X0225916Y0304629D02*
X0222000Y0303203D01*
X0218807Y0300524D01*
X0216724Y0296915D01*
X0216000Y0292811D01*
X0216724Y0288707D01*
X0218807Y0285098D01*
X0219745Y0284311D01*
X0216003Y0284311D01*
X0215084Y0283930D01*
X0214381Y0283227D01*
X0214000Y0282308D01*
X0214000Y0273314D01*
X0214381Y0272395D01*
X0215084Y0271692D01*
X0216003Y0271311D01*
X0225997Y0271311D01*
X0226916Y0271692D01*
X0227619Y0272395D01*
X0228000Y0273314D01*
X0228000Y0280993D01*
X0230084Y0280993D01*
X0234000Y0282419D01*
X0237193Y0285098D01*
X0239276Y0288707D01*
X0240000Y0292811D01*
X0239276Y0296915D01*
X0237193Y0300524D01*
X0234000Y0303203D01*
X0230084Y0304629D01*
X0225916Y0304629D01*
X0222766Y0303482D02*
X0196060Y0303482D01*
X0195062Y0302484D02*
X0221142Y0302484D01*
X0219952Y0301485D02*
X0194063Y0301485D01*
X0193065Y0300486D02*
X0218786Y0300486D01*
X0218209Y0299488D02*
X0192066Y0299488D01*
X0191250Y0298489D02*
X0217633Y0298489D01*
X0217056Y0297491D02*
X0191250Y0297491D01*
X0191250Y0296492D02*
X0216649Y0296492D01*
X0216473Y0295494D02*
X0191250Y0295494D01*
X0191250Y0294495D02*
X0216297Y0294495D01*
X0216121Y0293497D02*
X0191250Y0293497D01*
X0191250Y0292498D02*
X0216055Y0292498D01*
X0216231Y0291500D02*
X0191250Y0291500D01*
X0191250Y0290501D02*
X0216407Y0290501D01*
X0216583Y0289503D02*
X0191250Y0289503D01*
X0191250Y0288504D02*
X0216841Y0288504D01*
X0217417Y0287506D02*
X0191250Y0287506D01*
X0191250Y0286507D02*
X0217994Y0286507D01*
X0218570Y0285509D02*
X0191250Y0285509D01*
X0191250Y0284510D02*
X0219507Y0284510D01*
X0216500Y0281811D02*
X0225500Y0281811D01*
X0225500Y0273811D01*
X0216500Y0273811D01*
X0216500Y0281811D01*
X0216500Y0281515D02*
X0225500Y0281515D01*
X0225500Y0280516D02*
X0216500Y0280516D01*
X0216500Y0279518D02*
X0225500Y0279518D01*
X0225500Y0278519D02*
X0216500Y0278519D01*
X0216500Y0277521D02*
X0225500Y0277521D01*
X0225500Y0276522D02*
X0216500Y0276522D01*
X0216500Y0275524D02*
X0225500Y0275524D01*
X0225500Y0274525D02*
X0216500Y0274525D01*
X0214000Y0274525D02*
X0188103Y0274525D01*
X0187105Y0273527D02*
X0214000Y0273527D01*
X0214325Y0272528D02*
X0186106Y0272528D01*
X0185108Y0271530D02*
X0215475Y0271530D01*
X0214000Y0275524D02*
X0189102Y0275524D01*
X0190058Y0276480D02*
X0190058Y0276480D01*
X0190100Y0276522D02*
X0214000Y0276522D01*
X0214000Y0277521D02*
X0190942Y0277521D01*
X0191250Y0278519D02*
X0214000Y0278519D01*
X0214000Y0279518D02*
X0191250Y0279518D01*
X0191250Y0280516D02*
X0214000Y0280516D01*
X0214000Y0281515D02*
X0191250Y0281515D01*
X0191250Y0282513D02*
X0214085Y0282513D01*
X0214665Y0283512D02*
X0191250Y0283512D01*
X0181500Y0283512D02*
X0181103Y0283512D01*
X0180750Y0284510D02*
X0181500Y0284510D01*
X0181500Y0285509D02*
X0180750Y0285509D01*
X0180750Y0286507D02*
X0181500Y0286507D01*
X0181500Y0287506D02*
X0180750Y0287506D01*
X0180750Y0288504D02*
X0181500Y0288504D01*
X0181500Y0289503D02*
X0180750Y0289503D01*
X0180750Y0290501D02*
X0181500Y0290501D01*
X0181500Y0291500D02*
X0180750Y0291500D01*
X0180750Y0292498D02*
X0181500Y0292498D01*
X0181500Y0293497D02*
X0180750Y0293497D01*
X0180750Y0294495D02*
X0181500Y0294495D01*
X0181500Y0295494D02*
X0180750Y0295494D01*
X0180750Y0296492D02*
X0181500Y0296492D01*
X0181500Y0297491D02*
X0180750Y0297491D01*
X0180750Y0298489D02*
X0181500Y0298489D01*
X0181500Y0299488D02*
X0180750Y0299488D01*
X0180750Y0300486D02*
X0181500Y0300486D01*
X0181500Y0301485D02*
X0180750Y0301485D01*
X0180750Y0302484D02*
X0181500Y0302484D01*
X0181500Y0303482D02*
X0180750Y0303482D01*
X0180750Y0304481D02*
X0181500Y0304481D01*
X0181500Y0305479D02*
X0180750Y0305479D01*
X0180750Y0306478D02*
X0181500Y0306478D01*
X0181500Y0307476D02*
X0180701Y0307476D01*
X0180226Y0308475D02*
X0181500Y0308475D01*
X0181500Y0309473D02*
X0179227Y0309473D01*
X0178228Y0310472D02*
X0181500Y0310472D01*
X0181500Y0311470D02*
X0177230Y0311470D01*
X0176646Y0312469D02*
X0181500Y0312469D01*
X0181500Y0313467D02*
X0175647Y0313467D01*
X0171353Y0313467D02*
X0169545Y0313467D01*
X0170354Y0312469D02*
X0168547Y0312469D01*
X0167548Y0311470D02*
X0169921Y0311470D01*
X0169750Y0310472D02*
X0167250Y0310472D01*
X0167250Y0309473D02*
X0169788Y0309473D01*
X0170202Y0308475D02*
X0167250Y0308475D01*
X0167250Y0307476D02*
X0170362Y0307476D01*
X0169924Y0306478D02*
X0167250Y0306478D01*
X0167250Y0305479D02*
X0169750Y0305479D01*
X0169785Y0304481D02*
X0166925Y0304481D01*
X0166060Y0303482D02*
X0170199Y0303482D01*
X0170750Y0302484D02*
X0165062Y0302484D01*
X0164063Y0301485D02*
X0170750Y0301485D01*
X0170750Y0300486D02*
X0163065Y0300486D01*
X0160777Y0299488D02*
X0170750Y0299488D01*
X0170750Y0298489D02*
X0133068Y0298489D01*
X0134066Y0299488D02*
X0157223Y0299488D01*
X0156021Y0300486D02*
X0135065Y0300486D01*
X0136063Y0301485D02*
X0155490Y0301485D01*
X0155250Y0302484D02*
X0137062Y0302484D01*
X0138060Y0303482D02*
X0155250Y0303482D01*
X0155633Y0304481D02*
X0139059Y0304481D01*
X0140057Y0305479D02*
X0156365Y0305479D01*
X0158053Y0306478D02*
X0141056Y0306478D01*
X0142054Y0307476D02*
X0161750Y0307476D01*
X0161750Y0308475D02*
X0143053Y0308475D01*
X0144051Y0309473D02*
X0161750Y0309473D01*
X0161750Y0310472D02*
X0145050Y0310472D01*
X0146048Y0311470D02*
X0161750Y0311470D01*
X0161750Y0312469D02*
X0147047Y0312469D01*
X0148045Y0313467D02*
X0162002Y0313467D01*
X0162766Y0314466D02*
X0148626Y0314466D01*
X0148750Y0315464D02*
X0163764Y0315464D01*
X0164763Y0316463D02*
X0148750Y0316463D01*
X0148750Y0317461D02*
X0165761Y0317461D01*
X0166760Y0318460D02*
X0148750Y0318460D01*
X0148750Y0319458D02*
X0167758Y0319458D01*
X0168757Y0320457D02*
X0148750Y0320457D01*
X0148750Y0321455D02*
X0169755Y0321455D01*
X0170754Y0322454D02*
X0148750Y0322454D01*
X0148750Y0323452D02*
X0171752Y0323452D01*
X0172751Y0324451D02*
X0148750Y0324451D01*
X0148750Y0325449D02*
X0173749Y0325449D01*
X0175180Y0326448D02*
X0148750Y0326448D01*
X0148750Y0327446D02*
X0166915Y0327446D01*
X0165035Y0328445D02*
X0148750Y0328445D01*
X0148750Y0329443D02*
X0164042Y0329443D01*
X0163628Y0330442D02*
X0148750Y0330442D01*
X0148750Y0331440D02*
X0163307Y0331440D01*
X0163307Y0332439D02*
X0148717Y0332439D01*
X0148287Y0333437D02*
X0163428Y0333437D01*
X0163842Y0334436D02*
X0148134Y0334436D01*
X0147720Y0335434D02*
X0164552Y0335434D01*
X0162010Y0337431D02*
X0130500Y0337431D01*
X0130500Y0338430D02*
X0160679Y0338430D01*
X0160110Y0339428D02*
X0130500Y0339428D01*
X0130500Y0340427D02*
X0159858Y0340427D01*
X0159858Y0341425D02*
X0130500Y0341425D01*
X0130500Y0342424D02*
X0159858Y0342424D01*
X0159858Y0343422D02*
X0130500Y0343422D01*
X0130500Y0344421D02*
X0159858Y0344421D01*
X0159858Y0345420D02*
X0130500Y0345420D01*
X0130500Y0346418D02*
X0160171Y0346418D01*
X0160824Y0347417D02*
X0130500Y0347417D01*
X0130500Y0348415D02*
X0162361Y0348415D01*
X0166080Y0348415D02*
X0168068Y0348415D01*
X0167069Y0349414D02*
X0130500Y0349414D01*
X0130500Y0350412D02*
X0166071Y0350412D01*
X0170566Y0336433D02*
X0185434Y0336433D01*
X0184237Y0335434D02*
X0171763Y0335434D01*
X0172473Y0334436D02*
X0183527Y0334436D01*
X0183113Y0333437D02*
X0172887Y0333437D01*
X0173007Y0332439D02*
X0182993Y0332439D01*
X0182993Y0331440D02*
X0173007Y0331440D01*
X0172687Y0330442D02*
X0183313Y0330442D01*
X0183727Y0329443D02*
X0172273Y0329443D01*
X0171280Y0328445D02*
X0184720Y0328445D01*
X0186600Y0327446D02*
X0169400Y0327446D01*
X0176535Y0320457D02*
X0180500Y0320457D01*
X0180500Y0319458D02*
X0175536Y0319458D01*
X0174538Y0318460D02*
X0180730Y0318460D01*
X0181193Y0317461D02*
X0173539Y0317461D01*
X0172541Y0316463D02*
X0181500Y0316463D01*
X0181500Y0315464D02*
X0171542Y0315464D01*
X0170544Y0314466D02*
X0181500Y0314466D01*
X0192751Y0325449D02*
X0251583Y0325449D01*
X0250810Y0324451D02*
X0193749Y0324451D01*
X0194748Y0323452D02*
X0250425Y0323452D01*
X0250425Y0322454D02*
X0195746Y0322454D01*
X0196745Y0321455D02*
X0250692Y0321455D01*
X0251299Y0320457D02*
X0197743Y0320457D01*
X0199494Y0319458D02*
X0250813Y0319458D01*
X0253000Y0326448D02*
X0191320Y0326448D01*
X0190965Y0328445D02*
X0253000Y0328445D01*
X0253000Y0329443D02*
X0191958Y0329443D01*
X0192372Y0330442D02*
X0253000Y0330442D01*
X0253000Y0331440D02*
X0192693Y0331440D01*
X0192693Y0332439D02*
X0253000Y0332439D01*
X0253000Y0333437D02*
X0247455Y0333437D01*
X0248453Y0334436D02*
X0253000Y0334436D01*
X0253000Y0335434D02*
X0248500Y0335434D01*
X0248500Y0336433D02*
X0253000Y0336433D01*
X0253000Y0337431D02*
X0248500Y0337431D01*
X0248500Y0338430D02*
X0253000Y0338430D01*
X0253000Y0339428D02*
X0248500Y0339428D01*
X0248500Y0340427D02*
X0253000Y0340427D01*
X0253000Y0341425D02*
X0248500Y0341425D01*
X0248500Y0342424D02*
X0253000Y0342424D01*
X0253000Y0343422D02*
X0248500Y0343422D01*
X0248500Y0344421D02*
X0253000Y0344421D01*
X0253000Y0345420D02*
X0248500Y0345420D01*
X0248500Y0346418D02*
X0253000Y0346418D01*
X0253000Y0347417D02*
X0248223Y0347417D01*
X0252173Y0350412D02*
X0189929Y0350412D01*
X0189085Y0327446D02*
X0253000Y0327446D01*
X0250822Y0304481D02*
X0230491Y0304481D01*
X0233234Y0303482D02*
X0250425Y0303482D01*
X0250425Y0302484D02*
X0234858Y0302484D01*
X0236048Y0301485D02*
X0250680Y0301485D01*
X0251269Y0300486D02*
X0237214Y0300486D01*
X0237791Y0299488D02*
X0252681Y0299488D01*
X0253000Y0298489D02*
X0238367Y0298489D01*
X0238944Y0297491D02*
X0253000Y0297491D01*
X0253000Y0296492D02*
X0239351Y0296492D01*
X0239527Y0295494D02*
X0253000Y0295494D01*
X0253000Y0294495D02*
X0239703Y0294495D01*
X0239879Y0293497D02*
X0253000Y0293497D01*
X0253000Y0292498D02*
X0239945Y0292498D01*
X0239769Y0291500D02*
X0253000Y0291500D01*
X0253000Y0290501D02*
X0239593Y0290501D01*
X0239417Y0289503D02*
X0253000Y0289503D01*
X0253000Y0288504D02*
X0239159Y0288504D01*
X0238583Y0287506D02*
X0253000Y0287506D01*
X0253000Y0286507D02*
X0238006Y0286507D01*
X0237430Y0285509D02*
X0253000Y0285509D01*
X0253000Y0284510D02*
X0236493Y0284510D01*
X0235303Y0283512D02*
X0253000Y0283512D01*
X0253000Y0282513D02*
X0234113Y0282513D01*
X0231516Y0281515D02*
X0253000Y0281515D01*
X0253000Y0280516D02*
X0228000Y0280516D01*
X0228000Y0279518D02*
X0253000Y0279518D01*
X0253000Y0278519D02*
X0228000Y0278519D01*
X0228000Y0277521D02*
X0253000Y0277521D01*
X0253000Y0276522D02*
X0228000Y0276522D01*
X0228000Y0275524D02*
X0253000Y0275524D01*
X0253000Y0274525D02*
X0228000Y0274525D01*
X0228000Y0273527D02*
X0228680Y0273527D01*
X0228381Y0273227D02*
X0228000Y0272308D01*
X0228000Y0263314D01*
X0228381Y0262395D01*
X0229084Y0261692D01*
X0230003Y0261311D01*
X0239997Y0261311D01*
X0240916Y0261692D01*
X0241619Y0262395D01*
X0242000Y0263314D01*
X0242000Y0264308D01*
X0242000Y0272308D01*
X0241619Y0273227D01*
X0240916Y0273930D01*
X0239997Y0274311D01*
X0230003Y0274311D01*
X0229084Y0273930D01*
X0228381Y0273227D01*
X0228091Y0272528D02*
X0227675Y0272528D01*
X0228000Y0271530D02*
X0226525Y0271530D01*
X0228000Y0270531D02*
X0184109Y0270531D01*
X0183111Y0269533D02*
X0228000Y0269533D01*
X0228000Y0268534D02*
X0182112Y0268534D01*
X0181114Y0267536D02*
X0228000Y0267536D01*
X0228000Y0266537D02*
X0167787Y0266537D01*
X0167787Y0265539D02*
X0228000Y0265539D01*
X0228000Y0264540D02*
X0167573Y0264540D01*
X0167087Y0263542D02*
X0228000Y0263542D01*
X0228319Y0262543D02*
X0167382Y0262543D01*
X0167787Y0261545D02*
X0229439Y0261545D01*
X0230500Y0263811D02*
X0230500Y0271811D01*
X0239500Y0271811D01*
X0239500Y0263811D01*
X0230500Y0263811D01*
X0230500Y0264540D02*
X0239500Y0264540D01*
X0239500Y0265539D02*
X0230500Y0265539D01*
X0230500Y0266537D02*
X0239500Y0266537D01*
X0239500Y0267536D02*
X0230500Y0267536D01*
X0230500Y0268534D02*
X0239500Y0268534D01*
X0239500Y0269533D02*
X0230500Y0269533D01*
X0230500Y0270531D02*
X0239500Y0270531D01*
X0239500Y0271530D02*
X0230500Y0271530D01*
X0241320Y0273527D02*
X0253000Y0273527D01*
X0253000Y0272528D02*
X0241909Y0272528D01*
X0242000Y0271530D02*
X0253000Y0271530D01*
X0253000Y0270531D02*
X0242000Y0270531D01*
X0242000Y0269533D02*
X0253000Y0269533D01*
X0253000Y0268534D02*
X0242000Y0268534D01*
X0242000Y0267536D02*
X0253000Y0267536D01*
X0253000Y0266537D02*
X0242000Y0266537D01*
X0242000Y0265539D02*
X0253000Y0265539D01*
X0253000Y0264540D02*
X0242000Y0264540D01*
X0242000Y0263542D02*
X0253000Y0263542D01*
X0253000Y0262543D02*
X0241681Y0262543D01*
X0240561Y0261545D02*
X0253000Y0261545D01*
X0253000Y0260546D02*
X0168154Y0260546D01*
X0169153Y0259548D02*
X0253000Y0259548D01*
X0253000Y0258549D02*
X0170151Y0258549D01*
X0171150Y0257551D02*
X0253000Y0257551D01*
X0253000Y0256552D02*
X0199420Y0256552D01*
X0200998Y0255553D02*
X0253000Y0255553D01*
X0253000Y0254555D02*
X0201997Y0254555D01*
X0202995Y0253556D02*
X0253000Y0253556D01*
X0253000Y0252558D02*
X0203994Y0252558D01*
X0204992Y0251559D02*
X0253000Y0251559D01*
X0253000Y0250561D02*
X0205991Y0250561D01*
X0206989Y0249562D02*
X0253000Y0249562D01*
X0253000Y0248564D02*
X0207988Y0248564D01*
X0208895Y0247565D02*
X0253000Y0247565D01*
X0253000Y0246567D02*
X0209250Y0246567D01*
X0209250Y0245568D02*
X0253000Y0245568D01*
X0253000Y0244570D02*
X0209250Y0244570D01*
X0209250Y0243571D02*
X0253000Y0243571D01*
X0253000Y0242573D02*
X0209250Y0242573D01*
X0209250Y0241574D02*
X0253000Y0241574D01*
X0253000Y0240576D02*
X0232538Y0240576D01*
X0233327Y0239577D02*
X0253000Y0239577D01*
X0253000Y0238579D02*
X0233741Y0238579D01*
X0233750Y0237580D02*
X0253000Y0237580D01*
X0253000Y0236582D02*
X0233550Y0236582D01*
X0233076Y0235583D02*
X0253000Y0235583D01*
X0253000Y0234585D02*
X0232010Y0234585D01*
X0229664Y0233586D02*
X0253000Y0233586D01*
X0253000Y0232588D02*
X0228666Y0232588D01*
X0227667Y0231589D02*
X0253000Y0231589D01*
X0253000Y0230591D02*
X0228524Y0230591D01*
X0229321Y0229592D02*
X0253000Y0229592D01*
X0253000Y0228594D02*
X0229735Y0228594D01*
X0229750Y0227595D02*
X0253000Y0227595D01*
X0253000Y0226597D02*
X0229556Y0226597D01*
X0229090Y0225598D02*
X0253000Y0225598D01*
X0253000Y0224600D02*
X0228046Y0224600D01*
X0225679Y0223601D02*
X0253000Y0223601D01*
X0253000Y0222603D02*
X0224681Y0222603D01*
X0223682Y0221604D02*
X0253000Y0221604D01*
X0253000Y0220606D02*
X0232509Y0220606D01*
X0233315Y0219607D02*
X0253000Y0219607D01*
X0253000Y0218609D02*
X0233729Y0218609D01*
X0233750Y0217610D02*
X0253000Y0217610D01*
X0253000Y0216612D02*
X0233562Y0216612D01*
X0233105Y0215613D02*
X0253000Y0215613D01*
X0253000Y0214615D02*
X0232082Y0214615D01*
X0231250Y0213616D02*
X0253000Y0213616D01*
X0253000Y0212617D02*
X0231250Y0212617D01*
X0231250Y0211619D02*
X0253000Y0211619D01*
X0253000Y0210620D02*
X0231250Y0210620D01*
X0231250Y0209622D02*
X0253000Y0209622D01*
X0253000Y0208623D02*
X0231250Y0208623D01*
X0231250Y0207625D02*
X0253000Y0207625D01*
X0253000Y0206626D02*
X0231250Y0206626D01*
X0231250Y0205628D02*
X0253000Y0205628D01*
X0253000Y0204629D02*
X0231250Y0204629D01*
X0231250Y0203631D02*
X0253000Y0203631D01*
X0253000Y0202632D02*
X0231250Y0202632D01*
X0231250Y0201634D02*
X0253000Y0201634D01*
X0253000Y0200635D02*
X0231250Y0200635D01*
X0231250Y0199637D02*
X0253000Y0199637D01*
X0253000Y0198638D02*
X0231250Y0198638D01*
X0231250Y0197640D02*
X0253000Y0197640D01*
X0253000Y0196641D02*
X0231250Y0196641D01*
X0231250Y0195643D02*
X0253000Y0195643D01*
X0253000Y0194644D02*
X0231250Y0194644D01*
X0231250Y0193646D02*
X0253000Y0193646D01*
X0253000Y0192647D02*
X0231250Y0192647D01*
X0231250Y0191649D02*
X0253000Y0191649D01*
X0251784Y0190650D02*
X0231250Y0190650D01*
X0231250Y0189652D02*
X0250893Y0189652D01*
X0250480Y0188653D02*
X0231250Y0188653D01*
X0231250Y0187655D02*
X0250425Y0187655D01*
X0250609Y0186656D02*
X0231250Y0186656D01*
X0231250Y0185658D02*
X0251098Y0185658D01*
X0250896Y0184659D02*
X0231250Y0184659D01*
X0231250Y0183661D02*
X0250483Y0183661D01*
X0250425Y0182662D02*
X0231250Y0182662D01*
X0231250Y0181664D02*
X0250606Y0181664D01*
X0251090Y0180665D02*
X0231250Y0180665D01*
X0231250Y0179667D02*
X0250899Y0179667D01*
X0250486Y0178668D02*
X0231250Y0178668D01*
X0231250Y0177670D02*
X0250425Y0177670D01*
X0250603Y0176671D02*
X0231250Y0176671D01*
X0231250Y0175673D02*
X0251083Y0175673D01*
X0250902Y0174674D02*
X0231250Y0174674D01*
X0231250Y0173676D02*
X0250489Y0173676D01*
X0250425Y0172677D02*
X0231250Y0172677D01*
X0231250Y0171679D02*
X0250600Y0171679D01*
X0251075Y0170680D02*
X0231250Y0170680D01*
X0231250Y0169682D02*
X0250905Y0169682D01*
X0250492Y0168683D02*
X0231250Y0168683D01*
X0231250Y0167684D02*
X0250425Y0167684D01*
X0250597Y0166686D02*
X0231011Y0166686D01*
X0230266Y0165687D02*
X0251068Y0165687D01*
X0252196Y0164689D02*
X0229267Y0164689D01*
X0228268Y0163690D02*
X0253000Y0163690D01*
X0253000Y0162692D02*
X0227270Y0162692D01*
X0226271Y0161693D02*
X0253000Y0161693D01*
X0253000Y0160695D02*
X0225273Y0160695D01*
X0224274Y0159696D02*
X0253000Y0159696D01*
X0253000Y0158698D02*
X0223276Y0158698D01*
X0222277Y0157699D02*
X0253000Y0157699D01*
X0253000Y0156701D02*
X0221279Y0156701D01*
X0220280Y0155702D02*
X0253000Y0155702D01*
X0253000Y0154704D02*
X0219282Y0154704D01*
X0218283Y0153705D02*
X0253000Y0153705D01*
X0253000Y0152707D02*
X0218250Y0152707D01*
X0218250Y0151708D02*
X0253000Y0151708D01*
X0253000Y0150710D02*
X0218250Y0150710D01*
X0218250Y0149711D02*
X0253000Y0149711D01*
X0253000Y0148713D02*
X0218250Y0148713D01*
X0218250Y0147714D02*
X0253000Y0147714D01*
X0253000Y0146716D02*
X0218250Y0146716D01*
X0218250Y0145717D02*
X0253000Y0145717D01*
X0253000Y0144719D02*
X0218250Y0144719D01*
X0218250Y0143720D02*
X0253000Y0143720D01*
X0253000Y0142722D02*
X0218250Y0142722D01*
X0218250Y0141723D02*
X0253000Y0141723D01*
X0253000Y0140725D02*
X0218250Y0140725D01*
X0218250Y0139726D02*
X0253000Y0139726D01*
X0253000Y0138728D02*
X0218250Y0138728D01*
X0218250Y0137729D02*
X0253000Y0137729D01*
X0253000Y0136731D02*
X0218250Y0136731D01*
X0218250Y0135732D02*
X0253000Y0135732D01*
X0253000Y0134734D02*
X0218250Y0134734D01*
X0218250Y0133735D02*
X0253000Y0133735D01*
X0253000Y0132737D02*
X0218250Y0132737D01*
X0218250Y0131738D02*
X0253000Y0131738D01*
X0253000Y0130740D02*
X0218250Y0130740D01*
X0218250Y0129741D02*
X0253000Y0129741D01*
X0253000Y0128743D02*
X0218250Y0128743D01*
X0218250Y0127744D02*
X0253000Y0127744D01*
X0253000Y0126746D02*
X0218250Y0126746D01*
X0218250Y0125747D02*
X0253000Y0125747D01*
X0253000Y0124748D02*
X0218250Y0124748D01*
X0218250Y0123750D02*
X0253000Y0123750D01*
X0253000Y0122751D02*
X0218250Y0122751D01*
X0218250Y0121753D02*
X0253000Y0121753D01*
X0253000Y0120754D02*
X0218250Y0120754D01*
X0218250Y0119756D02*
X0253000Y0119756D01*
X0253000Y0118757D02*
X0218250Y0118757D01*
X0218250Y0117759D02*
X0253000Y0117759D01*
X0253000Y0116760D02*
X0218250Y0116760D01*
X0218250Y0115762D02*
X0253000Y0115762D01*
X0253000Y0114763D02*
X0218250Y0114763D01*
X0218250Y0113765D02*
X0253000Y0113765D01*
X0253000Y0112766D02*
X0218250Y0112766D01*
X0218250Y0111768D02*
X0253000Y0111768D01*
X0253000Y0110769D02*
X0217838Y0110769D01*
X0216849Y0109771D02*
X0253000Y0109771D01*
X0253000Y0108772D02*
X0240574Y0108772D01*
X0241307Y0107774D02*
X0253000Y0107774D01*
X0253000Y0106775D02*
X0241500Y0106775D01*
X0241500Y0105777D02*
X0253000Y0105777D01*
X0253000Y0104778D02*
X0241500Y0104778D01*
X0241500Y0103780D02*
X0253000Y0103780D01*
X0253000Y0102781D02*
X0241500Y0102781D01*
X0241500Y0101783D02*
X0253000Y0101783D01*
X0253000Y0100784D02*
X0241500Y0100784D01*
X0241500Y0099786D02*
X0253000Y0099786D01*
X0253000Y0098787D02*
X0241500Y0098787D01*
X0241283Y0097789D02*
X0253000Y0097789D01*
X0252998Y0096790D02*
X0240515Y0096790D01*
X0239000Y0098811D02*
X0230000Y0098811D01*
X0230000Y0106811D01*
X0239000Y0106811D01*
X0239000Y0098811D01*
X0239000Y0099786D02*
X0230000Y0099786D01*
X0230000Y0100784D02*
X0239000Y0100784D01*
X0239000Y0101783D02*
X0230000Y0101783D01*
X0230000Y0102781D02*
X0239000Y0102781D01*
X0239000Y0103780D02*
X0230000Y0103780D01*
X0230000Y0104778D02*
X0239000Y0104778D01*
X0239000Y0105777D02*
X0230000Y0105777D01*
X0230000Y0106775D02*
X0239000Y0106775D01*
X0228426Y0108772D02*
X0215850Y0108772D01*
X0214852Y0107774D02*
X0227693Y0107774D01*
X0227500Y0106775D02*
X0213853Y0106775D01*
X0212855Y0105777D02*
X0227500Y0105777D01*
X0227500Y0104778D02*
X0211856Y0104778D01*
X0210858Y0103780D02*
X0227500Y0103780D01*
X0227500Y0102781D02*
X0209859Y0102781D01*
X0208861Y0101783D02*
X0227500Y0101783D01*
X0227500Y0100784D02*
X0207862Y0100784D01*
X0206864Y0099786D02*
X0227500Y0099786D01*
X0227500Y0098787D02*
X0205865Y0098787D01*
X0204867Y0097789D02*
X0227717Y0097789D01*
X0228076Y0096790D02*
X0228485Y0096790D01*
X0223924Y0096790D02*
X0223076Y0096790D01*
X0218924Y0096790D02*
X0218076Y0096790D01*
X0213924Y0096790D02*
X0213076Y0096790D01*
X0208924Y0096790D02*
X0203868Y0096790D01*
X0202870Y0095792D02*
X0207951Y0095792D01*
X0207537Y0094793D02*
X0207435Y0094793D01*
X0234049Y0095792D02*
X0252701Y0095792D01*
X0234565Y0094793D02*
X0234463Y0094793D01*
X0161532Y0082811D02*
X0154499Y0082811D01*
X0154500Y0083810D02*
X0160342Y0083810D01*
X0159152Y0084808D02*
X0154500Y0084808D01*
X0154500Y0085807D02*
X0158398Y0085807D01*
X0157822Y0086805D02*
X0154500Y0086805D01*
X0154500Y0087804D02*
X0157245Y0087804D01*
X0156707Y0088802D02*
X0154500Y0088802D01*
X0154500Y0089801D02*
X0156531Y0089801D01*
X0156355Y0090799D02*
X0154500Y0090799D01*
X0154500Y0091798D02*
X0156179Y0091798D01*
X0156003Y0092796D02*
X0154500Y0092796D01*
X0154500Y0093795D02*
X0156173Y0093795D01*
X0156350Y0094793D02*
X0154053Y0094793D01*
X0152544Y0095792D02*
X0156526Y0095792D01*
X0156702Y0096790D02*
X0069298Y0096790D01*
X0069474Y0095792D02*
X0143456Y0095792D01*
X0141947Y0094793D02*
X0069650Y0094793D01*
X0069827Y0093795D02*
X0141500Y0093795D01*
X0141500Y0092796D02*
X0069997Y0092796D01*
X0069821Y0091798D02*
X0141500Y0091798D01*
X0141500Y0090799D02*
X0069645Y0090799D01*
X0069469Y0089801D02*
X0141500Y0089801D01*
X0141500Y0088802D02*
X0069293Y0088802D01*
X0068755Y0087804D02*
X0141500Y0087804D01*
X0141500Y0086805D02*
X0068178Y0086805D01*
X0067602Y0085807D02*
X0141500Y0085807D01*
X0141500Y0084808D02*
X0066847Y0084808D01*
X0065657Y0083810D02*
X0141500Y0083810D01*
X0141501Y0082811D02*
X0064468Y0082811D01*
X0051532Y0082811D02*
X0050828Y0082811D01*
X0050342Y0083810D02*
X0049830Y0083810D01*
X0049152Y0084808D02*
X0048831Y0084808D01*
X0048398Y0085807D02*
X0047833Y0085807D01*
X0047822Y0086805D02*
X0046834Y0086805D01*
X0047245Y0087804D02*
X0045836Y0087804D01*
X0046707Y0088802D02*
X0044837Y0088802D01*
X0043839Y0089801D02*
X0046531Y0089801D01*
X0046355Y0090799D02*
X0042840Y0090799D01*
X0041842Y0091798D02*
X0046179Y0091798D01*
X0046003Y0092796D02*
X0040843Y0092796D01*
X0039845Y0093795D02*
X0046173Y0093795D01*
X0046350Y0094793D02*
X0038846Y0094793D01*
X0038985Y0096790D02*
X0034076Y0096790D01*
X0035049Y0095792D02*
X0046526Y0095792D01*
X0049500Y0098811D02*
X0040500Y0098811D01*
X0040500Y0106811D01*
X0049500Y0106811D01*
X0049500Y0098811D01*
X0049500Y0099786D02*
X0040500Y0099786D01*
X0040500Y0100784D02*
X0049500Y0100784D01*
X0049500Y0101783D02*
X0040500Y0101783D01*
X0040500Y0102781D02*
X0049500Y0102781D01*
X0049500Y0103780D02*
X0040500Y0103780D01*
X0040500Y0104778D02*
X0049500Y0104778D01*
X0049500Y0105777D02*
X0040500Y0105777D01*
X0040500Y0106775D02*
X0049500Y0106775D01*
X0052000Y0106775D02*
X0121500Y0106775D01*
X0121500Y0105777D02*
X0052000Y0105777D01*
X0052000Y0104778D02*
X0121500Y0104778D01*
X0121500Y0103780D02*
X0062416Y0103780D01*
X0064503Y0102781D02*
X0121500Y0102781D01*
X0121513Y0101783D02*
X0065693Y0101783D01*
X0066883Y0100784D02*
X0121991Y0100784D01*
X0124000Y0102311D02*
X0132000Y0102311D01*
X0132000Y0112311D01*
X0124000Y0112311D01*
X0124000Y0102311D01*
X0124000Y0102781D02*
X0132000Y0102781D01*
X0132000Y0103780D02*
X0124000Y0103780D01*
X0124000Y0104778D02*
X0132000Y0104778D01*
X0132000Y0105777D02*
X0124000Y0105777D01*
X0124000Y0106775D02*
X0132000Y0106775D01*
X0132000Y0107774D02*
X0124000Y0107774D01*
X0124000Y0108772D02*
X0132000Y0108772D01*
X0132000Y0109771D02*
X0124000Y0109771D01*
X0124000Y0110769D02*
X0132000Y0110769D01*
X0132000Y0111768D02*
X0124000Y0111768D01*
X0121500Y0111768D02*
X0038000Y0111768D01*
X0038000Y0112766D02*
X0121500Y0112766D01*
X0121918Y0113765D02*
X0038000Y0113765D01*
X0038000Y0114763D02*
X0123388Y0114763D01*
X0121500Y0110769D02*
X0038000Y0110769D01*
X0038000Y0109771D02*
X0121500Y0109771D01*
X0121500Y0108772D02*
X0051074Y0108772D01*
X0051807Y0107774D02*
X0121500Y0107774D01*
X0134009Y0100784D02*
X0159117Y0100784D01*
X0158381Y0099786D02*
X0067619Y0099786D01*
X0068196Y0098787D02*
X0157804Y0098787D01*
X0157228Y0097789D02*
X0068772Y0097789D01*
X0053584Y0103780D02*
X0052000Y0103780D01*
X0052000Y0103203D02*
X0052000Y0103203D01*
X0038000Y0102781D02*
X0015000Y0102781D01*
X0015000Y0101783D02*
X0038000Y0101783D01*
X0038000Y0100784D02*
X0015000Y0100784D01*
X0015000Y0099786D02*
X0038000Y0099786D01*
X0038000Y0098787D02*
X0015000Y0098787D01*
X0015000Y0097789D02*
X0038217Y0097789D01*
X0035565Y0094793D02*
X0035463Y0094793D01*
X0029924Y0096790D02*
X0029076Y0096790D01*
X0024924Y0096790D02*
X0024076Y0096790D01*
X0019924Y0096790D02*
X0015002Y0096790D01*
X0015299Y0095792D02*
X0018951Y0095792D01*
X0018537Y0094793D02*
X0018435Y0094793D01*
X0015000Y0103780D02*
X0038000Y0103780D01*
X0038000Y0104778D02*
X0015000Y0104778D01*
X0015000Y0105777D02*
X0038000Y0105777D01*
X0038000Y0106775D02*
X0037000Y0106775D01*
X0037776Y0107774D02*
X0038193Y0107774D01*
X0038000Y0108772D02*
X0038926Y0108772D01*
X0035500Y0108811D02*
X0026500Y0108811D01*
X0026500Y0116811D01*
X0035500Y0116811D01*
X0035500Y0108811D01*
X0035500Y0109771D02*
X0026500Y0109771D01*
X0026500Y0110769D02*
X0035500Y0110769D01*
X0035500Y0111768D02*
X0026500Y0111768D01*
X0026500Y0112766D02*
X0035500Y0112766D01*
X0035500Y0113765D02*
X0026500Y0113765D01*
X0026500Y0114763D02*
X0035500Y0114763D01*
X0035500Y0115762D02*
X0026500Y0115762D01*
X0026500Y0116760D02*
X0035500Y0116760D01*
X0024911Y0118757D02*
X0015000Y0118757D01*
X0015000Y0117759D02*
X0024187Y0117759D01*
X0024000Y0116760D02*
X0015000Y0116760D01*
X0015000Y0115762D02*
X0024000Y0115762D01*
X0024000Y0114763D02*
X0015000Y0114763D01*
X0015000Y0113765D02*
X0024000Y0113765D01*
X0024000Y0112766D02*
X0015000Y0112766D01*
X0015000Y0111768D02*
X0024000Y0111768D01*
X0024000Y0110769D02*
X0015000Y0110769D01*
X0015000Y0109771D02*
X0024000Y0109771D01*
X0024000Y0108772D02*
X0015000Y0108772D01*
X0015000Y0107774D02*
X0024224Y0107774D01*
X0025000Y0106775D02*
X0015000Y0106775D01*
X0014974Y0079815D02*
X0032591Y0079815D01*
X0033590Y0078817D02*
X0014701Y0078817D01*
X0014700Y0077818D02*
X0034588Y0077818D01*
X0035587Y0076820D02*
X0014700Y0076820D01*
X0014700Y0075821D02*
X0036585Y0075821D01*
X0037584Y0074823D02*
X0014700Y0074823D01*
X0014700Y0073824D02*
X0038582Y0073824D01*
X0039581Y0072826D02*
X0014700Y0072826D01*
X0014700Y0071827D02*
X0040579Y0071827D01*
X0041578Y0070829D02*
X0014700Y0070829D01*
X0014700Y0069830D02*
X0042576Y0069830D01*
X0014925Y0005926D02*
X0253075Y0005926D01*
X0252306Y0004927D02*
X0015694Y0004927D01*
X0144000Y0083311D02*
X0144000Y0093311D01*
X0152000Y0093311D01*
X0152000Y0083311D01*
X0144000Y0083311D01*
X0144000Y0083810D02*
X0152000Y0083810D01*
X0152000Y0084808D02*
X0144000Y0084808D01*
X0144000Y0085807D02*
X0152000Y0085807D01*
X0152000Y0086805D02*
X0144000Y0086805D01*
X0144000Y0087804D02*
X0152000Y0087804D01*
X0152000Y0088802D02*
X0144000Y0088802D01*
X0144000Y0089801D02*
X0152000Y0089801D01*
X0152000Y0090799D02*
X0144000Y0090799D01*
X0144000Y0091798D02*
X0152000Y0091798D01*
X0152000Y0092796D02*
X0144000Y0092796D01*
X0216500Y0168811D02*
X0216500Y0176811D01*
X0225500Y0176811D01*
X0225500Y0168811D01*
X0216500Y0168811D01*
X0216500Y0169682D02*
X0225500Y0169682D01*
X0225500Y0170680D02*
X0216500Y0170680D01*
X0216500Y0171679D02*
X0225500Y0171679D01*
X0225500Y0172677D02*
X0216500Y0172677D01*
X0216500Y0173676D02*
X0225500Y0173676D01*
X0225500Y0174674D02*
X0216500Y0174674D01*
X0216500Y0175673D02*
X0225500Y0175673D01*
X0225500Y0176671D02*
X0216500Y0176671D01*
X0216500Y0193811D02*
X0216500Y0201811D01*
X0225500Y0201811D01*
X0225500Y0193811D01*
X0216500Y0193811D01*
X0216500Y0194644D02*
X0225500Y0194644D01*
X0225500Y0195643D02*
X0216500Y0195643D01*
X0216500Y0196641D02*
X0225500Y0196641D01*
X0225500Y0197640D02*
X0216500Y0197640D01*
X0216500Y0198638D02*
X0225500Y0198638D01*
X0225500Y0199637D02*
X0216500Y0199637D01*
X0216500Y0200635D02*
X0225500Y0200635D01*
X0225500Y0201634D02*
X0216500Y0201634D01*
X0215250Y0204629D02*
X0225750Y0204629D01*
X0225750Y0205628D02*
X0215250Y0205628D01*
X0215250Y0206626D02*
X0225750Y0206626D01*
X0225750Y0207625D02*
X0215250Y0207625D01*
X0215250Y0208623D02*
X0225750Y0208623D01*
X0225750Y0209622D02*
X0215250Y0209622D01*
X0215250Y0210620D02*
X0225750Y0210620D01*
X0225750Y0211619D02*
X0215250Y0211619D01*
X0215250Y0212617D02*
X0225750Y0212617D01*
X0225750Y0213616D02*
X0215694Y0213616D01*
X0216693Y0214615D02*
X0225750Y0214615D01*
X0225750Y0215613D02*
X0217691Y0215613D01*
X0218690Y0216612D02*
X0225750Y0216612D01*
X0226062Y0217610D02*
X0219688Y0217610D01*
X0220687Y0218609D02*
X0226271Y0218609D01*
X0226685Y0219607D02*
X0221685Y0219607D01*
X0222684Y0220606D02*
X0227491Y0220606D01*
X0216894Y0228594D02*
X0209250Y0228594D01*
X0209250Y0229592D02*
X0217892Y0229592D01*
X0218891Y0230591D02*
X0209250Y0230591D01*
X0209250Y0231589D02*
X0219889Y0231589D01*
X0220888Y0232588D02*
X0209250Y0232588D01*
X0209250Y0233586D02*
X0221886Y0233586D01*
X0222885Y0234585D02*
X0209250Y0234585D01*
X0209250Y0235583D02*
X0223883Y0235583D01*
X0224882Y0236582D02*
X0209250Y0236582D01*
X0209250Y0237580D02*
X0225880Y0237580D01*
X0226259Y0238579D02*
X0209250Y0238579D01*
X0209250Y0239577D02*
X0226673Y0239577D01*
X0227461Y0240576D02*
X0209250Y0240576D01*
X0209250Y0227595D02*
X0215895Y0227595D01*
X0214897Y0226597D02*
X0209250Y0226597D01*
X0209250Y0225598D02*
X0213898Y0225598D01*
X0212900Y0224600D02*
X0209250Y0224600D01*
X0209250Y0223601D02*
X0211901Y0223601D01*
X0210903Y0222603D02*
X0209250Y0222603D01*
X0209250Y0221604D02*
X0209904Y0221604D01*
X0157982Y0252558D02*
X0114642Y0252558D01*
X0113644Y0253556D02*
X0156983Y0253556D01*
X0155985Y0254555D02*
X0112645Y0254555D01*
X0111647Y0255553D02*
X0154986Y0255553D01*
X0154387Y0256552D02*
X0110648Y0256552D01*
X0109650Y0257551D02*
X0154250Y0257551D01*
X0154250Y0258549D02*
X0108651Y0258549D01*
X0107653Y0259548D02*
X0154250Y0259548D01*
X0154250Y0260546D02*
X0106654Y0260546D01*
X0105656Y0261545D02*
X0154250Y0261545D01*
X0154250Y0262543D02*
X0104657Y0262543D01*
X0103659Y0263542D02*
X0154250Y0263542D01*
X0154250Y0264540D02*
X0102660Y0264540D01*
X0101661Y0265539D02*
X0154532Y0265539D01*
X0155337Y0266537D02*
X0100663Y0266537D01*
X0099664Y0267536D02*
X0156336Y0267536D01*
X0155442Y0266642D02*
X0155442Y0266642D01*
X0157334Y0268534D02*
X0098666Y0268534D01*
X0097667Y0269533D02*
X0158333Y0269533D01*
X0159331Y0270531D02*
X0110877Y0270531D01*
X0106123Y0270531D02*
X0096669Y0270531D01*
X0095670Y0271530D02*
X0105124Y0271530D01*
X0104702Y0272528D02*
X0094672Y0272528D01*
X0093673Y0273527D02*
X0104500Y0273527D01*
X0104500Y0274525D02*
X0092675Y0274525D01*
X0091676Y0275524D02*
X0104880Y0275524D01*
X0105554Y0276522D02*
X0090678Y0276522D01*
X0089679Y0277521D02*
X0107004Y0277521D01*
X0109996Y0277521D02*
X0169768Y0277521D01*
X0169750Y0278519D02*
X0088681Y0278519D01*
X0087682Y0279518D02*
X0169941Y0279518D01*
X0170402Y0280516D02*
X0086684Y0280516D01*
X0085685Y0281515D02*
X0170750Y0281515D01*
X0170750Y0282513D02*
X0085250Y0282513D01*
X0085250Y0283512D02*
X0170750Y0283512D01*
X0170750Y0284510D02*
X0085250Y0284510D01*
X0085250Y0285509D02*
X0116075Y0285509D01*
X0114947Y0286507D02*
X0085250Y0286507D01*
X0085250Y0287506D02*
X0114441Y0287506D01*
X0114213Y0288504D02*
X0085250Y0288504D01*
X0085250Y0289503D02*
X0114213Y0289503D01*
X0114601Y0290501D02*
X0085250Y0290501D01*
X0085250Y0291500D02*
X0115333Y0291500D01*
X0117005Y0292498D02*
X0085250Y0292498D01*
X0085250Y0293497D02*
X0120297Y0293497D01*
X0121295Y0294495D02*
X0085250Y0294495D01*
X0085250Y0295494D02*
X0122294Y0295494D01*
X0123292Y0296492D02*
X0085250Y0296492D01*
X0085250Y0297491D02*
X0124291Y0297491D01*
X0125289Y0298489D02*
X0085250Y0298489D01*
X0085250Y0299488D02*
X0126288Y0299488D01*
X0127286Y0300486D02*
X0085250Y0300486D01*
X0085250Y0301485D02*
X0128285Y0301485D01*
X0129283Y0302484D02*
X0085250Y0302484D01*
X0085250Y0303482D02*
X0130282Y0303482D01*
X0131280Y0304481D02*
X0085250Y0304481D01*
X0085250Y0305479D02*
X0132279Y0305479D01*
X0133277Y0306478D02*
X0085250Y0306478D01*
X0085250Y0307476D02*
X0134276Y0307476D01*
X0135274Y0308475D02*
X0085250Y0308475D01*
X0085250Y0309473D02*
X0136273Y0309473D01*
X0137272Y0310472D02*
X0085550Y0310472D01*
X0086548Y0311470D02*
X0138270Y0311470D01*
X0139269Y0312469D02*
X0087547Y0312469D01*
X0088545Y0313467D02*
X0140267Y0313467D01*
X0141266Y0314466D02*
X0090820Y0314466D01*
X0092009Y0315464D02*
X0142264Y0315464D01*
X0143250Y0316463D02*
X0092541Y0316463D01*
X0092787Y0317461D02*
X0143250Y0317461D01*
X0159947Y0306478D02*
X0161277Y0306478D01*
X0170750Y0297491D02*
X0132069Y0297491D01*
X0131070Y0296492D02*
X0170750Y0296492D01*
X0170750Y0295494D02*
X0130072Y0295494D01*
X0129073Y0294495D02*
X0170750Y0294495D01*
X0170750Y0293497D02*
X0128075Y0293497D01*
X0127076Y0292498D02*
X0170750Y0292498D01*
X0170750Y0291500D02*
X0126078Y0291500D01*
X0125079Y0290501D02*
X0170750Y0290501D01*
X0170750Y0289503D02*
X0124081Y0289503D01*
X0123082Y0288504D02*
X0170750Y0288504D01*
X0170750Y0287506D02*
X0122084Y0287506D01*
X0121085Y0286507D02*
X0170750Y0286507D01*
X0170750Y0285509D02*
X0119925Y0285509D01*
X0119298Y0292498D02*
X0118995Y0292498D01*
X0080767Y0313467D02*
X0080700Y0313467D01*
X0074455Y0309473D02*
X0040511Y0309473D01*
X0043255Y0308475D02*
X0074980Y0308475D01*
X0076154Y0307476D02*
X0044867Y0307476D01*
X0046057Y0306478D02*
X0076750Y0306478D01*
X0076750Y0305479D02*
X0047219Y0305479D01*
X0047795Y0304481D02*
X0076750Y0304481D01*
X0076750Y0303482D02*
X0048372Y0303482D01*
X0048948Y0302484D02*
X0076750Y0302484D01*
X0076750Y0301485D02*
X0049352Y0301485D01*
X0049528Y0300486D02*
X0076750Y0300486D01*
X0076750Y0299488D02*
X0049704Y0299488D01*
X0049880Y0298489D02*
X0076750Y0298489D01*
X0076750Y0297491D02*
X0049944Y0297491D01*
X0049767Y0296492D02*
X0076750Y0296492D01*
X0076750Y0295494D02*
X0049591Y0295494D01*
X0049415Y0294495D02*
X0076750Y0294495D01*
X0076750Y0293497D02*
X0049155Y0293497D01*
X0048579Y0292498D02*
X0076750Y0292498D01*
X0076750Y0291500D02*
X0048002Y0291500D01*
X0047426Y0290501D02*
X0076750Y0290501D01*
X0076750Y0289503D02*
X0046484Y0289503D01*
X0045294Y0288504D02*
X0076750Y0288504D01*
X0076750Y0287506D02*
X0044104Y0287506D01*
X0041496Y0286507D02*
X0076750Y0286507D01*
X0060398Y0275524D02*
X0015000Y0275524D01*
X0015000Y0276522D02*
X0059400Y0276522D01*
X0058401Y0277521D02*
X0015000Y0277521D01*
X0015000Y0278519D02*
X0043936Y0278519D01*
X0043143Y0279518D02*
X0015000Y0279518D01*
X0015000Y0280516D02*
X0042730Y0280516D01*
X0042713Y0281515D02*
X0015000Y0281515D01*
X0015000Y0282513D02*
X0042899Y0282513D01*
X0043345Y0283512D02*
X0015000Y0283512D01*
X0015000Y0284510D02*
X0044343Y0284510D01*
X0053064Y0278519D02*
X0057403Y0278519D01*
X0061397Y0274525D02*
X0015000Y0274525D01*
X0015000Y0273527D02*
X0062395Y0273527D01*
X0063394Y0272528D02*
X0015000Y0272528D01*
X0015000Y0271530D02*
X0064392Y0271530D01*
X0065391Y0270531D02*
X0015000Y0270531D01*
X0015000Y0269533D02*
X0066389Y0269533D01*
X0067388Y0268534D02*
X0015000Y0268534D01*
X0015000Y0267536D02*
X0068386Y0267536D01*
X0069385Y0266537D02*
X0015000Y0266537D01*
X0015000Y0265539D02*
X0070383Y0265539D01*
X0071382Y0264540D02*
X0015000Y0264540D01*
X0015000Y0263542D02*
X0072380Y0263542D01*
X0073379Y0262543D02*
X0015000Y0262543D01*
X0015000Y0261545D02*
X0074377Y0261545D01*
X0075376Y0260546D02*
X0015000Y0260546D01*
X0015000Y0259548D02*
X0076374Y0259548D01*
X0077373Y0258549D02*
X0015000Y0258549D01*
X0015000Y0257551D02*
X0078371Y0257551D01*
X0085127Y0248564D02*
X0037283Y0248564D01*
X0037894Y0247565D02*
X0084713Y0247565D01*
X0084713Y0246567D02*
X0038000Y0246567D01*
X0038000Y0245568D02*
X0084915Y0245568D01*
X0085385Y0244570D02*
X0038000Y0244570D01*
X0038000Y0243571D02*
X0086424Y0243571D01*
X0101787Y0188653D02*
X0102213Y0188653D01*
X0102587Y0187655D02*
X0101620Y0187655D01*
X0101201Y0186656D02*
X0103299Y0186656D01*
X0104923Y0185658D02*
X0100203Y0185658D01*
X0095797Y0185658D02*
X0094750Y0185658D01*
X0094750Y0186656D02*
X0094799Y0186656D01*
D15*
X0076000Y0185311D03*
X0076000Y0180311D03*
X0076000Y0190311D03*
X0076000Y0195311D03*
X0076000Y0200311D03*
X0139000Y0217811D03*
X0144000Y0217811D03*
X0144000Y0222811D03*
X0144000Y0237811D03*
X0144000Y0242811D03*
X0181000Y0233311D03*
X0196500Y0237811D03*
X0196500Y0242811D03*
X0196500Y0227811D03*
X0196500Y0222811D03*
X0196500Y0217811D03*
X0196500Y0207811D03*
X0196500Y0202811D03*
X0196500Y0197811D03*
X0196500Y0187811D03*
X0196500Y0177811D03*
X0196500Y0172811D03*
X0196500Y0162811D03*
X0196500Y0157811D03*
X0196500Y0152811D03*
X0196500Y0142811D03*
X0196500Y0137811D03*
X0196500Y0132811D03*
X0196500Y0122811D03*
X0196500Y0117811D03*
X0196500Y0107811D03*
X0181000Y0133311D03*
X0181000Y0153311D03*
X0181000Y0173311D03*
X0181000Y0193311D03*
X0181000Y0213311D03*
X0144000Y0202811D03*
X0144000Y0197811D03*
X0140000Y0194811D03*
X0143776Y0188087D03*
X0144000Y0182811D03*
X0144000Y0177811D03*
X0139000Y0177811D03*
X0139000Y0172811D03*
X0139000Y0162811D03*
X0144000Y0162811D03*
X0144000Y0157811D03*
X0144000Y0142811D03*
X0144000Y0137811D03*
X0162500Y0113811D03*
X0159500Y0109811D03*
X0156500Y0105811D03*
X0230000Y0217811D03*
X0226000Y0227811D03*
X0230000Y0237811D03*
X0173500Y0278311D03*
X0178000Y0281311D03*
X0159000Y0302811D03*
X0173500Y0305311D03*
X0173500Y0310311D03*
X0198500Y0315811D03*
D16*
X0190500Y0323811D01*
X0176000Y0323811D01*
X0164500Y0312311D01*
X0164500Y0305811D01*
X0161500Y0302811D01*
X0159000Y0302811D01*
X0173500Y0305311D02*
X0173500Y0278311D01*
X0178000Y0281311D02*
X0178000Y0306811D01*
X0174500Y0310311D01*
X0173500Y0310311D01*
X0188500Y0299811D02*
X0198500Y0309811D01*
X0188500Y0299811D02*
X0188500Y0278811D01*
X0179500Y0269811D01*
X0162500Y0269811D01*
X0157000Y0264311D01*
X0157000Y0257429D01*
X0166618Y0247811D01*
X0197000Y0247811D01*
X0200500Y0244311D01*
X0200500Y0126811D01*
X0196500Y0122811D01*
X0191500Y0122811D01*
X0181000Y0133311D01*
X0143000Y0133311D01*
X0137000Y0139311D01*
X0137000Y0150311D01*
X0121500Y0165811D01*
X0101000Y0165811D01*
X0086000Y0180811D01*
X0086000Y0200811D01*
X0079500Y0207311D01*
X0072500Y0207311D01*
X0069000Y0203811D01*
X0069000Y0196311D01*
X0075000Y0190311D01*
X0076000Y0190311D01*
X0076000Y0195311D02*
X0075000Y0195311D01*
X0072000Y0198311D01*
X0072000Y0202311D01*
X0074000Y0204311D01*
X0078000Y0204311D01*
X0083000Y0199311D01*
X0083000Y0179311D01*
X0099500Y0162811D01*
X0120000Y0162811D01*
X0134000Y0148811D01*
X0134000Y0137811D01*
X0143000Y0128811D01*
X0172000Y0128811D01*
X0183000Y0117811D01*
X0196500Y0117811D01*
X0197500Y0117811D01*
X0203500Y0123811D01*
X0203500Y0245288D01*
X0197977Y0250811D01*
X0168016Y0250811D01*
X0160000Y0258827D01*
X0160000Y0262811D01*
X0163000Y0265811D01*
X0164000Y0265811D01*
X0164000Y0260811D02*
X0171000Y0253811D01*
X0198851Y0253811D01*
X0206500Y0246162D01*
X0206500Y0117811D01*
X0196500Y0107811D01*
X0188500Y0107811D01*
X0170500Y0125811D01*
X0141500Y0125811D01*
X0131000Y0136311D01*
X0131000Y0147311D01*
X0118500Y0159811D01*
X0098000Y0159811D01*
X0080000Y0177811D01*
X0080000Y0197311D01*
X0077000Y0200311D01*
X0076000Y0200311D01*
X0066000Y0205311D02*
X0071000Y0210311D01*
X0081000Y0210311D01*
X0089000Y0202311D01*
X0089000Y0182311D01*
X0102500Y0168811D01*
X0123000Y0168811D01*
X0140000Y0151811D01*
X0140000Y0140811D01*
X0143000Y0137811D01*
X0144000Y0137811D01*
X0183000Y0137811D01*
X0188000Y0132811D01*
X0196500Y0132811D01*
X0196500Y0137811D02*
X0188000Y0137811D01*
X0183000Y0142811D01*
X0144000Y0142811D01*
X0143000Y0153311D02*
X0124500Y0171811D01*
X0104000Y0171811D01*
X0092000Y0183811D01*
X0092000Y0203811D01*
X0082500Y0213311D01*
X0069500Y0213311D01*
X0063000Y0206811D01*
X0063000Y0192311D01*
X0075000Y0180311D01*
X0076000Y0180311D01*
X0076000Y0185311D02*
X0075000Y0185311D01*
X0066000Y0194311D01*
X0066000Y0205311D01*
X0060000Y0208311D02*
X0060000Y0226311D01*
X0053500Y0232811D01*
X0048500Y0229811D02*
X0048000Y0229811D01*
X0048500Y0229811D02*
X0053000Y0225311D01*
X0053000Y0206811D01*
X0049000Y0202811D01*
X0057000Y0194811D01*
X0057000Y0187811D01*
X0073500Y0171311D01*
X0075500Y0171311D01*
X0083500Y0163311D01*
X0090000Y0156811D01*
X0117000Y0156811D01*
X0128000Y0145811D01*
X0128000Y0134811D01*
X0140000Y0122811D01*
X0160500Y0122811D01*
X0165500Y0117811D01*
X0162500Y0113811D02*
X0178000Y0113811D01*
X0188000Y0103811D01*
X0198000Y0103811D01*
X0209500Y0115311D01*
X0209500Y0217311D01*
X0230000Y0237811D01*
X0226000Y0227811D02*
X0212500Y0214311D01*
X0212500Y0113811D01*
X0199500Y0100811D01*
X0186500Y0100811D01*
X0177500Y0109811D01*
X0159500Y0109811D01*
X0156500Y0105811D02*
X0177000Y0105811D01*
X0185000Y0097811D01*
X0201000Y0097811D01*
X0215500Y0112311D01*
X0215500Y0154811D01*
X0228500Y0167811D01*
X0228500Y0216311D01*
X0230000Y0217811D01*
X0196500Y0217811D02*
X0144000Y0217811D01*
X0139000Y0217811D02*
X0139000Y0223311D01*
X0149000Y0233311D01*
X0181000Y0233311D01*
X0186500Y0227811D01*
X0196500Y0227811D01*
X0196500Y0222811D02*
X0144000Y0222811D01*
X0130000Y0225811D02*
X0130000Y0213311D01*
X0106000Y0189311D01*
X0102000Y0192811D02*
X0103000Y0193811D01*
X0106000Y0193811D01*
X0126000Y0213811D01*
X0126000Y0227811D01*
X0129000Y0230811D01*
X0130000Y0230811D01*
X0130000Y0235811D02*
X0129000Y0235811D01*
X0123000Y0229811D01*
X0123000Y0215311D01*
X0113064Y0205375D01*
X0094936Y0205375D01*
X0094936Y0191875D01*
X0098000Y0188811D01*
X0076000Y0175311D02*
X0074500Y0175311D01*
X0060000Y0189811D01*
X0060000Y0208311D01*
X0068000Y0216311D01*
X0084000Y0216311D01*
X0094936Y0205375D01*
X0135000Y0184811D02*
X0135000Y0175811D01*
X0138000Y0172811D01*
X0139000Y0172811D01*
X0139000Y0177811D02*
X0139000Y0183311D01*
X0143776Y0188087D01*
X0143500Y0193311D02*
X0135000Y0184811D01*
X0135000Y0236311D01*
X0125000Y0246311D01*
X0112500Y0246311D01*
X0079500Y0279311D01*
X0079500Y0309311D01*
X0078000Y0310811D01*
X0082500Y0311311D02*
X0089000Y0317811D01*
X0082500Y0311311D02*
X0082500Y0280811D01*
X0114000Y0249311D01*
X0158000Y0249311D01*
X0163500Y0243811D01*
X0170000Y0243811D01*
X0172000Y0239811D02*
X0162000Y0239811D01*
X0159000Y0242811D01*
X0144000Y0242811D01*
X0144000Y0237811D02*
X0158500Y0237811D01*
X0160000Y0236311D01*
X0174000Y0236311D01*
X0175500Y0237811D01*
X0196500Y0237811D01*
X0196500Y0242811D02*
X0175000Y0242811D01*
X0172000Y0239811D01*
X0181000Y0213311D02*
X0149000Y0213311D01*
X0140000Y0204311D01*
X0140000Y0194811D01*
X0143500Y0193311D02*
X0181000Y0193311D01*
X0186500Y0187811D01*
X0196500Y0187811D01*
X0196500Y0177811D02*
X0188000Y0177811D01*
X0183000Y0182811D01*
X0144000Y0182811D01*
X0144000Y0177811D02*
X0183000Y0177811D01*
X0188000Y0172811D01*
X0196500Y0172811D01*
X0196500Y0162811D02*
X0191500Y0162811D01*
X0181000Y0173311D01*
X0148500Y0173311D01*
X0139000Y0163811D01*
X0139000Y0162811D01*
X0144000Y0162811D02*
X0183000Y0162811D01*
X0188000Y0157811D01*
X0196500Y0157811D01*
X0196500Y0152811D02*
X0188000Y0152811D01*
X0183000Y0157811D01*
X0144000Y0157811D01*
X0143000Y0153311D02*
X0181000Y0153311D01*
X0191500Y0142811D01*
X0196500Y0142811D01*
X0196500Y0197811D02*
X0144000Y0197811D01*
X0144000Y0202811D02*
X0196500Y0202811D01*
X0196500Y0207811D02*
X0191000Y0213311D01*
X0181000Y0213311D01*
X0088500Y0246811D02*
X0088500Y0251311D01*
X0058500Y0281311D01*
X0046500Y0281311D01*
X0023500Y0251811D02*
X0023500Y0193811D01*
X0041500Y0175811D01*
X0042000Y0175811D01*
X0118000Y0288811D02*
X0119500Y0288811D01*
X0146000Y0315311D01*
X0146000Y0331811D01*
X0144500Y0333311D01*
D17*
X0218000Y0280811D03*
X0221000Y0280811D03*
X0224000Y0280811D03*
X0224000Y0274811D03*
X0221000Y0274811D03*
X0218000Y0274811D03*
X0232000Y0270811D03*
X0235000Y0270811D03*
X0238000Y0270811D03*
X0238000Y0264811D03*
X0235000Y0264811D03*
X0232000Y0264811D03*
X0224000Y0200811D03*
X0221000Y0200811D03*
X0218000Y0200811D03*
X0218000Y0194811D03*
X0221000Y0194811D03*
X0224000Y0194811D03*
X0224000Y0175811D03*
X0221000Y0175811D03*
X0218000Y0175811D03*
X0218000Y0169811D03*
X0221000Y0169811D03*
X0224000Y0169811D03*
X0231500Y0105811D03*
X0234500Y0105811D03*
X0237500Y0105811D03*
X0237500Y0099811D03*
X0234500Y0099811D03*
X0231500Y0099811D03*
X0151000Y0091311D03*
X0151000Y0088311D03*
X0151000Y0085311D03*
X0145000Y0085311D03*
X0145000Y0088311D03*
X0145000Y0091311D03*
X0131000Y0104311D03*
X0131000Y0107311D03*
X0131000Y0110311D03*
X0125000Y0110311D03*
X0125000Y0107311D03*
X0125000Y0104311D03*
X0048000Y0105811D03*
X0045000Y0105811D03*
X0042000Y0105811D03*
X0042000Y0099811D03*
X0045000Y0099811D03*
X0048000Y0099811D03*
X0034000Y0109811D03*
X0031000Y0109811D03*
X0028000Y0109811D03*
X0028000Y0115811D03*
X0031000Y0115811D03*
X0034000Y0115811D03*
X0042000Y0119811D03*
X0045000Y0119811D03*
X0048000Y0119811D03*
X0048000Y0125811D03*
X0045000Y0125811D03*
X0042000Y0125811D03*
X0034000Y0129811D03*
X0031000Y0129811D03*
X0028000Y0129811D03*
X0028000Y0135811D03*
X0031000Y0135811D03*
X0034000Y0135811D03*
X0042000Y0139811D03*
X0045000Y0139811D03*
X0048000Y0139811D03*
X0048000Y0145811D03*
X0045000Y0145811D03*
X0042000Y0145811D03*
X0034000Y0149811D03*
X0031000Y0149811D03*
X0028000Y0149811D03*
X0028000Y0155811D03*
X0031000Y0155811D03*
X0034000Y0155811D03*
X0042000Y0169811D03*
X0045000Y0169811D03*
X0048000Y0169811D03*
X0048000Y0175811D03*
X0045000Y0175811D03*
X0042000Y0175811D03*
X0034000Y0199811D03*
X0031000Y0199811D03*
X0028000Y0199811D03*
X0028000Y0205811D03*
X0031000Y0205811D03*
X0034000Y0205811D03*
X0042000Y0209811D03*
X0045000Y0209811D03*
X0048000Y0209811D03*
X0048000Y0215811D03*
X0045000Y0215811D03*
X0042000Y0215811D03*
X0034000Y0219811D03*
X0031000Y0219811D03*
X0028000Y0219811D03*
X0028000Y0225811D03*
X0031000Y0225811D03*
X0034000Y0225811D03*
X0042000Y0229811D03*
X0045000Y0229811D03*
X0048000Y0229811D03*
X0048000Y0235811D03*
X0045000Y0235811D03*
X0042000Y0235811D03*
X0034000Y0239811D03*
X0031000Y0239811D03*
X0028000Y0239811D03*
X0028000Y0245811D03*
X0031000Y0245811D03*
X0034000Y0245811D03*
D18*
X0108500Y0273811D02*
X0178000Y0273811D01*
X0184500Y0280311D01*
X0184500Y0319811D01*
X0293000Y0317811D02*
X0293000Y0277811D01*
X0293000Y0257811D01*
X0293000Y0217811D01*
X0293000Y0197811D01*
X0293000Y0157811D01*
X0293000Y0137811D01*
X0293000Y0097811D01*
X0293000Y0077811D01*
X0293000Y0037811D01*
X0303000Y0037811D02*
X0303000Y0077811D01*
X0303000Y0097811D01*
X0303000Y0137811D01*
X0303000Y0157811D01*
X0303000Y0197811D01*
X0303000Y0217811D01*
X0303000Y0257811D01*
X0303000Y0277811D01*
X0303000Y0317811D01*
X0328000Y0312811D02*
X0368000Y0312811D01*
X0368000Y0302811D02*
X0328000Y0302811D01*
X0328000Y0292811D02*
X0368000Y0292811D01*
X0368000Y0282811D02*
X0328000Y0282811D01*
X0328000Y0272811D02*
X0368000Y0272811D01*
X0368000Y0262811D02*
X0328000Y0262811D01*
X0328000Y0252811D02*
X0368000Y0252811D01*
X0368000Y0242811D02*
X0328000Y0242811D01*
X0328000Y0232811D02*
X0368000Y0232811D01*
X0368000Y0222811D02*
X0328000Y0222811D01*
X0328000Y0212811D02*
X0368000Y0212811D01*
X0368000Y0202811D02*
X0328000Y0202811D01*
X0328000Y0192811D02*
X0368000Y0192811D01*
X0368000Y0182811D02*
X0328000Y0182811D01*
X0328000Y0172811D02*
X0368000Y0172811D01*
X0368000Y0162811D02*
X0328000Y0162811D01*
X0328000Y0152811D02*
X0368000Y0152811D01*
X0368000Y0142811D02*
X0328000Y0142811D01*
X0328000Y0132811D02*
X0368000Y0132811D01*
X0368000Y0122811D02*
X0328000Y0122811D01*
X0328000Y0112811D02*
X0368000Y0112811D01*
X0368000Y0102811D02*
X0328000Y0102811D01*
X0328000Y0092811D02*
X0368000Y0092811D01*
X0368000Y0082811D02*
X0328000Y0082811D01*
X0328000Y0072811D02*
X0368000Y0072811D01*
X0368000Y0062811D02*
X0328000Y0062811D01*
X0328000Y0052811D02*
X0368000Y0052811D01*
X0368000Y0042811D02*
X0328000Y0042811D01*
X0328000Y0032811D02*
X0368000Y0032811D01*
X0398000Y0032811D02*
X0438000Y0032811D01*
X0438000Y0042811D02*
X0398000Y0042811D01*
X0398000Y0052811D02*
X0438000Y0052811D01*
X0438000Y0062811D02*
X0398000Y0062811D01*
X0398000Y0072811D02*
X0438000Y0072811D01*
X0438000Y0082811D02*
X0398000Y0082811D01*
X0398000Y0092811D02*
X0438000Y0092811D01*
X0438000Y0102811D02*
X0398000Y0102811D01*
X0398000Y0112811D02*
X0438000Y0112811D01*
X0438000Y0122811D02*
X0398000Y0122811D01*
X0398000Y0132811D02*
X0438000Y0132811D01*
X0438000Y0142811D02*
X0398000Y0142811D01*
X0398000Y0152811D02*
X0438000Y0152811D01*
X0438000Y0162811D02*
X0398000Y0162811D01*
X0398000Y0172811D02*
X0438000Y0172811D01*
X0438000Y0182811D02*
X0398000Y0182811D01*
X0398000Y0192811D02*
X0438000Y0192811D01*
X0438000Y0202811D02*
X0398000Y0202811D01*
X0398000Y0212811D02*
X0438000Y0212811D01*
X0438000Y0222811D02*
X0398000Y0222811D01*
X0398000Y0232811D02*
X0438000Y0232811D01*
X0438000Y0242811D02*
X0398000Y0242811D01*
X0398000Y0252811D02*
X0438000Y0252811D01*
X0438000Y0262811D02*
X0398000Y0262811D01*
X0398000Y0272811D02*
X0438000Y0272811D01*
X0438000Y0282811D02*
X0398000Y0282811D01*
X0398000Y0292811D02*
X0438000Y0292811D01*
X0438000Y0302811D02*
X0398000Y0302811D01*
X0398000Y0312811D02*
X0438000Y0312811D01*
X0438000Y0322811D02*
X0398000Y0322811D01*
X0368000Y0322811D02*
X0328000Y0322811D01*
X0463000Y0317811D02*
X0463000Y0277811D01*
X0463000Y0257811D01*
X0463000Y0217811D01*
X0463000Y0197811D01*
X0463000Y0157811D01*
X0463000Y0137811D01*
X0463000Y0097811D01*
X0463000Y0077811D01*
X0463000Y0037811D01*
X0473000Y0037811D02*
X0473000Y0077811D01*
X0473000Y0097811D01*
X0473000Y0137811D01*
X0473000Y0157811D01*
X0473000Y0197811D01*
X0473000Y0217811D01*
X0473000Y0257811D01*
X0473000Y0277811D01*
X0473000Y0317811D01*
D19*
X0198500Y0309811D03*
X0144500Y0333311D03*
X0089000Y0317811D03*
X0078000Y0310811D03*
X0118000Y0288811D03*
X0164000Y0265811D03*
X0164000Y0260811D03*
X0170000Y0243811D03*
X0130000Y0235811D03*
X0130000Y0230811D03*
X0130000Y0225811D03*
X0088500Y0246811D03*
X0088500Y0251311D03*
X0053500Y0232811D03*
X0023500Y0251811D03*
X0046500Y0281311D03*
X0050500Y0281311D03*
X0049000Y0202811D03*
X0076000Y0175311D03*
X0083500Y0163311D03*
X0098000Y0188811D03*
X0102000Y0192811D03*
X0106000Y0189311D03*
X0165500Y0117811D03*
D20*
X0293000Y0117811D03*
X0293000Y0107811D03*
X0303000Y0107811D03*
X0303000Y0117811D03*
X0303000Y0127811D03*
X0293000Y0127811D03*
X0293000Y0137811D03*
X0303000Y0137811D03*
X0328000Y0132811D03*
X0338000Y0132811D03*
X0348000Y0132811D03*
X0358000Y0132811D03*
X0368000Y0132811D03*
X0368000Y0142811D03*
X0358000Y0142811D03*
X0348000Y0142811D03*
X0338000Y0142811D03*
X0328000Y0142811D03*
X0328000Y0152811D03*
X0338000Y0152811D03*
X0348000Y0152811D03*
X0358000Y0152811D03*
X0368000Y0152811D03*
X0368000Y0162811D03*
X0358000Y0162811D03*
X0348000Y0162811D03*
X0338000Y0162811D03*
X0328000Y0162811D03*
X0328000Y0172811D03*
X0338000Y0172811D03*
X0348000Y0172811D03*
X0358000Y0172811D03*
X0368000Y0172811D03*
X0368000Y0182811D03*
X0358000Y0182811D03*
X0348000Y0182811D03*
X0338000Y0182811D03*
X0328000Y0182811D03*
X0328000Y0192811D03*
X0338000Y0192811D03*
X0348000Y0192811D03*
X0358000Y0192811D03*
X0368000Y0192811D03*
X0368000Y0202811D03*
X0358000Y0202811D03*
X0348000Y0202811D03*
X0338000Y0202811D03*
X0328000Y0202811D03*
X0328000Y0212811D03*
X0338000Y0212811D03*
X0348000Y0212811D03*
X0358000Y0212811D03*
X0368000Y0212811D03*
X0368000Y0222811D03*
X0358000Y0222811D03*
X0348000Y0222811D03*
X0338000Y0222811D03*
X0328000Y0222811D03*
X0328000Y0232811D03*
X0338000Y0232811D03*
X0348000Y0232811D03*
X0358000Y0232811D03*
X0368000Y0232811D03*
X0368000Y0242811D03*
X0358000Y0242811D03*
X0348000Y0242811D03*
X0338000Y0242811D03*
X0328000Y0242811D03*
X0328000Y0252811D03*
X0338000Y0252811D03*
X0348000Y0252811D03*
X0358000Y0252811D03*
X0368000Y0252811D03*
X0368000Y0262811D03*
X0358000Y0262811D03*
X0348000Y0262811D03*
X0338000Y0262811D03*
X0328000Y0262811D03*
X0328000Y0272811D03*
X0338000Y0272811D03*
X0348000Y0272811D03*
X0358000Y0272811D03*
X0368000Y0272811D03*
X0368000Y0282811D03*
X0358000Y0282811D03*
X0348000Y0282811D03*
X0338000Y0282811D03*
X0328000Y0282811D03*
X0328000Y0292811D03*
X0338000Y0292811D03*
X0348000Y0292811D03*
X0358000Y0292811D03*
X0368000Y0292811D03*
X0368000Y0302811D03*
X0358000Y0302811D03*
X0348000Y0302811D03*
X0338000Y0302811D03*
X0328000Y0302811D03*
X0328000Y0312811D03*
X0338000Y0312811D03*
X0348000Y0312811D03*
X0358000Y0312811D03*
X0368000Y0312811D03*
X0368000Y0322811D03*
X0358000Y0322811D03*
X0348000Y0322811D03*
X0338000Y0322811D03*
X0328000Y0322811D03*
X0303000Y0317811D03*
X0303000Y0307811D03*
X0293000Y0307811D03*
X0293000Y0317811D03*
X0293000Y0297811D03*
X0303000Y0297811D03*
X0303000Y0287811D03*
X0293000Y0287811D03*
X0293000Y0277811D03*
X0303000Y0277811D03*
X0303000Y0257811D03*
X0293000Y0257811D03*
X0293000Y0247811D03*
X0303000Y0247811D03*
X0303000Y0237811D03*
X0293000Y0237811D03*
X0293000Y0227811D03*
X0303000Y0227811D03*
X0303000Y0217811D03*
X0293000Y0217811D03*
X0293000Y0197811D03*
X0303000Y0197811D03*
X0303000Y0187811D03*
X0293000Y0187811D03*
X0293000Y0177811D03*
X0303000Y0177811D03*
X0303000Y0167811D03*
X0303000Y0157811D03*
X0293000Y0157811D03*
X0293000Y0167811D03*
X0328000Y0122811D03*
X0338000Y0122811D03*
X0348000Y0122811D03*
X0358000Y0122811D03*
X0368000Y0122811D03*
X0368000Y0112811D03*
X0358000Y0112811D03*
X0348000Y0112811D03*
X0338000Y0112811D03*
X0328000Y0112811D03*
X0328000Y0102811D03*
X0338000Y0102811D03*
X0348000Y0102811D03*
X0358000Y0102811D03*
X0368000Y0102811D03*
X0368000Y0092811D03*
X0368000Y0082811D03*
X0358000Y0082811D03*
X0348000Y0082811D03*
X0338000Y0082811D03*
X0328000Y0082811D03*
X0328000Y0092811D03*
X0338000Y0092811D03*
X0348000Y0092811D03*
X0358000Y0092811D03*
X0358000Y0072811D03*
X0348000Y0072811D03*
X0338000Y0072811D03*
X0328000Y0072811D03*
X0328000Y0062811D03*
X0338000Y0062811D03*
X0348000Y0062811D03*
X0358000Y0062811D03*
X0368000Y0062811D03*
X0368000Y0052811D03*
X0358000Y0052811D03*
X0348000Y0052811D03*
X0338000Y0052811D03*
X0328000Y0052811D03*
X0328000Y0042811D03*
X0328000Y0032811D03*
X0338000Y0032811D03*
X0348000Y0032811D03*
X0358000Y0032811D03*
X0368000Y0032811D03*
X0368000Y0042811D03*
X0358000Y0042811D03*
X0348000Y0042811D03*
X0338000Y0042811D03*
X0303000Y0037811D03*
X0293000Y0037811D03*
X0293000Y0047811D03*
X0303000Y0047811D03*
X0303000Y0057811D03*
X0293000Y0057811D03*
X0293000Y0067811D03*
X0303000Y0067811D03*
X0303000Y0077811D03*
X0293000Y0077811D03*
X0293000Y0097811D03*
X0303000Y0097811D03*
X0368000Y0072811D03*
X0398000Y0072811D03*
X0408000Y0072811D03*
X0418000Y0072811D03*
X0428000Y0072811D03*
X0438000Y0072811D03*
X0438000Y0062811D03*
X0428000Y0062811D03*
X0418000Y0062811D03*
X0408000Y0062811D03*
X0398000Y0062811D03*
X0398000Y0052811D03*
X0408000Y0052811D03*
X0418000Y0052811D03*
X0428000Y0052811D03*
X0438000Y0052811D03*
X0438000Y0042811D03*
X0438000Y0032811D03*
X0428000Y0032811D03*
X0418000Y0032811D03*
X0408000Y0032811D03*
X0398000Y0032811D03*
X0398000Y0042811D03*
X0408000Y0042811D03*
X0418000Y0042811D03*
X0428000Y0042811D03*
X0463000Y0037811D03*
X0473000Y0037811D03*
X0473000Y0047811D03*
X0463000Y0047811D03*
X0463000Y0057811D03*
X0473000Y0057811D03*
X0473000Y0067811D03*
X0463000Y0067811D03*
X0463000Y0077811D03*
X0473000Y0077811D03*
X0473000Y0097811D03*
X0463000Y0097811D03*
X0463000Y0107811D03*
X0473000Y0107811D03*
X0473000Y0117811D03*
X0463000Y0117811D03*
X0463000Y0127811D03*
X0473000Y0127811D03*
X0473000Y0137811D03*
X0463000Y0137811D03*
X0438000Y0132811D03*
X0428000Y0132811D03*
X0418000Y0132811D03*
X0408000Y0132811D03*
X0398000Y0132811D03*
X0398000Y0142811D03*
X0408000Y0142811D03*
X0418000Y0142811D03*
X0428000Y0142811D03*
X0438000Y0142811D03*
X0438000Y0152811D03*
X0428000Y0152811D03*
X0418000Y0152811D03*
X0408000Y0152811D03*
X0398000Y0152811D03*
X0398000Y0162811D03*
X0408000Y0162811D03*
X0418000Y0162811D03*
X0428000Y0162811D03*
X0438000Y0162811D03*
X0438000Y0172811D03*
X0428000Y0172811D03*
X0418000Y0172811D03*
X0408000Y0172811D03*
X0398000Y0172811D03*
X0398000Y0182811D03*
X0408000Y0182811D03*
X0418000Y0182811D03*
X0428000Y0182811D03*
X0438000Y0182811D03*
X0438000Y0192811D03*
X0428000Y0192811D03*
X0418000Y0192811D03*
X0408000Y0192811D03*
X0398000Y0192811D03*
X0398000Y0202811D03*
X0408000Y0202811D03*
X0418000Y0202811D03*
X0428000Y0202811D03*
X0438000Y0202811D03*
X0438000Y0212811D03*
X0428000Y0212811D03*
X0418000Y0212811D03*
X0408000Y0212811D03*
X0398000Y0212811D03*
X0398000Y0222811D03*
X0408000Y0222811D03*
X0418000Y0222811D03*
X0428000Y0222811D03*
X0438000Y0222811D03*
X0438000Y0232811D03*
X0428000Y0232811D03*
X0418000Y0232811D03*
X0408000Y0232811D03*
X0398000Y0232811D03*
X0398000Y0242811D03*
X0408000Y0242811D03*
X0418000Y0242811D03*
X0428000Y0242811D03*
X0438000Y0242811D03*
X0438000Y0252811D03*
X0428000Y0252811D03*
X0418000Y0252811D03*
X0408000Y0252811D03*
X0398000Y0252811D03*
X0398000Y0262811D03*
X0408000Y0262811D03*
X0418000Y0262811D03*
X0428000Y0262811D03*
X0438000Y0262811D03*
X0438000Y0272811D03*
X0428000Y0272811D03*
X0418000Y0272811D03*
X0408000Y0272811D03*
X0398000Y0272811D03*
X0398000Y0282811D03*
X0408000Y0282811D03*
X0418000Y0282811D03*
X0428000Y0282811D03*
X0438000Y0282811D03*
X0438000Y0292811D03*
X0428000Y0292811D03*
X0418000Y0292811D03*
X0408000Y0292811D03*
X0398000Y0292811D03*
X0398000Y0302811D03*
X0408000Y0302811D03*
X0418000Y0302811D03*
X0428000Y0302811D03*
X0438000Y0302811D03*
X0438000Y0312811D03*
X0428000Y0312811D03*
X0418000Y0312811D03*
X0408000Y0312811D03*
X0398000Y0312811D03*
X0398000Y0322811D03*
X0408000Y0322811D03*
X0418000Y0322811D03*
X0428000Y0322811D03*
X0438000Y0322811D03*
X0463000Y0317811D03*
X0463000Y0307811D03*
X0473000Y0307811D03*
X0473000Y0317811D03*
X0473000Y0297811D03*
X0463000Y0297811D03*
X0463000Y0287811D03*
X0473000Y0287811D03*
X0473000Y0277811D03*
X0463000Y0277811D03*
X0463000Y0257811D03*
X0473000Y0257811D03*
X0473000Y0247811D03*
X0463000Y0247811D03*
X0463000Y0237811D03*
X0473000Y0237811D03*
X0473000Y0227811D03*
X0463000Y0227811D03*
X0463000Y0217811D03*
X0473000Y0217811D03*
X0473000Y0197811D03*
X0463000Y0197811D03*
X0463000Y0187811D03*
X0473000Y0187811D03*
X0473000Y0177811D03*
X0463000Y0177811D03*
X0463000Y0167811D03*
X0463000Y0157811D03*
X0473000Y0157811D03*
X0473000Y0167811D03*
X0438000Y0122811D03*
X0428000Y0122811D03*
X0418000Y0122811D03*
X0408000Y0122811D03*
X0398000Y0122811D03*
X0398000Y0112811D03*
X0408000Y0112811D03*
X0418000Y0112811D03*
X0428000Y0112811D03*
X0438000Y0112811D03*
X0438000Y0102811D03*
X0428000Y0102811D03*
X0418000Y0102811D03*
X0408000Y0102811D03*
X0398000Y0102811D03*
X0398000Y0092811D03*
X0398000Y0082811D03*
X0408000Y0082811D03*
X0418000Y0082811D03*
X0428000Y0082811D03*
X0438000Y0082811D03*
X0438000Y0092811D03*
X0428000Y0092811D03*
X0418000Y0092811D03*
X0408000Y0092811D03*
M02*
