G75*
%MOIN*%
%OFA0B0*%
%FSLAX25Y25*%
%IPPOS*%
%LPD*%
%AMOC8*
5,1,8,0,0,1.08239X$1,22.5*
%
%ADD10C,0.12211*%
%ADD11C,0.03550*%
%ADD12C,0.03587*%
%ADD13C,0.06100*%
%ADD14C,0.03600*%
%ADD15C,0.03943*%
%ADD16C,0.07900*%
D10*
X0058000Y0092811D03*
X0168000Y0092811D03*
X0228000Y0292811D03*
X0038000Y0297811D03*
X0503000Y0342811D03*
X0503000Y0012811D03*
D11*
X0254000Y0032811D03*
X0254000Y0037811D03*
X0254000Y0042811D03*
X0254000Y0047811D03*
X0254000Y0052811D03*
X0231000Y0093811D03*
X0226000Y0093811D03*
X0221000Y0093811D03*
X0216000Y0093811D03*
X0211000Y0093811D03*
X0254000Y0167811D03*
X0254000Y0172811D03*
X0254000Y0177811D03*
X0254000Y0182811D03*
X0254000Y0187811D03*
X0254000Y0302811D03*
X0254000Y0307811D03*
X0254000Y0312811D03*
X0254000Y0317811D03*
X0254000Y0322811D03*
X0032000Y0093811D03*
X0027000Y0093811D03*
X0022000Y0093811D03*
D12*
X0163451Y0340703D02*
X0163451Y0344997D01*
X0164989Y0344997D01*
X0164989Y0340703D01*
X0163451Y0340703D01*
X0163451Y0344289D02*
X0164989Y0344289D01*
X0192549Y0344919D02*
X0192549Y0340625D01*
X0191011Y0340625D01*
X0191011Y0344919D01*
X0192549Y0344919D01*
X0192549Y0344211D02*
X0191011Y0344211D01*
D13*
X0187843Y0332181D03*
X0168157Y0332181D03*
D14*
X0168157Y0332181D03*
X0187843Y0332181D03*
D15*
X0079906Y0339311D03*
X0068094Y0339311D03*
D16*
X0293000Y0317811D03*
X0293000Y0307811D03*
X0303000Y0307811D03*
X0303000Y0317811D03*
X0303000Y0297811D03*
X0293000Y0297811D03*
X0293000Y0287811D03*
X0303000Y0287811D03*
X0303000Y0277811D03*
X0293000Y0277811D03*
X0293000Y0257811D03*
X0303000Y0257811D03*
X0303000Y0247811D03*
X0293000Y0247811D03*
X0293000Y0237811D03*
X0303000Y0237811D03*
X0303000Y0227811D03*
X0293000Y0227811D03*
X0293000Y0217811D03*
X0303000Y0217811D03*
X0303000Y0197811D03*
X0293000Y0197811D03*
X0293000Y0187811D03*
X0303000Y0187811D03*
X0303000Y0177811D03*
X0293000Y0177811D03*
X0293000Y0167811D03*
X0293000Y0157811D03*
X0303000Y0157811D03*
X0303000Y0167811D03*
X0328000Y0162811D03*
X0338000Y0162811D03*
X0348000Y0162811D03*
X0358000Y0162811D03*
X0368000Y0162811D03*
X0368000Y0152811D03*
X0358000Y0152811D03*
X0348000Y0152811D03*
X0338000Y0152811D03*
X0328000Y0152811D03*
X0328000Y0142811D03*
X0328000Y0132811D03*
X0338000Y0132811D03*
X0348000Y0132811D03*
X0358000Y0132811D03*
X0368000Y0132811D03*
X0368000Y0142811D03*
X0358000Y0142811D03*
X0348000Y0142811D03*
X0338000Y0142811D03*
X0338000Y0122811D03*
X0328000Y0122811D03*
X0328000Y0112811D03*
X0338000Y0112811D03*
X0348000Y0112811D03*
X0358000Y0112811D03*
X0368000Y0112811D03*
X0368000Y0102811D03*
X0358000Y0102811D03*
X0348000Y0102811D03*
X0338000Y0102811D03*
X0328000Y0102811D03*
X0328000Y0092811D03*
X0328000Y0082811D03*
X0338000Y0082811D03*
X0348000Y0082811D03*
X0358000Y0082811D03*
X0368000Y0082811D03*
X0368000Y0092811D03*
X0358000Y0092811D03*
X0348000Y0092811D03*
X0338000Y0092811D03*
X0338000Y0072811D03*
X0328000Y0072811D03*
X0328000Y0062811D03*
X0338000Y0062811D03*
X0348000Y0062811D03*
X0358000Y0062811D03*
X0368000Y0062811D03*
X0368000Y0052811D03*
X0358000Y0052811D03*
X0348000Y0052811D03*
X0338000Y0052811D03*
X0328000Y0052811D03*
X0328000Y0042811D03*
X0328000Y0032811D03*
X0338000Y0032811D03*
X0348000Y0032811D03*
X0358000Y0032811D03*
X0368000Y0032811D03*
X0368000Y0042811D03*
X0358000Y0042811D03*
X0348000Y0042811D03*
X0338000Y0042811D03*
X0303000Y0037811D03*
X0293000Y0037811D03*
X0293000Y0047811D03*
X0303000Y0047811D03*
X0303000Y0057811D03*
X0293000Y0057811D03*
X0293000Y0067811D03*
X0303000Y0067811D03*
X0303000Y0077811D03*
X0293000Y0077811D03*
X0293000Y0097811D03*
X0303000Y0097811D03*
X0303000Y0107811D03*
X0293000Y0107811D03*
X0293000Y0117811D03*
X0303000Y0117811D03*
X0303000Y0127811D03*
X0293000Y0127811D03*
X0293000Y0137811D03*
X0303000Y0137811D03*
X0348000Y0122811D03*
X0358000Y0122811D03*
X0368000Y0122811D03*
X0398000Y0122811D03*
X0408000Y0122811D03*
X0418000Y0122811D03*
X0428000Y0122811D03*
X0438000Y0122811D03*
X0438000Y0112811D03*
X0428000Y0112811D03*
X0418000Y0112811D03*
X0408000Y0112811D03*
X0398000Y0112811D03*
X0398000Y0102811D03*
X0408000Y0102811D03*
X0418000Y0102811D03*
X0428000Y0102811D03*
X0438000Y0102811D03*
X0438000Y0092811D03*
X0438000Y0082811D03*
X0428000Y0082811D03*
X0418000Y0082811D03*
X0408000Y0082811D03*
X0398000Y0082811D03*
X0398000Y0092811D03*
X0408000Y0092811D03*
X0418000Y0092811D03*
X0428000Y0092811D03*
X0428000Y0072811D03*
X0418000Y0072811D03*
X0408000Y0072811D03*
X0398000Y0072811D03*
X0398000Y0062811D03*
X0408000Y0062811D03*
X0418000Y0062811D03*
X0428000Y0062811D03*
X0438000Y0062811D03*
X0438000Y0052811D03*
X0428000Y0052811D03*
X0418000Y0052811D03*
X0408000Y0052811D03*
X0398000Y0052811D03*
X0398000Y0042811D03*
X0398000Y0032811D03*
X0408000Y0032811D03*
X0418000Y0032811D03*
X0428000Y0032811D03*
X0438000Y0032811D03*
X0438000Y0042811D03*
X0428000Y0042811D03*
X0418000Y0042811D03*
X0408000Y0042811D03*
X0438000Y0072811D03*
X0463000Y0067811D03*
X0463000Y0057811D03*
X0473000Y0057811D03*
X0473000Y0067811D03*
X0473000Y0077811D03*
X0463000Y0077811D03*
X0463000Y0097811D03*
X0473000Y0097811D03*
X0473000Y0107811D03*
X0463000Y0107811D03*
X0463000Y0117811D03*
X0473000Y0117811D03*
X0473000Y0127811D03*
X0463000Y0127811D03*
X0463000Y0137811D03*
X0473000Y0137811D03*
X0473000Y0157811D03*
X0463000Y0157811D03*
X0463000Y0167811D03*
X0473000Y0167811D03*
X0473000Y0177811D03*
X0463000Y0177811D03*
X0463000Y0187811D03*
X0473000Y0187811D03*
X0473000Y0197811D03*
X0463000Y0197811D03*
X0463000Y0217811D03*
X0473000Y0217811D03*
X0473000Y0227811D03*
X0463000Y0227811D03*
X0463000Y0237811D03*
X0473000Y0237811D03*
X0473000Y0247811D03*
X0463000Y0247811D03*
X0463000Y0257811D03*
X0473000Y0257811D03*
X0473000Y0277811D03*
X0463000Y0277811D03*
X0463000Y0287811D03*
X0473000Y0287811D03*
X0473000Y0297811D03*
X0463000Y0297811D03*
X0463000Y0307811D03*
X0473000Y0307811D03*
X0473000Y0317811D03*
X0463000Y0317811D03*
X0438000Y0312811D03*
X0428000Y0312811D03*
X0418000Y0312811D03*
X0408000Y0312811D03*
X0398000Y0312811D03*
X0398000Y0302811D03*
X0408000Y0302811D03*
X0418000Y0302811D03*
X0428000Y0302811D03*
X0438000Y0302811D03*
X0438000Y0292811D03*
X0438000Y0282811D03*
X0428000Y0282811D03*
X0418000Y0282811D03*
X0408000Y0282811D03*
X0398000Y0282811D03*
X0398000Y0292811D03*
X0408000Y0292811D03*
X0418000Y0292811D03*
X0428000Y0292811D03*
X0428000Y0272811D03*
X0418000Y0272811D03*
X0408000Y0272811D03*
X0398000Y0272811D03*
X0398000Y0262811D03*
X0408000Y0262811D03*
X0418000Y0262811D03*
X0428000Y0262811D03*
X0438000Y0262811D03*
X0438000Y0252811D03*
X0428000Y0252811D03*
X0418000Y0252811D03*
X0408000Y0252811D03*
X0398000Y0252811D03*
X0398000Y0242811D03*
X0398000Y0232811D03*
X0408000Y0232811D03*
X0418000Y0232811D03*
X0428000Y0232811D03*
X0438000Y0232811D03*
X0438000Y0242811D03*
X0428000Y0242811D03*
X0418000Y0242811D03*
X0408000Y0242811D03*
X0408000Y0222811D03*
X0398000Y0222811D03*
X0398000Y0212811D03*
X0408000Y0212811D03*
X0418000Y0212811D03*
X0428000Y0212811D03*
X0438000Y0212811D03*
X0438000Y0202811D03*
X0428000Y0202811D03*
X0418000Y0202811D03*
X0408000Y0202811D03*
X0398000Y0202811D03*
X0398000Y0192811D03*
X0398000Y0182811D03*
X0408000Y0182811D03*
X0418000Y0182811D03*
X0428000Y0182811D03*
X0438000Y0182811D03*
X0438000Y0192811D03*
X0428000Y0192811D03*
X0418000Y0192811D03*
X0408000Y0192811D03*
X0408000Y0172811D03*
X0398000Y0172811D03*
X0398000Y0162811D03*
X0408000Y0162811D03*
X0418000Y0162811D03*
X0428000Y0162811D03*
X0438000Y0162811D03*
X0438000Y0152811D03*
X0428000Y0152811D03*
X0418000Y0152811D03*
X0408000Y0152811D03*
X0398000Y0152811D03*
X0398000Y0142811D03*
X0398000Y0132811D03*
X0408000Y0132811D03*
X0418000Y0132811D03*
X0428000Y0132811D03*
X0438000Y0132811D03*
X0438000Y0142811D03*
X0428000Y0142811D03*
X0418000Y0142811D03*
X0408000Y0142811D03*
X0418000Y0172811D03*
X0428000Y0172811D03*
X0438000Y0172811D03*
X0368000Y0172811D03*
X0358000Y0172811D03*
X0348000Y0172811D03*
X0338000Y0172811D03*
X0328000Y0172811D03*
X0328000Y0182811D03*
X0338000Y0182811D03*
X0348000Y0182811D03*
X0358000Y0182811D03*
X0368000Y0182811D03*
X0368000Y0192811D03*
X0358000Y0192811D03*
X0348000Y0192811D03*
X0338000Y0192811D03*
X0328000Y0192811D03*
X0328000Y0202811D03*
X0338000Y0202811D03*
X0348000Y0202811D03*
X0358000Y0202811D03*
X0368000Y0202811D03*
X0368000Y0212811D03*
X0358000Y0212811D03*
X0348000Y0212811D03*
X0338000Y0212811D03*
X0328000Y0212811D03*
X0328000Y0222811D03*
X0338000Y0222811D03*
X0348000Y0222811D03*
X0358000Y0222811D03*
X0368000Y0222811D03*
X0368000Y0232811D03*
X0358000Y0232811D03*
X0348000Y0232811D03*
X0338000Y0232811D03*
X0328000Y0232811D03*
X0328000Y0242811D03*
X0338000Y0242811D03*
X0348000Y0242811D03*
X0358000Y0242811D03*
X0368000Y0242811D03*
X0368000Y0252811D03*
X0358000Y0252811D03*
X0348000Y0252811D03*
X0338000Y0252811D03*
X0328000Y0252811D03*
X0328000Y0262811D03*
X0338000Y0262811D03*
X0348000Y0262811D03*
X0358000Y0262811D03*
X0368000Y0262811D03*
X0368000Y0272811D03*
X0358000Y0272811D03*
X0348000Y0272811D03*
X0338000Y0272811D03*
X0328000Y0272811D03*
X0328000Y0282811D03*
X0338000Y0282811D03*
X0348000Y0282811D03*
X0358000Y0282811D03*
X0368000Y0282811D03*
X0368000Y0292811D03*
X0358000Y0292811D03*
X0348000Y0292811D03*
X0338000Y0292811D03*
X0328000Y0292811D03*
X0328000Y0302811D03*
X0338000Y0302811D03*
X0348000Y0302811D03*
X0358000Y0302811D03*
X0368000Y0302811D03*
X0368000Y0312811D03*
X0358000Y0312811D03*
X0348000Y0312811D03*
X0338000Y0312811D03*
X0328000Y0312811D03*
X0328000Y0322811D03*
X0338000Y0322811D03*
X0348000Y0322811D03*
X0358000Y0322811D03*
X0368000Y0322811D03*
X0398000Y0322811D03*
X0408000Y0322811D03*
X0418000Y0322811D03*
X0428000Y0322811D03*
X0438000Y0322811D03*
X0438000Y0272811D03*
X0438000Y0222811D03*
X0428000Y0222811D03*
X0418000Y0222811D03*
X0368000Y0072811D03*
X0358000Y0072811D03*
X0348000Y0072811D03*
X0463000Y0047811D03*
X0473000Y0047811D03*
X0473000Y0037811D03*
X0463000Y0037811D03*
M02*
