G75*
%MOIN*%
%OFA0B0*%
%FSLAX25Y25*%
%IPPOS*%
%LPD*%
%AMOC8*
5,1,8,0,0,1.08239X$1,22.5*
%
%ADD10C,0.12211*%
%ADD11C,0.03550*%
%ADD12C,0.03587*%
%ADD13C,0.06100*%
%ADD14C,0.03600*%
%ADD15C,0.03943*%
%ADD16C,0.07900*%
D10*
X0062500Y0102500D03*
X0172500Y0102500D03*
X0232500Y0302500D03*
X0042500Y0307500D03*
X0507500Y0352500D03*
X0507500Y0022500D03*
D11*
X0021500Y0103500D03*
X0028500Y0103500D03*
X0035500Y0103500D03*
X0042500Y0103500D03*
X0195500Y0103500D03*
X0201500Y0103500D03*
X0207500Y0103500D03*
X0213500Y0103500D03*
X0219500Y0103500D03*
X0225500Y0103500D03*
X0231500Y0103500D03*
X0237500Y0103500D03*
X0243500Y0103500D03*
X0249500Y0103500D03*
X0260500Y0120500D03*
X0260500Y0126500D03*
X0260500Y0132500D03*
X0260500Y0138500D03*
X0260500Y0144500D03*
X0260500Y0150500D03*
X0260500Y0156500D03*
X0260500Y0218500D03*
X0260500Y0224500D03*
X0260500Y0230500D03*
X0260500Y0236500D03*
X0260500Y0242500D03*
X0260500Y0248500D03*
X0260500Y0254500D03*
X0260500Y0316500D03*
X0260500Y0322500D03*
X0260500Y0328500D03*
X0260500Y0334500D03*
X0260500Y0340500D03*
X0260500Y0346500D03*
X0260500Y0352500D03*
X0260500Y0058500D03*
X0260500Y0052500D03*
X0260500Y0046500D03*
X0260500Y0040500D03*
X0260500Y0034500D03*
X0260500Y0028500D03*
X0260500Y0022500D03*
D12*
X0197049Y0350314D02*
X0197049Y0354608D01*
X0197049Y0350314D02*
X0195511Y0350314D01*
X0195511Y0354608D01*
X0197049Y0354608D01*
X0197049Y0353900D02*
X0195511Y0353900D01*
X0167951Y0354686D02*
X0167951Y0350392D01*
X0167951Y0354686D02*
X0169489Y0354686D01*
X0169489Y0350392D01*
X0167951Y0350392D01*
X0167951Y0353978D02*
X0169489Y0353978D01*
D13*
X0172657Y0341870D03*
X0192343Y0341870D03*
D14*
X0192343Y0341870D03*
X0172657Y0341870D03*
D15*
X0084406Y0349000D03*
X0072594Y0349000D03*
D16*
X0297500Y0327500D03*
X0307500Y0327500D03*
X0307500Y0317500D03*
X0307500Y0307500D03*
X0297500Y0307500D03*
X0297500Y0317500D03*
X0297500Y0297500D03*
X0307500Y0297500D03*
X0307500Y0287500D03*
X0297500Y0287500D03*
X0297500Y0267500D03*
X0297500Y0257500D03*
X0307500Y0257500D03*
X0307500Y0267500D03*
X0332500Y0262500D03*
X0342500Y0262500D03*
X0352500Y0262500D03*
X0362500Y0262500D03*
X0372500Y0262500D03*
X0372500Y0252500D03*
X0372500Y0242500D03*
X0362500Y0242500D03*
X0362500Y0252500D03*
X0352500Y0252500D03*
X0352500Y0242500D03*
X0342500Y0242500D03*
X0342500Y0252500D03*
X0332500Y0252500D03*
X0332500Y0242500D03*
X0332500Y0232500D03*
X0342500Y0232500D03*
X0352500Y0232500D03*
X0362500Y0232500D03*
X0372500Y0232500D03*
X0372500Y0222500D03*
X0372500Y0212500D03*
X0362500Y0212500D03*
X0362500Y0222500D03*
X0352500Y0222500D03*
X0352500Y0212500D03*
X0342500Y0212500D03*
X0342500Y0222500D03*
X0332500Y0222500D03*
X0332500Y0212500D03*
X0332500Y0202500D03*
X0342500Y0202500D03*
X0352500Y0202500D03*
X0362500Y0202500D03*
X0372500Y0202500D03*
X0372500Y0192500D03*
X0372500Y0182500D03*
X0362500Y0182500D03*
X0362500Y0192500D03*
X0352500Y0192500D03*
X0352500Y0182500D03*
X0342500Y0182500D03*
X0342500Y0192500D03*
X0332500Y0192500D03*
X0332500Y0182500D03*
X0332500Y0172500D03*
X0342500Y0172500D03*
X0352500Y0172500D03*
X0362500Y0172500D03*
X0372500Y0172500D03*
X0372500Y0162500D03*
X0372500Y0152500D03*
X0362500Y0152500D03*
X0362500Y0162500D03*
X0352500Y0162500D03*
X0352500Y0152500D03*
X0342500Y0152500D03*
X0342500Y0162500D03*
X0332500Y0162500D03*
X0332500Y0152500D03*
X0332500Y0142500D03*
X0332500Y0132500D03*
X0342500Y0132500D03*
X0342500Y0142500D03*
X0352500Y0142500D03*
X0352500Y0132500D03*
X0362500Y0132500D03*
X0362500Y0142500D03*
X0372500Y0142500D03*
X0372500Y0132500D03*
X0372500Y0122500D03*
X0362500Y0122500D03*
X0352500Y0122500D03*
X0342500Y0122500D03*
X0332500Y0122500D03*
X0332500Y0112500D03*
X0332500Y0102500D03*
X0342500Y0102500D03*
X0342500Y0112500D03*
X0352500Y0112500D03*
X0352500Y0102500D03*
X0362500Y0102500D03*
X0362500Y0112500D03*
X0372500Y0112500D03*
X0372500Y0102500D03*
X0372500Y0092500D03*
X0362500Y0092500D03*
X0352500Y0092500D03*
X0342500Y0092500D03*
X0332500Y0092500D03*
X0332500Y0082500D03*
X0332500Y0072500D03*
X0342500Y0072500D03*
X0342500Y0082500D03*
X0352500Y0082500D03*
X0352500Y0072500D03*
X0362500Y0072500D03*
X0362500Y0082500D03*
X0372500Y0082500D03*
X0372500Y0072500D03*
X0372500Y0062500D03*
X0362500Y0062500D03*
X0352500Y0062500D03*
X0342500Y0062500D03*
X0332500Y0062500D03*
X0332500Y0052500D03*
X0332500Y0042500D03*
X0342500Y0042500D03*
X0342500Y0052500D03*
X0352500Y0052500D03*
X0352500Y0042500D03*
X0362500Y0042500D03*
X0362500Y0052500D03*
X0372500Y0052500D03*
X0372500Y0042500D03*
X0402500Y0042500D03*
X0402500Y0052500D03*
X0412500Y0052500D03*
X0412500Y0042500D03*
X0422500Y0042500D03*
X0422500Y0052500D03*
X0432500Y0052500D03*
X0432500Y0042500D03*
X0442500Y0042500D03*
X0442500Y0052500D03*
X0442500Y0062500D03*
X0432500Y0062500D03*
X0422500Y0062500D03*
X0412500Y0062500D03*
X0402500Y0062500D03*
X0402500Y0072500D03*
X0402500Y0082500D03*
X0412500Y0082500D03*
X0412500Y0072500D03*
X0422500Y0072500D03*
X0422500Y0082500D03*
X0432500Y0082500D03*
X0432500Y0072500D03*
X0442500Y0072500D03*
X0442500Y0082500D03*
X0442500Y0092500D03*
X0432500Y0092500D03*
X0422500Y0092500D03*
X0412500Y0092500D03*
X0402500Y0092500D03*
X0402500Y0102500D03*
X0402500Y0112500D03*
X0412500Y0112500D03*
X0412500Y0102500D03*
X0422500Y0102500D03*
X0422500Y0112500D03*
X0432500Y0112500D03*
X0432500Y0102500D03*
X0442500Y0102500D03*
X0442500Y0112500D03*
X0442500Y0122500D03*
X0432500Y0122500D03*
X0422500Y0122500D03*
X0412500Y0122500D03*
X0402500Y0122500D03*
X0402500Y0132500D03*
X0402500Y0142500D03*
X0412500Y0142500D03*
X0412500Y0132500D03*
X0422500Y0132500D03*
X0422500Y0142500D03*
X0432500Y0142500D03*
X0432500Y0132500D03*
X0442500Y0132500D03*
X0442500Y0142500D03*
X0442500Y0152500D03*
X0442500Y0162500D03*
X0432500Y0162500D03*
X0432500Y0152500D03*
X0422500Y0152500D03*
X0422500Y0162500D03*
X0412500Y0162500D03*
X0412500Y0152500D03*
X0402500Y0152500D03*
X0402500Y0162500D03*
X0402500Y0172500D03*
X0412500Y0172500D03*
X0422500Y0172500D03*
X0432500Y0172500D03*
X0442500Y0172500D03*
X0442500Y0182500D03*
X0442500Y0192500D03*
X0432500Y0192500D03*
X0432500Y0182500D03*
X0422500Y0182500D03*
X0422500Y0192500D03*
X0412500Y0192500D03*
X0412500Y0182500D03*
X0402500Y0182500D03*
X0402500Y0192500D03*
X0402500Y0202500D03*
X0412500Y0202500D03*
X0422500Y0202500D03*
X0432500Y0202500D03*
X0442500Y0202500D03*
X0442500Y0212500D03*
X0442500Y0222500D03*
X0432500Y0222500D03*
X0432500Y0212500D03*
X0422500Y0212500D03*
X0422500Y0222500D03*
X0412500Y0222500D03*
X0412500Y0212500D03*
X0402500Y0212500D03*
X0402500Y0222500D03*
X0402500Y0232500D03*
X0412500Y0232500D03*
X0422500Y0232500D03*
X0432500Y0232500D03*
X0442500Y0232500D03*
X0442500Y0242500D03*
X0442500Y0252500D03*
X0432500Y0252500D03*
X0432500Y0242500D03*
X0422500Y0242500D03*
X0422500Y0252500D03*
X0412500Y0252500D03*
X0412500Y0242500D03*
X0402500Y0242500D03*
X0402500Y0252500D03*
X0402500Y0262500D03*
X0412500Y0262500D03*
X0422500Y0262500D03*
X0432500Y0262500D03*
X0442500Y0262500D03*
X0442500Y0272500D03*
X0442500Y0282500D03*
X0432500Y0282500D03*
X0432500Y0272500D03*
X0422500Y0272500D03*
X0422500Y0282500D03*
X0412500Y0282500D03*
X0412500Y0272500D03*
X0402500Y0272500D03*
X0402500Y0282500D03*
X0402500Y0292500D03*
X0402500Y0302500D03*
X0412500Y0302500D03*
X0412500Y0292500D03*
X0422500Y0292500D03*
X0422500Y0302500D03*
X0432500Y0302500D03*
X0432500Y0292500D03*
X0442500Y0292500D03*
X0442500Y0302500D03*
X0442500Y0312500D03*
X0432500Y0312500D03*
X0422500Y0312500D03*
X0412500Y0312500D03*
X0402500Y0312500D03*
X0402500Y0322500D03*
X0402500Y0332500D03*
X0412500Y0332500D03*
X0412500Y0322500D03*
X0422500Y0322500D03*
X0422500Y0332500D03*
X0432500Y0332500D03*
X0432500Y0322500D03*
X0442500Y0322500D03*
X0442500Y0332500D03*
X0467500Y0327500D03*
X0477500Y0327500D03*
X0477500Y0317500D03*
X0477500Y0307500D03*
X0467500Y0307500D03*
X0467500Y0317500D03*
X0467500Y0297500D03*
X0477500Y0297500D03*
X0477500Y0287500D03*
X0467500Y0287500D03*
X0467500Y0267500D03*
X0467500Y0257500D03*
X0477500Y0257500D03*
X0477500Y0267500D03*
X0477500Y0247500D03*
X0467500Y0247500D03*
X0467500Y0237500D03*
X0467500Y0227500D03*
X0477500Y0227500D03*
X0477500Y0237500D03*
X0477500Y0207500D03*
X0477500Y0197500D03*
X0467500Y0197500D03*
X0467500Y0207500D03*
X0467500Y0187500D03*
X0477500Y0187500D03*
X0477500Y0177500D03*
X0477500Y0167500D03*
X0467500Y0167500D03*
X0467500Y0177500D03*
X0467500Y0147500D03*
X0467500Y0137500D03*
X0477500Y0137500D03*
X0477500Y0147500D03*
X0477500Y0127500D03*
X0477500Y0117500D03*
X0467500Y0117500D03*
X0467500Y0127500D03*
X0467500Y0107500D03*
X0477500Y0107500D03*
X0477500Y0087500D03*
X0467500Y0087500D03*
X0467500Y0077500D03*
X0477500Y0077500D03*
X0477500Y0067500D03*
X0477500Y0057500D03*
X0467500Y0057500D03*
X0467500Y0067500D03*
X0467500Y0047500D03*
X0477500Y0047500D03*
X0307500Y0047500D03*
X0297500Y0047500D03*
X0297500Y0057500D03*
X0297500Y0067500D03*
X0307500Y0067500D03*
X0307500Y0057500D03*
X0307500Y0077500D03*
X0297500Y0077500D03*
X0297500Y0087500D03*
X0307500Y0087500D03*
X0307500Y0107500D03*
X0297500Y0107500D03*
X0297500Y0117500D03*
X0297500Y0127500D03*
X0307500Y0127500D03*
X0307500Y0117500D03*
X0307500Y0137500D03*
X0307500Y0147500D03*
X0297500Y0147500D03*
X0297500Y0137500D03*
X0297500Y0167500D03*
X0297500Y0177500D03*
X0307500Y0177500D03*
X0307500Y0167500D03*
X0307500Y0187500D03*
X0297500Y0187500D03*
X0297500Y0197500D03*
X0297500Y0207500D03*
X0307500Y0207500D03*
X0307500Y0197500D03*
X0307500Y0227500D03*
X0307500Y0237500D03*
X0297500Y0237500D03*
X0297500Y0227500D03*
X0297500Y0247500D03*
X0307500Y0247500D03*
X0332500Y0272500D03*
X0332500Y0282500D03*
X0342500Y0282500D03*
X0342500Y0272500D03*
X0352500Y0272500D03*
X0352500Y0282500D03*
X0362500Y0282500D03*
X0362500Y0272500D03*
X0372500Y0272500D03*
X0372500Y0282500D03*
X0372500Y0292500D03*
X0372500Y0302500D03*
X0362500Y0302500D03*
X0362500Y0292500D03*
X0352500Y0292500D03*
X0352500Y0302500D03*
X0342500Y0302500D03*
X0342500Y0292500D03*
X0332500Y0292500D03*
X0332500Y0302500D03*
X0332500Y0312500D03*
X0342500Y0312500D03*
X0352500Y0312500D03*
X0362500Y0312500D03*
X0372500Y0312500D03*
X0372500Y0322500D03*
X0372500Y0332500D03*
X0362500Y0332500D03*
X0362500Y0322500D03*
X0352500Y0322500D03*
X0352500Y0332500D03*
X0342500Y0332500D03*
X0342500Y0322500D03*
X0332500Y0322500D03*
X0332500Y0332500D03*
M02*
