G75*
%MOIN*%
%OFA0B0*%
%FSLAX25Y25*%
%IPPOS*%
%LPD*%
%AMOC8*
5,1,8,0,0,1.08239X$1,22.5*
%
%ADD10C,0.01100*%
%ADD11C,0.02953*%
%ADD12C,0.03937*%
%ADD13C,0.01969*%
%ADD14C,0.01181*%
%ADD15C,0.01575*%
%ADD16C,0.00787*%
%ADD17R,0.05906X0.07480*%
%ADD18R,0.07087X0.07480*%
%ADD19C,0.05700*%
%ADD20C,0.03150*%
%ADD21C,0.01673*%
%ADD22C,0.02559*%
%ADD23C,0.03543*%
%ADD24C,0.01378*%
%ADD25C,0.02520*%
D10*
X0107356Y0166299D02*
X0110112Y0169055D01*
X0107356Y0166299D02*
X0106578Y0167077D01*
X0109334Y0169833D01*
X0110112Y0169055D01*
X0108455Y0167398D02*
X0106899Y0167398D01*
X0107998Y0168497D02*
X0109554Y0168497D01*
X0109571Y0169596D02*
X0109097Y0169596D01*
X0107885Y0171282D02*
X0105129Y0168526D01*
X0104351Y0169304D01*
X0107107Y0172060D01*
X0107885Y0171282D01*
X0106228Y0169625D02*
X0104672Y0169625D01*
X0105771Y0170724D02*
X0107327Y0170724D01*
X0107344Y0171823D02*
X0106870Y0171823D01*
X0105658Y0173509D02*
X0102902Y0170753D01*
X0102124Y0171531D01*
X0104880Y0174287D01*
X0105658Y0173509D01*
X0104001Y0171852D02*
X0102445Y0171852D01*
X0103544Y0172951D02*
X0105100Y0172951D01*
X0105117Y0174050D02*
X0104643Y0174050D01*
X0103430Y0175736D02*
X0100674Y0172980D01*
X0099896Y0173758D01*
X0102652Y0176514D01*
X0103430Y0175736D01*
X0101773Y0174079D02*
X0100217Y0174079D01*
X0101316Y0175178D02*
X0102872Y0175178D01*
X0102889Y0176277D02*
X0102415Y0176277D01*
X0101203Y0177963D02*
X0098447Y0175207D01*
X0097669Y0175985D01*
X0100425Y0178741D01*
X0101203Y0177963D01*
X0099546Y0176306D02*
X0097990Y0176306D01*
X0099089Y0177405D02*
X0100645Y0177405D01*
X0100662Y0178504D02*
X0100188Y0178504D01*
X0098976Y0180191D02*
X0096220Y0177435D01*
X0095442Y0178213D01*
X0098198Y0180969D01*
X0098976Y0180191D01*
X0097319Y0178534D02*
X0095763Y0178534D01*
X0096862Y0179633D02*
X0098418Y0179633D01*
X0098435Y0180732D02*
X0097961Y0180732D01*
X0096749Y0182418D02*
X0093993Y0179662D01*
X0093215Y0180440D01*
X0095971Y0183196D01*
X0096749Y0182418D01*
X0095092Y0180761D02*
X0093536Y0180761D01*
X0094635Y0181860D02*
X0096191Y0181860D01*
X0096208Y0182959D02*
X0095734Y0182959D01*
X0094522Y0184645D02*
X0091766Y0181889D01*
X0090988Y0182667D01*
X0093744Y0185423D01*
X0094522Y0184645D01*
X0092865Y0182988D02*
X0091309Y0182988D01*
X0092408Y0184087D02*
X0093964Y0184087D01*
X0093981Y0185186D02*
X0093507Y0185186D01*
X0093744Y0190199D02*
X0094522Y0190977D01*
X0093744Y0190199D02*
X0090988Y0192955D01*
X0091766Y0193733D01*
X0094522Y0190977D01*
X0094201Y0191298D02*
X0092645Y0191298D01*
X0093102Y0192397D02*
X0091546Y0192397D01*
X0091529Y0193496D02*
X0092003Y0193496D01*
X0095971Y0192426D02*
X0096749Y0193204D01*
X0095971Y0192426D02*
X0093215Y0195182D01*
X0093993Y0195960D01*
X0096749Y0193204D01*
X0096428Y0193525D02*
X0094872Y0193525D01*
X0095329Y0194624D02*
X0093773Y0194624D01*
X0093756Y0195723D02*
X0094230Y0195723D01*
X0098198Y0194653D02*
X0098976Y0195431D01*
X0098198Y0194653D02*
X0095442Y0197409D01*
X0096220Y0198187D01*
X0098976Y0195431D01*
X0098655Y0195752D02*
X0097099Y0195752D01*
X0097556Y0196851D02*
X0096000Y0196851D01*
X0095983Y0197950D02*
X0096457Y0197950D01*
X0100425Y0196881D02*
X0101203Y0197659D01*
X0100425Y0196881D02*
X0097669Y0199637D01*
X0098447Y0200415D01*
X0101203Y0197659D01*
X0100882Y0197980D02*
X0099326Y0197980D01*
X0099783Y0199079D02*
X0098227Y0199079D01*
X0098210Y0200178D02*
X0098684Y0200178D01*
X0102652Y0199108D02*
X0103430Y0199886D01*
X0102652Y0199108D02*
X0099896Y0201864D01*
X0100674Y0202642D01*
X0103430Y0199886D01*
X0103109Y0200207D02*
X0101553Y0200207D01*
X0102010Y0201306D02*
X0100454Y0201306D01*
X0100437Y0202405D02*
X0100911Y0202405D01*
X0104880Y0201335D02*
X0105658Y0202113D01*
X0104880Y0201335D02*
X0102124Y0204091D01*
X0102902Y0204869D01*
X0105658Y0202113D01*
X0105337Y0202434D02*
X0103781Y0202434D01*
X0104238Y0203533D02*
X0102682Y0203533D01*
X0102665Y0204632D02*
X0103139Y0204632D01*
X0107107Y0203562D02*
X0107885Y0204340D01*
X0107107Y0203562D02*
X0104351Y0206318D01*
X0105129Y0207096D01*
X0107885Y0204340D01*
X0107564Y0204661D02*
X0106008Y0204661D01*
X0106465Y0205760D02*
X0104909Y0205760D01*
X0104892Y0206859D02*
X0105366Y0206859D01*
X0109334Y0205789D02*
X0110112Y0206567D01*
X0109334Y0205789D02*
X0106578Y0208545D01*
X0107356Y0209323D01*
X0110112Y0206567D01*
X0109791Y0206888D02*
X0108235Y0206888D01*
X0108692Y0207987D02*
X0107136Y0207987D01*
X0107119Y0209086D02*
X0107593Y0209086D01*
X0115666Y0205789D02*
X0118422Y0208545D01*
X0115666Y0205789D02*
X0114888Y0206567D01*
X0117644Y0209323D01*
X0118422Y0208545D01*
X0116765Y0206888D02*
X0115209Y0206888D01*
X0116308Y0207987D02*
X0117864Y0207987D01*
X0117881Y0209086D02*
X0117407Y0209086D01*
X0120649Y0206318D02*
X0117893Y0203562D01*
X0117115Y0204340D01*
X0119871Y0207096D01*
X0120649Y0206318D01*
X0118992Y0204661D02*
X0117436Y0204661D01*
X0118535Y0205760D02*
X0120091Y0205760D01*
X0120108Y0206859D02*
X0119634Y0206859D01*
X0122876Y0204091D02*
X0120120Y0201335D01*
X0119342Y0202113D01*
X0122098Y0204869D01*
X0122876Y0204091D01*
X0121219Y0202434D02*
X0119663Y0202434D01*
X0120762Y0203533D02*
X0122318Y0203533D01*
X0122335Y0204632D02*
X0121861Y0204632D01*
X0125104Y0201864D02*
X0122348Y0199108D01*
X0121570Y0199886D01*
X0124326Y0202642D01*
X0125104Y0201864D01*
X0123447Y0200207D02*
X0121891Y0200207D01*
X0122990Y0201306D02*
X0124546Y0201306D01*
X0124563Y0202405D02*
X0124089Y0202405D01*
X0127331Y0199637D02*
X0124575Y0196881D01*
X0123797Y0197659D01*
X0126553Y0200415D01*
X0127331Y0199637D01*
X0125674Y0197980D02*
X0124118Y0197980D01*
X0125217Y0199079D02*
X0126773Y0199079D01*
X0126790Y0200178D02*
X0126316Y0200178D01*
X0129558Y0197409D02*
X0126802Y0194653D01*
X0126024Y0195431D01*
X0128780Y0198187D01*
X0129558Y0197409D01*
X0127901Y0195752D02*
X0126345Y0195752D01*
X0127444Y0196851D02*
X0129000Y0196851D01*
X0129017Y0197950D02*
X0128543Y0197950D01*
X0131785Y0195182D02*
X0129029Y0192426D01*
X0128251Y0193204D01*
X0131007Y0195960D01*
X0131785Y0195182D01*
X0130128Y0193525D02*
X0128572Y0193525D01*
X0129671Y0194624D02*
X0131227Y0194624D01*
X0131244Y0195723D02*
X0130770Y0195723D01*
X0134012Y0192955D02*
X0131256Y0190199D01*
X0130478Y0190977D01*
X0133234Y0193733D01*
X0134012Y0192955D01*
X0132355Y0191298D02*
X0130799Y0191298D01*
X0131898Y0192397D02*
X0133454Y0192397D01*
X0133471Y0193496D02*
X0132997Y0193496D01*
X0134012Y0182667D02*
X0133234Y0181889D01*
X0130478Y0184645D01*
X0131256Y0185423D01*
X0134012Y0182667D01*
X0133691Y0182988D02*
X0132135Y0182988D01*
X0132592Y0184087D02*
X0131036Y0184087D01*
X0131019Y0185186D02*
X0131493Y0185186D01*
X0131785Y0180440D02*
X0131007Y0179662D01*
X0128251Y0182418D01*
X0129029Y0183196D01*
X0131785Y0180440D01*
X0131464Y0180761D02*
X0129908Y0180761D01*
X0130365Y0181860D02*
X0128809Y0181860D01*
X0128792Y0182959D02*
X0129266Y0182959D01*
X0129558Y0178213D02*
X0128780Y0177435D01*
X0126024Y0180191D01*
X0126802Y0180969D01*
X0129558Y0178213D01*
X0129237Y0178534D02*
X0127681Y0178534D01*
X0128138Y0179633D02*
X0126582Y0179633D01*
X0126565Y0180732D02*
X0127039Y0180732D01*
X0127331Y0175985D02*
X0126553Y0175207D01*
X0123797Y0177963D01*
X0124575Y0178741D01*
X0127331Y0175985D01*
X0127010Y0176306D02*
X0125454Y0176306D01*
X0125911Y0177405D02*
X0124355Y0177405D01*
X0124338Y0178504D02*
X0124812Y0178504D01*
X0125104Y0173758D02*
X0124326Y0172980D01*
X0121570Y0175736D01*
X0122348Y0176514D01*
X0125104Y0173758D01*
X0124783Y0174079D02*
X0123227Y0174079D01*
X0123684Y0175178D02*
X0122128Y0175178D01*
X0122111Y0176277D02*
X0122585Y0176277D01*
X0122876Y0171531D02*
X0122098Y0170753D01*
X0119342Y0173509D01*
X0120120Y0174287D01*
X0122876Y0171531D01*
X0122555Y0171852D02*
X0120999Y0171852D01*
X0121456Y0172951D02*
X0119900Y0172951D01*
X0119883Y0174050D02*
X0120357Y0174050D01*
X0120649Y0169304D02*
X0119871Y0168526D01*
X0117115Y0171282D01*
X0117893Y0172060D01*
X0120649Y0169304D01*
X0120328Y0169625D02*
X0118772Y0169625D01*
X0119229Y0170724D02*
X0117673Y0170724D01*
X0117656Y0171823D02*
X0118130Y0171823D01*
X0118422Y0167077D02*
X0117644Y0166299D01*
X0114888Y0169055D01*
X0115666Y0169833D01*
X0118422Y0167077D01*
X0118101Y0167398D02*
X0116545Y0167398D01*
X0117002Y0168497D02*
X0115446Y0168497D01*
X0115429Y0169596D02*
X0115903Y0169596D01*
D11*
X0094727Y0164610D02*
X0094031Y0165306D01*
X0095005Y0166280D01*
X0095701Y0165584D01*
X0094727Y0164610D01*
X0089995Y0169342D02*
X0089299Y0170038D01*
X0090273Y0171012D01*
X0090969Y0170316D01*
X0089995Y0169342D01*
X0101662Y0128122D02*
X0102646Y0128122D01*
X0101662Y0128122D02*
X0101662Y0129500D01*
X0102646Y0129500D01*
X0102646Y0128122D01*
X0108354Y0128122D02*
X0109338Y0128122D01*
X0108354Y0128122D02*
X0108354Y0129500D01*
X0109338Y0129500D01*
X0109338Y0128122D01*
X0115662Y0129500D02*
X0116646Y0129500D01*
X0116646Y0128122D01*
X0115662Y0128122D01*
X0115662Y0129500D01*
X0122354Y0129500D02*
X0123338Y0129500D01*
X0123338Y0128122D01*
X0122354Y0128122D01*
X0122354Y0129500D01*
X0152662Y0142122D02*
X0153646Y0142122D01*
X0152662Y0142122D02*
X0152662Y0143500D01*
X0153646Y0143500D01*
X0153646Y0142122D01*
X0159354Y0142122D02*
X0160338Y0142122D01*
X0159354Y0142122D02*
X0159354Y0143500D01*
X0160338Y0143500D01*
X0160338Y0142122D01*
X0167162Y0137122D02*
X0168146Y0137122D01*
X0167162Y0137122D02*
X0167162Y0138500D01*
X0168146Y0138500D01*
X0168146Y0137122D01*
X0173854Y0137122D02*
X0174838Y0137122D01*
X0173854Y0137122D02*
X0173854Y0138500D01*
X0174838Y0138500D01*
X0174838Y0137122D01*
X0181662Y0143500D02*
X0182646Y0143500D01*
X0182646Y0142122D01*
X0181662Y0142122D01*
X0181662Y0143500D01*
X0174838Y0148500D02*
X0173854Y0148500D01*
X0174838Y0148500D02*
X0174838Y0147122D01*
X0173854Y0147122D01*
X0173854Y0148500D01*
X0168146Y0148500D02*
X0167162Y0148500D01*
X0168146Y0148500D02*
X0168146Y0147122D01*
X0167162Y0147122D01*
X0167162Y0148500D01*
X0167162Y0157122D02*
X0168146Y0157122D01*
X0167162Y0157122D02*
X0167162Y0158500D01*
X0168146Y0158500D01*
X0168146Y0157122D01*
X0173854Y0157122D02*
X0174838Y0157122D01*
X0173854Y0157122D02*
X0173854Y0158500D01*
X0174838Y0158500D01*
X0174838Y0157122D01*
X0181662Y0163500D02*
X0182646Y0163500D01*
X0182646Y0162122D01*
X0181662Y0162122D01*
X0181662Y0163500D01*
X0174838Y0168500D02*
X0173854Y0168500D01*
X0174838Y0168500D02*
X0174838Y0167122D01*
X0173854Y0167122D01*
X0173854Y0168500D01*
X0168146Y0168500D02*
X0167162Y0168500D01*
X0168146Y0168500D02*
X0168146Y0167122D01*
X0167162Y0167122D01*
X0167162Y0168500D01*
X0160338Y0162122D02*
X0159354Y0162122D01*
X0159354Y0163500D01*
X0160338Y0163500D01*
X0160338Y0162122D01*
X0153646Y0162122D02*
X0152662Y0162122D01*
X0152662Y0163500D01*
X0153646Y0163500D01*
X0153646Y0162122D01*
X0167162Y0177122D02*
X0168146Y0177122D01*
X0167162Y0177122D02*
X0167162Y0178500D01*
X0168146Y0178500D01*
X0168146Y0177122D01*
X0173854Y0177122D02*
X0174838Y0177122D01*
X0173854Y0177122D02*
X0173854Y0178500D01*
X0174838Y0178500D01*
X0174838Y0177122D01*
X0181662Y0183500D02*
X0182646Y0183500D01*
X0182646Y0182122D01*
X0181662Y0182122D01*
X0181662Y0183500D01*
X0174838Y0188500D02*
X0173854Y0188500D01*
X0174838Y0188500D02*
X0174838Y0187122D01*
X0173854Y0187122D01*
X0173854Y0188500D01*
X0168146Y0188500D02*
X0167162Y0188500D01*
X0168146Y0188500D02*
X0168146Y0187122D01*
X0167162Y0187122D01*
X0167162Y0188500D01*
X0160338Y0182122D02*
X0159354Y0182122D01*
X0159354Y0183500D01*
X0160338Y0183500D01*
X0160338Y0182122D01*
X0153646Y0182122D02*
X0152662Y0182122D01*
X0152662Y0183500D01*
X0153646Y0183500D01*
X0153646Y0182122D01*
X0167162Y0197122D02*
X0168146Y0197122D01*
X0167162Y0197122D02*
X0167162Y0198500D01*
X0168146Y0198500D01*
X0168146Y0197122D01*
X0173854Y0197122D02*
X0174838Y0197122D01*
X0173854Y0197122D02*
X0173854Y0198500D01*
X0174838Y0198500D01*
X0174838Y0197122D01*
X0181662Y0203500D02*
X0182646Y0203500D01*
X0182646Y0202122D01*
X0181662Y0202122D01*
X0181662Y0203500D01*
X0174838Y0208500D02*
X0173854Y0208500D01*
X0174838Y0208500D02*
X0174838Y0207122D01*
X0173854Y0207122D01*
X0173854Y0208500D01*
X0168146Y0208500D02*
X0167162Y0208500D01*
X0168146Y0208500D02*
X0168146Y0207122D01*
X0167162Y0207122D01*
X0167162Y0208500D01*
X0160338Y0202122D02*
X0159354Y0202122D01*
X0159354Y0203500D01*
X0160338Y0203500D01*
X0160338Y0202122D01*
X0153646Y0202122D02*
X0152662Y0202122D01*
X0152662Y0203500D01*
X0153646Y0203500D01*
X0153646Y0202122D01*
X0167162Y0217122D02*
X0168146Y0217122D01*
X0167162Y0217122D02*
X0167162Y0218500D01*
X0168146Y0218500D01*
X0168146Y0217122D01*
X0173854Y0217122D02*
X0174838Y0217122D01*
X0173854Y0217122D02*
X0173854Y0218500D01*
X0174838Y0218500D01*
X0174838Y0217122D01*
X0181662Y0223500D02*
X0182646Y0223500D01*
X0182646Y0222122D01*
X0181662Y0222122D01*
X0181662Y0223500D01*
X0174838Y0228500D02*
X0173854Y0228500D01*
X0174838Y0228500D02*
X0174838Y0227122D01*
X0173854Y0227122D01*
X0173854Y0228500D01*
X0168146Y0228500D02*
X0167162Y0228500D01*
X0168146Y0228500D02*
X0168146Y0227122D01*
X0167162Y0227122D01*
X0167162Y0228500D01*
X0160338Y0222122D02*
X0159354Y0222122D01*
X0159354Y0223500D01*
X0160338Y0223500D01*
X0160338Y0222122D01*
X0153646Y0222122D02*
X0152662Y0222122D01*
X0152662Y0223500D01*
X0153646Y0223500D01*
X0153646Y0222122D01*
X0167162Y0237122D02*
X0168146Y0237122D01*
X0167162Y0237122D02*
X0167162Y0238500D01*
X0168146Y0238500D01*
X0168146Y0237122D01*
X0173854Y0237122D02*
X0174838Y0237122D01*
X0173854Y0237122D02*
X0173854Y0238500D01*
X0174838Y0238500D01*
X0174838Y0237122D01*
X0160338Y0242122D02*
X0159354Y0242122D01*
X0159354Y0243500D01*
X0160338Y0243500D01*
X0160338Y0242122D01*
X0153646Y0242122D02*
X0152662Y0242122D01*
X0152662Y0243500D01*
X0153646Y0243500D01*
X0153646Y0242122D01*
X0177189Y0264973D02*
X0177189Y0265957D01*
X0177189Y0264973D02*
X0175811Y0264973D01*
X0175811Y0265957D01*
X0177189Y0265957D01*
X0183189Y0265957D02*
X0183189Y0264973D01*
X0181811Y0264973D01*
X0181811Y0265957D01*
X0183189Y0265957D01*
X0189189Y0265957D02*
X0189189Y0264973D01*
X0187811Y0264973D01*
X0187811Y0265957D01*
X0189189Y0265957D01*
X0189189Y0271665D02*
X0189189Y0272649D01*
X0189189Y0271665D02*
X0187811Y0271665D01*
X0187811Y0272649D01*
X0189189Y0272649D01*
X0183189Y0272649D02*
X0183189Y0271665D01*
X0181811Y0271665D01*
X0181811Y0272649D01*
X0183189Y0272649D01*
X0177189Y0272649D02*
X0177189Y0271665D01*
X0175811Y0271665D01*
X0175811Y0272649D01*
X0177189Y0272649D01*
X0208662Y0309122D02*
X0209646Y0309122D01*
X0208662Y0309122D02*
X0208662Y0310500D01*
X0209646Y0310500D01*
X0209646Y0309122D01*
X0215354Y0309122D02*
X0216338Y0309122D01*
X0215354Y0309122D02*
X0215354Y0310500D01*
X0216338Y0310500D01*
X0216338Y0309122D01*
X0216338Y0316500D02*
X0215354Y0316500D01*
X0216338Y0316500D02*
X0216338Y0315122D01*
X0215354Y0315122D01*
X0215354Y0316500D01*
X0215354Y0321122D02*
X0216338Y0321122D01*
X0215354Y0321122D02*
X0215354Y0322500D01*
X0216338Y0322500D01*
X0216338Y0321122D01*
X0209646Y0321122D02*
X0208662Y0321122D01*
X0208662Y0322500D01*
X0209646Y0322500D01*
X0209646Y0321122D01*
X0209646Y0316500D02*
X0208662Y0316500D01*
X0209646Y0316500D02*
X0209646Y0315122D01*
X0208662Y0315122D01*
X0208662Y0316500D01*
X0208662Y0327122D02*
X0209646Y0327122D01*
X0208662Y0327122D02*
X0208662Y0328500D01*
X0209646Y0328500D01*
X0209646Y0327122D01*
X0215354Y0327122D02*
X0216338Y0327122D01*
X0215354Y0327122D02*
X0215354Y0328500D01*
X0216338Y0328500D01*
X0216338Y0327122D01*
X0216338Y0333122D02*
X0215354Y0333122D01*
X0215354Y0334500D01*
X0216338Y0334500D01*
X0216338Y0333122D01*
X0209646Y0333122D02*
X0208662Y0333122D01*
X0208662Y0334500D01*
X0209646Y0334500D01*
X0209646Y0333122D01*
X0209646Y0340500D02*
X0208662Y0340500D01*
X0209646Y0340500D02*
X0209646Y0339122D01*
X0208662Y0339122D01*
X0208662Y0340500D01*
X0215354Y0340500D02*
X0216338Y0340500D01*
X0216338Y0339122D01*
X0215354Y0339122D01*
X0215354Y0340500D01*
X0135811Y0339457D02*
X0135811Y0338473D01*
X0135811Y0339457D02*
X0137189Y0339457D01*
X0137189Y0338473D01*
X0135811Y0338473D01*
X0137189Y0333149D02*
X0137189Y0332165D01*
X0135811Y0332165D01*
X0135811Y0333149D01*
X0137189Y0333149D01*
X0137189Y0326457D02*
X0137189Y0325473D01*
X0135811Y0325473D01*
X0135811Y0326457D01*
X0137189Y0326457D01*
X0135811Y0345165D02*
X0135811Y0346149D01*
X0137189Y0346149D01*
X0137189Y0345165D01*
X0135811Y0345165D01*
X0089189Y0318149D02*
X0089189Y0317165D01*
X0087811Y0317165D01*
X0087811Y0318149D01*
X0089189Y0318149D01*
X0089189Y0311457D02*
X0089189Y0310473D01*
X0087811Y0310473D01*
X0087811Y0311457D01*
X0089189Y0311457D01*
X0081689Y0301649D02*
X0081689Y0300665D01*
X0080311Y0300665D01*
X0080311Y0301649D01*
X0081689Y0301649D01*
X0074689Y0301649D02*
X0074689Y0300665D01*
X0073311Y0300665D01*
X0073311Y0301649D01*
X0074689Y0301649D01*
X0074689Y0294957D02*
X0074689Y0293973D01*
X0073311Y0293973D01*
X0073311Y0294957D01*
X0074689Y0294957D01*
X0081689Y0294957D02*
X0081689Y0293973D01*
X0080311Y0293973D01*
X0080311Y0294957D01*
X0081689Y0294957D01*
X0091811Y0286649D02*
X0091811Y0285665D01*
X0091811Y0286649D02*
X0093189Y0286649D01*
X0093189Y0285665D01*
X0091811Y0285665D01*
X0091811Y0279957D02*
X0091811Y0278973D01*
X0091811Y0279957D02*
X0093189Y0279957D01*
X0093189Y0278973D01*
X0091811Y0278973D01*
X0067689Y0293973D02*
X0067689Y0294957D01*
X0067689Y0293973D02*
X0066311Y0293973D01*
X0066311Y0294957D01*
X0067689Y0294957D01*
X0067689Y0300665D02*
X0067689Y0301649D01*
X0067689Y0300665D02*
X0066311Y0300665D01*
X0066311Y0301649D01*
X0067689Y0301649D01*
X0059311Y0301649D02*
X0059311Y0300665D01*
X0059311Y0301649D02*
X0060689Y0301649D01*
X0060689Y0300665D01*
X0059311Y0300665D01*
X0059311Y0294957D02*
X0059311Y0293973D01*
X0059311Y0294957D02*
X0060689Y0294957D01*
X0060689Y0293973D01*
X0059311Y0293973D01*
X0023811Y0297973D02*
X0023811Y0298957D01*
X0025189Y0298957D01*
X0025189Y0297973D01*
X0023811Y0297973D01*
X0023811Y0304665D02*
X0023811Y0305649D01*
X0025189Y0305649D01*
X0025189Y0304665D01*
X0023811Y0304665D01*
X0022773Y0342945D02*
X0027366Y0347538D01*
X0029455Y0345449D01*
X0024862Y0340856D01*
X0022773Y0342945D01*
X0023636Y0343808D02*
X0027814Y0343808D01*
X0028144Y0346760D02*
X0026588Y0346760D01*
X0069811Y0253649D02*
X0069811Y0252665D01*
X0069811Y0253649D02*
X0071189Y0253649D01*
X0071189Y0252665D01*
X0069811Y0252665D01*
X0069811Y0246957D02*
X0069811Y0245973D01*
X0069811Y0246957D02*
X0071189Y0246957D01*
X0071189Y0245973D01*
X0069811Y0245973D01*
X0124773Y0215012D02*
X0125469Y0214316D01*
X0124495Y0213342D01*
X0123799Y0214038D01*
X0124773Y0215012D01*
X0129505Y0210280D02*
X0130201Y0209584D01*
X0129227Y0208610D01*
X0128531Y0209306D01*
X0129505Y0210280D01*
X0188354Y0203500D02*
X0189338Y0203500D01*
X0189338Y0202122D01*
X0188354Y0202122D01*
X0188354Y0203500D01*
X0188354Y0223500D02*
X0189338Y0223500D01*
X0189338Y0222122D01*
X0188354Y0222122D01*
X0188354Y0223500D01*
X0188354Y0183500D02*
X0189338Y0183500D01*
X0189338Y0182122D01*
X0188354Y0182122D01*
X0188354Y0183500D01*
X0188354Y0163500D02*
X0189338Y0163500D01*
X0189338Y0162122D01*
X0188354Y0162122D01*
X0188354Y0163500D01*
X0188354Y0143500D02*
X0189338Y0143500D01*
X0189338Y0142122D01*
X0188354Y0142122D01*
X0188354Y0143500D01*
X0174838Y0128500D02*
X0173854Y0128500D01*
X0174838Y0128500D02*
X0174838Y0127122D01*
X0173854Y0127122D01*
X0173854Y0128500D01*
X0168146Y0128500D02*
X0167162Y0128500D01*
X0168146Y0128500D02*
X0168146Y0127122D01*
X0167162Y0127122D01*
X0167162Y0128500D01*
X0181662Y0123500D02*
X0182646Y0123500D01*
X0182646Y0122122D01*
X0181662Y0122122D01*
X0181662Y0123500D01*
X0188354Y0123500D02*
X0189338Y0123500D01*
X0189338Y0122122D01*
X0188354Y0122122D01*
X0188354Y0123500D01*
X0028338Y0189122D02*
X0027354Y0189122D01*
X0027354Y0190500D01*
X0028338Y0190500D01*
X0028338Y0189122D01*
X0028338Y0195122D02*
X0027354Y0195122D01*
X0027354Y0196500D01*
X0028338Y0196500D01*
X0028338Y0195122D01*
X0021646Y0195122D02*
X0020662Y0195122D01*
X0020662Y0196500D01*
X0021646Y0196500D01*
X0021646Y0195122D01*
X0021646Y0189122D02*
X0020662Y0189122D01*
X0020662Y0190500D01*
X0021646Y0190500D01*
X0021646Y0189122D01*
D12*
X0027296Y0314669D02*
X0027296Y0318607D01*
X0027296Y0314669D02*
X0023358Y0314669D01*
X0023358Y0318607D01*
X0027296Y0318607D01*
X0027296Y0318605D02*
X0023358Y0318605D01*
X0055642Y0318607D02*
X0055642Y0314669D01*
X0051704Y0314669D01*
X0051704Y0318607D01*
X0055642Y0318607D01*
X0055642Y0318605D02*
X0051704Y0318605D01*
X0055642Y0343015D02*
X0055642Y0346953D01*
X0055642Y0343015D02*
X0051704Y0343015D01*
X0051704Y0346953D01*
X0055642Y0346953D01*
X0055642Y0346951D02*
X0051704Y0346951D01*
D13*
X0131516Y0092220D02*
X0131516Y0082378D01*
X0131516Y0092220D02*
X0133484Y0092220D01*
X0133484Y0082378D01*
X0131516Y0082378D01*
X0131516Y0084346D02*
X0133484Y0084346D01*
X0133484Y0086314D02*
X0131516Y0086314D01*
X0131516Y0088282D02*
X0133484Y0088282D01*
X0133484Y0090250D02*
X0131516Y0090250D01*
X0131516Y0092218D02*
X0133484Y0092218D01*
X0141516Y0092220D02*
X0141516Y0082378D01*
X0141516Y0092220D02*
X0143484Y0092220D01*
X0143484Y0082378D01*
X0141516Y0082378D01*
X0141516Y0084346D02*
X0143484Y0084346D01*
X0143484Y0086314D02*
X0141516Y0086314D01*
X0141516Y0088282D02*
X0143484Y0088282D01*
X0143484Y0090250D02*
X0141516Y0090250D01*
X0141516Y0092218D02*
X0143484Y0092218D01*
X0151516Y0092220D02*
X0151516Y0082378D01*
X0151516Y0092220D02*
X0153484Y0092220D01*
X0153484Y0082378D01*
X0151516Y0082378D01*
X0151516Y0084346D02*
X0153484Y0084346D01*
X0153484Y0086314D02*
X0151516Y0086314D01*
X0151516Y0088282D02*
X0153484Y0088282D01*
X0153484Y0090250D02*
X0151516Y0090250D01*
X0151516Y0092218D02*
X0153484Y0092218D01*
X0151516Y0103402D02*
X0151516Y0113244D01*
X0153484Y0113244D01*
X0153484Y0103402D01*
X0151516Y0103402D01*
X0151516Y0105370D02*
X0153484Y0105370D01*
X0153484Y0107338D02*
X0151516Y0107338D01*
X0151516Y0109306D02*
X0153484Y0109306D01*
X0153484Y0111274D02*
X0151516Y0111274D01*
X0151516Y0113242D02*
X0153484Y0113242D01*
X0141516Y0113244D02*
X0141516Y0103402D01*
X0141516Y0113244D02*
X0143484Y0113244D01*
X0143484Y0103402D01*
X0141516Y0103402D01*
X0141516Y0105370D02*
X0143484Y0105370D01*
X0143484Y0107338D02*
X0141516Y0107338D01*
X0141516Y0109306D02*
X0143484Y0109306D01*
X0143484Y0111274D02*
X0141516Y0111274D01*
X0141516Y0113242D02*
X0143484Y0113242D01*
X0131516Y0113244D02*
X0131516Y0103402D01*
X0131516Y0113244D02*
X0133484Y0113244D01*
X0133484Y0103402D01*
X0131516Y0103402D01*
X0131516Y0105370D02*
X0133484Y0105370D01*
X0133484Y0107338D02*
X0131516Y0107338D01*
X0131516Y0109306D02*
X0133484Y0109306D01*
X0133484Y0111274D02*
X0131516Y0111274D01*
X0131516Y0113242D02*
X0133484Y0113242D01*
X0052146Y0121827D02*
X0046240Y0121827D01*
X0046240Y0123795D01*
X0052146Y0123795D01*
X0052146Y0121827D01*
X0052146Y0123795D02*
X0046240Y0123795D01*
X0038760Y0131827D02*
X0032854Y0131827D01*
X0032854Y0133795D01*
X0038760Y0133795D01*
X0038760Y0131827D01*
X0038760Y0133795D02*
X0032854Y0133795D01*
X0046240Y0141827D02*
X0052146Y0141827D01*
X0046240Y0141827D02*
X0046240Y0143795D01*
X0052146Y0143795D01*
X0052146Y0141827D01*
X0052146Y0143795D02*
X0046240Y0143795D01*
X0038760Y0151827D02*
X0032854Y0151827D01*
X0032854Y0153795D01*
X0038760Y0153795D01*
X0038760Y0151827D01*
X0038760Y0153795D02*
X0032854Y0153795D01*
X0046240Y0171827D02*
X0052146Y0171827D01*
X0046240Y0171827D02*
X0046240Y0173795D01*
X0052146Y0173795D01*
X0052146Y0171827D01*
X0052146Y0173795D02*
X0046240Y0173795D01*
X0038760Y0181827D02*
X0032854Y0181827D01*
X0032854Y0183795D01*
X0038760Y0183795D01*
X0038760Y0181827D01*
X0038760Y0183795D02*
X0032854Y0183795D01*
X0046240Y0191827D02*
X0052146Y0191827D01*
X0046240Y0191827D02*
X0046240Y0193795D01*
X0052146Y0193795D01*
X0052146Y0191827D01*
X0052146Y0193795D02*
X0046240Y0193795D01*
X0038760Y0201827D02*
X0032854Y0201827D01*
X0032854Y0203795D01*
X0038760Y0203795D01*
X0038760Y0201827D01*
X0038760Y0203795D02*
X0032854Y0203795D01*
X0046240Y0211827D02*
X0052146Y0211827D01*
X0046240Y0211827D02*
X0046240Y0213795D01*
X0052146Y0213795D01*
X0052146Y0211827D01*
X0052146Y0213795D02*
X0046240Y0213795D01*
X0038760Y0221827D02*
X0032854Y0221827D01*
X0032854Y0223795D01*
X0038760Y0223795D01*
X0038760Y0221827D01*
X0038760Y0223795D02*
X0032854Y0223795D01*
X0046240Y0231827D02*
X0052146Y0231827D01*
X0046240Y0231827D02*
X0046240Y0233795D01*
X0052146Y0233795D01*
X0052146Y0231827D01*
X0052146Y0233795D02*
X0046240Y0233795D01*
X0038760Y0241827D02*
X0032854Y0241827D01*
X0032854Y0243795D01*
X0038760Y0243795D01*
X0038760Y0241827D01*
X0038760Y0243795D02*
X0032854Y0243795D01*
X0032854Y0111827D02*
X0038760Y0111827D01*
X0032854Y0111827D02*
X0032854Y0113795D01*
X0038760Y0113795D01*
X0038760Y0111827D01*
X0038760Y0113795D02*
X0032854Y0113795D01*
X0046240Y0101827D02*
X0052146Y0101827D01*
X0046240Y0101827D02*
X0046240Y0103795D01*
X0052146Y0103795D01*
X0052146Y0101827D01*
X0052146Y0103795D02*
X0046240Y0103795D01*
X0222854Y0111827D02*
X0228760Y0111827D01*
X0222854Y0111827D02*
X0222854Y0113795D01*
X0228760Y0113795D01*
X0228760Y0111827D01*
X0228760Y0113795D02*
X0222854Y0113795D01*
X0236240Y0121827D02*
X0242146Y0121827D01*
X0236240Y0121827D02*
X0236240Y0123795D01*
X0242146Y0123795D01*
X0242146Y0121827D01*
X0242146Y0123795D02*
X0236240Y0123795D01*
X0228760Y0131827D02*
X0222854Y0131827D01*
X0222854Y0133795D01*
X0228760Y0133795D01*
X0228760Y0131827D01*
X0228760Y0133795D02*
X0222854Y0133795D01*
X0236240Y0141827D02*
X0242146Y0141827D01*
X0236240Y0141827D02*
X0236240Y0143795D01*
X0242146Y0143795D01*
X0242146Y0141827D01*
X0242146Y0143795D02*
X0236240Y0143795D01*
X0228760Y0151827D02*
X0222854Y0151827D01*
X0222854Y0153795D01*
X0228760Y0153795D01*
X0228760Y0151827D01*
X0228760Y0153795D02*
X0222854Y0153795D01*
X0236240Y0161827D02*
X0242146Y0161827D01*
X0236240Y0161827D02*
X0236240Y0163795D01*
X0242146Y0163795D01*
X0242146Y0161827D01*
X0242146Y0163795D02*
X0236240Y0163795D01*
X0228760Y0171827D02*
X0222854Y0171827D01*
X0222854Y0173795D01*
X0228760Y0173795D01*
X0228760Y0171827D01*
X0228760Y0173795D02*
X0222854Y0173795D01*
X0236240Y0186827D02*
X0242146Y0186827D01*
X0236240Y0186827D02*
X0236240Y0188795D01*
X0242146Y0188795D01*
X0242146Y0186827D01*
X0242146Y0188795D02*
X0236240Y0188795D01*
X0228760Y0196827D02*
X0222854Y0196827D01*
X0222854Y0198795D01*
X0228760Y0198795D01*
X0228760Y0196827D01*
X0228760Y0198795D02*
X0222854Y0198795D01*
X0236240Y0206827D02*
X0242146Y0206827D01*
X0236240Y0206827D02*
X0236240Y0208795D01*
X0242146Y0208795D01*
X0242146Y0206827D01*
X0242146Y0208795D02*
X0236240Y0208795D01*
X0228760Y0216827D02*
X0222854Y0216827D01*
X0222854Y0218795D01*
X0228760Y0218795D01*
X0228760Y0216827D01*
X0228760Y0218795D02*
X0222854Y0218795D01*
X0236240Y0226827D02*
X0242146Y0226827D01*
X0236240Y0226827D02*
X0236240Y0228795D01*
X0242146Y0228795D01*
X0242146Y0226827D01*
X0242146Y0228795D02*
X0236240Y0228795D01*
X0228760Y0236827D02*
X0222854Y0236827D01*
X0222854Y0238795D01*
X0228760Y0238795D01*
X0228760Y0236827D01*
X0228760Y0238795D02*
X0222854Y0238795D01*
X0236240Y0246827D02*
X0242146Y0246827D01*
X0236240Y0246827D02*
X0236240Y0248795D01*
X0242146Y0248795D01*
X0242146Y0246827D01*
X0242146Y0248795D02*
X0236240Y0248795D01*
X0228760Y0256827D02*
X0222854Y0256827D01*
X0222854Y0258795D01*
X0228760Y0258795D01*
X0228760Y0256827D01*
X0228760Y0258795D02*
X0222854Y0258795D01*
X0236240Y0266827D02*
X0242146Y0266827D01*
X0236240Y0266827D02*
X0236240Y0268795D01*
X0242146Y0268795D01*
X0242146Y0266827D01*
X0242146Y0268795D02*
X0236240Y0268795D01*
X0228760Y0276827D02*
X0222854Y0276827D01*
X0222854Y0278795D01*
X0228760Y0278795D01*
X0228760Y0276827D01*
X0228760Y0278795D02*
X0222854Y0278795D01*
X0236240Y0101827D02*
X0242146Y0101827D01*
X0236240Y0101827D02*
X0236240Y0103795D01*
X0242146Y0103795D01*
X0242146Y0101827D01*
X0242146Y0103795D02*
X0236240Y0103795D01*
D14*
X0075591Y0261031D02*
X0074409Y0261031D01*
X0074409Y0265757D01*
X0075591Y0265757D01*
X0075591Y0261031D01*
X0075591Y0262211D02*
X0074409Y0262211D01*
X0074409Y0263391D02*
X0075591Y0263391D01*
X0075591Y0264571D02*
X0074409Y0264571D01*
X0074409Y0265751D02*
X0075591Y0265751D01*
X0070591Y0261031D02*
X0069409Y0261031D01*
X0069409Y0265757D01*
X0070591Y0265757D01*
X0070591Y0261031D01*
X0070591Y0262211D02*
X0069409Y0262211D01*
X0069409Y0263391D02*
X0070591Y0263391D01*
X0070591Y0264571D02*
X0069409Y0264571D01*
X0069409Y0265751D02*
X0070591Y0265751D01*
X0065591Y0261031D02*
X0064409Y0261031D01*
X0064409Y0265757D01*
X0065591Y0265757D01*
X0065591Y0261031D01*
X0065591Y0262211D02*
X0064409Y0262211D01*
X0064409Y0263391D02*
X0065591Y0263391D01*
X0065591Y0264571D02*
X0064409Y0264571D01*
X0064409Y0265751D02*
X0065591Y0265751D01*
X0060591Y0261031D02*
X0059409Y0261031D01*
X0059409Y0265757D01*
X0060591Y0265757D01*
X0060591Y0261031D01*
X0060591Y0262211D02*
X0059409Y0262211D01*
X0059409Y0263391D02*
X0060591Y0263391D01*
X0060591Y0264571D02*
X0059409Y0264571D01*
X0059409Y0265751D02*
X0060591Y0265751D01*
X0060591Y0283865D02*
X0059409Y0283865D01*
X0059409Y0288591D01*
X0060591Y0288591D01*
X0060591Y0283865D01*
X0060591Y0285045D02*
X0059409Y0285045D01*
X0059409Y0286225D02*
X0060591Y0286225D01*
X0060591Y0287405D02*
X0059409Y0287405D01*
X0059409Y0288585D02*
X0060591Y0288585D01*
X0064409Y0283865D02*
X0065591Y0283865D01*
X0064409Y0283865D02*
X0064409Y0288591D01*
X0065591Y0288591D01*
X0065591Y0283865D01*
X0065591Y0285045D02*
X0064409Y0285045D01*
X0064409Y0286225D02*
X0065591Y0286225D01*
X0065591Y0287405D02*
X0064409Y0287405D01*
X0064409Y0288585D02*
X0065591Y0288585D01*
X0069409Y0283865D02*
X0070591Y0283865D01*
X0069409Y0283865D02*
X0069409Y0288591D01*
X0070591Y0288591D01*
X0070591Y0283865D01*
X0070591Y0285045D02*
X0069409Y0285045D01*
X0069409Y0286225D02*
X0070591Y0286225D01*
X0070591Y0287405D02*
X0069409Y0287405D01*
X0069409Y0288585D02*
X0070591Y0288585D01*
X0074409Y0283865D02*
X0075591Y0283865D01*
X0074409Y0283865D02*
X0074409Y0288591D01*
X0075591Y0288591D01*
X0075591Y0283865D01*
X0075591Y0285045D02*
X0074409Y0285045D01*
X0074409Y0286225D02*
X0075591Y0286225D01*
X0075591Y0287405D02*
X0074409Y0287405D01*
X0074409Y0288585D02*
X0075591Y0288585D01*
X0116563Y0309480D02*
X0116563Y0310662D01*
X0116563Y0309480D02*
X0113807Y0309480D01*
X0113807Y0310662D01*
X0116563Y0310662D01*
X0116563Y0310660D02*
X0113807Y0310660D01*
X0116563Y0316960D02*
X0116563Y0318142D01*
X0116563Y0316960D02*
X0113807Y0316960D01*
X0113807Y0318142D01*
X0116563Y0318142D01*
X0116563Y0318140D02*
X0113807Y0318140D01*
X0127193Y0318142D02*
X0127193Y0316960D01*
X0124437Y0316960D01*
X0124437Y0318142D01*
X0127193Y0318142D01*
X0127193Y0318140D02*
X0124437Y0318140D01*
X0127193Y0314402D02*
X0127193Y0313220D01*
X0124437Y0313220D01*
X0124437Y0314402D01*
X0127193Y0314402D01*
X0127193Y0314400D02*
X0124437Y0314400D01*
X0127193Y0310662D02*
X0127193Y0309480D01*
X0124437Y0309480D01*
X0124437Y0310662D01*
X0127193Y0310662D01*
X0127193Y0310660D02*
X0124437Y0310660D01*
X0167933Y0310902D02*
X0167933Y0309720D01*
X0167933Y0310902D02*
X0173445Y0310902D01*
X0173445Y0309720D01*
X0167933Y0309720D01*
X0167933Y0310900D02*
X0173445Y0310900D01*
X0167933Y0314720D02*
X0167933Y0315902D01*
X0173445Y0315902D01*
X0173445Y0314720D01*
X0167933Y0314720D01*
X0167933Y0315900D02*
X0173445Y0315900D01*
X0167933Y0305902D02*
X0167933Y0304720D01*
X0167933Y0305902D02*
X0173445Y0305902D01*
X0173445Y0304720D01*
X0167933Y0304720D01*
X0167933Y0305900D02*
X0173445Y0305900D01*
X0167933Y0300902D02*
X0167933Y0299720D01*
X0167933Y0300902D02*
X0173445Y0300902D01*
X0173445Y0299720D01*
X0167933Y0299720D01*
X0167933Y0300900D02*
X0173445Y0300900D01*
X0167933Y0295902D02*
X0167933Y0294720D01*
X0167933Y0295902D02*
X0173445Y0295902D01*
X0173445Y0294720D01*
X0167933Y0294720D01*
X0167933Y0295900D02*
X0173445Y0295900D01*
X0167933Y0290902D02*
X0167933Y0289720D01*
X0167933Y0290902D02*
X0173445Y0290902D01*
X0173445Y0289720D01*
X0167933Y0289720D01*
X0167933Y0290900D02*
X0173445Y0290900D01*
X0167933Y0285902D02*
X0167933Y0284720D01*
X0167933Y0285902D02*
X0173445Y0285902D01*
X0173445Y0284720D01*
X0167933Y0284720D01*
X0167933Y0285900D02*
X0173445Y0285900D01*
X0167933Y0280902D02*
X0167933Y0279720D01*
X0167933Y0280902D02*
X0173445Y0280902D01*
X0173445Y0279720D01*
X0167933Y0279720D01*
X0167933Y0280900D02*
X0173445Y0280900D01*
X0191555Y0280902D02*
X0191555Y0279720D01*
X0191555Y0280902D02*
X0197067Y0280902D01*
X0197067Y0279720D01*
X0191555Y0279720D01*
X0191555Y0280900D02*
X0197067Y0280900D01*
X0191555Y0284720D02*
X0191555Y0285902D01*
X0197067Y0285902D01*
X0197067Y0284720D01*
X0191555Y0284720D01*
X0191555Y0285900D02*
X0197067Y0285900D01*
X0191555Y0289720D02*
X0191555Y0290902D01*
X0197067Y0290902D01*
X0197067Y0289720D01*
X0191555Y0289720D01*
X0191555Y0290900D02*
X0197067Y0290900D01*
X0191555Y0294720D02*
X0191555Y0295902D01*
X0197067Y0295902D01*
X0197067Y0294720D01*
X0191555Y0294720D01*
X0191555Y0295900D02*
X0197067Y0295900D01*
X0191555Y0299720D02*
X0191555Y0300902D01*
X0197067Y0300902D01*
X0197067Y0299720D01*
X0191555Y0299720D01*
X0191555Y0300900D02*
X0197067Y0300900D01*
X0191555Y0304720D02*
X0191555Y0305902D01*
X0197067Y0305902D01*
X0197067Y0304720D01*
X0191555Y0304720D01*
X0191555Y0305900D02*
X0197067Y0305900D01*
X0191555Y0309720D02*
X0191555Y0310902D01*
X0197067Y0310902D01*
X0197067Y0309720D01*
X0191555Y0309720D01*
X0191555Y0310900D02*
X0197067Y0310900D01*
X0191555Y0314720D02*
X0191555Y0315902D01*
X0197067Y0315902D01*
X0197067Y0314720D01*
X0191555Y0314720D01*
X0191555Y0315900D02*
X0197067Y0315900D01*
D15*
X0153819Y0337980D02*
X0153819Y0339556D01*
X0156181Y0339556D01*
X0156181Y0337980D01*
X0153819Y0337980D01*
X0153819Y0339554D02*
X0156181Y0339554D01*
X0153819Y0345066D02*
X0153819Y0346642D01*
X0156181Y0346642D01*
X0156181Y0345066D01*
X0153819Y0345066D01*
X0153819Y0346640D02*
X0156181Y0346640D01*
X0147819Y0346642D02*
X0147819Y0345066D01*
X0147819Y0346642D02*
X0150181Y0346642D01*
X0150181Y0345066D01*
X0147819Y0345066D01*
X0147819Y0346640D02*
X0150181Y0346640D01*
X0147819Y0339556D02*
X0147819Y0337980D01*
X0147819Y0339556D02*
X0150181Y0339556D01*
X0150181Y0337980D01*
X0147819Y0337980D01*
X0147819Y0339554D02*
X0150181Y0339554D01*
X0094839Y0344430D02*
X0091689Y0344430D01*
X0094839Y0344430D02*
X0094839Y0342854D01*
X0091689Y0342854D01*
X0091689Y0344430D01*
X0091689Y0344428D02*
X0094839Y0344428D01*
X0094839Y0335768D02*
X0091689Y0335768D01*
X0094839Y0335768D02*
X0094839Y0334192D01*
X0091689Y0334192D01*
X0091689Y0335768D01*
X0091689Y0335766D02*
X0094839Y0335766D01*
X0086570Y0332619D02*
X0086570Y0328287D01*
X0086570Y0332619D02*
X0088146Y0332619D01*
X0088146Y0328287D01*
X0086570Y0328287D01*
X0086570Y0329861D02*
X0088146Y0329861D01*
X0088146Y0331435D02*
X0086570Y0331435D01*
X0074759Y0332619D02*
X0074759Y0328287D01*
X0074759Y0332619D02*
X0076335Y0332619D01*
X0076335Y0328287D01*
X0074759Y0328287D01*
X0074759Y0329861D02*
X0076335Y0329861D01*
X0076335Y0331435D02*
X0074759Y0331435D01*
X0068854Y0332619D02*
X0068854Y0328287D01*
X0068854Y0332619D02*
X0070430Y0332619D01*
X0070430Y0328287D01*
X0068854Y0328287D01*
X0068854Y0329861D02*
X0070430Y0329861D01*
X0070430Y0331435D02*
X0068854Y0331435D01*
X0065311Y0335768D02*
X0062161Y0335768D01*
X0065311Y0335768D02*
X0065311Y0334192D01*
X0062161Y0334192D01*
X0062161Y0335768D01*
X0062161Y0335766D02*
X0065311Y0335766D01*
X0065311Y0344430D02*
X0062161Y0344430D01*
X0065311Y0344430D02*
X0065311Y0342854D01*
X0062161Y0342854D01*
X0062161Y0344430D01*
X0062161Y0344428D02*
X0065311Y0344428D01*
X0093681Y0271142D02*
X0093681Y0269566D01*
X0091319Y0269566D01*
X0091319Y0271142D01*
X0093681Y0271142D01*
X0093681Y0271140D02*
X0091319Y0271140D01*
X0093681Y0264056D02*
X0093681Y0262480D01*
X0091319Y0262480D01*
X0091319Y0264056D01*
X0093681Y0264056D01*
X0093681Y0264054D02*
X0091319Y0264054D01*
X0028831Y0213992D02*
X0027255Y0213992D01*
X0028831Y0213992D02*
X0028831Y0211630D01*
X0027255Y0211630D01*
X0027255Y0213992D01*
X0027255Y0213204D02*
X0028831Y0213204D01*
X0021745Y0213992D02*
X0020169Y0213992D01*
X0021745Y0213992D02*
X0021745Y0211630D01*
X0020169Y0211630D01*
X0020169Y0213992D01*
X0020169Y0213204D02*
X0021745Y0213204D01*
X0021745Y0203992D02*
X0020169Y0203992D01*
X0021745Y0203992D02*
X0021745Y0201630D01*
X0020169Y0201630D01*
X0020169Y0203992D01*
X0020169Y0203204D02*
X0021745Y0203204D01*
X0027255Y0203992D02*
X0028831Y0203992D01*
X0028831Y0201630D01*
X0027255Y0201630D01*
X0027255Y0203992D01*
X0027255Y0203204D02*
X0028831Y0203204D01*
X0246169Y0208992D02*
X0247745Y0208992D01*
X0247745Y0206630D01*
X0246169Y0206630D01*
X0246169Y0208992D01*
X0246169Y0208204D02*
X0247745Y0208204D01*
X0253255Y0208992D02*
X0254831Y0208992D01*
X0254831Y0206630D01*
X0253255Y0206630D01*
X0253255Y0208992D01*
X0253255Y0208204D02*
X0254831Y0208204D01*
X0254831Y0218992D02*
X0253255Y0218992D01*
X0254831Y0218992D02*
X0254831Y0216630D01*
X0253255Y0216630D01*
X0253255Y0218992D01*
X0253255Y0218204D02*
X0254831Y0218204D01*
X0247745Y0218992D02*
X0246169Y0218992D01*
X0247745Y0218992D02*
X0247745Y0216630D01*
X0246169Y0216630D01*
X0246169Y0218992D01*
X0246169Y0218204D02*
X0247745Y0218204D01*
X0247745Y0228992D02*
X0246169Y0228992D01*
X0247745Y0228992D02*
X0247745Y0226630D01*
X0246169Y0226630D01*
X0246169Y0228992D01*
X0246169Y0228204D02*
X0247745Y0228204D01*
X0253255Y0228992D02*
X0254831Y0228992D01*
X0254831Y0226630D01*
X0253255Y0226630D01*
X0253255Y0228992D01*
X0253255Y0228204D02*
X0254831Y0228204D01*
X0254831Y0238992D02*
X0253255Y0238992D01*
X0254831Y0238992D02*
X0254831Y0236630D01*
X0253255Y0236630D01*
X0253255Y0238992D01*
X0253255Y0238204D02*
X0254831Y0238204D01*
X0247745Y0238992D02*
X0246169Y0238992D01*
X0247745Y0238992D02*
X0247745Y0236630D01*
X0246169Y0236630D01*
X0246169Y0238992D01*
X0246169Y0238204D02*
X0247745Y0238204D01*
X0247745Y0198992D02*
X0246169Y0198992D01*
X0247745Y0198992D02*
X0247745Y0196630D01*
X0246169Y0196630D01*
X0246169Y0198992D01*
X0246169Y0198204D02*
X0247745Y0198204D01*
X0253255Y0198992D02*
X0254831Y0198992D01*
X0254831Y0196630D01*
X0253255Y0196630D01*
X0253255Y0198992D01*
X0253255Y0198204D02*
X0254831Y0198204D01*
X0254831Y0188992D02*
X0253255Y0188992D01*
X0254831Y0188992D02*
X0254831Y0186630D01*
X0253255Y0186630D01*
X0253255Y0188992D01*
X0253255Y0188204D02*
X0254831Y0188204D01*
X0247745Y0188992D02*
X0246169Y0188992D01*
X0247745Y0188992D02*
X0247745Y0186630D01*
X0246169Y0186630D01*
X0246169Y0188992D01*
X0246169Y0188204D02*
X0247745Y0188204D01*
X0247745Y0173992D02*
X0246169Y0173992D01*
X0247745Y0173992D02*
X0247745Y0171630D01*
X0246169Y0171630D01*
X0246169Y0173992D01*
X0246169Y0173204D02*
X0247745Y0173204D01*
X0253255Y0173992D02*
X0254831Y0173992D01*
X0254831Y0171630D01*
X0253255Y0171630D01*
X0253255Y0173992D01*
X0253255Y0173204D02*
X0254831Y0173204D01*
X0254831Y0163992D02*
X0253255Y0163992D01*
X0254831Y0163992D02*
X0254831Y0161630D01*
X0253255Y0161630D01*
X0253255Y0163992D01*
X0253255Y0163204D02*
X0254831Y0163204D01*
X0247745Y0163992D02*
X0246169Y0163992D01*
X0247745Y0163992D02*
X0247745Y0161630D01*
X0246169Y0161630D01*
X0246169Y0163992D01*
X0246169Y0163204D02*
X0247745Y0163204D01*
X0247745Y0153992D02*
X0246169Y0153992D01*
X0247745Y0153992D02*
X0247745Y0151630D01*
X0246169Y0151630D01*
X0246169Y0153992D01*
X0246169Y0153204D02*
X0247745Y0153204D01*
X0253255Y0153992D02*
X0254831Y0153992D01*
X0254831Y0151630D01*
X0253255Y0151630D01*
X0253255Y0153992D01*
X0253255Y0153204D02*
X0254831Y0153204D01*
X0254831Y0143992D02*
X0253255Y0143992D01*
X0254831Y0143992D02*
X0254831Y0141630D01*
X0253255Y0141630D01*
X0253255Y0143992D01*
X0253255Y0143204D02*
X0254831Y0143204D01*
X0247745Y0143992D02*
X0246169Y0143992D01*
X0247745Y0143992D02*
X0247745Y0141630D01*
X0246169Y0141630D01*
X0246169Y0143992D01*
X0246169Y0143204D02*
X0247745Y0143204D01*
X0247745Y0133992D02*
X0246169Y0133992D01*
X0247745Y0133992D02*
X0247745Y0131630D01*
X0246169Y0131630D01*
X0246169Y0133992D01*
X0246169Y0133204D02*
X0247745Y0133204D01*
X0253255Y0133992D02*
X0254831Y0133992D01*
X0254831Y0131630D01*
X0253255Y0131630D01*
X0253255Y0133992D01*
X0253255Y0133204D02*
X0254831Y0133204D01*
X0254831Y0123992D02*
X0253255Y0123992D01*
X0254831Y0123992D02*
X0254831Y0121630D01*
X0253255Y0121630D01*
X0253255Y0123992D01*
X0253255Y0123204D02*
X0254831Y0123204D01*
X0247745Y0123992D02*
X0246169Y0123992D01*
X0247745Y0123992D02*
X0247745Y0121630D01*
X0246169Y0121630D01*
X0246169Y0123992D01*
X0246169Y0123204D02*
X0247745Y0123204D01*
D16*
X0188012Y0328244D02*
X0187224Y0328244D01*
X0187224Y0334544D01*
X0188012Y0334544D01*
X0188012Y0328244D01*
X0188012Y0329030D02*
X0187224Y0329030D01*
X0187224Y0329816D02*
X0188012Y0329816D01*
X0188012Y0330602D02*
X0187224Y0330602D01*
X0187224Y0331388D02*
X0188012Y0331388D01*
X0188012Y0332174D02*
X0187224Y0332174D01*
X0187224Y0332960D02*
X0188012Y0332960D01*
X0188012Y0333746D02*
X0187224Y0333746D01*
X0187224Y0334532D02*
X0188012Y0334532D01*
X0185453Y0328244D02*
X0184665Y0328244D01*
X0184665Y0334544D01*
X0185453Y0334544D01*
X0185453Y0328244D01*
X0185453Y0329030D02*
X0184665Y0329030D01*
X0184665Y0329816D02*
X0185453Y0329816D01*
X0185453Y0330602D02*
X0184665Y0330602D01*
X0184665Y0331388D02*
X0185453Y0331388D01*
X0185453Y0332174D02*
X0184665Y0332174D01*
X0184665Y0332960D02*
X0185453Y0332960D01*
X0185453Y0333746D02*
X0184665Y0333746D01*
X0184665Y0334532D02*
X0185453Y0334532D01*
X0182894Y0328244D02*
X0182106Y0328244D01*
X0182106Y0334544D01*
X0182894Y0334544D01*
X0182894Y0328244D01*
X0182894Y0329030D02*
X0182106Y0329030D01*
X0182106Y0329816D02*
X0182894Y0329816D01*
X0182894Y0330602D02*
X0182106Y0330602D01*
X0182106Y0331388D02*
X0182894Y0331388D01*
X0182894Y0332174D02*
X0182106Y0332174D01*
X0182106Y0332960D02*
X0182894Y0332960D01*
X0182894Y0333746D02*
X0182106Y0333746D01*
X0182106Y0334532D02*
X0182894Y0334532D01*
X0180335Y0328244D02*
X0179547Y0328244D01*
X0179547Y0334544D01*
X0180335Y0334544D01*
X0180335Y0328244D01*
X0180335Y0329030D02*
X0179547Y0329030D01*
X0179547Y0329816D02*
X0180335Y0329816D01*
X0180335Y0330602D02*
X0179547Y0330602D01*
X0179547Y0331388D02*
X0180335Y0331388D01*
X0180335Y0332174D02*
X0179547Y0332174D01*
X0179547Y0332960D02*
X0180335Y0332960D01*
X0180335Y0333746D02*
X0179547Y0333746D01*
X0179547Y0334532D02*
X0180335Y0334532D01*
X0177776Y0328244D02*
X0176988Y0328244D01*
X0176988Y0334544D01*
X0177776Y0334544D01*
X0177776Y0328244D01*
X0177776Y0329030D02*
X0176988Y0329030D01*
X0176988Y0329816D02*
X0177776Y0329816D01*
X0177776Y0330602D02*
X0176988Y0330602D01*
X0176988Y0331388D02*
X0177776Y0331388D01*
X0177776Y0332174D02*
X0176988Y0332174D01*
X0176988Y0332960D02*
X0177776Y0332960D01*
X0177776Y0333746D02*
X0176988Y0333746D01*
X0176988Y0334532D02*
X0177776Y0334532D01*
D17*
X0178563Y0342811D03*
X0186437Y0342811D03*
D18*
X0195098Y0342772D03*
X0169902Y0342850D03*
D19*
X0172657Y0332181D03*
X0192343Y0332181D03*
D20*
X0140453Y0140449D02*
X0121949Y0140449D01*
X0121949Y0145173D01*
X0140453Y0145173D01*
X0140453Y0140449D01*
X0140453Y0143598D02*
X0121949Y0143598D01*
X0103051Y0140449D02*
X0084547Y0140449D01*
X0084547Y0145173D01*
X0103051Y0145173D01*
X0103051Y0140449D01*
X0103051Y0143598D02*
X0084547Y0143598D01*
D21*
X0227313Y0310416D02*
X0230365Y0310416D01*
X0230365Y0308742D01*
X0227313Y0308742D01*
X0227313Y0310416D01*
X0227313Y0310414D02*
X0230365Y0310414D01*
X0230365Y0318880D02*
X0227313Y0318880D01*
X0230365Y0318880D02*
X0230365Y0317206D01*
X0227313Y0317206D01*
X0227313Y0318880D01*
X0227313Y0318878D02*
X0230365Y0318878D01*
X0244635Y0318880D02*
X0247687Y0318880D01*
X0247687Y0317206D01*
X0244635Y0317206D01*
X0244635Y0318880D01*
X0244635Y0318878D02*
X0247687Y0318878D01*
X0247687Y0310416D02*
X0244635Y0310416D01*
X0247687Y0310416D02*
X0247687Y0308742D01*
X0244635Y0308742D01*
X0244635Y0310416D01*
X0244635Y0310414D02*
X0247687Y0310414D01*
X0247687Y0332416D02*
X0244635Y0332416D01*
X0247687Y0332416D02*
X0247687Y0330742D01*
X0244635Y0330742D01*
X0244635Y0332416D01*
X0244635Y0332414D02*
X0247687Y0332414D01*
X0247687Y0340880D02*
X0244635Y0340880D01*
X0247687Y0340880D02*
X0247687Y0339206D01*
X0244635Y0339206D01*
X0244635Y0340880D01*
X0244635Y0340878D02*
X0247687Y0340878D01*
X0230365Y0340880D02*
X0227313Y0340880D01*
X0230365Y0340880D02*
X0230365Y0339206D01*
X0227313Y0339206D01*
X0227313Y0340880D01*
X0227313Y0340878D02*
X0230365Y0340878D01*
X0230365Y0332416D02*
X0227313Y0332416D01*
X0230365Y0332416D02*
X0230365Y0330742D01*
X0227313Y0330742D01*
X0227313Y0332416D01*
X0227313Y0332414D02*
X0230365Y0332414D01*
D22*
X0129969Y0334531D02*
X0119929Y0334531D01*
X0119929Y0337091D01*
X0129969Y0337091D01*
X0129969Y0334531D01*
X0129969Y0337089D02*
X0119929Y0337089D01*
X0111071Y0334531D02*
X0101031Y0334531D01*
X0101031Y0337091D01*
X0111071Y0337091D01*
X0111071Y0334531D01*
X0111071Y0337089D02*
X0101031Y0337089D01*
D23*
X0108878Y0318339D02*
X0108878Y0317157D01*
X0106122Y0317157D01*
X0106122Y0318339D01*
X0108878Y0318339D01*
X0108878Y0310465D02*
X0108878Y0309283D01*
X0106122Y0309283D01*
X0106122Y0310465D01*
X0108878Y0310465D01*
X0082622Y0287339D02*
X0082622Y0286157D01*
X0082622Y0287339D02*
X0085378Y0287339D01*
X0085378Y0286157D01*
X0082622Y0286157D01*
X0082622Y0279465D02*
X0082622Y0278283D01*
X0082622Y0279465D02*
X0085378Y0279465D01*
X0085378Y0278283D01*
X0082622Y0278283D01*
X0082622Y0271339D02*
X0082622Y0270157D01*
X0082622Y0271339D02*
X0085378Y0271339D01*
X0085378Y0270157D01*
X0082622Y0270157D01*
X0082622Y0263465D02*
X0082622Y0262283D01*
X0082622Y0263465D02*
X0085378Y0263465D01*
X0085378Y0262283D01*
X0082622Y0262283D01*
X0061122Y0254339D02*
X0061122Y0253157D01*
X0061122Y0254339D02*
X0063878Y0254339D01*
X0063878Y0253157D01*
X0061122Y0253157D01*
X0061122Y0246465D02*
X0061122Y0245283D01*
X0061122Y0246465D02*
X0063878Y0246465D01*
X0063878Y0245283D01*
X0061122Y0245283D01*
D24*
X0079571Y0245701D02*
X0080949Y0245701D01*
X0079571Y0245701D02*
X0079571Y0247473D01*
X0080949Y0247473D01*
X0080949Y0245701D01*
X0080949Y0247078D02*
X0079571Y0247078D01*
X0087051Y0245701D02*
X0088429Y0245701D01*
X0087051Y0245701D02*
X0087051Y0247473D01*
X0088429Y0247473D01*
X0088429Y0245701D01*
X0088429Y0247078D02*
X0087051Y0247078D01*
X0084689Y0255149D02*
X0083311Y0255149D01*
X0083311Y0256921D01*
X0084689Y0256921D01*
X0084689Y0255149D01*
X0084689Y0256526D02*
X0083311Y0256526D01*
X0152071Y0227201D02*
X0153449Y0227201D01*
X0152071Y0227201D02*
X0152071Y0228973D01*
X0153449Y0228973D01*
X0153449Y0227201D01*
X0153449Y0228578D02*
X0152071Y0228578D01*
X0159551Y0227201D02*
X0160929Y0227201D01*
X0159551Y0227201D02*
X0159551Y0228973D01*
X0160929Y0228973D01*
X0160929Y0227201D01*
X0160929Y0228578D02*
X0159551Y0228578D01*
X0157189Y0236649D02*
X0155811Y0236649D01*
X0155811Y0238421D01*
X0157189Y0238421D01*
X0157189Y0236649D01*
X0157189Y0238026D02*
X0155811Y0238026D01*
X0181071Y0238421D02*
X0182449Y0238421D01*
X0182449Y0236649D01*
X0181071Y0236649D01*
X0181071Y0238421D01*
X0181071Y0238026D02*
X0182449Y0238026D01*
X0188551Y0238421D02*
X0189929Y0238421D01*
X0189929Y0236649D01*
X0188551Y0236649D01*
X0188551Y0238421D01*
X0188551Y0238026D02*
X0189929Y0238026D01*
X0186189Y0228973D02*
X0184811Y0228973D01*
X0186189Y0228973D02*
X0186189Y0227201D01*
X0184811Y0227201D01*
X0184811Y0228973D01*
X0184811Y0228578D02*
X0186189Y0228578D01*
X0188551Y0218421D02*
X0189929Y0218421D01*
X0189929Y0216649D01*
X0188551Y0216649D01*
X0188551Y0218421D01*
X0188551Y0218026D02*
X0189929Y0218026D01*
X0182449Y0218421D02*
X0181071Y0218421D01*
X0182449Y0218421D02*
X0182449Y0216649D01*
X0181071Y0216649D01*
X0181071Y0218421D01*
X0181071Y0218026D02*
X0182449Y0218026D01*
X0184811Y0208973D02*
X0186189Y0208973D01*
X0186189Y0207201D01*
X0184811Y0207201D01*
X0184811Y0208973D01*
X0184811Y0208578D02*
X0186189Y0208578D01*
X0188551Y0198421D02*
X0189929Y0198421D01*
X0189929Y0196649D01*
X0188551Y0196649D01*
X0188551Y0198421D01*
X0188551Y0198026D02*
X0189929Y0198026D01*
X0182449Y0198421D02*
X0181071Y0198421D01*
X0182449Y0198421D02*
X0182449Y0196649D01*
X0181071Y0196649D01*
X0181071Y0198421D01*
X0181071Y0198026D02*
X0182449Y0198026D01*
X0184811Y0188973D02*
X0186189Y0188973D01*
X0186189Y0187201D01*
X0184811Y0187201D01*
X0184811Y0188973D01*
X0184811Y0188578D02*
X0186189Y0188578D01*
X0188551Y0178421D02*
X0189929Y0178421D01*
X0189929Y0176649D01*
X0188551Y0176649D01*
X0188551Y0178421D01*
X0188551Y0178026D02*
X0189929Y0178026D01*
X0182449Y0178421D02*
X0181071Y0178421D01*
X0182449Y0178421D02*
X0182449Y0176649D01*
X0181071Y0176649D01*
X0181071Y0178421D01*
X0181071Y0178026D02*
X0182449Y0178026D01*
X0184811Y0168973D02*
X0186189Y0168973D01*
X0186189Y0167201D01*
X0184811Y0167201D01*
X0184811Y0168973D01*
X0184811Y0168578D02*
X0186189Y0168578D01*
X0188551Y0158421D02*
X0189929Y0158421D01*
X0189929Y0156649D01*
X0188551Y0156649D01*
X0188551Y0158421D01*
X0188551Y0158026D02*
X0189929Y0158026D01*
X0182449Y0158421D02*
X0181071Y0158421D01*
X0182449Y0158421D02*
X0182449Y0156649D01*
X0181071Y0156649D01*
X0181071Y0158421D01*
X0181071Y0158026D02*
X0182449Y0158026D01*
X0184811Y0148973D02*
X0186189Y0148973D01*
X0186189Y0147201D01*
X0184811Y0147201D01*
X0184811Y0148973D01*
X0184811Y0148578D02*
X0186189Y0148578D01*
X0188551Y0138421D02*
X0189929Y0138421D01*
X0189929Y0136649D01*
X0188551Y0136649D01*
X0188551Y0138421D01*
X0188551Y0138026D02*
X0189929Y0138026D01*
X0182449Y0138421D02*
X0181071Y0138421D01*
X0182449Y0138421D02*
X0182449Y0136649D01*
X0181071Y0136649D01*
X0181071Y0138421D01*
X0181071Y0138026D02*
X0182449Y0138026D01*
X0184811Y0128973D02*
X0186189Y0128973D01*
X0186189Y0127201D01*
X0184811Y0127201D01*
X0184811Y0128973D01*
X0184811Y0128578D02*
X0186189Y0128578D01*
X0160929Y0127201D02*
X0159551Y0127201D01*
X0159551Y0128973D01*
X0160929Y0128973D01*
X0160929Y0127201D01*
X0160929Y0128578D02*
X0159551Y0128578D01*
X0153449Y0127201D02*
X0152071Y0127201D01*
X0152071Y0128973D01*
X0153449Y0128973D01*
X0153449Y0127201D01*
X0153449Y0128578D02*
X0152071Y0128578D01*
X0155811Y0136649D02*
X0157189Y0136649D01*
X0155811Y0136649D02*
X0155811Y0138421D01*
X0157189Y0138421D01*
X0157189Y0136649D01*
X0157189Y0138026D02*
X0155811Y0138026D01*
X0153449Y0147201D02*
X0152071Y0147201D01*
X0152071Y0148973D01*
X0153449Y0148973D01*
X0153449Y0147201D01*
X0153449Y0148578D02*
X0152071Y0148578D01*
X0159551Y0147201D02*
X0160929Y0147201D01*
X0159551Y0147201D02*
X0159551Y0148973D01*
X0160929Y0148973D01*
X0160929Y0147201D01*
X0160929Y0148578D02*
X0159551Y0148578D01*
X0157189Y0156649D02*
X0155811Y0156649D01*
X0155811Y0158421D01*
X0157189Y0158421D01*
X0157189Y0156649D01*
X0157189Y0158026D02*
X0155811Y0158026D01*
X0153449Y0167201D02*
X0152071Y0167201D01*
X0152071Y0168973D01*
X0153449Y0168973D01*
X0153449Y0167201D01*
X0153449Y0168578D02*
X0152071Y0168578D01*
X0159551Y0167201D02*
X0160929Y0167201D01*
X0159551Y0167201D02*
X0159551Y0168973D01*
X0160929Y0168973D01*
X0160929Y0167201D01*
X0160929Y0168578D02*
X0159551Y0168578D01*
X0157189Y0176649D02*
X0155811Y0176649D01*
X0155811Y0178421D01*
X0157189Y0178421D01*
X0157189Y0176649D01*
X0157189Y0178026D02*
X0155811Y0178026D01*
X0153449Y0187201D02*
X0152071Y0187201D01*
X0152071Y0188973D01*
X0153449Y0188973D01*
X0153449Y0187201D01*
X0153449Y0188578D02*
X0152071Y0188578D01*
X0159551Y0187201D02*
X0160929Y0187201D01*
X0159551Y0187201D02*
X0159551Y0188973D01*
X0160929Y0188973D01*
X0160929Y0187201D01*
X0160929Y0188578D02*
X0159551Y0188578D01*
X0157189Y0196649D02*
X0155811Y0196649D01*
X0155811Y0198421D01*
X0157189Y0198421D01*
X0157189Y0196649D01*
X0157189Y0198026D02*
X0155811Y0198026D01*
X0153449Y0207201D02*
X0152071Y0207201D01*
X0152071Y0208973D01*
X0153449Y0208973D01*
X0153449Y0207201D01*
X0153449Y0208578D02*
X0152071Y0208578D01*
X0159551Y0207201D02*
X0160929Y0207201D01*
X0159551Y0207201D02*
X0159551Y0208973D01*
X0160929Y0208973D01*
X0160929Y0207201D01*
X0160929Y0208578D02*
X0159551Y0208578D01*
X0157189Y0216649D02*
X0155811Y0216649D01*
X0155811Y0218421D01*
X0157189Y0218421D01*
X0157189Y0216649D01*
X0157189Y0218026D02*
X0155811Y0218026D01*
X0078110Y0309882D02*
X0078110Y0311260D01*
X0078110Y0309882D02*
X0076338Y0309882D01*
X0076338Y0311260D01*
X0078110Y0311260D01*
X0078110Y0311259D02*
X0076338Y0311259D01*
X0068662Y0313622D02*
X0068662Y0315000D01*
X0068662Y0313622D02*
X0066890Y0313622D01*
X0066890Y0315000D01*
X0068662Y0315000D01*
X0068662Y0314999D02*
X0066890Y0314999D01*
X0078110Y0317362D02*
X0078110Y0318740D01*
X0078110Y0317362D02*
X0076338Y0317362D01*
X0076338Y0318740D01*
X0078110Y0318740D01*
X0078110Y0318739D02*
X0076338Y0318739D01*
D25*
X0052854Y0255922D02*
X0047894Y0255922D01*
X0047894Y0259700D01*
X0052854Y0259700D01*
X0052854Y0255922D01*
X0052854Y0258441D02*
X0047894Y0258441D01*
X0037106Y0259700D02*
X0032146Y0259700D01*
X0037106Y0259700D02*
X0037106Y0255922D01*
X0032146Y0255922D01*
X0032146Y0259700D01*
X0032146Y0258441D02*
X0037106Y0258441D01*
M02*
